<?xml version="1.0" encoding="UTF-8" standalone="no"?>
<svg xmlns:ffdec="https://www.free-decompiler.com/flash" xmlns:xlink="http://www.w3.org/1999/xlink" ffdec:objectType="frame" height="312.95px" width="370.7px" xmlns="http://www.w3.org/2000/svg">
  <g transform="matrix(1.0, 0.0, 0.0, 1.0, 185.9, 80.0)">
    <use ffdec:characterId="50" height="310.4" transform="matrix(1.0, 0.0, 0.0, 1.0, -180.9, -80.0)" width="350.45" xlink:href="#shape0"/>
  </g>
  <defs>
    <g id="shape0" transform="matrix(1.0, 0.0, 0.0, 1.0, 180.9, 80.0)">
      <path d="M8.5 -38.25 L2.5 -43.0 0.25 -50.5 2.2 -52.8 7.7 -57.7 Q16.2 -64.6 26.5 -68.75 L27.75 -68.5 Q36.6 -76.75 48.25 -80.0 L49.75 -78.25 Q52.75 -72.0 52.75 -68.0 L51.75 -61.0 Q50.25 -49.5 35.25 -49.25 25.5 -34.75 8.5 -38.25 M48.25 -65.0 Q35.25 -59.0 44.25 -54.25 53.75 -60.5 48.25 -65.0 M25.0 -43.5 Q34.0 -47.5 29.75 -53.5 14.0 -50.0 25.0 -43.5" fill="#ffffff" fill-rule="evenodd" stroke="none"/>
      <path d="M48.25 -65.0 Q53.75 -60.5 44.25 -54.25 35.25 -59.0 48.25 -65.0 M25.0 -43.5 Q14.0 -50.0 29.75 -53.5 34.0 -47.5 25.0 -43.5" fill="#000000" fill-rule="evenodd" stroke="none"/>
      <path d="M51.75 -61.0 Q76.4 -44.15 79.05 -14.7 79.9 -5.3 77.5 3.5 48.3 35.9 12.4 5.85 L10.0 3.75 Q-11.75 -13.6 6.75 -35.85 L8.5 -38.25 Q25.5 -34.75 35.25 -49.25 50.25 -49.5 51.75 -61.0 M105.0 68.75 Q117.75 77.55 126.7 90.3 135.1 102.25 132.35 116.15 126.9 143.75 101.4 158.4 70.05 176.45 47.5 154.0 L61.75 147.5 85.25 126.25 99.6 96.4 Q103.25 88.65 104.0 80.25 L104.5 79.75 105.0 68.75 M-25.5 159.25 L-11.5 162.75 Q-10.15 183.5 -16.45 203.35 -18.7 210.5 -23.45 215.8 -44.2 238.55 -77.1 225.85 -86.75 222.15 -94.7 215.8 -132.35 186.0 -103.5 144.25 -78.4 162.55 -47.05 160.7 L-25.5 159.25" fill="#e58508" fill-rule="evenodd" stroke="none"/>
      <path d="M-54.0 224.25 Q-25.75 226.5 -17.45 210.6 -25.5 233.6 -50.5 229.25 -113.75 222.25 -117.25 187.0 -104.0 220.25 -54.0 224.25 M-174.75 89.5 Q-177.3 119.05 -179.35 148.8 -183.95 119.8 -174.75 89.5 M-137.7 108.75 L-136.8 107.1 -136.05 105.7 -133.45 109.7 Q-149.95 139.8 -176.75 161.25 L-178.65 152.9 Q-174.4 147.7 -169.3 144.0 -149.5 129.3 -137.7 108.75 M87.0 55.25 L86.25 67.25 Q83.25 87.25 63.0 89.0 39.0 90.75 -1.0 -8.0 55.95 42.05 77.95 -3.0 77.0 9.25 85.75 40.75 L87.0 55.25 M117.5 -29.75 L104.0 -35.75 Q116.5 15.65 105.0 68.75 L112.0 74.5 108.25 82.0 108.7 83.3 Q111.95 98.1 108.5 112.75 L92.5 143.25 80.5 158.5 Q92.95 155.7 104.55 150.1 125.5 140.25 133.5 118.5 L134.0 120.25 Q126.55 142.2 106.8 155.45 73.6 177.6 47.5 154.0 L43.95 155.8 Q17.55 169.05 -11.25 162.75 L-13.5 190.0 Q-14.2 188.55 -15.1 188.45 -64.6 178.8 -112.0 160.75 L-103.5 144.0 Q-111.65 134.8 -118.3 124.3 -126.45 111.3 -125.75 96.0 L-126.5 95.25 -127.75 100.0 -131.9 97.8 Q-135.3 96.3 -138.25 94.0 -102.35 78.55 -77.0 47.5 L-76.5 47.75 Q-95.45 76.25 -108.25 108.0 -77.0 140.75 -33.5 133.5 L-34.05 136.6 -34.85 139.5 -35.5 140.75 Q-25.4 145.05 -14.65 147.7 -2.9 150.55 9.15 149.1 80.15 141.3 103.5 73.0 L104.0 41.0 Q103.25 37.4 101.3 34.35 99.45 31.4 96.75 29.25 L98.55 24.8 Q112.15 -7.25 100.75 -38.25 L94.25 -48.25 95.0 -48.5 Q117.1 -34.0 142.25 -31.75 L142.55 -29.85 Q142.55 -28.0 141.65 -26.6 139.45 -23.5 136.25 -21.5 L136.75 -20.75 136.0 -15.25 136.9 -14.85 Q154.75 -1.9 164.5 18.25 L160.5 -3.0 Q165.3 11.35 169.15 26.05 170.55 31.5 167.25 35.3 L166.75 35.15 Q157.2 28.3 150.5 18.25 L131.0 -7.75 117.5 -29.75" fill="#000000" fill-opacity="0.49803922" fill-rule="evenodd" stroke="none"/>
    </g>
  </defs>
</svg>
