<?xml version="1.0" encoding="UTF-8" standalone="no"?>
<svg xmlns:ffdec="https://www.free-decompiler.com/flash" xmlns:xlink="http://www.w3.org/1999/xlink" ffdec:objectType="frame" height="312.95px" width="370.7px" xmlns="http://www.w3.org/2000/svg">
  <g transform="matrix(1.0, 0.0, 0.0, 1.0, 185.9, 80.0)">
    <use ffdec:characterId="51" height="289.3" transform="matrix(1.0, 0.0, 0.0, 1.0, -184.4, -73.75)" width="360.15" xlink:href="#shape0"/>
  </g>
  <defs>
    <g id="shape0" transform="matrix(1.0, 0.0, 0.0, 1.0, 184.4, 73.75)">
      <path d="M-13.0 -38.0 L-19.0 -43.75 -21.0 -51.5 -17.05 -55.4 Q-12.4 -58.85 -7.4 -61.75 -2.8 -63.95 2.5 -65.0 L6.25 -65.75 7.25 -65.25 Q17.9 -72.05 30.75 -73.75 33.5 -73.9 34.5 -71.25 35.75 -70.5 36.0 -61.0 L34.5 -54.75 Q31.0 -43.25 14.25 -45.0 2.75 -32.5 -13.0 -38.0 M24.25 -48.75 Q31.75 -50.25 29.25 -58.75 13.5 -55.5 24.25 -48.75 M7.75 -50.0 Q-10.25 -49.75 2.5 -41.0 9.25 -40.5 7.75 -50.0" fill="#ffffff" fill-rule="evenodd" stroke="none"/>
      <path d="M-13.0 -38.0 Q2.75 -32.5 14.25 -45.0 31.0 -43.25 34.5 -54.75 56.25 -46.5 57.0 0.5 42.7 39.45 4.3 20.65 -5.9 15.6 -13.25 7.0 -34.2 -14.45 -14.85 -35.9 L-13.0 -38.0 M101.75 77.5 L104.75 72.25 Q122.2 83.9 133.3 101.85 136.7 107.3 136.5 113.35 135.25 148.15 102.45 166.9 67.15 187.1 47.25 153.5 91.65 131.45 100.65 82.35 L101.75 77.5 M-106.5 134.75 L-100.6 138.8 Q-75.9 154.0 -46.5 153.5 L-27.0 162.25 -13.0 164.25 Q-13.4 180.95 -21.0 195.6 -23.7 200.75 -28.4 204.05 -56.0 223.2 -89.0 203.75 -132.2 178.4 -106.5 134.75" fill="#e58508" fill-rule="evenodd" stroke="none"/>
      <path d="M7.75 -50.0 Q9.25 -40.5 2.5 -41.0 -10.25 -49.75 7.75 -50.0 M24.25 -48.75 Q13.5 -55.5 29.25 -58.75 31.75 -50.25 24.25 -48.75" fill="#000000" fill-rule="evenodd" stroke="none"/>
      <path d="M58.0 -4.0 Q72.5 68.5 39.0 88.0 2.0 98.0 -23.75 -9.0 27.75 58.75 58.0 -4.0 M93.5 -33.75 L94.0 -34.0 Q114.7 -22.6 136.35 -14.5 L136.85 -14.75 146.0 -12.75 139.0 -4.0 Q152.35 15.6 168.25 33.5 L169.5 32.0 163.25 8.25 Q170.85 29.2 175.75 50.75 143.0 27.95 126.75 -11.75 L109.0 -20.0 Q125.35 27.55 104.75 72.25 L116.5 81.75 Q99.7 105.1 97.75 134.5 84.05 146.45 76.0 162.0 L70.0 168.0 76.35 167.65 Q121.55 163.6 138.0 122.8 138.2 125.0 137.45 127.15 128.4 152.8 105.4 166.65 68.05 189.2 47.5 153.5 18.75 168.2 -12.75 164.25 -13.6 172.05 -14.95 179.7 -17.85 195.9 -29.65 206.8 -40.75 217.1 -57.25 215.25 -101.75 209.7 -115.65 172.15 -113.0 178.65 -108.15 183.85 -88.7 204.45 -60.3 209.7 -28.45 215.7 -19.25 189.0 -32.85 181.85 -47.25 176.95 -80.9 165.55 -112.75 151.75 L-114.65 151.4 -114.45 150.25 Q-111.8 141.75 -106.25 134.5 -133.6 111.45 -133.25 73.5 L-134.5 74.65 -136.0 76.0 -139.3 78.3 Q-140.15 78.45 -140.6 79.75 L-142.1 83.85 -144.5 81.0 Q-146.2 81.75 -147.85 80.6 -150.85 78.55 -153.25 76.0 L-150.5 77.0 -149.5 76.5 -146.25 77.5 -136.0 67.6 Q-129.7 62.7 -122.75 60.0 L-123.25 60.75 -118.5 57.25 -93.4 33.9 -93.0 34.5 -108.5 60.25 Q-112.0 67.75 -114.55 75.55 -115.95 79.8 -118.5 83.0 -99.05 122.25 -55.75 125.5 -56.25 133.55 -48.2 137.7 16.7 171.55 72.4 122.45 106.5 92.3 96.25 52.0 L98.25 48.75 Q126.55 4.5 93.5 -33.75 M-143.95 88.35 L-144.8 90.2 Q-151.2 104.1 -156.95 118.15 -157.95 120.6 -159.25 122.95 L-162.5 128.75 Q-170.9 141.15 -183.25 143.75 -187.0 107.75 -178.75 72.25 L-180.55 86.1 Q-183.5 107.05 -166.5 112.5 L-162.5 109.85 Q-154.65 104.5 -149.1 96.8 -146.2 92.8 -143.95 88.35" fill="#000000" fill-opacity="0.49803922" fill-rule="evenodd" stroke="none"/>
    </g>
  </defs>
</svg>
