<?xml version="1.0" encoding="UTF-8" standalone="no"?>
<svg xmlns:ffdec="https://www.free-decompiler.com/flash" xmlns:xlink="http://www.w3.org/1999/xlink" ffdec:objectType="frame" height="312.95px" width="370.7px" xmlns="http://www.w3.org/2000/svg">
  <g transform="matrix(1.0, 0.0, 0.0, 1.0, 185.9, 80.0)">
    <use ffdec:characterId="52" height="267.65" transform="matrix(1.0, 0.0, 0.0, 1.0, -185.9, -69.55)" width="365.4" xlink:href="#shape0"/>
  </g>
  <defs>
    <g id="shape0" transform="matrix(1.0, 0.0, 0.0, 1.0, 185.9, 69.55)">
      <path d="M-35.75 -40.5 Q-37.5 -41.0 -41.5 -47.0 L-43.25 -55.25 Q-36.35 -63.6 -24.75 -64.5 L-16.5 -65.25 -16.25 -65.0 -15.75 -64.75 Q-14.5 -64.9 -13.45 -65.4 1.15 -72.95 15.75 -66.75 L16.5 -58.75 Q15.0 -51.25 13.75 -50.75 9.0 -39.75 -9.75 -43.75 -26.0 -33.0 -35.75 -40.5 M2.25 -46.0 Q11.75 -51.5 3.25 -56.25 -11.25 -51.5 2.25 -46.0 M-20.75 -41.5 Q-10.5 -52.5 -25.5 -50.75 -32.0 -41.5 -20.75 -41.5" fill="#ffffff" fill-rule="evenodd" stroke="none"/>
      <path d="M2.25 -46.0 Q-11.25 -51.5 3.25 -56.25 11.75 -51.5 2.25 -46.0 M-20.75 -41.5 Q-32.0 -41.5 -25.5 -50.75 -10.5 -52.5 -20.75 -41.5" fill="#000000" fill-rule="evenodd" stroke="none"/>
      <path d="M13.75 -50.75 Q35.75 -47.75 32.5 -2.0 21.15 38.15 -17.8 25.0 -27.75 21.55 -34.45 13.2 L-38.25 8.25 Q-43.55 0.3 -46.1 -8.9 -51.3 -27.5 -35.75 -40.5 -26.0 -33.0 -9.75 -43.75 9.0 -39.75 13.75 -50.75 M-109.75 123.25 L-104.8 126.8 Q-88.1 139.5 -67.25 143.25 -64.7 144.95 -62.25 146.85 -42.5 162.0 -17.25 164.25 -19.45 175.6 -27.45 183.85 -47.9 205.0 -78.6 192.4 -127.85 172.1 -109.75 123.25 M74.5 128.2 Q82.85 117.35 89.25 105.0 L98.25 95.25 Q106.55 101.75 114.4 109.05 125.1 119.0 127.9 133.1 137.1 179.9 87.0 195.05 40.85 208.9 29.5 159.75 56.95 151.1 74.5 128.2" fill="#e58508" fill-rule="evenodd" stroke="none"/>
      <path d="M88.5 -20.0 Q109.95 -4.65 134.35 1.2 L134.75 1.0 144.75 5.0 143.0 6.65 141.4 8.05 Q138.35 10.4 138.0 14.0 140.75 11.95 142.85 15.05 144.95 18.1 146.25 20.75 163.75 40.6 178.2 60.9 L178.2 61.0 179.5 66.25 Q157.1 55.35 144.7 31.25 138.45 19.1 131.75 7.25 L113.5 -1.75 Q132.0 50.2 98.25 95.0 L108.25 103.75 107.7 103.9 107.1 104.35 Q101.5 110.35 95.5 115.75 L96.25 119.75 82.0 144.25 54.5 164.5 Q48.85 166.5 43.45 168.95 41.85 169.6 40.55 170.8 L40.65 171.0 40.65 171.35 40.55 171.7 39.75 173.4 38.75 175.0 Q52.6 204.35 88.25 190.15 111.25 181.1 126.75 162.3 L129.25 158.75 Q109.35 196.05 63.3 197.1 44.95 197.55 37.15 179.85 32.85 170.05 29.75 159.75 7.2 168.65 -17.0 164.25 -25.0 205.7 -68.65 194.9 -103.25 186.4 -115.75 154.5 -83.7 201.9 -31.0 186.25 L-31.85 185.4 -32.8 184.5 Q-43.0 176.85 -56.0 175.5 L-81.25 157.0 Q-86.75 155.25 -92.0 152.95 -104.15 147.75 -116.0 142.0 L-116.75 142.75 Q-116.5 140.35 -115.9 138.1 -114.75 134.0 -112.95 130.15 -111.4 126.75 -109.5 123.5 -141.7 93.45 -137.25 49.5 L-149.75 60.5 Q-160.25 96.95 -181.25 128.3 L-181.6 128.45 -182.0 128.5 -183.75 128.1 -185.25 127.25 Q-187.7 92.8 -181.15 58.5 L-180.35 58.5 -180.5 62.1 Q-181.15 74.25 -177.8 85.85 -176.4 90.65 -172.5 93.75 -170.4 94.0 -168.75 92.55 -158.75 83.85 -157.25 74.4 L-157.5 74.25 -157.15 73.65 Q-156.55 69.05 -157.95 64.25 -158.9 60.95 -163.0 59.5 L-163.7 58.5 -162.85 58.5 Q-157.6 59.6 -152.8 56.4 -141.9 49.05 -132.0 40.25 L-108.75 19.5 -109.45 21.4 -125.5 54.75 Q-113.0 96.45 -73.75 112.5 L-73.75 112.8 -73.85 113.15 Q-74.75 114.85 -76.15 116.0 L-77.0 116.75 Q-36.1 166.25 25.85 146.5 79.4 129.3 91.35 78.55 91.75 76.9 90.25 75.75 118.3 50.15 106.85 16.25 100.5 -2.65 88.25 -19.5 L88.5 -20.0 M-47.5 -17.0 Q-35.5 25.25 -2.65 28.2 23.5 28.4 33.25 -5.0 38.5 91.5 -4.5 90.0 -38.0 84.75 -47.5 -17.0" fill="#000000" fill-opacity="0.49803922" fill-rule="evenodd" stroke="none"/>
    </g>
  </defs>
</svg>
