<?xml version="1.0" encoding="UTF-8" standalone="no"?>
<svg xmlns:ffdec="https://www.free-decompiler.com/flash" xmlns:xlink="http://www.w3.org/1999/xlink" ffdec:objectType="frame" height="312.95px" width="370.7px" xmlns="http://www.w3.org/2000/svg">
  <g transform="matrix(1.0, 0.0, 0.0, 1.0, 185.9, 80.0)">
    <use ffdec:characterId="53" height="306.4" transform="matrix(1.0, 0.0, 0.0, 1.0, -183.3, -73.45)" width="367.95" xlink:href="#shape0"/>
  </g>
  <defs>
    <g id="shape0" transform="matrix(1.0, 0.0, 0.0, 1.0, 183.3, 73.45)">
      <path d="M-54.5 -52.75 Q-59.35 -61.25 -57.0 -69.75 -49.25 -76.1 -39.2 -71.55 L-34.0 -69.0 Q-14.55 -69.0 0.75 -57.75 L1.0 -57.0 Q1.5 -53.5 -1.0 -48.0 L-5.0 -43.25 Q-15.0 -34.75 -33.5 -46.5 -49.0 -42.5 -54.5 -52.75 M-50.75 -53.75 Q-37.5 -43.5 -42.5 -57.5 -49.5 -64.0 -50.75 -53.75 M-20.25 -44.0 Q-13.75 -46.5 -19.5 -53.25 -28.25 -55.75 -28.0 -49.25 -28.5 -44.0 -20.25 -44.0" fill="#ffffff" fill-rule="evenodd" stroke="none"/>
      <path d="M-54.5 -52.75 Q-49.0 -42.5 -33.5 -46.5 -15.0 -34.75 -5.0 -43.25 13.9 -30.25 6.2 -10.3 4.25 -5.25 1.5 -0.5 -21.85 39.45 -61.35 16.95 -67.45 13.45 -69.75 6.75 -79.75 -28.35 -55.75 -51.95 L-54.5 -52.75 M56.25 145.0 Q68.3 143.9 79.25 139.0 L87.0 135.75 Q114.2 157.8 117.25 192.2 118.05 201.25 111.9 207.55 76.5 243.45 24.7 227.95 22.85 227.45 21.85 226.2 1.0 201.2 7.25 164.0 L34.25 158.5 56.25 145.0 M-106.75 89.75 L-103.0 94.75 -103.0 95.25 -102.5 95.0 Q-100.7 97.8 -98.0 99.75 -92.15 113.25 -83.65 124.85 -74.25 137.6 -62.25 148.5 L-34.0 160.75 Q-64.5 179.6 -96.35 154.15 -131.6 126.0 -106.75 89.75" fill="#e58508" fill-rule="evenodd" stroke="none"/>
      <path d="M-20.25 -44.0 Q-28.5 -44.0 -28.0 -49.25 -28.25 -55.75 -19.5 -53.25 -13.75 -46.5 -20.25 -44.0 M-50.75 -53.75 Q-49.5 -64.0 -42.5 -57.5 -37.5 -43.5 -50.75 -53.75" fill="#000000" fill-rule="evenodd" stroke="none"/>
      <path d="M-72.5 -11.75 Q-70.5 21.25 -37.0 25.0 -11.75 26.0 8.75 -15.25 -17.5 96.75 -50.0 93.25 -89.0 90.5 -72.5 -11.75 M118.0 193.0 Q117.0 229.0 51.0 232.0 7.75 239.25 8.25 192.0 9.25 234.75 46.0 231.0 101.5 233.0 118.0 193.0 M176.25 68.25 L173.25 57.25 173.75 57.0 Q180.1 76.4 183.15 96.35 184.55 105.3 184.65 114.35 L184.5 112.75 176.25 68.25 M-151.75 -1.75 L-150.95 -0.8 Q-129.45 -10.65 -110.25 -24.5 L-112.3 -18.3 Q-126.45 27.5 -94.5 65.75 -103.25 86.2 -88.3 106.65 -45.8 164.7 24.0 147.8 54.1 140.6 63.0 116.25 85.95 106.95 106.75 93.55 112.15 90.05 112.5 83.9 114.7 46.0 82.5 20.0 L116.45 44.2 140.5 59.0 144.25 57.55 Q141.4 58.85 139.65 61.25 135.5 66.9 140.75 69.0 142.2 71.0 143.95 72.75 164.8 94.25 183.0 117.75 L183.85 115.6 184.65 115.75 184.25 121.7 180.75 122.25 Q167.2 111.8 157.5 97.75 L157.75 97.25 Q143.15 80.05 133.75 59.75 L126.75 55.75 Q133.6 109.3 87.0 135.75 L92.5 141.5 Q48.8 154.6 8.25 172.0 L7.25 171.75 7.25 164.0 Q-13.75 169.0 -33.0 160.75 -46.25 174.0 -65.15 169.35 -105.95 159.1 -117.25 120.5 -115.85 124.35 -113.85 128.05 -105.5 143.6 -89.75 151.75 L-91.55 148.35 Q-101.2 125.6 -116.25 106.25 L-106.5 89.5 Q-109.6 86.3 -111.65 82.5 -134.05 40.3 -123.75 -8.75 L-140.75 2.0 -155.75 35.0 -173.5 67.25 -174.95 69.75 -175.75 70.7 Q-177.25 72.4 -179.4 71.65 -184.75 70.05 -182.75 63.25 L-174.75 23.75 Q-172.05 33.1 -174.5 42.5 L-172.25 43.25 -152.0 16.0 -152.0 11.75 Q-156.0 10.1 -158.45 6.55 -159.65 4.8 -160.0 2.75 L-151.75 -1.75" fill="#000000" fill-opacity="0.49803922" fill-rule="evenodd" stroke="none"/>
    </g>
  </defs>
</svg>
