<?xml version="1.0" encoding="UTF-8" standalone="no"?>
<svg xmlns:ffdec="https://www.free-decompiler.com/flash" xmlns:xlink="http://www.w3.org/1999/xlink" ffdec:objectType="frame" height="312.95px" width="370.7px" xmlns="http://www.w3.org/2000/svg">
  <g transform="matrix(1.0, 0.0, 0.0, 1.0, 185.9, 80.0)">
    <use ffdec:characterId="54" height="309.45" transform="matrix(1.0, 0.0, 0.0, 1.0, -171.75, -79.65)" width="351.95" xlink:href="#shape0"/>
  </g>
  <defs>
    <g id="shape0" transform="matrix(1.0, 0.0, 0.0, 1.0, 171.75, 79.65)">
      <path d="M-52.75 -60.25 Q-55.75 -67.25 -50.75 -78.5 L-50.25 -79.5 Q-45.2 -80.35 -40.7 -77.05 L-32.5 -71.25 -32.5 -70.75 -31.2 -70.15 Q-13.3 -63.95 -0.5 -50.25 -1.0 -46.25 -4.75 -41.5 L-8.5 -38.75 Q-22.75 -33.25 -36.25 -49.0 -51.5 -49.5 -52.75 -60.25 M-31.75 -53.0 L-32.0 -47.75 Q-17.25 -39.0 -24.0 -52.5 -26.25 -54.75 -31.75 -53.0 M-51.25 -62.0 Q-47.55 -49.5 -42.1 -58.3 -41.85 -58.7 -41.75 -59.25 -46.05 -69.4 -51.25 -62.0" fill="#ffffff" fill-rule="evenodd" stroke="none"/>
      <path d="M-51.25 -62.0 Q-46.05 -69.4 -41.75 -59.25 -41.85 -58.7 -42.1 -58.3 -47.55 -49.5 -51.25 -62.0 M-31.75 -53.0 Q-26.25 -54.75 -24.0 -52.5 -17.25 -39.0 -32.0 -47.75 L-31.75 -53.0" fill="#000000" fill-rule="evenodd" stroke="none"/>
      <path d="M-52.75 -60.25 Q-51.5 -49.5 -36.25 -49.0 -22.75 -33.25 -8.5 -38.75 L-6.65 -36.4 Q11.5 -15.15 -8.75 2.25 L-10.95 4.25 Q-45.85 37.2 -78.0 5.25 L-77.75 4.75 -79.75 0.75 Q-89.25 -26.75 -52.75 -60.25 M-101.75 85.0 Q-96.4 108.95 -82.0 129.75 L-59.25 149.75 -41.75 158.0 Q-76.4 173.75 -105.4 142.75 -137.1 108.85 -102.5 77.0 L-101.75 85.0 M29.0 160.0 L31.65 160.1 Q49.5 162.4 67.2 159.45 90.8 155.3 107.25 139.0 133.65 169.95 114.1 200.45 109.05 208.3 101.15 213.7 64.0 239.35 31.1 215.0 28.2 212.8 26.75 208.7 19.05 186.7 16.25 163.5 L29.0 160.0" fill="#e58508" fill-rule="evenodd" stroke="none"/>
      <path d="M26.5 208.45 Q32.95 219.7 45.65 221.05 100.5 227.35 124.0 181.0 119.0 206.35 95.3 217.5 82.05 223.7 68.0 227.7 37.95 236.55 26.5 208.45 M175.25 98.25 L173.25 90.25 173.75 89.5 Q184.0 135.0 178.0 161.25 151.0 144.25 127.0 101.0 L136.0 107.0 Q140.25 122.25 166.5 139.25 L177.25 154.25 179.0 154.5 177.0 132.75 177.5 129.75 176.75 125.75 176.0 105.5 175.25 98.25 M-80.25 -1.25 Q-82.0 -7.5 -81.0 -13.0 -62.85 48.75 1.25 -9.0 -40.75 95.5 -68.75 90.75 -81.75 92.0 -87.0 71.75 L-87.5 63.25 -86.5 46.25 -82.75 21.75 -78.25 4.5 -80.25 -1.25 M-136.0 -32.5 L-129.0 -36.5 Q-112.75 -41.65 -95.25 -48.5 -115.75 -7.05 -93.75 37.5 L-95.5 45.3 Q-101.2 67.9 -92.45 88.7 -65.2 153.55 6.5 150.75 L36.75 141.0 38.7 139.95 Q39.6 137.3 38.7 134.5 L37.25 130.5 Q78.1 135.8 107.75 107.5 96.6 75.45 76.25 48.0 101.8 79.5 137.25 94.0 L135.95 94.25 Q130.55 95.7 126.5 99.5 L126.35 98.25 125.7 97.85 Q120.25 119.95 107.25 138.75 L118.25 157.5 116.0 155.75 114.5 155.75 Q82.0 180.25 42.0 179.0 33.9 185.25 23.25 187.5 L23.4 188.0 21.75 190.0 23.05 199.4 Q17.35 182.2 16.25 164.0 -14.3 169.5 -41.0 158.25 -44.0 159.3 -47.1 159.6 -97.25 165.85 -119.25 119.5 -108.9 139.8 -89.55 149.1 L-90.4 147.2 Q-106.55 116.95 -109.25 83.75 L-102.5 77.0 Q-118.75 20.75 -104.0 -36.25 L-118.25 -30.25 Q-134.75 -0.3 -156.2 26.4 -168.8 42.15 -171.75 29.25 L-161.75 -4.5 -161.0 -4.0 Q-164.95 6.35 -165.5 17.25 -155.55 -2.9 -137.0 -15.0 L-137.25 -20.75 -139.6 -23.0 Q-143.0 -26.4 -143.75 -31.25 -140.7 -34.5 -136.8 -32.95 L-136.0 -32.5" fill="#000000" fill-opacity="0.49803922" fill-rule="evenodd" stroke="none"/>
    </g>
  </defs>
</svg>
