<?xml version="1.0" encoding="UTF-8" standalone="no"?>
<svg xmlns:ffdec="https://www.free-decompiler.com/flash" xmlns:xlink="http://www.w3.org/1999/xlink" ffdec:objectType="frame" height="312.95px" width="370.7px" xmlns="http://www.w3.org/2000/svg">
  <g transform="matrix(1.0, 0.0, 0.0, 1.0, 185.9, 80.0)">
    <use ffdec:characterId="55" height="291.15" transform="matrix(1.0, 0.0, 0.0, 1.0, -176.25, -73.65)" width="359.65" xlink:href="#shape0"/>
  </g>
  <defs>
    <g id="shape0" transform="matrix(1.0, 0.0, 0.0, 1.0, 176.25, 73.65)">
      <path d="M12.0 -38.75 L14.45 -36.15 Q32.25 -15.65 13.75 4.5 -0.7 27.45 -27.95 26.45 -51.35 24.7 -58.0 2.75 -57.95 -0.05 -58.25 -2.85 -61.6 -36.6 -36.0 -54.0 -31.75 -43.25 -15.75 -45.0 3.75 -30.75 12.0 -38.75 M-97.75 88.0 L-96.5 88.75 Q-92.3 103.9 -84.55 117.45 -77.5 129.85 -68.25 141.0 L-40.0 157.75 Q-63.75 190.45 -99.15 166.25 -129.15 145.75 -125.5 112.25 -124.75 105.25 -119.9 99.6 -111.4 89.9 -102.5 80.75 L-97.75 88.0 M20.5 164.0 L29.75 163.0 50.75 153.0 Q76.35 152.6 97.95 139.15 104.4 135.1 110.0 130.0 132.15 155.45 120.6 183.7 115.95 195.05 105.8 202.55 69.0 229.7 35.45 206.2 32.85 204.4 31.45 201.05 23.85 183.1 20.5 164.0" fill="#e58508" fill-rule="evenodd" stroke="none"/>
      <path d="M-36.0 -54.0 L-37.75 -60.5 Q-37.75 -70.5 -36.25 -71.25 -35.35 -73.8 -32.5 -73.65 -22.3 -73.2 -13.5 -67.75 L-13.75 -67.25 Q-12.25 -66.5 -10.7 -66.3 7.65 -64.65 20.0 -51.25 19.0 -46.0 16.75 -43.0 L12.0 -38.75 Q3.75 -30.75 -15.75 -45.0 -31.75 -43.25 -36.0 -54.0 M-9.75 -50.0 Q-11.75 -41.25 -2.75 -41.0 4.0 -43.0 -1.25 -50.0 -3.75 -51.75 -7.5 -51.0 L-9.75 -50.0 M-24.25 -48.75 Q-19.25 -61.0 -31.25 -57.5 -32.25 -48.0 -24.25 -48.75" fill="#ffffff" fill-rule="evenodd" stroke="none"/>
      <path d="M-24.25 -48.75 Q-32.25 -48.0 -31.25 -57.5 -19.25 -61.0 -24.25 -48.75 M-9.75 -50.0 L-7.5 -51.0 Q-3.75 -51.75 -1.25 -50.0 4.0 -43.0 -2.75 -41.0 -11.75 -41.25 -9.75 -50.0" fill="#000000" fill-rule="evenodd" stroke="none"/>
      <path d="M-146.45 -10.85 L-147.25 -12.75 Q-119.25 -19.6 -94.25 -34.0 -126.7 7.05 -98.0 54.5 L-92.75 62.75 Q-99.4 97.6 -70.5 124.9 -55.5 139.1 -36.5 147.0 L-4.5 152.75 31.0 147.25 60.0 130.5 Q61.1 129.6 61.35 128.4 L61.65 126.0 61.45 124.55 60.9 123.15 60.0 121.75 Q80.2 118.85 97.0 107.2 111.3 97.2 117.75 82.0 107.15 57.0 92.5 34.0 L122.25 61.25 Q129.75 69.8 139.9 74.5 144.05 76.45 148.95 77.2 141.4 80.95 141.75 87.25 L138.75 78.75 132.0 73.5 Q133.85 102.05 115.4 123.8 L110.0 129.75 120.25 146.0 Q100.8 162.2 75.85 167.4 L64.3 169.05 62.5 172.5 34.5 185.75 28.75 191.5 Q46.85 225.75 86.0 210.65 107.7 202.25 120.7 183.55 L121.9 181.75 Q102.55 217.7 55.25 217.5 33.9 217.45 26.95 194.4 22.4 179.4 20.5 164.0 -10.35 168.4 -39.75 157.75 -59.7 188.8 -93.4 169.1 -118.15 154.55 -126.75 128.0 -111.35 157.1 -81.7 168.35 -73.0 171.75 -63.5 171.25 -90.7 145.8 -102.2 110.9 -105.8 99.95 -113.75 90.75 L-102.25 80.5 Q-128.85 33.15 -109.75 -20.25 L-128.25 -11.5 Q-147.5 24.5 -175.9 51.35 -176.45 51.9 -176.15 50.25 -172.85 31.65 -166.55 13.85 L-170.0 30.25 -169.0 33.0 -140.2 -3.45 Q-144.45 -6.2 -146.45 -10.85 M177.25 71.0 Q184.9 104.05 183.0 138.05 L182.75 142.5 Q165.5 139.5 154.7 117.2 149.65 106.8 145.25 96.1 L145.45 96.4 Q156.4 112.2 174.2 113.4 L174.8 112.8 Q177.5 97.75 177.55 82.25 177.6 76.6 177.25 71.0 M-29.75 88.5 Q-74.25 92.25 -59.0 -4.25 -52.0 26.25 -21.0 26.25 6.5 20.25 22.75 -10.0 3.0 75.75 -29.75 88.5" fill="#000000" fill-opacity="0.49803922" fill-rule="evenodd" stroke="none"/>
    </g>
  </defs>
</svg>
