<?xml version="1.0" encoding="UTF-8" standalone="no"?>
<svg xmlns:ffdec="https://www.free-decompiler.com/flash" xmlns:xlink="http://www.w3.org/1999/xlink" ffdec:objectType="frame" height="312.95px" width="370.7px" xmlns="http://www.w3.org/2000/svg">
  <g transform="matrix(1.0, 0.0, 0.0, 1.0, 185.9, 80.0)">
    <use ffdec:characterId="56" height="272.8" transform="matrix(1.0, 0.0, 0.0, 1.0, -180.0, -70.4)" width="364.8" xlink:href="#shape0"/>
  </g>
  <defs>
    <g id="shape0" transform="matrix(1.0, 0.0, 0.0, 1.0, 180.0, 70.4)">
      <path d="M-15.25 -50.0 Q-17.0 -50.5 -18.25 -58.5 L-17.5 -67.0 Q-14.75 -70.5 -9.75 -70.4 0.0 -70.2 9.0 -66.25 10.35 -65.65 11.7 -65.75 29.2 -66.85 42.0 -55.0 L40.25 -47.75 35.0 -41.25 Q21.25 -33.0 8.25 -43.75 -12.5 -40.25 -15.25 -50.0 M22.5 -41.5 Q32.75 -52.5 15.25 -49.5 13.5 -40.25 22.5 -41.5 M-8.75 -50.5 Q2.75 -41.0 2.25 -52.5 -7.75 -61.25 -9.0 -51.0 L-8.75 -50.5" fill="#ffffff" fill-rule="evenodd" stroke="none"/>
      <path d="M22.5 -41.5 Q13.5 -40.25 15.25 -49.5 32.75 -52.5 22.5 -41.5 M-8.75 -50.5 L-9.0 -51.0 Q-7.75 -61.25 2.25 -52.5 2.75 -41.0 -8.75 -50.5" fill="#000000" fill-rule="evenodd" stroke="none"/>
      <path d="M-15.25 -50.0 Q-12.5 -40.25 8.25 -43.75 21.25 -33.0 35.0 -41.25 L36.9 -39.4 Q54.8 -19.0 38.5 5.25 32.75 15.6 22.7 21.5 -15.85 44.0 -33.5 1.0 -37.0 -12.25 -31.0 -35.5 -28.5 -44.25 -15.25 -50.0 M71.5 141.5 L79.6 138.85 Q98.5 131.6 113.5 118.0 148.75 160.5 104.35 190.8 74.4 211.15 43.45 195.75 39.85 194.0 37.55 189.9 30.45 177.25 27.25 163.0 38.6 160.0 49.0 154.95 60.75 149.25 71.5 141.5 M-90.0 106.5 L-87.25 108.5 -85.35 111.65 Q-64.0 147.65 -24.5 160.75 -39.35 212.75 -88.35 194.75 -117.85 183.85 -123.85 154.65 -128.55 131.85 -111.7 114.45 -104.35 106.85 -96.25 100.0 L-90.0 106.5" fill="#e58508" fill-rule="evenodd" stroke="none"/>
      <path d="M46.7 -17.0 Q38.65 78.05 4.75 89.25 -39.75 95.25 -34.25 -5.25 -25.0 29.6 6.1 28.35 36.3 19.0 46.65 -17.0 L46.7 -17.0 M162.0 58.9 L161.05 60.05 159.95 61.15 Q156.75 64.35 152.25 65.0 L152.0 67.25 158.2 81.0 Q162.85 89.4 171.0 93.75 L172.05 92.55 Q183.0 75.1 179.35 53.85 186.5 90.2 184.25 127.0 L183.0 128.0 180.75 128.25 175.75 123.25 161.5 94.75 153.75 74.75 153.0 74.25 148.5 60.5 136.0 49.75 136.45 57.9 136.5 61.9 136.35 65.8 Q135.9 73.4 133.85 81.0 128.7 100.55 113.75 117.5 L124.5 134.0 Q106.25 146.5 84.75 155.5 L84.25 158.5 Q62.7 176.1 39.0 187.25 39.7 190.5 42.35 191.4 95.3 210.05 128.75 161.5 107.85 201.8 62.25 201.1 30.7 200.6 27.5 163.5 1.6 171.95 -23.25 160.75 -28.45 177.2 -39.45 190.45 -45.45 197.6 -54.4 197.8 -108.75 198.9 -127.25 151.0 -114.85 176.9 -89.0 189.25 -58.0 203.9 -37.15 182.55 -33.45 178.8 -36.6 175.45 -42.0 169.6 -49.15 165.35 -63.5 156.6 -73.75 143.55 -88.9 124.2 -106.75 108.75 L-96.75 100.0 Q-133.9 54.4 -114.25 -2.0 L-132.75 7.0 Q-146.6 44.9 -180.0 67.25 L-178.5 62.0 -142.5 13.0 -139.95 14.55 -139.5 12.75 -147.25 2.75 Q-115.55 -1.05 -88.25 -20.5 L-107.75 4.25 -107.5 5.0 -108.05 6.3 -109.0 8.25 -109.75 9.55 -110.15 9.95 -110.75 10.25 Q-123.6 51.45 -88.5 81.5 -79.1 127.75 -33.65 146.1 8.85 163.4 50.9 143.05 76.5 130.75 79.5 107.25 98.7 97.3 112.25 80.0 L112.0 79.5 124.75 57.0 Q123.95 37.35 108.25 20.0 L143.0 48.5 158.0 59.5 158.15 59.0 158.4 58.55 158.75 58.1 159.4 57.65 Q161.4 56.45 163.75 56.5 L162.0 58.9" fill="#000000" fill-opacity="0.49803922" fill-rule="evenodd" stroke="none"/>
    </g>
  </defs>
</svg>
