<?xml version="1.0" encoding="UTF-8" standalone="no"?>
<svg xmlns:ffdec="https://www.free-decompiler.com/flash" xmlns:xlink="http://www.w3.org/1999/xlink" ffdec:objectType="frame" height="312.95px" width="370.7px" xmlns="http://www.w3.org/2000/svg">
  <g transform="matrix(1.0, 0.0, 0.0, 1.0, 185.9, 80.0)">
    <use ffdec:characterId="57" height="303.25" transform="matrix(1.0, 0.0, 0.0, 1.0, -184.95, -73.95)" width="365.7" xlink:href="#shape0"/>
  </g>
  <defs>
    <g id="shape0" transform="matrix(1.0, 0.0, 0.0, 1.0, 184.95, 73.95)">
      <path d="M4.0 -42.75 L-1.25 -49.0 -2.5 -57.25 Q9.55 -67.7 26.0 -68.15 L26.75 -68.0 27.25 -67.75 Q36.35 -71.7 46.0 -73.65 52.25 -74.95 55.0 -70.25 L55.25 -59.75 53.0 -53.75 Q46.5 -42.25 31.75 -46.75 19.5 -35.75 4.0 -42.75 M44.5 -49.5 Q53.0 -55.5 46.25 -59.75 31.0 -55.0 44.5 -49.5 M21.75 -44.25 Q32.5 -55.75 18.0 -53.5 10.5 -44.25 21.75 -44.25" fill="#ffffff" fill-rule="evenodd" stroke="none"/>
      <path d="M4.0 -42.75 Q19.5 -35.75 31.75 -46.75 46.5 -42.25 53.0 -53.75 73.5 -43.0 69.0 4.5 67.4 10.2 62.75 13.8 26.8 42.1 -1.5 2.0 -4.5 -3.25 -6.9 -8.8 -15.3 -28.35 4.0 -42.75 M-90.5 134.5 Q-86.5 136.6 -82.35 138.4 -67.85 144.7 -52.25 146.0 L-32.0 158.0 -9.0 162.75 Q-4.5 194.9 -24.05 219.4 -28.5 225.0 -36.7 226.85 -86.3 237.55 -114.2 201.05 -119.35 194.35 -118.5 185.45 -115.45 154.7 -90.5 134.5 M104.25 89.5 L110.0 81.5 Q147.05 110.25 122.2 144.85 106.5 166.65 80.5 173.7 54.35 180.75 42.5 157.5 L66.25 146.5 89.0 124.0 104.25 89.5" fill="#e58508" fill-rule="evenodd" stroke="none"/>
      <path d="M21.75 -44.25 Q10.5 -44.25 18.0 -53.5 32.5 -55.75 21.75 -44.25 M44.5 -49.5 Q31.0 -55.0 46.25 -59.75 53.0 -55.5 44.5 -49.5" fill="#000000" fill-rule="evenodd" stroke="none"/>
      <path d="M158.4 -0.2 L160.5 -0.5 160.45 1.15 Q160.3 2.8 159.4 4.35 157.95 6.95 155.05 8.05 L152.5 9.0 150.75 11.5 Q155.75 30.1 171.55 43.55 174.3 39.25 174.1 34.15 173.75 26.65 171.95 19.35 179.1 44.85 180.75 71.3 168.25 68.35 160.2 47.1 147.95 14.8 123.0 -8.5 135.1 39.75 110.0 81.0 L121.8 94.95 109.25 110.5 110.25 114.75 Q91.1 140.7 74.75 168.25 108.1 164.5 128.7 138.5 101.9 182.05 53.95 168.0 45.9 165.7 42.5 157.5 17.2 168.25 -8.5 162.75 L-8.5 170.0 Q-49.45 149.9 -95.75 140.25 L-90.25 134.25 Q-134.1 107.6 -127.5 55.75 L-135.0 60.0 Q-153.1 95.65 -182.4 122.1 L-184.85 117.75 -184.0 117.75 -175.75 106.5 Q-156.85 88.5 -141.55 68.45 L-137.75 64.75 -140.25 62.2 -140.55 62.2 -141.85 61.8 -142.4 61.55 -143.9 60.45 -147.5 57.0 Q-111.15 49.1 -83.75 20.0 -107.5 47.8 -115.25 80.3 -115.85 82.7 -114.2 85.6 -95.75 117.05 -59.75 121.0 L-60.4 124.85 Q-8.2 172.3 57.8 141.9 82.35 130.6 94.15 107.45 107.2 81.75 99.5 57.25 130.25 19.35 110.0 -24.0 L126.5 -12.55 Q140.6 0.2 158.4 -0.2 M38.75 25.2 Q68.15 18.9 71.25 -9.5 86.0 83.25 50.5 91.0 14.5 97.25 -9.75 -14.5 6.75 22.25 38.75 25.2 M-177.25 71.5 Q-182.75 94.35 -184.95 117.45 -185.25 88.5 -176.25 60.5 L-175.25 60.5 -177.25 71.5 M-46.25 228.5 Q-116.75 227.25 -119.25 189.75 -102.0 228.75 -48.75 227.5 -10.0 230.75 -10.25 191.0 -8.25 230.75 -46.25 228.5" fill="#000000" fill-opacity="0.49803922" fill-rule="evenodd" stroke="none"/>
    </g>
  </defs>
</svg>
