<?xml version="1.0" encoding="UTF-8" standalone="no"?>
<svg xmlns:ffdec="https://www.free-decompiler.com/flash" xmlns:xlink="http://www.w3.org/1999/xlink" ffdec:objectType="shape" height="71.58px" width="68.34px" xmlns="http://www.w3.org/2000/svg">
  <g transform="matrix(1.2, 0.0, 0.0, 1.2, 30.3, 32.34)">
    <path d="M11.3 -14.65 L10.7 -14.15 9.9 -14.6 11.3 -14.65 M-8.5 18.05 Q-10.45 18.1 -11.95 16.85 L-12.1 16.8 -12.15 16.75 -8.5 18.05 M-3.3 -18.35 L-3.15 -18.25 Q-2.65 -17.0 -3.55 -15.9 -3.9 -17.05 -3.3 -18.35" fill="#dbb8af" fill-rule="evenodd" stroke="none"/>
    <path d="M10.15 -13.7 L13.25 -11.4 Q15.65 -7.0 16.95 -2.2 L15.85 -2.55 Q13.4 -3.35 11.0 -4.45 9.65 -6.05 7.5 -6.4 4.4 -6.35 1.6 -4.95 2.5 -8.55 5.6 -10.65 L10.15 -13.7 M17.8 -0.8 L18.1 -0.4 17.3 -0.95 17.8 -0.8 M26.05 5.85 L26.15 6.5 26.05 5.85 M16.95 18.85 L16.95 18.9 17.25 19.4 14.85 19.35 16.95 18.85 M-20.75 10.1 L-22.2 7.7 Q-23.85 4.8 -23.6 1.45 -20.55 1.85 -17.95 0.55 L-17.25 3.35 Q-17.65 7.3 -18.9 11.05 L-19.1 10.95 Q-19.95 10.55 -20.75 10.1 M-3.3 -26.1 L-0.1 -21.8 Q1.0 -20.15 1.45 -17.1 -0.65 -17.4 -2.05 -18.55 L-3.3 -18.35 Q-2.95 -19.05 -3.3 -19.9 L-3.9 -21.85 Q-4.4 -23.9 -3.8 -25.75 L-3.3 -26.1 M-3.55 -15.9 L-2.15 -11.15 Q-0.7 -6.1 -0.85 -1.0 L-1.6 -1.4 -5.3 -3.45 -7.8 -2.75 Q-9.55 -2.8 -10.75 -4.1 -11.1 -4.5 -11.6 -4.65 L-12.95 -4.75 Q-11.5 -8.85 -13.35 -12.85 L-14.95 -15.85 -15.1 -16.2 -6.05 -14.0 -3.55 -15.9" fill="#a0543a" fill-rule="evenodd" stroke="none"/>
    <path d="M1.6 -4.95 Q4.4 -6.35 7.5 -6.4 9.65 -6.05 11.0 -4.45 14.0 -0.25 16.05 4.05 L16.35 4.8 16.3 5.65 15.7 5.85 Q13.55 5.4 12.3 3.7 L10.7 1.75 Q8.5 -0.85 5.55 -2.1 L1.55 -1.75 1.7 -2.45 1.6 -4.95 M-16.3 -1.7 L-14.8 -4.95 -12.95 -4.75 -11.6 -4.65 Q-11.1 -4.5 -10.75 -4.1 -9.55 -2.8 -7.8 -2.75 L-5.3 -3.45 -1.6 -1.4 Q-2.45 0.8 -4.35 2.1 -6.35 3.35 -8.55 2.35 -12.6 0.65 -16.3 -1.7" fill="#fefbfd" fill-rule="evenodd" stroke="none"/>
    <path d="M10.7 -14.15 L10.15 -13.7 5.6 -10.65 Q2.5 -8.55 1.6 -4.95 L1.7 -2.45 -1.5 6.3 -0.85 -1.0 Q-0.7 -6.1 -2.15 -11.15 L-3.55 -15.9 Q-2.65 -17.0 -3.15 -18.25 L-3.3 -18.35 -2.05 -18.55 Q-0.65 -17.4 1.45 -17.1 L9.4 -15.35 9.9 -14.6 10.7 -14.15 M16.95 -2.2 L17.8 -0.8 17.3 -0.95 Q16.45 -1.6 15.85 -2.55 16.45 -1.6 17.3 -0.95 L18.1 -0.4 22.95 1.3 25.5 1.0 26.05 5.85 26.15 6.5 Q21.3 4.8 16.35 4.8 L16.05 4.05 Q14.0 -0.25 11.0 -4.45 13.4 -3.35 15.85 -2.55 L16.95 -2.2 M16.95 18.9 L17.95 19.65 Q19.3 20.25 20.55 21.5 21.55 22.45 20.95 23.85 L20.3 24.2 22.6 25.75 Q23.5 26.5 23.25 27.35 L13.7 28.5 9.35 28.6 Q10.15 25.8 13.1 25.6 L13.7 25.55 13.9 25.55 14.3 25.95 14.85 25.35 Q15.75 24.4 16.75 24.05 L12.3 22.95 9.45 23.0 6.1 23.5 5.55 23.45 Q4.55 22.45 5.25 21.4 4.55 22.45 5.55 23.45 2.95 23.15 0.85 21.1 0.6 20.85 -0.95 20.35 L-2.5 19.85 -8.5 18.05 -12.15 16.75 Q-14.65 15.65 -14.75 14.75 -14.9 13.2 -15.4 12.9 L-16.9 12.0 -18.9 11.05 Q-17.65 7.3 -17.25 3.35 L-17.2 3.55 -17.15 3.75 Q-16.65 6.45 -15.55 8.6 -15.0 9.55 -14.1 10.15 -6.7 15.25 2.15 16.15 L5.1 16.05 8.6 17.4 8.0 17.7 10.9 18.8 14.85 19.35 17.25 19.4 17.95 19.65 17.25 19.4 16.95 18.9 M0.7 -14.45 Q2.1 -15.7 3.8 -14.9 L4.1 -14.45 3.8 -14.9 Q2.1 -15.7 0.7 -14.45 M20.3 24.2 L16.75 24.05 20.3 24.2 M8.85 19.65 L14.85 19.35 8.85 19.65 M1.1 29.75 Q2.8 28.5 4.5 29.5 L4.55 31.4 Q2.7 32.3 0.75 31.45 L0.4 30.25 1.1 29.75 M-15.55 22.45 L-14.7 22.7 -13.8 25.15 Q-17.35 25.45 -20.45 24.2 L-15.55 22.45 M-9.4 25.7 Q-10.25 27.45 -12.05 26.7 L-12.8 26.15 Q-13.0 24.55 -11.15 24.0 -10.4 24.45 -9.7 24.85 L-9.4 25.7" fill="#73533b" fill-rule="evenodd" stroke="none"/>
    <path d="M15.7 5.85 L16.3 5.65 Q15.9 7.75 14.2 9.05 L9.0 13.15 5.1 16.05 2.15 16.15 Q-6.7 15.25 -14.1 10.15 -15.0 9.55 -15.55 8.6 -16.65 6.45 -17.15 3.75 L-14.8 3.8 Q-12.05 3.85 -9.8 2.3 L-6.3 4.65 -5.05 5.6 Q-2.9 6.95 -1.85 9.15 L-1.75 9.25 Q-0.5 9.5 6.0 4.95 L6.4 3.9 8.85 2.9 Q10.75 2.75 12.15 5.1 12.65 5.95 13.5 6.45 L15.7 5.85" fill="#cd955d" fill-rule="evenodd" stroke="none"/>
    <path d="M1.7 -2.45 L1.55 -1.75 5.55 -2.1 Q8.5 -0.85 10.7 1.75 L12.3 3.7 Q13.55 5.4 15.7 5.85 L13.5 6.45 Q12.65 5.95 12.15 5.1 10.75 2.75 8.85 2.9 L6.4 3.9 6.0 4.95 Q-0.5 9.5 -1.75 9.25 L-1.85 9.15 Q-2.9 6.95 -5.05 5.6 L-6.3 4.65 -9.8 2.3 Q-12.05 3.85 -14.8 3.8 L-17.15 3.75 -17.2 3.55 -17.25 3.35 -17.95 0.55 -18.1 0.3 Q-17.05 -0.6 -16.3 -1.7 -12.6 0.65 -8.55 2.35 -6.35 3.35 -4.35 2.1 -2.45 0.8 -1.6 -1.4 L-0.85 -1.0 -1.5 6.3 1.7 -2.45" fill="#f0cda9" fill-rule="evenodd" stroke="none"/>
    <path d="M26.15 6.5 L26.3 9.9 Q26.3 11.6 25.85 13.3 L24.7 16.6 Q21.1 18.35 16.95 18.85 L14.85 19.35 10.9 18.8 8.0 17.7 8.6 17.4 5.1 16.05 9.0 13.15 14.2 9.05 Q15.9 7.75 16.3 5.65 L16.35 4.8 Q21.3 4.8 26.15 6.5" fill="#514c40" fill-rule="evenodd" stroke="none"/>
    <path d="M11.3 -14.65 L14.95 -16.4 15.8 -18.8 18.15 -16.5 19.85 -13.95 Q22.35 -9.05 25.95 -5.2 L28.8 -1.75 Q30.1 0.0 30.85 2.15 L30.25 2.6 28.9 2.4 Q26.9 2.2 25.5 1.0 L22.95 1.3 18.1 -0.4 17.8 -0.8 16.95 -2.2 Q15.65 -7.0 13.25 -11.4 L10.15 -13.7 10.7 -14.15 11.3 -14.65 M14.85 25.35 L13.1 25.55 9.8 25.9 4.85 26.8 2.35 27.15 Q-0.55 26.4 -2.95 25.2 L-7.05 22.85 Q-8.8 21.7 -14.9 19.75 -21.0 17.8 -24.4 12.5 -22.15 12.6 -20.75 10.35 L-19.1 10.95 -18.9 11.05 -16.9 12.0 -15.4 12.9 Q-14.9 13.2 -14.75 14.75 -14.65 15.65 -12.15 16.75 L-12.1 16.8 -11.95 16.85 Q-10.45 18.1 -8.5 18.05 L-2.5 19.85 -0.95 20.35 Q0.6 20.85 0.85 21.1 2.95 23.15 5.55 23.45 L6.1 23.5 9.45 23.0 12.3 22.95 16.75 24.05 Q15.75 24.4 14.85 25.35 M-23.6 1.45 Q-23.45 -1.75 -22.4 -4.5 -20.7 -8.85 -17.6 -12.2 -16.05 -13.95 -15.1 -16.2 L-14.85 -16.85 -15.8 -17.7 Q-17.45 -19.2 -19.4 -20.1 -18.8 -22.5 -16.25 -22.55 L-14.15 -22.85 Q-11.5 -23.2 -9.35 -24.3 -6.5 -25.9 -3.3 -26.1 L-3.8 -25.75 Q-4.4 -23.9 -3.9 -21.85 L-3.3 -19.9 Q-2.95 -19.05 -3.3 -18.35 -3.9 -17.05 -3.55 -15.9 L-6.05 -14.0 -15.1 -16.2 -14.95 -15.85 -13.35 -12.85 Q-11.5 -8.85 -12.95 -4.75 L-14.8 -4.95 -16.3 -1.7 Q-17.05 -0.6 -18.1 0.3 L-17.95 0.55 Q-20.55 1.85 -23.6 1.45" fill="#dda793" fill-rule="evenodd" stroke="none"/>
    <path d="M25.5 1.0 Q26.9 2.2 28.9 2.4 L30.25 2.6 30.85 2.15 Q30.1 0.0 28.8 -1.75 L25.95 -5.2 Q22.35 -9.05 19.85 -13.95 L18.15 -16.5 15.8 -18.8 14.95 -16.4 11.3 -14.65 10.7 -14.15 10.15 -13.7 5.6 -10.65 Q2.5 -8.55 1.6 -4.95 L1.7 -2.45 -1.5 6.3 -0.85 -1.0 Q-0.7 -6.1 -2.15 -11.15 L-3.55 -15.9 Q-3.9 -17.05 -3.3 -18.35 L-2.05 -18.55 Q-0.65 -17.4 1.45 -17.1 L9.4 -15.35 9.9 -14.6 10.7 -14.15 M18.1 -0.4 L22.95 1.3 25.5 1.0 26.05 5.85 26.15 6.5 26.3 9.9 Q26.3 11.6 25.85 13.3 L24.7 16.6 Q21.1 18.35 16.95 18.85 L14.85 19.35 8.85 19.65 M16.95 18.9 L17.95 19.65 Q19.3 20.25 20.55 21.5 21.55 22.45 20.95 23.85 L20.3 24.2 22.6 25.75 Q23.5 26.5 23.25 27.35 L13.7 28.5 9.35 28.6 Q10.15 25.8 13.1 25.6 L13.7 25.55 13.9 25.55 14.3 25.95 14.85 25.35 13.1 25.55 9.8 25.9 4.85 26.8 2.35 27.15 Q-0.55 26.4 -2.95 25.2 L-7.05 22.85 Q-8.8 21.7 -14.9 19.75 -21.0 17.8 -24.4 12.5 -22.15 12.6 -20.75 10.35 L-20.75 10.1 -22.2 7.7 Q-23.85 4.8 -23.6 1.45 -23.45 -1.75 -22.4 -4.5 -20.7 -8.85 -17.6 -12.2 -16.05 -13.95 -15.1 -16.2 L-14.85 -16.85 -15.8 -17.7 Q-17.45 -19.2 -19.4 -20.1 -18.8 -22.5 -16.25 -22.55 L-14.15 -22.85 Q-11.5 -23.2 -9.35 -24.3 -6.5 -25.9 -3.3 -26.1 L-0.1 -21.8 Q1.0 -20.15 1.45 -17.1 M4.1 -14.45 L3.8 -14.9 Q2.1 -15.7 0.7 -14.45 M11.0 -4.45 Q9.65 -6.05 7.5 -6.4 4.4 -6.35 1.6 -4.95 M16.3 5.65 L16.35 4.8 16.05 4.05 Q14.0 -0.25 11.0 -4.45 M15.85 -2.55 Q16.45 -1.6 17.3 -0.95 L18.1 -0.4 M5.1 16.05 L9.0 13.15 14.2 9.05 Q15.9 7.75 16.3 5.65 M-17.15 3.75 Q-16.65 6.45 -15.55 8.6 -15.0 9.55 -14.1 10.15 -6.7 15.25 2.15 16.15 L5.1 16.05 M5.25 21.4 Q4.55 22.45 5.55 23.45 L6.1 23.5 M16.75 24.05 L20.3 24.2 M-0.95 20.35 L-2.5 19.85 M-8.5 18.05 Q-10.45 18.1 -11.95 16.85 L-12.1 16.8 M-16.9 12.0 L-18.9 11.05 -19.1 10.95 Q-19.95 10.55 -20.75 10.1 M17.95 19.65 L17.25 19.4 16.95 18.9 M1.1 29.75 L0.4 30.25 0.75 31.45 Q2.7 32.3 4.55 31.4 L4.5 29.5 Q2.8 28.5 1.1 29.75 M16.75 24.05 Q15.75 24.4 14.85 25.35 M-3.3 -26.1 L-3.8 -25.75 Q-4.4 -23.9 -3.9 -21.85 L-3.3 -19.9 Q-2.95 -19.05 -3.3 -18.35 M-12.95 -4.75 L-14.8 -4.95 -16.3 -1.7 Q-17.05 -0.6 -18.1 0.3 M-1.6 -1.4 L-5.3 -3.45 -7.8 -2.75 Q-9.55 -2.8 -10.75 -4.1 -11.1 -4.5 -11.6 -4.65 L-12.95 -4.75 M-1.6 -1.4 L-0.85 -1.0 M-17.95 0.55 L-17.25 3.35 M-17.2 3.55 L-17.15 3.75 M-15.55 22.45 L-20.45 24.2 Q-17.35 25.45 -13.8 25.15 L-14.7 22.7 -15.55 22.45 M-9.4 25.7 Q-10.25 27.45 -12.05 26.7 L-12.8 26.15 Q-13.0 24.55 -11.15 24.0 -10.4 24.45 -9.7 24.85 L-9.4 25.7 Z" fill="none" stroke="#000000" stroke-linecap="round" stroke-linejoin="round" stroke-width="1.75"/>
  </g>
</svg>
