<?xml version="1.0" encoding="UTF-8" standalone="no"?>
<svg xmlns:ffdec="https://www.free-decompiler.com/flash" xmlns:xlink="http://www.w3.org/1999/xlink" ffdec:objectType="shape" height="35.7px" width="26.759999999999998px" xmlns="http://www.w3.org/2000/svg">
  <g transform="matrix(1.2, 0.0, 0.0, 1.2, 0.0, 0.0)">
    <path d="M10.75 1.45 L12.35 1.15 21.2 7.85 19.45 8.55 10.75 1.45" fill="#a7928f" fill-rule="evenodd" stroke="none"/>
    <path d="M9.05 0.95 L12.5 0.0 Q18.15 3.15 22.3 8.05 L20.1 27.45 17.3 29.75 Q9.85 26.7 4.85 20.55 L4.95 19.4 3.75 18.2 1.1 18.1 0.05 17.5 Q-0.1 16.35 0.45 15.3 1.4 13.5 3.45 13.75 L4.9 12.55 5.35 7.4 Q5.6 4.5 8.55 4.35 L9.05 0.95 M16.6 7.35 L9.8 2.4 9.7 4.25 10.75 4.3 14.45 7.2 16.5 9.2 17.15 10.1 17.1 12.2 16.65 18.45 15.9 23.55 Q15.45 25.35 14.9 25.35 L12.0 25.3 16.95 28.35 17.35 24.2 17.85 18.6 18.45 12.2 18.6 9.0 16.6 7.35 M10.75 1.45 L19.45 8.55 21.2 7.85 12.35 1.15 10.75 1.45 M6.4 11.1 Q7.5 11.0 8.35 11.5 9.75 12.45 10.05 13.95 L10.15 11.25 6.6 7.7 6.4 11.1 M3.75 15.2 L1.2 15.15 0.9 16.25 Q0.9 17.05 1.35 17.2 L3.65 17.0 5.0 18.25 5.75 18.2 Q7.7 16.0 5.8 13.7 L4.7 13.7 3.75 15.2 M8.7 16.6 L8.75 15.15 Q8.75 12.35 7.4 12.35 L6.6 12.75 Q7.7 13.35 7.65 15.25 L7.5 17.15 6.9 18.7 6.2 19.15 Q8.75 19.4 8.7 16.6 M14.4 10.1 L15.9 10.0 15.95 10.0 Q13.55 6.25 9.5 5.55 L6.9 6.05 Q10.8 10.4 11.05 10.4 L14.4 10.1 M10.8 20.55 L10.6 23.9 14.85 23.75 15.95 11.15 15.15 11.2 11.1 11.55 10.8 20.55 M9.5 23.5 L9.9 17.85 Q9.3 20.75 6.2 20.4 L9.5 23.5 M20.55 13.95 L21.05 9.3 Q20.65 9.2 19.65 9.65 L19.05 15.8 18.35 22.4 17.75 28.35 19.1 26.8 19.9 20.0 20.55 13.95" fill="#000000" fill-rule="evenodd" stroke="none"/>
    <path d="M14.45 7.2 L10.75 4.3 9.7 4.25 9.8 2.4 16.6 7.35 14.45 7.2" fill="#c0b8c3" fill-rule="evenodd" stroke="none"/>
    <path d="M6.4 11.1 L6.6 7.7 10.15 11.25 10.05 13.95 Q9.75 12.45 8.35 11.5 7.5 11.0 6.4 11.1" fill="#bfc9ca" fill-rule="evenodd" stroke="none"/>
    <path d="M0.9 16.25 L1.2 15.15 3.75 15.2 3.85 16.05 0.9 16.25 M5.45 14.1 L5.75 14.9 4.65 15.1 Q4.65 13.85 5.45 14.1" fill="#f8faf9" fill-rule="evenodd" stroke="none"/>
    <path d="M3.75 15.2 L4.7 13.7 5.8 13.7 Q7.7 16.0 5.75 18.2 L5.0 18.25 3.65 17.0 1.35 17.2 Q0.9 17.05 0.9 16.25 L3.85 16.05 3.75 15.2 M5.45 14.1 Q4.65 13.85 4.65 15.1 L5.75 14.9 5.45 14.1" fill="#acb5bc" fill-rule="evenodd" stroke="none"/>
    <path d="M7.5 17.15 L7.65 15.25 Q7.7 13.35 6.6 12.75 L7.4 12.35 Q8.75 12.35 8.75 15.15 L8.7 16.6 7.5 17.15" fill="#6f6667" fill-rule="evenodd" stroke="none"/>
    <path d="M18.6 9.0 L18.45 12.2 17.1 12.2 17.15 10.1 16.5 9.2 18.6 9.0" fill="#576767" fill-rule="evenodd" stroke="none"/>
    <path d="M9.5 5.55 Q13.55 6.25 15.95 10.0 L15.9 10.0 14.4 10.1 9.5 5.55" fill="#bbc4c3" fill-rule="evenodd" stroke="none"/>
    <path d="M15.15 11.2 L15.95 11.15 14.85 23.75 10.6 23.9 10.8 20.55 11.45 20.8 Q14.95 20.8 15.15 11.2" fill="#616a67" fill-rule="evenodd" stroke="none"/>
    <path d="M16.6 7.35 L18.6 9.0 16.5 9.2 14.45 7.2 16.6 7.35" fill="#9c98a6" fill-rule="evenodd" stroke="none"/>
    <path d="M7.5 17.15 L8.7 16.6 Q8.75 19.4 6.2 19.15 L6.9 18.7 7.5 17.15" fill="#36333a" fill-rule="evenodd" stroke="none"/>
    <path d="M9.5 5.55 L14.4 10.1 11.05 10.4 Q10.8 10.4 6.9 6.05 L9.5 5.55" fill="#f0fbf5" fill-rule="evenodd" stroke="none"/>
    <path d="M15.15 11.2 Q14.95 20.8 11.45 20.8 L10.8 20.55 11.1 11.55 15.15 11.2" fill="#9ba8ae" fill-rule="evenodd" stroke="none"/>
    <path d="M17.85 18.6 L17.35 24.2 15.9 23.55 16.65 18.45 17.85 18.6" fill="#3b4346" fill-rule="evenodd" stroke="none"/>
    <path d="M17.35 24.2 L16.95 28.35 12.0 25.3 14.9 25.35 Q15.45 25.35 15.9 23.55 L17.35 24.2" fill="#202928" fill-rule="evenodd" stroke="none"/>
    <path d="M9.5 23.5 L6.2 20.4 Q9.3 20.75 9.9 17.85 L9.5 23.5" fill="#979799" fill-rule="evenodd" stroke="none"/>
    <path d="M18.45 12.2 L17.85 18.6 16.65 18.45 17.1 12.2 18.45 12.2" fill="#4c5658" fill-rule="evenodd" stroke="none"/>
    <path d="M19.05 15.8 L19.65 9.65 Q20.65 9.2 21.05 9.3 L20.55 13.95 19.05 15.8" fill="#aeafa7" fill-rule="evenodd" stroke="none"/>
    <path d="M19.05 15.8 L20.55 13.95 19.9 20.0 18.35 22.4 19.05 15.8" fill="#897c73" fill-rule="evenodd" stroke="none"/>
    <path d="M19.9 20.0 L19.1 26.8 17.75 28.35 18.35 22.4 19.9 20.0" fill="#53463e" fill-rule="evenodd" stroke="none"/>
  </g>
</svg>
