<?xml version="1.0" encoding="UTF-8" standalone="no"?>
<svg xmlns:ffdec="https://www.free-decompiler.com/flash" xmlns:xlink="http://www.w3.org/1999/xlink" ffdec:objectType="shape" height="65.46000000000001px" width="42.839999999999996px" xmlns="http://www.w3.org/2000/svg">
  <g transform="matrix(1.2, 0.0, 0.0, 1.2, 0.0, 0.0)">
    <path d="M9.35 3.7 Q9.55 4.15 9.55 5.65 9.55 7.4 8.65 8.3 6.7 9.85 4.7 12.0 1.55 15.4 1.55 18.35 1.55 21.5 4.0 22.9 6.4 24.3 15.3 27.0 18.8 28.25 21.35 32.05 23.55 35.4 23.55 37.85 23.55 41.2 19.6 44.5 15.6 47.75 15.45 48.55 15.25 49.3 15.5 50.4 15.75 51.45 19.5 52.3 L27.85 53.15 34.4 52.9 Q36.3 52.6 35.45 54.4 29.6 54.85 19.95 54.05 15.25 53.3 14.3 51.3 13.35 49.3 13.85 48.15 14.35 47.0 18.35 43.9 22.35 40.8 22.35 37.8 22.35 35.25 19.75 32.05 16.65 28.15 10.35 26.7 4.05 25.2 1.9 22.8 -0.3 20.4 0.05 17.6 0.35 14.8 4.4 10.8 8.4 6.85 8.4 5.65 8.4 3.55 6.1 0.9 5.9 0.25 6.25 0.0 L7.95 1.35 9.35 3.7" fill="#000000" fill-rule="evenodd" stroke="none"/>
  </g>
</svg>
