<?xml version="1.0" encoding="UTF-8" standalone="no"?>
<svg xmlns:ffdec="https://www.free-decompiler.com/flash" xmlns:xlink="http://www.w3.org/1999/xlink" ffdec:objectType="shape" height="114.35999999999999px" width="139.44px" xmlns="http://www.w3.org/2000/svg">
  <g transform="matrix(1.2, 0.0, 0.0, 1.2, 0.0, 0.0)">
    <path d="M56.25 59.4 Q58.25 57.5 63.3 50.75 68.2 44.15 68.75 43.7 L76.6 36.25 Q78.4 34.3 82.6 26.95 85.15 22.5 88.8 19.25 92.05 16.35 93.6 12.3 94.55 9.95 93.05 8.05 92.2 6.95 90.85 6.7 79.4 5.5 69.75 11.75 L70.7 11.0 Q79.85 4.15 91.2 5.1 94.75 5.65 95.85 8.85 96.25 10.05 95.95 11.25 94.9 15.75 91.5 18.95 84.7 25.4 80.85 33.95 L78.8 37.15 Q76.9 39.35 74.55 41.05 69.4 44.7 65.95 50.1 63.3 54.35 59.85 58.05 L56.25 59.4" fill="#a32328" fill-rule="evenodd" stroke="none"/>
    <path d="M70.7 11.0 L69.75 11.75 Q79.4 5.5 90.85 6.7 92.2 6.95 93.05 8.05 94.55 9.95 93.6 12.3 92.05 16.35 88.8 19.25 85.15 22.5 82.6 26.95 78.4 34.3 76.6 36.25 L68.75 43.7 Q68.2 44.15 63.3 50.75 58.25 57.5 56.25 59.4 45.8 62.6 40.3 72.0 L40.2 72.2 35.95 72.65 Q31.2 72.5 28.05 69.2 23.9 64.9 23.1 58.9 27.45 53.55 47.25 33.6 67.05 13.7 70.7 11.0" fill="#8d1c20" fill-rule="evenodd" stroke="none"/>
    <path d="M98.15 1.2 L96.7 1.9 96.3 0.8 95.1 1.6 87.15 1.65 86.1 1.7 69.5 2.55 44.5 28.75 Q24.55 49.65 22.45 51.1 20.35 52.2 17.95 54.2 15.5 56.2 16.1 59.65 L15.75 60.1 15.45 60.65 Q14.05 61.35 13.35 62.15 L13.45 63.4 Q11.3 64.8 9.8 67.0 L10.3 68.5 9.2 70.0 8.55 71.5 7.5 71.85 7.1 74.25 6.45 74.4 6.0 75.0 5.9 75.95 5.2 76.0 5.15 75.4 5.35 73.95 6.55 73.1 6.5 71.95 9.55 68.15 8.9 66.95 12.4 62.85 12.55 61.75 15.4 59.2 Q12.4 56.5 21.5 49.7 25.4 46.75 46.4 25.1 L68.85 1.55 96.75 0.0 97.15 0.5 98.3 0.35 98.15 1.2 M112.15 7.25 L113.6 6.0 113.85 5.25 Q114.15 4.45 114.9 4.35 L115.1 3.95 113.65 3.35 114.75 2.85 116.2 3.5 Q115.45 5.2 114.0 6.55 L112.75 7.6 113.5 9.3 93.25 36.35 Q74.8 61.0 69.85 68.7 L67.65 72.65 Q66.95 74.0 65.6 74.85 L65.95 77.75 65.3 78.45 63.95 78.4 64.1 80.35 60.6 86.9 60.75 88.15 59.25 89.1 60.45 91.15 Q59.0 91.7 58.4 89.6 L58.25 89.5 59.6 87.8 Q60.05 85.4 61.25 83.15 62.1 81.45 63.4 80.0 L63.15 78.95 63.65 77.75 65.15 77.4 Q64.05 74.9 66.05 73.05 L66.05 71.4 Q71.8 64.15 76.6 56.3 83.5 47.2 89.6 37.65 106.0 17.55 111.95 9.6 L112.15 7.25 M114.25 2.5 L113.65 3.05 112.95 2.55 111.25 2.45 111.3 1.35 109.85 1.4 109.7 0.65 Q109.75 0.1 110.4 0.1 110.85 0.1 112.25 0.65 L112.35 1.6 112.5 1.65 114.15 1.9 114.25 2.5 M108.65 0.95 L108.3 1.85 107.0 1.1 106.6 1.85 105.65 2.05 104.85 1.4 104.75 1.4 Q103.1 2.1 103.35 1.25 L105.0 0.2 105.75 0.75 107.25 0.15 107.7 0.45 Q108.1 -0.15 108.45 0.1 L108.65 0.95 M102.55 1.3 L102.35 2.0 102.0 2.3 101.4 2.0 101.5 1.4 Q101.75 0.35 102.5 0.6 L102.55 1.3 M99.85 1.4 L99.1 1.7 Q98.9 1.8 99.05 1.35 99.25 0.75 100.2 0.4 L100.6 0.85 99.85 1.4 M17.9 85.6 L17.9 85.65 21.3 85.45 21.55 86.55 23.85 85.9 24.4 86.05 24.45 87.2 28.65 87.55 28.8 88.6 29.0 88.6 Q30.05 88.2 30.05 89.15 L33.0 89.25 33.3 90.25 35.9 89.25 37.0 89.7 36.9 91.0 36.9 91.05 36.95 91.05 39.45 90.8 Q41.25 90.8 43.25 90.0 L43.75 91.95 47.55 91.6 47.6 92.75 47.55 92.8 47.55 92.9 47.75 92.95 48.75 92.5 50.05 92.45 50.1 93.25 52.0 92.7 53.1 92.65 53.1 92.75 53.05 92.95 52.2 94.0 51.85 93.75 49.3 94.3 49.1 93.15 47.7 93.9 46.8 93.8 46.75 92.35 42.15 93.3 42.65 91.5 36.05 91.8 36.0 90.25 32.95 91.25 31.55 89.8 29.4 91.0 28.9 89.7 27.7 89.7 27.75 88.1 23.7 87.95 23.35 87.3 21.25 87.45 20.65 86.4 Q17.4 87.45 16.4 86.0 L13.75 86.5 13.75 85.8 11.1 85.4 10.8 84.9 6.5 83.1 3.4 83.8 3.4 83.0 0.6 82.75 1.4 82.2 4.05 82.0 4.15 82.9 6.65 82.2 Q10.55 84.1 14.6 85.1 L14.65 85.6 16.1 85.35 17.1 85.1 17.6 85.4 17.9 85.6 M54.0 92.6 L54.4 93.05 53.3 95.3 53.2 93.6 Q53.2 93.25 53.35 93.0 53.55 92.7 54.0 92.6 M54.95 92.9 L54.85 91.9 Q55.55 91.65 55.8 92.5 L56.95 94.7 55.55 93.75 54.95 92.9 M56.15 92.25 Q56.15 91.65 56.5 91.2 56.8 90.75 57.3 90.75 L57.55 90.85 57.9 91.1 58.55 92.9 56.55 91.95 56.15 92.25 M4.55 75.85 L4.65 76.1 Q4.9 76.9 3.9 76.3 3.05 75.6 2.85 74.4 L2.95 74.2 Q3.9 74.3 4.55 75.85 M3.15 76.8 Q4.15 77.6 2.75 77.7 L2.25 77.7 1.8 77.6 0.7 76.1 3.15 76.8 M1.4 79.6 Q2.15 79.7 2.4 80.05 2.4 80.55 1.75 80.55 L1.3 80.45 0.0 80.15 1.4 79.6" fill="#000000" fill-rule="evenodd" stroke="none"/>
    <path d="M87.15 1.65 L95.1 1.6 96.3 0.8 96.7 1.9 98.15 1.2 99.05 1.35 Q98.9 1.8 99.1 1.7 L99.85 1.4 101.5 1.4 101.4 2.0 102.0 2.3 102.35 2.0 102.55 1.3 103.35 1.25 Q103.1 2.1 104.75 1.4 L104.85 1.4 105.65 2.05 106.6 1.85 107.0 1.1 108.3 1.85 108.65 0.95 109.7 0.65 109.85 1.4 111.3 1.35 111.25 2.45 112.95 2.55 113.65 3.05 114.25 2.5 114.75 2.85 113.65 3.35 115.1 3.95 114.9 4.35 Q114.15 4.45 113.85 5.25 L113.6 6.0 112.15 7.25 Q104.6 1.75 95.25 3.25 91.15 4.05 87.65 2.3 L87.15 1.65" fill="#c8555a" fill-rule="evenodd" stroke="none"/>
    <path d="M86.1 1.7 L87.15 1.65 87.65 2.3 Q91.15 4.05 95.25 3.25 104.6 1.75 112.15 7.25 L111.95 9.6 110.0 8.2 Q106.2 4.85 100.75 5.0 L99.5 5.05 98.25 4.4 90.45 4.0 86.55 3.8 Q85.75 3.2 85.85 2.25 L86.1 1.7" fill="#c34b4d" fill-rule="evenodd" stroke="none"/>
    <path d="M90.45 4.0 L98.25 4.4 99.5 5.05 Q101.9 6.6 101.8 9.3 101.55 14.55 98.2 18.45 94.65 22.45 92.55 27.5 88.55 37.1 79.6 42.4 78.55 43.0 77.8 43.85 73.9 48.1 70.7 52.85 68.65 55.85 65.45 56.5 L66.4 55.45 75.45 43.75 76.8 42.55 Q84.75 37.9 89.2 29.9 L92.45 23.85 Q93.6 21.65 95.25 19.85 99.05 15.5 99.75 9.9 99.95 8.1 98.55 7.1 94.9 4.35 90.45 4.0" fill="#bc3638" fill-rule="evenodd" stroke="none"/>
    <path d="M59.85 58.05 Q63.3 54.35 65.95 50.1 69.4 44.7 74.55 41.05 76.9 39.35 78.8 37.15 L80.85 33.95 Q84.7 25.4 91.5 18.95 94.9 15.75 95.95 11.25 96.25 10.05 95.85 8.85 94.75 5.65 91.2 5.1 79.85 4.15 70.7 11.0 67.05 13.7 47.25 33.6 27.45 53.55 23.1 58.9 L22.45 51.1 Q24.55 49.65 44.5 28.75 L69.5 2.55 86.1 1.7 85.85 2.25 Q85.75 3.2 86.55 3.8 L90.45 4.0 Q94.9 4.35 98.55 7.1 99.95 8.1 99.75 9.9 99.05 15.5 95.25 19.85 93.6 21.65 92.45 23.85 L89.2 29.9 Q84.75 37.9 76.8 42.55 L75.45 43.75 66.4 55.45 64.7 56.7 62.9 57.2 59.85 58.05 M110.0 8.2 L111.95 9.6 Q106.0 17.55 89.6 37.65 83.5 47.2 76.6 56.3 L74.65 56.35 Q77.25 52.5 89.65 36.3 102.8 19.1 108.65 12.1 110.1 10.35 110.0 8.2" fill="#b92a30" fill-rule="evenodd" stroke="none"/>
    <path d="M56.25 59.4 L59.85 58.05 62.9 57.2 Q57.25 60.95 51.55 64.85 51.0 65.25 50.8 65.9 49.4 70.35 45.45 72.65 L40.2 72.2 40.3 72.0 Q45.8 62.6 56.25 59.4" fill="#a33a3f" fill-rule="evenodd" stroke="none"/>
    <path d="M23.1 58.9 Q23.9 64.9 28.05 69.2 31.2 72.5 35.95 72.65 L35.7 72.7 31.3 72.35 30.5 72.2 28.85 71.8 Q26.25 70.45 23.45 69.25 16.35 66.45 9.2 70.0 L10.3 68.5 9.8 67.0 Q11.3 64.8 13.45 63.4 L13.35 62.15 Q14.05 61.35 15.45 60.65 L15.75 60.1 16.1 59.65 Q15.5 56.2 17.95 54.2 20.35 52.2 22.45 51.1 L23.1 58.9" fill="#8c1e11" fill-rule="evenodd" stroke="none"/>
    <path d="M45.45 72.65 Q49.4 70.35 50.8 65.9 51.0 65.25 51.55 64.85 57.25 60.95 62.9 57.2 L64.7 56.7 67.05 56.3 Q60.6 61.5 53.15 65.4 52.5 65.75 52.2 66.5 50.8 70.2 47.95 72.7 L47.2 73.1 45.45 72.65" fill="#c06464" fill-rule="evenodd" stroke="none"/>
    <path d="M47.95 72.7 Q50.8 70.2 52.2 66.5 52.5 65.75 53.15 65.4 60.6 61.5 67.05 56.3 L74.6 56.35 Q70.35 62.0 67.7 63.8 L54.8 88.15 53.25 87.45 52.2 88.2 47.7 88.5 46.7 86.95 Q42.55 88.75 38.45 86.9 29.0 82.65 18.9 83.3 L20.45 80.6 23.05 80.4 Q29.75 79.8 30.6 73.55 L35.1 74.2 Q34.25 77.65 37.5 78.65 42.55 80.1 47.15 77.6 50.3 75.85 47.95 72.7 M47.6 92.75 L48.75 92.5 47.75 92.95 47.55 92.8 47.6 92.75 M50.05 92.45 L50.2 92.6 52.0 92.7 50.1 93.25 50.05 92.45 M53.1 92.65 L54.0 92.6 53.1 92.75 53.1 92.65 M57.3 90.75 L58.25 89.5 58.4 89.6 57.55 90.85 57.3 90.75" fill="#dc8e8a" fill-rule="evenodd" stroke="none"/>
    <path d="M99.5 5.05 L100.75 5.0 Q106.2 4.85 110.0 8.2 110.1 10.35 108.65 12.1 102.8 19.1 89.65 36.3 77.25 52.5 74.65 56.35 L74.6 56.35 67.05 56.3 64.7 56.7 66.4 55.45 65.45 56.5 Q68.65 55.85 70.7 52.85 73.9 48.1 77.8 43.85 78.55 43.0 79.6 42.4 88.55 37.1 92.55 27.5 94.65 22.45 98.2 18.45 101.55 14.55 101.8 9.3 101.9 6.6 99.5 5.05" fill="#bf4341" fill-rule="evenodd" stroke="none"/>
    <path d="M74.65 56.35 L76.6 56.3 Q71.8 64.15 66.05 71.4 L66.05 73.05 Q64.05 74.9 65.15 77.4 L63.65 77.75 63.15 78.95 63.4 80.0 Q62.1 81.45 61.25 83.15 60.05 85.4 59.6 87.8 L58.25 89.5 57.3 90.75 Q56.8 90.75 56.5 91.2 56.15 91.65 56.15 92.25 L55.8 92.5 Q55.55 91.65 54.85 91.9 L54.95 92.9 54.4 93.05 54.0 92.6 53.1 92.65 52.0 92.7 50.2 92.6 50.05 92.45 48.75 92.5 47.6 92.75 47.55 91.6 43.75 91.95 43.25 90.0 Q41.25 90.8 39.45 90.8 L36.95 91.05 36.9 91.0 37.0 89.7 35.9 89.25 33.3 90.25 33.0 89.25 30.05 89.15 Q30.05 88.2 29.0 88.6 L28.8 88.6 28.65 87.55 24.45 87.2 24.4 86.05 23.85 85.9 21.55 86.55 21.3 85.45 17.9 85.65 17.9 85.6 17.9 85.4 17.7 85.4 18.9 83.3 Q29.0 82.65 38.45 86.9 42.55 88.75 46.7 86.95 L47.7 88.5 52.2 88.2 53.25 87.45 54.8 88.15 67.7 63.8 Q70.35 62.0 74.6 56.35 L74.65 56.35 M47.55 92.8 L47.75 92.95 47.55 92.9 47.55 92.8 M53.05 92.95 L53.1 92.75 54.0 92.6 Q53.55 92.7 53.35 93.0 L53.05 92.95" fill="#d28281" fill-rule="evenodd" stroke="none"/>
    <path d="M5.15 75.4 L5.2 76.0 5.9 75.95 6.0 75.0 6.45 74.4 7.1 74.25 7.5 71.85 8.55 71.5 Q12.05 70.3 15.9 69.8 21.2 69.45 25.95 72.15 L25.9 72.15 Q25.4 72.35 25.0 72.65 21.65 75.15 19.7 78.9 L16.1 85.35 14.65 85.6 14.6 85.1 Q10.55 84.1 6.65 82.2 L4.15 82.9 4.05 82.0 1.4 82.2 1.3 80.45 1.75 80.55 Q2.4 80.55 2.4 80.05 2.15 79.7 1.4 79.6 1.6 78.5 2.25 77.7 L2.75 77.7 Q4.15 77.6 3.15 76.8 L3.9 76.3 Q4.9 76.9 4.65 76.1 L4.55 75.85 5.15 75.4" fill="#ba3a39" fill-rule="evenodd" stroke="none"/>
    <path d="M18.9 83.3 L17.7 85.4 17.6 85.4 17.1 85.1 16.1 85.35 19.7 78.9 Q22.3 77.75 25.3 78.1 L25.6 77.7 Q27.5 75.65 28.1 73.1 L28.45 72.95 30.6 73.55 Q29.75 79.8 23.05 80.4 L20.45 80.6 18.9 83.3" fill="#cb6461" fill-rule="evenodd" stroke="none"/>
    <path d="M35.95 72.65 L40.2 72.2 45.45 72.65 47.2 73.1 46.3 73.85 47.3 74.95 Q47.2 75.7 46.6 76.05 43.2 78.05 39.25 77.35 36.45 77.05 36.75 74.3 L35.1 74.15 35.7 72.7 35.95 72.65" fill="#d16b67" fill-rule="evenodd" stroke="none"/>
    <path d="M47.2 73.1 L47.95 72.7 Q50.3 75.85 47.15 77.6 42.55 80.1 37.5 78.65 34.25 77.65 35.1 74.2 L35.1 74.15 36.75 74.3 Q36.45 77.05 39.25 77.35 43.2 78.05 46.6 76.05 47.2 75.7 47.3 74.95 L46.3 73.85 47.2 73.1" fill="#da7f7c" fill-rule="evenodd" stroke="none"/>
    <path d="M35.1 74.2 L30.6 73.55 28.45 72.95 30.5 72.2 31.3 72.35 35.7 72.7 35.1 74.15 35.1 74.2" fill="#b55555" fill-rule="evenodd" stroke="none"/>
    <path d="M25.9 72.15 L25.95 72.15 28.85 71.8 30.5 72.2 28.45 72.95 28.1 73.1 25.9 72.15" fill="#a63134" fill-rule="evenodd" stroke="none"/>
    <path d="M19.7 78.9 Q21.65 75.15 25.0 72.65 25.4 72.35 25.9 72.15 L28.1 73.1 Q27.5 75.65 25.6 77.7 L25.3 78.1 Q22.3 77.75 19.7 78.9" fill="#be4648" fill-rule="evenodd" stroke="none"/>
    <path d="M8.55 71.5 L9.2 70.0 Q16.35 66.45 23.45 69.25 26.25 70.45 28.85 71.8 L25.95 72.15 Q21.2 69.45 15.9 69.8 12.05 70.3 8.55 71.5" fill="#a32c24" fill-rule="evenodd" stroke="none"/>
  </g>
</svg>
