<?xml version="1.0" encoding="UTF-8" standalone="no"?>
<svg xmlns:ffdec="https://www.free-decompiler.com/flash" xmlns:xlink="http://www.w3.org/1999/xlink" ffdec:objectType="shape" height="23.339999999999996px" width="111.96px" xmlns="http://www.w3.org/2000/svg">
  <g transform="matrix(1.2, 0.0, 0.0, 1.2, 0.0, 0.0)">
    <path d="M4.9 10.1 L4.7 9.25 6.25 7.9 5.6 6.4 7.65 4.95 6.9 1.65 Q47.15 0.05 87.5 0.0 L87.45 2.0 90.6 8.1 89.85 8.4 Q89.15 8.4 88.7 7.85 88.2 7.3 88.2 6.5 L87.0 3.4 86.05 0.85 Q47.15 2.55 8.25 2.75 L8.8 4.7 Q8.4 6.25 6.95 6.95 L7.45 7.95 6.15 9.45 6.45 10.15 3.95 11.35 3.85 11.25 Q3.55 10.65 4.85 10.15 L4.95 10.1 4.9 10.1 M90.75 9.85 L91.4 9.9 92.7 12.6 93.25 12.9 93.3 14.8 92.95 15.05 92.4 15.1 92.25 16.65 Q89.9 14.9 86.9 16.9 L85.45 16.5 85.75 15.15 Q86.65 15.9 87.7 15.35 89.4 14.55 91.15 15.05 L91.15 14.25 92.75 14.1 91.2 11.3 90.3 10.3 90.75 9.85 M83.9 15.05 L84.15 16.25 83.55 16.3 83.15 15.7 76.45 15.45 74.35 16.15 73.75 15.5 73.05 15.4 72.95 16.15 72.05 16.05 72.05 15.1 76.55 14.1 Q80.45 15.65 83.9 15.05 M70.95 15.1 L70.9 15.8 70.5 16.1 70.05 15.3 Q67.2 14.2 64.8 15.75 L62.95 14.95 Q60.6 17.2 56.0 15.9 54.55 15.3 52.4 17.0 L51.8 17.1 49.7 16.25 Q48.35 17.05 47.0 16.25 L45.85 17.6 44.4 17.5 43.7 16.8 45.95 16.3 46.6 15.2 47.2 15.0 48.05 15.55 51.1 15.45 51.65 15.9 52.25 15.8 55.15 14.95 Q58.85 16.05 62.2 14.8 L63.65 14.15 65.0 14.55 66.75 13.9 66.95 13.9 67.9 14.05 Q70.3 13.9 70.95 15.1 M43.25 17.7 L43.2 17.85 42.55 17.8 42.2 16.2 43.25 17.7 M41.45 17.85 Q41.35 18.55 40.6 18.65 38.85 18.9 38.95 17.75 L39.7 17.3 40.55 17.45 40.95 16.8 41.45 17.85 M37.65 17.65 L36.65 18.2 32.35 18.1 31.5 17.55 30.75 18.6 30.8 17.3 31.7 16.65 Q32.3 17.65 38.05 17.4 L37.65 17.65 M29.55 17.55 L29.35 18.65 28.95 18.95 Q28.25 18.65 28.25 18.1 L28.35 17.65 28.6 17.35 Q29.35 16.45 29.55 17.55 M27.85 17.6 L24.2 17.7 22.8 18.8 21.15 17.85 20.05 18.8 19.6 18.3 18.1 18.75 Q17.4 18.9 17.7 18.1 L17.65 17.6 18.25 16.8 18.5 17.9 20.9 16.6 21.7 16.8 22.65 17.7 24.0 16.6 25.35 17.2 27.4 16.8 Q28.75 17.1 27.85 17.6 M16.55 18.3 L16.35 18.35 16.05 18.0 Q13.7 20.05 10.05 18.6 L6.7 17.6 Q6.0 18.75 4.65 18.8 L4.65 17.85 Q5.6 16.05 7.7 16.75 L8.1 17.35 11.6 17.4 12.3 18.0 13.7 18.05 16.35 16.75 16.55 18.3 M4.6 17.85 Q4.0 19.3 2.9 19.3 L3.9 17.9 4.6 17.85 M1.3 17.05 L0.05 17.2 Q-0.25 16.4 1.25 16.15 L2.85 16.65 1.3 17.05 M1.45 15.2 L1.0 14.8 2.05 13.95 3.7 14.55 1.45 15.2 M2.7 12.9 L2.55 12.95 Q2.5 12.0 3.65 11.75 L3.95 11.7 4.75 12.05 4.8 12.15 4.55 12.4 2.7 12.9 M62.5 14.9 L62.65 14.85 62.6 14.85 62.5 14.9 M2.2 17.9 L2.85 18.35 1.15 19.45 0.7 19.2 Q0.85 18.05 2.2 17.9" fill="#000000" fill-rule="evenodd" stroke="none"/>
    <path d="M88.2 6.5 Q88.2 7.3 88.7 7.85 89.15 8.4 89.85 8.4 L90.75 9.85 90.3 10.3 91.2 11.3 91.0 11.35 65.95 12.75 Q44.25 11.35 22.8 14.45 13.4 15.85 4.75 12.05 L3.95 11.7 3.75 11.6 3.9 11.4 Q16.75 11.85 29.55 9.7 L40.15 8.95 Q57.9 9.65 75.65 9.6 82.5 9.55 88.2 6.5" fill="#c02e31" fill-rule="evenodd" stroke="none"/>
    <path d="M6.15 9.45 L7.45 7.95 6.95 6.95 Q8.4 6.25 8.8 4.7 L8.25 2.75 Q47.15 2.55 86.05 0.85 L87.0 3.4 Q78.6 2.8 70.35 3.85 L42.55 5.3 Q37.2 5.2 32.25 6.4 19.4 9.5 6.15 9.45" fill="#66191f" fill-rule="evenodd" stroke="none"/>
    <path d="M3.95 11.35 L6.45 10.15 6.15 9.45 Q19.4 9.5 32.25 6.4 37.2 5.2 42.55 5.3 L70.35 3.85 Q78.6 2.8 87.0 3.4 L88.2 6.5 Q82.5 9.55 75.65 9.6 57.9 9.65 40.15 8.95 L29.55 9.7 Q16.75 11.85 3.9 11.4 L3.95 11.35" fill="#a9322e" fill-rule="evenodd" stroke="none"/>
    <path d="M85.75 15.15 L83.9 15.05 Q80.45 15.65 76.55 14.1 L72.05 15.1 70.95 15.1 Q70.3 13.9 67.9 14.05 L66.95 13.9 91.25 13.15 91.0 11.35 91.2 11.3 92.75 14.1 91.15 14.25 91.15 15.05 Q89.4 14.55 87.7 15.35 86.65 15.9 85.75 15.15 M17.7 18.1 L17.0 18.45 16.55 18.3 16.35 16.75 13.7 18.05 12.3 18.0 11.6 17.4 8.1 17.35 7.7 16.75 Q5.6 16.05 4.65 17.85 L4.6 17.85 3.9 17.9 3.7 17.9 Q1.75 17.9 1.3 17.05 L2.85 16.65 1.25 16.15 1.45 15.2 3.7 14.55 2.05 13.95 2.7 12.9 4.55 12.4 4.1 12.6 Q4.85 14.2 9.65 15.45 L20.9 16.6 18.5 17.9 18.25 16.8 17.65 17.6 17.7 18.1 M66.75 13.9 L65.0 14.55 63.65 14.15 62.2 14.8 Q58.85 16.05 55.15 14.95 L52.25 15.8 51.65 15.9 51.1 15.45 51.5 15.35 Q59.05 13.65 66.75 13.9" fill="#d68c8d" fill-rule="evenodd" stroke="none"/>
    <path d="M44.4 17.5 L43.25 17.7 42.2 16.2 42.55 17.8 41.45 17.85 40.95 16.8 40.55 17.45 39.7 17.3 38.95 17.75 37.65 17.65 38.05 17.4 Q32.3 17.65 31.7 16.65 L30.8 17.3 29.55 17.55 Q29.35 16.45 28.6 17.35 L28.35 17.65 27.85 17.6 Q28.75 17.1 27.4 16.8 L25.35 17.2 24.0 16.6 22.65 17.7 21.7 16.8 20.9 16.6 9.65 15.45 Q4.85 14.2 4.1 12.6 L4.55 12.4 4.8 12.15 4.75 12.05 Q13.4 15.85 22.8 14.45 44.25 11.35 65.95 12.75 L91.0 11.35 91.25 13.15 66.95 13.9 66.75 13.9 Q59.05 13.65 51.5 15.35 L51.1 15.45 48.05 15.55 47.2 15.0 46.6 15.2 45.95 16.3 43.7 16.8 44.4 17.5" fill="#cc5c5b" fill-rule="evenodd" stroke="none"/>
    <path d="M4.9 10.1 L4.95 10.1 4.85 10.15 4.9 10.1" fill="#00ff00" fill-rule="evenodd" stroke="none"/>
    <path d="M3.65 11.75 L3.75 11.6 3.95 11.7 3.65 11.75" fill="#00ff00" fill-opacity="0.0" fill-rule="evenodd" stroke="none"/>
  </g>
</svg>
