<?xml version="1.0" encoding="UTF-8" standalone="no"?>
<svg xmlns:ffdec="https://www.free-decompiler.com/flash" xmlns:xlink="http://www.w3.org/1999/xlink" ffdec:objectType="shape" height="43.08px" width="34.5px" xmlns="http://www.w3.org/2000/svg">
  <g transform="matrix(1.2, 0.0, 0.0, 1.2, 0.0, 0.0)">
    <path d="M21.7 7.05 L19.8 7.55 12.75 8.9 12.15 8.35 20.25 6.15 21.8 5.95 22.0 5.9 Q22.75 5.9 22.75 6.35 L21.7 7.05 M20.2 5.05 Q15.7 6.6 10.95 6.35 L10.15 5.9 Q15.05 4.25 20.15 4.6 L20.2 5.05 M9.7 3.0 Q14.4 2.3 18.85 3.65 L19.25 3.85 Q14.25 5.05 9.15 3.7 L8.8 3.25 9.7 3.0" fill="#4c3f49" fill-rule="evenodd" stroke="none"/>
    <path d="M19.8 7.55 L20.15 7.45 19.65 8.9 15.8 10.1 Q15.9 10.0 16.05 9.95 12.55 9.6 11.4 8.4 8.9 5.9 8.9 4.6 8.9 4.2 9.15 3.7 14.25 5.05 19.25 3.85 L18.85 3.65 Q14.4 2.3 9.7 3.0 L12.4 1.2 17.15 1.3 20.15 4.6 Q15.05 4.25 10.15 5.9 L10.95 6.35 Q15.7 6.6 20.2 5.05 L20.25 6.15 12.15 8.35 12.75 8.9 19.8 7.55 M21.25 8.7 L21.35 8.55 22.7 8.65 21.25 8.7" fill="#bdc1c4" fill-rule="evenodd" stroke="none"/>
    <path d="M19.65 8.9 L20.15 7.45 19.8 7.55 21.7 7.05 21.35 8.55 21.25 8.7 19.65 8.9 M20.25 6.15 L20.2 5.05 20.15 4.6 17.15 1.3 18.0 1.35 21.8 4.65 21.8 5.95 20.25 6.15 M12.4 1.2 L9.7 3.0 8.8 3.25 9.15 3.7 Q8.9 4.2 8.9 4.6 8.9 5.9 11.4 8.4 12.55 9.6 16.05 9.95 15.9 10.0 15.8 10.1 L14.15 11.45 11.5 10.35 7.45 5.9 7.4 5.35 Q7.25 2.8 9.15 1.2 L12.4 1.2" fill="#e7f2ec" fill-rule="evenodd" stroke="none"/>
    <path d="M21.35 8.55 L21.7 7.05 22.75 6.35 Q22.75 5.9 22.0 5.9 L21.8 5.95 21.8 4.65 26.4 8.9 22.7 8.65 21.35 8.55 M14.15 11.45 L13.25 12.25 11.5 10.35 14.15 11.45 M7.45 5.9 L3.75 1.3 9.15 1.2 Q7.25 2.8 7.4 5.35 L7.45 5.9" fill="#faf9fe" fill-rule="evenodd" stroke="none"/>
    <path d="M19.65 8.9 L21.25 8.7 22.7 8.65 26.4 8.9 21.8 4.65 18.0 1.35 17.15 1.3 12.4 1.2 9.15 1.2 3.75 1.3 7.45 5.9 11.5 10.35 13.25 12.25 14.15 11.45 15.8 10.1 19.65 8.9 M5.05 11.95 Q2.5 10.1 1.95 7.25 L3.45 6.8 1.6 4.4 Q2.1 3.0 3.45 2.85 L2.1 0.5 6.45 0.15 Q10.8 -0.05 12.8 0.1 18.0 -0.55 21.5 2.8 28.6 9.5 28.75 10.75 L24.05 9.95 26.55 12.55 24.75 13.3 27.15 15.5 Q28.15 16.5 27.55 17.2 L25.1 17.4 27.15 21.3 24.4 21.45 25.95 24.45 22.7 24.7 Q23.65 26.4 25.6 27.1 25.35 27.65 22.6 27.85 24.2 29.2 25.0 31.0 L21.4 31.65 Q22.5 33.25 23.2 34.9 L7.85 35.9 6.65 33.9 4.3 34.1 Q3.15 31.4 3.7 28.55 L2.05 28.6 Q0.8 24.75 0.0 23.2 L1.0 23.15 2.45 27.4 3.75 27.4 5.35 27.25 7.4 26.8 11.8 24.6 15.1 23.6 24.5 23.6 23.0 21.4 13.75 21.85 11.15 22.6 Q10.55 22.65 10.2 22.15 L5.0 15.55 4.8 15.3 5.0 15.3 Q5.4 15.3 5.7 15.6 8.7 18.25 10.9 21.5 L14.15 20.65 25.7 20.4 24.7 18.5 23.9 17.6 12.2 19.05 5.05 11.95 M23.05 10.5 L22.35 9.85 Q17.05 9.75 13.25 13.75 L4.2 3.75 2.6 4.15 12.05 14.75 16.35 13.35 24.75 12.45 23.05 10.5 M11.7 17.6 L12.05 17.95 Q19.25 16.5 26.45 16.15 L24.55 14.55 23.4 13.45 11.5 15.8 4.6 7.85 3.0 8.0 11.7 17.6 M21.65 26.7 L22.85 26.55 20.85 24.7 20.0 24.7 13.65 25.0 Q12.55 25.8 9.7 26.95 L6.55 27.95 6.6 29.6 Q10.25 27.75 14.5 27.55 L21.65 26.7 M11.85 31.4 L23.1 30.15 21.0 27.95 12.65 28.85 Q10.1 29.5 8.15 30.65 L5.8 30.8 5.55 28.1 4.5 28.25 4.9 33.0 11.85 31.4 M20.7 33.95 L21.6 33.9 20.3 31.85 Q13.95 31.75 7.85 33.55 L8.4 34.7 8.8 34.6 20.7 33.95" fill="#000000" fill-rule="evenodd" stroke="none"/>
    <path d="M23.05 10.5 Q21.0 10.7 19.55 11.35 L16.35 13.35 12.05 14.75 2.6 4.15 4.2 3.75 13.25 13.75 Q17.05 9.75 22.35 9.85 L23.05 10.5" fill="#c0c8cb" fill-rule="evenodd" stroke="none"/>
    <path d="M16.35 13.35 L19.55 11.35 Q21.0 10.7 23.05 10.5 L24.75 12.45 16.35 13.35" fill="#edefec" fill-rule="evenodd" stroke="none"/>
    <path d="M5.05 11.95 L12.2 19.05 23.9 17.6 24.7 18.5 14.15 20.65 10.9 21.5 Q8.7 18.25 5.7 15.6 5.4 15.3 5.0 15.3 L5.05 11.95" fill="#939ea0" fill-rule="evenodd" stroke="none"/>
    <path d="M24.55 14.55 L26.45 16.15 Q19.25 16.5 12.05 17.95 L11.7 17.6 24.55 14.55" fill="#ebeaef" fill-rule="evenodd" stroke="none"/>
    <path d="M11.7 17.6 L3.0 8.0 4.6 7.85 11.5 15.8 23.4 13.45 24.55 14.55 11.7 17.6" fill="#9a9e9f" fill-rule="evenodd" stroke="none"/>
    <path d="M13.75 21.85 L23.0 21.4 24.5 23.6 15.1 23.6 13.75 21.85" fill="#f7f0f7" fill-rule="evenodd" stroke="none"/>
    <path d="M20.0 24.7 L20.85 24.7 22.85 26.55 21.65 26.7 20.0 24.7 M14.5 27.55 Q10.25 27.75 6.6 29.6 L6.55 27.95 9.7 26.95 Q12.55 25.8 13.65 25.0 L14.5 27.55" fill="#6d7779" fill-rule="evenodd" stroke="none"/>
    <path d="M11.15 22.6 L13.75 21.85 15.1 23.6 11.8 24.6 11.15 22.6 M7.4 26.8 L5.35 27.25 3.25 20.95 4.3 18.5 7.4 26.8" fill="#949fa5" fill-rule="evenodd" stroke="none"/>
    <path d="M21.65 26.7 L14.5 27.55 13.65 25.0 20.0 24.7 21.65 26.7" fill="#c5c4cc" fill-rule="evenodd" stroke="none"/>
    <path d="M12.65 28.85 L21.0 27.95 23.1 30.15 11.85 31.4 Q11.85 30.45 12.65 28.85" fill="#eae5e9" fill-rule="evenodd" stroke="none"/>
    <path d="M20.7 33.95 L8.8 34.6 8.4 34.7 7.85 33.55 Q13.95 31.75 20.3 31.85 L13.7 32.95 20.7 33.95" fill="#b4b0af" fill-rule="evenodd" stroke="none"/>
    <path d="M20.3 31.85 L21.6 33.9 20.7 33.95 13.7 32.95 20.3 31.85" fill="#fffcff" fill-rule="evenodd" stroke="none"/>
    <path d="M24.7 18.5 L25.7 20.4 14.15 20.65 24.7 18.5" fill="#fffeff" fill-rule="evenodd" stroke="none"/>
    <path d="M5.0 15.55 L10.2 22.15 Q10.55 22.65 11.15 22.6 L11.8 24.6 7.4 26.8 4.3 18.5 5.0 15.55" fill="#4d6361" fill-rule="evenodd" stroke="none"/>
    <path d="M5.35 27.25 L3.75 27.4 2.1 22.4 1.7 22.7 3.25 20.95 5.35 27.25" fill="#a7afb1" fill-rule="evenodd" stroke="none"/>
    <path d="M11.85 31.4 L4.9 33.0 4.5 28.25 5.55 28.1 5.8 30.8 8.15 30.65 Q10.1 29.5 12.65 28.85 11.85 30.45 11.85 31.4" fill="#9fa7aa" fill-rule="evenodd" stroke="none"/>
    <path d="M3.75 27.4 L2.45 27.4 1.0 23.15 1.7 22.7 2.1 22.4 3.75 27.4" fill="#ccd8cc" fill-rule="evenodd" stroke="none"/>
  </g>
</svg>
