<?xml version="1.0" encoding="UTF-8" standalone="no"?>
<svg xmlns:ffdec="https://www.free-decompiler.com/flash" xmlns:xlink="http://www.w3.org/1999/xlink" ffdec:objectType="shape" height="91.56px" width="156.23999999999998px" xmlns="http://www.w3.org/2000/svg">
  <g transform="matrix(1.2, 0.0, 0.0, 1.2, 0.0, 0.0)">
    <path d="M126.9 48.5 Q126.4 47.7 125.15 47.3 118.25 44.8 110.85 44.2 L109.25 44.05 Q97.1 42.05 85.3 45.2 L85.35 45.2 Q87.15 45.2 87.5 46.4 L86.6 46.65 Q67.8 45.05 49.45 48.75 45.65 49.65 42.3 51.4 L41.65 50.85 42.7 49.55 Q24.75 44.25 7.85 51.65 L10.4 51.4 Q10.4 51.9 9.75 52.25 L8.15 52.6 6.45 53.1 7.4 53.1 9.4 52.95 9.55 53.3 8.6 54.3 7.55 55.05 10.05 54.8 10.35 55.25 10.05 55.55 Q8.9 56.25 7.4 56.1 L6.05 56.0 6.0 55.1 7.25 54.15 6.3 54.05 5.5 53.95 5.5 53.35 Q2.9 55.55 1.8 58.85 L1.55 60.8 Q5.3 64.0 10.0 64.3 22.15 65.65 34.0 62.55 38.65 61.35 42.7 59.15 64.75 62.45 85.6 55.15 98.85 59.7 113.0 58.25 120.8 57.9 128.15 56.3 L128.45 53.2 128.3 51.45 126.9 48.5 M121.25 52.45 L121.95 52.5 121.8 53.5 119.5 53.6 121.0 52.95 121.25 52.45 M25.45 5.7 L29.4 5.6 32.1 5.5 Q39.65 5.2 47.25 5.3 L48.1 5.05 Q55.65 0.8 64.15 0.0 69.15 0.4 73.95 1.45 L78.8 2.65 Q96.55 -0.4 113.35 5.6 116.2 6.65 117.85 9.1 121.85 14.95 121.7 22.3 L121.8 27.8 Q122.2 36.35 118.2 43.65 124.65 44.2 128.8 48.85 129.4 49.55 129.65 50.5 130.75 54.05 129.6 57.65 128.55 60.8 125.45 61.9 L124.2 62.3 117.7 63.3 Q118.7 67.55 117.55 71.55 117.2 72.75 115.9 72.3 113.1 71.25 112.0 68.6 L109.9 63.75 Q99.15 64.05 88.55 62.45 L81.6 62.15 Q73.8 62.75 65.85 64.4 L58.0 65.05 44.8 64.6 Q41.8 64.45 39.3 65.7 34.85 67.7 29.9 68.4 21.25 69.1 12.5 68.8 10.95 73.35 7.25 75.9 6.45 76.45 5.75 76.2 4.85 75.9 4.95 74.95 5.35 71.05 7.25 67.75 1.3 67.15 0.15 61.5 -0.2 59.9 0.35 58.6 2.0 54.5 5.3 51.55 L2.5 48.15 Q1.65 47.15 1.85 46.0 2.35 42.7 3.65 39.85 L5.15 38.35 Q5.5 40.65 4.25 42.6 L3.8 43.4 3.8 43.45 Q2.1 47.5 6.2 49.95 L6.85 50.4 Q18.55 45.2 31.45 46.15 L32.15 46.2 41.65 47.95 41.55 38.45 Q41.75 26.4 43.2 16.25 L45.0 10.65 46.55 9.0 46.55 9.05 43.5 21.95 Q43.35 24.3 43.45 26.7 43.65 32.3 42.7 37.8 L42.65 40.25 42.95 48.6 43.45 48.95 Q62.7 43.5 82.65 45.3 85.0 38.65 84.15 31.35 83.9 29.25 84.25 27.15 85.4 20.8 83.3 14.8 L82.7 12.4 80.95 7.85 81.5 6.55 Q84.0 10.8 85.6 15.4 86.35 17.6 86.05 20.0 85.55 23.85 84.5 27.35 84.15 28.6 84.4 29.8 85.35 34.1 85.05 38.6 L84.95 40.2 83.9 45.25 Q88.1 42.5 93.55 42.2 105.4 41.4 117.05 43.4 L119.3 36.15 119.4 35.55 Q120.65 28.85 119.95 22.15 120.2 15.65 116.75 10.55 L116.15 9.65 Q114.15 8.15 111.95 7.3 101.6 3.35 90.35 3.2 L88.4 3.15 81.6 3.7 81.3 4.8 75.4 3.5 68.6 2.2 Q60.75 0.7 53.75 4.3 51.45 5.5 49.0 5.95 L39.8 6.65 25.85 7.1 25.45 5.7 M112.2 9.1 L114.15 10.35 112.8 10.0 Q112.2 9.6 112.2 9.1 M97.65 5.85 Q99.3 6.15 100.7 5.3 102.2 5.2 103.05 6.45 L102.95 6.9 101.65 6.25 101.05 6.15 99.75 6.55 99.1 6.7 Q97.55 7.05 96.6 5.9 L97.65 5.85 M109.65 7.3 L110.55 8.5 110.05 8.9 108.9 7.2 109.65 7.3 M107.1 6.55 L106.95 8.0 106.05 6.55 106.45 6.35 106.65 6.25 106.95 6.3 107.1 6.55 M107.75 18.5 Q107.95 18.25 108.25 18.25 108.55 18.25 108.8 18.5 L109.0 19.0 108.8 19.55 Q108.55 19.75 108.25 19.75 107.95 19.75 107.75 19.55 L107.5 19.0 107.75 18.5 M87.6 9.05 L87.65 8.15 88.35 7.2 87.7 6.4 89.5 6.7 88.55 8.25 88.85 9.35 Q88.85 9.85 88.05 10.35 L87.6 10.05 87.6 9.05 M87.95 12.15 L87.6 11.95 Q87.0 11.85 87.6 11.5 88.1 10.95 88.35 11.0 L89.0 11.15 89.15 11.45 Q89.15 12.15 87.95 12.15 M56.05 6.85 L56.3 8.45 55.25 7.0 55.6 5.65 55.9 4.85 56.45 5.35 56.05 6.85 M95.2 16.6 Q95.95 16.6 95.95 17.0 95.95 18.25 95.15 18.25 94.8 18.25 94.45 17.9 L94.4 17.75 Q94.4 16.6 95.2 16.6 M95.75 33.4 L95.75 31.9 97.25 31.9 97.25 33.4 95.75 33.4 M87.2 47.8 L85.25 48.15 85.4 47.45 87.0 47.35 87.9 47.5 87.2 47.8 M86.7 49.4 L83.35 49.75 Q83.65 48.0 86.15 49.05 L86.7 49.4 M86.8 51.35 L87.85 51.4 88.2 52.25 86.95 52.15 85.7 51.85 85.3 51.6 86.8 51.35 M116.85 45.8 L117.15 45.85 121.9 47.85 Q118.7 47.85 116.15 46.0 L116.85 45.8 M120.35 50.1 L119.3 50.85 119.25 51.7 Q118.25 51.65 118.35 50.5 L118.75 48.7 119.15 48.3 120.35 50.1 M109.3 32.4 Q109.55 32.1 109.9 32.1 110.25 32.1 110.55 32.4 L110.8 33.0 110.55 33.65 109.9 33.9 109.3 33.65 109.0 33.0 Q109.0 32.65 109.3 32.4 M116.65 64.95 L116.5 63.4 111.15 63.75 112.4 66.6 112.5 66.85 Q114.7 71.25 116.15 71.25 L116.5 71.2 Q117.3 70.9 117.05 68.85 L116.65 64.95 M78.55 60.95 Q81.9 60.85 84.8 59.25 L85.7 59.5 86.4 59.65 Q100.75 63.55 115.75 61.75 120.8 61.65 125.55 60.25 L126.85 59.1 127.75 57.4 Q106.35 62.65 85.25 56.35 64.6 64.0 43.0 59.95 35.55 64.75 26.55 65.35 18.6 66.35 10.7 65.4 6.2 64.85 2.05 62.55 L3.9 65.2 Q12.8 67.5 22.1 67.5 33.55 67.45 41.9 62.9 L51.35 63.4 Q65.05 64.2 78.55 60.95 M77.9 7.2 L77.85 7.15 Q76.0 5.7 74.5 5.1 77.7 4.45 77.9 7.2 M70.05 5.0 L70.85 4.8 72.7 5.8 70.05 5.0 M72.2 19.8 L73.35 19.8 73.15 21.4 71.7 21.35 71.65 20.45 72.2 19.8 M53.45 9.7 L53.3 10.2 52.85 10.2 52.8 9.65 53.1 7.7 54.45 6.1 54.75 5.75 54.95 5.9 54.7 7.05 53.45 9.7 M40.95 8.9 L42.4 10.7 37.05 8.45 37.5 8.1 Q37.75 7.95 38.1 7.85 39.55 7.85 40.95 8.9 M35.2 10.0 Q32.6 9.8 31.6 8.95 L35.3 8.85 Q35.9 9.0 36.45 9.3 37.3 9.7 36.65 10.2 L36.6 10.2 35.2 10.0 M53.8 21.05 Q54.15 21.05 54.45 21.35 L54.7 21.95 54.45 22.6 53.8 22.85 53.2 22.6 52.9 21.95 Q52.9 21.6 53.2 21.35 53.45 21.05 53.8 21.05 M54.0 36.95 Q53.55 36.95 53.25 36.65 52.95 36.35 52.95 35.9 52.95 35.45 53.25 35.15 53.55 34.85 54.0 34.85 54.45 34.85 54.75 35.15 L55.05 35.9 54.75 36.65 54.0 36.95 M72.3 35.4 L72.15 36.85 71.0 37.1 70.6 36.6 70.55 35.75 71.1 35.1 72.3 35.4 M45.6 52.8 L41.95 53.05 Q41.85 52.8 42.15 52.6 43.7 51.5 45.55 52.05 L46.0 52.2 45.6 52.8 M31.0 24.45 L31.2 23.3 33.15 23.2 33.1 24.9 31.0 24.45 M16.15 40.95 L14.5 40.95 14.5 39.25 16.15 39.25 16.15 40.95 M29.55 39.05 Q29.55 38.7 29.8 38.45 30.05 38.15 30.4 38.15 30.75 38.15 31.0 38.45 L31.25 39.05 31.0 39.7 30.4 39.95 29.8 39.7 29.55 39.05 M36.7 59.65 L36.55 60.45 Q28.7 64.4 20.15 62.45 28.2 62.3 35.65 59.95 L36.7 59.65 M4.95 58.75 L6.55 57.25 7.25 57.6 6.5 58.6 Q6.0 60.15 5.15 59.65 L4.95 58.75 M7.95 59.0 L8.8 58.3 9.05 59.2 8.9 59.65 7.8 60.15 Q7.15 60.0 7.95 59.0 M10.4 70.35 L11.4 69.0 Q10.55 68.25 8.4 68.0 L7.65 69.55 6.05 75.05 Q9.25 74.3 10.2 70.85 L10.4 70.35 M44.15 56.75 L44.05 56.8 Q43.1 56.65 43.85 56.35 L45.35 56.0 44.15 56.75" fill="#000000" fill-rule="evenodd" stroke="none"/>
    <path d="M110.85 44.2 Q118.25 44.8 125.15 47.3 126.4 47.7 126.9 48.5 126.85 51.0 124.2 51.55 122.45 52.1 121.95 52.5 L121.25 52.45 Q107.15 54.95 93.15 52.2 90.1 51.7 88.95 49.0 89.45 47.4 91.15 46.85 100.55 43.6 110.85 44.2 M116.85 45.8 Q103.85 43.75 91.9 48.7 L90.75 49.35 Q104.3 53.25 118.35 50.5 118.25 51.65 119.25 51.7 L119.3 50.85 120.35 50.1 125.0 48.35 117.15 45.85 116.85 45.8" fill="#b65c66" fill-rule="evenodd" stroke="none"/>
    <path d="M88.4 3.15 L90.35 3.2 86.75 3.55 88.4 3.15 M116.15 9.65 L116.75 10.55 Q120.2 15.65 119.95 22.15 L119.9 21.45 119.6 24.6 Q120.15 16.7 114.75 10.95 L114.15 10.35 112.2 9.1 109.65 7.3 108.9 7.2 107.1 6.55 106.95 6.3 116.15 9.65 M106.45 6.35 L105.45 6.0 106.65 6.25 106.45 6.35" fill="#6d1d1e" fill-rule="evenodd" stroke="none"/>
    <path d="M112.2 9.1 Q112.2 9.6 112.8 10.0 L114.15 10.35 114.75 10.95 Q120.15 16.7 119.6 24.6 120.05 32.05 114.45 37.05 L111.55 36.95 111.7 35.35 113.0 35.45 Q113.9 35.45 113.9 34.55 113.9 34.45 112.9 33.65 L113.7 32.4 114.35 30.85 Q115.45 27.45 115.1 23.75 114.85 20.75 114.1 17.9 113.35 14.95 110.75 13.35 110.5 12.15 110.05 12.65 L110.05 12.8 99.75 6.55 101.05 6.15 101.65 6.25 102.95 6.9 103.05 6.45 Q102.2 5.2 100.7 5.3 99.3 6.15 97.65 5.85 96.65 5.45 95.65 5.35 89.5 3.9 83.35 5.1 L83.75 4.55 Q84.0 4.3 84.85 4.05 94.1 3.9 103.3 5.55 L105.45 6.0 106.45 6.35 106.05 6.55 106.95 8.0 107.1 6.55 108.9 7.2 110.05 8.9 110.55 8.5 109.65 7.3 112.2 9.1 M93.2 35.4 L94.8 35.45 95.2 35.05 95.85 36.1 Q93.0 37.45 89.95 36.85 L88.75 36.85 88.6 36.05 88.6 35.55 93.2 35.4 M97.05 35.45 L96.65 35.0 97.6 35.25 97.05 35.45 M99.1 34.75 L99.35 33.65 100.5 33.45 Q103.1 32.45 105.8 33.0 L108.05 33.6 106.3 34.75 102.4 34.4 99.1 34.75 M108.65 35.4 L108.0 35.2 Q108.8 34.4 108.7 35.1 L108.65 35.4" fill="#961d22" fill-rule="evenodd" stroke="none"/>
    <path d="M25.85 7.1 L39.8 6.65 44.9 8.1 34.2 7.7 30.3 7.85 26.2 8.6 25.8 7.1 25.85 7.1 M68.6 2.2 L75.4 3.5 79.85 6.1 Q68.35 1.45 56.45 5.35 L55.9 4.85 55.6 5.65 54.95 5.9 54.75 5.75 54.45 6.1 46.85 10.15 Q52.2 3.9 60.6 3.1 L68.6 2.2 M90.35 3.2 Q101.6 3.35 111.95 7.3 114.15 8.15 116.15 9.65 L106.95 6.3 106.65 6.25 105.45 6.0 103.3 5.55 Q94.1 3.9 84.85 4.05 L82.75 3.9 86.75 3.55 90.35 3.2" fill="#bf7984" fill-rule="evenodd" stroke="none"/>
    <path d="M110.05 12.8 L110.05 12.65 Q110.5 12.15 110.75 13.35 L110.5 15.3 109.95 16.65 110.85 15.7 111.35 15.2 Q111.8 15.2 111.85 15.65 L111.55 16.5 110.45 18.1 112.3 18.15 113.5 18.35 112.6 19.05 110.3 19.5 112.15 21.8 111.55 22.25 109.25 20.8 109.7 20.6 Q111.15 17.85 108.2 17.0 106.7 17.7 106.45 19.35 107.15 21.15 108.95 20.9 L108.85 22.7 107.9 23.8 107.15 20.75 105.5 21.7 104.3 21.65 104.15 21.25 104.7 20.95 105.55 20.35 105.75 19.55 103.8 19.4 103.45 18.7 105.3 18.4 104.85 15.7 107.05 16.2 107.2 15.75 106.6 14.05 Q106.55 13.45 107.3 13.75 108.65 14.55 108.9 16.15 L109.85 14.7 110.05 12.8 M114.35 30.85 L113.7 32.4 112.45 33.25 112.9 33.65 Q113.9 34.45 113.9 34.55 113.9 35.45 113.0 35.45 L111.7 35.35 111.55 36.95 Q111.35 38.05 110.75 38.05 109.95 38.05 109.85 37.0 L109.9 36.05 109.9 35.7 Q109.85 35.3 109.6 35.9 L108.65 36.95 108.05 36.45 108.65 35.4 108.7 35.1 Q108.8 34.4 108.0 35.2 L107.0 35.75 Q105.8 35.75 105.8 35.1 L106.3 34.75 108.05 33.6 108.1 33.1 Q106.35 33.0 105.85 32.45 106.0 32.1 106.85 31.95 L108.25 31.75 Q107.65 29.3 110.0 29.25 L111.1 30.2 111.55 27.05 Q112.95 27.9 112.55 29.5 112.25 30.7 112.5 31.15 L112.65 31.05 Q113.75 30.25 114.35 30.85 M99.0 18.05 L97.7 18.1 98.8 19.4 96.65 19.5 97.3 22.15 95.45 20.4 94.7 22.85 93.55 19.85 93.4 20.4 Q93.2 21.65 92.2 21.85 L91.6 21.3 92.45 18.9 92.25 18.1 91.3 18.25 90.45 17.95 91.0 17.1 92.9 16.1 90.55 14.9 91.6 14.5 93.2 15.2 94.2 15.4 93.4 13.85 93.25 13.0 92.45 11.9 92.95 11.8 Q93.7 11.8 94.2 12.5 L95.35 14.6 95.75 13.65 Q96.3 12.0 96.85 12.85 L96.45 15.15 97.3 14.75 Q97.75 14.45 98.55 14.75 L98.5 15.85 97.6 16.5 98.65 16.65 100.55 17.3 100.1 17.8 99.0 18.05 M94.1 26.5 L95.4 28.55 96.45 30.25 97.7 28.05 97.85 27.55 98.1 27.9 98.55 30.15 Q99.6 28.95 100.55 29.65 L99.9 31.4 99.15 32.45 99.45 32.6 Q100.6 32.6 100.55 31.85 L101.0 32.35 Q101.0 33.1 100.5 33.45 L99.35 33.65 99.1 34.75 Q98.65 35.35 97.6 35.25 L96.65 35.0 97.05 35.45 97.55 36.65 97.45 36.8 Q96.5 36.9 95.85 36.1 L95.2 35.05 94.8 35.45 93.2 35.4 94.7 33.8 91.25 33.65 91.2 33.0 92.6 32.75 94.4 32.2 Q91.7 31.55 91.65 29.05 93.15 28.95 93.9 30.6 L95.05 30.85 94.55 30.05 Q93.35 28.0 94.1 26.5 M76.95 35.7 Q76.7 36.25 75.95 36.4 L73.7 36.8 74.5 37.85 75.5 40.0 75.25 40.4 73.75 38.95 72.8 39.1 72.5 41.55 71.4 39.75 71.25 38.75 68.5 41.15 68.45 41.15 68.0 40.5 68.45 39.35 Q66.25 39.25 66.25 38.65 66.25 38.0 67.55 37.45 L69.05 36.8 69.35 36.35 Q69.35 38.3 71.75 38.3 73.0 38.3 73.0 36.05 73.45 34.1 71.65 34.1 69.5 34.1 69.35 36.05 L66.5 34.8 66.3 34.55 Q66.05 33.55 67.75 34.1 L69.6 34.6 68.9 33.05 Q68.2 32.4 68.55 31.75 L69.85 31.9 70.7 32.5 71.0 31.15 71.45 30.8 72.55 33.65 73.6 32.45 74.0 33.45 73.65 34.75 76.75 35.3 76.95 35.7 M96.65 17.3 Q96.65 16.1 94.95 16.1 93.1 16.1 93.1 17.8 L93.35 18.6 Q93.8 19.4 94.75 19.4 96.05 19.4 96.35 18.4 L96.65 17.3 M95.1 33.45 Q95.55 34.25 96.85 34.25 98.2 34.25 98.2 32.45 98.2 30.95 96.45 30.95 94.85 30.95 94.85 32.65 L95.1 33.45 M108.2 33.2 Q108.2 34.85 110.55 34.85 112.1 34.85 112.1 33.0 112.1 31.45 109.95 31.45 108.95 31.45 108.5 32.3 L108.2 33.2 M54.0 17.85 L55.1 14.3 55.35 15.0 Q55.75 16.55 55.15 18.15 L55.35 18.95 55.85 18.65 57.05 18.2 57.65 18.65 55.9 20.6 57.25 20.9 Q59.6 21.45 59.6 21.9 L59.6 22.05 59.45 22.45 56.9 22.15 56.0 21.95 55.9 22.4 56.55 23.5 57.35 25.05 56.15 24.9 54.65 24.25 53.8 24.65 55.4 26.85 53.45 27.0 50.85 23.6 50.5 24.8 49.85 25.25 49.45 25.05 49.25 24.95 49.3 24.85 49.85 22.6 49.55 21.8 Q48.05 21.9 47.75 21.2 L48.05 20.8 Q49.8 20.85 51.1 20.0 48.7 20.2 48.5 18.85 L52.1 18.6 50.6 16.0 51.3 15.9 51.45 16.1 Q52.3 18.1 54.0 17.85 M67.15 20.3 L69.95 19.9 68.45 17.6 68.9 17.15 70.9 18.3 71.45 17.75 Q71.2 15.3 72.5 14.55 L72.75 17.9 73.45 18.0 75.25 15.35 75.45 15.55 Q76.3 17.4 74.8 18.8 77.3 18.3 78.2 19.7 L76.55 20.2 75.1 20.5 77.0 22.35 77.0 22.4 76.7 22.9 74.9 22.3 75.7 25.1 Q75.65 25.7 75.1 25.7 L75.05 25.6 73.9 23.55 73.45 23.75 72.95 27.25 Q72.0 26.15 72.25 24.0 L70.7 25.3 69.85 25.7 69.35 25.25 70.65 23.5 70.75 23.4 70.55 23.35 68.6 24.0 68.35 23.85 Q68.15 23.45 68.3 23.4 L69.65 22.55 69.6 21.95 Q67.6 22.25 66.55 20.9 L67.15 20.3 M72.55 22.85 Q74.3 22.85 74.3 20.6 74.2 19.25 72.4 19.25 70.7 19.25 70.7 21.3 L70.9 22.15 Q71.35 22.85 72.55 22.85 M50.8 38.6 L51.55 37.3 48.5 37.55 51.15 35.85 51.4 35.8 51.15 35.8 48.55 34.25 48.6 33.2 50.75 34.0 52.1 34.0 Q50.95 32.15 51.55 30.8 L54.15 33.6 54.2 33.05 54.5 29.9 55.35 31.7 Q55.75 32.75 55.3 33.9 L57.35 32.55 56.7 34.85 56.65 35.65 59.35 35.75 59.5 36.5 58.85 36.85 56.55 36.95 56.35 37.75 58.05 39.35 58.05 40.1 55.5 39.0 54.4 39.25 54.45 40.05 54.55 41.4 Q54.55 42.15 53.95 42.35 53.15 41.45 53.05 39.7 L52.8 38.95 51.8 39.8 51.65 39.95 50.45 40.85 49.75 40.25 49.95 39.95 50.8 38.6 M55.25 22.0 L55.45 20.25 51.9 20.15 51.35 21.8 Q51.6 23.95 53.6 23.6 55.0 23.3 55.25 22.0 M52.1 36.85 Q52.5 37.9 53.9 37.9 55.7 37.9 55.7 35.9 55.9 33.95 54.0 33.95 51.95 33.95 51.95 35.8 L52.1 36.85 M31.7 20.55 L32.4 20.6 32.95 20.6 33.85 17.8 34.5 21.6 37.1 20.35 37.75 21.0 35.25 22.9 35.0 25.0 36.1 25.4 37.5 25.75 Q37.0 26.25 35.95 26.4 L34.4 26.25 34.0 26.75 Q34.9 28.2 34.55 29.7 L33.65 29.5 32.6 28.1 32.3 27.7 31.6 27.7 31.85 26.05 31.95 26.05 Q34.45 26.05 34.45 23.85 33.95 21.85 32.25 21.85 L31.9 21.9 31.7 20.55 M12.35 36.25 L12.35 36.1 13.55 36.05 13.7 36.2 15.05 37.35 17.3 35.6 17.35 35.45 18.35 35.25 18.35 35.35 17.65 37.35 17.3 38.5 20.15 37.7 20.65 38.35 17.6 40.4 20.1 41.05 18.8 41.7 18.45 41.7 Q16.45 41.45 17.4 42.15 L19.2 43.3 18.75 43.8 Q16.75 42.5 14.45 43.05 L14.05 45.45 13.2 45.35 13.0 41.85 Q12.05 42.45 11.15 43.25 10.35 43.95 10.05 43.35 L11.65 41.6 12.7 40.3 12.7 39.95 Q9.95 39.65 9.4 37.2 L10.45 37.25 10.6 37.5 Q11.75 39.05 13.55 38.1 L13.2 37.8 12.35 36.8 12.35 36.25 M15.35 38.1 Q13.25 38.1 13.25 40.5 L13.5 41.1 Q13.95 41.65 15.05 41.65 17.2 41.65 17.2 39.55 17.2 38.1 15.35 38.1 M33.05 36.95 L33.85 36.4 33.0 38.3 34.65 38.95 33.1 39.4 32.8 40.0 33.35 40.95 33.1 42.2 31.9 40.8 30.8 41.4 30.45 43.9 29.95 44.1 29.3 41.85 27.95 41.2 26.05 42.4 27.65 40.0 24.5 39.7 23.95 39.0 Q24.25 38.45 26.75 38.65 L27.4 38.55 Q25.9 37.85 25.4 35.6 L26.1 35.35 Q26.9 36.75 28.5 37.0 L27.85 34.2 28.35 33.1 28.65 33.5 Q28.9 35.4 30.25 36.6 L31.1 36.8 31.9 34.4 31.75 33.75 32.6 34.1 Q33.35 35.75 32.3 37.15 L32.65 37.45 33.05 36.95 M28.45 39.55 L28.65 40.3 Q29.1 40.95 30.45 40.95 32.2 40.95 32.2 39.45 32.2 37.6 30.25 37.6 28.45 37.6 28.45 39.55" fill="#711017" fill-rule="evenodd" stroke="none"/>
    <path d="M83.35 5.1 Q89.5 3.9 95.65 5.35 96.65 5.45 97.65 5.85 L96.6 5.9 Q97.55 7.05 99.1 6.7 L99.75 6.55 110.05 12.8 109.85 14.7 100.05 8.45 Q94.35 4.95 88.55 8.25 L89.5 6.7 87.7 6.4 88.35 7.2 87.65 8.15 87.6 9.05 86.85 9.8 87.6 11.5 Q87.0 11.85 87.6 11.95 L87.95 12.15 88.6 13.1 Q90.35 15.1 91.0 17.1 L90.45 17.95 91.3 18.25 Q91.65 22.6 90.3 26.65 89.0 30.8 92.6 32.75 L91.2 33.0 91.25 33.65 94.7 33.8 93.2 35.4 88.6 35.55 88.6 36.05 Q87.6 31.3 88.9 26.65 90.3 21.6 88.3 16.9 86.85 13.5 84.6 10.45 82.85 8.0 83.35 5.1 M110.75 13.35 Q113.35 14.95 114.1 17.9 114.85 20.75 115.1 23.75 115.45 27.45 114.35 30.85 113.75 30.25 112.65 31.05 L112.5 31.15 Q114.6 25.9 113.05 20.4 L112.6 19.05 113.5 18.35 112.3 18.15 111.55 16.5 111.85 15.65 Q111.8 15.2 111.35 15.2 L110.85 15.7 110.5 15.3 110.75 13.35 M113.7 32.4 L112.9 33.65 112.45 33.25 113.7 32.4 M99.9 31.4 L101.65 31.3 Q105.25 31.3 106.85 31.95 106.0 32.1 105.85 32.45 106.35 33.0 108.1 33.1 L108.05 33.6 105.8 33.0 Q103.1 32.45 100.5 33.45 101.0 33.1 101.0 32.35 L100.55 31.85 Q100.6 32.6 99.45 32.6 L99.15 32.45 99.9 31.4" fill="#aa2d33" fill-rule="evenodd" stroke="none"/>
    <path d="M109.85 14.7 L108.9 16.15 Q108.65 14.55 107.3 13.75 106.55 13.45 106.6 14.05 103.5 13.75 100.75 12.0 97.45 10.05 94.2 12.5 93.7 11.8 92.95 11.8 L92.45 11.9 93.25 13.0 93.4 13.85 93.2 15.2 91.6 14.5 90.55 14.9 92.9 16.1 91.0 17.1 Q90.35 15.1 88.6 13.1 L87.95 12.15 Q89.15 12.15 89.15 11.45 L89.0 11.15 88.35 11.0 Q88.1 10.95 87.6 11.5 L86.85 9.8 87.6 9.05 87.6 10.05 88.05 10.35 Q88.85 9.85 88.85 9.35 L88.55 8.25 Q94.35 4.95 100.05 8.45 L109.85 14.7 M108.85 22.7 L108.95 20.9 109.25 20.8 111.55 22.25 112.15 21.8 110.3 19.5 112.6 19.05 113.05 20.4 Q114.6 25.9 112.5 31.15 112.25 30.7 112.55 29.5 112.95 27.9 111.55 27.05 L111.1 30.2 110.0 29.25 Q107.65 29.3 108.25 31.75 L106.85 31.95 Q105.25 31.3 101.65 31.3 L99.9 31.4 100.55 29.65 Q99.6 28.95 98.55 30.15 L98.1 27.9 Q101.85 26.45 105.6 27.95 109.75 29.7 110.9 25.7 L108.85 22.7 M112.3 18.15 L110.45 18.1 111.55 16.5 112.3 18.15 M110.85 15.7 L109.95 16.65 110.5 15.3 110.85 15.7 M94.7 22.85 Q94.6 24.65 94.1 26.5 93.35 28.0 94.55 30.05 L95.05 30.85 93.9 30.6 Q93.15 28.95 91.65 29.05 91.7 31.55 94.4 32.2 L92.6 32.75 Q89.0 30.8 90.3 26.65 91.65 22.6 91.3 18.25 L92.25 18.1 92.45 18.9 91.6 21.3 92.2 21.85 Q93.2 21.65 93.4 20.4 L93.55 19.85 94.7 22.85 M95.4 28.55 L97.7 28.05 96.45 30.25 95.4 28.55" fill="#c34b55" fill-rule="evenodd" stroke="none"/>
    <path d="M106.6 14.05 L107.2 15.75 107.05 16.2 104.85 15.7 105.3 18.4 103.45 18.7 Q103.95 16.75 102.45 15.85 100.55 14.75 98.55 14.75 97.75 14.45 97.3 14.75 L96.45 15.15 96.85 12.85 Q96.3 12.0 95.75 13.65 L95.35 14.6 94.2 12.5 Q97.45 10.05 100.75 12.0 103.5 13.75 106.6 14.05 M103.8 19.4 L105.75 19.55 105.55 20.35 104.7 20.95 103.8 19.4 M105.5 21.7 L107.15 20.75 107.9 23.8 108.85 22.7 110.9 25.7 Q109.75 29.7 105.6 27.95 101.85 26.45 98.1 27.9 L97.85 27.55 97.7 28.05 95.4 28.55 94.1 26.5 Q94.6 24.65 94.7 22.85 L95.45 20.4 97.3 22.15 96.65 19.5 98.8 19.4 97.7 18.1 99.0 18.05 Q99.55 20.85 98.0 23.55 L98.15 24.05 Q100.05 25.2 102.4 24.45 L106.35 24.6 106.85 23.2 105.5 21.7 M98.5 15.85 L98.65 16.65 97.6 16.5 98.5 15.85 M93.4 13.85 L94.2 15.4 93.2 15.2 93.4 13.85" fill="#c85962" fill-rule="evenodd" stroke="none"/>
    <path d="M108.95 20.9 Q107.15 21.15 106.45 19.35 106.7 17.7 108.2 17.0 111.15 17.85 109.7 20.6 L109.25 20.8 108.95 20.9 M107.75 18.5 L107.5 19.0 107.75 19.55 Q107.95 19.75 108.25 19.75 108.55 19.75 108.8 19.55 L109.0 19.0 108.8 18.5 Q108.55 18.25 108.25 18.25 107.95 18.25 107.75 18.5 M96.65 17.3 L96.35 18.4 Q96.05 19.4 94.75 19.4 93.8 19.4 93.35 18.6 L93.1 17.8 Q93.1 16.1 94.95 16.1 96.65 16.1 96.65 17.3 M95.2 16.6 Q94.4 16.6 94.4 17.75 L94.45 17.9 Q94.8 18.25 95.15 18.25 95.95 18.25 95.95 17.0 95.95 16.6 95.2 16.6 M95.1 33.45 L94.85 32.65 Q94.85 30.95 96.45 30.95 98.2 30.95 98.2 32.45 98.2 34.25 96.85 34.25 95.55 34.25 95.1 33.45 M95.75 33.4 L97.25 33.4 97.25 31.9 95.75 31.9 95.75 33.4 M109.3 32.4 Q109.0 32.65 109.0 33.0 L109.3 33.65 109.9 33.9 110.55 33.65 110.8 33.0 110.55 32.4 Q110.25 32.1 109.9 32.1 109.55 32.1 109.3 32.4 M108.2 33.2 L108.5 32.3 Q108.95 31.45 109.95 31.45 112.1 31.45 112.1 33.0 112.1 34.85 110.55 34.85 108.2 34.85 108.2 33.2 M72.2 19.8 L71.65 20.45 71.7 21.35 73.15 21.4 73.35 19.8 72.2 19.8 M72.55 22.85 Q71.35 22.85 70.9 22.15 L70.7 21.3 Q70.7 19.25 72.4 19.25 74.2 19.25 74.3 20.6 74.3 22.85 72.55 22.85 M53.8 21.05 Q53.45 21.05 53.2 21.35 52.9 21.6 52.9 21.95 L53.2 22.6 53.8 22.85 54.45 22.6 54.7 21.95 54.45 21.35 Q54.15 21.05 53.8 21.05 M55.25 22.0 Q55.0 23.3 53.6 23.6 51.6 23.95 51.35 21.8 L51.9 20.15 55.45 20.25 55.25 22.0 M52.1 36.85 L51.95 35.8 Q51.95 33.95 54.0 33.95 55.9 33.95 55.7 35.9 55.7 37.9 53.9 37.9 52.5 37.9 52.1 36.85 M54.0 36.95 L54.75 36.65 55.05 35.9 54.75 35.15 Q54.45 34.85 54.0 34.85 53.55 34.85 53.25 35.15 52.95 35.45 52.95 35.9 52.95 36.35 53.25 36.65 53.55 36.95 54.0 36.95 M69.35 36.35 L69.35 36.05 Q69.5 34.1 71.65 34.1 73.45 34.1 73.0 36.05 73.0 38.3 71.75 38.3 69.35 38.3 69.35 36.35 M72.3 35.4 L71.1 35.1 70.55 35.75 70.6 36.6 71.0 37.1 72.15 36.85 72.3 35.4 M30.7 22.6 Q30.7 22.3 31.05 22.1 L31.9 21.9 32.25 21.85 Q33.95 21.85 34.45 23.85 34.45 26.05 31.95 26.05 L31.85 26.05 30.75 25.7 30.55 22.8 30.7 22.6 M31.0 24.45 L33.1 24.9 33.15 23.2 31.2 23.3 31.0 24.45 M15.35 38.1 Q17.2 38.1 17.2 39.55 17.2 41.65 15.05 41.65 13.95 41.65 13.5 41.1 L13.25 40.5 Q13.25 38.1 15.35 38.1 M16.15 40.95 L16.15 39.25 14.5 39.25 14.5 40.95 16.15 40.95 M28.45 39.55 Q28.45 37.6 30.25 37.6 32.2 37.6 32.2 39.45 32.2 40.95 30.45 40.95 29.1 40.95 28.65 40.3 L28.45 39.55 M29.55 39.05 L29.8 39.7 30.4 39.95 31.0 39.7 31.25 39.05 31.0 38.45 Q30.75 38.15 30.4 38.15 30.05 38.15 29.8 38.45 29.55 38.7 29.55 39.05" fill="#53080d" fill-rule="evenodd" stroke="none"/>
    <path d="M103.45 18.7 L103.8 19.4 104.7 20.95 104.15 21.25 104.3 21.65 105.5 21.7 106.85 23.2 106.35 24.6 102.4 24.45 Q100.05 25.2 98.15 24.05 L98.0 23.55 Q99.55 20.85 99.0 18.05 L100.1 17.8 100.55 17.3 98.65 16.65 98.5 15.85 98.55 14.75 Q100.55 14.75 102.45 15.85 103.95 16.75 103.45 18.7" fill="#cc676d" fill-rule="evenodd" stroke="none"/>
    <path d="M119.95 22.15 Q120.65 28.85 119.4 35.55 L119.3 36.15 Q117.95 40.05 113.55 40.65 L99.15 39.65 Q96.1 39.4 93.0 39.75 L88.45 40.55 Q86.6 41.05 84.95 40.2 L85.05 38.6 85.5 38.2 Q86.85 36.75 88.75 36.85 L89.95 36.85 Q93.0 37.45 95.85 36.1 96.5 36.9 97.45 36.8 L97.55 36.65 97.05 35.45 97.6 35.25 Q98.65 35.35 99.1 34.75 L102.4 34.4 106.3 34.75 105.8 35.1 Q105.8 35.75 107.0 35.75 L108.0 35.2 108.65 35.4 108.05 36.45 108.65 36.95 109.6 35.9 109.9 36.05 109.85 37.0 Q109.95 38.05 110.75 38.05 111.35 38.05 111.55 36.95 L114.45 37.05 Q120.05 32.05 119.6 24.6 L119.9 21.45 119.95 22.15" fill="#81030e" fill-rule="evenodd" stroke="none"/>
    <path d="M81.3 4.8 L81.6 3.7 88.4 3.15 86.75 3.55 82.75 3.9 84.85 4.05 Q84.0 4.3 83.75 4.55 L83.35 5.1 Q82.85 8.0 84.6 10.45 86.85 13.5 88.3 16.9 90.3 21.6 88.9 26.65 87.6 31.3 88.6 36.05 L88.75 36.85 Q86.85 36.75 85.5 38.2 L85.05 38.6 Q85.35 34.1 84.4 29.8 84.15 28.6 84.5 27.35 85.55 23.85 86.05 20.0 86.35 17.6 85.6 15.4 84.0 10.8 81.5 6.55 L81.3 4.8" fill="#872228" fill-rule="evenodd" stroke="none"/>
    <path d="M39.8 6.65 L49.0 5.95 Q51.45 5.5 53.75 4.3 60.75 0.7 68.6 2.2 L60.6 3.1 Q52.2 3.9 46.85 10.15 L54.45 6.1 53.1 7.7 51.9 8.75 Q44.35 14.95 44.8 24.7 L43.5 21.95 46.55 9.05 46.6 9.0 46.55 9.0 45.0 10.65 40.95 8.9 Q39.55 7.85 38.1 7.85 37.75 7.95 37.5 8.1 L35.35 7.9 26.3 9.35 26.85 9.6 26.3 9.35 26.2 8.6 30.3 7.85 34.2 7.7 44.9 8.1 39.8 6.65 M75.4 3.5 L81.3 4.8 81.5 6.55 80.95 7.85 82.7 12.4 83.05 14.4 82.55 13.15 82.95 16.35 83.0 17.15 Q79.6 15.1 77.2 12.2 L78.3 8.2 Q67.45 3.4 56.05 6.85 L56.45 5.35 Q68.35 1.45 79.85 6.1 L75.4 3.5 M77.9 7.2 Q77.7 4.45 74.5 5.1 76.0 5.7 77.85 7.15 L77.9 7.2 M70.05 5.0 L72.7 5.8 70.85 4.8 70.05 5.0 M55.6 5.65 L55.25 7.0 54.7 7.05 54.95 5.9 55.6 5.65" fill="#882027" fill-rule="evenodd" stroke="none"/>
    <path d="M82.7 12.4 L83.3 14.8 Q84.35 20.0 82.65 25.0 81.25 29.0 82.25 32.85 L81.9 34.6 Q78.6 37.1 74.5 37.85 L73.7 36.8 75.95 36.4 Q76.7 36.25 76.95 35.7 L77.9 33.35 77.55 32.5 Q75.65 27.0 80.45 24.1 L81.15 23.35 Q83.5 20.4 82.95 16.35 L82.55 13.15 83.05 14.4 82.7 12.4 M42.7 37.8 Q43.65 32.3 43.45 26.7 43.35 24.3 43.5 21.95 L44.8 24.7 Q45.25 29.45 45.2 34.2 45.15 37.6 48.35 38.35 L48.4 38.35 50.8 38.6 49.95 39.95 49.25 40.0 Q45.55 40.05 42.7 37.8 M51.8 39.8 L52.8 38.95 53.05 39.7 51.8 39.8 M54.45 40.05 L54.4 39.25 55.5 39.0 58.05 40.1 58.05 39.35 Q62.5 41.65 67.05 39.85 L68.45 39.35 68.0 40.5 68.45 41.15 67.15 41.6 Q60.3 43.3 54.45 40.05 M68.5 41.15 L71.25 38.75 71.4 39.75 Q70.0 40.6 68.5 41.15" fill="#93242a" fill-rule="evenodd" stroke="none"/>
    <path d="M82.95 16.35 Q83.5 20.4 81.15 23.35 L80.45 24.1 Q81.55 22.8 81.7 21.05 L81.75 20.55 Q79.95 18.15 76.9 16.45 74.45 15.1 73.55 12.6 L75.25 9.4 Q72.85 6.45 68.65 7.15 L66.2 7.05 Q61.25 6.75 56.3 8.45 L56.05 6.85 Q67.45 3.4 78.3 8.2 L77.2 12.2 Q79.6 15.1 83.0 17.15 L82.95 16.35 M55.25 7.0 L56.3 8.45 Q54.7 9.0 53.45 9.7 L54.7 7.05 55.25 7.0 M52.8 9.65 Q50.85 11.55 48.8 14.2 45.85 18.05 47.75 22.8 48.2 23.95 49.3 24.85 L49.25 24.95 49.45 25.05 Q51.05 27.3 51.05 30.1 L50.75 34.0 48.6 33.2 48.55 34.25 51.15 35.8 51.15 35.85 48.5 37.55 51.55 37.3 50.8 38.6 48.4 38.35 48.35 38.3 48.35 38.35 Q45.15 37.6 45.2 34.2 45.25 29.45 44.8 24.7 44.35 14.95 51.9 8.75 L53.1 7.7 52.8 9.65" fill="#a32732" fill-rule="evenodd" stroke="none"/>
    <path d="M80.45 24.1 Q75.65 27.0 77.55 32.5 L77.9 33.35 76.95 35.7 76.75 35.3 73.65 34.75 74.0 33.45 73.6 32.45 72.55 33.65 71.45 30.8 71.0 31.15 70.7 32.5 69.85 31.9 72.1 28.4 Q73.0 27.25 75.05 25.6 L75.1 25.7 Q75.65 25.7 75.7 25.1 L76.7 22.9 77.0 22.4 77.0 22.35 77.3 21.35 Q77.3 20.75 76.55 20.2 L78.2 19.7 Q77.3 18.3 74.8 18.8 76.3 17.4 75.45 15.55 L75.25 15.35 73.45 18.0 72.75 17.9 72.5 14.55 Q71.2 15.3 71.45 17.75 L67.0 15.4 67.45 12.85 67.25 12.35 Q59.6 10.2 53.45 15.05 52.65 15.6 52.1 16.5 L54.0 17.85 Q52.3 18.1 51.45 16.1 L51.3 15.9 50.6 16.0 52.1 18.6 48.5 18.85 Q48.7 20.2 51.1 20.0 49.8 20.85 48.05 20.8 L47.75 21.2 Q48.05 21.9 49.55 21.8 L49.85 22.6 49.3 24.85 Q48.2 23.95 47.75 22.8 45.85 18.05 48.8 14.2 50.85 11.55 52.8 9.65 L52.85 10.2 53.3 10.2 53.45 9.7 Q54.7 9.0 56.3 8.45 61.25 6.75 66.2 7.05 L68.65 7.15 Q72.85 6.45 75.25 9.4 L73.55 12.6 Q74.45 15.1 76.9 16.45 79.95 18.15 81.75 20.55 L81.7 21.05 Q81.55 22.8 80.45 24.1 M55.15 18.15 L55.85 18.65 55.35 18.95 55.15 18.15 M51.15 35.85 L51.15 35.8 51.4 35.8 51.15 35.85 M50.75 34.0 L51.05 30.1 Q51.05 27.3 49.45 25.05 L49.85 25.25 50.5 24.8 50.85 23.6 53.45 27.0 54.2 33.05 54.15 33.6 51.55 30.8 Q50.95 32.15 52.1 34.0 L50.75 34.0 M56.7 34.85 L57.75 34.95 Q62.2 35.45 66.5 34.8 L69.35 36.05 69.35 36.35 69.05 36.8 67.55 37.45 Q66.25 38.0 66.25 38.65 66.25 39.25 68.45 39.35 L67.05 39.85 Q62.5 41.65 58.05 39.35 L56.35 37.75 56.55 36.95 58.85 36.85 59.5 36.5 59.35 35.75 56.65 35.65 56.7 34.85 M67.75 34.1 L68.9 33.05 69.6 34.6 67.75 34.1" fill="#b63844" fill-rule="evenodd" stroke="none"/>
    <path d="M42.65 40.25 L42.7 37.8 Q45.55 40.05 49.25 40.0 L49.95 39.95 49.75 40.25 50.45 40.85 51.65 39.95 51.8 39.8 53.05 39.7 Q53.15 41.45 53.95 42.35 54.55 42.15 54.55 41.4 L54.45 40.05 Q60.3 43.3 67.15 41.6 L68.45 41.15 68.5 41.15 Q70.0 40.6 71.4 39.75 L72.5 41.55 72.8 39.1 73.75 38.95 75.25 40.4 75.5 40.0 74.5 37.85 Q78.6 37.1 81.9 34.6 L82.25 32.85 82.85 35.2 Q81.6 38.1 78.35 38.1 76.95 37.8 76.25 38.75 L80.45 40.45 Q81.65 40.9 81.45 42.4 80.95 43.55 79.45 43.55 67.05 42.45 54.75 44.15 50.75 44.85 47.05 46.2 L45.55 44.7 Q45.75 43.55 46.9 42.5 L46.85 41.8 Q44.2 42.4 42.65 40.25 M109.6 35.9 Q109.85 35.3 109.9 35.7 L109.9 36.05 109.6 35.9" fill="#7d050f" fill-rule="evenodd" stroke="none"/>
    <path d="M83.3 14.8 Q85.4 20.8 84.25 27.15 83.9 29.25 84.15 31.35 85.0 38.65 82.65 45.3 62.7 43.5 43.45 48.95 L42.95 48.6 47.05 46.2 Q50.75 44.85 54.75 44.15 67.05 42.45 79.45 43.55 80.95 43.55 81.45 42.4 81.65 40.9 80.45 40.45 L76.25 38.75 Q76.95 37.8 78.35 38.1 81.6 38.1 82.85 35.2 L82.25 32.85 Q81.25 29.0 82.65 25.0 84.35 20.0 83.3 14.8" fill="#580018" fill-rule="evenodd" stroke="none"/>
    <path d="M126.9 48.5 L128.3 51.45 127.1 53.3 Q114.5 58.5 90.4 54.15 88.05 53.9 86.95 52.15 L88.2 52.25 87.85 51.4 86.8 51.35 Q87.35 50.25 87.35 48.9 L87.2 47.8 87.9 47.5 87.0 47.35 86.6 46.65 87.5 46.4 Q87.15 45.2 85.35 45.2 L85.3 45.2 Q97.1 42.05 109.25 44.05 L110.85 44.2 Q100.55 43.6 91.15 46.85 89.45 47.4 88.95 49.0 90.1 51.7 93.15 52.2 107.15 54.95 121.25 52.45 L121.0 52.95 119.5 53.6 121.8 53.5 121.95 52.5 Q122.45 52.1 124.2 51.55 126.85 51.0 126.9 48.5" fill="#8d2232" fill-rule="evenodd" stroke="none"/>
    <path d="M42.3 51.4 Q45.65 49.65 49.45 48.75 67.8 45.05 86.6 46.65 L87.0 47.35 85.4 47.45 85.25 48.15 87.2 47.8 87.35 48.9 Q87.35 50.25 86.8 51.35 L85.3 51.6 85.7 51.85 Q81.0 54.95 68.25 56.9 53.85 59.1 44.15 56.75 L45.35 56.0 43.85 56.35 Q43.1 55.25 42.05 54.9 L41.8 54.95 41.45 54.35 42.3 51.4 M86.7 49.4 L86.15 49.05 Q83.65 48.0 83.35 49.75 L86.7 49.4 M45.6 52.8 L46.2 54.85 Q48.5 56.1 50.95 56.05 64.8 55.85 78.25 52.8 81.6 52.05 82.05 48.8 81.6 48.15 80.75 48.0 69.65 46.4 58.45 47.8 51.4 48.3 45.55 52.05 43.7 51.5 42.15 52.6 41.85 52.8 41.95 53.05 L45.6 52.8" fill="#931f32" fill-rule="evenodd" stroke="none"/>
    <path d="M119.3 36.15 L117.05 43.4 Q105.4 41.4 93.55 42.2 88.1 42.5 83.9 45.25 L84.95 40.2 Q86.6 41.05 88.45 40.55 L93.0 39.75 Q96.1 39.4 99.15 39.65 L113.55 40.65 Q117.95 40.05 119.3 36.15" fill="#6b060e" fill-rule="evenodd" stroke="none"/>
    <path d="M118.35 50.5 Q104.3 53.25 90.75 49.35 L91.9 48.7 Q103.85 43.75 116.85 45.8 L116.15 46.0 Q118.7 47.85 121.9 47.85 L117.15 45.85 125.0 48.35 120.35 50.1 119.15 48.3 118.75 48.7 118.35 50.5 M119.15 48.3 L120.75 48.0 Q107.2 45.35 93.75 48.4 106.45 49.3 119.15 48.3" fill="#ce8888" fill-rule="evenodd" stroke="none"/>
    <path d="M119.15 48.3 Q106.45 49.3 93.75 48.4 107.2 45.35 120.75 48.0 L119.15 48.3 M57.4 50.45 Q66.95 48.4 76.55 50.05 L49.9 52.05 57.4 50.45" fill="#db9396" fill-rule="evenodd" stroke="none"/>
    <path d="M112.4 66.6 L111.15 63.75 116.5 63.4 116.65 64.95 116.4 65.5 115.95 65.5 Q115.75 64.8 115.35 64.4 L114.85 64.85 114.9 65.65 113.95 65.85 112.45 66.6 112.4 66.6 M9.4 69.7 L7.65 69.55 8.4 68.0 Q10.55 68.25 11.4 69.0 L10.4 70.35 9.4 69.7" fill="#0f0000" fill-rule="evenodd" stroke="none"/>
    <path d="M114.9 65.65 L114.85 64.85 115.35 64.4 Q115.75 64.8 115.95 65.5 116.15 66.4 116.0 67.7 L115.9 67.8 Q115.05 67.2 114.9 65.65" fill="#bcbcbc" fill-rule="evenodd" stroke="none"/>
    <path d="M112.4 66.6 L112.45 66.6 112.5 66.85 112.4 66.6 M113.95 65.85 L114.9 65.65 Q115.05 67.2 115.9 67.8 L116.0 67.7 Q116.15 66.4 115.95 65.5 L116.4 65.5 116.65 64.95 117.05 68.85 Q117.3 70.9 116.5 71.2 114.85 69.0 114.1 66.4 L113.95 65.85" fill="#878588" fill-rule="evenodd" stroke="none"/>
    <path d="M112.45 66.6 L113.95 65.85 114.1 66.4 Q114.85 69.0 116.5 71.2 L116.15 71.25 Q114.7 71.25 112.5 66.85 L112.45 66.6" fill="#5d5d67" fill-rule="evenodd" stroke="none"/>
    <path d="M128.3 51.45 L128.45 53.2 128.15 56.3 Q120.8 57.9 113.0 58.25 98.85 59.7 85.6 55.15 64.75 62.45 42.7 59.15 38.65 61.35 34.0 62.55 22.15 65.65 10.0 64.3 5.3 64.0 1.55 60.8 L1.8 58.85 2.45 59.6 Q16.4 63.65 30.85 60.7 37.1 59.5 41.8 54.95 L42.05 54.9 Q43.1 55.25 43.85 56.35 43.1 56.65 44.05 56.8 L44.15 56.75 Q53.85 59.1 68.25 56.9 81.0 54.95 85.7 51.85 L86.95 52.15 Q88.05 53.9 90.4 54.15 114.5 58.5 127.1 53.3 L128.3 51.45 M36.7 59.65 L35.65 59.95 Q28.2 62.3 20.15 62.45 28.7 64.4 36.55 60.45 L36.7 59.65" fill="#6c1621" fill-rule="evenodd" stroke="none"/>
    <path d="M85.7 59.5 L84.8 59.25 Q81.9 60.85 78.55 60.95 L48.9 61.85 46.05 61.15 Q42.0 60.85 39.1 62.65 36.2 64.45 27.7 66.1 19.15 67.75 3.9 65.2 L2.05 62.55 Q6.2 64.85 10.7 65.4 18.6 66.35 26.55 65.35 35.55 64.75 43.0 59.95 64.6 64.0 85.25 56.35 106.35 62.65 127.75 57.4 L126.85 59.1 125.55 60.25 Q120.8 61.65 115.75 61.75 100.85 62.5 86.35 58.65 L85.7 59.5" fill="#551410" fill-rule="evenodd" stroke="none"/>
    <path d="M78.55 60.95 Q65.05 64.2 51.35 63.4 L41.9 62.9 Q33.55 67.45 22.1 67.5 12.8 67.5 3.9 65.2 19.15 67.75 27.7 66.1 36.2 64.45 39.1 62.65 42.0 60.85 46.05 61.15 L48.9 61.85 78.55 60.95 M115.75 61.75 Q100.75 63.55 86.4 59.65 L85.7 59.5 86.35 58.65 Q100.85 62.5 115.75 61.75" fill="#662d34" fill-rule="evenodd" stroke="none"/>
    <path d="M54.0 17.85 L52.1 16.5 Q52.65 15.6 53.45 15.05 59.6 10.2 67.25 12.35 L67.45 12.85 67.0 15.4 71.45 17.75 70.9 18.3 68.9 17.15 68.45 17.6 69.95 19.9 67.15 20.3 Q65.45 16.65 61.5 17.65 58.6 18.3 57.25 20.9 L55.9 20.6 57.65 18.65 57.05 18.2 55.85 18.65 55.15 18.15 Q55.75 16.55 55.35 15.0 L55.1 14.3 54.0 17.85 M76.55 20.2 Q77.3 20.75 77.3 21.35 L77.0 22.35 75.1 20.5 76.55 20.2 M76.7 22.9 L75.7 25.1 74.9 22.3 76.7 22.9 M75.05 25.6 Q73.0 27.25 72.1 28.4 L69.85 31.9 68.55 31.75 Q68.2 32.4 68.9 33.05 L67.75 34.1 Q66.05 33.55 66.3 34.55 L66.5 34.8 Q62.2 35.45 57.75 34.95 L56.7 34.85 57.35 32.55 55.3 33.9 Q55.75 32.75 55.35 31.7 L54.5 29.9 54.2 33.05 53.45 27.0 55.4 26.85 53.8 24.65 54.65 24.25 56.15 24.9 Q54.2 28.7 57.7 30.7 61.3 32.75 65.25 31.8 70.25 30.85 70.7 25.3 L72.25 24.0 Q72.0 26.15 72.95 27.25 L73.45 23.75 73.9 23.55 75.05 25.6 M70.55 23.35 L70.75 23.4 70.65 23.5 70.55 23.35 M56.55 23.5 L55.9 22.4 56.0 21.95 56.9 22.15 56.55 23.5" fill="#c04d54" fill-rule="evenodd" stroke="none"/>
    <path d="M62.05 22.05 Q59.8 24.2 59.8 27.4 60.45 29.3 62.4 29.9 65.0 30.55 66.55 28.4 67.3 27.3 66.75 26.15 65.5 23.3 63.05 21.2 L62.05 22.05 M59.6 22.05 Q60.25 20.25 61.95 19.35 63.2 18.6 64.3 19.7 L68.3 23.4 Q68.15 23.45 68.35 23.85 L68.6 24.0 Q69.5 28.25 65.85 30.0 61.85 31.8 58.55 28.85 57.9 25.5 59.45 22.45 L59.6 22.05" fill="#cf646a" fill-rule="evenodd" stroke="none"/>
    <path d="M57.25 20.9 Q58.6 18.3 61.5 17.65 65.45 16.65 67.15 20.3 L66.55 20.9 Q67.6 22.25 69.6 21.95 L69.65 22.55 68.3 23.4 64.3 19.7 Q63.2 18.6 61.95 19.35 60.25 20.25 59.6 22.05 L59.6 21.9 Q59.6 21.45 57.25 20.9 M59.45 22.45 Q57.9 25.5 58.55 28.85 61.85 31.8 65.85 30.0 69.5 28.25 68.6 24.0 L70.55 23.35 70.65 23.5 69.35 25.25 69.85 25.7 70.7 25.3 Q70.25 30.85 65.25 31.8 61.3 32.75 57.7 30.7 54.2 28.7 56.15 24.9 L57.35 25.05 56.55 23.5 56.9 22.15 59.45 22.45" fill="#c2575f" fill-rule="evenodd" stroke="none"/>
    <path d="M62.05 22.05 L63.05 21.2 Q65.5 23.3 66.75 26.15 67.3 27.3 66.55 28.4 65.0 30.55 62.4 29.9 60.45 29.3 59.8 27.4 59.8 24.2 62.05 22.05" fill="#ca7270" fill-rule="evenodd" stroke="none"/>
    <path d="M45.0 10.65 L43.2 16.25 42.65 14.55 Q41.85 11.75 38.9 10.8 L36.65 10.2 Q37.3 9.7 36.45 9.3 35.9 9.0 35.3 8.85 L31.6 8.95 Q32.6 9.8 35.2 10.0 L29.0 10.45 26.7 10.95 26.3 9.35 35.35 7.9 37.5 8.1 37.05 8.45 42.4 10.7 40.95 8.9 45.0 10.65 M41.55 38.45 L41.65 47.95 32.15 46.2 33.25 46.1 Q39.8 45.05 41.55 38.45 M26.85 9.6 L26.3 9.35 26.85 9.6" fill="#5e0015" fill-rule="evenodd" stroke="none"/>
    <path d="M43.2 16.25 Q41.75 26.4 41.55 38.45 39.8 45.05 33.25 46.1 L32.15 46.2 31.45 46.15 Q18.55 45.2 6.85 50.4 5.85 49.1 5.65 47.4 L5.55 45.95 27.1 45.2 Q32.8 45.05 36.2 40.9 38.0 38.7 37.25 35.85 36.55 33.15 36.25 30.35 L35.95 26.4 Q37.0 26.25 37.5 25.75 L36.1 25.4 Q38.65 21.05 39.75 16.1 L39.8 16.0 Q40.35 13.25 38.9 10.8 41.85 11.75 42.65 14.55 L43.2 16.25" fill="#760718" fill-rule="evenodd" stroke="none"/>
    <path d="M42.95 48.6 L42.65 40.25 Q44.2 42.4 46.85 41.8 L46.9 42.5 Q45.75 43.55 45.55 44.7 L47.05 46.2 42.95 48.6" fill="#6d0b08" fill-rule="evenodd" stroke="none"/>
    <path d="M45.55 52.05 Q51.4 48.3 58.45 47.8 69.65 46.4 80.75 48.0 81.6 48.15 82.05 48.8 81.6 52.05 78.25 52.8 64.8 55.85 50.95 56.05 48.5 56.1 46.2 54.85 L45.6 52.8 46.0 52.2 45.55 52.05 M79.25 49.8 Q62.85 45.75 47.1 52.45 61.3 55.0 75.45 51.0 L79.25 49.8" fill="#ab5b5a" fill-rule="evenodd" stroke="none"/>
    <path d="M6.85 50.4 L6.2 49.95 Q2.1 47.5 3.8 43.45 L3.85 43.4 4.35 42.8 Q7.7 40.7 11.65 41.6 L10.05 43.35 Q10.35 43.95 11.15 43.25 12.05 42.45 13.0 41.85 L13.2 45.35 14.05 45.45 14.45 43.05 Q16.75 42.5 18.75 43.8 L19.2 43.3 17.4 42.15 18.8 41.7 20.1 41.05 23.95 39.0 24.5 39.7 27.65 40.0 26.05 42.4 27.95 41.2 29.3 41.85 29.95 44.1 30.45 43.9 30.8 41.4 31.9 40.8 33.1 42.2 33.35 40.95 32.8 40.0 33.1 39.4 34.65 38.95 33.0 38.3 33.85 36.4 33.05 36.95 34.0 34.2 33.65 29.5 34.55 29.7 Q34.9 28.2 34.0 26.75 L34.4 26.25 35.95 26.4 36.25 30.35 Q36.55 33.15 37.25 35.85 38.0 38.7 36.2 40.9 32.8 45.05 27.1 45.2 L5.55 45.95 5.65 47.4 Q5.85 49.1 6.85 50.4 M29.0 10.45 L35.2 10.0 36.6 10.2 36.65 10.2 38.9 10.8 Q40.35 13.25 39.8 16.0 L39.75 16.1 Q38.65 21.05 36.1 25.4 L35.0 25.0 35.25 22.9 37.75 21.0 37.1 20.35 34.5 21.6 33.85 17.8 32.95 20.6 32.4 20.6 Q31.5 16.7 35.0 14.55 35.85 14.05 35.95 13.1 33.85 9.9 29.9 10.7 L29.05 10.9 29.0 10.45" fill="#a1232f" fill-rule="evenodd" stroke="none"/>
    <path d="M26.3 9.35 L26.85 9.6 26.3 9.35 26.7 10.95 23.8 11.6 23.7 11.65 23.1 11.8 Q20.4 12.3 18.0 13.3 14.55 14.65 11.6 17.0 L11.45 16.85 Q14.2 14.2 17.5 12.4 20.05 11.0 22.9 10.15 L26.3 9.35" fill="#bf6d71" fill-rule="evenodd" stroke="none"/>
    <path d="M11.6 17.0 Q14.55 14.65 18.0 13.3 20.4 12.3 23.1 11.8 L23.7 11.65 23.8 11.6 25.75 12.0 Q26.55 12.4 26.55 13.0 L24.5 13.25 Q22.1 13.75 20.0 15.25 L20.3 16.8 13.45 19.35 13.05 19.55 Q12.5 19.85 12.05 20.3 7.95 24.9 11.7 29.75 L11.6 30.0 Q10.35 29.15 9.6 28.15 6.35 23.55 9.35 18.85 L11.6 17.0" fill="#bf7d81" fill-rule="evenodd" stroke="none"/>
    <path d="M25.7 7.2 L25.7 7.15 25.8 7.1 25.7 7.2" fill="#b2595d" fill-rule="evenodd" stroke="none"/>
    <path d="M11.6 17.0 L9.35 18.85 Q6.5 21.05 4.9 24.35 L4.6 25.05 5.4 22.75 9.35 15.45 Q12.9 10.85 15.7 9.5 L16.35 9.2 Q18.75 8.2 22.4 7.6 L25.8 7.1 25.7 7.15 25.7 7.2 22.45 8.15 Q19.5 9.1 16.7 10.5 15.35 11.1 14.05 11.85 L13.45 12.3 16.9 11.0 Q19.7 10.0 22.65 9.25 L26.2 8.6 26.3 9.35 22.9 10.15 Q20.05 11.0 17.5 12.4 14.2 14.2 11.45 16.85 L11.6 17.0" fill="#cd8287" fill-rule="evenodd" stroke="none"/>
    <path d="M25.7 7.2 L25.8 7.1 26.2 8.6 22.65 9.25 Q19.7 10.0 16.9 11.0 L13.45 12.3 14.05 11.85 Q15.35 11.1 16.7 10.5 19.5 9.1 22.45 8.15 L25.7 7.2" fill="#d4b9b2" fill-rule="evenodd" stroke="none"/>
    <path d="M6.95 16.3 Q8.8 12.75 11.95 10.35 13.95 8.8 16.15 7.8 19.35 6.25 23.0 5.85 L25.45 5.7 25.85 7.1 25.8 7.1 22.4 7.6 Q18.75 8.2 16.35 9.2 L15.7 9.5 Q12.9 10.85 9.35 15.45 L6.95 16.3" fill="#a98a88" fill-rule="evenodd" stroke="none"/>
    <path d="M29.5 17.1 L29.55 17.1 29.55 17.15 29.5 17.1 M30.8 19.9 L30.8 19.95 30.8 19.9" fill="#c35159" fill-rule="evenodd" stroke="none"/>
    <path d="M9.35 18.85 Q6.35 23.55 9.6 28.15 10.35 29.15 11.6 30.0 L11.55 30.85 12.15 30.95 12.55 30.45 Q13.6 30.9 14.75 30.95 15.05 31.8 15.9 31.8 16.4 31.8 16.25 31.65 L15.8 29.25 16.45 28.05 18.6 29.2 18.1 31.45 21.95 32.9 Q13.35 34.0 5.05 31.4 L3.95 31.05 3.95 28.2 4.6 25.05 4.9 24.35 Q6.5 21.05 9.35 18.85 M26.55 13.0 Q26.55 12.4 25.75 12.0 L23.8 11.6 26.7 10.95 27.4 13.7 27.55 14.25 26.55 13.0 M21.35 23.05 L21.6 23.0 22.15 22.8 Q25.75 21.45 28.05 24.3 L26.05 25.65 Q26.35 26.7 28.4 25.8 L29.1 25.45 29.25 26.25 Q28.05 27.05 27.5 28.4 L27.7 28.85 27.3 29.85 Q26.15 25.5 22.5 25.5 L21.6 25.55 21.0 25.95 19.55 25.6 Q19.0 25.25 18.95 24.75 L18.95 24.7 19.35 24.35 Q20.2 24.35 20.8 24.0 21.35 23.6 21.35 23.05 M28.4 24.05 L28.55 22.75 29.55 23.0 28.4 24.05 M28.65 21.65 L28.75 19.05 30.4 21.6 30.45 21.7 28.65 21.65 M20.1 26.75 L19.3 27.75 18.4 27.2 18.75 26.55 20.1 26.75" fill="#b9696c" fill-rule="evenodd" stroke="none"/>
    <path d="M29.1 16.6 L29.35 16.7 29.5 17.1 29.55 17.15 29.55 17.1 30.8 19.9 30.8 19.95 30.85 19.95 31.7 20.55 31.9 21.9 31.05 22.1 Q30.7 22.3 30.7 22.6 L30.45 21.7 30.4 21.6 29.1 16.6 M31.85 26.05 L31.6 27.7 30.3 29.95 29.9 30.15 Q30.55 28.9 30.7 25.7 L30.75 25.7 31.85 26.05" fill="#89333c" fill-rule="evenodd" stroke="none"/>
    <path d="M11.6 30.0 L11.7 29.75 13.25 26.65 12.75 26.95 10.95 26.45 12.4 25.3 13.7 24.35 11.9 23.25 11.45 22.9 Q11.9 22.55 12.25 22.45 L15.8 23.25 Q14.45 22.25 14.25 20.45 L13.85 20.15 13.05 19.55 14.95 19.35 Q15.75 19.75 16.15 21.55 L17.95 22.75 18.1 22.8 18.2 22.5 18.65 19.8 19.25 21.65 19.3 22.75 21.35 23.05 Q21.35 23.6 20.8 24.0 20.2 24.35 19.35 24.35 L18.95 24.45 18.65 23.8 Q16.8 22.65 15.25 23.95 L14.7 26.65 Q15.85 27.95 17.6 27.3 19.0 26.65 18.95 24.75 19.0 25.25 19.55 25.6 L21.0 25.95 21.95 26.7 20.1 26.75 18.75 26.55 18.4 27.2 19.3 27.75 20.65 28.8 20.9 29.15 Q20.85 29.7 20.3 29.75 L18.6 29.2 16.45 28.05 15.8 27.85 15.8 29.25 16.25 31.65 Q16.4 31.8 15.9 31.8 15.05 31.8 14.75 30.95 L14.45 27.4 12.55 30.45 12.15 30.95 11.55 30.85 11.6 30.0 M28.55 16.8 L29.1 16.6 30.4 21.6 28.75 19.05 28.55 16.8 M28.05 24.3 L28.4 24.05 29.55 23.0 28.55 22.75 Q26.85 22.55 27.1 21.3 L28.65 21.65 30.45 21.7 30.7 22.6 30.55 22.8 30.35 25.1 30.7 25.7 Q30.55 28.9 29.9 30.15 L30.2 27.35 28.95 28.25 27.7 28.85 27.5 28.4 Q28.05 27.05 29.25 26.25 L29.1 25.45 28.4 25.8 Q26.35 26.7 26.05 25.65 L28.05 24.3 M12.35 36.1 Q12.45 34.95 13.1 35.1 L13.55 36.05 12.35 36.1 M17.35 35.45 L17.4 35.3 18.35 35.25 17.35 35.45" fill="#934d57" fill-rule="evenodd" stroke="none"/>
    <path d="M11.7 29.75 Q7.95 24.9 12.05 20.3 12.5 19.85 13.05 19.55 L13.45 19.35 20.3 16.8 20.0 15.25 Q22.1 13.75 24.5 13.25 L26.55 13.0 27.55 14.25 27.65 14.35 Q28.25 15.2 28.55 16.8 L28.75 19.05 28.65 21.65 27.1 21.3 Q26.85 22.55 28.55 22.75 L28.4 24.05 28.05 24.3 Q25.75 21.45 22.15 22.8 L21.6 23.0 21.35 23.05 19.3 22.75 19.25 21.65 21.7 20.4 Q24.85 18.5 27.0 15.5 26.3 14.6 25.0 14.65 22.8 14.75 21.7 16.8 L21.7 17.75 20.95 18.15 19.45 18.8 18.55 18.6 Q16.65 18.35 14.95 19.35 L13.05 19.55 13.85 20.15 12.25 22.45 Q11.9 22.55 11.45 22.9 L11.9 23.25 Q11.6 23.95 11.6 24.4 11.6 25.05 12.4 25.3 L10.95 26.45 12.75 26.95 13.25 26.65 11.7 29.75 M17.95 22.75 L18.2 22.5 18.1 22.8 17.95 22.75 M19.35 24.35 L18.95 24.7 18.95 24.45 19.35 24.35 M16.45 28.05 L15.8 29.25 15.8 27.85 16.45 28.05 M14.75 30.95 Q13.6 30.9 12.55 30.45 L14.45 27.4 14.75 30.95" fill="#c67574" fill-rule="evenodd" stroke="none"/>
    <path d="M14.95 19.35 Q16.65 18.35 18.55 18.6 L19.45 18.8 20.95 18.15 21.7 17.75 21.7 16.8 Q22.8 14.75 25.0 14.65 26.3 14.6 27.0 15.5 24.85 18.5 21.7 20.4 L19.25 21.65 18.65 19.8 18.2 22.5 17.95 22.75 16.15 21.55 Q15.75 19.75 14.95 19.35 M13.85 20.15 L14.25 20.45 Q14.45 22.25 15.8 23.25 L12.25 22.45 13.85 20.15 M11.9 23.25 L13.7 24.35 12.4 25.3 Q11.6 25.05 11.6 24.4 11.6 23.95 11.9 23.25" fill="#ce7c80" fill-rule="evenodd" stroke="none"/>
    <path d="M26.7 10.95 L29.0 10.45 29.05 10.9 29.9 10.7 Q33.85 9.9 35.95 13.1 35.85 14.05 35.0 14.55 31.5 16.7 32.4 20.6 L31.7 20.55 30.85 19.95 30.8 19.9 29.55 17.1 29.5 17.1 29.35 16.7 29.1 16.6 28.55 16.8 Q28.25 15.2 27.65 14.35 L27.55 14.25 27.4 13.7 26.7 10.95 M32.6 28.1 L33.65 29.5 34.0 34.2 32.6 28.1" fill="#b03c3f" fill-rule="evenodd" stroke="none"/>
    <path d="M30.8 19.9 L30.85 19.95 30.8 19.95 30.8 19.9 M4.55 35.2 Q8.15 36.15 12.05 36.2 L12.35 36.25 12.35 36.8 13.2 37.8 10.45 37.25 9.4 37.2 5.15 38.15 4.55 35.2 M13.7 36.2 L17.3 35.6 15.05 37.35 13.7 36.2 M18.35 35.35 Q23.75 34.9 27.5 31.15 L28.1 30.4 28.95 28.25 30.2 27.35 29.9 30.15 30.3 29.95 28.65 33.5 28.35 33.1 27.85 34.2 26.1 35.35 25.4 35.6 Q21.8 35.1 18.6 36.85 L17.65 37.35 18.35 35.35" fill="#bb4e53" fill-rule="evenodd" stroke="none"/>
    <path d="M3.05 24.0 L6.95 16.3 9.35 15.45 5.4 22.75 3.05 24.0" fill="#9c706f" fill-rule="evenodd" stroke="none"/>
    <path d="M2.35 29.05 L3.05 24.0 5.4 22.75 4.6 25.05 3.95 28.2 Q3.05 28.6 2.35 29.05" fill="#855956" fill-rule="evenodd" stroke="none"/>
    <path d="M16.65 24.25 Q17.0 24.25 17.25 24.55 L17.45 25.25 17.25 25.95 Q17.0 26.25 16.65 26.25 L16.1 25.95 Q15.85 25.65 15.85 25.25 15.85 24.85 16.1 24.55 L16.65 24.25" fill="#65232d" fill-rule="evenodd" stroke="none"/>
    <path d="M18.95 24.7 L18.95 24.75 Q19.0 26.65 17.6 27.3 15.85 27.95 14.7 26.65 L15.25 23.95 Q16.8 22.65 18.65 23.8 L18.95 24.45 18.95 24.7 M16.65 24.25 L16.1 24.55 Q15.85 24.85 15.85 25.25 15.85 25.65 16.1 25.95 L16.65 26.25 Q17.0 26.25 17.25 25.95 L17.45 25.25 17.25 24.55 Q17.0 24.25 16.65 24.25" fill="#863f47" fill-rule="evenodd" stroke="none"/>
    <path d="M21.0 25.95 L21.6 25.55 22.5 25.5 Q26.15 25.5 27.3 29.85 L27.2 30.1 Q25.85 32.75 22.85 33.35 L21.95 32.9 18.1 31.45 18.6 29.2 20.3 29.75 20.25 30.75 21.35 31.6 Q23.1 32.65 24.95 31.9 L25.7 30.8 25.35 29.35 Q24.55 27.55 22.55 27.25 L22.05 27.2 20.65 28.8 19.3 27.75 20.1 26.75 21.95 26.7 21.0 25.95" fill="#c76e70" fill-rule="evenodd" stroke="none"/>
    <path d="M27.3 29.85 L27.7 28.85 28.95 28.25 28.1 30.4 27.5 31.15 Q23.75 34.9 18.35 35.35 L18.35 35.25 17.4 35.3 17.35 35.45 17.3 35.6 13.7 36.2 13.55 36.05 13.1 35.1 Q12.45 34.95 12.35 36.1 L12.35 36.25 12.05 36.2 Q8.15 36.15 4.55 35.2 L4.1 32.85 3.95 31.05 5.05 31.4 Q13.35 34.0 21.95 32.9 L22.85 33.35 Q25.85 32.75 27.2 30.1 L27.3 29.85" fill="#ba5b5f" fill-rule="evenodd" stroke="none"/>
    <path d="M2.7 34.35 L2.35 29.05 Q3.05 28.6 3.95 28.2 L3.95 31.05 4.1 32.85 2.7 34.35" fill="#743830" fill-rule="evenodd" stroke="none"/>
    <path d="M3.65 39.85 L2.7 34.35 4.1 32.85 4.55 35.2 5.15 38.15 5.15 38.35 3.65 39.85" fill="#5d1d1b" fill-rule="evenodd" stroke="none"/>
    <path d="M3.8 43.4 L4.25 42.6 Q5.5 40.65 5.15 38.35 L5.15 38.15 9.4 37.2 Q9.95 39.65 12.7 39.95 L12.7 40.3 11.65 41.6 Q7.7 40.7 4.35 42.8 L3.85 43.4 3.8 43.4 M31.6 27.7 L32.3 27.7 32.6 28.1 34.0 34.2 33.05 36.95 32.65 37.45 32.3 37.15 Q33.35 35.75 32.6 34.1 L31.75 33.75 31.9 34.4 31.1 36.8 30.25 36.6 Q28.9 35.4 28.65 33.5 L30.3 29.95 31.6 27.7 M13.2 37.8 L13.55 38.1 Q11.75 39.05 10.6 37.5 L10.45 37.25 13.2 37.8 M17.4 42.15 Q16.45 41.45 18.45 41.7 L18.8 41.7 17.4 42.15 M20.1 41.05 L17.6 40.4 20.65 38.35 20.15 37.7 17.3 38.5 17.65 37.35 18.6 36.85 Q21.8 35.1 25.4 35.6 25.9 37.85 27.4 38.55 L26.75 38.65 Q24.25 38.45 23.95 39.0 L20.1 41.05 M27.85 34.2 L28.5 37.0 Q26.9 36.75 26.1 35.35 L27.85 34.2" fill="#b13b4b" fill-rule="evenodd" stroke="none"/>
    <path d="M30.75 25.7 L30.7 25.7 30.35 25.1 30.55 22.8 30.75 25.7" fill="#7a232c" fill-rule="evenodd" stroke="none"/>
    <path d="M20.65 28.8 L22.05 27.2 22.55 27.25 Q24.55 27.55 25.35 29.35 L25.7 30.8 24.95 31.9 Q23.1 32.65 21.35 31.6 L20.25 30.75 20.3 29.75 Q20.85 29.7 20.9 29.15 L20.65 28.8" fill="#cd787d" fill-rule="evenodd" stroke="none"/>
    <path d="M7.4 56.1 Q8.9 56.25 10.05 55.55 L10.35 55.25 10.05 54.8 7.55 55.05 8.6 54.3 Q21.55 55.5 34.35 53.3 36.55 52.8 36.6 51.9 L36.0 51.8 Q22.45 49.3 9.55 53.3 L9.4 52.95 Q22.75 47.6 37.0 50.75 37.6 50.95 37.95 51.55 L37.45 53.4 Q23.1 58.65 7.8 56.4 L7.4 56.1" fill="#c17373" fill-rule="evenodd" stroke="none"/>
    <path d="M8.6 54.3 L9.55 53.3 Q22.45 49.3 36.0 51.8 L36.6 51.9 Q36.55 52.8 34.35 53.3 21.55 55.5 8.6 54.3 M34.95 52.2 L22.0 51.6 Q18.45 51.6 13.8 53.0 L34.95 52.2" fill="#d69898" fill-rule="evenodd" stroke="none"/>
    <path d="M6.3 54.05 L7.25 54.15 6.0 55.1 6.05 56.0 7.4 56.1 7.8 56.4 Q23.1 58.65 37.45 53.4 L37.95 51.55 Q37.6 50.95 37.0 50.75 22.75 47.6 9.4 52.95 L7.4 53.1 Q7.7 52.85 8.15 52.6 L9.75 52.25 Q10.4 51.9 10.4 51.4 18.0 48.95 26.05 49.1 L38.2 49.55 Q39.95 49.95 39.8 51.6 39.5 54.25 37.0 55.35 23.75 61.35 9.05 59.2 L8.8 58.3 7.95 59.0 6.5 58.6 7.25 57.6 6.55 57.25 4.95 58.75 5.2 58.3 4.0 58.05 Q3.75 55.7 6.3 54.05" fill="#a94c57" fill-rule="evenodd" stroke="none"/>
    <path d="M1.8 58.85 Q2.9 55.55 5.5 53.35 L5.5 53.95 6.3 54.05 Q3.75 55.7 4.0 58.05 L5.2 58.3 4.95 58.75 5.15 59.65 Q6.0 60.15 6.5 58.6 L7.95 59.0 Q7.15 60.0 7.8 60.15 L8.9 59.65 9.05 59.2 Q23.75 61.35 37.0 55.35 39.5 54.25 39.8 51.6 39.95 49.95 38.2 49.55 L26.05 49.1 Q18.0 48.95 10.4 51.4 L7.85 51.65 Q24.75 44.25 42.7 49.55 L41.65 50.85 42.3 51.4 41.45 54.35 41.8 54.95 Q37.1 59.5 30.85 60.7 16.4 63.65 2.45 59.6 L1.8 58.85 M7.4 53.1 L6.45 53.1 8.15 52.6 Q7.7 52.85 7.4 53.1" fill="#8b2634" fill-rule="evenodd" stroke="none"/>
    <path d="M34.95 52.2 L13.8 53.0 Q18.45 51.6 22.0 51.6 L34.95 52.2" fill="#e6b4b5" fill-rule="evenodd" stroke="none"/>
    <path d="M7.65 69.55 L9.4 69.7 6.05 75.05 7.65 69.55" fill="#866e7b" fill-rule="evenodd" stroke="none"/>
    <path d="M9.4 69.7 L10.4 70.35 10.2 70.85 Q9.25 74.3 6.05 75.05 L9.4 69.7" fill="#452a33" fill-rule="evenodd" stroke="none"/>
    <path d="M79.25 49.8 L75.45 51.0 Q61.3 55.0 47.1 52.45 62.85 45.75 79.25 49.8 M57.4 50.45 L49.9 52.05 76.55 50.05 Q66.95 48.4 57.4 50.45" fill="#cb7777" fill-rule="evenodd" stroke="none"/>
  </g>
</svg>
