<?xml version="1.0" encoding="UTF-8" standalone="no"?>
<svg xmlns:ffdec="https://www.free-decompiler.com/flash" xmlns:xlink="http://www.w3.org/1999/xlink" ffdec:objectType="shape" height="140.22px" width="115.2px" xmlns="http://www.w3.org/2000/svg">
  <g transform="matrix(1.2, 0.0, 0.0, 1.2, 0.0, 0.0)">
    <path d="M54.45 9.65 Q48.9 6.55 42.75 9.1 37.0 11.6 32.55 16.25 36.75 18.2 38.35 22.45 39.55 25.6 38.85 29.0 L38.6 31.1 38.6 31.25 37.1 32.8 37.4 31.3 Q38.95 25.3 35.5 20.5 L34.6 19.5 33.95 18.9 Q32.6 17.85 31.0 17.5 L27.25 17.6 27.2 16.0 31.05 15.9 Q34.75 11.95 39.45 9.4 46.15 5.9 53.35 7.55 L55.2 5.7 Q59.45 1.6 65.25 0.15 L65.05 1.8 Q58.65 3.15 54.15 8.1 L55.8 9.5 Q58.0 11.45 56.8 13.85 L56.75 13.95 Q56.2 11.3 54.45 9.65" fill="#956f64" fill-rule="evenodd" stroke="none"/>
    <path d="M57.4 17.25 L56.8 13.85 Q58.0 11.45 55.8 9.5 L54.15 8.1 Q58.65 3.15 65.05 1.8 68.2 0.9 70.95 2.15 73.7 3.4 73.8 6.2 73.4 8.95 71.6 11.05 L71.6 11.15 70.15 11.55 70.2 11.4 70.2 11.3 70.0 10.4 69.75 11.7 69.0 12.0 68.95 12.4 68.95 12.25 68.8 9.25 Q71.6 9.15 71.65 6.45 71.75 3.6 68.95 2.7 65.85 1.8 63.0 3.05 59.0 4.9 56.3 8.2 59.85 10.65 59.5 15.05 L59.5 15.4 59.65 15.2 59.85 14.9 59.0 18.1 57.6 20.5 57.45 20.35 57.5 19.3 57.5 19.05 57.55 18.85 57.5 18.1 57.4 17.25 M65.55 13.85 L64.85 11.2 64.45 11.35 Q64.75 13.65 63.5 15.45 L63.25 16.0 62.75 16.5 62.95 15.7 63.2 12.4 62.35 14.15 61.95 13.45 61.8 12.95 Q64.75 10.35 68.5 9.3 L68.0 12.4 67.5 12.6 67.2 10.7 66.65 13.0 65.55 13.85" fill="#b98f91" fill-rule="evenodd" stroke="none"/>
    <path d="M54.45 9.65 Q51.3 8.5 47.95 9.2 41.65 10.1 36.75 14.15 35.7 15.05 36.4 16.3 38.15 19.5 40.3 22.55 41.7 24.6 40.85 26.8 L38.85 29.0 Q39.55 25.6 38.35 22.45 36.75 18.2 32.55 16.25 37.0 11.6 42.75 9.1 48.9 6.55 54.45 9.65" fill="#cb7e86" fill-rule="evenodd" stroke="none"/>
    <path d="M40.85 26.8 Q41.7 24.6 40.3 22.55 38.15 19.5 36.4 16.3 35.7 15.05 36.75 14.15 41.65 10.1 47.95 9.2 51.3 8.5 54.45 9.65 56.2 11.3 56.75 13.95 L56.8 13.85 57.4 17.25 57.0 16.4 56.85 18.4 Q53.25 17.1 49.95 19.3 44.9 22.55 40.85 26.8 M57.55 18.85 L57.5 18.8 57.5 18.1 57.55 18.85 M53.6 14.95 Q54.5 14.8 55.5 14.95 53.5 9.55 47.8 10.65 42.7 11.65 38.8 15.25 L42.5 22.1 Q48.0 20.2 52.05 15.8 52.7 15.15 53.6 14.95" fill="#d1a8ac" fill-rule="evenodd" stroke="none"/>
    <path d="M56.85 18.4 L57.0 16.4 57.4 17.25 57.5 18.1 57.5 18.8 57.5 19.05 57.5 19.3 56.25 20.2 56.85 18.4 M27.2 16.0 L27.25 17.6 25.7 17.95 25.45 18.0 25.3 16.55 27.2 16.0 M65.05 1.8 L65.25 0.15 68.45 0.0 Q74.45 0.1 75.05 5.65 74.45 5.85 73.8 6.2 73.7 3.4 70.95 2.15 68.2 0.9 65.05 1.8 M63.5 15.45 Q64.75 13.65 64.45 11.35 L64.85 11.2 65.55 13.85 65.65 14.4 64.95 14.75 63.5 15.45 M66.65 13.0 L67.2 10.7 67.5 12.6 67.45 13.25 66.3 14.0 66.65 13.0 M68.0 12.4 L68.5 9.3 68.75 8.4 68.8 9.25 68.95 12.25 67.9 13.05 68.0 12.4 M61.95 13.45 L62.35 14.15 63.2 12.4 62.95 15.7 61.9 16.1 61.15 13.25 60.2 17.7 59.0 18.1 59.85 14.9 60.35 12.6 Q60.55 11.75 61.15 11.2 L61.95 13.45 M69.85 11.65 L69.75 11.7 70.0 10.4 70.2 11.3 69.85 11.65" fill="#745f5c" fill-rule="evenodd" stroke="none"/>
    <path d="M68.5 9.3 Q64.75 10.35 61.8 12.95 L61.95 13.45 61.15 11.2 Q60.55 11.75 60.35 12.6 L59.85 14.9 59.65 15.2 59.5 15.05 Q59.85 10.65 56.3 8.2 59.0 4.9 63.0 3.05 65.85 1.8 68.95 2.7 71.75 3.6 71.65 6.45 71.6 9.15 68.8 9.25 L68.75 8.4 68.5 9.3 M63.25 4.75 Q60.8 5.7 58.85 7.8 60.95 8.6 61.55 11.35 62.75 10.35 64.8 9.3 67.7 7.8 70.55 7.15 L70.65 6.0 Q70.65 4.25 68.85 3.35 65.95 3.65 63.25 4.75" fill="#e1aaaf" fill-rule="evenodd" stroke="none"/>
    <path d="M63.25 4.75 Q65.95 3.65 68.85 3.35 70.65 4.25 70.65 6.0 L70.55 7.15 Q67.7 7.8 64.8 9.3 62.75 10.35 61.55 11.35 60.95 8.6 58.85 7.8 60.8 5.7 63.25 4.75" fill="#e6b8ba" fill-rule="evenodd" stroke="none"/>
    <path d="M75.05 5.65 L74.95 6.25 Q74.6 9.2 72.15 11.3 L74.05 13.75 73.9 13.9 72.95 14.55 72.2 13.1 71.5 11.75 71.6 11.15 71.6 11.05 Q73.4 8.95 73.8 6.2 74.45 5.85 75.05 5.65 M22.85 17.5 L25.3 16.55 25.45 18.0 24.2 18.45 22.55 19.15 22.85 17.5 M63.5 15.45 L64.95 14.75 65.65 14.4 65.75 14.65 66.3 14.0 67.45 13.25 67.1 14.35 66.45 15.2 Q65.85 16.1 65.15 16.05 L65.0 15.25 64.95 14.75 64.75 15.1 64.7 15.15 63.0 16.95 63.25 16.0 63.5 15.45 M62.95 15.7 L62.75 16.5 62.25 17.5 61.9 16.1 62.95 15.7 M69.85 11.65 L70.2 11.4 70.15 11.55 69.7 12.9 69.25 12.75 69.75 11.7 69.85 11.65 M68.95 12.4 L67.85 14.3 67.9 13.05 68.95 12.25 68.95 12.4 M57.15 21.55 L54.95 25.35 55.9 26.85 55.1 27.45 54.2 26.5 Q54.0 24.1 55.3 22.0 L56.0 20.9 56.25 20.2 57.5 19.3 57.45 20.35 57.4 20.7 57.6 20.5 59.0 18.1 60.2 17.7 58.15 21.15 57.15 21.55" fill="#5c413a" fill-rule="evenodd" stroke="none"/>
    <path d="M74.05 13.75 L74.1 13.8 73.9 13.9 74.05 13.75 M76.5 18.8 L77.1 20.85 Q86.3 18.1 94.95 21.5 L95.65 22.2 Q96.65 24.5 94.95 25.7 92.0 27.85 88.4 27.1 L88.35 28.15 Q95.3 30.3 94.8 37.65 94.5 42.3 91.9 46.05 L92.3 50.4 92.05 53.1 91.9 53.6 91.6 53.75 90.6 53.1 88.65 50.6 Q86.4 52.85 83.05 54.35 L81.35 55.0 Q81.1 61.15 77.5 66.15 71.15 74.9 60.9 78.85 59.8 84.75 55.35 89.1 L49.1 95.1 Q44.7 99.1 39.9 102.35 40.75 108.8 39.7 115.0 39.35 117.2 37.1 116.75 35.15 111.0 34.95 104.35 L26.5 104.5 Q25.85 105.45 24.5 105.7 L21.7 105.25 Q19.85 104.4 19.75 102.55 L17.6 101.4 11.3 111.65 9.4 111.9 Q8.4 109.6 9.15 107.15 10.5 102.85 12.75 98.85 4.7 91.3 2.35 80.6 -0.55 67.6 0.1 55.9 0.75 44.2 2.2 38.85 3.65 33.5 6.4 30.65 L13.9 23.05 Q17.75 19.25 22.85 17.5 L22.55 19.15 17.0 22.2 Q13.5 24.25 10.3 29.85 L7.15 31.65 8.35 32.05 8.45 32.1 Q11.7 33.15 14.1 35.25 15.25 36.3 15.6 37.85 16.3 40.75 16.45 43.55 L16.3 47.15 16.2 47.8 Q15.85 54.3 13.0 59.9 L12.7 60.3 11.55 60.9 12.35 61.7 Q14.15 64.1 14.55 66.85 L14.85 68.0 15.5 71.4 15.25 81.25 14.9 84.1 16.45 84.1 Q22.8 71.0 35.85 63.85 L36.3 64.45 28.4 70.55 24.3 74.8 Q20.9 78.0 18.45 82.2 L17.45 84.05 21.3 84.15 24.45 84.35 27.1 84.7 28.5 84.95 32.7 85.75 34.05 86.1 Q34.6 86.4 34.6 86.9 35.45 87.8 35.55 89.0 L35.6 89.6 35.6 89.65 35.6 89.7 34.95 93.45 Q34.95 94.25 33.95 94.8 32.95 95.35 31.5 95.35 L25.6 95.4 24.05 95.35 24.05 96.7 23.85 98.55 24.05 101.9 25.05 103.0 31.3 103.7 30.85 103.6 Q34.85 103.4 36.25 99.9 36.5 99.3 36.4 98.6 36.05 96.15 36.4 94.7 L37.05 96.05 37.4 100.45 36.7 102.4 Q47.95 96.35 56.1 86.6 60.65 81.15 59.5 74.15 L59.5 73.2 Q60.15 73.2 60.65 73.7 61.1 74.15 61.1 74.8 L61.05 77.95 Q69.95 73.4 76.05 65.35 79.75 60.5 79.95 54.6 L79.45 54.5 79.9 54.4 79.7 53.45 80.1 52.5 81.15 53.95 Q88.6 51.55 91.75 44.05 92.8 41.5 93.35 38.65 94.15 34.75 91.75 31.8 L90.45 30.7 88.85 29.95 Q82.9 28.1 76.55 28.3 L75.6 28.3 75.9 26.25 75.95 23.1 Q75.95 21.3 75.35 19.7 L76.5 18.8 M70.2 11.4 L69.85 11.65 70.2 11.3 70.2 11.4 M88.35 23.3 L89.55 23.2 93.8 22.4 Q89.45 20.9 84.35 20.85 L83.25 20.9 79.8 21.15 77.7 21.75 79.15 22.95 88.35 23.3 M77.35 23.15 L77.3 23.85 Q77.55 24.4 78.8 24.75 L90.4 25.7 Q95.6 25.7 94.8 23.0 93.55 24.55 86.6 24.55 79.5 24.55 77.35 23.15 M82.6 27.7 L82.75 26.8 77.15 25.4 76.85 27.25 82.6 27.7 M85.8 47.6 Q85.7 50.1 83.6 51.15 L82.7 51.55 85.6 47.75 85.65 47.6 Q86.0 46.95 85.8 47.6 M73.85 28.55 L66.9 33.65 Q62.55 37.85 58.85 42.55 L59.45 41.4 Q63.7 32.75 72.3 29.0 L73.85 28.55 M74.05 45.25 L75.25 47.8 74.45 47.4 Q73.1 45.65 71.05 45.35 65.7 44.1 60.05 44.35 L58.55 43.8 58.15 43.5 57.35 43.5 57.45 41.7 57.7 37.3 57.25 32.3 57.35 33.2 58.55 32.4 58.8 37.35 58.65 42.55 Q61.5 44.55 65.0 43.65 L68.35 43.4 Q71.5 43.6 74.05 45.25 M69.95 60.35 L73.35 57.05 71.8 59.25 66.35 65.35 65.4 65.6 63.15 69.7 62.9 69.0 62.05 67.65 62.0 68.2 Q62.25 70.5 61.05 71.75 L61.05 68.3 61.8 65.85 63.35 68.0 65.35 63.3 65.9 64.5 67.3 62.7 Q68.5 61.45 69.95 60.35 M38.65 47.95 L39.3 54.5 38.45 62.35 38.3 62.8 39.0 62.65 42.4 62.3 42.45 62.3 42.7 62.3 47.05 63.15 48.8 65.0 48.3 65.2 Q46.2 63.35 43.45 63.4 L38.15 63.55 38.05 63.5 37.9 63.85 37.3 62.75 38.0 55.65 38.0 55.6 37.55 48.6 Q38.05 48.3 38.65 47.95 M91.1 52.55 L91.55 50.55 91.3 47.25 89.5 49.7 Q89.9 51.55 91.1 52.55 M25.05 43.85 L25.5 46.4 25.35 47.55 25.7 46.55 26.8 44.05 27.2 44.5 27.1 45.3 25.85 48.2 24.8 49.95 24.35 49.05 24.55 47.35 23.9 49.6 21.25 54.15 20.85 53.2 21.75 50.5 22.3 46.0 20.9 50.95 18.35 56.65 17.45 57.9 16.4 58.7 15.5 58.7 15.95 58.25 Q18.5 55.55 19.1 51.9 L19.25 51.5 19.85 49.7 20.8 46.85 21.55 43.4 21.95 40.0 22.5 39.85 22.95 40.25 23.35 41.9 23.35 42.0 23.4 42.55 23.55 45.2 23.55 46.75 24.0 44.7 24.2 44.05 Q24.4 43.75 24.7 43.75 L25.05 43.85 M28.8 43.85 L29.35 42.5 29.7 43.1 28.65 46.3 Q27.9 47.5 27.9 47.1 L27.95 46.8 28.8 43.85 M40.75 60.7 L40.05 61.9 Q39.8 59.2 41.9 56.95 L46.1 51.9 Q49.95 46.55 55.8 43.25 L55.95 44.0 53.4 46.0 Q45.5 51.95 40.75 60.7 M52.65 67.15 L53.1 67.4 53.25 67.95 52.15 68.1 49.6 65.4 50.8 65.1 52.65 67.15 M49.2 82.9 L50.0 81.8 Q49.95 81.0 50.5 80.95 L50.85 81.3 51.5 80.15 52.0 79.6 Q52.5 79.6 52.85 80.25 L53.15 81.8 51.5 82.95 50.65 83.15 51.05 82.85 51.75 82.15 52.5 80.55 52.45 80.5 Q51.6 80.5 51.3 82.05 L50.2 82.8 49.2 82.9 M48.1 83.8 L48.35 84.05 48.45 85.85 Q46.35 86.5 47.2 83.85 L48.1 83.8 M41.05 94.45 Q40.95 95.65 40.1 96.3 L39.55 96.65 38.95 96.35 39.8 95.7 40.05 94.8 Q40.5 92.25 40.05 89.9 L40.05 87.55 40.5 87.3 41.25 88.7 42.8 90.85 43.15 86.8 43.5 86.45 44.25 88.1 45.15 86.45 45.8 88.2 46.9 86.95 47.05 87.8 Q47.1 88.45 46.55 89.0 L45.6 89.2 Q45.0 88.5 43.85 88.9 44.0 90.3 43.65 91.5 43.25 93.05 42.25 92.55 L42.1 92.05 Q41.75 90.1 41.1 90.45 L41.05 94.45 M33.35 89.75 L33.6 88.15 32.25 87.2 28.4 86.2 18.8 85.25 Q16.55 85.15 14.45 85.95 12.25 86.75 13.3 88.45 L14.3 88.95 18.4 89.7 31.45 90.15 33.35 89.75 M19.65 93.5 L27.05 94.1 Q30.4 94.65 31.35 91.75 L23.85 91.4 13.2 90.15 13.4 91.25 19.65 93.5 M19.6 96.5 Q19.55 95.45 19.65 94.9 L15.85 94.05 Q14.05 94.05 12.8 92.3 11.55 90.55 11.55 88.1 L11.95 86.1 13.6 84.35 Q14.6 77.25 14.05 70.25 13.55 64.3 9.15 60.6 L9.65 59.7 Q11.6 60.1 12.45 58.2 16.65 48.55 13.95 38.2 13.75 37.45 13.2 36.85 10.35 33.5 6.05 32.85 L4.05 37.3 3.7 38.4 1.75 57.8 1.75 57.85 Q1.85 70.15 3.95 82.2 4.5 85.5 6.15 88.45 10.85 97.05 19.7 100.65 L19.7 99.75 19.6 96.5 M20.4 96.2 L20.4 97.3 20.5 101.1 Q20.8 104.6 24.2 104.45 L25.05 104.05 Q23.55 103.35 22.85 101.85 L22.7 97.5 22.85 96.4 23.05 95.25 20.35 95.0 20.4 96.2 M38.95 105.0 L38.85 102.85 35.9 104.05 Q36.15 110.05 37.7 115.75 L38.7 114.7 39.2 113.2 38.95 105.0 M9.95 110.05 L9.95 110.55 16.85 101.0 13.8 99.5 13.05 100.95 12.3 102.35 Q10.0 107.3 9.95 110.05" fill="#000000" fill-rule="evenodd" stroke="none"/>
    <path d="M65.65 14.4 L65.55 13.85 66.65 13.0 66.3 14.0 65.75 14.65 65.65 14.4 M67.5 12.6 L68.0 12.4 67.9 13.05 67.85 14.3 68.95 12.4 69.0 12.0 69.75 11.7 69.25 12.75 69.7 12.9 70.15 11.55 71.6 11.15 71.5 11.75 72.2 13.1 71.95 12.65 Q74.85 17.95 74.2 24.0 L72.45 23.75 73.4 22.25 Q74.05 18.35 71.65 15.3 L71.1 14.7 66.8 14.85 67.1 14.35 67.45 13.25 67.5 12.6 M64.75 15.1 L64.95 14.75 65.0 15.25 64.8 15.15 64.75 15.1" fill="#a6696e" fill-rule="evenodd" stroke="none"/>
    <path d="M88.35 23.3 L88.5 23.25 Q83.75 23.3 79.8 21.15 L83.25 20.9 Q85.45 21.15 87.35 22.1 L89.55 23.2 88.35 23.3" fill="#bba8a4" fill-rule="evenodd" stroke="none"/>
    <path d="M79.8 21.15 Q83.75 23.3 88.5 23.25 L88.35 23.3 79.15 22.95 77.7 21.75 79.8 21.15" fill="#6d6c71" fill-rule="evenodd" stroke="none"/>
    <path d="M89.55 23.2 L87.35 22.1 Q85.45 21.15 83.25 20.9 L84.35 20.85 Q89.45 20.9 93.8 22.4 L89.55 23.2" fill="#dec6c4" fill-rule="evenodd" stroke="none"/>
    <path d="M77.35 23.15 Q79.5 24.55 86.6 24.55 93.55 24.55 94.8 23.0 95.6 25.7 90.4 25.7 L78.8 24.75 Q77.55 24.4 77.3 23.85 L77.35 23.15" fill="#3f3438" fill-rule="evenodd" stroke="none"/>
    <path d="M81.3 32.0 L76.75 34.8 73.5 38.15 Q76.1 39.9 79.0 39.2 83.5 37.9 84.55 33.2 L84.15 32.15 81.3 32.0 M86.1 31.35 Q86.8 34.65 84.65 37.5 82.65 40.1 79.7 40.35 L67.9 39.6 Q68.95 37.0 71.2 35.65 74.55 33.65 78.05 31.95 81.95 30.15 86.1 31.35" fill="#c27a7e" fill-rule="evenodd" stroke="none"/>
    <path d="M81.3 32.0 L84.15 32.15 84.55 33.2 Q83.5 37.9 79.0 39.2 76.1 39.9 73.5 38.15 L76.75 34.8 81.3 32.0 M82.75 33.3 L81.9 33.3 76.45 37.25 Q81.25 37.7 82.75 33.3" fill="#d48d8b" fill-rule="evenodd" stroke="none"/>
    <path d="M82.75 33.3 Q81.25 37.7 76.45 37.25 L81.9 33.3 82.75 33.3" fill="#d89e9c" fill-rule="evenodd" stroke="none"/>
    <path d="M86.1 31.35 Q81.95 30.15 78.05 31.95 74.55 33.65 71.2 35.65 68.95 37.0 67.9 39.6 L79.7 40.35 Q82.65 40.1 84.65 37.5 86.8 34.65 86.1 31.35 M69.1 34.3 Q73.1 33.65 76.0 30.6 L76.9 29.8 87.7 30.7 Q88.5 31.5 88.45 32.9 L88.35 34.9 Q85.15 41.2 78.2 43.7 L77.8 43.85 Q70.85 39.75 63.0 42.05 63.7 38.25 66.85 35.7 67.9 34.85 69.1 34.3" fill="#bb625e" fill-rule="evenodd" stroke="none"/>
    <path d="M90.45 30.7 L91.75 31.8 91.65 34.4 Q91.15 42.1 85.8 47.6 86.0 46.95 85.65 47.6 L85.6 47.75 Q82.25 49.15 79.9 52.0 L80.1 52.5 79.7 53.45 79.65 53.4 Q76.65 57.35 71.8 59.25 L73.35 57.05 69.95 60.35 Q72.8 57.3 74.8 54.0 76.9 50.55 74.45 47.4 L75.25 47.8 74.05 45.25 76.65 47.9 Q83.85 47.75 88.15 42.1 92.1 36.95 90.45 30.7 M61.1 74.8 Q61.1 74.15 60.65 73.7 60.15 73.2 59.5 73.2 57.75 68.65 53.0 67.2 L52.65 67.15 50.8 65.1 49.6 65.4 48.8 65.0 47.05 63.15 42.7 62.3 40.75 60.7 Q45.5 51.95 53.4 46.0 L55.95 44.0 57.35 43.5 58.15 43.5 58.55 43.8 Q55.7 44.55 54.7 47.25 L53.35 49.15 46.1 55.7 Q43.05 58.4 45.7 61.2 50.45 63.45 55.85 64.8 59.2 65.55 61.05 68.3 L61.05 71.75 Q62.25 70.5 62.0 68.2 L62.05 67.65 62.9 69.0 61.1 74.8" fill="#770914" fill-rule="evenodd" stroke="none"/>
    <path d="M88.35 34.9 L88.45 32.9 Q88.5 31.5 87.7 30.7 L76.9 29.8 76.0 30.6 Q73.1 33.65 69.1 34.3 L66.9 33.65 73.85 28.55 74.1 28.45 75.6 28.3 76.55 28.3 Q82.9 28.1 88.85 29.95 L89.3 31.2 89.1 30.55 88.35 34.9" fill="#a83343" fill-rule="evenodd" stroke="none"/>
    <path d="M88.35 34.9 L89.1 30.55 89.3 31.2 Q90.0 36.7 85.6 40.1 80.9 43.7 76.65 47.9 L74.05 45.25 Q71.5 43.6 68.35 43.4 L65.0 43.65 Q61.5 44.55 58.65 42.55 L59.45 41.4 58.85 42.55 Q62.55 37.85 66.9 33.65 L69.1 34.3 Q67.9 34.85 66.85 35.7 63.7 38.25 63.0 42.05 70.85 39.75 77.8 43.85 L78.2 43.7 Q85.15 41.2 88.35 34.9" fill="#94353d" fill-rule="evenodd" stroke="none"/>
    <path d="M91.75 31.8 Q94.15 34.75 93.35 38.65 92.8 41.5 91.75 44.05 88.6 51.55 81.15 53.95 L80.1 52.5 79.9 52.0 Q82.25 49.15 85.6 47.75 L82.7 51.55 83.6 51.15 Q85.7 50.1 85.8 47.6 91.15 42.1 91.65 34.4 L91.75 31.8" fill="#4d070f" fill-rule="evenodd" stroke="none"/>
    <path d="M89.3 31.2 L88.85 29.95 90.45 30.7 Q92.1 36.95 88.15 42.1 83.85 47.75 76.65 47.9 80.9 43.7 85.6 40.1 90.0 36.7 89.3 31.2" fill="#971927" fill-rule="evenodd" stroke="none"/>
    <path d="M72.2 13.1 L72.95 14.55 75.35 19.7 Q75.95 21.3 75.95 23.1 L75.9 26.25 Q68.3 26.25 63.75 32.65 L59.55 38.3 58.8 37.35 58.55 32.4 58.6 31.65 Q58.55 28.55 55.9 26.85 L54.95 25.35 57.15 21.55 Q58.35 22.1 58.3 23.3 57.95 29.15 59.65 34.7 63.35 27.9 70.05 24.5 71.15 23.9 72.45 23.75 L74.2 24.0 Q74.85 17.95 71.95 12.65 L72.2 13.1" fill="#b43a45" fill-rule="evenodd" stroke="none"/>
    <path d="M74.1 13.8 L76.5 18.8 75.35 19.7 72.95 14.55 73.9 13.9 74.1 13.8 M55.9 26.85 Q58.55 28.55 58.6 31.65 L58.55 32.4 57.35 33.2 57.25 32.3 Q57.25 30.05 55.85 28.3 L55.25 27.55 55.2 27.5 55.1 27.45 55.9 26.85 M36.85 41.35 L35.85 44.2 36.1 44.35 Q38.1 45.55 38.65 47.95 38.05 48.3 37.55 48.6 36.95 46.05 34.4 44.85 L34.75 44.35 34.45 44.1 34.8 42.75 35.0 42.15 36.85 41.35" fill="#3f1215" fill-rule="evenodd" stroke="none"/>
    <path d="M67.1 14.35 L66.8 14.85 71.1 14.7 71.65 15.3 Q74.05 18.35 73.4 22.25 68.4 20.4 64.95 24.8 L60.75 30.6 Q58.25 21.85 65.15 16.05 65.85 16.1 66.45 15.2 L67.1 14.35 M72.7 20.25 L72.55 19.5 Q71.8 16.85 68.9 16.8 62.65 17.55 61.2 23.6 60.8 25.3 61.4 25.25 65.45 18.5 72.7 20.25" fill="#c3686d" fill-rule="evenodd" stroke="none"/>
    <path d="M72.7 20.25 Q65.45 18.5 61.4 25.25 60.8 25.3 61.2 23.6 62.65 17.55 68.9 16.8 71.8 16.85 72.55 19.5 L72.7 20.25" fill="#ce6e6f" fill-rule="evenodd" stroke="none"/>
    <path d="M62.75 16.5 L63.25 16.0 63.0 16.95 64.7 15.15 64.8 15.15 65.0 15.25 65.15 16.05 Q58.25 21.85 60.75 30.6 L64.95 24.8 Q68.4 20.4 73.4 22.25 L72.45 23.75 Q71.15 23.9 70.05 24.5 63.35 27.9 59.65 34.7 57.95 29.15 58.3 23.3 58.35 22.1 57.15 21.55 L58.15 21.15 60.2 17.7 61.15 13.25 61.9 16.1 62.25 17.5 62.75 16.5" fill="#b05e62" fill-rule="evenodd" stroke="none"/>
    <path d="M64.7 15.15 L64.75 15.1 64.8 15.15 64.7 15.15 M59.65 15.2 L59.5 15.4 59.5 15.05 59.65 15.2" fill="#ff0000" fill-opacity="0.0" fill-rule="evenodd" stroke="none"/>
    <path d="M38.85 29.0 L40.85 26.8 Q44.9 22.55 49.95 19.3 53.25 17.1 56.85 18.4 L56.25 20.2 56.0 20.9 55.55 20.65 Q50.65 19.85 47.25 23.75 L47.15 23.85 44.75 25.8 44.3 24.65 43.65 26.65 41.95 28.05 41.1 27.9 41.0 28.85 38.6 31.1 38.85 29.0 M57.55 18.85 L57.5 19.05 57.5 18.8 57.55 18.85" fill="#bf848a" fill-rule="evenodd" stroke="none"/>
    <path d="M75.6 28.3 L74.1 28.45 73.85 28.55 72.3 29.0 Q63.7 32.75 59.45 41.4 L58.65 42.55 58.8 37.35 59.55 38.3 63.75 32.65 Q68.3 26.25 75.9 26.25 L75.6 28.3" fill="#6c2428" fill-rule="evenodd" stroke="none"/>
    <path d="M68.45 58.7 Q61.25 63.25 53.5 60.45 56.85 59.1 59.55 56.9 L63.5 53.85 Q67.0 51.1 66.0 46.8 67.95 46.15 69.75 46.8 70.9 47.25 71.8 48.1 L72.25 49.85 Q72.9 52.25 71.9 54.5 L71.3 55.7 Q70.2 57.55 68.45 58.7 M69.75 47.9 L69.05 47.8 Q69.1 51.5 66.65 54.3 63.9 57.3 60.15 59.35 L63.0 58.85 Q66.35 57.6 68.95 55.25 72.6 51.95 69.75 47.9" fill="#ca787c" fill-rule="evenodd" stroke="none"/>
    <path d="M69.75 47.9 Q72.6 51.95 68.95 55.25 66.35 57.6 63.0 58.85 L60.15 59.35 Q63.9 57.3 66.65 54.3 69.1 51.5 69.05 47.8 L69.75 47.9" fill="#d3989c" fill-rule="evenodd" stroke="none"/>
    <path d="M68.45 58.7 Q65.15 61.6 63.1 65.45 L48.9 61.05 Q51.65 57.9 55.25 55.65 61.05 52.1 62.35 45.45 L70.85 45.85 71.9 46.9 Q75.05 50.6 71.9 54.5 72.9 52.25 72.25 49.85 L71.8 48.1 Q70.9 47.25 69.75 46.8 67.95 46.15 66.0 46.8 67.0 51.1 63.5 53.85 L59.55 56.9 Q56.85 59.1 53.5 60.45 61.25 63.25 68.45 58.7" fill="#b8605e" fill-rule="evenodd" stroke="none"/>
    <path d="M74.45 47.4 Q76.9 50.55 74.8 54.0 72.8 57.3 69.95 60.35 68.5 61.45 67.3 62.7 L65.9 64.5 65.35 63.3 63.35 68.0 61.8 65.85 61.05 68.3 Q59.2 65.55 55.85 64.8 50.45 63.45 45.7 61.2 L45.75 60.0 54.1 53.65 Q58.6 49.9 60.05 44.35 65.7 44.1 71.05 45.35 73.1 45.65 74.45 47.4 M71.9 54.5 Q75.05 50.6 71.9 46.9 L70.85 45.85 62.35 45.45 Q61.05 52.1 55.25 55.65 51.65 57.9 48.9 61.05 L63.1 65.45 Q65.15 61.6 68.45 58.7 70.2 57.55 71.3 55.7 L71.9 54.5" fill="#ab3f3d" fill-rule="evenodd" stroke="none"/>
    <path d="M57.7 37.3 L57.45 41.7 Q55.25 41.4 52.95 42.35 46.7 44.8 43.3 50.9 41.9 53.4 39.3 54.5 L38.65 47.95 Q38.1 45.55 36.1 44.35 L35.85 44.2 36.85 41.35 38.0 36.8 Q39.05 36.4 39.7 35.4 40.9 33.65 41.7 31.45 L41.85 33.2 42.25 33.55 43.6 30.45 45.1 29.3 44.2 31.5 Q41.25 34.45 40.0 38.5 L39.0 42.4 Q38.1 47.2 41.5 49.9 46.55 41.55 55.8 39.3 57.45 38.95 57.7 37.3" fill="#7c0d13" fill-rule="evenodd" stroke="none"/>
    <path d="M58.55 43.8 L60.05 44.35 Q58.6 49.9 54.1 53.65 L45.75 60.0 45.7 61.2 Q43.05 58.4 46.1 55.7 L53.35 49.15 54.7 47.25 Q55.7 44.55 58.55 43.8" fill="#ad1a2a" fill-rule="evenodd" stroke="none"/>
    <path d="M39.3 54.5 Q41.9 53.4 43.3 50.9 46.7 44.8 52.95 42.35 55.25 41.4 57.45 41.7 L57.35 43.5 55.95 44.0 55.8 43.25 Q49.95 46.55 46.1 51.9 L41.9 56.95 Q39.8 59.2 40.05 61.9 L40.75 60.7 42.7 62.3 42.45 62.3 42.4 62.25 42.4 62.3 39.0 62.65 38.45 62.35 39.3 54.5" fill="#58020b" fill-rule="evenodd" stroke="none"/>
    <path d="M73.3 60.35 L73.9 60.55 Q71.4 68.35 64.55 72.4 L64.2 72.45 Q64.15 68.75 66.9 66.25 L73.3 60.35 M72.05 62.3 L68.45 65.95 65.7 70.3 Q70.25 67.1 72.05 62.3" fill="#6f0009" fill-rule="evenodd" stroke="none"/>
    <path d="M79.7 53.45 L79.9 54.4 79.45 54.5 79.95 54.6 Q79.75 60.5 76.05 65.35 69.95 73.4 61.05 77.95 L61.1 74.8 62.9 69.0 63.15 69.7 65.4 65.6 66.35 65.35 71.8 59.25 Q76.65 57.35 79.65 53.4 L79.7 53.45 M73.3 60.35 L66.9 66.25 Q64.15 68.75 64.2 72.45 L64.55 72.4 Q71.4 68.35 73.9 60.55 L73.3 60.35" fill="#4e0317" fill-rule="evenodd" stroke="none"/>
    <path d="M91.1 52.55 Q89.9 51.55 89.5 49.7 L91.3 47.25 91.55 50.55 91.1 52.55" fill="#593f32" fill-rule="evenodd" stroke="none"/>
    <path d="M57.7 37.3 Q57.45 38.95 55.8 39.3 46.55 41.55 41.5 49.9 38.1 47.2 39.0 42.4 L40.0 38.5 Q41.25 34.45 44.2 31.5 L43.6 36.1 43.5 36.3 Q41.3 39.95 40.9 44.25 40.7 46.6 41.95 47.9 44.45 45.4 46.25 42.3 48.1 39.05 51.85 38.55 55.9 37.75 55.85 33.45 L56.15 31.1 56.15 30.25 Q56.15 28.7 55.25 27.55 L55.85 28.3 Q57.25 30.05 57.25 32.3 L57.7 37.3" fill="#971e23" fill-rule="evenodd" stroke="none"/>
    <path d="M53.6 14.95 Q52.7 15.15 52.05 15.8 48.0 20.2 42.5 22.1 L38.8 15.25 Q42.7 11.65 47.8 10.65 53.5 9.55 55.5 14.95 54.5 14.8 53.6 14.95 M50.05 14.75 Q51.7 13.95 53.6 13.7 50.2 11.0 45.6 12.5 42.95 13.4 41.0 15.1 L42.5 19.85 Q45.95 16.85 50.05 14.75" fill="#dfb2ad" fill-rule="evenodd" stroke="none"/>
    <path d="M37.1 32.8 L38.6 31.25 37.95 36.4 Q40.45 33.75 40.8 30.3 L41.0 28.85 41.1 27.9 41.95 28.05 42.6 30.8 43.65 26.65 44.3 24.65 44.75 25.8 43.6 30.45 42.25 33.55 41.85 33.2 41.7 31.45 Q40.9 33.65 39.7 35.4 39.05 36.4 38.0 36.8 L36.85 41.35 35.0 42.15 34.8 42.75 36.8 34.5 36.9 34.05 37.1 32.8 M47.15 23.85 L47.25 23.75 49.25 25.3 51.0 23.3 51.15 24.45 49.35 26.25 47.95 25.2 45.85 28.7 45.4 29.0 45.6 25.35 46.05 26.7 46.05 26.75 46.1 26.7 Q47.2 24.75 47.15 23.85" fill="#653938" fill-rule="evenodd" stroke="none"/>
    <path d="M38.6 31.25 L38.6 31.1 41.0 28.85 40.8 30.3 Q40.45 33.75 37.95 36.4 L38.6 31.25 M45.1 29.3 L43.6 30.45 44.75 25.8 47.15 23.85 Q47.2 24.75 46.1 26.7 L46.05 26.7 45.6 25.35 45.4 29.0 45.1 29.3 M45.85 28.7 L47.95 25.2 49.35 26.25 51.15 24.45 51.0 23.3 49.25 25.3 47.25 23.75 Q50.65 19.85 55.55 20.65 L56.0 20.9 55.3 22.0 Q54.0 24.1 54.2 26.5 50.7 25.6 47.5 27.65 46.65 28.15 45.85 28.7 M43.65 26.65 L42.6 30.8 41.95 28.05 43.65 26.65" fill="#a3464e" fill-rule="evenodd" stroke="none"/>
    <path d="M50.05 14.75 Q45.95 16.85 42.5 19.85 L41.0 15.1 Q42.95 13.4 45.6 12.5 50.2 11.0 53.6 13.7 51.7 13.95 50.05 14.75" fill="#edbdbb" fill-rule="evenodd" stroke="none"/>
    <path d="M44.2 31.5 L45.1 29.3 45.4 29.0 45.85 28.7 Q46.65 28.15 47.5 27.65 50.7 25.6 54.2 26.5 L55.1 27.45 55.2 27.5 55.25 27.55 Q56.15 28.7 56.15 30.25 L56.15 31.1 Q55.8 28.3 52.7 28.55 51.5 28.5 50.5 28.9 45.85 31.0 43.6 36.1 L44.2 31.5" fill="#b34149" fill-rule="evenodd" stroke="none"/>
    <path d="M37.4 31.3 L37.1 32.8 36.9 34.05 Q35.9 34.5 34.9 35.0 28.6 38.5 25.05 43.85 L24.7 43.75 24.85 39.95 Q28.7 33.45 35.8 31.55 L37.4 31.3 M23.4 41.85 L23.5 41.75 23.4 42.55 23.35 42.0 23.4 41.85" fill="#b75459" fill-rule="evenodd" stroke="none"/>
    <path d="M16.2 47.8 L16.3 47.15 20.8 46.85 19.85 49.7 18.0 50.25 16.25 48.95 16.2 47.8 M36.9 34.05 L36.8 34.5 35.65 36.8 Q33.3 40.6 29.7 43.1 L29.35 42.5 28.8 43.85 27.1 45.3 27.2 44.5 26.8 44.05 25.7 46.55 25.8 46.2 25.5 46.4 25.05 43.85 Q28.6 38.5 34.9 35.0 35.9 34.5 36.9 34.05 M23.55 45.2 L24.0 44.7 23.55 46.75 23.55 45.2" fill="#7c1321" fill-rule="evenodd" stroke="none"/>
    <path d="M43.5 36.3 L43.6 36.1 Q45.85 31.0 50.5 28.9 51.5 28.5 52.7 28.55 55.8 28.3 56.15 31.1 L55.85 33.45 Q53.4 36.9 49.2 38.1 48.1 38.35 47.15 39.15 45.4 40.5 44.35 38.5 L43.5 36.3 M54.5 31.0 Q52.15 28.45 49.2 30.45 45.15 33.15 45.1 38.0 L55.4 32.3 Q55.05 31.5 54.5 31.0" fill="#a6514a" fill-rule="evenodd" stroke="none"/>
    <path d="M47.25 33.35 L46.5 36.4 Q48.35 34.2 50.95 33.4 53.5 32.65 53.8 30.8 L53.55 30.65 Q49.5 30.35 47.25 33.35 M54.5 31.0 Q55.05 31.5 55.4 32.3 L45.1 38.0 Q45.15 33.15 49.2 30.45 52.15 28.45 54.5 31.0" fill="#b75556" fill-rule="evenodd" stroke="none"/>
    <path d="M47.25 33.35 Q49.5 30.35 53.55 30.65 L53.8 30.8 Q53.5 32.65 50.95 33.4 48.35 34.2 46.5 36.4 L47.25 33.35" fill="#b9615d" fill-rule="evenodd" stroke="none"/>
    <path d="M27.25 17.6 L31.0 17.5 25.75 19.8 25.7 17.95 27.25 17.6" fill="#a54f5c" fill-rule="evenodd" stroke="none"/>
    <path d="M28.85 22.2 Q32.45 22.15 33.3 25.3 33.5 25.95 32.8 26.4 29.5 28.2 25.6 27.25 L25.55 25.25 27.6 22.9 28.85 22.2 M29.0 26.25 Q31.8 26.25 32.45 24.9 L32.5 24.6 Q32.5 23.8 28.1 23.8 L26.65 25.6 Q27.1 26.25 29.0 26.25" fill="#cc9592" fill-rule="evenodd" stroke="none"/>
    <path d="M31.0 17.5 Q32.6 17.85 33.95 18.9 L34.6 19.5 28.85 22.2 27.6 22.9 25.4 24.1 25.75 19.8 31.0 17.5" fill="#a85d62" fill-rule="evenodd" stroke="none"/>
    <path d="M34.6 19.5 L35.5 20.5 Q38.95 25.3 37.4 31.3 L35.8 31.55 Q28.7 33.45 24.85 39.95 L25.6 27.25 Q29.5 28.2 32.8 26.4 33.5 25.95 33.3 25.3 32.45 22.15 28.85 22.2 L34.6 19.5 M27.6 22.9 L25.55 25.25 25.4 24.1 27.6 22.9" fill="#c27d80" fill-rule="evenodd" stroke="none"/>
    <path d="M24.2 18.45 L25.45 18.0 25.7 17.95 25.75 19.8 24.1 20.8 24.2 18.45" fill="#883040" fill-rule="evenodd" stroke="none"/>
    <path d="M8.35 32.05 L7.15 31.65 10.3 29.85 Q13.5 24.25 17.0 22.2 L22.55 19.15 24.2 18.45 24.1 20.8 Q18.1 23.3 14.6 28.95 L14.2 29.4 14.0 31.05 Q11.05 30.75 8.35 32.05" fill="#880719" fill-rule="evenodd" stroke="none"/>
    <path d="M25.75 19.8 L25.4 24.1 23.8 25.1 24.1 20.8 25.75 19.8" fill="#a94047" fill-rule="evenodd" stroke="none"/>
    <path d="M25.6 27.25 L24.85 39.95 23.5 41.75 23.4 41.85 23.35 41.9 22.95 40.25 23.8 25.1 25.4 24.1 25.55 25.25 25.6 27.25" fill="#b86a6a" fill-rule="evenodd" stroke="none"/>
    <path d="M16.45 43.55 Q16.3 40.75 15.6 37.85 15.25 36.3 14.1 35.25 11.7 33.15 8.45 32.1 11.4 31.95 14.25 33.0 L14.55 33.1 18.3 32.9 Q20.95 31.85 20.45 28.85 L20.5 28.3 23.8 25.1 22.95 40.25 22.5 39.85 21.95 40.0 21.55 43.4 16.45 43.55" fill="#a4474f" fill-rule="evenodd" stroke="none"/>
    <path d="M8.45 32.1 L8.35 32.05 Q11.05 30.75 14.0 31.05 L14.2 29.4 14.6 28.95 Q18.1 23.3 24.1 20.8 L23.8 25.1 20.5 28.3 20.45 28.85 17.3 28.7 Q14.4 30.1 14.55 33.1 L14.25 33.0 Q11.4 31.95 8.45 32.1" fill="#9a292d" fill-rule="evenodd" stroke="none"/>
    <path d="M14.55 33.1 Q14.4 30.1 17.3 28.7 L20.45 28.85 Q20.95 31.85 18.3 32.9 L14.55 33.1 M18.1 31.55 Q19.35 31.2 19.75 29.9 L16.55 30.05 15.65 32.1 18.1 31.55" fill="#af4e55" fill-rule="evenodd" stroke="none"/>
    <path d="M18.1 31.55 L15.65 32.1 16.55 30.05 19.75 29.9 Q19.35 31.2 18.1 31.55" fill="#c1585d" fill-rule="evenodd" stroke="none"/>
    <path d="M29.0 26.25 Q27.1 26.25 26.65 25.6 L28.1 23.8 Q32.5 23.8 32.5 24.6 L32.45 24.9 Q31.8 26.25 29.0 26.25" fill="#d69fa2" fill-rule="evenodd" stroke="none"/>
    <path d="M12.7 60.3 L13.0 59.9 Q15.85 54.3 16.2 47.8 L16.25 48.95 17.4 51.85 19.25 51.5 19.1 51.9 Q18.5 55.55 15.95 58.25 L12.7 60.3 M28.65 46.3 L30.3 44.8 30.25 45.3 Q25.85 52.25 18.35 56.65 L20.9 50.95 21.75 50.5 20.85 53.2 21.25 54.15 23.9 49.6 24.35 49.05 24.8 49.95 25.85 48.2 27.95 46.8 27.9 47.1 Q27.9 47.5 28.65 46.3" fill="#40000e" fill-rule="evenodd" stroke="none"/>
    <path d="M12.35 61.7 L11.55 60.9 12.7 60.3 15.95 58.25 15.5 58.7 16.4 58.7 12.35 61.7 M25.5 46.4 L25.8 46.2 25.7 46.55 25.35 47.55 25.5 46.4 M27.1 45.3 L28.8 43.85 27.95 46.8 25.85 48.2 27.1 45.3 M29.7 43.1 Q33.3 40.6 35.65 36.8 L36.8 34.5 34.8 42.75 34.45 44.1 33.35 44.2 Q26.05 51.8 17.45 57.9 L18.35 56.65 Q25.85 52.25 30.25 45.3 L30.3 44.8 28.65 46.3 29.7 43.1 M24.35 49.05 L23.9 49.6 24.55 47.35 24.35 49.05 M21.75 50.5 L20.9 50.95 22.3 46.0 21.75 50.5 M19.85 49.7 L19.25 51.5 17.4 51.85 16.25 48.95 18.0 50.25 19.85 49.7" fill="#66070d" fill-rule="evenodd" stroke="none"/>
    <path d="M14.85 68.0 L14.55 66.85 Q14.15 64.1 12.35 61.7 L16.4 58.7 17.45 57.9 Q26.05 51.8 33.35 44.2 L34.45 44.1 34.75 44.35 34.4 44.85 Q36.95 46.05 37.55 48.6 L38.0 55.6 37.35 57.5 37.45 57.05 Q34.75 54.0 30.55 55.75 21.2 59.8 14.85 68.0 M33.25 47.0 L33.0 47.2 Q23.85 54.25 15.15 61.95 L15.85 64.25 Q23.3 54.25 35.5 52.6 L35.5 52.2 Q35.65 48.95 33.25 47.0" fill="#982625" fill-rule="evenodd" stroke="none"/>
    <path d="M33.25 47.0 Q35.65 48.95 35.5 52.2 L35.5 52.6 Q23.3 54.25 15.85 64.25 L15.15 61.95 Q23.85 54.25 33.0 47.2 L33.25 47.0" fill="#a53a30" fill-rule="evenodd" stroke="none"/>
    <path d="M16.3 47.15 L16.45 43.55 21.55 43.4 20.8 46.85 16.3 47.15 M23.35 41.9 L23.4 41.85 23.35 42.0 23.35 41.9 M23.5 41.75 L24.85 39.95 24.7 43.75 Q24.4 43.75 24.2 44.05 L24.0 44.7 23.55 45.2 23.4 42.55 23.5 41.75" fill="#972e33" fill-rule="evenodd" stroke="none"/>
    <path d="M43.5 36.3 L44.35 38.5 Q45.4 40.5 47.15 39.15 48.1 38.35 49.2 38.1 53.4 36.9 55.85 33.45 55.9 37.75 51.85 38.55 48.1 39.05 46.25 42.3 44.45 45.4 41.95 47.9 40.7 46.6 40.9 44.25 41.3 39.95 43.5 36.3" fill="#9e3c3d" fill-rule="evenodd" stroke="none"/>
    <path d="M15.25 81.25 L15.5 71.4 Q20.7 65.3 28.3 61.45 26.2 63.95 21.2 68.35 19.6 69.75 16.3 73.8 L16.95 76.9 19.25 73.3 Q22.25 69.5 25.2 67.15 L27.55 68.1 Q20.3 73.45 15.25 81.25 M38.0 55.65 L36.95 60.1 Q36.0 62.1 35.0 63.05 L28.45 65.15 29.65 64.7 Q34.85 62.45 37.35 57.5 L38.0 55.6 38.0 55.65" fill="#71000e" fill-rule="evenodd" stroke="none"/>
    <path d="M15.5 71.4 L14.85 68.0 Q21.2 59.8 30.55 55.75 34.75 54.0 37.45 57.05 L37.35 57.5 Q34.85 62.45 29.65 64.7 L28.45 65.15 Q26.6 65.65 25.1 67.05 L25.2 67.15 Q22.25 69.5 19.25 73.3 L16.95 76.9 16.3 73.8 Q19.6 69.75 21.2 68.35 26.2 63.95 28.3 61.45 20.7 65.3 15.5 71.4" fill="#8e0b1d" fill-rule="evenodd" stroke="none"/>
    <path d="M28.4 70.55 L36.3 64.45 35.85 63.85 Q22.8 71.0 16.45 84.1 L14.9 84.1 15.25 81.25 Q20.3 73.45 27.55 68.1 L25.2 67.15 25.1 67.05 Q26.6 65.65 28.45 65.15 L35.0 63.05 Q36.0 62.1 36.95 60.1 L38.0 55.65 37.3 62.75 37.9 63.85 38.05 63.5 38.15 63.55 38.6 63.75 28.4 70.55 M39.0 62.65 L38.3 62.8 38.45 62.35 39.0 62.65" fill="#510414" fill-rule="evenodd" stroke="none"/>
    <path d="M59.5 73.2 L59.5 74.15 Q59.55 77.75 56.7 79.8 54.55 78.4 52.25 79.25 L52.0 79.6 51.5 80.15 50.5 80.95 Q49.95 81.0 50.0 81.8 L49.2 82.9 48.15 82.7 48.15 81.85 Q51.25 77.05 56.8 78.15 59.0 73.65 55.6 69.95 54.85 69.15 53.85 68.85 52.85 68.75 53.25 67.95 L53.1 67.4 52.65 67.15 53.0 67.2 Q57.75 68.65 59.5 73.2 M37.4 100.45 L37.05 96.05 39.8 95.7 38.95 96.35 39.55 96.65 40.1 96.3 Q40.95 95.65 41.05 94.45 51.55 84.8 51.55 83.4 L51.5 82.95 53.15 81.8 Q53.95 82.0 53.75 82.95 53.15 85.65 51.1 87.65 44.5 94.4 37.4 100.45 M50.2 82.8 L51.3 82.05 51.75 82.15 51.05 82.85 50.2 82.8" fill="#6a0412" fill-rule="evenodd" stroke="none"/>
    <path d="M37.05 96.05 L36.4 94.7 35.95 94.1 40.05 89.9 Q40.5 92.25 40.05 94.8 L39.8 95.7 37.05 96.05 M24.45 84.35 L21.3 84.15 Q19.7 80.9 22.25 77.65 L24.3 74.8 28.4 70.55 38.6 63.75 38.15 63.55 43.45 63.4 Q46.2 63.35 48.3 65.2 L48.8 65.0 49.6 65.4 52.15 68.1 53.25 67.95 Q52.85 68.75 53.85 68.85 54.85 69.15 55.6 69.95 59.0 73.65 56.8 78.15 51.25 77.05 48.15 81.85 L48.15 82.7 49.2 82.9 50.2 82.8 51.05 82.85 50.65 83.15 51.5 82.95 51.55 83.4 Q51.55 84.8 41.05 94.45 L41.1 90.45 Q41.75 90.1 42.1 92.05 L42.25 92.55 Q43.25 93.05 43.65 91.5 44.0 90.3 43.85 88.9 45.0 88.5 45.6 89.2 L46.55 89.0 Q47.1 88.45 47.05 87.8 L46.9 86.95 45.8 88.2 45.15 86.45 44.25 88.1 43.5 86.45 Q50.65 79.85 51.75 70.6 51.8 70.0 51.5 69.6 L49.7 67.65 48.85 66.9 Q46.9 65.2 44.35 65.05 40.4 65.35 37.1 67.65 28.15 73.8 24.45 84.35 M48.1 83.8 L47.2 83.85 Q46.35 86.5 48.45 85.85 L48.35 84.05 48.1 83.8 M43.15 86.8 L42.8 90.85 41.25 88.7 43.15 86.8" fill="#9b1d20" fill-rule="evenodd" stroke="none"/>
    <path d="M34.95 93.45 L35.6 89.7 Q37.85 89.2 39.35 87.65 L46.35 80.65 Q50.8 76.15 50.65 69.75 L49.7 67.65 51.5 69.6 Q51.8 70.0 51.75 70.6 50.65 79.85 43.5 86.45 L43.15 86.8 41.25 88.7 40.5 87.3 40.05 87.55 40.05 89.9 35.95 94.1 34.95 93.45" fill="#913f45" fill-rule="evenodd" stroke="none"/>
    <path d="M28.5 84.95 L27.1 84.7 Q30.9 72.6 41.55 66.4 42.9 65.6 44.35 65.05 46.9 65.2 48.85 66.9 L49.7 67.65 50.65 69.75 Q47.25 66.25 42.55 67.75 41.1 68.15 39.7 68.8 40.55 70.9 39.3 72.8 34.65 79.5 28.5 84.95" fill="#ae4c4d" fill-rule="evenodd" stroke="none"/>
    <path d="M35.6 89.7 L35.6 89.65 35.75 89.5 35.6 89.6 35.55 89.0 Q35.45 87.8 34.6 86.9 37.15 87.05 38.9 85.45 L43.3 81.65 Q48.0 77.45 48.85 71.4 48.9 70.9 48.55 70.6 45.75 67.95 41.9 69.3 42.1 71.9 40.8 74.1 L36.4 81.05 Q35.05 82.9 32.95 84.35 L32.7 85.75 28.5 84.95 Q34.65 79.5 39.3 72.8 40.55 70.9 39.7 68.8 41.1 68.15 42.55 67.75 47.25 66.25 50.65 69.75 50.8 76.15 46.35 80.65 L39.35 87.65 Q37.85 89.2 35.6 89.7" fill="#be7070" fill-rule="evenodd" stroke="none"/>
    <path d="M34.6 86.9 Q34.6 86.4 34.05 86.1 L32.7 85.75 32.95 84.35 Q35.05 82.9 36.4 81.05 L40.8 74.1 Q42.1 71.9 41.9 69.3 45.75 67.95 48.55 70.6 48.9 70.9 48.85 71.4 48.0 77.45 43.3 81.65 L38.9 85.45 Q37.15 87.05 34.6 86.9 M41.9 81.45 L44.7 78.45 Q47.9 75.25 47.0 70.7 L43.7 70.8 Q42.6 79.15 35.55 84.25 L34.3 85.15 Q38.75 84.85 41.9 81.45" fill="#c88481" fill-rule="evenodd" stroke="none"/>
    <path d="M27.1 84.7 L24.45 84.35 Q28.15 73.8 37.1 67.65 40.4 65.35 44.35 65.05 42.9 65.6 41.55 66.4 30.9 72.6 27.1 84.7" fill="#a94044" fill-rule="evenodd" stroke="none"/>
    <path d="M41.9 81.45 Q38.75 84.85 34.3 85.15 L35.55 84.25 Q42.6 79.15 43.7 70.8 L47.0 70.7 Q47.9 75.25 44.7 78.45 L41.9 81.45" fill="#d49699" fill-rule="evenodd" stroke="none"/>
    <path d="M59.5 74.15 Q60.65 81.15 56.1 86.6 47.95 96.35 36.7 102.4 L37.4 100.45 Q44.5 94.4 51.1 87.65 53.15 85.65 53.75 82.95 53.95 82.0 53.15 81.8 L52.85 80.25 Q52.5 79.6 52.0 79.6 L52.25 79.25 Q54.55 78.4 56.7 79.8 59.55 77.75 59.5 74.15 M36.4 94.7 Q36.05 96.15 36.4 98.6 36.5 99.3 36.25 99.9 34.85 103.4 30.85 103.6 L31.3 103.7 25.05 103.0 24.05 101.9 23.85 98.55 31.7 97.85 Q32.85 97.65 33.9 96.85 L30.65 95.45 31.5 95.35 Q32.95 95.35 33.95 94.8 34.95 94.25 34.95 93.45 L35.95 94.1 36.4 94.7 M50.5 80.95 L51.5 80.15 50.85 81.3 50.5 80.95 M51.3 82.05 Q51.6 80.5 52.45 80.5 L52.5 80.55 51.75 82.15 51.3 82.05" fill="#51040c" fill-rule="evenodd" stroke="none"/>
    <path d="M21.3 84.15 L17.45 84.05 18.45 82.2 Q20.9 78.0 24.3 74.8 L22.25 77.65 Q19.7 80.9 21.3 84.15" fill="#740001" fill-rule="evenodd" stroke="none"/>
    <path d="M32.25 87.2 L33.6 88.15 33.35 89.75 Q32.95 88.45 32.6 88.35 L28.45 87.9 32.25 87.2" fill="#cbd0cc" fill-rule="evenodd" stroke="none"/>
    <path d="M33.35 89.75 L31.45 90.15 Q28.3 87.9 24.3 88.7 L23.7 88.75 25.0 88.5 28.45 87.9 32.6 88.35 Q32.95 88.45 33.35 89.75" fill="#a3a5a2" fill-rule="evenodd" stroke="none"/>
    <path d="M18.4 89.7 L14.3 88.95 15.55 88.75 Q21.0 88.2 26.3 86.8 L28.4 86.2 32.25 87.2 28.45 87.9 25.0 88.5 18.4 89.7" fill="#372325" fill-rule="evenodd" stroke="none"/>
    <path d="M13.3 88.45 Q12.25 86.75 14.45 85.95 16.55 85.15 18.8 85.25 L28.4 86.2 26.3 86.8 Q19.85 85.55 14.0 88.0 13.6 88.15 13.3 88.45" fill="#665355" fill-rule="evenodd" stroke="none"/>
    <path d="M23.85 98.55 L24.05 96.7 30.55 96.6 25.6 95.4 31.5 95.35 30.65 95.45 33.9 96.85 Q32.85 97.65 31.7 97.85 L23.85 98.55" fill="#6d0317" fill-rule="evenodd" stroke="none"/>
    <path d="M23.85 91.4 L31.35 91.75 Q30.4 94.65 27.05 94.1 L19.65 93.5 23.85 91.4" fill="#373239" fill-rule="evenodd" stroke="none"/>
    <path d="M31.45 90.15 L18.4 89.7 25.0 88.5 23.7 88.75 24.3 88.7 Q28.3 87.9 31.45 90.15" fill="#ae949d" fill-rule="evenodd" stroke="none"/>
    <path d="M20.4 97.3 L20.4 96.2 22.85 96.4 22.7 97.5 20.4 97.3" fill="#d3bebd" fill-rule="evenodd" stroke="none"/>
    <path d="M20.4 96.2 L20.35 95.0 23.05 95.25 22.85 96.4 20.4 96.2" fill="#421d24" fill-rule="evenodd" stroke="none"/>
    <path d="M24.05 96.7 L24.05 95.35 25.6 95.4 30.55 96.6 24.05 96.7 M15.85 94.05 L19.65 94.9 Q19.55 95.45 19.6 96.5 L15.85 94.05 M4.05 37.3 L6.05 32.85 Q10.35 33.5 13.2 36.85 13.75 37.45 13.95 38.2 16.65 48.55 12.45 58.2 11.6 60.1 9.65 59.7 L9.15 60.6 7.9 60.7 6.65 62.55 Q9.2 64.5 9.9 67.7 10.85 72.25 10.2 76.9 9.55 81.85 11.95 86.1 L11.55 88.1 Q7.95 82.45 8.1 75.5 8.25 69.15 4.55 64.4 5.45 61.35 5.8 57.7 L5.85 57.65 5.8 57.65 Q7.75 47.85 4.75 38.65 4.5 37.9 4.05 37.3 M6.5 36.25 Q11.8 44.3 9.35 53.7 8.9 55.5 9.65 57.0 L10.3 57.9 11.2 57.6 Q16.2 48.1 12.55 38.05 11.2 34.2 7.3 34.5 L6.5 36.25" fill="#71040a" fill-rule="evenodd" stroke="none"/>
    <path d="M22.7 97.5 L22.85 101.85 20.5 101.1 20.4 97.3 22.7 97.5" fill="#8c8082" fill-rule="evenodd" stroke="none"/>
    <path d="M19.65 93.5 L13.4 91.25 13.2 90.15 23.85 91.4 19.65 93.5" fill="#795d6b" fill-rule="evenodd" stroke="none"/>
    <path d="M22.85 101.85 Q23.55 103.35 25.05 104.05 L24.2 104.45 Q20.8 104.6 20.5 101.1 L22.85 101.85" fill="#512c33" fill-rule="evenodd" stroke="none"/>
    <path d="M19.7 99.75 L19.7 100.65 Q10.85 97.05 6.15 88.45 4.5 85.5 3.95 82.2 1.85 70.15 1.75 57.85 L1.8 57.8 1.75 57.8 3.7 38.4 Q6.35 50.4 3.5 62.3 2.85 65.05 4.4 67.5 6.35 70.45 5.95 73.75 5.05 81.35 7.9 88.45 11.3 96.8 19.7 99.75" fill="#36020f" fill-rule="evenodd" stroke="none"/>
    <path d="M19.6 96.5 L19.7 99.75 Q11.3 96.8 7.9 88.45 5.05 81.35 5.95 73.75 6.35 70.45 4.4 67.5 2.85 65.05 3.5 62.3 6.35 50.4 3.7 38.4 L4.05 37.3 Q4.5 37.9 4.75 38.65 7.75 47.85 5.8 57.65 L5.8 57.7 Q5.45 61.35 4.55 64.4 8.25 69.15 8.1 75.5 7.95 82.45 11.55 88.1 11.55 90.55 12.8 92.3 14.05 94.05 15.85 94.05 L19.6 96.5" fill="#57060d" fill-rule="evenodd" stroke="none"/>
    <path d="M38.95 105.0 L37.65 106.6 38.7 114.7 37.7 115.75 Q36.15 110.05 35.9 104.05 L38.85 102.85 38.95 105.0" fill="#7e6d75" fill-rule="evenodd" stroke="none"/>
    <path d="M38.7 114.7 L37.65 106.6 38.95 105.0 39.2 113.2 38.7 114.7" fill="#dccece" fill-rule="evenodd" stroke="none"/>
    <path d="M72.05 62.3 Q70.25 67.1 65.7 70.3 L68.45 65.95 72.05 62.3" fill="#82000d" fill-rule="evenodd" stroke="none"/>
    <path d="M9.15 60.6 Q13.55 64.3 14.05 70.25 14.6 77.25 13.6 84.35 L11.95 86.1 Q9.55 81.85 10.2 76.9 10.85 72.25 9.9 67.7 9.2 64.5 6.65 62.55 L7.9 60.7 9.15 60.6 M9.9 36.35 L9.45 37.2 Q12.45 45.9 11.25 54.85 14.85 45.75 11.4 36.6 L10.7 36.25 9.9 36.35 M6.5 36.25 L7.3 34.5 Q11.2 34.2 12.55 38.05 16.2 48.1 11.2 57.6 L10.3 57.9 9.65 57.0 Q8.9 55.5 9.35 53.7 11.8 44.3 6.5 36.25 M10.2 63.9 Q12.5 72.9 12.25 82.15 L13.35 72.75 Q14.0 67.9 11.0 64.15 L10.2 63.9" fill="#8a0604" fill-rule="evenodd" stroke="none"/>
    <path d="M9.9 36.35 L10.7 36.25 11.4 36.6 Q14.85 45.75 11.25 54.85 12.45 45.9 9.45 37.2 L9.9 36.35" fill="#a52d2c" fill-rule="evenodd" stroke="none"/>
    <path d="M10.2 63.9 L11.0 64.15 Q14.0 67.9 13.35 72.75 L12.25 82.15 Q12.5 72.9 10.2 63.9" fill="#ab2432" fill-rule="evenodd" stroke="none"/>
    <path d="M14.3 88.95 L13.3 88.45 Q13.6 88.15 14.0 88.0 19.85 85.55 26.3 86.8 21.0 88.2 15.55 88.75 L14.3 88.95" fill="#5b484a" fill-rule="evenodd" stroke="none"/>
    <path d="M13.05 100.95 L13.8 99.5 16.85 101.0 9.95 110.55 9.95 110.05 Q12.65 106.05 14.0 101.55 L13.05 100.95" fill="#513331" fill-rule="evenodd" stroke="none"/>
    <path d="M13.05 100.95 L14.0 101.55 Q12.65 106.05 9.95 110.05 10.0 107.3 12.3 102.35 L13.05 100.95" fill="#9d8384" fill-rule="evenodd" stroke="none"/>
  </g>
</svg>
