<?xml version="1.0" encoding="UTF-8" standalone="no"?>
<svg xmlns:ffdec="https://www.free-decompiler.com/flash" xmlns:xlink="http://www.w3.org/1999/xlink" ffdec:objectType="shape" height="160.32px" width="49.26px" xmlns="http://www.w3.org/2000/svg">
  <g transform="matrix(1.2, 0.0, 0.0, 1.2, 0.0, 0.0)">
    <path d="M8.8 8.7 Q8.75 6.05 11.3 5.35 12.8 1.8 16.3 3.45 L17.4 2.65 19.45 3.25 18.6 4.1 17.95 3.85 Q15.85 3.25 15.5 4.6 L17.9 5.0 18.75 7.05 18.3 6.6 Q16.0 4.9 13.75 6.6 13.35 6.6 13.1 6.95 12.8 7.25 12.8 7.75 12.85 9.3 15.35 11.6 L15.5 12.0 Q14.95 10.1 16.05 8.55 16.55 11.05 18.85 11.05 L20.55 9.85 20.55 10.6 Q20.45 13.1 18.25 13.8 L18.7 12.75 Q17.5 11.7 16.75 13.35 17.0 14.2 18.1 13.85 L18.1 14.85 Q19.7 15.75 21.5 14.9 L21.95 15.6 22.8 15.85 Q23.95 14.6 23.45 13.05 L22.4 10.45 Q26.55 14.1 22.8 18.1 L22.1 18.55 21.8 19.0 18.8 19.05 18.35 20.35 18.4 20.95 17.5 21.15 16.3 20.3 16.35 18.1 14.05 17.8 15.2 14.7 Q15.7 14.6 15.65 14.15 L15.6 13.75 13.75 13.95 12.8 11.35 12.15 11.65 11.15 10.0 10.55 13.15 11.4 14.35 10.7 17.0 Q9.6 15.2 9.3 14.05 10.2 11.55 9.05 9.0 L8.8 8.7 M21.4 16.6 L20.55 16.45 Q20.2 16.55 20.2 17.1 L20.8 17.55 21.45 17.0 21.4 16.6" fill="#566548" fill-rule="evenodd" stroke="none"/>
    <path d="M19.45 3.25 L17.4 2.65 16.3 3.45 Q12.8 1.8 11.3 5.35 8.75 6.05 8.8 8.7 L6.7 6.85 7.45 4.6 Q10.3 4.45 12.1 2.3 13.3 0.9 15.2 1.8 L16.85 1.9 Q18.25 -0.05 20.05 1.4 L19.45 3.25" fill="#778561" fill-rule="evenodd" stroke="none"/>
    <path d="M8.8 8.7 L9.05 9.0 Q10.2 11.55 9.3 14.05 8.3 16.1 9.1 18.05 L9.95 18.45 10.75 18.85 9.9 19.6 9.2 22.05 9.65 22.65 11.65 25.55 10.8 25.55 10.1 26.05 9.7 27.7 8.95 28.0 8.6 27.25 7.65 26.05 Q7.0 24.65 5.5 24.45 L4.9 22.95 3.95 23.7 3.65 25.25 2.65 24.1 2.05 24.2 Q0.75 25.2 1.4 26.55 L3.2 27.95 Q3.25 28.6 2.25 28.6 L1.45 28.6 1.0 29.0 Q0.4 30.25 1.05 31.5 L3.7 32.85 3.5 34.35 3.45 34.45 3.3 35.8 Q4.95 38.5 7.95 37.7 L8.65 37.4 9.05 37.6 9.2 38.5 8.05 39.35 7.65 41.8 9.9 41.85 10.4 42.8 8.95 43.25 8.45 45.55 Q10.5 47.4 13.1 46.55 L14.1 46.3 15.15 46.8 14.5 47.3 Q13.45 48.2 12.35 47.95 L11.7 47.95 10.55 49.9 Q10.55 51.5 11.6 52.05 12.1 52.05 12.45 52.45 12.8 52.85 12.8 53.45 L12.4 55.05 16.0 55.8 14.3 56.9 13.95 57.35 13.75 59.45 12.65 59.5 12.05 59.75 10.55 62.25 10.05 61.2 11.0 59.3 Q11.5 57.4 9.65 56.55 L9.1 56.35 7.45 57.25 7.35 55.4 Q5.1 55.6 4.85 57.85 L5.25 58.15 4.9 58.6 3.25 59.1 Q2.25 62.6 4.75 64.85 L2.1 65.0 Q0.75 67.65 3.1 69.0 4.6 69.9 6.4 70.55 L6.1 73.25 Q7.6 75.35 10.1 74.9 L10.15 74.45 10.25 74.15 10.45 74.1 10.9 75.5 11.4 76.2 12.9 76.05 13.1 75.05 13.95 75.5 14.1 75.9 16.5 75.5 16.9 74.6 17.05 75.9 Q16.6 76.7 14.9 76.8 L13.4 76.65 13.05 76.8 10.95 76.85 10.25 76.25 10.15 75.8 9.3 75.95 9.5 77.6 10.8 78.5 12.65 78.75 13.75 78.9 14.0 79.25 Q14.0 79.65 13.25 79.8 L12.25 79.85 11.6 81.25 Q12.7 82.75 12.65 84.6 L12.85 84.95 Q13.65 86.3 15.3 86.6 L15.4 86.65 Q15.7 87.15 14.7 87.4 L14.1 87.7 13.55 87.45 13.0 87.55 11.9 89.6 11.5 89.1 10.95 89.15 Q8.5 89.55 9.25 92.1 L9.8 92.45 10.6 92.8 11.1 93.2 11.0 94.05 10.55 94.2 10.35 94.6 9.65 95.75 Q11.85 100.15 16.35 97.7 L17.0 97.8 17.05 97.9 17.1 97.9 17.25 99.1 Q19.05 100.8 21.6 100.45 24.35 100.2 25.45 97.65 23.8 97.35 22.95 95.35 L22.85 94.75 24.25 96.25 25.7 96.3 25.85 95.5 27.85 96.2 29.35 94.85 29.55 95.3 29.45 96.0 28.9 96.85 Q33.9 95.8 34.6 90.5 L33.55 88.85 34.7 88.65 35.35 89.2 Q37.05 90.3 38.55 88.25 40.95 84.9 39.15 81.45 38.05 79.4 36.05 79.5 L35.45 80.0 Q35.0 79.8 35.0 79.5 L35.05 79.2 36.9 78.65 36.75 77.9 Q36.0 75.45 33.0 75.75 32.35 76.6 31.45 76.6 L31.05 76.2 31.8 75.45 Q34.15 71.55 34.5 67.25 34.8 63.35 30.65 63.25 29.95 63.2 29.6 63.9 29.05 65.2 28.5 64.65 29.25 60.1 26.25 58.5 L25.9 57.85 26.8 57.8 27.85 57.9 Q28.95 54.9 28.55 52.0 L26.9 51.15 Q26.65 51.2 26.55 51.4 26.0 52.05 25.2 51.75 L25.7 50.5 26.55 50.05 Q30.85 49.75 33.2 46.3 L33.55 45.3 Q34.25 42.4 31.45 41.15 L27.5 39.35 27.9 39.05 27.35 37.5 Q26.4 32.75 21.2 32.7 L21.2 34.8 20.8 35.25 20.75 34.8 20.55 33.05 Q20.45 32.05 18.0 32.4 L17.45 32.45 17.3 31.5 Q17.65 31.05 18.35 31.05 L19.6 31.2 19.8 30.7 Q20.75 28.95 19.95 27.35 L19.4 26.45 18.75 26.75 20.55 22.85 19.3 21.6 18.4 20.95 18.35 20.35 20.6 20.9 21.8 20.45 22.1 18.55 22.8 18.1 Q26.55 14.1 22.4 10.45 L21.75 10.1 Q19.4 9.4 18.75 7.05 L17.9 5.0 15.5 4.6 Q15.85 3.25 17.95 3.85 L18.6 4.1 19.45 3.25 20.05 1.4 Q18.25 -0.05 16.85 1.9 L15.2 1.8 Q13.3 0.9 12.1 2.3 10.3 4.45 7.45 4.6 L6.7 6.85 8.8 8.7 M18.1 13.85 Q17.0 14.2 16.75 13.35 17.5 11.7 18.7 12.75 L18.25 13.8 18.1 13.85 M12.8 7.75 Q12.8 7.25 13.1 6.95 13.35 6.6 13.75 6.6 L14.5 6.8 14.7 7.65 12.8 7.75 M10.25 2.55 Q12.6 -0.4 16.05 0.9 18.3 -0.8 20.7 0.65 21.8 3.05 19.85 4.45 L19.35 4.85 Q19.6 8.8 23.5 9.8 26.9 12.45 25.6 16.5 25.0 18.45 23.2 19.2 23.1 21.35 21.3 21.95 21.8 24.1 20.4 25.75 22.35 28.7 20.2 31.4 L20.8 31.9 Q27.85 31.9 28.65 38.75 34.3 39.95 34.2 45.6 34.15 48.0 32.3 49.45 30.85 50.55 29.0 50.75 30.75 54.85 28.4 58.75 29.85 60.15 29.75 62.1 34.35 61.7 35.2 66.0 36.05 70.25 33.65 74.65 37.7 74.75 37.2 78.65 42.45 81.95 40.5 87.7 39.35 91.15 35.7 90.4 36.15 92.4 34.8 93.95 38.9 98.65 35.7 103.75 34.85 105.05 33.3 105.5 37.05 106.7 36.95 110.5 L36.5 112.0 36.0 112.8 36.85 113.1 37.0 122.65 Q40.6 125.0 37.95 128.7 35.9 131.55 32.5 132.75 25.95 134.95 20.25 131.3 16.65 128.9 19.2 125.6 L17.55 117.9 Q14.85 114.95 14.4 111.1 18.3 105.65 24.7 104.9 25.15 102.85 24.05 101.0 19.55 103.2 16.2 99.3 12.55 100.6 9.75 97.85 8.8 96.9 9.0 95.55 L9.3 93.9 Q7.7 92.55 8.4 90.4 9.05 88.4 11.4 88.4 L12.3 86.6 10.75 82.3 11.35 79.8 Q8.05 79.35 8.4 75.95 4.8 74.8 5.05 71.0 0.55 70.3 1.0 65.95 1.15 64.5 2.5 63.9 0.45 60.2 3.55 57.25 L4.5 56.05 Q5.75 54.15 8.0 55.15 L8.05 55.6 9.15 55.2 Q11.9 55.65 11.9 58.55 L12.9 58.35 13.15 56.8 Q10.6 55.95 11.6 53.35 8.6 51.15 10.5 47.85 8.4 47.95 7.45 46.0 L8.0 43.15 6.55 42.4 6.9 39.05 Q2.0 38.5 2.65 33.45 -1.4 31.65 0.75 27.5 L0.15 26.5 Q0.1 23.45 3.0 23.1 L3.75 22.05 6.1 22.65 6.45 23.95 7.95 24.45 8.85 25.85 9.85 24.85 8.1 22.7 8.95 19.35 Q6.65 16.35 7.95 12.3 8.25 11.45 8.0 10.5 7.5 8.35 5.6 7.05 6.3 3.1 10.25 2.55 M7.25 31.9 L7.4 30.8 7.6 30.6 Q8.3 30.25 8.15 31.05 L8.25 32.2 7.25 31.9 M21.4 40.45 L21.2 38.9 Q22.15 37.4 23.95 37.75 L24.65 38.55 24.15 39.6 23.7 38.5 22.45 38.65 21.9 39.4 23.4 40.35 21.4 40.45 M21.4 16.6 L21.45 17.0 20.8 17.55 20.2 17.1 Q20.2 16.55 20.55 16.45 L21.4 16.6 M30.9 73.25 L30.8 74.25 29.4 74.75 Q27.7 76.7 25.15 75.35 L24.35 75.85 Q22.65 76.5 21.45 75.3 L21.35 75.1 Q21.1 73.8 20.5 73.25 L17.4 72.2 20.65 72.1 21.25 71.6 21.35 72.15 Q21.25 75.2 24.0 75.2 L25.35 73.8 26.2 74.75 28.7 74.8 28.85 73.7 29.75 73.95 30.9 73.25 M27.85 72.15 Q29.35 70.85 29.0 68.6 L30.35 68.75 30.5 67.65 31.05 67.9 31.05 69.15 30.8 69.5 29.9 69.65 29.8 70.9 27.85 72.15 M28.1 81.45 Q27.55 82.3 26.6 82.1 25.6 81.85 25.5 80.95 L26.95 81.25 27.5 81.05 28.2 80.1 Q28.85 80.25 28.1 81.45 M29.7 88.2 L30.4 88.45 Q30.85 92.15 26.9 92.1 25.65 92.1 25.9 91.3 28.15 92.1 29.7 90.4 L29.55 89.95 Q28.8 88.85 29.7 88.2 M26.05 89.05 L24.65 90.1 21.9 89.55 21.65 89.05 Q20.45 89.65 19.4 88.8 L18.7 88.05 18.15 86.95 18.8 87.2 19.8 88.5 22.2 88.05 22.65 89.35 23.6 89.45 Q24.9 89.35 26.0 88.75 L26.05 89.05 M14.55 51.75 L13.8 51.15 Q15.2 50.2 16.95 49.9 L19.3 49.8 Q17.85 51.35 15.65 50.7 L14.55 51.75 M15.4 64.4 L17.95 64.3 17.8 66.45 15.65 66.9 15.3 66.35 14.9 65.75 15.35 64.5 15.35 64.4 15.4 64.4 M25.95 55.5 L25.8 56.25 23.9 56.4 Q23.9 55.8 24.3 55.4 25.65 54.35 25.95 55.5 M6.7 60.35 Q7.05 60.7 7.05 61.3 L6.8 61.6 Q6.05 61.55 6.05 61.2 6.05 60.5 6.7 60.35 M14.45 71.2 L14.7 71.55 Q14.5 72.35 13.7 72.8 L13.1 72.8 12.35 72.3 11.65 73.6 Q9.2 73.95 9.1 71.65 L7.35 70.45 7.3 69.5 7.45 69.25 8.05 70.55 9.7 70.25 9.9 70.65 9.85 72.5 11.45 72.55 11.8 71.5 12.95 71.75 14.45 71.2 M17.5 64.45 L16.0 64.7 15.55 65.75 17.65 65.65 17.5 64.45 M11.45 66.6 Q11.7 66.3 12.1 66.3 12.5 66.3 12.8 66.6 L13.05 67.2 12.8 67.85 12.1 68.1 11.45 67.85 11.15 67.2 Q11.15 66.85 11.45 66.6 M16.2 79.7 Q14.5 79.65 14.0 78.95 L13.9 78.75 14.4 78.1 15.7 78.95 17.75 78.5 16.2 79.7 M21.95 92.85 L19.8 92.7 16.25 90.7 16.3 88.85 16.95 90.45 19.05 90.5 19.05 91.65 20.3 92.25 22.4 91.6 21.95 92.85 M15.85 94.25 L15.85 95.1 Q17.7 95.5 19.4 96.35 19.95 96.6 19.35 96.55 L16.3 96.3 Q15.1 95.85 15.05 94.5 13.7 94.6 12.7 93.75 11.25 92.55 12.4 92.5 L13.6 93.45 15.7 93.2 15.85 94.25 M25.65 111.45 L25.65 112.3 27.55 112.15 28.85 111.95 Q28.4 109.2 29.35 106.45 32.7 105.05 35.1 102.45 37.3 99.95 35.45 96.95 L33.9 97.75 Q34.15 99.15 33.4 100.5 31.75 103.35 28.85 104.3 L28.5 104.2 Q29.0 101.55 27.45 99.45 L25.7 101.15 25.85 102.6 25.65 111.45 M18.5 107.95 Q16.75 109.1 15.25 111.3 L16.0 112.9 16.7 113.35 Q25.5 118.05 34.45 112.75 L35.3 112.15 35.85 111.6 Q37.4 109.85 36.0 108.3 34.35 106.5 31.9 106.2 L31.1 106.7 Q32.6 106.85 34.05 107.55 34.75 107.95 35.15 108.7 L35.1 109.0 Q33.95 111.3 31.55 112.1 28.9 113.45 23.9 113.45 18.75 113.45 17.7 111.9 17.1 111.25 17.5 110.3 L19.4 108.5 Q22.5 106.8 24.75 106.8 L24.35 105.75 Q21.7 106.0 18.5 107.95 M23.95 107.65 L22.95 107.95 21.9 108.35 Q21.7 110.05 22.85 111.15 L22.1 112.4 23.35 112.4 23.45 112.25 24.6 112.0 24.6 108.75 24.6 107.5 23.95 107.65 M20.15 118.7 L18.65 118.3 Q19.15 122.15 21.05 125.35 L21.85 126.4 Q20.1 122.85 20.15 118.7 M26.75 119.7 L24.8 119.6 22.2 119.15 Q22.0 123.8 24.05 127.75 L26.85 128.4 Q29.65 128.75 32.2 127.75 L32.65 127.5 Q34.85 126.35 35.3 123.85 36.0 120.15 35.35 116.85 L34.75 117.35 32.05 118.9 30.75 119.3 28.5 119.65 26.75 119.7 M20.4 127.15 L19.9 126.7 Q19.5 127.2 19.45 128.4 L19.55 129.65 21.25 130.8 Q26.9 132.95 32.05 131.9 34.4 131.4 36.25 129.45 38.45 127.25 37.65 124.4 L36.75 124.15 35.7 126.25 35.2 126.9 34.6 127.4 Q27.9 131.85 20.9 127.55 L20.4 127.15 M20.75 116.2 L16.65 114.95 Q18.15 117.25 27.1 118.35 33.05 118.8 35.7 114.0 L35.3 113.4 34.75 113.75 33.9 114.2 Q27.75 117.3 20.75 116.2 M29.15 98.05 L27.95 98.05 28.65 99.4 Q29.45 101.4 29.45 102.9 L32.45 100.6 Q33.0 100.15 33.0 98.7 L32.15 96.85 Q30.65 98.05 29.15 98.05 M30.7 111.4 L31.95 110.7 31.85 108.0 31.3 107.9 29.8 108.0 29.3 111.85 30.7 111.4" fill="#000000" fill-rule="evenodd" stroke="none"/>
    <path d="M18.35 20.35 L18.8 19.05 21.8 19.0 22.1 18.55 21.8 20.45 20.6 20.9 18.35 20.35 M22.4 10.45 L23.45 13.05 Q23.95 14.6 22.8 15.85 L21.95 15.6 21.5 14.9 Q19.7 15.75 18.1 14.85 L18.1 13.85 18.25 13.8 Q20.45 13.1 20.55 10.6 L20.55 9.85 18.85 11.05 Q16.55 11.05 16.05 8.55 14.95 10.1 15.5 12.0 L15.35 11.6 Q12.85 9.3 12.8 7.75 L14.7 7.65 14.5 6.8 13.75 6.6 Q16.0 4.9 18.3 6.6 L18.75 7.05 Q19.4 9.4 21.75 10.1 L22.4 10.45" fill="#78886d" fill-rule="evenodd" stroke="none"/>
    <path d="M2.65 24.1 L3.65 25.25 3.95 23.7 4.9 22.95 5.5 24.45 Q7.0 24.65 7.65 26.05 L8.6 27.25 6.5 27.3 6.15 28.0 Q7.0 30.5 9.85 29.55 L10.55 29.3 10.75 29.5 Q12.05 31.1 13.75 30.65 L14.4 30.9 14.65 31.5 13.2 33.3 16.05 33.4 15.9 33.95 Q15.55 35.15 14.45 35.95 L17.05 36.1 17.0 35.9 Q16.9 34.5 17.85 33.55 L18.55 34.7 20.75 34.8 20.8 35.25 21.2 34.8 Q21.7 35.05 21.8 36.25 L25.2 37.8 25.15 39.55 24.15 39.6 24.65 38.55 23.95 37.75 Q22.15 37.4 21.2 38.9 L21.4 40.45 Q21.2 41.65 22.15 42.6 25.2 43.2 27.15 40.3 29.25 41.6 31.45 41.15 34.25 42.4 33.55 45.3 L33.2 46.3 Q32.25 46.15 31.95 45.75 L31.8 44.95 Q31.35 43.85 30.15 43.7 29.9 43.15 28.55 43.15 28.25 43.15 27.75 43.5 L23.9 45.9 22.8 44.95 20.95 46.0 Q19.55 43.2 19.25 40.0 L18.4 41.35 16.65 41.8 14.25 39.65 15.2 37.75 14.65 37.35 13.2 37.95 12.8 36.6 13.6 35.1 13.2 34.35 11.1 35.35 10.8 34.75 12.6 31.3 8.15 31.05 Q8.3 30.25 7.6 30.6 L7.4 30.8 Q6.6 30.8 6.05 29.9 5.5 28.95 5.5 27.65 L3.3 27.25 2.45 26.2 2.65 24.1 M7.65 26.05 L7.6 26.05 7.65 26.05" fill="#637150" fill-rule="evenodd" stroke="none"/>
    <path d="M2.65 24.1 L2.45 26.2 3.3 27.25 5.5 27.65 Q5.5 28.95 6.05 29.9 6.6 30.8 7.4 30.8 L7.25 31.9 7.05 31.75 6.1 30.85 Q5.5 31.65 6.1 33.05 L3.7 32.85 1.05 31.5 Q0.4 30.25 1.0 29.0 L1.45 28.6 2.25 28.6 Q3.25 28.6 3.2 27.95 L1.4 26.55 Q0.75 25.2 2.05 24.2 L2.65 24.1" fill="#555e4d" fill-rule="evenodd" stroke="none"/>
    <path d="M9.3 14.05 Q9.6 15.2 10.7 17.0 L9.95 18.45 9.1 18.05 Q8.3 16.1 9.3 14.05 M8.6 27.25 L8.95 28.0 9.7 27.7 10.1 26.05 10.8 25.55 Q12.3 26.95 14.55 27.0 L12.9 29.15 13.75 30.65 Q12.05 31.1 10.75 29.5 L10.55 29.3 9.85 29.55 Q7.0 30.5 6.15 28.0 L6.5 27.3 8.6 27.25 M19.8 30.7 L19.6 31.2 18.35 31.05 Q17.65 31.05 17.3 31.5 L17.15 29.2 15.9 29.05 16.7 26.6 17.5 27.65 18.6 27.85 Q18.25 29.7 19.8 30.7" fill="#7d8d68" fill-rule="evenodd" stroke="none"/>
    <path d="M3.7 32.85 L6.1 33.05 Q5.5 31.65 6.1 30.85 L7.05 31.75 7.25 31.9 8.25 32.2 9.2 32.2 8.25 35.95 6.6 34.8 Q5.2 34.0 3.5 34.35 L3.7 32.85" fill="#303e1b" fill-rule="evenodd" stroke="none"/>
    <path d="M8.15 31.05 L12.6 31.3 10.8 34.75 11.1 35.35 13.2 34.35 13.6 35.1 12.8 36.6 13.2 37.95 14.65 37.35 15.2 37.75 14.25 39.65 16.65 41.8 18.4 41.35 19.25 40.0 Q19.55 43.2 20.95 46.0 L22.8 44.95 23.9 45.9 27.75 43.5 26.75 44.4 Q26.5 45.0 27.2 44.85 28.1 44.8 28.7 45.35 28.25 47.1 26.25 47.2 L24.9 46.15 24.45 47.75 22.1 49.55 20.8 49.6 20.6 47.8 19.5 49.0 Q14.95 48.1 12.15 51.3 L12.0 51.0 Q11.7 49.4 12.35 47.95 13.45 48.2 14.5 47.3 L15.15 46.8 14.1 46.3 13.1 46.55 12.8 45.85 14.3 42.85 14.7 42.45 16.0 42.4 16.4 41.9 Q13.55 41.35 12.6 38.65 L10.65 41.4 Q9.7 41.65 9.8 40.35 L10.25 37.65 9.5 36.7 Q6.05 36.75 3.45 34.45 L3.5 34.35 Q5.2 34.0 6.6 34.8 L8.25 35.95 9.2 32.2 8.25 32.2 8.15 31.05" fill="#485632" fill-rule="evenodd" stroke="none"/>
    <path d="M10.7 17.0 L11.4 14.35 10.55 13.15 11.65 13.6 11.75 14.5 Q13.2 15.6 15.1 14.7 L15.2 14.7 14.05 17.8 16.35 18.1 16.3 20.3 17.5 21.15 18.4 20.95 19.3 21.6 Q20.35 24.6 17.3 25.3 15.0 25.8 13.5 23.9 11.3 24.25 9.65 22.65 L9.2 22.05 9.9 19.6 10.75 18.85 9.95 18.45 10.7 17.0 M18.25 22.1 L17.85 21.35 Q16.5 22.15 14.95 21.65 L13.55 19.45 12.05 20.9 11.15 18.9 Q9.85 20.7 11.35 22.2 12.6 21.8 13.25 22.45 15.25 25.1 18.0 23.3 L18.25 22.1" fill="#404624" fill-rule="evenodd" stroke="none"/>
    <path d="M18.25 22.1 L18.0 23.3 Q15.25 25.1 13.25 22.45 12.6 21.8 11.35 22.2 9.85 20.7 11.15 18.9 L12.05 20.9 13.55 19.45 14.95 21.65 Q16.5 22.15 17.85 21.35 L18.25 22.1" fill="#282e08" fill-rule="evenodd" stroke="none"/>
    <path d="M10.55 13.15 L11.15 10.0 12.15 11.65 12.8 11.35 13.75 13.95 15.6 13.75 15.65 14.15 Q15.7 14.6 15.2 14.7 L15.1 14.7 Q13.2 15.6 11.75 14.5 L11.65 13.6 10.55 13.15" fill="#312912" fill-rule="evenodd" stroke="none"/>
    <path d="M10.8 25.55 L11.65 25.55 9.65 22.65 Q11.3 24.25 13.5 23.9 15.0 25.8 17.3 25.3 20.35 24.6 19.3 21.6 L20.55 22.85 18.75 26.75 19.4 26.45 19.95 27.35 Q20.75 28.95 19.8 30.7 18.25 29.7 18.6 27.85 L17.5 27.65 16.7 26.6 16.0 26.2 14.55 27.0 Q12.3 26.95 10.8 25.55" fill="#485730" fill-rule="evenodd" stroke="none"/>
    <path d="M14.65 31.5 L14.4 30.9 13.75 30.65 12.9 29.15 14.55 27.0 16.0 26.2 16.7 26.6 15.9 29.05 17.15 29.2 17.3 31.5 17.45 32.45 18.0 32.4 18.45 32.7 Q18.45 33.1 17.55 33.1 15.0 33.1 14.65 31.5" fill="#565a3f" fill-rule="evenodd" stroke="none"/>
    <path d="M7.65 26.05 L7.6 26.05 7.65 26.05" fill="#ff0000" fill-opacity="0.0" fill-rule="evenodd" stroke="none"/>
    <path d="M31.45 41.15 Q29.25 41.6 27.15 40.3 25.2 43.2 22.15 42.6 21.2 41.65 21.4 40.45 L23.4 40.35 21.9 39.4 22.45 38.65 23.7 38.5 24.15 39.6 25.15 39.55 25.2 37.8 21.8 36.25 Q21.7 35.05 21.2 34.8 L21.2 32.7 Q26.4 32.75 27.35 37.5 L27.9 39.05 27.5 39.35 31.45 41.15 M20.75 34.8 L18.55 34.7 17.85 33.55 Q16.9 34.5 17.0 35.9 L17.05 36.1 14.45 35.95 Q15.55 35.15 15.9 33.95 L16.05 33.4 13.2 33.3 14.65 31.5 Q15.0 33.1 17.55 33.1 18.45 33.1 18.45 32.7 L18.0 32.4 Q20.45 32.05 20.55 33.05 L20.75 34.8" fill="#9e9880" fill-rule="evenodd" stroke="none"/>
    <path d="M30.15 43.7 Q31.35 43.85 31.8 44.95 L31.95 45.75 Q32.25 46.15 33.2 46.3 30.85 49.75 26.55 50.05 L25.7 50.5 25.85 49.65 27.0 48.8 Q29.95 46.9 30.15 43.7" fill="#4c593b" fill-rule="evenodd" stroke="none"/>
    <path d="M27.75 43.5 Q28.25 43.15 28.55 43.15 29.9 43.15 30.15 43.7 29.95 46.9 27.0 48.8 L25.85 49.65 25.7 50.5 25.2 51.75 24.75 53.65 24.25 49.95 22.1 49.55 24.45 47.75 24.9 46.15 26.25 47.2 Q28.25 47.1 28.7 45.35 28.1 44.8 27.2 44.85 26.5 45.0 26.75 44.4 L27.75 43.5" fill="#22280c" fill-rule="evenodd" stroke="none"/>
    <path d="M25.2 51.75 Q26.0 52.05 26.55 51.4 26.65 51.2 26.9 51.15 L28.55 52.0 Q28.95 54.9 27.85 57.9 L26.8 57.8 Q27.85 55.5 27.2 52.9 L23.45 54.75 23.55 56.9 19.2 56.8 19.35 53.7 18.25 54.4 17.2 54.1 16.95 53.05 18.55 52.1 19.0 51.85 Q20.45 51.05 20.8 49.6 L22.1 49.55 24.25 49.95 24.75 53.65 25.2 51.75" fill="#6f7352" fill-rule="evenodd" stroke="none"/>
    <path d="M26.25 58.5 Q29.25 60.1 28.5 64.65 29.05 65.2 29.6 63.9 29.95 63.2 30.65 63.25 31.4 64.95 30.5 66.25 L28.7 66.7 27.5 65.65 Q27.3 67.65 25.4 68.55 24.1 66.7 25.1 64.6 L21.9 65.4 22.65 63.8 Q26.1 62.75 26.55 59.4 L23.8 58.95 24.0 58.2 23.8 57.75 24.25 58.25 Q25.15 59.4 26.25 58.5" fill="#88926f" fill-rule="evenodd" stroke="none"/>
    <path d="M30.5 67.65 Q29.85 66.95 31.45 67.2 L31.85 67.4 32.1 67.8 31.05 70.55 30.75 70.95 29.8 70.9 29.9 69.65 30.8 69.5 31.05 69.15 31.05 67.9 30.5 67.65" fill="#2d301b" fill-rule="evenodd" stroke="none"/>
    <path d="M26.8 57.8 L25.9 57.85 26.25 58.5 Q25.15 59.4 24.25 58.25 L23.8 57.75 24.0 58.2 23.8 58.95 26.55 59.4 Q26.1 62.75 22.65 63.8 L21.9 65.4 25.1 64.6 Q24.1 66.7 25.4 68.55 27.3 67.65 27.5 65.65 L28.7 66.7 30.5 66.25 Q31.4 64.95 30.65 63.25 34.8 63.35 34.5 67.25 34.15 71.55 31.8 75.45 29.65 75.85 28.3 77.65 L25.65 77.55 24.95 76.8 24.65 77.0 Q22.35 78.1 20.9 76.5 L21.45 75.3 Q22.65 76.5 24.35 75.85 L25.15 75.35 Q27.7 76.7 29.4 74.75 L30.8 74.25 30.9 73.25 31.05 70.55 32.1 67.8 31.85 67.4 31.45 67.2 Q29.85 66.95 30.5 67.65 L30.35 68.75 29.0 68.6 Q29.35 70.85 27.85 72.15 L26.5 72.9 25.45 70.3 23.55 71.2 22.5 67.2 19.2 67.75 Q19.45 65.0 21.6 63.5 22.4 62.85 23.4 62.7 25.2 62.35 25.0 61.15 L22.25 61.0 22.3 60.0 Q22.65 58.3 23.55 56.9 L23.45 54.75 27.2 52.9 Q27.85 55.5 26.8 57.8 M25.95 55.5 Q25.65 54.35 24.3 55.4 23.9 55.8 23.9 56.4 L25.8 56.25 25.95 55.5" fill="#575f36" fill-rule="evenodd" stroke="none"/>
    <path d="M10.15 74.45 L10.1 74.9 Q7.6 75.35 6.1 73.25 L6.4 70.55 Q4.6 69.9 3.1 69.0 0.75 67.65 2.1 65.0 L4.75 64.85 3.05 66.4 5.2 66.95 7.8 64.75 8.65 68.6 10.75 68.45 11.3 70.25 14.8 70.05 16.0 67.3 15.65 66.9 17.8 66.45 17.95 64.3 15.4 64.4 Q16.9 62.65 19.25 63.3 L19.7 62.65 Q17.25 62.45 17.1 59.95 L14.4 59.0 14.3 56.9 16.0 55.8 12.4 55.05 12.8 53.45 15.4 53.1 15.8 52.35 18.55 52.1 16.95 53.05 17.2 54.1 18.25 54.4 19.35 53.7 19.2 56.8 23.55 56.9 Q22.65 58.3 22.3 60.0 L22.25 61.0 25.0 61.15 Q25.2 62.35 23.4 62.7 22.4 62.85 21.6 63.5 19.45 65.0 19.2 67.75 L22.5 67.2 23.55 71.2 25.45 70.3 26.5 72.9 27.85 72.15 29.8 70.9 30.75 70.95 31.05 70.55 30.9 73.25 29.75 73.95 28.85 73.7 28.7 74.8 26.2 74.75 25.35 73.8 24.0 75.2 Q21.25 75.2 21.35 72.15 L21.25 71.6 20.65 72.1 17.4 72.2 16.45 71.8 16.25 72.15 Q15.35 73.55 13.75 73.45 L15.0 72.9 Q15.45 72.0 14.95 71.3 14.7 70.9 14.45 71.2 L12.95 71.75 11.8 71.5 9.9 70.65 9.7 70.25 8.05 70.55 7.45 69.25 7.3 69.5 Q6.9 70.0 6.9 70.85 L6.9 70.95 Q6.95 71.85 7.95 72.05 8.0 74.2 10.15 74.45 M15.35 64.5 L14.9 65.75 15.3 66.35 14.85 65.7 14.9 65.05 15.35 64.5" fill="#343b1c" fill-rule="evenodd" stroke="none"/>
    <path d="M33.0 75.75 Q36.0 75.45 36.75 77.9 L36.9 78.65 35.05 79.2 33.95 79.45 34.15 80.4 34.2 82.35 32.3 83.8 33.95 85.15 33.7 85.9 Q31.05 88.0 28.85 85.3 27.5 87.3 23.55 83.5 20.4 84.4 19.4 81.45 L18.45 82.95 17.0 82.45 Q16.95 79.9 18.9 78.25 16.55 78.5 14.9 76.8 16.6 76.7 17.05 75.9 L17.3 74.95 16.25 73.9 15.3 74.6 13.65 74.45 13.3 73.45 13.75 73.45 Q15.35 73.55 16.25 72.15 L16.45 71.8 17.4 72.2 20.5 73.25 Q21.1 73.8 21.35 75.1 19.65 76.0 18.9 77.85 L22.25 78.3 Q21.15 80.25 21.45 82.5 L25.75 83.1 24.95 82.25 Q23.6 80.45 24.9 79.5 L26.0 79.9 Q27.65 79.95 28.2 78.3 29.8 80.85 28.05 82.9 L27.1 83.2 26.1 83.2 26.65 83.6 Q28.6 85.05 29.7 82.85 L32.25 82.9 32.9 82.2 32.95 81.25 31.85 79.95 32.8 79.45 Q34.8 78.8 34.85 76.8 L33.05 76.3 33.0 75.75 M28.1 81.45 Q28.85 80.25 28.2 80.1 L27.5 81.05 26.95 81.25 25.5 80.95 Q25.6 81.85 26.6 82.1 27.55 82.3 28.1 81.45" fill="#5f6644" fill-rule="evenodd" stroke="none"/>
    <path d="M31.8 75.45 L31.05 76.2 31.45 76.6 Q32.35 76.6 33.0 75.75 L33.05 76.3 34.85 76.8 Q34.8 78.8 32.8 79.45 L31.85 79.95 32.95 81.25 32.9 82.2 32.25 82.9 29.7 82.85 Q28.6 85.05 26.65 83.6 L26.1 83.2 27.1 83.2 28.05 82.9 Q29.8 80.85 28.2 78.3 27.65 79.95 26.0 79.9 L24.9 79.5 Q23.6 80.45 24.95 82.25 L25.75 83.1 21.45 82.5 Q21.15 80.25 22.25 78.3 L18.9 77.85 Q19.65 76.0 21.35 75.1 L21.45 75.3 20.9 76.5 Q22.35 78.1 24.65 77.0 L24.95 76.8 25.65 77.55 28.3 77.65 Q29.65 75.85 31.8 75.45" fill="#7f8360" fill-rule="evenodd" stroke="none"/>
    <path d="M35.05 79.2 L35.0 79.5 Q35.0 79.8 35.45 80.0 L36.05 79.5 Q38.1 81.0 36.75 82.9 37.6 83.45 37.1 86.15 36.6 88.95 35.35 89.2 L34.7 88.65 Q36.9 86.05 34.55 83.55 L35.05 82.85 Q35.5 81.85 35.05 80.9 L34.15 80.4 33.95 79.45 35.05 79.2" fill="#39432b" fill-rule="evenodd" stroke="none"/>
    <path d="M34.7 88.65 L33.55 88.85 34.6 90.5 Q33.9 95.8 28.9 96.85 L29.45 96.0 Q31.8 95.95 32.4 93.95 L31.45 94.15 Q29.2 94.4 27.35 93.3 L27.05 92.8 25.0 92.45 24.55 92.05 24.65 90.1 26.05 89.05 25.6 89.8 Q24.85 91.05 25.9 91.3 25.65 92.1 26.9 92.1 30.85 92.15 30.4 88.45 L29.7 88.2 29.8 87.45 Q31.95 87.85 33.9 87.05 L34.35 86.35 33.95 85.15 32.3 83.8 34.2 82.35 34.15 80.4 35.05 80.9 Q35.5 81.85 35.05 82.85 L34.55 83.55 Q36.9 86.05 34.7 88.65 M13.25 79.8 Q14.0 79.65 14.0 79.25 L13.75 78.9 13.9 78.75 14.0 78.95 Q14.5 79.65 16.2 79.7 L16.2 79.85 Q15.85 80.95 14.35 80.7 L13.5 80.5 13.25 79.8 M17.5 87.35 L17.5 86.15 18.85 87.15 21.9 87.0 23.2 88.4 26.1 87.95 26.0 88.75 Q24.9 89.35 23.6 89.45 L22.65 89.35 22.2 88.05 19.8 88.5 18.8 87.2 18.15 86.95 18.7 88.05 18.7 88.1 Q18.45 88.65 17.5 87.35 M32.55 89.25 L31.25 89.35 Q31.5 91.85 29.25 92.7 L31.7 92.35 Q32.15 92.2 32.6 90.9 33.05 89.55 32.55 89.25" fill="#272806" fill-rule="evenodd" stroke="none"/>
    <path d="M36.05 79.5 Q38.05 79.4 39.15 81.45 40.95 84.9 38.55 88.25 37.05 90.3 35.35 89.2 36.6 88.95 37.1 86.15 37.6 83.45 36.75 82.9 38.1 81.0 36.05 79.5" fill="#ada894" fill-rule="evenodd" stroke="none"/>
    <path d="M11.6 52.05 Q10.55 51.5 10.55 49.9 L11.7 47.95 12.35 47.95 Q11.7 49.4 12.0 51.0 L12.15 51.3 11.6 52.05 M13.1 46.55 Q10.5 47.4 8.45 45.55 L8.95 43.25 10.4 42.8 9.9 41.85 7.65 41.8 8.05 39.35 9.2 38.5 9.05 37.6 8.65 37.4 7.95 37.7 Q4.95 38.5 3.3 35.8 L3.45 34.45 Q6.05 36.75 9.5 36.7 L10.25 37.65 9.8 40.35 Q9.7 41.65 10.65 41.4 L12.8 45.85 13.1 46.55" fill="#686e54" fill-rule="evenodd" stroke="none"/>
    <path d="M10.65 41.4 L12.6 38.65 Q13.55 41.35 16.4 41.9 L16.0 42.4 14.7 42.45 14.3 42.85 12.8 45.85 10.65 41.4" fill="#161f02" fill-rule="evenodd" stroke="none"/>
    <path d="M12.8 53.45 Q12.8 52.85 12.45 52.45 12.1 52.05 11.6 52.05 L12.15 51.3 Q14.95 48.1 19.5 49.0 L20.6 47.8 20.8 49.6 Q20.45 51.05 19.0 51.85 L18.55 52.1 15.8 52.35 15.4 53.1 12.8 53.45 M14.55 51.75 L15.65 50.7 Q17.85 51.35 19.3 49.8 L16.95 49.9 Q15.2 50.2 13.8 51.15 L14.55 51.75" fill="#192300" fill-rule="evenodd" stroke="none"/>
    <path d="M4.75 64.85 Q2.25 62.6 3.25 59.1 L4.9 58.6 5.25 58.15 4.85 57.85 Q5.1 55.6 7.35 55.4 L7.45 57.25 9.1 56.35 9.65 56.55 Q11.5 57.4 11.0 59.3 10.75 57.05 8.75 57.6 7.2 57.9 7.4 59.6 L8.5 60.45 7.5 61.45 7.45 62.65 5.95 62.35 6.35 62.65 6.2 64.3 8.85 63.35 9.55 64.8 Q9.9 65.6 10.55 65.8 L12.15 66.1 12.8 65.6 12.75 62.7 15.0 62.8 15.6 61.45 12.65 59.5 13.75 59.45 13.95 57.35 14.3 56.9 14.4 59.0 17.1 59.95 Q17.25 62.45 19.7 62.65 L19.25 63.3 Q16.9 62.65 15.4 64.4 L15.35 64.4 15.35 64.5 14.9 65.05 14.85 65.7 15.3 66.35 15.65 66.9 16.0 67.3 14.8 70.05 11.3 70.25 10.75 68.45 8.65 68.6 7.8 64.75 5.2 66.95 3.05 66.4 4.75 64.85 M6.7 60.35 Q6.05 60.5 6.05 61.2 6.05 61.55 6.8 61.6 L7.05 61.3 Q7.05 60.7 6.7 60.35 M11.45 66.6 Q11.15 66.85 11.15 67.2 L11.45 67.85 12.1 68.1 12.8 67.85 13.05 67.2 12.8 66.6 Q12.5 66.3 12.1 66.3 11.7 66.3 11.45 66.6" fill="#6a6e53" fill-rule="evenodd" stroke="none"/>
    <path d="M11.0 59.3 L10.05 61.2 10.55 62.25 12.05 59.75 12.65 59.5 15.6 61.45 15.0 62.8 12.75 62.7 12.8 65.6 12.15 66.1 10.55 65.8 Q9.9 65.6 9.55 64.8 L8.85 63.35 6.2 64.3 6.35 62.65 5.95 62.35 7.45 62.65 7.5 61.45 8.5 60.45 7.4 59.6 Q7.2 57.9 8.75 57.6 10.75 57.05 11.0 59.3" fill="#909c76" fill-rule="evenodd" stroke="none"/>
    <path d="M17.05 75.9 L16.9 74.6 16.5 75.5 14.1 75.9 13.95 75.5 13.1 75.05 12.9 76.05 11.4 76.2 10.9 75.5 11.85 74.5 10.6 74.5 10.45 74.1 10.25 74.15 10.15 74.45 Q8.0 74.2 7.95 72.05 6.95 71.85 6.9 70.95 L6.9 70.85 Q6.9 70.0 7.3 69.5 L7.35 70.45 9.1 71.65 Q9.2 73.95 11.65 73.6 L12.35 72.3 13.1 72.8 13.7 72.8 Q14.5 72.35 14.7 71.55 L14.45 71.2 Q14.7 70.9 14.95 71.3 15.45 72.0 15.0 72.9 L13.75 73.45 13.3 73.45 13.65 74.45 15.3 74.6 16.25 73.9 17.3 74.95 17.05 75.9" fill="#2e3219" fill-rule="evenodd" stroke="none"/>
    <path d="M17.5 64.45 L17.65 65.65 15.55 65.75 16.0 64.7 17.5 64.45" fill="#44482d" fill-rule="evenodd" stroke="none"/>
    <path d="M10.6 92.8 L9.8 92.45 10.0 90.9 11.3 90.45 12.0 91.05 13.55 90.85 14.5 89.75 14.7 87.4 Q15.7 87.15 15.4 86.65 L15.3 86.6 15.6 86.1 15.25 84.9 Q13.2 83.3 14.35 80.7 15.85 80.95 16.2 79.85 L16.2 79.7 17.75 78.5 15.7 78.95 14.4 78.1 13.9 78.75 13.75 78.9 12.65 78.75 10.95 76.85 13.05 76.8 13.4 76.65 14.9 76.8 Q16.55 78.5 18.9 78.25 16.95 79.9 17.0 82.45 L18.45 82.95 19.4 81.45 Q20.4 84.4 23.55 83.5 27.5 87.3 28.85 85.3 31.05 88.0 33.7 85.9 L33.95 85.15 34.35 86.35 33.9 87.05 Q31.95 87.85 29.8 87.45 L29.7 88.2 Q28.8 88.85 29.55 89.95 L29.7 90.4 Q28.15 92.1 25.9 91.3 24.85 91.05 25.6 89.8 L26.05 89.05 26.0 88.75 26.1 87.95 23.2 88.4 21.9 87.0 18.85 87.15 17.5 86.15 17.5 87.35 17.8 87.85 16.5 86.95 16.15 87.6 17.15 89.55 18.2 88.95 Q19.7 89.9 20.7 91.3 22.2 91.5 23.6 90.85 L24.3 91.25 22.2 93.45 21.95 92.85 22.4 91.6 20.3 92.25 19.05 91.65 19.05 90.5 16.95 90.45 16.3 88.85 16.25 90.7 19.8 92.7 19.05 94.35 15.85 94.25 15.7 93.2 13.6 93.45 12.4 92.5 10.85 91.3 10.6 92.8 M11.8 71.5 L11.45 72.55 9.85 72.5 9.9 70.65 11.8 71.5 M27.45 88.3 L26.55 89.5 27.8 89.85 Q29.05 89.85 28.7 89.25 28.7 88.3 27.45 88.3" fill="#3e4323" fill-rule="evenodd" stroke="none"/>
    <path d="M15.3 86.6 Q13.65 86.3 12.85 84.95 L12.65 84.6 Q12.7 82.75 11.6 81.25 L12.25 79.85 13.25 79.8 13.5 80.5 14.35 80.7 Q13.2 83.3 15.25 84.9 L15.6 86.1 15.3 86.6 M12.65 78.75 L10.8 78.5 9.5 77.6 9.3 75.95 10.15 75.8 10.25 76.25 10.95 76.85 12.65 78.75 M10.9 75.5 L10.45 74.1 10.6 74.5 11.85 74.5 10.9 75.5" fill="#6c744f" fill-rule="evenodd" stroke="none"/>
    <path d="M27.45 88.3 Q28.7 88.3 28.7 89.25 29.05 89.85 27.8 89.85 L26.55 89.5 27.45 88.3" fill="#5b6644" fill-rule="evenodd" stroke="none"/>
    <path d="M29.45 96.0 L29.55 95.3 29.35 94.85 27.85 96.2 25.85 95.5 25.7 96.3 24.25 96.25 22.2 93.45 24.3 91.25 23.6 90.85 Q22.2 91.5 20.7 91.3 19.7 89.9 18.2 88.95 L17.15 89.55 16.15 87.6 16.5 86.95 17.8 87.85 17.5 87.35 Q18.45 88.65 18.7 88.1 L18.7 88.05 19.4 88.8 Q20.45 89.65 21.65 89.05 L21.9 89.55 24.65 90.1 24.55 92.05 23.55 93.25 25.1 94.9 25.9 94.8 Q27.1 94.5 27.35 93.3 29.2 94.4 31.45 94.15 L32.4 93.95 Q31.8 95.95 29.45 96.0" fill="#4a5533" fill-rule="evenodd" stroke="none"/>
    <path d="M24.25 96.25 L22.85 94.75 22.95 95.35 Q23.8 97.35 25.45 97.65 L24.7 97.9 24.15 97.95 Q21.45 98.15 19.35 96.55 19.95 96.6 19.4 96.35 17.7 95.5 15.85 95.1 L15.85 94.25 19.05 94.35 19.8 92.7 21.95 92.85 22.2 93.45 24.25 96.25 M11.0 94.05 L11.1 93.2 10.6 92.8 10.85 91.3 12.4 92.5 Q11.25 92.55 12.7 93.75 13.7 94.6 15.05 94.5 15.1 95.85 16.3 96.3 L16.1 96.3 Q12.35 97.05 11.0 94.05" fill="#1a2500" fill-rule="evenodd" stroke="none"/>
    <path d="M24.55 92.05 L25.0 92.45 27.05 92.8 27.35 93.3 Q27.1 94.5 25.9 94.8 L25.1 94.9 23.55 93.25 24.55 92.05" fill="#596442" fill-rule="evenodd" stroke="none"/>
    <path d="M9.8 92.45 L9.25 92.1 Q8.5 89.55 10.95 89.15 L11.5 89.1 11.9 89.6 13.0 87.55 13.55 87.45 14.1 87.7 14.7 87.4 14.5 89.75 13.55 90.85 12.0 91.05 11.3 90.45 10.0 90.9 9.8 92.45" fill="#5c6138" fill-rule="evenodd" stroke="none"/>
    <path d="M17.1 97.9 L17.05 97.9 17.0 97.8 16.4 97.05 Q12.0 98.5 10.35 94.6 L10.55 94.2 11.0 94.05 Q12.35 97.05 16.1 96.3 L16.3 96.3 19.35 96.55 Q21.45 98.15 24.15 97.95 L24.7 97.9 24.2 98.15 Q20.45 99.75 17.1 97.9" fill="#636244" fill-rule="evenodd" stroke="none"/>
    <path d="M25.45 97.65 Q24.35 100.2 21.6 100.45 19.05 100.8 17.25 99.1 L17.1 97.9 Q20.45 99.75 24.2 98.15 L24.7 97.9 25.45 97.65 M17.0 97.8 L16.35 97.7 Q11.85 100.15 9.65 95.75 L10.35 94.6 Q12.0 98.5 16.4 97.05 L17.0 97.8" fill="#949786" fill-rule="evenodd" stroke="none"/>
    <path d="M25.85 102.6 L25.7 101.15 27.45 99.45 Q29.0 101.55 28.5 104.2 L28.85 104.3 Q31.75 103.35 33.4 100.5 34.15 99.15 33.9 97.75 L35.45 96.95 Q37.3 99.95 35.1 102.45 32.7 105.05 29.35 106.45 28.4 109.2 28.85 111.95 L27.55 112.15 25.65 112.3 25.65 111.45 Q27.8 111.65 27.8 109.45 L27.85 108.55 Q28.35 105.6 30.95 104.35 L33.9 102.45 Q35.75 100.85 34.95 98.4 L34.9 99.05 34.5 98.2 33.8 101.5 30.0 103.95 27.6 106.3 26.8 101.5 25.85 102.6" fill="#55372f" fill-rule="evenodd" stroke="none"/>
    <path d="M25.65 111.45 L25.85 102.6 26.8 101.5 27.6 106.3 30.0 103.95 Q29.8 104.3 30.0 104.35 34.6 103.3 34.9 99.05 L34.95 98.4 Q35.75 100.85 33.9 102.45 L30.95 104.35 Q28.35 105.6 27.85 108.55 L27.8 109.45 Q27.8 111.65 25.65 111.45 M26.55 109.3 Q27.5 108.6 26.55 103.3 L26.55 109.3" fill="#6d4a44" fill-rule="evenodd" stroke="none"/>
    <path d="M18.5 107.95 Q18.85 108.05 19.4 108.5 L17.5 110.3 Q16.9 110.3 16.45 111.05 16.0 111.8 16.0 112.9 L15.25 111.3 Q16.75 109.1 18.5 107.95 M35.3 112.15 L34.45 112.75 34.4 111.55 36.0 110.0 35.3 112.15" fill="#969080" fill-rule="evenodd" stroke="none"/>
    <path d="M19.4 108.5 Q18.85 108.05 18.5 107.95 21.7 106.0 24.35 105.75 L24.75 106.8 Q22.5 106.8 19.4 108.5 M36.0 108.3 Q37.4 109.85 35.85 111.6 L35.3 112.15 36.0 110.0 Q36.7 109.15 36.0 108.3" fill="#6f855e" fill-rule="evenodd" stroke="none"/>
    <path d="M23.95 107.65 L24.6 107.5 24.6 108.75 24.05 109.6 23.45 107.8 23.95 107.65" fill="#325128" fill-rule="evenodd" stroke="none"/>
    <path d="M22.95 107.95 L23.95 107.65 23.45 107.8 24.05 109.6 24.6 108.75 24.6 112.0 23.45 112.25 Q23.7 111.75 23.3 110.7 L22.8 109.65 22.95 107.95" fill="#35432c" fill-rule="evenodd" stroke="none"/>
    <path d="M23.45 112.25 L23.35 112.4 22.1 112.4 22.85 111.15 Q21.7 110.05 21.9 108.35 L22.95 107.95 22.8 109.65 23.3 110.7 Q23.7 111.75 23.45 112.25 M29.8 108.0 L31.3 107.9 31.85 108.0 31.95 110.7 30.7 111.4 30.7 110.55 Q30.75 109.0 29.8 108.0" fill="#122b0e" fill-rule="evenodd" stroke="none"/>
    <path d="M16.0 112.9 Q16.0 111.8 16.45 111.05 16.9 110.3 17.5 110.3 17.1 111.25 17.7 111.9 17.4 112.8 18.45 113.35 20.35 114.4 22.75 114.45 26.65 114.85 30.25 113.65 33.1 112.6 34.4 111.55 L34.45 112.75 Q25.5 118.05 16.7 113.35 L16.0 112.9" fill="#9ba292" fill-rule="evenodd" stroke="none"/>
    <path d="M30.25 113.65 Q26.65 114.85 22.75 114.45 20.35 114.4 18.45 113.35 17.4 112.8 17.7 111.9 18.75 113.45 23.9 113.45 28.9 113.45 31.55 112.1 L30.25 113.65" fill="#ebe1d8" fill-rule="evenodd" stroke="none"/>
    <path d="M20.15 118.7 Q20.1 122.85 21.85 126.4 L21.05 125.35 Q19.15 122.15 18.65 118.3 L20.15 118.7" fill="#5c534a" fill-rule="evenodd" stroke="none"/>
    <path d="M24.8 119.6 L26.75 119.7 Q26.4 120.85 27.25 123.45 L28.95 123.35 28.45 126.85 29.15 127.5 31.15 127.5 30.75 119.3 32.05 118.9 32.75 124.35 32.65 127.5 32.2 127.75 Q29.65 128.75 26.85 128.4 L25.5 126.1 26.35 124.25 Q25.8 123.75 25.2 122.0 24.55 120.2 24.8 119.6" fill="#697d62" fill-rule="evenodd" stroke="none"/>
    <path d="M26.85 128.4 L24.05 127.75 Q22.0 123.8 22.2 119.15 L24.8 119.6 Q24.55 120.2 25.2 122.0 25.8 123.75 26.35 124.25 L25.5 126.1 26.85 128.4" fill="#1f3a19" fill-rule="evenodd" stroke="none"/>
    <path d="M20.4 127.15 L20.9 127.55 20.55 128.2 Q22.65 131.55 31.25 130.5 34.65 129.95 35.2 126.9 L35.7 126.25 Q36.05 127.35 35.3 128.7 34.35 130.55 32.05 131.9 26.9 132.95 21.25 130.8 19.5 128.8 20.4 127.15" fill="#adafa2" fill-rule="evenodd" stroke="none"/>
    <path d="M21.25 130.8 L19.55 129.65 19.45 128.4 Q19.5 127.2 19.9 126.7 L20.4 127.15 Q19.5 128.8 21.25 130.8 M35.7 126.25 L36.75 124.15 37.65 124.4 Q38.45 127.25 36.25 129.45 34.4 131.4 32.05 131.9 34.35 130.55 35.3 128.7 36.05 127.35 35.7 126.25" fill="#858176" fill-rule="evenodd" stroke="none"/>
    <path d="M20.9 127.55 Q27.9 131.85 34.6 127.4 L35.2 126.9 Q34.65 129.95 31.25 130.5 22.65 131.55 20.55 128.2 L20.9 127.55" fill="#c6cabc" fill-rule="evenodd" stroke="none"/>
    <path d="M26.75 119.7 L28.5 119.65 30.25 125.8 30.75 126.0 30.75 119.3 31.15 127.5 29.15 127.5 28.45 126.85 28.95 123.35 27.25 123.45 Q26.4 120.85 26.75 119.7" fill="#96b18e" fill-rule="evenodd" stroke="none"/>
    <path d="M34.75 113.75 L35.3 113.4 35.7 114.0 Q33.05 118.8 27.1 118.35 18.15 117.25 16.65 114.95 L20.75 116.2 Q24.4 117.6 28.45 117.1 32.3 116.55 34.75 113.75" fill="#647d55" fill-rule="evenodd" stroke="none"/>
    <path d="M30.0 103.95 L33.8 101.5 34.5 98.2 34.9 99.05 Q34.6 103.3 30.0 104.35 29.8 104.3 30.0 103.95 M26.55 109.3 L26.55 103.3 Q27.5 108.6 26.55 109.3" fill="#8c635d" fill-rule="evenodd" stroke="none"/>
    <path d="M32.55 89.25 Q33.05 89.55 32.6 90.9 32.15 92.2 31.7 92.35 L29.25 92.7 Q31.5 91.85 31.25 89.35 L32.55 89.25" fill="#515934" fill-rule="evenodd" stroke="none"/>
    <path d="M31.55 112.1 Q33.95 111.3 35.1 109.0 L35.15 108.7 Q34.75 107.95 34.05 107.55 32.6 106.85 31.1 106.7 L31.9 106.2 Q34.35 106.5 36.0 108.3 36.7 109.15 36.0 110.0 L34.4 111.55 Q33.1 112.6 30.25 113.65 L31.55 112.1" fill="#dfe6de" fill-rule="evenodd" stroke="none"/>
    <path d="M34.75 113.75 Q32.3 116.55 28.45 117.1 24.4 117.6 20.75 116.2 27.75 117.3 33.9 114.2 L34.75 113.75" fill="#909f8c" fill-rule="evenodd" stroke="none"/>
    <path d="M29.8 108.0 Q30.75 109.0 30.7 110.55 L30.7 111.4 29.3 111.85 29.8 108.0" fill="#636655" fill-rule="evenodd" stroke="none"/>
    <path d="M28.5 119.65 L30.75 119.3 30.75 126.0 30.25 125.8 28.5 119.65" fill="#a1bf9b" fill-rule="evenodd" stroke="none"/>
    <path d="M34.75 117.35 L35.35 116.85 Q36.0 120.15 35.3 123.85 34.85 126.35 32.65 127.5 L32.75 124.35 Q33.2 124.35 34.0 121.45 34.8 118.65 34.75 117.35" fill="#55553d" fill-rule="evenodd" stroke="none"/>
    <path d="M32.05 118.9 L34.75 117.35 Q34.8 118.65 34.0 121.45 33.2 124.35 32.75 124.35 L32.05 118.9" fill="#303820" fill-rule="evenodd" stroke="none"/>
  </g>
</svg>
