<?xml version="1.0" encoding="UTF-8" standalone="no"?>
<svg xmlns:ffdec="https://www.free-decompiler.com/flash" xmlns:xlink="http://www.w3.org/1999/xlink" ffdec:objectType="shape" height="18.9px" width="12.9px" xmlns="http://www.w3.org/2000/svg">
  <g transform="matrix(1.2, 0.0, 0.0, 1.2, 0.0, 0.0)">
    <path d="M2.3 0.0 L10.25 1.05 Q11.9 8.95 8.15 15.75 L0.0 15.05 Q2.3 4.95 2.3 0.0 M7.65 5.55 L8.05 1.6 3.25 1.0 3.3 2.15 3.15 5.15 2.25 10.2 1.8 12.1 6.2 12.4 6.5 11.1 6.15 10.85 Q3.2 9.35 3.85 6.25 L4.3 5.8 7.65 5.55 M8.55 8.55 Q8.4 10.05 7.65 10.5 L7.1 12.95 Q6.85 13.45 5.5 13.4 L1.5 13.25 1.25 14.2 7.3 14.7 Q8.2 13.6 9.2 8.3 L9.65 5.85 8.8 5.9 8.55 8.55 M7.9 8.75 Q8.05 7.5 7.3 7.4 6.15 7.15 5.85 8.4 5.55 9.6 6.9 9.9 7.7 10.0 7.9 8.75 M7.0 6.6 Q3.3 5.8 4.9 9.05 5.05 6.5 7.0 6.6" fill="#000000" fill-rule="evenodd" stroke="none"/>
    <path d="M3.3 2.15 L3.25 1.0 8.05 1.6 7.65 5.55 3.3 2.15" fill="#573229" fill-rule="evenodd" stroke="none"/>
    <path d="M8.55 8.55 L8.8 5.9 9.65 5.85 9.2 8.3 8.55 8.55" fill="#75544b" fill-rule="evenodd" stroke="none"/>
    <path d="M7.9 8.75 Q7.7 10.0 6.9 9.9 5.55 9.6 5.85 8.4 6.15 7.15 7.3 7.4 8.05 7.5 7.9 8.75" fill="#5b332b" fill-rule="evenodd" stroke="none"/>
    <path d="M9.2 8.3 Q8.2 13.6 7.3 14.7 L1.25 14.2 1.5 13.25 5.5 13.4 Q6.85 13.45 7.1 12.95 L7.65 10.5 Q8.4 10.05 8.55 8.55 L9.2 8.3" fill="#ad8b81" fill-rule="evenodd" stroke="none"/>
    <path d="M4.3 5.8 L3.85 6.25 Q3.2 9.35 6.15 10.85 L6.5 11.1 5.2 11.2 Q3.25 11.2 2.25 10.2 L3.15 5.15 4.3 5.8" fill="#ab8673" fill-rule="evenodd" stroke="none"/>
    <path d="M7.65 5.55 L4.3 5.8 3.15 5.15 3.3 2.15 7.65 5.55" fill="#7d5249" fill-rule="evenodd" stroke="none"/>
    <path d="M6.5 11.1 L6.2 12.4 1.8 12.1 2.25 10.2 Q3.25 11.2 5.2 11.2 L6.5 11.1" fill="#c9a693" fill-rule="evenodd" stroke="none"/>
    <path d="M7.0 6.6 Q5.05 6.5 4.9 9.05 3.3 5.8 7.0 6.6" fill="#370100" fill-rule="evenodd" stroke="none"/>
  </g>
</svg>
