<?xml version="1.0" encoding="UTF-8" standalone="no"?>
<svg xmlns:ffdec="https://www.free-decompiler.com/flash" xmlns:xlink="http://www.w3.org/1999/xlink" ffdec:objectType="shape" height="59.7px" width="71.7px" xmlns="http://www.w3.org/2000/svg">
  <g transform="matrix(1.2, 0.0, 0.0, 1.2, 0.0, 0.0)">
    <path d="M50.75 7.65 L52.45 6.25 51.85 5.9 Q57.9 9.1 57.75 12.65 57.65 14.6 56.05 15.6 L56.25 14.05 Q56.25 10.8 50.75 7.65 M57.25 12.2 Q57.35 8.95 54.05 7.75 L53.25 7.45 57.25 12.2" fill="#8c7679" fill-rule="evenodd" stroke="none"/>
    <path d="M51.85 5.9 L52.45 6.25 50.75 7.65 48.7 6.6 48.8 4.45 51.85 5.9" fill="#6e5559" fill-rule="evenodd" stroke="none"/>
    <path d="M57.25 12.2 L53.25 7.45 54.05 7.75 Q57.35 8.95 57.25 12.2" fill="#a19393" fill-rule="evenodd" stroke="none"/>
    <path d="M50.75 7.65 Q56.25 10.8 56.25 14.05 L56.05 15.6 Q57.65 14.6 57.75 12.65 57.9 9.1 51.85 5.9 L48.8 4.45 45.0 3.0 42.85 2.45 Q37.95 0.9 33.35 2.75 L36.5 3.05 40.3 3.6 41.3 3.8 Q45.25 4.75 48.7 6.6 L50.75 7.65 M44.5 13.25 L44.35 14.8 Q49.25 16.4 54.25 15.85 L54.95 15.1 Q55.05 12.9 53.4 11.5 L52.85 10.95 44.2 5.95 Q39.45 4.1 34.5 3.95 30.05 3.4 31.05 7.8 L31.7 8.75 Q36.65 5.1 42.95 6.95 L43.35 7.2 Q45.9 9.7 44.5 13.25 M28.1 15.4 L28.6 16.25 Q33.8 11.2 41.05 10.3 L41.2 8.45 38.9 8.05 35.4 8.0 26.45 14.45 27.6 14.95 28.1 15.4 M59.5 14.8 Q56.65 17.7 52.7 17.45 43.4 17.3 35.25 12.6 L28.8 17.25 Q28.25 23.05 23.5 26.2 L25.0 28.05 Q24.85 30.5 23.7 30.35 29.55 32.0 34.65 35.45 36.8 38.9 34.0 41.75 31.65 44.05 29.7 46.65 25.9 51.85 20.75 48.35 9.85 41.1 0.0 32.35 0.65 29.3 0.1 26.3 -0.05 25.45 0.3 24.65 2.0 20.7 5.75 22.4 L14.1 26.15 14.8 23.9 17.8 23.6 20.75 18.85 Q21.6 16.25 24.0 14.85 L25.2 14.3 Q27.7 11.65 30.85 9.55 28.1 5.0 32.7 1.6 35.55 -0.55 39.2 0.15 48.5 1.75 56.4 6.95 60.6 9.65 59.5 14.8 M19.15 23.7 L22.85 25.75 Q24.55 22.75 26.8 20.1 28.45 18.15 27.1 16.1 L25.05 15.65 19.15 23.7 M4.0 23.0 Q2.0 23.05 1.3 25.2 0.2 28.65 3.7 31.1 21.45 43.55 25.2 44.0 L24.7 43.65 Q23.3 42.6 22.8 41.1 L22.25 38.8 22.7 35.9 24.2 34.4 26.45 34.15 4.0 23.0 M2.1 27.2 L1.85 26.05 2.35 25.15 2.9 26.4 Q4.75 26.4 5.45 27.9 L5.8 28.8 2.95 27.8 2.1 27.2 M19.75 25.6 L16.8 24.85 15.7 24.7 15.6 25.6 20.95 28.15 23.05 29.65 23.8 29.05 23.95 28.2 21.05 26.05 19.75 25.6 M17.75 36.65 L17.85 36.15 18.1 36.05 Q20.3 36.45 19.4 37.4 L17.75 36.65 M13.9 32.9 L12.7 33.6 Q10.15 32.4 8.6 30.25 L7.1 30.35 Q7.15 29.25 8.9 29.4 L9.35 29.5 9.8 30.85 Q11.4 31.2 12.7 32.4 L15.25 32.55 17.0 34.95 Q15.2 34.6 13.9 32.9 M9.75 37.3 Q4.95 33.9 0.95 30.5 L1.2 31.65 Q1.45 32.5 6.05 36.1 22.3 48.2 24.15 48.55 26.65 48.8 27.9 46.7 28.65 45.45 29.8 44.3 L33.35 40.05 Q35.9 36.55 32.0 34.95 L24.25 31.7 Q32.55 35.55 31.75 36.75 31.95 37.75 30.15 40.85 28.3 43.95 26.4 44.75 L22.35 44.55 15.0 40.75 9.75 37.3 M26.3 35.2 Q24.05 35.0 23.6 37.05 22.7 41.35 26.5 43.1 30.05 40.75 30.4 36.5 28.55 35.45 26.3 35.2" fill="#000000" fill-rule="evenodd" stroke="none"/>
    <path d="M52.85 10.95 L53.4 11.5 Q55.05 12.9 54.95 15.1 L54.25 15.85 Q49.25 16.4 44.35 14.8 L44.5 13.25 Q48.95 15.2 53.3 13.4 L52.85 10.95" fill="#919191" fill-rule="evenodd" stroke="none"/>
    <path d="M42.85 2.45 L41.95 2.35 Q38.7 2.35 36.5 3.05 L33.35 2.75 Q37.95 0.9 42.85 2.45" fill="#9c9697" fill-rule="evenodd" stroke="none"/>
    <path d="M36.5 3.05 Q38.7 2.35 41.95 2.35 L42.85 2.45 45.0 3.0 40.3 3.6 36.5 3.05" fill="#706a6e" fill-rule="evenodd" stroke="none"/>
    <path d="M38.9 8.05 L41.2 8.45 41.05 10.3 Q33.8 11.2 28.6 16.25 L28.1 15.4 Q32.8 10.95 38.85 9.25 L38.9 8.05" fill="#616161" fill-rule="evenodd" stroke="none"/>
    <path d="M44.5 13.25 Q45.9 9.7 43.35 7.2 L42.95 6.95 44.05 6.25 44.2 5.95 52.85 10.95 53.3 13.4 Q48.95 15.2 44.5 13.25" fill="#6f7575" fill-rule="evenodd" stroke="none"/>
    <path d="M42.95 6.95 Q36.65 5.1 31.7 8.75 L31.05 7.8 Q31.35 5.0 36.9 5.0 39.85 5.0 44.05 6.25 L42.95 6.95" fill="#bcbbc0" fill-rule="evenodd" stroke="none"/>
    <path d="M31.05 7.8 Q30.05 3.4 34.5 3.95 39.45 4.1 44.2 5.95 L44.05 6.25 Q39.85 5.0 36.9 5.0 31.35 5.0 31.05 7.8" fill="#fcf1f5" fill-rule="evenodd" stroke="none"/>
    <path d="M48.8 4.45 L48.7 6.6 Q45.25 4.75 41.3 3.8 L40.3 3.6 45.0 3.0 48.8 4.45" fill="#5e4348" fill-rule="evenodd" stroke="none"/>
    <path d="M27.6 14.95 L26.45 14.45 35.4 8.0 35.25 8.3 Q31.95 12.15 27.6 14.95" fill="#dfdfdf" fill-rule="evenodd" stroke="none"/>
    <path d="M28.1 15.4 L27.6 14.95 Q31.95 12.15 35.25 8.3 L35.4 8.0 38.9 8.05 38.85 9.25 Q32.8 10.95 28.1 15.4" fill="#adabac" fill-rule="evenodd" stroke="none"/>
    <path d="M24.7 16.55 L25.1 17.25 Q23.9 19.4 22.2 21.05 L21.7 21.35 Q22.55 18.55 24.7 16.55" fill="#f7f5f6" fill-rule="evenodd" stroke="none"/>
    <path d="M24.7 16.55 Q22.55 18.55 21.7 21.35 L22.2 21.05 Q23.9 19.4 25.1 17.25 L24.7 16.55 M27.1 16.1 Q25.35 20.0 22.35 23.35 L21.6 24.35 19.15 23.7 25.05 15.65 27.1 16.1" fill="#a5a0a4" fill-rule="evenodd" stroke="none"/>
    <path d="M19.15 23.7 L21.6 24.35 22.35 23.35 Q25.35 20.0 27.1 16.1 28.45 18.15 26.8 20.1 24.55 22.75 22.85 25.75 L19.15 23.7" fill="#656364" fill-rule="evenodd" stroke="none"/>
    <path d="M4.0 23.0 L3.5 23.55 2.5 24.85 2.35 25.15 1.85 26.05 2.1 27.2 Q9.3 35.3 19.3 39.6 21.05 40.3 22.8 41.1 23.3 42.6 24.7 43.65 L25.2 44.0 Q21.45 43.55 3.7 31.1 0.2 28.65 1.3 25.2 2.0 23.05 4.0 23.0 M2.1 24.85 L2.15 24.8 2.1 24.8 2.1 24.85" fill="#827d83" fill-rule="evenodd" stroke="none"/>
    <path d="M3.5 23.55 L4.0 23.0 26.45 34.15 24.2 34.4 3.5 23.55" fill="#bcb8b9" fill-rule="evenodd" stroke="none"/>
    <path d="M19.75 25.6 L20.05 26.3 16.65 25.6 16.8 24.85 19.75 25.6" fill="#f8f3fa" fill-rule="evenodd" stroke="none"/>
    <path d="M16.8 24.85 L16.65 25.6 20.05 26.3 19.75 25.6 21.05 26.05 Q21.4 26.4 21.4 26.85 L20.55 27.95 20.95 28.15 15.6 25.6 15.7 24.7 16.8 24.85" fill="#b1acb3" fill-rule="evenodd" stroke="none"/>
    <path d="M2.35 25.15 L2.5 24.85 22.7 35.9 22.25 38.8 Q12.6 34.7 3.9 28.45 L2.95 27.8 5.8 28.8 5.45 27.9 Q4.75 26.4 2.9 26.4 L2.35 25.15 M13.9 32.9 Q15.2 34.6 17.0 34.95 L15.25 32.55 12.7 32.4 Q11.4 31.2 9.8 30.85 L9.35 29.5 8.9 29.4 Q7.15 29.25 7.1 30.35 L8.6 30.25 Q10.15 32.4 12.7 33.6 L13.9 32.9 M17.75 36.65 L19.4 37.4 Q20.3 36.45 18.1 36.05 L17.85 36.15 17.75 36.65" fill="#bdc0c5" fill-rule="evenodd" stroke="none"/>
    <path d="M22.8 41.1 Q21.05 40.3 19.3 39.6 9.3 35.3 2.1 27.2 L2.95 27.8 3.9 28.45 Q12.6 34.7 22.25 38.8 L22.8 41.1 M2.1 24.85 L2.1 24.8 2.15 24.8 2.1 24.85" fill="#9f9ea4" fill-rule="evenodd" stroke="none"/>
    <path d="M6.05 36.1 Q1.45 32.5 1.2 31.65 L0.95 30.5 Q4.95 33.9 9.75 37.3 L9.0 37.05 Q14.85 42.5 23.05 45.95 L15.0 40.75 22.35 44.55 26.4 44.75 25.9 44.95 24.8 47.9 Q23.05 47.65 20.05 45.65 12.95 41.0 6.05 36.1" fill="#a5a4a2" fill-rule="evenodd" stroke="none"/>
    <path d="M32.0 34.95 Q35.9 36.55 33.35 40.05 L29.8 44.3 Q28.65 45.45 27.9 46.7 26.65 48.8 24.15 48.55 22.3 48.2 6.05 36.1 12.95 41.0 20.05 45.65 23.05 47.65 24.8 47.9 28.75 44.75 32.0 40.65 34.25 37.8 32.0 34.95" fill="#736f6c" fill-rule="evenodd" stroke="none"/>
    <path d="M9.75 37.3 L15.0 40.75 23.05 45.95 Q14.85 42.5 9.0 37.05 L9.75 37.3" fill="#cec7cf" fill-rule="evenodd" stroke="none"/>
    <path d="M20.95 28.15 L20.55 27.95 21.4 26.85 Q21.4 26.4 21.05 26.05 L23.95 28.2 23.8 29.05 23.05 29.65 20.95 28.15" fill="#8d888e" fill-rule="evenodd" stroke="none"/>
    <path d="M2.5 24.85 L3.5 23.55 24.2 34.4 22.7 35.9 2.5 24.85" fill="#f7f5f8" fill-rule="evenodd" stroke="none"/>
    <path d="M26.3 35.2 Q28.55 35.45 30.4 36.5 30.05 40.75 26.5 43.1 22.7 41.35 23.6 37.05 24.05 35.0 26.3 35.2" fill="#69726d" fill-rule="evenodd" stroke="none"/>
    <path d="M26.4 44.75 Q28.3 43.95 30.15 40.85 31.95 37.75 31.75 36.75 32.55 35.55 24.25 31.7 L32.0 34.95 Q34.25 37.8 32.0 40.65 28.75 44.75 24.8 47.9 L25.9 44.95 26.4 44.75" fill="#96939c" fill-rule="evenodd" stroke="none"/>
  </g>
</svg>
