<?xml version="1.0" encoding="UTF-8" standalone="no"?>
<svg xmlns:ffdec="https://www.free-decompiler.com/flash" xmlns:xlink="http://www.w3.org/1999/xlink" ffdec:objectType="shape" height="39.54px" width="18.72px" xmlns="http://www.w3.org/2000/svg">
  <g transform="matrix(1.2, 0.0, 0.0, 1.2, 0.0, 0.0)">
    <path d="M14.2 8.3 L14.25 5.25 3.6 1.7 3.45 3.85 5.35 3.3 12.0 6.0 11.95 11.75 11.3 27.45 8.3 29.2 4.3 28.2 10.3 30.4 13.35 31.45 13.55 26.7 Q13.95 20.9 14.2 8.3 M10.5 7.9 L9.05 8.05 8.4 27.65 10.45 26.65 10.5 7.9 M0.25 4.8 L2.45 4.15 2.4 0.0 Q9.25 2.25 15.6 4.0 L14.7 32.95 Q8.55 32.2 3.25 29.05 L3.05 27.0 Q0.1 26.9 0.0 23.65 L0.25 4.8 M7.75 11.0 L7.8 8.0 1.35 5.95 1.1 9.0 0.95 22.75 Q0.85 24.6 2.55 25.55 4.75 26.8 7.25 27.3 L7.4 23.4 7.75 11.0 M5.15 13.8 L5.1 12.65 3.8 12.15 3.55 15.95 4.2 16.25 5.3 16.8 5.15 13.8 M6.4 12.6 L6.35 22.55 1.85 20.85 2.55 10.7 Q4.7 11.1 6.4 12.6 M5.35 4.45 L2.85 5.05 8.75 7.2 10.45 6.8 5.35 4.45 M3.5 17.25 L3.3 20.15 5.45 20.8 5.35 18.1 3.5 17.25" fill="#000000" fill-rule="evenodd" stroke="none"/>
    <path d="M10.5 7.9 L10.45 26.65 8.4 27.65 9.05 8.05 10.5 7.9" fill="#5e4f54" fill-rule="evenodd" stroke="none"/>
    <path d="M11.95 11.75 L12.0 6.0 5.35 3.3 3.45 3.85 3.6 1.7 14.25 5.25 14.2 8.3 11.95 11.75" fill="#ae9791" fill-rule="evenodd" stroke="none"/>
    <path d="M14.2 8.3 Q13.95 20.9 13.55 26.7 L10.3 30.4 4.3 28.2 8.3 29.2 11.3 27.45 11.95 11.75 14.2 8.3" fill="#6b5758" fill-rule="evenodd" stroke="none"/>
    <path d="M1.1 9.0 L1.35 5.95 7.8 8.0 7.75 11.0 1.1 9.0 M7.4 23.4 L7.25 27.3 Q4.75 26.8 2.55 25.55 0.85 24.6 0.95 22.75 L7.4 23.4" fill="#f0e4e6" fill-rule="evenodd" stroke="none"/>
    <path d="M4.2 16.25 L3.55 15.95 3.8 12.15 5.1 12.65 5.15 13.8 4.2 16.25" fill="#54484c" fill-rule="evenodd" stroke="none"/>
    <path d="M7.75 11.0 L7.4 23.4 0.95 22.75 1.1 9.0 7.75 11.0 M6.4 12.6 Q4.7 11.1 2.55 10.7 L1.85 20.85 6.35 22.55 6.4 12.6" fill="#ead1cd" fill-rule="evenodd" stroke="none"/>
    <path d="M5.35 4.45 L10.45 6.8 8.75 7.2 2.85 5.05 5.35 4.45" fill="#b9a4ab" fill-rule="evenodd" stroke="none"/>
    <path d="M4.2 16.25 L5.15 13.8 5.3 16.8 4.2 16.25" fill="#8b7c7f" fill-rule="evenodd" stroke="none"/>
    <path d="M3.5 17.25 L5.35 18.1 5.45 20.8 3.3 20.15 3.5 17.25" fill="#b8afb4" fill-rule="evenodd" stroke="none"/>
    <path d="M13.55 26.7 L13.35 31.45 10.3 30.4 13.55 26.7" fill="#9b7970" fill-rule="evenodd" stroke="none"/>
  </g>
</svg>
