<?xml version="1.0" encoding="UTF-8" standalone="no"?>
<svg xmlns:ffdec="https://www.free-decompiler.com/flash" xmlns:xlink="http://www.w3.org/1999/xlink" ffdec:objectType="shape" height="170.88px" width="34.56px" xmlns="http://www.w3.org/2000/svg">
  <g transform="matrix(1.2, 0.0, 0.0, 1.2, 16.44, 158.52)">
    <path d="M1.8 -17.0 Q2.6 -16.45 2.65 -15.45 L3.15 -7.55 5.1 -7.35 Q9.2 -6.05 11.2 -2.3 12.45 0.0 14.9 0.8 15.95 4.35 11.65 7.05 7.35 9.75 -1.0 10.3 -8.4 10.2 -11.25 7.95 -14.65 5.15 -13.3 4.05 L-10.8 1.5 Q-9.6 0.1 -8.35 -2.5 -7.15 -5.15 -3.3 -7.1 -4.05 -15.25 -3.15 -16.2 -2.3 -17.2 -1.15 -17.65 0.0 -18.1 1.8 -17.0 M1.95 -14.55 L1.45 -16.1 -0.4 -16.65 -2.6 -15.5 -2.6 -14.5 Q-0.25 -14.0 1.95 -14.55 M-0.25 -5.35 L1.7 -5.7 Q2.45 -6.75 2.3 -8.1 L1.7 -13.25 0.1 -13.15 -1.6 -13.35 -2.55 -14.0 Q-2.7 -10.65 -2.45 -7.4 -2.35 -5.75 -1.25 -5.35 L-0.25 -5.35 M4.3 -4.6 Q7.5 -3.85 7.55 1.05 6.7 -2.05 4.2 -4.0 L4.1 -4.05 4.1 -4.1 4.05 -4.55 4.3 -4.6 M11.05 2.7 L8.95 1.9 11.6 2.25 11.65 2.4 Q11.85 2.85 11.05 2.7 M11.5 5.55 Q12.6 5.1 13.45 3.95 14.35 2.65 13.95 1.65 9.85 0.65 8.5 -3.2 8.15 -4.15 7.3 -4.85 5.5 -6.3 3.15 -6.55 L3.05 -5.1 2.85 -4.9 2.45 -4.6 Q0.0 -3.8 -2.45 -4.6 L-2.95 -4.95 -3.15 -5.8 -3.2 -6.25 -3.5 -6.05 Q-5.3 -5.75 -8.15 -0.7 -11.05 4.5 -12.55 5.0 L-11.65 6.05 Q-9.65 8.1 -6.8 8.4 2.9 10.05 11.5 5.55 M-4.3 -2.45 L-3.15 -3.75 -2.4 -2.8 -6.95 4.6 -6.45 2.15 -6.0 0.8 -4.3 -2.45 M-0.4 -13.15 Q-0.45 -9.6 -0.85 -6.8 -1.45 -7.75 -1.5 -13.3 L-0.4 -13.15 M-3.45 5.65 L-3.5 5.75 -6.1 5.9 Q-6.7 5.5 -6.4 4.95 L-3.45 5.65" fill="#000000" fill-rule="evenodd" stroke="none"/>
    <path d="M-2.4 -2.8 Q-3.4 -0.15 -3.6 2.6 L-3.6 3.75 0.45 5.45 Q-2.3 6.8 -5.25 6.65 L-7.15 6.45 -8.25 5.9 -6.45 2.15 -6.95 4.6 -2.4 -2.8 M-3.45 5.65 L-6.4 4.95 Q-6.7 5.5 -6.1 5.9 L-3.5 5.75 -3.45 5.65" fill="#123740" fill-rule="evenodd" stroke="none"/>
    <path d="M3.3 -4.85 L4.3 -4.6 4.05 -4.55 4.1 -4.1 Q-0.05 -4.3 -0.95 -0.3 -1.25 0.9 -0.75 2.2 2.1 4.0 5.5 3.6 L5.5 3.85 Q3.95 6.8 -4.0 6.8 L-5.25 6.65 Q-2.3 6.8 0.45 5.45 L-3.6 3.75 -3.6 2.6 Q-3.4 -0.15 -2.4 -2.8 L-3.15 -3.75 -4.3 -2.45 -3.5 -4.1 -2.45 -4.6 Q0.0 -3.8 2.45 -4.6 L2.85 -4.9 3.3 -4.85" fill="#2e6371" fill-rule="evenodd" stroke="none"/>
    <path d="M3.05 -5.1 L3.3 -4.85 2.85 -4.9 3.05 -5.1 M4.2 -4.0 L4.55 -3.55 Q6.65 -0.1 5.5 3.6 2.1 4.0 -0.75 2.2 -1.25 0.9 -0.95 -0.3 -0.05 -4.3 4.1 -4.1 L4.1 -4.05 4.2 -4.0" fill="#6fa4ac" fill-rule="evenodd" stroke="none"/>
    <path d="M-3.5 -4.1 L-4.3 -2.45 -6.0 0.8 -6.45 2.15 -8.25 5.9 -7.15 6.45 Q-8.2 6.45 -9.0 5.9 -9.85 5.35 -9.85 4.55 L-8.8 4.2 Q-7.25 -1.2 -3.5 -4.1" fill="#67838e" fill-rule="evenodd" stroke="none"/>
    <path d="M-4.0 6.8 L1.25 7.2 4.0 6.8 Q8.8 7.45 11.6 3.15 11.9 2.7 11.65 2.3 L11.75 2.1 Q12.95 3.8 11.5 5.55 2.9 10.05 -6.8 8.4 -9.65 8.1 -11.65 6.05 L-11.5 5.55 -9.85 4.55 Q-9.85 5.35 -9.0 5.9 -8.2 6.45 -7.15 6.45 L-5.25 6.65 -4.0 6.8 M-3.15 -5.8 L-3.5 -6.05 -3.2 -6.25 -3.15 -5.8" fill="#b6bdcd" fill-rule="evenodd" stroke="none"/>
    <path d="M3.3 -4.85 L3.05 -5.1 3.15 -6.55 Q5.5 -6.3 7.3 -4.85 8.15 -4.15 8.5 -3.2 9.85 0.65 13.95 1.65 14.35 2.65 13.45 3.95 12.6 5.1 11.5 5.55 12.95 3.8 11.75 2.1 L11.65 2.3 11.6 2.25 8.95 1.9 11.05 2.7 Q8.05 5.55 4.05 6.75 L4.0 6.8 1.25 7.2 -4.0 6.8 Q3.95 6.8 5.5 3.85 L5.5 3.6 Q6.65 -0.1 4.55 -3.55 L4.2 -4.0 Q6.7 -2.05 7.55 1.05 7.5 -3.85 4.3 -4.6 L3.3 -4.85" fill="#9bc1cc" fill-rule="evenodd" stroke="none"/>
    <path d="M4.0 6.8 L4.05 6.75 Q8.05 5.55 11.05 2.7 11.85 2.85 11.65 2.4 L11.6 2.25 11.65 2.3 Q11.9 2.7 11.6 3.15 8.8 7.45 4.0 6.8 M-2.45 -4.6 L-3.5 -4.1 Q-7.25 -1.2 -8.8 4.2 L-9.85 4.55 -11.5 5.55 -11.65 6.05 -12.55 5.0 Q-11.05 4.5 -8.15 -0.7 -5.3 -5.75 -3.5 -6.05 L-3.15 -5.8 -2.95 -4.95 -2.45 -4.6" fill="#ebedf6" fill-rule="evenodd" stroke="none"/>
    <path d="M1.95 -14.55 Q-0.25 -14.0 -2.6 -14.5 L-2.6 -15.5 -0.4 -16.65 1.45 -16.1 1.95 -14.55" fill="#38474a" fill-rule="evenodd" stroke="none"/>
    <path d="M-0.25 -5.35 L-1.25 -5.35 -1.6 -13.35 0.1 -13.15 -0.25 -5.35 M-0.4 -13.15 L-1.5 -13.3 Q-1.45 -7.75 -0.85 -6.8 -0.45 -9.6 -0.4 -13.15" fill="#143a43" fill-rule="evenodd" stroke="none"/>
    <path d="M-1.25 -5.35 Q-2.35 -5.75 -2.45 -7.4 -2.7 -10.65 -2.55 -14.0 L-1.6 -13.35 -1.25 -5.35" fill="#545c5f" fill-rule="evenodd" stroke="none"/>
    <path d="M0.1 -13.15 L1.7 -13.25 2.3 -8.1 Q2.45 -6.75 1.7 -5.7 L-0.25 -5.35 0.1 -13.15" fill="#788385" fill-rule="evenodd" stroke="none"/>
    <path d="M-0.65 -16.3 Q-2.4 -26.4 -3.65 -36.6 -4.95 -47.6 -4.35 -58.7 L-2.9 -81.95 Q-2.1 -92.95 -1.85 -103.95 -1.6 -115.2 -3.7 -131.0" fill="none" stroke="#000000" stroke-linecap="round" stroke-linejoin="round" stroke-width="2.25"/>
    <path d="M-0.65 -16.35 Q-2.4 -26.4 -3.65 -36.6 -4.95 -47.6 -4.35 -58.7 L-2.9 -81.95 Q-2.1 -92.95 -1.85 -103.95 -1.6 -115.2 -3.7 -131.0" fill="none" stroke="#48454c" stroke-linecap="round" stroke-linejoin="round" stroke-width="1.25"/>
  </g>
</svg>
