<?xml version="1.0" encoding="UTF-8" standalone="no"?>
<svg xmlns:ffdec="https://www.free-decompiler.com/flash" xmlns:xlink="http://www.w3.org/1999/xlink" ffdec:objectType="shape" height="302.28px" width="53.52px" xmlns="http://www.w3.org/2000/svg">
  <g transform="matrix(1.2, 0.0, 0.0, 1.2, 25.68, 282.36)">
    <path d="M2.15 -25.85 Q1.0 -25.1 1.0 -24.6 1.0 -23.15 2.7 -23.15 6.95 -23.15 6.95 -24.55 6.8 -25.4 5.45 -26.5 L5.8 -26.55 Q7.45 -26.5 8.7 -22.9 10.2 -18.3 8.6 -13.8 17.55 -8.4 22.8 0.6 23.25 1.35 23.2 2.35 22.95 9.6 16.7 13.05 11.0 16.25 4.5 16.55 -7.6 17.2 -16.7 9.3 -21.2 5.4 -21.4 -0.4 -21.55 -4.8 -18.55 -8.15 L-16.7 -8.05 Q-11.9 -15.8 -3.45 -16.25 L-2.85 -22.05 Q-1.3 -25.7 2.85 -27.15 L3.2 -26.9 3.25 -26.7 2.55 -26.1 2.15 -25.85 M-1.55 -9.8 Q1.45 -7.45 5.05 -9.25 L6.0 -10.2 Q7.8 -14.7 8.3 -19.9 L6.7 -19.15 4.85 -18.85 3.45 -18.8 1.25 -18.9 -0.35 -19.15 -1.0 -19.35 -1.95 -19.9 Q-2.5 -15.1 -1.95 -10.4 L-1.55 -9.8 M6.7 -20.35 Q7.85 -20.75 7.85 -21.4 7.85 -22.0 7.45 -22.2 L6.9 -22.5 6.25 -22.25 4.05 -22.0 2.05 -22.2 0.4 -23.05 0.0 -23.65 -1.55 -21.85 -1.35 -21.55 Q1.0 -19.45 4.6 -20.05 L6.7 -20.35 M6.95 -8.85 L5.0 -7.7 2.1 -7.2 -1.45 -8.15 Q-2.45 -8.15 -3.15 -9.4 -3.9 -10.7 -3.9 -12.5 L-3.6 -15.3 -4.3 -15.0 Q-12.85 -13.6 -15.95 -5.6 L-16.3 -5.45 Q-16.85 -5.7 -16.85 -6.35 L-16.8 -6.6 -18.75 -6.65 Q-21.1 -3.1 -19.85 1.85 -18.6 6.8 -12.95 10.65 -7.35 14.5 0.95 14.7 10.7 15.45 18.3 9.6 22.85 6.15 21.8 0.8 L19.7 -1.8 19.65 0.95 19.3 0.25 Q16.25 -8.15 8.45 -12.45 L8.25 -10.8 6.95 -8.85 M-13.85 1.8 L-14.75 1.55 -15.05 0.75 Q-15.05 -0.95 -14.3 -1.55 L-13.8 -1.1 -13.8 0.6 -13.35 1.0 -13.35 1.5 Q-13.35 2.0 -13.85 1.8 M-12.95 -3.3 Q-12.75 -4.45 -11.0 -7.4 -9.3 -10.5 -6.7 -11.3 L-9.05 -7.95 Q-11.55 -4.3 -12.3 -2.35 L-12.95 -3.3" fill="#000000" fill-rule="evenodd" stroke="none"/>
    <path d="M11.6 9.45 L9.85 9.15 11.75 8.45 Q14.0 4.85 12.8 0.8 11.25 -4.6 6.85 -8.25 L7.45 -8.4 8.3 -8.35 Q10.95 -5.35 14.3 -2.7 16.5 -0.9 16.25 1.9 17.55 1.6 18.7 2.25 17.4 8.15 11.6 9.45" fill="#0c0612" fill-rule="evenodd" stroke="none"/>
    <path d="M7.45 -8.4 L6.85 -8.25 Q11.25 -4.6 12.8 0.8 14.0 4.85 11.75 8.45 L9.85 9.15 11.6 9.45 9.35 9.55 Q8.2 9.6 7.65 8.4 7.3 7.6 7.5 6.75 8.4 3.0 8.45 -0.65 L7.6 -3.15 5.0 -7.7 6.95 -8.85 7.45 -8.4" fill="#13454c" fill-rule="evenodd" stroke="none"/>
    <path d="M8.45 -0.65 Q8.4 3.0 7.5 6.75 7.3 7.6 7.65 8.4 8.2 9.6 9.35 9.55 3.85 10.05 -1.65 9.3 L-5.45 8.45 -5.55 8.4 Q-10.85 6.65 -14.5 2.35 L-14.75 1.55 -13.85 1.8 -13.25 2.25 Q-7.25 6.7 0.05 6.5 L2.75 6.3 Q1.3 4.5 3.15 1.15 5.05 -2.35 8.45 -0.65" fill="#4b9191" fill-rule="evenodd" stroke="none"/>
    <path d="M5.0 -7.7 L7.6 -3.15 Q2.6 -4.45 0.55 0.05 -1.2 3.9 0.05 6.5 -7.25 6.7 -13.25 2.25 L-13.85 1.8 Q-13.35 2.0 -13.35 1.5 L-13.35 1.0 -10.45 2.35 -6.0 3.9 -2.65 4.45 Q-2.8 3.4 -1.65 -0.5 -0.15 -5.5 2.1 -7.2 L5.0 -7.7 M-14.75 1.55 L-14.5 2.35 -15.0 1.4 -15.05 0.75 -14.75 1.55" fill="#71abb6" fill-rule="evenodd" stroke="none"/>
    <path d="M11.6 9.45 Q17.4 8.15 18.7 2.25 17.55 1.6 16.25 1.9 16.5 -0.9 14.3 -2.7 10.95 -5.35 8.3 -8.35 L7.45 -8.4 6.95 -8.85 8.25 -10.8 Q15.7 -6.55 19.0 1.6 L19.65 0.95 19.7 -1.8 21.8 0.8 Q18.75 9.4 10.35 12.1 L7.7 12.75 Q-5.0 13.6 -15.5 6.7 -16.5 6.0 -16.95 4.95 -19.35 -0.55 -18.75 -6.65 L-16.8 -6.6 -16.85 -6.35 Q-16.85 -5.7 -16.3 -5.45 L-15.95 -5.6 Q-15.95 -4.65 -14.65 -5.3 -13.45 -5.9 -13.25 -7.4 -9.65 -11.85 -3.9 -12.5 -3.9 -10.7 -3.15 -9.4 -2.45 -8.15 -1.45 -8.15 -3.45 -6.2 -4.95 -1.05 -6.15 3.15 -6.0 3.9 L-10.45 2.35 Q-10.7 -3.4 -6.2 -7.0 -3.9 -8.85 -4.3 -11.75 L-5.6 -12.0 -6.7 -11.3 Q-9.3 -10.5 -11.0 -7.4 -12.75 -4.45 -12.95 -3.3 L-13.8 -1.1 -14.3 -1.55 Q-15.05 -0.95 -15.05 0.75 L-15.0 1.4 -14.5 2.35 Q-10.85 6.65 -5.55 8.4 -9.8 8.05 -13.4 5.55 -15.5 3.6 -16.2 1.25 -16.55 -0.9 -16.8 -1.35 -18.55 2.35 -15.4 5.45 -11.25 9.6 -5.35 9.3 L-5.45 8.45 -1.65 9.3 Q3.85 10.05 9.35 9.55 L11.6 9.45" fill="#9fc7cf" fill-rule="evenodd" stroke="none"/>
    <path d="M-13.8 -1.1 L-12.95 -3.3 -12.3 -2.35 Q-11.55 -4.3 -9.05 -7.95 L-6.7 -11.3 -5.6 -12.0 -4.3 -11.75 Q-3.9 -8.85 -6.2 -7.0 -10.7 -3.4 -10.45 2.35 L-13.35 1.0 -13.8 0.6 -13.8 -1.1" fill="#b9d7d5" fill-rule="evenodd" stroke="none"/>
    <path d="M-1.45 -8.15 L2.1 -7.2 Q-0.15 -5.5 -1.65 -0.5 -2.8 3.4 -2.65 4.45 L-6.0 3.9 Q-6.15 3.15 -4.95 -1.05 -3.45 -6.2 -1.45 -8.15" fill="#81b7c3" fill-rule="evenodd" stroke="none"/>
    <path d="M7.6 -3.15 L8.45 -0.65 Q5.05 -2.35 3.15 1.15 1.3 4.5 2.75 6.3 L0.05 6.5 Q-1.2 3.9 0.55 0.05 2.6 -4.45 7.6 -3.15" fill="#599ca2" fill-rule="evenodd" stroke="none"/>
    <path d="M21.8 0.8 Q22.85 6.15 18.3 9.6 10.7 15.45 0.95 14.7 -7.35 14.5 -12.95 10.65 -18.6 6.8 -19.85 1.85 -21.1 -3.1 -18.75 -6.65 -19.35 -0.55 -16.95 4.95 -16.5 6.0 -15.5 6.7 -5.0 13.6 7.7 12.75 L10.35 12.1 Q18.75 9.4 21.8 0.8" fill="#4e627a" fill-rule="evenodd" stroke="none"/>
    <path d="M2.55 -26.1 L3.85 -25.6 Q4.05 -24.8 3.35 -24.4 L3.05 -24.2 2.05 -24.3 2.15 -25.85 2.55 -26.1 M8.25 -10.8 L8.45 -12.45 Q16.25 -8.15 19.3 0.25 L19.65 0.95 19.0 1.6 Q15.7 -6.55 8.25 -10.8 M-15.95 -5.6 Q-12.85 -13.6 -4.3 -15.0 L-3.6 -15.3 -3.9 -12.5 Q-9.65 -11.85 -13.25 -7.4 -13.45 -5.9 -14.65 -5.3 -15.95 -4.65 -15.95 -5.6 M-5.55 8.4 L-5.45 8.45 -5.35 9.3 Q-11.25 9.6 -15.4 5.45 -18.55 2.35 -16.8 -1.35 -16.55 -0.9 -16.2 1.25 -15.5 3.6 -13.4 5.55 -9.8 8.05 -5.55 8.4" fill="#d3ece6" fill-rule="evenodd" stroke="none"/>
    <path d="M4.85 -18.85 L6.7 -19.15 Q6.7 -13.85 4.15 -9.45 L3.9 -9.05 Q4.85 -13.95 4.85 -18.85" fill="#031624" fill-rule="evenodd" stroke="none"/>
    <path d="M6.7 -19.15 L8.3 -19.9 Q7.8 -14.7 6.0 -10.2 L5.05 -9.25 Q1.45 -7.45 -1.55 -9.8 L-1.1 -9.8 2.5 -10.05 3.45 -18.8 4.85 -18.85 Q4.85 -13.95 3.9 -9.05 L4.15 -9.45 Q6.7 -13.85 6.7 -19.15" fill="#366d67" fill-rule="evenodd" stroke="none"/>
    <path d="M-1.0 -19.35 L-0.35 -19.15 Q-0.8 -15.85 0.3 -12.7 L0.5 -12.75 1.25 -18.9 3.45 -18.8 2.5 -10.05 -1.1 -9.8 -1.0 -19.35" fill="#50938a" fill-rule="evenodd" stroke="none"/>
    <path d="M-1.55 -9.8 L-1.95 -10.4 Q-2.5 -15.1 -1.95 -19.9 L-1.0 -19.35 -1.1 -9.8 -1.55 -9.8" fill="#99b6be" fill-rule="evenodd" stroke="none"/>
    <path d="M-0.35 -19.15 L1.25 -18.9 0.5 -12.75 0.3 -12.7 Q-0.8 -15.85 -0.35 -19.15" fill="#336469" fill-rule="evenodd" stroke="none"/>
    <path d="M6.25 -22.25 L6.7 -20.35 4.6 -20.05 4.05 -22.0 6.25 -22.25" fill="#0e2132" fill-rule="evenodd" stroke="none"/>
    <path d="M6.25 -22.25 L6.9 -22.5 7.45 -22.2 Q7.85 -22.0 7.85 -21.4 7.85 -20.75 6.7 -20.35 L6.25 -22.25 M4.6 -20.05 Q1.0 -19.45 -1.35 -21.55 L-1.55 -21.85 0.0 -23.65 0.4 -23.05 0.1 -21.75 2.0 -21.35 2.05 -22.2 4.05 -22.0 4.6 -20.05" fill="#668b91" fill-rule="evenodd" stroke="none"/>
    <path d="M0.4 -23.05 L2.05 -22.2 2.0 -21.35 0.1 -21.75 0.4 -23.05" fill="#e7f0f7" fill-rule="evenodd" stroke="none"/>
    <path d="M2.15 -25.85 L2.05 -24.3 3.05 -24.2 3.35 -24.4 Q4.05 -24.8 3.85 -25.6 L2.55 -26.1 3.25 -26.7 3.2 -26.9 5.8 -26.55 5.45 -26.5 Q6.8 -25.4 6.95 -24.55 6.95 -23.15 2.7 -23.15 1.0 -23.15 1.0 -24.6 1.0 -25.1 2.15 -25.85" fill="#424a57" fill-rule="evenodd" stroke="none"/>
    <path d="M8.7 -234.45 Q7.75 -212.6 9.05 -190.85 L9.45 -185.95 Q10.45 -176.8 9.5 -167.5 6.0 -187.35 5.55 -207.55 L4.8 -234.55 8.7 -234.45" fill="#768282" fill-rule="evenodd" stroke="none"/>
    <path d="M10.5 -234.4 L10.5 -234.25 11.0 -218.5 12.25 -176.25 Q12.9 -156.05 13.0 -135.9 L11.3 -133.2 11.3 -135.0 Q11.65 -151.25 9.5 -167.5 10.45 -176.8 9.45 -185.95 L9.05 -190.85 Q7.75 -212.6 8.7 -234.45 L10.5 -234.4" fill="#464c5a" fill-rule="evenodd" stroke="none"/>
    <path d="M11.3 -133.2 L13.0 -135.9 13.05 -132.15 Q13.15 -110.05 12.65 -88.45 12.1 -62.75 5.85 -27.2 5.8 -26.4 4.8 -26.55 3.85 -26.7 3.9 -27.5 L6.7 -47.25 9.2 -68.3 Q10.2 -78.3 10.65 -90.6 11.1 -102.95 11.2 -115.4 L11.3 -131.05 11.3 -133.2" fill="#b0abaf" fill-rule="evenodd" stroke="none"/>
    <path d="M13.0 -135.9 Q12.9 -156.05 12.25 -176.25 L11.0 -218.5 10.5 -234.25 10.5 -234.4 M9.5 -167.5 Q11.65 -151.25 11.3 -135.0 L11.3 -133.2 11.3 -131.05 11.2 -115.4 Q11.1 -102.95 10.65 -90.6 10.2 -78.3 9.2 -68.3 L6.7 -47.25 3.9 -27.5 Q3.85 -26.7 4.8 -26.55 5.8 -26.4 5.85 -27.2 12.1 -62.75 12.65 -88.45 13.15 -110.05 13.05 -132.15 L13.0 -135.9 M4.8 -234.55 L5.55 -207.55 Q6.0 -187.35 9.5 -167.5" fill="none" stroke="#000000" stroke-linecap="round" stroke-linejoin="round" stroke-width="1.5"/>
  </g>
</svg>
