<?xml version="1.0" encoding="UTF-8" standalone="no"?>
<svg xmlns:ffdec="https://www.free-decompiler.com/flash" xmlns:xlink="http://www.w3.org/1999/xlink" ffdec:objectType="shape" height="89.03999999999999px" width="62.279999999999994px" xmlns="http://www.w3.org/2000/svg">
  <g transform="matrix(1.2, 0.0, 0.0, 1.2, 0.0, 0.0)">
    <path d="M5.6 10.6 L1.2 2.9 Q1.1 4.85 1.35 6.75 1.95 11.1 4.9 14.6 L7.4 17.9 8.9 20.05 10.55 22.5 13.65 26.75 13.95 27.2 Q16.25 31.7 20.6 33.75 L28.1 34.1 30.6 33.85 37.15 32.95 43.2 32.45 47.15 32.4 Q48.15 32.4 48.7 31.75 50.45 29.7 50.95 27.4 L49.55 27.65 45.5 27.85 42.8 28.25 38.0 29.2 34.6 29.85 33.4 30.1 25.65 30.7 22.4 30.5 19.7 28.7 17.35 26.3 13.55 21.95 11.4 18.75 10.0 16.6 5.6 10.6 M0.75 1.35 Q3.15 -0.5 6.15 0.15 L21.1 0.75 Q26.55 1.65 29.95 2.95 32.85 4.05 50.7 24.45 52.0 25.9 51.9 27.85 51.65 32.15 47.85 33.6 L41.85 71.05 Q30.1 74.1 17.9 74.2 14.1 70.95 8.05 63.55 1.95 56.1 0.3 53.1 L0.05 51.2 Q-0.15 50.2 1.2 35.9 2.55 21.55 3.45 14.55 L2.6 13.35 Q-0.9 7.9 0.75 1.35 M12.75 1.35 L1.8 1.7 1.95 2.1 Q4.9 7.9 9.0 13.15 L10.0 14.4 11.75 16.9 Q13.9 20.5 17.35 24.3 L18.75 25.8 Q21.6 29.95 26.4 29.55 L30.25 29.25 45.9 26.6 50.8 26.0 48.6 23.85 47.9 23.1 Q40.3 13.55 31.3 5.4 30.8 4.25 25.65 2.9 20.5 1.5 12.75 1.35 M5.9 20.8 L6.35 18.6 4.6 16.25 4.5 18.65 4.35 21.85 3.95 25.65 3.65 28.75 3.3 35.8 3.05 37.85 2.6 41.3 2.35 44.05 2.0 53.4 15.8 70.35 16.2 70.85 17.25 72.15 17.35 72.25 17.6 72.65 18.2 72.8 40.75 70.25 41.9 61.7 42.7 56.1 42.95 54.5 43.05 53.75 43.15 53.0 45.2 40.75 45.5 39.25 46.0 36.9 46.65 34.25 46.85 33.6 22.35 35.75 21.9 41.5 21.3 43.85 20.55 46.55 Q19.2 49.95 18.9 53.75 L18.8 55.65 18.9 56.95 19.0 57.9 19.2 60.3 19.15 62.05 18.45 64.7 17.4 67.7 17.0 68.15 Q16.8 64.85 17.9 61.5 L17.9 54.25 19.5 45.75 19.75 45.05 20.4 42.75 21.55 37.3 22.0 35.8 19.05 34.8 18.95 36.3 18.75 38.8 18.65 42.3 18.25 44.85 17.35 45.15 16.15 43.95 5.5 31.5 5.3 29.2 5.4 25.0 5.55 23.2 5.9 20.8 M7.6 20.5 L6.65 19.1 6.8 19.75 6.85 22.0 6.55 30.05 Q6.75 33.15 9.55 34.95 10.85 35.75 11.8 37.05 14.3 40.2 17.3 43.1 L17.4 41.4 18.05 34.3 16.4 32.75 15.55 31.65 7.6 20.5 M4.6 38.2 L5.15 37.25 6.05 37.2 10.25 41.05 16.6 49.05 15.55 54.7 14.6 60.6 13.95 61.45 Q13.35 61.6 12.85 61.0 10.05 58.05 8.1 54.45 6.55 51.6 4.0 49.65 L3.25 48.65 3.55 46.1 3.85 43.8 4.6 38.2 M15.25 50.2 L15.35 49.55 Q11.8 43.45 6.3 39.3 L5.75 39.0 5.3 41.75 4.95 43.85 4.65 46.3 4.6 48.2 Q9.6 53.25 13.3 59.4 L13.8 58.0 14.35 55.45 15.25 50.2 M7.15 45.65 Q7.85 44.85 8.85 46.0 L12.1 50.0 11.95 51.5 11.65 53.05 9.5 51.55 6.85 48.7 7.15 45.65 M10.1 33.85 L8.6 31.45 9.35 29.55 10.0 29.4 14.7 34.25 13.55 36.7 11.25 35.05 10.1 33.85 M9.75 30.5 L9.6 31.45 Q10.9 33.75 13.25 35.25 L13.7 34.3 9.75 30.5 M10.85 51.4 L11.05 50.4 8.0 46.95 7.8 48.1 10.85 51.4" fill="#000000" fill-rule="evenodd" stroke="none"/>
    <path d="M12.75 1.35 Q10.6 2.3 4.15 2.75 6.35 5.3 7.75 9.1 L9.0 13.15 Q4.9 7.9 1.95 2.1 L1.8 1.7 12.75 1.35 M22.5 26.6 L23.85 26.45 24.5 27.1 Q25.8 28.5 27.5 29.0 L23.9 28.65 Q21.85 28.05 22.5 26.6" fill="#f7f2f9" fill-rule="evenodd" stroke="none"/>
    <path d="M9.0 13.15 L7.75 9.1 Q6.35 5.3 4.15 2.75 10.6 2.3 12.75 1.35 20.5 1.5 25.65 2.9 30.8 4.25 31.3 5.4 L13.9 4.3 11.75 4.9 11.15 5.8 Q8.65 9.85 10.0 14.4 L9.0 13.15 M45.9 26.6 Q47.2 26.05 48.05 24.75 L48.6 23.85 50.8 26.0 45.9 26.6 M30.25 29.25 L26.4 29.55 Q21.6 29.95 18.75 25.8 L22.5 26.6 Q21.85 28.05 23.9 28.65 L27.5 29.0 30.25 29.25 M17.35 24.3 Q13.9 20.5 11.75 16.9 L15.25 18.3 17.35 24.3" fill="#d2cecf" fill-rule="evenodd" stroke="none"/>
    <path d="M4.9 14.6 Q1.95 11.1 1.35 6.75 1.1 4.85 1.2 2.9 L5.6 10.6 5.15 11.3 Q4.2 12.85 4.9 14.6" fill="#867b83" fill-rule="evenodd" stroke="none"/>
    <path d="M5.6 10.6 L10.0 16.6 Q7.85 16.6 7.4 17.9 L4.9 14.6 Q4.2 12.85 5.15 11.3 L5.6 10.6" fill="#83888b" fill-rule="evenodd" stroke="none"/>
    <path d="M4.5 18.65 L4.6 16.25 6.35 18.6 5.9 20.8 4.5 18.65 M18.95 36.3 L19.05 34.8 22.0 35.8 21.55 37.3 18.95 36.3" fill="#251e18" fill-rule="evenodd" stroke="none"/>
    <path d="M6.8 19.75 L7.6 20.5 15.55 31.65 Q14.25 30.85 11.25 27.4 L8.7 24.3 6.85 22.0 6.8 19.75 M17.4 41.4 L17.3 43.1 Q14.3 40.2 11.8 37.05 10.85 35.75 9.55 34.95 6.75 33.15 6.55 30.05 L8.35 32.0 10.1 33.85 11.25 35.05 15.8 39.95 17.4 41.4" fill="#dca4a3" fill-rule="evenodd" stroke="none"/>
    <path d="M6.8 19.75 L6.65 19.1 7.6 20.5 6.8 19.75 M15.55 31.65 L16.4 32.75 Q17.1 36.45 15.8 39.8 L15.8 39.95 11.25 35.05 13.55 36.7 14.7 34.25 10.0 29.4 9.35 29.55 8.6 31.45 10.1 33.85 8.35 32.0 8.7 24.3 11.25 27.4 Q14.25 30.85 15.55 31.65" fill="#c07a7a" fill-rule="evenodd" stroke="none"/>
    <path d="M5.9 20.8 L5.55 23.2 5.5 23.65 4.35 21.85 4.5 18.65 5.9 20.8" fill="#4a3730" fill-rule="evenodd" stroke="none"/>
    <path d="M5.55 23.2 L5.4 25.0 3.95 25.65 4.35 21.85 5.5 23.65 5.55 23.2" fill="#713f42" fill-rule="evenodd" stroke="none"/>
    <path d="M5.4 25.0 L5.3 29.2 3.65 28.75 3.95 25.65 5.4 25.0" fill="#956467" fill-rule="evenodd" stroke="none"/>
    <path d="M5.3 29.2 L5.5 31.5 Q5.35 31.7 5.35 32.0 5.35 34.1 7.45 36.5 L3.3 35.8 3.65 28.75 5.3 29.2" fill="#cc8583" fill-rule="evenodd" stroke="none"/>
    <path d="M5.5 31.5 L16.15 43.95 Q14.5 43.6 10.6 41.4 L10.25 41.05 6.05 37.2 5.15 37.25 4.6 38.2 3.05 37.85 3.3 35.8 7.45 36.5 Q5.35 34.1 5.35 32.0 5.35 31.7 5.5 31.5 M18.25 44.85 L18.65 42.3 19.75 45.05 19.5 45.75 18.25 44.85" fill="#af7a80" fill-rule="evenodd" stroke="none"/>
    <path d="M6.55 30.05 L6.85 22.0 8.7 24.3 8.35 32.0 6.55 30.05" fill="#9e6764" fill-rule="evenodd" stroke="none"/>
    <path d="M16.15 43.95 L17.35 45.15 16.7 48.6 16.6 49.05 10.25 41.05 10.6 41.4 Q14.5 43.6 16.15 43.95 M2.6 41.3 L3.05 37.85 4.6 38.2 3.85 43.8 2.6 41.3" fill="#bc8986" fill-rule="evenodd" stroke="none"/>
    <path d="M5.3 41.75 L5.75 39.0 6.3 39.3 Q11.8 43.45 15.35 49.55 L15.25 50.2 Q11.15 45.05 6.55 40.65 L5.3 41.75 M13.8 58.0 L13.3 59.4 Q9.6 53.25 4.6 48.2 L4.65 46.3 6.85 48.7 9.5 51.55 13.95 57.25 13.8 58.0" fill="#eaceda" fill-rule="evenodd" stroke="none"/>
    <path d="M2.35 44.05 L2.6 41.3 3.85 43.8 3.55 46.1 2.35 44.05" fill="#c29997" fill-rule="evenodd" stroke="none"/>
    <path d="M14.35 55.45 L13.8 58.0 13.95 57.25 9.5 51.55 11.65 53.05 11.95 51.5 14.35 55.45 M4.65 46.3 L4.95 43.85 7.15 45.65 6.85 48.7 4.65 46.3" fill="#d6b8c2" fill-rule="evenodd" stroke="none"/>
    <path d="M15.25 50.2 L14.35 55.45 11.95 51.5 12.1 50.0 8.85 46.0 Q7.85 44.85 7.15 45.65 L4.95 43.85 5.3 41.75 6.55 40.65 Q11.15 45.05 15.25 50.2" fill="#e3a9a5" fill-rule="evenodd" stroke="none"/>
    <path d="M2.0 53.4 L2.35 44.05 3.55 46.1 3.25 48.65 4.0 49.65 3.1 52.2 2.8 52.75 2.0 53.4" fill="#cfb5b6" fill-rule="evenodd" stroke="none"/>
    <path d="M4.0 49.65 Q6.55 51.6 8.1 54.45 10.05 58.05 12.85 61.0 13.35 61.6 13.95 61.45 L14.6 60.6 15.6 65.0 Q9.5 60.5 4.85 54.4 L3.1 52.2 4.0 49.65 M15.65 67.55 L15.95 67.75 15.95 67.9 15.65 67.55" fill="#e9a59c" fill-rule="evenodd" stroke="none"/>
    <path d="M2.8 52.75 L3.1 52.2 4.85 54.4 Q9.5 60.5 15.6 65.0 L15.95 67.75 15.65 67.55 2.8 52.75" fill="#c58885" fill-rule="evenodd" stroke="none"/>
    <path d="M15.8 70.35 L2.0 53.4 2.8 52.75 15.65 67.55 15.95 67.9 15.85 70.4 15.8 70.35" fill="#b0766b" fill-rule="evenodd" stroke="none"/>
    <path d="M10.0 14.4 Q8.65 9.85 11.15 5.8 L11.75 4.9 13.9 4.3 31.3 5.4 Q40.3 13.55 47.9 23.1 L48.6 23.85 48.05 24.75 Q47.2 26.05 45.9 26.6 L30.25 29.25 27.5 29.0 Q25.8 28.5 24.5 27.1 L23.85 26.45 22.5 26.6 18.75 25.8 17.35 24.3 15.25 18.3 11.75 16.9 10.0 14.4 M20.75 12.55 L15.8 10.75 Q14.05 10.25 12.45 11.05 10.75 13.1 12.35 15.4 13.65 17.3 15.95 17.1 17.8 20.4 20.1 23.5 22.05 26.2 25.1 24.75 27.0 23.9 27.0 21.75 26.95 15.1 20.75 12.55" fill="#b2b2bc" fill-rule="evenodd" stroke="none"/>
    <path d="M34.6 29.85 L38.0 29.2 37.55 29.3 37.15 32.95 30.6 33.85 Q32.55 31.35 34.6 29.85 M42.8 28.25 L45.5 27.85 44.85 31.05 45.45 31.05 Q48.8 31.0 49.55 27.65 L50.95 27.4 Q50.45 29.7 48.7 31.75 48.15 32.4 47.15 32.4 L43.2 32.45 Q43.7 30.75 43.1 29.0 L42.8 28.25" fill="#60656b" fill-rule="evenodd" stroke="none"/>
    <path d="M38.0 29.2 L42.8 28.25 43.1 29.0 Q43.7 30.75 43.2 32.45 L37.15 32.95 37.55 29.3 38.0 29.2 M40.05 28.8 Q38.9 28.8 38.9 30.9 L39.1 31.7 Q39.45 32.45 40.15 32.45 41.4 32.45 41.4 30.55 41.05 28.8 40.05 28.8" fill="#494c51" fill-rule="evenodd" stroke="none"/>
    <path d="M25.65 30.7 L33.4 30.1 34.6 29.85 Q32.55 31.35 30.6 33.85 L28.1 34.1 20.6 33.75 22.15 33.6 Q24.55 32.95 25.65 30.7" fill="#76777c" fill-rule="evenodd" stroke="none"/>
    <path d="M40.05 28.8 Q41.05 28.8 41.4 30.55 41.4 32.45 40.15 32.45 39.45 32.45 39.1 31.7 L38.9 30.9 Q38.9 28.8 40.05 28.8" fill="#313035" fill-rule="evenodd" stroke="none"/>
    <path d="M45.5 27.85 L49.55 27.65 Q48.8 31.0 45.45 31.05 L44.85 31.05 45.5 27.85" fill="#798287" fill-rule="evenodd" stroke="none"/>
    <path d="M21.9 41.5 L22.35 35.75 46.85 33.6 46.65 34.25 46.3 34.8 Q34.3 34.75 25.95 37.6 23.5 38.4 21.9 41.5" fill="#180405" fill-rule="evenodd" stroke="none"/>
    <path d="M20.75 12.55 Q26.95 15.1 27.0 21.75 27.0 23.9 25.1 24.75 22.05 26.2 20.1 23.5 17.8 20.4 15.95 17.1 13.65 17.3 12.35 15.4 10.75 13.1 12.45 11.05 14.05 10.25 15.8 10.75 L20.75 12.55" fill="#83828a" fill-rule="evenodd" stroke="none"/>
    <path d="M10.0 16.6 L11.4 18.75 Q10.5 20.1 9.75 20.1 L8.9 20.05 7.4 17.9 Q7.85 16.6 10.0 16.6" fill="#a09ba2" fill-rule="evenodd" stroke="none"/>
    <path d="M11.4 18.75 L13.55 21.95 10.55 22.5 8.9 20.05 9.75 20.1 Q10.5 20.1 11.4 18.75" fill="#8a7e88" fill-rule="evenodd" stroke="none"/>
    <path d="M17.35 26.3 L19.7 28.7 Q16.75 28.3 17.75 31.1 18.05 31.85 18.8 32.2 21.05 33.2 22.25 31.4 L22.4 30.5 25.65 30.7 Q24.55 32.95 22.15 33.6 L20.6 33.75 Q16.25 31.7 13.95 27.2 L13.65 26.75 17.35 26.3" fill="#898594" fill-rule="evenodd" stroke="none"/>
    <path d="M13.55 21.95 L17.35 26.3 13.65 26.75 10.55 22.5 13.55 21.95" fill="#809090" fill-rule="evenodd" stroke="none"/>
    <path d="M9.75 30.5 L13.7 34.3 13.25 35.25 Q10.9 33.75 9.6 31.45 L9.75 30.5" fill="#7a4f46" fill-rule="evenodd" stroke="none"/>
    <path d="M16.4 32.75 L18.05 34.3 17.4 41.4 15.8 39.95 15.8 39.8 Q17.1 36.45 16.4 32.75" fill="#8d5c55" fill-rule="evenodd" stroke="none"/>
    <path d="M19.7 28.7 L22.4 30.5 22.25 31.4 Q21.05 33.2 18.8 32.2 18.05 31.85 17.75 31.1 16.75 28.3 19.7 28.7" fill="#afb0b5" fill-rule="evenodd" stroke="none"/>
    <path d="M18.75 38.8 L18.95 36.3 21.55 37.3 20.4 42.75 18.75 38.8" fill="#602129" fill-rule="evenodd" stroke="none"/>
    <path d="M17.35 45.15 L18.25 44.85 19.5 45.75 17.9 54.25 16.9 49.7 16.7 48.6 17.35 45.15" fill="#a37871" fill-rule="evenodd" stroke="none"/>
    <path d="M18.65 42.3 L18.75 38.8 20.4 42.75 19.75 45.05 18.65 42.3" fill="#9e4b43" fill-rule="evenodd" stroke="none"/>
    <path d="M20.55 46.55 L21.3 43.85 Q26.25 39.15 32.95 37.25 39.35 35.6 46.0 36.9 L45.5 39.25 Q36.8 37.6 30.35 41.0 23.85 44.35 20.55 46.55" fill="#511610" fill-rule="evenodd" stroke="none"/>
    <path d="M21.3 43.85 L21.9 41.5 Q23.5 38.4 25.95 37.6 34.3 34.75 46.3 34.8 L46.65 34.25 46.0 36.9 Q39.35 35.6 32.95 37.25 26.25 39.15 21.3 43.85" fill="#310e0a" fill-rule="evenodd" stroke="none"/>
    <path d="M17.35 72.25 L17.25 72.15 17.35 71.8 17.35 72.25 M16.2 70.85 L15.8 70.35 15.85 70.4 16.2 70.85 M16.7 48.6 L16.9 49.7 16.6 49.05 16.7 48.6" fill="#ff0000" fill-opacity="0.0" fill-rule="evenodd" stroke="none"/>
    <path d="M17.9 54.25 L17.9 61.5 Q16.85 56.5 15.55 54.7 L16.6 49.05 16.9 49.7 17.9 54.25" fill="#b27b74" fill-rule="evenodd" stroke="none"/>
    <path d="M10.85 51.4 L7.8 48.1 8.0 46.95 11.05 50.4 10.85 51.4" fill="#6f6860" fill-rule="evenodd" stroke="none"/>
    <path d="M18.8 55.65 L18.9 53.75 Q19.2 49.95 20.55 46.55 23.85 44.35 30.35 41.0 36.8 37.6 45.5 39.25 L45.2 40.75 39.5 41.6 38.8 41.75 Q25.85 44.7 18.8 55.65" fill="#732417" fill-rule="evenodd" stroke="none"/>
    <path d="M19.0 57.9 L18.9 56.95 19.0 57.65 Q22.75 51.4 29.0 47.4 L28.7 48.0 Q25.55 54.55 19.0 57.9" fill="#b13f3f" fill-rule="evenodd" stroke="none"/>
    <path d="M18.9 56.95 L18.8 55.65 Q25.85 44.7 38.8 41.75 L39.5 41.6 Q40.05 46.3 36.75 49.7 31.5 55.05 24.45 57.15 L23.8 56.15 31.55 51.6 Q35.75 48.75 37.5 44.0 33.1 45.15 29.0 47.4 22.75 51.4 19.0 57.65 L18.9 56.95" fill="#9c3d2b" fill-rule="evenodd" stroke="none"/>
    <path d="M19.2 60.3 L19.0 57.9 Q25.55 54.55 28.7 48.0 L29.0 47.4 Q33.1 45.15 37.5 44.0 35.75 48.75 31.55 51.6 L23.8 56.15 24.45 57.15 Q21.1 57.5 19.45 60.05 L19.2 60.3 M43.15 53.0 L43.05 53.75 42.0 54.3 43.15 53.0" fill="#a53e39" fill-rule="evenodd" stroke="none"/>
    <path d="M19.15 62.05 L19.2 60.3 19.45 60.05 Q21.1 57.5 24.45 57.15 31.5 55.05 36.75 49.7 40.05 46.3 39.5 41.6 L45.2 40.75 43.15 53.0 42.0 54.3 Q37.1 57.0 31.75 58.9 L30.15 59.15 Q23.75 57.65 19.15 62.05" fill="#92362b" fill-rule="evenodd" stroke="none"/>
    <path d="M18.45 64.7 L19.15 62.05 Q23.75 57.65 30.15 59.15 L31.75 58.9 Q37.1 57.0 42.0 54.3 L43.05 53.75 42.95 54.5 Q37.8 58.5 31.65 60.55 L30.15 60.85 Q23.5 60.9 18.45 64.7" fill="#904933" fill-rule="evenodd" stroke="none"/>
    <path d="M17.4 67.7 L18.45 64.7 Q23.5 60.9 30.15 60.85 L31.65 60.55 Q37.8 58.5 42.95 54.5 L42.7 56.1 Q36.75 63.45 27.45 64.1 21.35 63.9 17.35 68.4 L17.4 67.7" fill="#865d49" fill-rule="evenodd" stroke="none"/>
    <path d="M41.9 61.7 L40.75 70.25 18.2 72.8 Q20.6 68.05 26.1 68.0 28.9 67.5 31.8 66.4 37.0 64.25 41.9 61.7 M39.85 68.25 L40.15 66.25 39.85 64.3 Q35.7 67.05 30.9 68.0 25.9 68.9 21.35 70.85 L39.85 68.25" fill="#9b6f70" fill-rule="evenodd" stroke="none"/>
    <path d="M39.85 68.25 L21.35 70.85 Q25.9 68.9 30.9 68.0 35.7 67.05 39.85 64.3 L40.15 66.25 39.85 68.25" fill="#b1827a" fill-rule="evenodd" stroke="none"/>
    <path d="M42.7 56.1 L41.9 61.7 Q37.0 64.25 31.8 66.4 28.9 67.5 26.1 68.0 20.6 68.05 18.2 72.8 L17.6 72.65 17.35 72.25 17.35 71.8 17.35 68.4 Q21.35 63.9 27.45 64.1 36.75 63.45 42.7 56.1" fill="#8e6c6d" fill-rule="evenodd" stroke="none"/>
    <path d="M17.9 61.5 Q16.8 64.85 17.0 68.15 L17.4 67.7 17.35 68.4 17.35 71.8 17.25 72.15 16.2 70.85 15.85 70.4 15.95 67.9 15.95 67.75 15.6 65.0 14.6 60.6 15.55 54.7 Q16.85 56.5 17.9 61.5" fill="#c7908d" fill-rule="evenodd" stroke="none"/>
  </g>
</svg>
