<?xml version="1.0" encoding="UTF-8" standalone="no"?>
<svg xmlns:ffdec="https://www.free-decompiler.com/flash" xmlns:xlink="http://www.w3.org/1999/xlink" ffdec:objectType="shape" height="128.04px" width="56.81999999999999px" xmlns="http://www.w3.org/2000/svg">
  <g transform="matrix(1.2, 0.0, 0.0, 1.2, 0.0, 0.0)">
    <path d="M24.35 1.35 Q25.65 1.4 26.3 2.35 L26.5 2.85 25.6 2.75 24.45 3.4 Q24.65 2.4 24.35 1.35 M23.6 10.15 L25.3 12.2 26.6 12.2 Q25.4 15.25 23.1 13.15 22.6 12.7 22.5 12.1 L23.3 11.55 23.6 10.15" fill="#5d1022" fill-rule="evenodd" stroke="none"/>
    <path d="M24.45 3.4 L25.6 2.75 26.5 2.85 26.3 2.35 Q25.65 1.4 24.35 1.35 23.65 1.35 23.2 2.3 22.7 3.25 22.7 4.6 L22.15 9.35 22.5 12.1 Q22.6 12.7 23.1 13.15 25.4 15.25 26.6 12.2 L25.3 12.2 23.6 10.15 23.4 8.45 23.6 5.15 24.45 3.4 M26.95 4.9 L26.8 3.65 Q25.75 3.6 25.3 4.5 23.4 7.85 25.2 11.1 L26.9 10.65 27.05 8.75 26.95 4.9 M29.5 3.25 L28.45 2.05 26.95 1.3 Q28.4 4.7 27.9 8.3 L27.25 12.9 27.65 12.5 Q30.9 8.35 29.5 3.25 M31.15 4.95 Q31.35 7.2 30.95 9.5 30.5 12.15 28.25 13.65 L28.35 15.15 Q29.4 15.25 30.1 16.15 30.75 16.95 30.25 17.8 33.55 17.55 36.45 19.35 37.1 19.65 37.4 20.45 38.95 24.45 37.35 28.2 L34.8 29.9 Q34.85 38.0 32.0 45.3 31.15 47.55 29.4 49.2 L26.95 51.4 Q30.9 53.85 33.75 57.6 L46.2 73.75 Q47.65 75.6 47.25 77.8 46.4 82.55 45.9 87.6 45.45 92.55 45.85 97.3 45.95 98.55 45.3 99.6 43.8 102.05 41.0 102.5 L41.15 106.05 40.5 106.7 Q36.85 106.7 34.2 103.9 L23.3 104.2 Q12.3 96.4 5.5 84.9 5.05 84.2 5.1 83.3 L5.85 72.35 5.3 71.45 4.55 72.3 Q2.9 72.85 1.95 71.55 1.05 70.35 1.3 68.75 L1.5 67.8 Q-1.4 64.65 1.3 61.3 2.55 59.8 4.6 59.9 5.1 55.8 8.25 53.5 L10.75 52.1 14.4 50.9 Q11.4 48.85 9.4 45.9 L12.45 27.8 Q9.5 24.05 12.1 20.15 15.05 15.75 20.1 17.55 20.55 15.5 22.25 14.9 L23.0 14.8 Q20.05 11.6 20.8 7.1 21.15 4.95 21.9 2.85 22.8 0.3 25.4 0.3 L25.75 0.0 Q30.65 -0.35 31.15 4.95 M24.75 17.65 L24.0 17.1 23.3 15.65 21.5 16.45 21.6 17.5 20.95 18.15 Q19.3 19.8 16.95 20.15 16.0 20.65 16.15 21.95 16.25 23.25 17.5 23.95 22.85 26.75 29.25 25.25 L31.9 24.2 33.2 22.9 Q34.45 20.9 32.15 20.35 L29.1 19.6 28.85 16.65 28.2 16.2 27.85 16.95 26.65 17.7 24.75 17.65 M16.8 25.15 Q13.75 22.6 16.2 19.4 16.7 18.8 17.45 18.7 L19.55 18.1 Q14.85 17.25 12.6 21.75 10.9 26.1 15.5 28.55 17.1 29.45 19.15 29.8 24.95 31.4 31.1 29.95 32.75 29.6 34.25 28.7 L34.45 28.55 Q37.55 26.4 36.5 22.6 L36.25 21.8 36.0 21.25 Q34.2 18.25 30.1 18.75 31.1 19.65 32.4 19.3 34.15 19.1 34.55 20.95 35.25 24.35 32.25 25.7 L31.65 25.95 Q26.5 27.85 21.2 26.85 L21.15 26.85 Q19.35 26.85 17.6 25.7 L16.8 25.15 M14.3 32.9 L15.1 29.65 13.3 28.5 12.95 30.7 12.25 34.95 10.85 43.8 11.1 46.1 13.35 48.6 Q18.2 52.75 24.55 50.8 L24.95 50.7 26.25 50.2 Q29.1 48.95 30.55 46.15 L31.2 44.75 Q33.25 37.75 33.7 30.4 L32.8 30.75 32.15 33.95 30.25 41.2 Q29.55 44.05 27.7 46.25 L27.05 46.95 25.75 47.85 Q20.1 50.6 14.9 47.2 L13.45 46.25 13.2 46.1 Q11.95 43.35 13.15 40.05 L14.3 32.9 M17.0 30.5 L16.15 30.15 14.55 37.7 13.8 44.85 14.5 45.55 Q15.6 46.7 17.35 47.45 L17.45 47.5 18.5 47.75 Q22.8 48.2 26.0 45.55 29.55 42.55 29.95 37.75 L31.2 31.15 25.55 31.75 23.5 31.75 22.35 31.7 21.25 31.6 Q19.05 31.3 17.0 30.5 M24.95 15.95 L25.1 16.6 26.6 16.35 27.25 15.8 27.4 14.15 24.7 15.25 24.95 15.95 M4.3 60.9 Q3.25 61.05 2.5 61.55 1.85 62.0 2.1 62.45 L3.35 63.1 10.2 63.85 11.0 63.85 Q8.6 60.3 4.3 60.9 M1.35 63.6 L1.3 63.45 Q0.35 66.5 3.2 67.6 L8.65 67.8 Q11.55 67.3 11.1 64.7 L7.05 64.9 6.6 64.9 Q2.5 64.85 1.35 63.6 M4.2 69.9 L4.15 69.2 Q3.0 68.25 2.5 68.75 L2.35 69.6 2.4 71.05 4.2 71.3 4.2 69.9 M33.75 59.75 Q30.55 55.25 26.25 52.55 L26.05 53.4 25.8 54.6 25.4 56.6 25.15 57.2 Q22.45 60.45 17.9 58.9 L16.0 58.25 Q15.2 58.25 14.65 57.35 14.05 56.45 14.05 55.15 L14.15 53.65 14.25 52.75 12.35 52.85 9.3 53.85 7.2 56.4 6.15 59.25 8.45 60.35 10.55 62.05 11.1 62.7 Q13.4 65.5 11.1 68.3 8.75 69.7 5.45 69.45 L9.55 74.55 10.05 73.8 Q11.9 71.3 15.15 71.15 19.05 70.95 20.75 74.65 22.15 77.65 21.7 80.4 L21.05 82.55 Q18.5 83.3 15.55 82.65 L15.55 83.25 Q17.8 86.85 20.7 88.8 L22.2 83.6 24.75 77.3 25.4 75.8 26.95 72.95 Q27.6 72.15 28.25 72.2 L31.15 71.8 33.15 71.75 38.5 72.05 41.0 72.7 45.35 74.6 36.45 63.15 33.75 59.75 M10.5 54.75 Q12.6 54.8 13.35 57.1 14.7 61.45 18.8 64.35 L21.05 65.75 Q24.35 67.7 25.7 71.15 L25.8 71.85 Q22.75 68.5 18.75 65.6 13.55 61.8 11.1 55.65 L9.75 56.1 9.35 55.45 Q9.5 54.8 10.5 54.75 M19.7 52.4 L15.7 51.65 15.2 54.55 15.55 56.6 Q19.5 58.95 23.8 57.35 24.95 56.1 24.8 54.3 24.7 53.2 25.2 52.25 L19.7 52.4 M20.25 75.8 Q19.65 73.65 17.35 72.75 14.05 71.6 11.25 73.9 L10.7 75.3 Q12.7 78.05 16.7 77.45 L18.1 77.4 Q19.15 77.4 19.9 76.95 20.6 76.45 20.25 75.8 M10.65 77.25 L10.2 76.8 Q9.9 78.25 10.9 79.1 15.05 82.3 20.35 81.45 L20.5 78.15 16.15 78.65 15.35 78.65 Q12.9 78.5 11.55 77.8 L10.65 77.25 M9.15 79.75 L9.15 77.2 6.7 73.6 6.4 78.65 6.15 80.65 6.25 83.95 Q12.45 93.75 21.55 101.2 L22.75 102.15 24.1 96.65 24.65 94.55 24.85 93.7 25.55 90.9 Q19.6 91.7 16.3 86.5 L15.3 84.95 14.7 86.2 14.3 86.55 Q13.55 87.0 12.6 86.9 L10.45 86.1 10.3 83.2 10.4 80.9 9.15 79.75 M14.5 82.8 L11.15 81.35 11.2 82.55 11.2 83.4 Q11.05 84.7 11.9 85.45 L12.2 85.55 Q14.85 85.7 14.5 82.8 M25.2 87.35 L23.35 87.4 23.4 86.35 24.3 85.55 25.05 85.6 25.2 87.35 M27.8 77.45 L27.0 76.8 27.35 76.0 28.8 75.55 Q29.65 75.75 29.65 76.65 29.65 77.65 28.85 77.65 L27.8 77.45 M43.5 99.55 L44.0 99.15 46.3 76.45 Q43.2 74.4 37.65 73.4 30.7 72.1 27.15 74.7 23.3 80.95 21.9 89.5 L26.95 89.55 25.5 96.0 24.2 100.15 23.95 102.7 27.25 102.85 32.7 102.6 32.25 101.85 32.15 101.65 32.0 101.1 32.7 98.8 33.2 98.45 35.8 98.4 37.8 99.45 39.85 101.0 41.1 100.65 43.5 99.55 M27.6 100.2 L27.4 101.5 Q26.35 101.95 25.3 101.2 L25.4 100.35 Q25.65 99.65 26.75 99.65 27.4 99.65 27.6 100.2 M41.6 99.15 L40.2 98.7 Q39.8 98.35 40.0 97.95 40.2 97.55 40.9 97.4 L42.1 97.3 42.8 97.75 42.75 98.8 41.6 99.15 M40.2 104.7 L40.1 104.2 Q38.5 99.4 33.7 99.6 L33.35 100.15 33.15 101.3 Q35.7 104.85 39.85 105.55 L40.2 104.7" fill="#000000" fill-rule="evenodd" stroke="none"/>
    <path d="M24.9 7.0 L25.0 7.1 Q26.15 7.1 26.35 5.3 L26.4 5.45 Q26.5 7.4 25.1 8.0 L24.9 7.0" fill="#895057" fill-rule="evenodd" stroke="none"/>
    <path d="M26.35 5.3 L26.15 5.1 26.95 4.9 27.05 8.75 25.5 8.95 25.1 8.0 Q26.5 7.4 26.4 5.45 L26.35 5.3" fill="#571e27" fill-rule="evenodd" stroke="none"/>
    <path d="M26.15 5.1 Q25.65 5.1 25.3 5.65 24.9 6.2 24.9 7.0 L25.1 8.0 25.5 8.95 27.05 8.75 26.9 10.65 25.2 11.1 Q23.4 7.85 25.3 4.5 25.75 3.6 26.8 3.65 L26.95 4.9 26.15 5.1" fill="#3b0a0e" fill-rule="evenodd" stroke="none"/>
    <path d="M24.9 7.0 Q24.9 6.2 25.3 5.65 25.65 5.1 26.15 5.1 L26.35 5.3 Q26.15 7.1 25.0 7.1 L24.9 7.0" fill="#e4afb5" fill-rule="evenodd" stroke="none"/>
    <path d="M29.3 4.7 L29.05 5.3 28.45 2.05 29.5 3.25 29.3 4.7" fill="#c6babc" fill-rule="evenodd" stroke="none"/>
    <path d="M29.3 4.7 L29.5 3.25 Q30.9 8.35 27.65 12.5 L27.25 12.9 27.9 8.3 Q29.1 6.75 29.3 4.7" fill="#64202d" fill-rule="evenodd" stroke="none"/>
    <path d="M28.45 2.05 L29.05 5.3 29.3 4.7 Q29.1 6.75 27.9 8.3 28.4 4.7 26.95 1.3 L28.45 2.05" fill="#8d3f4f" fill-rule="evenodd" stroke="none"/>
    <path d="M24.35 1.35 Q24.65 2.4 24.45 3.4 L23.6 5.15 22.7 4.6 Q22.7 3.25 23.2 2.3 23.65 1.35 24.35 1.35 M23.4 8.45 L23.6 10.15 23.3 11.55 22.5 12.1 22.15 9.35 23.4 8.45" fill="#882e47" fill-rule="evenodd" stroke="none"/>
    <path d="M23.6 5.15 L23.4 8.45 22.15 9.35 22.7 4.6 23.6 5.15" fill="#a9556c" fill-rule="evenodd" stroke="none"/>
    <path d="M16.95 20.15 Q19.3 19.8 20.95 18.15 L21.6 17.5 21.5 16.45 23.3 15.65 Q22.95 17.85 24.75 19.75 L24.95 20.25 24.2 21.6 Q25.7 22.55 25.6 24.25 22.0 25.45 18.4 23.6 22.85 22.55 22.65 17.8 L22.5 16.65 Q20.6 19.8 17.05 21.0 L16.95 20.15" fill="#857671" fill-rule="evenodd" stroke="none"/>
    <path d="M23.3 15.65 L24.0 17.1 24.75 17.65 Q25.55 18.05 25.75 18.95 L26.4 22.7 Q26.8 24.9 29.25 25.25 22.85 26.75 17.5 23.95 16.25 23.25 16.15 21.95 16.0 20.65 16.95 20.15 L17.05 21.0 16.65 21.8 Q16.65 23.45 18.4 23.6 22.0 25.45 25.6 24.25 25.7 22.55 24.2 21.6 L24.95 20.25 24.75 19.75 Q22.95 17.85 23.3 15.65" fill="#695b58" fill-rule="evenodd" stroke="none"/>
    <path d="M18.4 23.6 Q16.65 23.45 16.65 21.8 L17.05 21.0 Q20.6 19.8 22.5 16.65 L22.65 17.8 Q22.85 22.55 18.4 23.6 M17.5 21.65 L17.6 22.1 Q21.2 22.85 22.15 18.7 20.5 21.15 17.5 21.65 M12.6 21.75 Q14.85 17.25 19.55 18.1 L17.45 18.7 Q16.7 18.8 16.2 19.4 13.75 22.6 16.8 25.15 L16.5 26.05 15.8 26.0 Q12.4 25.85 12.6 21.75 M14.45 20.15 L13.6 21.2 Q13.35 23.95 15.5 25.4 L15.1 24.2 14.45 20.15" fill="#aea0a0" fill-rule="evenodd" stroke="none"/>
    <path d="M17.5 21.65 Q20.5 21.15 22.15 18.7 21.2 22.85 17.6 22.1 L17.5 21.65" fill="#d3c9c7" fill-rule="evenodd" stroke="none"/>
    <path d="M14.45 20.15 L15.1 24.2 15.5 25.4 Q13.35 23.95 13.6 21.2 L14.45 20.15" fill="#cbc0c4" fill-rule="evenodd" stroke="none"/>
    <path d="M12.95 30.7 L13.3 28.5 15.1 29.65 14.3 32.9 14.2 33.4 13.15 31.2 12.95 30.7 M13.45 46.25 L14.9 47.2 Q20.1 50.6 25.75 47.85 L26.25 47.55 Q24.25 50.05 20.35 50.05 16.8 50.05 14.85 48.25 L13.85 47.15 13.5 46.5 13.45 46.25 M32.15 33.95 L32.8 30.75 33.7 30.4 Q33.25 37.75 31.2 44.75 L32.05 39.2 32.3 36.75 32.55 33.65 32.15 33.95" fill="#384f49" fill-rule="evenodd" stroke="none"/>
    <path d="M13.15 31.2 L14.2 33.4 14.3 32.9 13.15 40.05 13.15 31.2 M25.75 47.85 L27.05 46.95 27.1 47.0 25.5 49.4 Q24.0 49.95 21.9 50.2 17.05 50.6 13.35 48.6 L11.1 46.1 14.85 48.25 Q16.8 50.05 20.35 50.05 24.25 50.05 26.25 47.55 L25.75 47.85 M28.25 46.3 Q29.8 44.6 31.25 41.25 L31.35 41.1 29.45 46.1 28.25 46.3" fill="#89a8a3" fill-rule="evenodd" stroke="none"/>
    <path d="M12.95 30.7 L13.15 31.2 13.15 40.05 Q11.95 43.35 13.2 46.1 L13.45 46.25 13.5 46.5 Q11.4 45.45 11.8 43.2 12.5 39.0 12.25 34.95 L12.95 30.7 M27.05 46.95 L27.7 46.25 Q29.55 44.05 30.25 41.2 L32.3 36.75 32.05 39.2 31.35 41.1 31.25 41.25 Q29.8 44.6 28.25 46.3 L27.1 47.0 27.05 46.95 M11.1 46.1 L10.85 43.8 Q11.2 46.1 13.75 47.15 L13.85 47.15 14.85 48.25 11.1 46.1" fill="#a5b0b4" fill-rule="evenodd" stroke="none"/>
    <path d="M21.15 26.85 L21.2 26.85 Q26.5 27.85 31.65 25.95 L32.25 25.7 Q33.15 25.7 33.8 26.45 34.4 27.15 34.4 28.15 L34.25 28.7 Q32.75 29.6 31.1 29.95 24.95 31.4 19.15 29.8 19.15 28.6 19.8 27.75 20.45 26.85 21.15 26.85" fill="#4a3f3d" fill-rule="evenodd" stroke="none"/>
    <path d="M12.6 21.75 Q12.4 25.85 15.8 26.0 L16.5 26.05 16.8 25.15 17.6 25.7 Q19.35 26.85 21.15 26.85 20.45 26.85 19.8 27.75 19.15 28.6 19.15 29.8 17.1 29.45 15.5 28.55 10.9 26.1 12.6 21.75" fill="#766868" fill-rule="evenodd" stroke="none"/>
    <path d="M14.55 37.7 L16.15 30.15 17.0 30.5 17.35 30.65 15.7 37.3 15.2 37.25 14.55 37.7 M21.25 31.6 L22.35 31.7 22.6 34.9 22.25 35.2 21.35 34.9 21.25 31.6" fill="#a4bdc1" fill-rule="evenodd" stroke="none"/>
    <path d="M15.7 37.3 L17.35 30.65 17.0 30.5 Q19.05 31.3 21.25 31.6 L21.35 34.9 21.25 34.85 21.2 34.85 Q19.9 34.65 19.2 35.75 L18.95 36.2 Q17.0 35.8 15.7 37.3" fill="#d5e7e7" fill-rule="evenodd" stroke="none"/>
    <path d="M15.7 37.3 Q17.0 35.8 18.95 36.2 L19.2 35.75 Q19.9 34.65 21.2 34.85 L21.1 35.4 21.0 35.6 Q20.25 35.65 19.9 36.2 L19.75 36.75 19.7 36.85 Q19.7 37.6 20.35 37.8 L19.95 39.05 18.9 41.1 16.85 45.0 15.15 45.0 15.05 43.85 17.15 43.65 17.45 42.3 14.85 42.55 15.15 40.7 17.1 40.75 15.6 39.85 15.6 38.25 15.7 37.3 M16.6 38.45 L16.6 39.3 18.15 39.45 19.5 38.3 19.05 37.75 18.75 37.0 17.2 37.3 16.6 38.45" fill="#8d7f7f" fill-rule="evenodd" stroke="none"/>
    <path d="M20.35 37.8 Q19.7 37.6 19.7 36.85 L19.75 36.75 20.65 36.8 Q21.5 36.8 21.75 35.9 L22.4 36.6 22.8 37.05 22.5 37.65 21.95 37.8 20.35 37.8" fill="#514c49" fill-rule="evenodd" stroke="none"/>
    <path d="M22.35 31.7 L23.5 31.75 23.65 31.85 Q25.45 33.5 26.15 35.55 L23.8 34.8 23.1 34.75 22.6 34.9 22.35 31.7" fill="#779397" fill-rule="evenodd" stroke="none"/>
    <path d="M23.5 31.75 L25.55 31.75 25.05 31.75 28.45 33.05 28.1 35.5 26.15 35.55 Q25.45 33.5 23.65 31.85 L23.5 31.75" fill="#49666c" fill-rule="evenodd" stroke="none"/>
    <path d="M14.55 37.7 L15.2 37.25 15.7 37.3 15.6 38.25 14.6 40.0 14.75 40.45 15.15 40.7 14.85 42.55 14.45 42.85 14.45 43.8 15.05 43.85 15.15 45.0 15.9 45.95 17.6 45.6 16.85 45.0 18.9 41.1 20.35 41.75 19.9 42.8 19.0 42.8 18.2 43.9 19.1 44.6 17.8 47.0 17.35 47.45 Q15.6 46.7 14.5 45.55 L13.8 44.85 14.55 37.7 M19.95 39.05 L20.35 37.8 21.95 37.8 21.55 38.85 20.85 38.85 19.95 39.05 M21.0 35.6 L21.1 35.4 21.25 34.85 21.35 34.9 22.25 35.2 22.6 34.9 23.1 34.75 22.4 36.6 21.75 35.9 21.0 35.6" fill="#4d4341" fill-rule="evenodd" stroke="none"/>
    <path d="M29.95 37.75 Q29.55 42.55 26.0 45.55 22.8 48.2 18.5 47.75 L19.4 46.1 21.25 46.15 21.15 45.65 19.55 45.8 20.1 44.6 20.45 44.55 20.15 43.9 Q20.55 44.2 21.0 42.95 L21.15 43.45 Q22.1 45.3 23.9 44.3 L24.3 42.6 23.3 41.9 22.5 42.65 22.05 42.75 21.05 42.85 21.45 41.75 22.65 41.1 22.45 39.25 23.5 36.15 23.85 36.9 23.65 37.9 24.4 37.85 25.1 35.65 23.6 35.75 23.8 34.8 26.15 35.55 28.1 35.5 Q28.85 35.5 29.4 36.15 29.95 36.8 29.95 37.75 M17.45 47.5 L17.35 47.45 17.8 47.0 17.45 47.5 M21.1 35.4 L21.2 34.85 21.25 34.85 21.1 35.4 M27.75 36.55 L25.5 36.85 25.25 37.95 Q26.7 38.2 27.45 39.7 29.0 39.0 28.8 37.15 L28.1 36.65 27.75 36.55 M25.6 39.25 L25.05 38.95 23.5 38.85 Q23.8 39.15 23.75 39.8 L23.7 40.3 24.25 40.9 26.5 40.7 25.6 39.25 M26.55 42.6 Q25.5 42.3 25.25 43.0 L25.2 43.75 25.9 43.35 Q27.2 42.85 26.55 42.6 M25.85 45.35 L24.95 44.7 24.2 45.5 25.85 45.35" fill="#0b0000" fill-rule="evenodd" stroke="none"/>
    <path d="M19.75 36.75 L19.9 36.2 Q20.25 35.65 21.0 35.6 L21.75 35.9 Q21.5 36.8 20.65 36.8 L19.75 36.75" fill="#908788" fill-rule="evenodd" stroke="none"/>
    <path d="M18.5 47.75 L17.45 47.5 17.8 47.0 19.1 44.6 20.1 44.6 19.55 45.8 18.65 45.75 19.4 46.1 18.5 47.75 M22.4 36.6 L23.1 34.75 23.8 34.8 23.6 35.75 23.35 35.95 23.5 36.15 22.45 39.25 21.8 38.85 21.55 38.85 21.95 37.8 22.5 37.65 22.8 37.05 22.4 36.6 M21.45 41.75 L21.05 42.85 21.0 42.85 21.0 42.95 Q20.55 44.2 20.15 43.9 L19.9 42.8 20.35 41.75 21.45 41.75" fill="#3e2b27" fill-rule="evenodd" stroke="none"/>
    <path d="M23.6 35.75 L25.1 35.65 24.4 37.85 23.65 37.9 23.85 36.9 23.5 36.15 23.35 35.95 23.6 35.75" fill="#2e211b" fill-rule="evenodd" stroke="none"/>
    <path d="M32.25 25.7 Q35.25 24.35 34.55 20.95 34.15 19.1 32.4 19.3 31.1 19.65 30.1 18.75 34.2 18.25 36.0 21.25 36.25 23.7 34.55 25.25 L34.05 25.55 35.15 26.5 Q37.15 24.4 36.25 21.8 L36.5 22.6 Q37.55 26.4 34.45 28.55 L34.4 28.15 Q34.4 27.15 33.8 26.45 33.15 25.7 32.25 25.7" fill="#67585d" fill-rule="evenodd" stroke="none"/>
    <path d="M36.0 21.25 L36.25 21.8 Q37.15 24.4 35.15 26.5 L34.05 25.55 34.55 25.25 Q36.25 23.7 36.0 21.25 M34.45 28.55 L34.25 28.7 34.4 28.15 34.45 28.55" fill="#7c7074" fill-rule="evenodd" stroke="none"/>
    <path d="M26.6 16.35 L25.1 16.6 24.95 15.95 26.6 15.55 26.6 16.35" fill="#999091" fill-rule="evenodd" stroke="none"/>
    <path d="M24.95 15.95 L24.7 15.25 27.4 14.15 27.25 15.8 26.6 16.35 26.6 15.55 24.95 15.95" fill="#464445" fill-rule="evenodd" stroke="none"/>
    <path d="M24.75 17.65 L26.65 17.7 Q26.6 20.15 27.45 22.3 L29.15 21.85 27.8 20.45 27.85 16.95 28.2 16.2 28.85 16.65 29.1 19.6 32.15 20.35 Q30.4 21.4 30.65 23.4 L31.15 24.0 31.9 24.2 29.25 25.25 Q26.8 24.9 26.4 22.7 L25.75 18.95 Q25.55 18.05 24.75 17.65" fill="#4d3f3e" fill-rule="evenodd" stroke="none"/>
    <path d="M26.65 17.7 L27.85 16.95 27.8 20.45 29.15 21.85 27.45 22.3 Q26.6 20.15 26.65 17.7" fill="#080000" fill-rule="evenodd" stroke="none"/>
    <path d="M32.15 20.35 Q34.45 20.9 33.2 22.9 L31.9 24.2 31.15 24.0 30.65 23.4 Q30.4 21.4 32.15 20.35 M32.95 22.8 L33.25 21.5 32.2 21.5 31.75 23.0 32.95 22.8" fill="#5a4b4e" fill-rule="evenodd" stroke="none"/>
    <path d="M32.95 22.8 L31.75 23.0 32.2 21.5 33.25 21.5 32.95 22.8" fill="#85747c" fill-rule="evenodd" stroke="none"/>
    <path d="M25.55 31.75 L31.2 31.15 29.95 37.75 Q29.95 36.8 29.4 36.15 28.85 35.5 28.1 35.5 L28.45 33.05 25.05 31.75 25.55 31.75" fill="#273a3e" fill-rule="evenodd" stroke="none"/>
    <path d="M28.1 36.65 L28.8 37.15 Q29.0 39.0 27.45 39.7 26.7 38.2 25.25 37.95 L25.5 36.85 27.75 36.55 Q26.5 36.75 26.1 37.4 L26.65 37.7 Q28.95 37.7 28.1 36.65" fill="#413833" fill-rule="evenodd" stroke="none"/>
    <path d="M27.75 36.55 L28.1 36.65 Q28.95 37.7 26.65 37.7 L26.1 37.4 Q26.5 36.75 27.75 36.55" fill="#797471" fill-rule="evenodd" stroke="none"/>
    <path d="M30.25 41.2 L32.15 33.95 32.55 33.65 32.3 36.75 30.25 41.2 M10.85 43.8 L12.25 34.95 Q12.5 39.0 11.8 43.2 11.4 45.45 13.5 46.5 L13.85 47.15 13.75 47.15 Q11.2 46.1 10.85 43.8" fill="#d3d1dc" fill-rule="evenodd" stroke="none"/>
    <path d="M2.1 62.45 Q1.85 62.0 2.5 61.55 3.25 61.05 4.3 60.9 3.25 61.35 2.1 62.45 M10.2 63.85 L3.35 63.1 5.15 62.35 Q8.15 61.45 10.2 63.85" fill="#e7dce4" fill-rule="evenodd" stroke="none"/>
    <path d="M4.3 60.9 Q8.6 60.3 11.0 63.85 L10.2 63.85 Q8.15 61.45 5.15 62.35 L3.35 63.1 2.1 62.45 Q3.25 61.35 4.3 60.9" fill="#fffafe" fill-rule="evenodd" stroke="none"/>
    <path d="M3.2 67.6 Q0.35 66.5 1.3 63.45 L1.35 63.6 1.45 65.1 Q1.85 66.05 3.6 66.05 5.5 66.05 6.6 64.9 L7.05 64.9 6.35 66.0 9.7 65.85 9.15 66.85 Q6.3 68.25 3.2 67.6" fill="#79767d" fill-rule="evenodd" stroke="none"/>
    <path d="M6.6 64.9 Q5.5 66.05 3.6 66.05 1.85 66.05 1.45 65.1 L1.35 63.6 Q2.5 64.85 6.6 64.9" fill="#c6bebc" fill-rule="evenodd" stroke="none"/>
    <path d="M2.35 69.6 L2.5 68.75 Q3.0 68.25 4.15 69.2 L4.2 69.9 2.35 69.6" fill="#785d52" fill-rule="evenodd" stroke="none"/>
    <path d="M4.2 69.9 L4.2 71.3 2.4 71.05 2.35 69.6 4.2 69.9" fill="#86726b" fill-rule="evenodd" stroke="none"/>
    <path d="M31.2 44.75 L30.55 46.15 29.45 46.1 31.35 41.1 32.05 39.2 31.2 44.75 M24.95 50.7 L24.55 50.8 Q18.2 52.75 13.35 48.6 17.05 50.6 21.9 50.2 24.0 49.95 25.5 49.4 L24.95 50.7" fill="#6e8481" fill-rule="evenodd" stroke="none"/>
    <path d="M23.75 39.8 L25.75 39.65 25.2 39.05 25.6 39.25 26.5 40.7 24.25 40.9 23.7 40.3 23.75 39.8" fill="#534135" fill-rule="evenodd" stroke="none"/>
    <path d="M25.6 39.25 L25.2 39.05 25.75 39.65 23.75 39.8 Q23.8 39.15 23.5 38.85 L25.05 38.95 25.6 39.25" fill="#735b4f" fill-rule="evenodd" stroke="none"/>
    <path d="M26.55 42.6 Q27.2 42.85 25.9 43.35 L25.2 43.75 25.25 43.0 Q25.5 42.3 26.55 42.6" fill="#60534b" fill-rule="evenodd" stroke="none"/>
    <path d="M30.55 46.15 Q29.1 48.95 26.25 50.2 L24.95 50.7 25.5 49.4 27.1 47.0 28.25 46.3 29.45 46.1 30.55 46.15" fill="#b2b0b3" fill-rule="evenodd" stroke="none"/>
    <path d="M19.55 45.8 L21.15 45.65 21.25 46.15 19.4 46.1 18.65 45.75 19.55 45.8 M25.85 45.35 L24.2 45.5 24.95 44.7 25.85 45.35" fill="#3a2c2b" fill-rule="evenodd" stroke="none"/>
    <path d="M26.05 53.4 L26.25 52.55 Q30.55 55.25 33.75 59.75 L26.05 53.4" fill="#a3989e" fill-rule="evenodd" stroke="none"/>
    <path d="M33.75 59.75 L36.45 63.15 25.8 54.6 26.05 53.4 33.75 59.75" fill="#828284" fill-rule="evenodd" stroke="none"/>
    <path d="M41.0 72.7 L38.5 72.05 Q37.5 70.45 36.3 69.15 31.7 64.2 26.3 59.85 22.8 61.4 18.95 60.4 L17.9 58.9 Q22.45 60.45 25.15 57.2 L25.4 56.6 Q27.75 59.6 31.05 61.55 37.65 65.6 41.0 72.7" fill="#889092" fill-rule="evenodd" stroke="none"/>
    <path d="M36.45 63.15 L45.35 74.6 41.0 72.7 Q37.65 65.6 31.05 61.55 27.75 59.6 25.4 56.6 L25.8 54.6 36.45 63.15" fill="#5f6467" fill-rule="evenodd" stroke="none"/>
    <path d="M18.9 41.1 L19.95 39.05 20.85 38.85 Q20.05 39.15 19.35 40.25 L19.75 40.55 19.85 40.55 Q22.05 40.5 22.05 39.2 L21.8 38.85 22.45 39.25 22.65 41.1 21.45 41.75 20.35 41.75 18.9 41.1" fill="#5e4236" fill-rule="evenodd" stroke="none"/>
    <path d="M21.55 38.85 L21.8 38.85 22.05 39.2 Q22.05 40.5 19.85 40.55 L19.75 40.55 19.35 40.25 Q20.05 39.15 20.85 38.85 L21.55 38.85" fill="#a1867b" fill-rule="evenodd" stroke="none"/>
    <path d="M21.05 42.85 L22.05 42.75 Q22.15 43.75 23.25 43.75 23.95 43.75 24.3 42.6 L23.9 44.3 Q22.1 45.3 21.15 43.45 L21.0 42.95 21.0 42.85 21.05 42.85" fill="#5a4743" fill-rule="evenodd" stroke="none"/>
    <path d="M22.05 42.75 L22.5 42.65 23.3 41.9 24.3 42.6 Q23.95 43.75 23.25 43.75 22.15 43.75 22.05 42.75" fill="#857168" fill-rule="evenodd" stroke="none"/>
    <path d="M19.05 37.75 L19.5 38.3 18.15 39.45 16.6 39.3 16.6 38.45 19.05 37.75" fill="#928481" fill-rule="evenodd" stroke="none"/>
    <path d="M16.6 38.45 L17.2 37.3 18.75 37.0 19.05 37.75 16.6 38.45" fill="#a59391" fill-rule="evenodd" stroke="none"/>
    <path d="M15.6 38.25 L15.6 39.85 17.1 40.75 15.15 40.7 14.75 40.45 14.6 40.0 15.6 38.25 M14.85 42.55 L17.45 42.3 17.15 43.65 15.05 43.85 14.45 43.8 14.45 42.85 14.85 42.55" fill="#c4b8b8" fill-rule="evenodd" stroke="none"/>
    <path d="M20.15 43.9 L20.45 44.55 20.1 44.6 19.1 44.6 18.2 43.9 19.0 42.8 19.9 42.8 20.15 43.9" fill="#7e706f" fill-rule="evenodd" stroke="none"/>
    <path d="M15.15 45.0 L16.85 45.0 17.6 45.6 15.9 45.95 15.15 45.0" fill="#817d7a" fill-rule="evenodd" stroke="none"/>
    <path d="M24.75 77.3 L22.2 83.6 21.7 80.4 Q22.15 77.65 20.75 74.65 19.05 70.95 15.15 71.15 L11.1 68.3 Q13.4 65.5 11.1 62.7 L10.55 62.05 14.35 65.75 Q20.1 71.0 24.75 77.3 M7.2 56.4 L9.3 53.85 9.8 53.9 Q10.65 54.1 10.5 54.7 L10.5 54.75 Q9.5 54.8 9.35 55.45 L7.6 56.65 7.2 56.4" fill="#a5a7a6" fill-rule="evenodd" stroke="none"/>
    <path d="M31.15 71.8 L28.25 72.2 Q27.6 72.15 26.95 72.95 L25.7 71.15 Q24.35 67.7 21.05 65.75 L18.8 64.35 Q14.7 61.45 13.35 57.1 12.6 54.8 10.5 54.75 L10.5 54.7 Q10.65 54.1 9.8 53.9 12.6 54.1 14.05 55.15 14.05 56.45 14.65 57.35 15.2 58.25 16.0 58.25 18.9 63.45 24.3 65.9 28.7 67.9 31.15 71.8" fill="#fafbff" fill-rule="evenodd" stroke="none"/>
    <path d="M33.15 71.75 L31.15 71.8 Q28.7 67.9 24.3 65.9 18.9 63.45 16.0 58.25 L17.9 58.9 Q19.8 62.35 23.5 63.65 29.75 65.9 33.15 71.75 M9.3 53.85 L12.35 52.85 14.15 53.65 14.05 55.15 Q12.6 54.1 9.8 53.9 L9.3 53.85" fill="#cfd3d6" fill-rule="evenodd" stroke="none"/>
    <path d="M38.5 72.05 L33.15 71.75 Q29.75 65.9 23.5 63.65 19.8 62.35 17.9 58.9 L18.95 60.4 Q22.8 61.4 26.3 59.85 31.7 64.2 36.3 69.15 37.5 70.45 38.5 72.05 M12.35 52.85 L14.25 52.75 14.15 53.65 12.35 52.85" fill="#a3adae" fill-rule="evenodd" stroke="none"/>
    <path d="M25.4 75.8 L24.75 77.3 Q20.1 71.0 14.35 65.75 L10.55 62.05 8.45 60.35 6.15 59.25 7.2 56.4 7.6 56.65 7.3 57.55 Q17.25 65.7 25.4 75.8" fill="#9a9b9d" fill-rule="evenodd" stroke="none"/>
    <path d="M26.95 72.95 L25.4 75.8 Q17.25 65.7 7.3 57.55 L7.6 56.65 9.35 55.45 9.75 56.1 11.1 55.65 Q13.55 61.8 18.75 65.6 22.75 68.5 25.8 71.85 L25.7 71.15 26.95 72.95" fill="#8a8e8f" fill-rule="evenodd" stroke="none"/>
    <path d="M17.5 55.6 L18.0 53.35 15.75 52.65 16.2 55.1 17.5 55.6 M15.2 54.55 L15.7 51.65 19.7 52.4 Q19.95 54.6 19.05 56.45 L18.85 56.75 Q16.2 57.45 15.2 54.55" fill="#474a4f" fill-rule="evenodd" stroke="none"/>
    <path d="M17.5 55.6 L16.2 55.1 15.75 52.65 18.0 53.35 17.5 55.6" fill="#7b8084" fill-rule="evenodd" stroke="none"/>
    <path d="M19.7 52.4 L25.2 52.25 Q24.7 53.2 24.8 54.3 24.95 56.1 23.8 57.35 19.5 58.95 15.55 56.6 L15.2 54.55 Q16.2 57.45 18.85 56.75 L19.05 56.45 Q19.95 54.6 19.7 52.4" fill="#0b040b" fill-rule="evenodd" stroke="none"/>
    <path d="M3.2 67.6 Q6.3 68.25 9.15 66.85 L9.7 65.85 6.35 66.0 7.05 64.9 11.1 64.7 Q11.55 67.3 8.65 67.8 L3.2 67.6" fill="#474550" fill-rule="evenodd" stroke="none"/>
    <path d="M22.2 83.6 L20.7 88.8 Q17.8 86.85 15.55 83.25 L15.55 82.65 Q18.5 83.3 21.05 82.55 L21.7 80.4 22.2 83.6 M15.15 71.15 Q11.9 71.3 10.05 73.8 L9.55 74.55 5.45 69.45 Q8.75 69.7 11.1 68.3 L15.15 71.15" fill="#aeafb4" fill-rule="evenodd" stroke="none"/>
    <path d="M20.25 75.8 L19.9 76.1 Q17.45 74.15 14.55 73.95 12.45 73.9 12.35 75.95 L12.5 76.15 18.55 77.35 18.1 77.4 16.7 77.45 Q12.7 78.05 10.7 75.3 L11.25 73.9 Q14.05 71.6 17.35 72.75 19.65 73.65 20.25 75.8" fill="#f3f3f5" fill-rule="evenodd" stroke="none"/>
    <path d="M18.1 77.4 L18.55 77.35 12.5 76.15 12.35 75.95 Q12.45 73.9 14.55 73.95 17.45 74.15 19.9 76.1 L20.25 75.8 Q20.6 76.45 19.9 76.95 19.15 77.4 18.1 77.4" fill="#d7d7df" fill-rule="evenodd" stroke="none"/>
    <path d="M16.15 78.65 L20.5 78.15 20.35 81.45 Q15.05 82.3 10.9 79.1 9.9 78.25 10.2 76.8 L10.65 77.25 10.9 78.25 Q11.4 79.1 12.6 79.3 15.65 81.65 19.15 80.45 L18.95 79.4 16.0 80.3 15.3 79.65 16.15 78.65" fill="#444245" fill-rule="evenodd" stroke="none"/>
    <path d="M10.65 77.25 L11.55 77.8 Q12.9 78.5 15.35 78.65 L12.6 79.3 Q11.4 79.1 10.9 78.25 L10.65 77.25" fill="#a09fa4" fill-rule="evenodd" stroke="none"/>
    <path d="M6.4 78.65 L6.7 73.6 9.15 77.2 9.15 79.75 Q7.8 78.95 6.4 78.65 M14.7 86.2 L15.3 84.95 16.3 86.5 Q19.6 91.7 25.55 90.9 L24.85 93.7 24.8 93.95 Q20.05 94.75 17.4 90.45 L14.7 86.2" fill="#4c4f54" fill-rule="evenodd" stroke="none"/>
    <path d="M6.4 78.65 Q7.8 78.95 9.15 79.75 L10.4 80.9 10.3 83.2 Q8.5 81.5 7.6 81.1 L6.15 80.65 6.4 78.65 M12.6 86.9 Q13.55 87.0 14.3 86.55 L14.7 86.2 17.4 90.45 Q20.05 94.75 24.8 93.95 L24.65 94.55 24.1 96.65 Q23.85 96.7 23.6 97.05 L23.3 96.5 Q15.8 94.5 12.6 86.9" fill="#5a6466" fill-rule="evenodd" stroke="none"/>
    <path d="M10.3 83.2 L10.45 86.1 12.6 86.9 Q15.8 94.5 23.3 96.5 L23.6 97.05 21.95 100.2 Q16.25 94.7 11.7 88.25 9.6 85.2 6.25 83.95 L6.15 80.65 7.6 81.1 Q8.5 81.5 10.3 83.2 M24.85 93.7 L24.65 94.55 24.8 93.95 24.85 93.7" fill="#697476" fill-rule="evenodd" stroke="none"/>
    <path d="M11.2 82.55 L11.15 81.35 14.5 82.8 11.2 82.55" fill="#04070c" fill-rule="evenodd" stroke="none"/>
    <path d="M14.5 82.8 Q14.85 85.7 12.2 85.55 L11.9 85.45 Q11.05 84.7 11.2 83.4 L11.2 82.55 14.5 82.8 M12.5 84.65 L13.45 84.85 14.1 83.9 12.5 83.8 12.5 84.65" fill="#2b3033" fill-rule="evenodd" stroke="none"/>
    <path d="M12.5 84.65 L12.5 83.8 14.1 83.9 13.45 84.85 12.5 84.65" fill="#3c4144" fill-rule="evenodd" stroke="none"/>
    <path d="M15.35 78.65 L16.15 78.65 15.3 79.65 16.0 80.3 18.95 79.4 19.15 80.45 Q15.65 81.65 12.6 79.3 L15.35 78.65" fill="#5e585c" fill-rule="evenodd" stroke="none"/>
    <path d="M24.3 85.55 L23.4 86.35 23.35 87.4 25.2 87.35 Q27.95 87.75 27.75 90.45 27.5 93.55 25.5 96.0 L26.95 89.55 21.9 89.5 Q23.3 80.95 27.15 74.7 30.7 72.1 37.65 73.4 43.2 74.4 46.3 76.45 L44.0 99.15 43.5 99.55 43.7 97.8 Q44.0 93.4 43.1 89.05 L43.2 86.35 Q44.9 82.25 44.4 77.95 L44.05 76.2 Q36.55 72.75 28.8 75.55 L27.35 76.0 27.0 76.8 27.8 77.45 24.3 85.55" fill="#a5a6ab" fill-rule="evenodd" stroke="none"/>
    <path d="M25.2 87.35 L25.05 85.6 24.3 85.55 27.8 77.45 28.85 77.65 Q29.65 77.65 29.65 76.65 29.65 75.75 28.8 75.55 36.55 72.75 44.05 76.2 L44.4 77.95 Q44.9 82.25 43.2 86.35 L41.35 85.1 36.9 92.3 Q32.7 98.4 27.6 100.2 27.4 99.65 26.75 99.65 25.65 99.65 25.4 100.35 24.75 100.3 24.3 99.85 L24.2 100.15 25.5 96.0 Q27.5 93.55 27.75 90.45 27.95 87.75 25.2 87.35" fill="#8f989d" fill-rule="evenodd" stroke="none"/>
    <path d="M43.2 86.35 L43.1 89.05 Q42.25 88.2 41.15 88.05 L40.8 88.2 Q40.15 93.85 35.8 98.4 L33.2 98.45 32.7 98.8 32.0 101.1 32.15 101.65 31.7 101.9 27.25 102.85 23.95 102.7 24.2 100.15 24.3 99.85 Q24.75 100.3 25.4 100.35 L25.3 101.2 Q26.35 101.95 27.4 101.5 L27.6 100.2 Q32.7 98.4 36.9 92.3 L41.35 85.1 43.2 86.35 M41.45 87.55 L42.0 87.7 41.6 87.3 41.45 87.55" fill="#8a8f95" fill-rule="evenodd" stroke="none"/>
    <path d="M41.45 87.55 L41.6 87.3 42.0 87.7 41.45 87.55" fill="#ff0000" fill-opacity="0.0" fill-rule="evenodd" stroke="none"/>
    <path d="M43.1 89.05 Q44.0 93.4 43.7 97.8 L43.5 99.55 41.1 100.65 41.6 99.15 42.75 98.8 42.8 97.75 42.1 97.3 Q43.75 93.85 42.0 90.4 L41.55 89.6 Q41.0 95.2 37.8 99.45 L35.8 98.4 Q40.15 93.85 40.8 88.2 L41.15 88.05 Q42.25 88.2 43.1 89.05 M31.7 101.9 L32.15 101.65 32.25 101.85 31.7 101.9" fill="#717b7c" fill-rule="evenodd" stroke="none"/>
    <path d="M27.25 102.85 L31.7 101.9 32.25 101.85 32.7 102.6 27.25 102.85 M37.8 99.45 Q41.0 95.2 41.55 89.6 L42.0 90.4 Q43.75 93.85 42.1 97.3 L40.9 97.4 Q40.2 97.55 40.0 97.95 39.8 98.35 40.2 98.7 L41.6 99.15 41.1 100.65 39.85 101.0 37.8 99.45" fill="#627071" fill-rule="evenodd" stroke="none"/>
    <path d="M33.35 100.15 L33.7 99.6 Q38.5 99.4 40.1 104.2 L40.2 104.7 Q36.25 104.05 33.95 100.95 L33.35 100.15 M34.7 100.0 Q35.3 101.5 39.25 103.2 37.65 100.6 34.7 100.0" fill="#888483" fill-rule="evenodd" stroke="none"/>
    <path d="M40.2 104.7 L39.85 105.55 Q35.7 104.85 33.15 101.3 L33.35 100.15 33.95 100.95 Q36.25 104.05 40.2 104.7" fill="#585657" fill-rule="evenodd" stroke="none"/>
    <path d="M34.7 100.0 Q37.65 100.6 39.25 103.2 35.3 101.5 34.7 100.0" fill="#bbbbbb" fill-rule="evenodd" stroke="none"/>
    <path d="M24.1 96.65 L22.75 102.15 21.55 101.2 Q12.45 93.75 6.25 83.95 9.6 85.2 11.7 88.25 16.25 94.7 21.95 100.2 L23.6 97.05 Q23.85 96.7 24.1 96.65" fill="#738182" fill-rule="evenodd" stroke="none"/>
  </g>
</svg>
