<?xml version="1.0" encoding="UTF-8" standalone="no"?>
<svg xmlns:ffdec="https://www.free-decompiler.com/flash" xmlns:xlink="http://www.w3.org/1999/xlink" ffdec:objectType="shape" height="115.32000000000001px" width="66.72px" xmlns="http://www.w3.org/2000/svg">
  <g transform="matrix(1.2, 0.0, 0.0, 1.2, 34.86, 35.28)">
    <path d="M26.5 -25.55 L26.55 -24.55 26.5 -22.2 26.5 -19.9 26.4 -17.6 26.35 -15.35 26.2 -13.1 26.1 -10.9 25.9 -8.7 25.75 -6.55 25.5 -4.4 25.25 -2.35 24.9 -0.25 24.6 1.75 24.2 3.75 23.85 5.7 23.45 7.7 22.6 11.5 21.55 15.2 20.4 18.8 19.15 22.2 17.75 25.6 16.25 28.75 14.6 31.9 12.9 34.9 11.05 37.75 9.05 40.55 6.95 43.2 4.75 45.75 2.45 48.2 0.0 50.5 -2.6 52.65 -5.25 54.75 -8.05 56.75 -10.9 58.65 -13.9 60.35 -17.1 61.9 -20.3 63.5 -23.7 64.9 -27.25 66.0 -29.05 66.7 -28.75 62.45 -28.6 60.25 -28.4 57.95 -28.3 55.65 -28.15 53.25 -28.05 50.85 -28.0 49.65 -27.9 48.35 -27.9 47.15 -27.8 45.85 -27.7 44.55 -27.65 43.25 -27.6 41.95 -27.6 40.65 -27.55 39.3 -27.45 37.9 -27.4 36.6 -27.3 33.8 -26.45 19.45 Q-25.6 5.65 -25.9 -26.35 L1.1 -28.05 4.2 -27.85 Q15.65 -27.65 26.05 -29.4 L26.5 -25.55" fill="url(#gradient0)" fill-rule="evenodd" stroke="none"/>
  </g>
  <defs>
    <linearGradient gradientTransform="matrix(0.0229, 0.0229, -0.0254, 0.0254, 0.0, 0.0)" gradientUnits="userSpaceOnUse" id="gradient0" spreadMethod="pad" x1="-819.2" x2="819.2">
      <stop offset="0.0" stop-color="#fee798" stop-opacity="0.49803922"/>
      <stop offset="1.0" stop-color="#e8cb2b" stop-opacity="0.0"/>
    </linearGradient>
  </defs>
</svg>
