<?xml version="1.0" encoding="UTF-8" standalone="no"?>
<svg xmlns:ffdec="https://www.free-decompiler.com/flash" xmlns:xlink="http://www.w3.org/1999/xlink" ffdec:objectType="shape" height="130.38px" width="60.419999999999995px" xmlns="http://www.w3.org/2000/svg">
  <g transform="matrix(1.2, 0.0, 0.0, 1.2, 0.9, 0.9)">
    <path d="M6.55 28.35 Q7.15 26.8 8.3 25.65 9.1 24.85 10.1 24.8 11.0 25.1 11.65 25.6 L10.1 39.9 10.05 39.95 Q8.9 43.5 8.75 47.3 L8.55 54.0 8.55 54.05 7.55 63.3 7.15 66.75 12.5 67.5 Q10.05 69.85 10.2 73.25 L8.2 73.0 8.05 72.7 Q7.55 72.35 7.2 72.55 5.95 77.1 5.95 81.95 L5.95 82.15 6.7 82.6 6.3 90.0 6.15 92.8 8.0 93.0 7.65 93.1 Q4.45 94.0 6.0 96.9 6.3 97.45 6.9 97.5 L20.0 99.0 31.45 99.4 32.35 99.05 31.55 103.65 31.45 104.2 31.4 104.5 30.95 107.15 4.8 105.0 4.55 104.65 4.1 104.6 0.0 104.5 6.55 28.35 M39.7 30.5 L41.35 30.55 Q43.45 31.1 43.3 33.3 L43.1 36.6 41.7 44.7 Q41.05 44.05 39.95 43.7 L38.75 44.05 Q38.0 44.45 37.75 45.25 L37.65 45.6 39.65 30.85 39.7 30.5 M33.55 92.15 L33.35 93.15 33.3 92.1 33.55 92.15" fill="#9d806a" fill-rule="evenodd" stroke="none"/>
    <path d="M6.55 28.35 L8.95 0.0 48.85 3.05 43.1 36.6 43.3 33.3 Q43.45 31.1 41.35 30.55 L39.7 30.5 42.2 12.0 38.2 11.75 31.15 11.35 30.8 11.3 13.3 10.2 11.65 25.6 Q11.0 25.1 10.1 24.8 9.1 24.85 8.3 25.65 7.15 26.8 6.55 28.35 M4.8 105.0 L0.0 104.6 0.0 104.5 4.1 104.6 4.55 104.65 4.8 105.0 M8.55 54.0 L8.75 47.3 Q8.9 43.5 10.05 39.95 L10.1 39.9 8.55 54.0 M33.95 70.5 L33.65 71.55 Q32.85 73.8 32.5 76.2 L32.2 76.15 29.9 75.85 21.5 74.75 21.3 72.75 21.6 68.8 24.5 69.2 33.95 70.5 M6.7 82.6 L5.95 82.15 5.95 81.95 Q5.95 77.1 7.2 72.55 7.55 72.35 8.05 72.7 L8.2 73.0 7.15 72.85 6.7 82.6" fill="#714f35" fill-rule="evenodd" stroke="none"/>
    <path d="M11.65 25.6 L13.3 10.2 30.8 11.3 Q29.35 14.95 28.75 18.85 28.1 19.8 28.25 20.95 28.4 22.2 28.1 23.35 26.25 30.45 24.8 37.6 L23.4 45.15 Q23.05 45.6 23.0 46.1 L22.45 49.75 Q21.85 54.55 22.1 59.5 21.65 60.1 21.65 60.85 L21.6 65.55 21.2 65.45 Q21.85 62.6 18.8 61.65 16.35 61.85 16.1 64.3 L16.1 64.65 7.55 63.3 8.55 54.05 8.55 54.0 10.1 39.9 11.65 25.6 M8.2 73.0 L10.2 73.25 15.3 73.95 Q14.75 75.9 14.75 78.05 14.7 80.45 15.4 82.65 L15.85 83.1 18.35 83.8 17.9 86.2 17.3 91.35 6.3 90.0 6.7 82.6 7.15 72.85 8.2 73.0" fill="#a6b2c0" fill-rule="evenodd" stroke="none"/>
    <path d="M30.8 11.3 L31.15 11.35 38.2 11.75 30.95 67.0 28.85 66.7 21.6 65.55 21.65 60.85 Q21.65 60.1 22.1 59.5 21.85 54.55 22.45 49.75 L23.0 46.1 Q23.05 45.6 23.4 45.15 L24.8 37.6 Q26.25 30.45 28.1 23.35 28.4 22.2 28.25 20.95 28.1 19.8 28.75 18.85 29.35 14.95 30.8 11.3 M21.5 74.75 L29.9 75.85 29.1 80.55 Q24.7 79.4 20.05 79.0 L20.2 77.2 Q20.45 75.65 20.15 74.55 L21.5 74.75 M17.3 91.35 L17.9 86.2 18.35 83.8 28.05 85.45 28.3 85.5 28.25 85.85 27.1 92.55 23.25 92.1 17.3 91.35" fill="#d3d9e0" fill-rule="evenodd" stroke="none"/>
    <path d="M38.2 11.75 L42.2 12.0 39.7 30.5 39.65 30.85 37.65 45.6 37.65 45.65 34.25 70.55 33.95 70.5 24.5 69.2 26.4 69.05 Q28.6 68.8 28.85 66.7 L30.95 67.0 38.2 11.75 M31.05 86.9 L29.65 95.4 20.0 94.35 21.1 94.1 Q23.15 93.55 23.25 92.1 L27.1 92.55 28.25 85.85 Q28.85 87.35 31.05 86.9 M32.2 76.15 L32.5 76.2 32.75 76.25 32.2 76.15" fill="#665247" fill-rule="evenodd" stroke="none"/>
    <path d="M41.7 44.7 L33.55 92.15 33.3 92.1 33.35 93.15 32.4 98.75 32.35 99.05 31.45 99.4 20.0 99.0 6.9 97.5 Q6.3 97.45 6.0 96.9 4.45 94.0 7.65 93.1 L8.0 93.0 8.05 93.0 20.0 94.35 29.65 95.4 31.05 86.9 32.75 76.25 32.75 76.2 32.5 76.2 Q32.85 73.8 33.65 71.55 L33.95 70.5 34.25 70.55 37.65 45.65 37.65 45.6 37.75 45.25 Q38.0 44.45 38.75 44.05 L39.95 43.7 Q41.05 44.05 41.7 44.7 M21.6 68.8 L21.3 72.75 21.5 74.75 20.15 74.55 20.1 74.55 15.8 74.0 15.3 73.95 10.2 73.25 Q10.05 69.85 12.5 67.5 L21.6 68.8" fill="#c5b4a5" fill-rule="evenodd" stroke="none"/>
    <path d="M20.0 94.35 L8.05 93.0 8.0 93.0 6.15 92.8 6.3 90.0 17.3 91.35 23.25 92.1 Q23.15 93.55 21.1 94.1 L20.0 94.35 M24.5 69.2 L21.6 68.8 12.5 67.5 7.15 66.75 7.55 63.3 16.1 64.65 20.9 65.4 21.2 65.45 21.6 65.55 28.85 66.7 Q28.6 68.8 26.4 69.05 L24.5 69.2" fill="#997e70" fill-rule="evenodd" stroke="none"/>
    <path d="M21.2 65.45 L20.9 65.4 16.1 64.65 16.1 64.3 Q16.35 61.85 18.8 61.65 21.85 62.6 21.2 65.45 M18.35 83.8 L15.85 83.1 15.4 82.65 Q14.7 80.45 14.75 78.05 14.75 75.9 15.3 73.95 L15.8 74.0 20.1 74.55 20.15 74.55 Q20.45 75.65 20.2 77.2 L20.05 79.0 Q24.7 79.4 29.1 80.55 L28.3 85.5 28.05 85.45 18.35 83.8" fill="#8e9eaf" fill-rule="evenodd" stroke="none"/>
    <path d="M32.75 76.25 L31.05 86.9 Q28.85 87.35 28.25 85.85 L28.3 85.5 29.1 80.55 29.9 75.85 32.2 76.15 32.75 76.25" fill="#000000" fill-rule="evenodd" stroke="none"/>
    <path d="M43.1 36.6 L48.85 3.05 8.95 0.0 6.55 28.35 0.0 104.5 0.0 104.6 4.8 105.0 30.95 107.15 31.4 104.5 M11.65 25.6 L13.3 10.2 30.8 11.3 M31.15 11.35 L38.2 11.75 42.2 12.0 39.7 30.5 M43.1 36.6 L41.7 44.7 33.55 92.15 33.35 93.15 32.4 98.75 M32.35 99.05 L31.55 103.65 31.45 104.2 M8.55 54.0 L10.1 39.9 11.65 25.6 M39.65 30.85 L37.65 45.6 37.65 45.65 34.25 70.55 33.95 70.5 24.5 69.2 21.6 68.8 12.5 67.5 7.15 66.75 7.55 63.3 16.1 64.65 20.9 65.4 M32.5 76.2 L32.75 76.2 32.75 76.25 31.05 86.9 29.65 95.4 20.0 94.35 8.05 93.0 8.0 93.0 6.15 92.8 6.3 90.0 17.3 91.35 23.25 92.1 27.1 92.55 28.25 85.85 M21.5 74.75 L29.9 75.85 32.2 76.15 32.5 76.2 M28.85 66.7 L21.6 65.55 21.2 65.45 M38.2 11.75 L30.95 67.0 28.85 66.7 M8.55 54.05 L7.55 63.3 M8.2 73.0 L10.2 73.25 15.3 73.95 M8.2 73.0 L7.15 72.85 6.7 82.6 6.3 90.0 M20.15 74.55 L20.1 74.55 15.8 74.0 M29.1 80.55 L29.9 75.85 M28.3 85.5 L29.1 80.55 M21.5 74.75 L20.15 74.55" fill="none" stroke="#000000" stroke-linecap="round" stroke-linejoin="round" stroke-width="1.5"/>
    <path d="M29.1 64.5 L29.1 64.35 29.15 63.9 21.55 63.4 21.4 64.9 19.15 64.75 19.1 64.75 19.45 60.6 32.25 61.1 31.85 65.15 29.05 65.1 29.1 64.5" fill="#b7b2b1" fill-rule="evenodd" stroke="none"/>
    <path d="M21.4 64.9 L21.55 63.4 29.15 63.9 29.1 64.35 29.1 64.5 28.8 67.2 28.75 67.4 25.6 66.95 21.3 66.45 21.4 64.9" fill="#000000" fill-rule="evenodd" stroke="none"/>
    <path d="M29.1 64.5 L29.05 65.1 31.85 65.15 30.85 75.4 30.8 75.65 30.2 81.8 17.65 80.55 19.1 64.75 19.15 64.75 21.4 64.9 21.3 66.45 20.45 76.95 23.55 77.3 27.6 77.75 28.75 67.4 28.8 67.2 29.1 64.5" fill="#5a5154" fill-rule="evenodd" stroke="none"/>
    <path d="M25.6 66.95 L28.75 67.4 27.6 77.75 23.55 77.3 Q23.95 73.1 25.05 69.05 L25.6 66.95" fill="#998d8e" fill-rule="evenodd" stroke="none"/>
    <path d="M21.3 66.45 L25.6 66.95 25.05 69.05 Q23.95 73.1 23.55 77.3 L20.45 76.95 21.3 66.45" fill="#7f7271" fill-rule="evenodd" stroke="none"/>
    <path d="M21.4 64.9 L21.55 63.4 29.15 63.9 29.1 64.35 29.1 64.5 28.8 67.2 M31.85 65.15 L32.25 61.1 19.45 60.6 19.1 64.75 17.65 80.55 30.2 81.8 30.8 75.65 M21.4 64.9 L21.3 66.45 20.45 76.95 23.55 77.3 27.6 77.75 28.75 67.4 M30.85 75.4 L31.85 65.15" fill="none" stroke="#000000" stroke-linecap="round" stroke-linejoin="round" stroke-width="1.5"/>
    <path d="M12.65 20.55 L16.45 21.05 22.5 21.15 26.65 21.5 29.15 21.75 37.9 21.5 38.8 21.05 38.8 22.45 38.4 22.45 38.8 22.45 38.95 22.45 39.45 22.5 38.4 22.45 38.0 22.45 12.5 22.05 12.65 20.55 M38.8 20.05 L12.8 19.0 13.0 16.7 13.65 16.75 13.7 16.85 Q13.9 17.2 14.25 17.25 L23.05 17.85 28.5 18.55 31.45 18.75 37.0 18.85 38.05 18.9 39.55 19.0 39.55 20.05 38.8 20.05 M13.3 13.8 L13.5 13.8 28.8 14.15 31.7 14.35 32.7 14.4 40.0 14.35 40.0 13.8 40.1 16.65 39.55 16.65 13.1 15.65 13.3 13.8 M40.1 24.9 L40.15 25.7 39.25 25.7 12.4 24.7 12.45 22.45 12.45 23.0 Q13.1 23.75 14.5 23.9 L18.1 24.1 32.0 24.25 37.9 24.65 40.1 24.9 M38.2 30.05 L38.2 31.05 37.5 31.05 11.9 30.3 11.9 29.55 13.5 29.45 13.95 29.4 20.7 29.4 26.95 29.6 28.1 29.65 30.8 29.9 32.55 30.0 38.2 30.05 M37.5 33.65 L37.5 34.15 31.4 33.9 30.95 33.9 37.5 33.65 30.95 33.9 30.4 33.9 11.25 34.6 11.4 32.95 20.15 33.05 20.7 33.05 24.4 32.85 25.6 32.65 Q29.9 31.45 34.4 31.9 L37.5 32.15 37.5 33.65 M37.4 37.0 L37.3 38.95 10.95 37.55 11.05 36.35 12.45 36.65 15.9 37.35 16.8 37.45 22.55 37.45 22.95 37.4 23.85 37.35 37.4 37.0" fill="#ddb18d" fill-rule="evenodd" stroke="none"/>
    <path d="M38.8 21.05 L37.9 21.5 29.15 21.75 26.65 21.5 22.5 21.15 16.45 21.05 12.65 20.55 12.8 19.0 38.8 20.05 38.8 21.05 M12.5 22.05 L38.0 22.45 38.4 22.45 39.45 22.5 39.85 22.5 40.1 24.9 37.9 24.65 32.0 24.25 18.1 24.1 14.5 23.9 Q13.1 23.75 12.45 23.0 L12.45 22.45 12.5 22.05 M39.55 19.0 L38.05 18.9 37.0 18.85 31.45 18.75 28.5 18.55 23.05 17.85 14.25 17.25 Q13.9 17.2 13.7 16.85 L13.65 16.75 13.0 16.7 13.1 15.65 39.55 16.65 39.55 19.0 M13.55 11.15 L39.95 12.75 40.0 13.8 40.0 14.35 32.7 14.4 31.7 14.35 28.8 14.15 13.5 13.8 13.3 13.8 13.55 11.15 M38.2 28.2 L38.2 30.05 32.55 30.0 30.8 29.9 28.1 29.65 26.95 29.6 20.7 29.4 13.95 29.4 13.5 29.45 11.9 29.55 11.9 27.85 38.2 28.2 M38.2 31.1 L38.8 31.1 38.8 31.15 38.6 33.6 37.5 33.65 37.5 32.15 34.4 31.9 Q29.9 31.45 25.6 32.65 L24.4 32.85 20.7 33.05 20.15 33.05 11.4 32.95 11.65 30.3 11.9 30.3 37.5 31.05 38.2 31.1 M37.5 34.15 L37.4 37.0 23.85 37.35 22.95 37.4 22.55 37.45 16.8 37.45 15.9 37.35 12.45 36.65 11.05 36.35 11.25 34.6 30.4 33.9 30.95 33.9 31.4 33.9 37.5 34.15" fill="#a3693c" fill-rule="evenodd" stroke="none"/>
    <path d="M38.8 20.05 L12.8 19.0 M12.5 22.05 L38.0 22.45 38.4 22.45 38.8 22.45 38.95 22.45 39.45 22.5 39.85 22.5 40.1 24.9 40.15 25.7 39.25 25.7 39.45 28.05 39.5 28.2 38.2 28.2 38.2 30.05 38.2 31.05 38.2 31.1 38.8 31.1 38.8 31.15 38.6 33.6 37.5 33.65 37.5 34.15 37.4 37.0 37.3 38.95 10.95 37.55 M40.0 13.8 L39.95 12.75 13.55 11.15 M40.0 13.8 L40.1 16.65 40.1 16.7 39.55 16.65 39.55 19.0 39.55 20.05 38.8 20.05 38.95 22.45 M11.65 30.3 L11.9 30.3 37.5 31.05 38.2 31.1 M11.9 27.85 L38.2 28.2 M39.55 16.65 L13.1 15.65 M12.4 24.7 L39.25 25.7 M37.5 33.65 L30.95 33.9 M11.25 34.6 L30.4 33.9" fill="none" stroke="#000000" stroke-linecap="round" stroke-linejoin="round" stroke-width="1.5"/>
  </g>
</svg>
