<?xml version="1.0" encoding="UTF-8" standalone="no"?>
<svg xmlns:ffdec="https://www.free-decompiler.com/flash" xmlns:xlink="http://www.w3.org/1999/xlink" ffdec:objectType="shape" height="145.73999999999998px" width="61.14px" xmlns="http://www.w3.org/2000/svg">
  <g transform="matrix(1.2, 0.0, 0.0, 1.2, 0.9, 0.9)">
    <path d="M13.15 0.0 L13.5 0.05 49.45 4.0 32.7 108.6 0.0 106.8 13.15 0.0" fill="#e0e4e9" fill-rule="evenodd" stroke="none"/>
    <path d="M13.5 0.05 L49.45 4.0 32.7 108.6 0.0 106.8 13.15 0.0" fill="none" stroke="#000000" stroke-linecap="round" stroke-linejoin="round" stroke-width="1.5"/>
    <path d="M33.8 8.2 L33.7 8.2 12.8 2.35 12.4 2.25 12.05 2.15 9.85 1.55 16.0 0.0 39.5 7.5 33.8 8.2 M22.75 68.05 L24.9 49.55 24.95 49.2 25.5 49.1 Q27.5 49.75 28.45 51.05 L21.85 104.2 Q21.2 105.0 20.0 105.05 L14.3 104.65 Q10.25 104.05 6.85 102.3 2.4 100.05 4.85 96.15 L5.0 95.95 4.95 96.45 17.75 103.55 18.25 99.65 19.35 91.05 20.35 83.35 20.3 83.35 20.95 78.3 15.8 76.45 14.75 76.1 9.95 74.35 7.25 73.4 7.0 75.9 6.95 76.35 Q5.8 75.65 4.9 74.35 3.9 73.0 4.0 71.25 4.1 67.6 6.4 65.05 6.75 64.6 7.25 64.4 L7.1 65.5 22.4 70.85 22.75 68.05" fill="#c5b4a5" fill-rule="evenodd" stroke="none"/>
    <path d="M33.7 8.2 L33.8 8.2 39.5 7.5 25.25 119.95 19.9 119.9 21.85 104.2 28.45 51.05 29.1 46.1 Q27.45 46.9 25.35 45.6 L25.45 44.8 29.15 12.8 26.2 12.25 16.7 10.55 11.35 64.05 16.4 65.85 16.5 65.85 16.95 66.0 22.75 68.05 22.4 70.85 7.1 65.5 7.25 64.4 7.9 58.45 13.3 9.9 16.7 10.55 13.3 9.9 7.9 58.45 6.75 59.45 Q5.55 60.35 4.3 59.85 L9.35 4.25 9.4 4.05 10.3 2.85 Q10.75 2.3 11.45 2.2 L12.0 2.15 12.05 2.15 12.4 2.25 12.8 2.35 33.7 8.2 M33.8 8.2 L29.1 46.1 33.8 8.2 M6.95 76.35 L7.0 75.9 7.25 73.4 9.95 74.35 8.4 86.55 7.45 93.95 13.55 97.15 18.25 99.65 17.75 103.55 4.95 96.45 5.0 95.95 6.95 76.35" fill="#714f35" fill-rule="evenodd" stroke="none"/>
    <path d="M16.95 66.0 L17.85 57.9 Q19.0 47.7 20.95 37.65 21.95 32.55 23.2 27.55 24.8 21.3 25.8 14.95 L26.2 12.25 29.15 12.8 25.45 44.8 24.9 49.55 22.75 68.05 16.95 66.0 M15.8 76.45 L20.95 78.3 20.3 83.35 15.35 80.95 15.6 78.5 15.8 76.45 M19.35 91.05 L18.25 99.65 13.55 97.15 13.75 95.0 14.35 89.85 17.05 90.3 Q18.1 90.4 19.05 90.9 L19.35 91.05" fill="#d3d9e0" fill-rule="evenodd" stroke="none"/>
    <path d="M26.2 12.25 L25.8 14.95 Q24.8 21.3 23.2 27.55 21.95 32.55 20.95 37.65 19.0 47.7 17.85 57.9 L16.95 66.0 16.5 65.85 16.4 65.85 11.35 64.05 16.7 10.55 26.2 12.25 M14.75 76.1 L15.8 76.45 15.6 78.5 15.35 80.95 15.2 80.9 15.05 80.4 Q14.6 79.45 14.75 78.5 14.95 77.15 14.75 76.1 M14.35 89.85 L13.75 95.0 13.55 97.15 7.45 93.95 8.4 86.55 Q10.85 88.95 14.35 89.85" fill="#a6b2c0" fill-rule="evenodd" stroke="none"/>
    <path d="M9.85 1.55 L12.05 2.15 12.0 2.15 11.45 2.2 Q10.75 2.3 10.3 2.85 L9.4 4.05 9.6 1.45 9.85 1.55 M24.9 49.55 L25.45 44.8 25.35 45.6 Q27.45 46.9 29.1 46.1 L28.45 51.05 Q27.5 49.75 25.5 49.1 L24.95 49.2 24.9 49.55 M19.9 119.9 L19.9 119.95 0.0 106.8 4.3 59.85 Q5.55 60.35 6.75 59.45 L7.9 58.45 7.25 64.4 Q6.75 64.6 6.4 65.05 4.1 67.6 4.0 71.25 3.9 73.0 4.9 74.35 5.8 75.65 6.95 76.35 L5.0 95.95 4.85 96.15 Q2.4 100.05 6.85 102.3 10.25 104.05 14.3 104.65 L20.0 105.05 Q21.2 105.0 21.85 104.2 L19.9 119.9" fill="#9d806a" fill-rule="evenodd" stroke="none"/>
    <path d="M9.95 74.35 L14.75 76.1 Q14.95 77.15 14.75 78.5 14.6 79.45 15.05 80.4 L15.2 80.9 15.35 80.95 20.3 83.35 20.35 83.35 19.35 91.05 19.05 90.9 Q18.1 90.4 17.05 90.3 L14.35 89.85 Q10.85 88.95 8.4 86.55 L9.95 74.35 M19.35 91.05 L20.3 83.35 19.35 91.05" fill="#8e9eaf" fill-rule="evenodd" stroke="none"/>
    <path d="M33.8 8.2 L33.7 8.2 33.8 8.2 39.5 7.5 16.0 0.0 9.85 1.55 12.05 2.15 12.4 2.25 M12.8 2.35 L33.7 8.2 M16.95 66.0 L22.75 68.05 24.9 49.55 25.45 44.8 29.15 12.8 26.2 12.25 16.7 10.55 11.35 64.05 16.4 65.85 16.5 65.85 M28.45 51.05 L29.1 46.1 33.8 8.2 M39.5 7.5 L25.25 119.95 19.9 119.9 19.9 119.95 0.0 106.8 4.3 59.85 9.35 4.25 M9.4 4.05 L9.6 1.45 9.85 1.55 M7.9 58.45 L13.3 9.9 16.7 10.55 M22.75 68.05 L22.4 70.85 7.1 65.5 7.25 64.4 7.9 58.45 M7.0 75.9 L7.25 73.4 9.95 74.35 14.75 76.1 15.8 76.45 20.95 78.3 20.3 83.35 19.35 91.05 18.25 99.65 17.75 103.55 4.95 96.45 5.0 95.95 6.95 76.35 M21.85 104.2 L28.45 51.05 M13.55 97.15 L18.25 99.65 M8.4 86.55 L7.45 93.95 13.55 97.15 M8.4 86.55 L9.95 74.35 M19.9 119.9 L21.85 104.2" fill="none" stroke="#000000" stroke-linecap="round" stroke-linejoin="round" stroke-width="1.5"/>
    <path d="M28.75 15.05 L28.5 16.85 13.8 15.1 13.45 15.05 14.1 12.25 14.0 12.8 18.0 13.6 18.55 13.65 20.2 13.75 28.65 15.0 28.75 15.05 M28.4 17.9 L28.1 20.2 13.6 18.5 13.2 18.45 13.4 17.4 14.2 17.45 14.8 17.5 17.9 18.0 19.5 18.1 22.65 17.95 27.6 18.35 28.0 18.0 28.0 17.9 28.4 17.9 M27.85 21.7 L27.65 23.2 13.6 20.95 13.35 20.9 13.15 20.85 13.35 20.9 12.75 20.85 13.05 20.85 13.15 20.85 13.4 19.45 13.8 20.0 Q16.05 21.1 18.55 21.2 L19.95 21.2 22.35 21.25 25.7 21.8 27.85 21.7 M27.55 24.15 L27.2 25.85 12.25 23.95 11.75 23.85 11.9 23.15 13.2 23.1 16.55 23.35 24.15 24.65 26.2 24.8 Q27.0 24.8 27.55 24.15 M27.05 27.55 L27.05 27.6 26.9 29.0 12.35 26.6 12.5 25.7 16.55 26.25 18.85 26.4 22.0 26.6 23.6 26.6 Q25.5 26.4 27.05 27.55 M26.6 30.65 L26.45 31.4 11.8 29.4 12.0 28.4 15.1 28.9 16.15 29.0 17.65 29.05 18.3 29.1 21.8 29.55 25.5 30.25 25.7 30.35 26.6 30.65 M26.2 34.05 L26.0 35.65 15.6 32.95 15.3 32.9 15.15 32.85 15.05 32.85 11.65 32.45 11.75 32.0 12.0 30.5 13.75 30.6 Q16.35 30.6 18.45 32.25 L19.1 32.55 21.1 33.15 21.4 33.2 26.2 34.05 M25.8 37.45 L25.6 38.6 10.85 37.2 11.15 35.25 18.55 37.05 19.05 37.2 19.2 37.25 22.4 37.85 22.95 37.85 24.95 37.55 25.8 37.45 M15.15 32.85 L11.75 32.0 15.15 32.85" fill="#ddb18d" fill-rule="evenodd" stroke="none"/>
    <path d="M28.5 16.85 L28.4 17.9 28.0 17.9 28.0 18.0 27.6 18.35 22.65 17.95 19.5 18.1 17.9 18.0 14.8 17.5 14.2 17.45 13.4 17.4 13.8 15.1 28.5 16.85 M28.1 20.2 L27.85 21.7 25.7 21.8 22.35 21.25 19.95 21.2 18.55 21.2 Q16.05 21.1 13.8 20.0 L13.4 19.45 13.6 18.5 28.1 20.2 M27.65 23.2 L27.65 23.65 27.55 24.15 Q27.0 24.8 26.2 24.8 L24.15 24.65 16.55 23.35 13.2 23.1 11.9 23.15 12.5 20.8 12.75 20.85 13.35 20.9 13.6 20.95 27.65 23.2 M27.2 25.85 L27.3 25.85 27.05 27.55 Q25.5 26.4 23.6 26.6 L22.0 26.6 18.85 26.4 16.55 26.25 12.5 25.7 12.35 26.6 26.9 29.0 26.6 30.65 25.7 30.35 25.5 30.25 21.8 29.55 18.3 29.1 17.65 29.05 16.15 29.0 15.1 28.9 12.0 28.4 12.35 26.6 11.65 26.45 11.75 26.3 12.25 23.95 27.2 25.85 M26.45 31.4 L26.55 31.4 26.2 34.05 21.4 33.2 21.1 33.15 19.1 32.55 18.45 32.25 Q16.35 30.6 13.75 30.6 L12.0 30.5 11.75 32.0 11.15 31.85 11.5 29.35 11.5 29.3 11.8 29.4 26.45 31.4 M26.0 35.65 L25.8 37.45 24.95 37.55 22.95 37.85 22.4 37.85 19.2 37.25 19.05 37.2 18.55 37.05 11.15 35.25 11.55 32.85 11.65 32.45 15.05 32.85 15.15 32.85 15.3 32.9 15.6 32.95 26.0 35.65 M14.1 12.25 L14.3 11.2 29.1 12.4 28.75 15.05 28.65 15.0 20.2 13.75 18.55 13.65 18.0 13.6 14.0 12.8 14.1 12.25" fill="#a3693c" fill-rule="evenodd" stroke="none"/>
    <path d="M26.45 31.4 L26.55 31.4 M25.6 38.6 L10.85 37.2 11.15 35.25 11.55 32.85 11.65 32.45 11.75 32.0 11.15 31.85 11.5 29.35 11.5 29.3 11.8 29.4 12.0 28.4 12.35 26.6 11.65 26.45 11.75 26.3 12.25 23.95 11.75 23.85 11.9 23.15 12.5 20.8 12.75 20.85 13.05 20.85 13.6 18.5 13.2 18.45 13.4 17.4 13.8 15.1 13.45 15.1 13.45 15.05 14.1 12.25 14.3 11.2 29.1 12.4 M13.15 20.85 L13.35 20.9 13.6 20.95 27.65 23.2 M13.8 15.1 L28.5 16.85 M13.15 20.85 L13.05 20.85 M13.6 18.5 L28.1 20.2 M12.35 26.6 L26.9 29.0 M11.75 32.0 L15.15 32.85 15.3 32.9 M15.6 32.95 L26.0 35.65 M12.25 23.95 L27.2 25.85 M26.45 31.4 L11.8 29.4" fill="none" stroke="#000000" stroke-linecap="round" stroke-linejoin="round" stroke-width="1.5"/>
    <path d="M13.1 65.65 L13.5 60.5 22.4 63.05 21.85 67.55 19.3 67.55 19.55 65.5 15.8 64.1 15.65 64.4 15.4 67.55 12.9 67.6 13.0 66.45 13.1 65.65" fill="#b7b2b1" fill-rule="evenodd" stroke="none"/>
    <path d="M15.4 67.55 L15.65 64.4 15.8 64.1 19.55 65.5 19.3 67.55 18.8 71.1 18.8 71.0 Q17.95 69.9 15.9 69.4 L15.25 69.55 15.4 67.55" fill="#000000" fill-rule="evenodd" stroke="none"/>
    <path d="M15.25 69.55 L15.9 69.4 Q17.95 69.9 18.8 71.0 L18.8 71.1 17.75 79.0 14.55 77.95 15.25 69.55" fill="#7f7271" fill-rule="evenodd" stroke="none"/>
    <path d="M12.9 67.6 L15.4 67.55 15.25 69.55 14.55 77.95 17.75 79.0 18.8 71.1 19.3 67.55 21.85 67.55 19.6 84.7 11.7 81.55 12.9 67.6" fill="#5a5154" fill-rule="evenodd" stroke="none"/>
    <path d="M21.85 67.55 L22.4 63.05 13.5 60.5 13.1 65.65 M13.0 66.45 L12.9 67.6 11.7 81.55 19.6 84.7 21.85 67.55 M15.4 67.55 L15.65 64.4 M15.8 64.1 L19.55 65.5 19.3 67.55 18.8 71.1 17.75 79.0 14.55 77.95 15.25 69.55 15.4 67.55" fill="none" stroke="#000000" stroke-linecap="round" stroke-linejoin="round" stroke-width="1.5"/>
  </g>
</svg>
