<?xml version="1.0" encoding="UTF-8" standalone="no"?>
<svg xmlns:ffdec="https://www.free-decompiler.com/flash" xmlns:xlink="http://www.w3.org/1999/xlink" ffdec:objectType="frame" height="311.05px" width="374.3px" xmlns="http://www.w3.org/2000/svg">
  <g transform="matrix(1.0, 0.0, 0.0, 1.0, 187.7, 145.5)">
    <use ffdec:characterId="32" height="304.55" transform="matrix(1.0, 0.0, 0.0, 1.0, -182.4, -139.8)" width="352.45" xlink:href="#shape0"/>
  </g>
  <defs>
    <g id="shape0" transform="matrix(1.0, 0.0, 0.0, 1.0, 182.4, 139.8)">
      <path d="M0.35 -139.8 Q35.1 -140.15 59.25 -110.65 69.45 -98.2 83.65 -90.75 160.3 -50.65 170.05 33.9 163.3 36.45 158.25 29.95 135.7 1.35 117.0 -30.0 L103.75 -35.75 105.2 -30.45 Q115.5 9.15 105.75 48.75 L104.5 79.75 104.0 80.25 Q103.25 88.65 99.6 96.4 L30.0 161.5 Q2.0 167.25 -11.5 162.75 L-25.6 159.3 -47.05 160.7 Q-78.4 162.55 -103.5 144.25 L-110.45 136.05 Q-125.2 118.1 -126.5 95.25 -126.95 102.35 -130.9 108.25 -138.75 119.85 -145.85 131.55 -159.25 153.65 -179.9 159.95 -183.25 143.9 -182.1 127.5 -178.75 80.25 -146.75 45.0 L-146.75 44.5 -136.0 27.0 -116.5 0.75 -94.0 -22.75 -82.75 -41.25 -39.5 -106.5 Q-29.1 -122.05 -14.85 -134.0 -8.1 -139.7 0.35 -139.8 M7.7 -57.7 L7.5 -57.9 1.9 -53.2 -1.75 -50.0 0.25 -50.5 2.2 -52.8 7.7 -57.7" fill="#2e47aa" fill-rule="evenodd" stroke="none"/>
      <path d="M7.7 -57.7 L2.2 -52.8 0.25 -50.5 -1.75 -50.0 1.9 -53.2 7.5 -57.9 7.7 -57.7" fill="#243773" fill-rule="evenodd" stroke="none"/>
    </g>
  </defs>
</svg>
