<?xml version="1.0" encoding="UTF-8" standalone="no"?>
<svg xmlns:ffdec="https://www.free-decompiler.com/flash" xmlns:xlink="http://www.w3.org/1999/xlink" ffdec:objectType="frame" height="311.05px" width="374.3px" xmlns="http://www.w3.org/2000/svg">
  <g transform="matrix(1.0, 0.0, 0.0, 1.0, 187.7, 145.5)">
    <use ffdec:characterId="33" height="303.35" transform="matrix(1.0, 0.0, 0.0, 1.0, -185.8, -137.8)" width="361.35" xlink:href="#shape0"/>
  </g>
  <defs>
    <g id="shape0" transform="matrix(1.0, 0.0, 0.0, 1.0, 185.8, 137.8)">
      <path d="M121.0 -53.5 Q167.55 -12.5 175.55 49.9 174.4 52.4 172.95 50.95 145.7 22.9 126.75 -11.5 L108.75 -20.0 110.2 -15.6 Q124.75 29.7 104.75 72.25 L101.75 77.5 100.65 82.35 Q91.65 131.45 47.25 153.5 10.25 169.5 -13.0 164.25 L-27.0 162.25 -46.5 153.5 Q-75.9 154.0 -100.6 138.8 L-106.5 134.75 Q-134.6 110.85 -133.25 73.5 L-139.75 78.5 Q-152.35 116.75 -181.8 144.2 -183.1 143.25 -183.35 141.8 -187.95 115.95 -183.9 89.15 -179.3 59.05 -161.25 39.0 -139.1 0.55 -107.5 -30.05 -102.55 -34.8 -99.4 -40.55 -69.7 -94.25 -23.7 -133.85 -19.15 -137.75 -13.65 -137.8 39.25 -135.15 69.5 -88.0 L95.75 -72.75 121.0 -53.5 M-23.0 -50.75 L-21.0 -51.5 -17.05 -55.4 -23.0 -50.75" fill="#2e47aa" fill-rule="evenodd" stroke="none"/>
      <path d="M-23.0 -50.75 L-17.05 -55.4 -21.0 -51.5 -23.0 -50.75" fill="#243773" fill-rule="evenodd" stroke="none"/>
    </g>
  </defs>
</svg>
