<?xml version="1.0" encoding="UTF-8" standalone="no"?>
<svg xmlns:ffdec="https://www.free-decompiler.com/flash" xmlns:xlink="http://www.w3.org/1999/xlink" ffdec:objectType="frame" height="311.05px" width="374.3px" xmlns="http://www.w3.org/2000/svg">
  <g transform="matrix(1.0, 0.0, 0.0, 1.0, 187.7, 145.5)">
    <use ffdec:characterId="34" height="303.55" transform="matrix(1.0, 0.0, 0.0, 1.0, -187.7, -138.3)" width="364.35" xlink:href="#shape0"/>
  </g>
  <defs>
    <g id="shape0" transform="matrix(1.0, 0.0, 0.0, 1.0, 187.7, 138.3)">
      <path d="M137.0 -28.0 Q144.95 -23.1 150.3 -15.35 157.25 -5.2 162.6 5.9 178.0 37.85 176.5 68.1 L175.75 67.65 Q159.0 54.35 148.75 35.0 L131.25 7.0 113.5 -1.75 114.9 2.3 Q130.45 52.6 98.25 95.25 L89.25 105.0 Q82.85 117.35 74.5 128.2 56.95 151.1 29.5 159.75 26.4 161.15 23.25 162.5 L-7.0 165.25 -17.25 164.25 Q-42.5 162.0 -62.25 146.85 -64.7 144.95 -67.25 143.25 -88.1 139.5 -104.8 126.8 L-109.75 123.25 Q-112.35 121.35 -114.5 118.85 -139.9 89.65 -137.0 49.5 L-150.0 60.5 -154.75 75.25 -155.5 75.75 Q-164.5 104.85 -182.3 128.35 -186.45 127.05 -186.85 122.5 -193.15 52.6 -151.75 -0.5 L-131.5 -27.25 Q-123.85 -34.75 -118.05 -43.65 -86.2 -92.25 -44.85 -132.15 -38.2 -138.55 -28.95 -138.3 15.1 -137.1 46.95 -102.8 76.0 -71.55 113.25 -49.75 L137.0 -28.0 M-15.75 -64.75 L-16.0 -65.15 -16.25 -65.0 -15.75 -64.75" fill="#2e47aa" fill-rule="evenodd" stroke="none"/>
      <path d="M-15.75 -64.75 L-16.25 -65.0 -16.0 -65.15 -15.75 -64.75" fill="#243773" fill-rule="evenodd" stroke="none"/>
    </g>
  </defs>
</svg>
