<?xml version="1.0" encoding="UTF-8" standalone="no"?>
<svg xmlns:ffdec="https://www.free-decompiler.com/flash" xmlns:xlink="http://www.w3.org/1999/xlink" ffdec:objectType="frame" height="311.05px" width="374.3px" xmlns="http://www.w3.org/2000/svg">
  <g transform="matrix(1.0, 0.0, 0.0, 1.0, 187.7, 145.5)">
    <use ffdec:characterId="35" height="306.75" transform="matrix(1.0, 0.0, 0.0, 1.0, -182.3, -142.75)" width="366.35" xlink:href="#shape0"/>
  </g>
  <defs>
    <g id="shape0" transform="matrix(1.0, 0.0, 0.0, 1.0, 182.3, 142.75)">
      <path d="M108.45 -28.9 Q131.8 -7.15 152.15 17.4 155.55 21.45 158.45 26.15 184.8 68.6 184.05 120.2 184.05 121.05 183.8 120.85 150.5 99.25 133.5 60.0 L126.25 55.75 126.2 60.3 Q125.5 108.9 87.0 135.75 L79.25 139.0 Q68.3 143.9 56.25 145.0 L34.25 158.5 7.25 164.0 -24.15 162.75 Q-29.15 162.35 -34.0 160.75 L-62.25 148.5 Q-74.25 137.6 -83.65 124.85 -92.15 113.25 -98.0 99.75 -100.7 97.8 -102.5 95.0 L-103.0 95.25 -103.0 94.75 -106.75 89.75 Q-109.9 86.4 -111.9 82.5 -133.6 40.35 -124.25 -8.5 L-141.0 2.5 -154.5 32.5 Q-162.0 57.1 -180.9 72.5 -181.95 70.65 -182.15 68.3 -182.8 60.45 -181.0 53.0 L-170.75 6.5 -141.0 -39.25 -118.75 -61.25 Q-107.0 -72.0 -93.75 -80.5 -73.65 -117.55 -37.3 -138.25 -27.5 -143.85 -16.65 -142.45 2.4 -140.35 14.85 -125.9 59.2 -74.7 108.45 -28.9" fill="#2e47aa" fill-rule="evenodd" stroke="none"/>
    </g>
  </defs>
</svg>
