<?xml version="1.0" encoding="UTF-8" standalone="no"?>
<svg xmlns:ffdec="https://www.free-decompiler.com/flash" xmlns:xlink="http://www.w3.org/1999/xlink" ffdec:objectType="frame" height="311.05px" width="374.3px" xmlns="http://www.w3.org/2000/svg">
  <g transform="matrix(1.0, 0.0, 0.0, 1.0, 187.7, 145.5)">
    <use ffdec:characterId="36" height="303.8" transform="matrix(1.0, 0.0, 0.0, 1.0, -170.1, -139.4)" width="353.3" xlink:href="#shape0"/>
  </g>
  <defs>
    <g id="shape0" transform="matrix(1.0, 0.0, 0.0, 1.0, 170.1, 139.4)">
      <path d="M28.45 -119.0 Q66.05 -70.2 100.2 -18.8 105.9 -10.25 112.75 -2.75 L135.75 28.5 153.5 57.25 Q184.3 92.55 183.15 140.7 182.95 150.05 179.55 158.3 178.85 160.0 177.35 161.05 148.7 142.8 132.7 112.0 128.95 104.85 125.5 97.75 124.7 114.8 115.55 129.05 112.05 134.55 107.25 139.0 90.8 155.3 67.2 159.45 49.5 162.4 31.65 160.1 L29.0 160.0 16.25 163.5 Q-36.75 166.75 -41.75 158.0 L-59.25 149.75 -82.0 129.75 Q-96.4 108.95 -101.75 85.0 L-103.25 62.25 Q-118.4 17.05 -105.35 -31.5 L-104.25 -36.25 -118.5 -30.0 -135.25 -3.5 Q-148.0 22.0 -170.1 34.9 -165.85 -43.05 -95.5 -83.3 -68.85 -98.65 -47.5 -121.0 -19.2 -150.6 12.75 -132.6 21.9 -127.5 28.45 -119.0 M-32.5 -70.75 L-31.2 -70.15 -31.1 -70.5 -32.5 -70.75 M-32.15 -71.65 L-32.5 -71.25 -31.5 -71.0 -32.15 -71.65" fill="#2e47aa" fill-rule="evenodd" stroke="none"/>
      <path d="M-32.15 -71.65 L-31.5 -71.0 -32.5 -71.25 -32.15 -71.65 M-32.5 -70.75 L-31.1 -70.5 -31.2 -70.15 -32.5 -70.75" fill="#243773" fill-rule="evenodd" stroke="none"/>
    </g>
  </defs>
</svg>
