<?xml version="1.0" encoding="UTF-8" standalone="no"?>
<svg xmlns:ffdec="https://www.free-decompiler.com/flash" xmlns:xlink="http://www.w3.org/1999/xlink" ffdec:objectType="frame" height="311.05px" width="374.3px" xmlns="http://www.w3.org/2000/svg">
  <g transform="matrix(1.0, 0.0, 0.0, 1.0, 187.7, 145.5)">
    <use ffdec:characterId="37" height="302.3" transform="matrix(1.0, 0.0, 0.0, 1.0, -177.0, -138.3)" width="361.35" xlink:href="#shape0"/>
  </g>
  <defs>
    <g id="shape0" transform="matrix(1.0, 0.0, 0.0, 1.0, 177.0, 138.3)">
      <path d="M25.25 -134.6 Q71.05 -93.95 97.75 -38.0 136.2 -6.0 160.0 39.0 184.5 64.6 184.35 104.3 184.25 123.8 180.95 142.7 180.55 145.05 178.35 142.9 150.65 115.0 138.25 78.0 L131.75 73.5 Q133.75 105.45 112.4 127.9 L110.0 130.0 Q104.4 135.1 97.95 139.15 76.35 152.6 50.75 153.0 L29.75 163.0 20.5 164.0 -29.85 160.55 Q-35.0 159.85 -40.0 157.75 L-68.25 141.0 Q-77.5 129.85 -84.55 117.45 -92.3 103.9 -96.5 88.75 L-97.75 88.0 -102.5 80.75 Q-127.65 35.6 -111.2 -15.85 L-110.0 -20.25 -128.5 -11.25 -144.75 16.0 Q-156.8 36.5 -173.5 52.75 -177.65 52.35 -176.85 48.5 L-174.0 35.5 -157.5 -12.25 Q-120.95 -63.0 -67.1 -95.85 -60.85 -99.7 -55.9 -105.55 -26.25 -140.55 16.25 -138.15 21.2 -138.2 25.25 -134.6 M-74.35 34.4 L-74.0 34.25 -74.5 34.0 -74.35 34.4" fill="#2e47aa" fill-rule="evenodd" stroke="none"/>
      <path d="M-74.35 34.4 L-74.5 34.0 -74.0 34.25 -74.35 34.4" fill="#ffffff" fill-rule="evenodd" stroke="none"/>
    </g>
  </defs>
</svg>
