<?xml version="1.0" encoding="UTF-8" standalone="no"?>
<svg xmlns:ffdec="https://www.free-decompiler.com/flash" xmlns:xlink="http://www.w3.org/1999/xlink" ffdec:objectType="frame" height="311.05px" width="374.3px" xmlns="http://www.w3.org/2000/svg">
  <g transform="matrix(1.0, 0.0, 0.0, 1.0, 187.7, 145.5)">
    <use ffdec:characterId="38" height="304.1" transform="matrix(1.0, 0.0, 0.0, 1.0, -180.0, -140.4)" width="366.6" xlink:href="#shape0"/>
  </g>
  <defs>
    <g id="shape0" transform="matrix(1.0, 0.0, 0.0, 1.0, 180.0, 140.4)">
      <path d="M36.95 -138.55 Q79.25 -102.0 108.8 -53.25 116.55 -40.4 127.75 -30.25 L151.5 1.5 Q192.0 52.7 185.8 120.8 185.45 124.75 183.15 127.65 164.35 110.3 157.3 81.95 152.3 61.8 136.0 49.75 140.35 76.5 126.3 99.55 120.45 109.2 113.5 118.0 98.5 131.6 79.6 138.85 L71.5 141.5 Q60.75 149.25 49.0 154.95 38.6 160.0 27.25 163.0 8.5 164.25 -10.15 163.25 -17.4 163.1 -24.5 160.75 -64.0 147.65 -85.35 111.65 L-87.25 108.5 -90.0 106.5 -96.25 100.0 Q-132.75 57.7 -115.85 2.8 L-114.5 -2.0 -133.0 7.25 -150.0 34.75 Q-161.05 57.4 -179.6 65.3 -180.25 65.5 -179.85 63.15 -164.25 -30.95 -78.6 -77.05 -56.5 -88.95 -39.55 -108.15 -8.75 -142.95 33.45 -140.2 35.35 -139.9 36.95 -138.55" fill="#2e47aa" fill-rule="evenodd" stroke="none"/>
    </g>
  </defs>
</svg>
