<?xml version="1.0" encoding="UTF-8" standalone="no"?>
<svg xmlns:ffdec="https://www.free-decompiler.com/flash" xmlns:xlink="http://www.w3.org/1999/xlink" ffdec:objectType="frame" height="311.05px" width="374.3px" xmlns="http://www.w3.org/2000/svg">
  <g transform="matrix(1.0, 0.0, 0.0, 1.0, 187.7, 145.5)">
    <use ffdec:characterId="39" height="310.1" transform="matrix(1.0, 0.0, 0.0, 1.0, -186.2, -145.5)" width="364.65" xlink:href="#shape0"/>
  </g>
  <defs>
    <g id="shape0" transform="matrix(1.0, 0.0, 0.0, 1.0, 186.2, 145.5)">
      <path d="M114.5 -63.75 L137.75 -41.0 156.5 -17.5 Q183.55 23.9 177.3 72.55 177.25 73.0 175.7 70.65 154.05 38.15 139.25 2.0 L122.75 -8.5 Q133.35 39.4 110.0 81.5 L104.25 89.5 89.0 124.0 66.25 146.5 42.5 157.5 Q1.25 168.25 -9.0 162.75 L-32.0 158.0 -52.25 146.0 Q-67.85 144.7 -82.35 138.4 -86.5 136.6 -90.5 134.5 -132.8 107.65 -128.4 59.75 L-127.75 55.75 -135.0 60.0 Q-152.55 99.3 -186.15 119.55 L-186.2 117.2 Q-184.5 64.75 -157.0 20.5 -147.5 14.8 -141.2 5.1 L-138.0 0.5 -113.5 -26.0 -89.25 -47.25 Q-51.7 -89.6 -10.75 -129.15 0.0 -139.55 13.5 -145.5 67.4 -132.95 94.65 -82.15 97.65 -76.5 103.3 -72.25 L114.5 -63.75" fill="#2e47aa" fill-rule="evenodd" stroke="none"/>
    </g>
  </defs>
</svg>
