<?xml version="1.0" encoding="UTF-8" standalone="no"?>
<svg xmlns:ffdec="https://www.free-decompiler.com/flash" xmlns:xlink="http://www.w3.org/1999/xlink" ffdec:objectType="frame" height="251.2px" width="162.6px" xmlns="http://www.w3.org/2000/svg">
  <g transform="matrix(1.0, 0.0, 0.0, 1.0, -295.9, -22.4)">
    <use ffdec:characterId="186" height="45.85" transform="matrix(0.4781, -0.05, 0.0129, 0.4576, 360.0828, 247.7046)" width="89.15" xlink:href="#shape0"/>
    <use ffdec:characterId="187" height="55.85" transform="matrix(0.4263, 0.0133, -0.0451, 0.4843, 338.6447, 245.3831)" width="89.25" xlink:href="#shape1"/>
    <use ffdec:characterId="188" height="39.25" transform="matrix(1.0, 0.0, 0.0, 1.0, 379.35, 196.75)" width="29.6" xlink:href="#shape2"/>
    <use ffdec:characterId="189" height="87.35" transform="matrix(1.0, 0.0, 0.0, 1.0, 331.2, 169.3)" width="64.0" xlink:href="#shape3"/>
    <use ffdec:characterId="190" height="67.55" transform="matrix(1.0, 0.0, 0.0, 1.0, 330.7, 185.3)" width="63.55" xlink:href="#shape4"/>
    <use ffdec:characterId="191" height="24.35" transform="matrix(1.1234, 0.1208, -0.0356, 0.6937, 362.8, 218.1)" width="23.2" xlink:href="#shape5"/>
    <use ffdec:characterId="192" height="20.55" transform="matrix(1.0, 0.0, 0.0, 1.0, 375.95, 233.75)" width="21.9" xlink:href="#shape6"/>
    <use ffdec:characterId="193" height="16.65" transform="matrix(1.0, 0.0, 0.0, 1.0, 373.7, 183.6)" width="18.5" xlink:href="#shape7"/>
    <use ffdec:characterId="115" height="4.15" transform="matrix(0.7864, 0.6177, -0.6177, 0.7864, 382.036, 191.6297)" width="2.4" xlink:href="#shape8"/>
    <use ffdec:characterId="143" height="3.3" transform="matrix(1.0, 0.0, 0.0, 1.0, 383.6, 193.2)" width="3.1" xlink:href="#shape9"/>
    <use ffdec:characterId="194" height="18.3" transform="matrix(0.9103, 0.414, -0.414, 0.9103, 373.2, 194.05)" width="15.45" xlink:href="#shape10"/>
    <use ffdec:characterId="195" height="18.95" transform="matrix(0.9103, 0.414, -0.414, 0.9103, 375.8679, 191.3682)" width="25.0" xlink:href="#shape11"/>
    <use ffdec:characterId="196" height="31.6" transform="matrix(1.0, 0.0, 0.0, 1.0, 377.7, 225.1)" width="37.6" xlink:href="#shape12"/>
    <use ffdec:characterId="197" height="48.95" transform="matrix(1.0, 0.0, 0.0, 1.0, 347.05, 193.75)" width="37.9" xlink:href="#shape13"/>
    <use ffdec:characterId="198" height="48.75" transform="matrix(1.0, 0.0, 0.0, 1.0, 378.6, 135.0)" width="48.3" xlink:href="#shape14"/>
  </g>
  <defs>
    <g id="shape0" transform="matrix(1.0, 0.0, 0.0, 1.0, 3.85, 2.05)">
      <path d="M11.35 -1.9 L12.6 -1.95 13.7 -2.0 14.55 -2.0 17.25 -1.85 32.0 -1.05 46.15 0.15 58.65 1.35 58.85 1.4 Q67.85 2.35 73.55 3.85 79.95 5.5 81.25 6.55 L82.0 7.3 83.5 9.6 Q85.65 14.0 85.25 20.7 85.1 23.9 84.75 25.75 84.15 28.65 82.95 30.45 L82.35 31.25 Q80.45 33.5 76.2 35.8 70.7 38.95 64.85 40.85 55.2 44.0 47.65 43.8 L47.2 43.75 Q43.1 43.55 39.65 42.35 L39.4 42.3 39.35 42.3 37.2 41.65 37.2 41.7 Q22.5 38.45 8.4 28.55 -2.2 21.1 -3.6 14.85 L-3.85 13.05 Q-3.8 11.5 -3.2 10.15 L-0.85 5.3 Q0.25 3.3 1.65 1.75 L2.8 0.65 Q4.45 -0.9 6.8 -1.2 L11.35 -1.9 M60.6 3.45 L58.25 3.15 14.45 -0.15 12.55 -0.1 Q9.55 0.0 6.8 0.85 5.45 1.15 4.4 2.0 3.45 2.8 2.05 4.5 0.65 6.15 -0.3 8.4 L-1.5 11.9 -1.75 13.2 -1.5 15.0 Q0.15 20.8 10.35 27.8 23.1 36.65 37.25 39.85 L37.25 41.25 37.35 39.8 39.85 40.55 40.65 40.75 40.95 40.85 44.95 41.5 Q53.5 42.35 63.6 39.1 69.95 37.1 74.7 34.4 L78.0 32.4 79.55 31.25 80.9 29.85 Q83.1 27.0 83.25 20.1 L83.05 15.05 Q82.75 12.15 81.55 10.25 80.9 9.3 79.85 8.45 L77.8 7.15 76.85 6.7 68.55 4.8 60.6 3.45 M77.8 11.8 L78.05 11.9 78.05 12.3 Q75.05 15.2 70.45 17.4 67.05 19.2 61.9 20.85 56.15 22.7 51.5 23.6 L44.95 24.2 Q45.6 25.9 45.5 29.3 L45.35 34.2 45.05 37.0 44.65 38.25 44.75 35.2 Q44.75 31.6 44.2 27.85 L43.65 23.95 Q41.55 23.45 38.0 21.9 L36.3 21.0 36.35 20.95 36.85 20.95 37.0 20.95 40.9 21.85 Q48.25 23.75 59.25 20.35 70.25 16.95 77.7 11.85 L77.8 11.8" fill="#000000" fill-rule="evenodd" stroke="none"/>
      <path d="M77.8 7.15 L79.85 8.45 Q80.9 9.3 81.55 10.25 82.75 12.15 83.05 15.05 L83.25 20.1 Q83.1 27.0 80.9 29.85 L79.55 31.25 78.0 32.4 74.7 34.4 Q69.95 37.1 63.6 39.1 53.5 42.35 44.95 41.5 L40.95 40.85 40.65 40.75 39.85 40.55 37.35 39.8 37.25 41.25 37.25 39.85 Q23.1 36.65 10.35 27.8 0.15 20.8 -1.5 15.0 L-1.75 13.2 -1.5 11.9 -0.3 8.4 Q0.65 6.15 2.05 4.5 3.45 2.8 4.4 2.0 5.45 1.15 6.8 0.85 9.55 0.0 12.55 -0.1 L14.45 -0.15 58.25 3.15 60.6 3.45 61.1 4.25 Q62.05 5.85 62.05 6.7 62.05 9.85 57.35 13.5 L52.05 16.8 Q47.95 18.95 44.25 20.0 L38.7 20.85 37.0 20.95 36.85 20.95 36.35 20.95 36.3 21.0 38.0 21.9 Q41.55 23.45 43.65 23.95 L44.2 27.85 Q44.75 31.6 44.75 35.2 L44.65 38.25 45.05 37.0 45.35 34.2 45.5 29.3 Q45.6 25.9 44.95 24.2 L51.5 23.6 Q56.15 22.7 61.9 20.85 67.05 19.2 70.45 17.4 75.05 15.2 78.05 12.3 L78.05 11.9 77.8 11.8 Q78.65 10.85 78.65 10.05 L78.6 8.65 Q78.55 8.05 77.8 7.15" fill="#f99108" fill-rule="evenodd" stroke="none"/>
      <path d="M60.6 3.45 L68.55 4.8 76.85 6.7 77.8 7.15 Q78.55 8.05 78.6 8.65 L78.65 10.05 Q78.65 10.85 77.8 11.8 L77.7 11.85 Q70.25 16.95 59.25 20.35 48.25 23.75 40.9 21.85 L37.0 20.95 38.7 20.85 44.25 20.0 Q47.95 18.95 52.05 16.8 L57.35 13.5 Q62.05 9.85 62.05 6.7 62.05 5.85 61.1 4.25 L60.6 3.45" fill="#f4ac09" fill-rule="evenodd" stroke="none"/>
    </g>
    <g id="shape1" transform="matrix(1.0, 0.0, 0.0, 1.0, 0.0, 2.1)">
      <path d="M9.65 -0.6 Q14.1 -2.55 18.95 -1.95 L27.7 -0.3 Q32.0 0.85 41.7 4.05 L60.2 10.15 71.15 13.95 76.65 16.15 Q79.4 17.25 82.7 19.4 L83.8 20.2 83.9 20.25 83.95 20.3 85.25 21.4 Q88.0 23.8 88.75 27.2 L89.1 29.65 Q89.45 33.15 89.05 36.1 88.6 39.05 87.25 41.8 86.25 43.5 84.8 44.65 83.05 46.1 80.4 47.25 L75.45 48.9 Q68.7 50.9 59.25 52.15 38.45 55.05 23.65 52.65 15.55 51.4 9.75 44.35 4.9 38.55 2.2 29.65 L2.15 29.45 Q-0.7 20.15 0.2 13.0 0.45 10.9 1.05 9.05 1.6 7.2 2.55 5.6 4.7 2.15 7.95 0.25 L9.65 -0.6 M84.35 23.4 L82.75 22.05 81.95 21.5 81.0 20.9 79.5 20.05 77.9 19.2 75.0 17.75 Q72.95 16.85 69.9 15.7 L59.05 11.95 38.7 5.0 Q29.6 1.8 24.8 0.55 20.3 -0.45 15.85 -0.35 10.9 -0.2 7.2 2.85 L6.85 3.15 5.3 4.75 4.2 6.25 3.65 7.3 3.3 8.05 2.8 9.2 Q1.55 12.55 1.7 16.7 1.9 23.35 4.0 29.65 5.2 33.25 6.95 36.75 12.65 47.6 19.95 49.9 23.5 51.1 28.5 51.5 L37.15 51.7 56.05 50.6 Q66.15 49.25 73.25 47.4 L78.7 45.75 Q81.95 44.55 83.6 43.0 86.2 40.4 86.95 35.55 87.45 32.5 87.1 29.65 L86.8 28.0 86.55 27.2 Q85.9 25.05 84.35 23.4 M4.8 13.75 L4.95 13.6 5.95 15.2 Q6.75 16.95 9.35 20.75 11.95 24.45 15.3 27.3 17.1 28.85 18.9 29.65 20.25 30.35 21.55 30.55 L30.05 31.4 42.2 31.15 62.6 29.65 Q73.4 28.55 78.3 26.9 82.5 25.6 83.3 25.6 L83.45 25.65 Q83.6 26.0 83.3 26.1 80.85 27.65 77.45 28.7 L73.55 29.65 73.15 29.75 62.45 31.25 36.3 32.65 28.2 32.65 Q23.35 32.5 20.15 31.6 L19.8 31.55 19.95 34.2 19.8 37.95 19.8 41.6 19.5 45.15 19.25 45.4 19.05 45.15 18.8 41.6 18.8 37.95 18.65 34.2 Q18.65 32.5 18.9 31.15 L16.35 29.65 Q14.35 28.25 12.25 26.0 5.85 19.25 4.8 13.8 L4.8 13.75" fill="#000000" fill-rule="evenodd" stroke="none"/>
      <path d="M81.0 20.9 L81.95 21.5 82.75 22.05 84.35 23.4 Q85.2 24.85 83.3 25.6 82.5 25.6 78.3 26.9 73.4 28.55 62.6 29.65 L42.2 31.15 30.05 31.4 21.55 30.55 Q20.25 30.35 18.9 29.65 17.1 28.85 15.3 27.3 11.95 24.45 9.35 20.75 6.75 16.95 5.95 15.2 L4.95 13.6 4.8 13.75 4.6 12.0 Q4.45 11.05 5.0 10.15 5.55 9.2 6.8 9.65 L8.9 10.55 10.75 11.65 12.55 12.6 Q16.05 15.2 21.9 17.4 36.65 23.05 57.55 23.05 70.25 23.05 80.7 20.95 L81.0 20.9" fill="#ffb409" fill-rule="evenodd" stroke="none"/>
      <path d="M84.35 23.4 Q85.9 25.05 86.55 27.2 L86.8 28.0 87.1 29.65 Q87.45 32.5 86.95 35.55 86.2 40.4 83.6 43.0 81.95 44.55 78.7 45.75 L73.25 47.4 Q66.15 49.25 56.05 50.6 L37.15 51.7 28.5 51.5 Q23.5 51.1 19.95 49.9 12.65 47.6 6.95 36.75 5.2 33.25 4.0 29.65 1.9 23.35 1.7 16.7 1.55 12.55 2.8 9.2 L3.3 8.05 3.65 7.3 4.2 6.25 5.3 4.75 6.85 3.15 7.2 2.85 Q10.9 -0.2 15.85 -0.35 20.3 -0.45 24.8 0.55 29.6 1.8 38.7 5.0 L59.05 11.95 69.9 15.7 Q72.95 16.85 75.0 17.75 L77.9 19.2 79.5 20.05 81.0 20.9 80.7 20.95 Q70.25 23.05 57.55 23.05 36.65 23.05 21.9 17.4 16.05 15.2 12.55 12.6 L10.75 11.65 8.9 10.55 6.8 9.65 Q5.55 9.2 5.0 10.15 4.45 11.05 4.6 12.0 L4.8 13.75 4.8 13.8 Q5.85 19.25 12.25 26.0 14.35 28.25 16.35 29.65 L18.9 31.15 Q18.65 32.5 18.65 34.2 L18.8 37.95 18.8 41.6 19.05 45.15 19.25 45.4 19.5 45.15 19.8 41.6 19.8 37.95 19.95 34.2 19.8 31.55 20.15 31.6 Q23.35 32.5 28.2 32.65 L36.3 32.65 62.45 31.25 73.15 29.75 73.55 29.65 77.45 28.7 Q80.85 27.65 83.3 26.1 83.6 26.0 83.45 25.65 L83.3 25.6 Q85.2 24.85 84.35 23.4" fill="#f99108" fill-rule="evenodd" stroke="none"/>
    </g>
    <g id="shape2" transform="matrix(1.0, 0.0, 0.0, 1.0, 0.0, 0.0)">
      <path d="M9.5 6.25 L1.15 1.45 Q3.35 20.5 3.05 20.55 L3.2 20.6 9.0 22.3 Q15.45 24.4 18.35 26.5 21.0 28.4 24.65 33.8 L27.8 38.25 28.25 36.95 Q28.7 35.05 28.6 32.6 28.3 25.4 23.8 18.9 19.5 12.7 9.5 6.25 M10.0 5.4 L10.05 5.4 Q20.2 12.0 24.6 18.35 29.3 25.1 29.6 32.55 29.7 35.15 29.2 37.2 28.65 39.4 27.8 39.25 27.2 39.35 23.8 34.35 20.3 29.1 17.75 27.3 14.95 25.3 8.7 23.25 L2.9 21.55 3.05 21.55 Q2.45 21.35 0.0 0.55 L0.1 0.2 Q0.2 0.05 0.4 0.0 L0.75 0.1 10.0 5.4" fill="#000000" fill-rule="evenodd" stroke="none"/>
      <path d="M9.5 6.25 Q19.5 12.7 23.8 18.9 28.3 25.4 28.6 32.6 28.7 35.05 28.25 36.95 L27.8 38.25 24.65 33.8 Q21.0 28.4 18.35 26.5 15.45 24.4 9.0 22.3 L3.2 20.6 3.05 20.55 Q3.35 20.5 1.15 1.45 L9.5 6.25" fill="#009900" fill-rule="evenodd" stroke="none"/>
    </g>
    <g id="shape3" transform="matrix(1.0, 0.0, 0.0, 1.0, 0.5, 0.5)">
      <path d="M0.95 66.25 L0.4 63.85 Q-1.35 54.95 4.75 42.15 10.85 29.35 18.85 21.55 26.85 13.75 35.8 5.9 44.75 -1.95 52.7 0.65 60.65 3.2 62.7 12.1 64.75 21.0 51.6 35.15 55.15 39.6 57.85 44.45 60.75 49.6 61.5 55.2 60.35 52.05 58.35 48.55 55.35 44.45 53.5 41.15 51.0 36.7 50.55 32.8 L50.5 32.6 45.2 28.85 Q41.55 30.45 38.25 32.8 32.3 37.0 27.55 42.65 23.35 47.7 20.45 53.65 17.25 60.35 17.55 67.7 17.75 72.3 20.05 76.0 14.1 74.4 8.55 71.35 4.5 69.15 0.95 66.25" fill="#009900" fill-rule="evenodd" stroke="none"/>
      <path d="M20.05 76.0 Q17.75 72.3 17.55 67.7 17.25 60.35 20.45 53.65 23.35 47.7 27.55 42.65 32.3 37.0 38.25 32.8 41.55 30.45 45.2 28.85 L50.5 32.6 50.55 32.8 Q51.0 36.7 53.5 41.15 55.35 44.45 58.35 48.55 60.35 52.05 61.5 55.2 61.8 57.35 61.75 59.6 L61.6 62.65 Q58.55 66.95 53.75 70.65 44.5 77.7 33.3 77.7 26.45 77.7 20.05 76.0" fill="#ffffff" fill-rule="evenodd" stroke="none"/>
      <path d="M0.95 66.25 Q4.5 69.15 8.55 71.35 14.1 74.4 20.05 76.0 21.35 78.05 23.3 79.8 28.5 84.35 35.1 86.15 L32.2 86.35 Q24.85 86.55 19.4 84.85 14.35 83.3 9.55 79.75 5.5 76.75 3.2 72.4 1.85 69.75 0.95 66.25" fill="#006700" fill-rule="evenodd" stroke="none"/>
      <path d="M61.6 62.65 Q60.15 75.8 47.45 82.4 41.55 85.45 35.1 86.15 28.5 84.35 23.3 79.8 21.35 78.05 20.05 76.0 26.45 77.7 33.3 77.7 44.5 77.7 53.75 70.65 58.55 66.95 61.6 62.65" fill="#cccccc" fill-rule="evenodd" stroke="none"/>
      <path d="M20.05 76.0 Q17.75 72.3 17.55 67.7 17.25 60.35 20.45 53.65 23.35 47.7 27.55 42.65 32.3 37.0 38.25 32.8 41.55 30.45 45.2 28.85 L50.5 32.6 50.55 32.8 Q51.0 36.7 53.5 41.15 55.35 44.45 58.35 48.55 60.35 52.05 61.5 55.2 M20.05 76.0 Q21.35 78.05 23.3 79.8 28.5 84.35 35.1 86.15" fill="none" stroke="#000000" stroke-linecap="round" stroke-linejoin="round" stroke-width="0.5"/>
      <path d="M61.5 55.2 Q60.75 49.6 57.85 44.45 55.15 39.6 51.6 35.15 64.75 21.0 62.7 12.1 60.65 3.2 52.7 0.65 44.75 -1.95 35.8 5.9 26.85 13.75 18.85 21.55 10.85 29.35 4.75 42.15 -1.35 54.95 0.4 63.85 L0.95 66.25 Q1.85 69.75 3.2 72.4 5.5 76.75 9.55 79.75 14.35 83.3 19.4 84.85 24.85 86.55 32.2 86.35 L35.1 86.15 Q41.55 85.45 47.45 82.4 60.15 75.8 61.6 62.65 L61.75 59.6 Q61.8 57.35 61.5 55.2 Z" fill="none" stroke="#000000" stroke-linecap="round" stroke-linejoin="round" stroke-width="1.0"/>
    </g>
    <g id="shape4" transform="matrix(1.0, 0.0, 0.0, 1.0, 0.0, 0.0)">
      <path d="M57.35 14.5 L57.45 14.2 57.7 14.35 58.95 14.9 Q60.05 15.3 60.4 15.65 L60.5 15.7 60.45 15.85 59.1 23.25 58.3 27.5 58.55 27.95 58.6 28.0 Q63.55 37.1 63.55 46.9 63.55 53.0 63.0 56.1 62.4 59.15 60.95 62.45 L60.9 62.55 60.85 62.6 Q57.9 64.15 53.55 65.35 45.35 67.55 35.4 67.55 28.8 67.55 24.05 66.35 L23.85 66.3 23.85 66.1 23.65 59.5 23.7 56.7 Q15.85 55.05 11.75 53.05 L4.2 49.1 Q0.95 47.15 0.2 46.15 L0.15 45.85 0.05 45.7 0.05 45.45 Q0.05 45.25 0.3 45.25 L0.5 45.35 0.55 45.4 0.6 45.55 Q0.7 45.55 0.8 45.7 1.55 46.65 4.6 48.45 7.7 50.25 12.05 52.35 L12.1 52.35 Q16.1 54.3 23.75 55.9 24.35 41.3 29.95 35.05 L34.35 30.35 Q36.0 28.05 35.75 26.6 L35.75 26.55 Q35.7 16.75 29.1 9.5 25.6 5.6 22.2 2.6 L22.0 2.4 24.55 0.1 24.7 0.0 24.85 0.1 Q29.65 4.15 33.55 9.65 39.45 17.9 39.05 27.6 L41.45 28.15 47.0 29.05 Q50.1 29.05 53.2 27.95 L53.15 27.95 54.05 27.6 Q54.3 26.3 55.1 23.3 L55.75 20.6 57.35 14.5 M58.7 15.6 L58.65 15.6 58.0 15.3 56.5 20.8 56.5 20.85 55.85 23.45 55.85 23.55 54.75 27.9 54.75 28.2 54.35 28.3 54.45 28.3 53.45 28.65 Q50.25 29.8 47.0 29.8 L41.3 28.9 38.7 28.3 38.65 28.3 38.3 28.2 38.3 27.8 Q38.75 18.25 32.95 10.1 29.25 4.85 24.75 1.0 L23.15 2.4 Q26.4 5.3 29.65 9.0 36.45 16.45 36.5 26.45 36.9 28.2 34.95 30.8 L30.5 35.6 Q25.65 41.0 24.65 52.95 L24.4 59.4 24.4 59.5 24.6 65.7 Q29.15 66.8 35.4 66.8 45.2 66.8 53.35 64.6 57.5 63.4 60.4 61.95 61.65 58.9 62.25 55.95 62.8 52.85 62.8 46.9 62.8 37.25 57.95 28.4 L57.6 27.85 57.65 27.9 57.5 27.65 57.5 27.45 58.35 23.1 59.7 16.05 Q59.35 15.8 58.7 15.6" fill="#000000" fill-rule="evenodd" stroke="none"/>
      <path d="M58.7 15.6 Q59.35 15.8 59.7 16.05 L58.35 23.1 57.5 27.45 57.5 27.65 57.65 27.9 57.6 27.85 57.95 28.4 Q62.8 37.25 62.8 46.9 62.8 52.85 62.25 55.95 61.65 58.9 60.4 61.95 57.5 63.4 53.35 64.6 45.2 66.8 35.4 66.8 29.15 66.8 24.6 65.7 L24.4 59.5 24.4 59.4 24.65 52.95 Q25.65 41.0 30.5 35.6 L34.95 30.8 Q36.9 28.2 36.5 26.45 36.45 16.45 29.65 9.0 26.4 5.3 23.15 2.4 L24.75 1.0 Q29.25 4.85 32.95 10.1 38.75 18.25 38.3 27.8 L38.3 28.2 38.65 28.3 38.7 28.3 41.3 28.9 47.0 29.8 Q50.25 29.8 53.45 28.65 L54.45 28.3 54.35 28.3 54.75 28.2 54.75 27.9 55.85 23.55 55.85 23.45 56.5 20.85 56.5 20.8 58.0 15.3 58.65 15.6 58.7 15.6" fill="#bf0101" fill-rule="evenodd" stroke="none"/>
    </g>
    <g id="shape5" transform="matrix(1.0, 0.0, 0.0, 1.0, 0.0, 0.0)">
      <path d="M21.1 8.85 L21.35 7.65 19.55 11.2 19.35 11.05 19.25 10.0 18.9 10.8 Q18.5 9.65 18.85 8.0 L19.0 7.2 Q18.4 8.5 18.55 10.1 18.7 10.4 18.15 9.9 L17.8 7.4 17.0 6.55 16.15 5.1 15.85 6.1 15.5 6.1 14.5 4.25 13.7 4.85 13.65 2.35 12.35 4.4 12.35 3.85 Q12.35 2.7 12.65 1.9 13.2 0.35 14.1 0.45 L15.35 1.15 Q17.15 2.35 18.9 3.85 20.75 5.55 22.35 7.8 L21.5 9.0 21.45 8.75 21.1 8.85" fill="#cb7814" fill-rule="evenodd" stroke="none"/>
      <path d="M21.45 8.75 L21.5 9.0 21.15 9.55 21.45 8.75 M20.3 14.8 L21.4 14.65 18.2 17.05 18.45 16.6 18.45 15.9 20.3 14.8 M14.9 17.3 L15.95 17.25 16.25 16.95 16.9 17.5 14.35 18.9 10.25 21.05 6.1 22.9 Q3.35 23.8 0.5 23.85 L0.45 22.85 4.75 22.05 Q5.65 22.0 8.2 20.8 L11.25 18.95 11.7 19.1 Q12.85 18.85 14.0 17.55 L14.9 17.3" fill="#cc9966" fill-rule="evenodd" stroke="none"/>
      <path d="M18.9 10.8 L19.25 10.0 19.35 11.05 19.55 11.2 21.35 7.65 21.1 8.85 Q20.6 10.45 20.55 12.15 L20.5 14.0 Q19.5 13.05 18.9 10.8 M21.5 9.0 L22.35 7.8 Q22.9 9.25 22.75 11.0 22.55 13.2 21.55 13.75 L21.1 13.75 21.1 13.7 21.15 9.55 21.5 9.0 M12.35 4.4 L13.65 2.35 13.7 4.85 14.5 4.25 15.5 6.1 15.85 6.1 16.15 5.1 17.0 6.55 17.8 7.4 18.15 9.9 17.75 9.7 17.6 9.15 Q16.4 9.05 15.3 7.85 L14.3 6.75 12.35 4.55 12.35 4.45 12.35 4.4" fill="#996633" fill-rule="evenodd" stroke="none"/>
      <path d="M18.9 10.8 Q19.5 13.05 20.5 14.0 L20.55 12.15 Q20.6 10.45 21.1 8.85 L21.45 8.75 21.15 9.55 21.1 13.7 21.05 13.75 21.1 13.75 21.55 13.75 Q22.55 13.2 22.75 11.0 22.9 9.25 22.35 7.8 20.75 5.55 18.9 3.85 17.15 2.35 15.35 1.15 L14.1 0.45 Q13.2 0.35 12.65 1.9 12.35 2.7 12.35 3.85 L12.35 4.4 12.35 4.45 12.35 4.55 14.3 6.75 15.3 7.85 Q16.4 9.05 17.6 9.15 L17.75 9.7 18.15 9.9 Q18.7 10.4 18.55 10.1 18.4 8.5 19.0 7.2 L18.85 8.0 Q18.5 9.65 18.9 10.8 M23.05 11.95 Q22.65 13.75 21.8 14.1 L21.75 14.8 19.65 16.55 12.7 20.45 Q8.15 22.9 4.3 23.85 L0.1 24.3 0.0 22.55 9.5 9.6 Q11.15 7.3 12.0 4.95 L11.95 3.3 12.05 1.95 12.45 1.1 Q12.8 0.5 13.3 0.2 L14.3 0.05 Q16.75 1.35 18.45 2.8 21.8 6.15 22.5 7.25 L23.1 9.05 23.05 11.95 M18.45 15.9 L18.45 16.6 18.2 17.05 21.4 14.65 20.3 14.8 Q19.65 14.5 19.4 13.25 19.05 11.75 18.5 10.95 L18.1 10.5 17.5 11.0 17.4 10.0 14.35 7.45 14.4 8.1 12.35 5.1 11.5 7.25 10.0 9.75 8.55 11.7 5.45 15.8 6.1 16.2 6.05 16.7 Q5.9 17.5 5.45 17.8 L5.3 17.85 Q4.1 19.85 2.95 19.85 L2.65 19.6 0.7 22.4 2.8 21.95 3.2 21.85 6.65 21.15 Q7.7 21.2 8.7 20.2 L8.2 20.8 Q5.65 22.0 4.75 22.05 L0.45 22.85 0.5 23.85 Q3.35 23.8 6.1 22.9 L10.25 21.05 14.35 18.9 16.9 17.5 16.25 16.95 15.95 17.25 14.9 17.3 14.4 17.05 Q14.05 16.65 14.0 15.55 L16.05 14.4 16.05 13.4 16.2 13.15 Q17.9 12.65 18.45 15.9 M13.4 12.3 Q12.85 12.3 12.4 11.85 12.0 11.4 11.7 12.0 L11.8 10.85 12.35 10.65 11.95 11.05 Q13.4 12.65 14.95 11.2 L13.4 10.8 13.65 10.55 15.55 10.95 15.55 11.25 14.85 11.8 Q14.15 12.3 13.4 12.3 M9.65 15.6 L9.1 16.2 9.05 16.25 7.85 16.65 7.4 16.2 8.05 14.5 10.05 14.65 9.65 15.6 M7.75 15.85 L9.8 14.9 8.1 14.9 7.75 15.75 7.65 15.85 7.75 15.85 M5.65 16.6 L5.25 16.3 2.9 19.25 Q4.15 19.55 4.8 17.45 L5.3 17.05 5.65 16.6 M17.1 16.7 L18.15 15.9 Q18.1 14.6 17.55 14.15 L17.1 13.75 Q16.45 15.85 15.15 15.35 L14.45 15.7 14.55 16.5 17.5 15.8 17.1 16.65 17.05 16.7 17.1 16.7 M14.0 17.55 Q12.85 18.85 11.7 19.1 L14.0 17.55" fill="#000000" fill-rule="evenodd" stroke="none"/>
      <path d="M3.2 21.85 L2.8 21.95 Q3.5 21.65 3.95 20.2 L4.1 19.7 7.2 17.45 6.05 16.7 6.1 16.2 5.45 15.8 8.55 11.7 Q10.3 11.35 12.05 9.95 L12.75 9.45 10.0 9.75 11.5 7.25 12.35 5.1 14.4 8.1 14.35 7.45 17.4 10.0 17.5 11.0 18.1 10.5 18.5 10.95 Q18.1 11.45 17.65 11.35 L17.05 11.85 Q16.8 12.6 16.55 12.55 L14.85 11.8 15.55 11.25 15.55 10.95 13.65 10.55 12.35 10.65 11.8 10.85 11.7 12.0 Q12.0 11.4 12.4 11.85 12.85 12.3 13.4 12.3 L12.65 14.15 12.6 15.4 9.65 15.6 10.05 14.65 8.05 14.5 7.4 16.2 7.85 16.65 9.05 16.25 9.05 16.3 8.8 16.5 8.6 17.35 8.8 18.0 Q8.1 19.5 7.15 19.85 5.15 20.55 3.2 21.85" fill="#ffdab5" fill-rule="evenodd" stroke="none"/>
      <path d="M12.35 10.65 L13.65 10.55 13.4 10.8 14.95 11.2 Q13.4 12.65 11.95 11.05 L12.35 10.65 M5.65 16.6 L5.3 17.05 4.8 17.45 Q4.15 19.55 2.9 19.25 L5.25 16.3 5.65 16.6" fill="#cc6666" fill-rule="evenodd" stroke="none"/>
      <path d="M18.45 15.9 Q17.9 12.65 16.2 13.15 L16.05 13.4 16.05 14.4 14.0 15.55 Q14.05 16.65 14.4 17.05 L14.9 17.3 14.0 17.55 11.7 19.1 11.25 18.95 8.2 20.8 8.7 20.2 Q7.7 21.2 6.65 21.15 L3.2 21.85 Q5.15 20.55 7.15 19.85 8.1 19.5 8.8 18.0 L8.6 17.35 8.8 16.5 9.05 16.3 9.1 16.2 9.65 15.6 12.6 15.4 12.65 14.15 13.4 12.3 Q14.15 12.3 14.85 11.8 L16.55 12.55 Q16.8 12.6 17.05 11.85 L17.65 11.35 Q18.1 11.45 18.5 10.95 19.05 11.75 19.4 13.25 19.65 14.5 20.3 14.8 L18.45 15.9" fill="#ffcc99" fill-rule="evenodd" stroke="none"/>
      <path d="M2.8 21.95 L0.7 22.4 2.65 19.6 2.95 19.85 Q4.1 19.85 5.3 17.85 L5.45 17.8 Q5.9 17.5 6.05 16.7 L7.2 17.45 4.1 19.7 3.95 20.2 Q3.5 21.65 2.8 21.95 M8.55 11.7 L10.0 9.75 12.75 9.45 12.05 9.95 Q10.3 11.35 8.55 11.7" fill="#ffe7ce" fill-rule="evenodd" stroke="none"/>
      <path d="M7.75 15.75 L8.1 14.9 9.8 14.9 7.75 15.85 7.75 15.75" fill="#339900" fill-rule="evenodd" stroke="none"/>
      <path d="M9.1 16.2 L9.05 16.3 9.05 16.25 9.1 16.2" fill="#ffe0c1" fill-rule="evenodd" stroke="none"/>
      <path d="M17.1 16.65 L17.5 15.8 14.55 16.5 14.45 15.7 15.15 15.35 Q16.45 15.85 17.1 13.75 L17.55 14.15 Q18.1 14.6 18.15 15.9 L17.1 16.7 17.1 16.65" fill="#cccc99" fill-rule="evenodd" stroke="none"/>
    </g>
    <g id="shape6" transform="matrix(1.0, 0.0, 0.0, 1.0, 0.0, 0.0)">
      <path d="M21.15 7.4 L21.1 5.0 20.4 1.3 1.65 0.75 Q0.7 4.15 0.75 7.15 0.7 11.9 2.6 15.2 5.15 19.8 10.95 19.8 17.1 19.75 19.65 14.5 21.1 11.4 21.15 7.4 M21.85 4.95 L21.9 7.4 Q21.9 11.6 20.35 14.8 L20.35 14.85 Q17.6 20.55 10.95 20.55 4.75 20.5 1.95 15.55 0.0 12.1 0.0 7.15 0.0 3.95 1.0 0.25 L1.1 0.0 21.0 0.55 21.1 0.85 21.85 4.95 M3.85 5.55 Q3.6 7.6 4.1 9.95 4.55 12.3 6.1 15.15 L5.95 15.05 Q4.0 13.45 3.35 10.1 2.8 7.6 3.1 5.45 L3.15 5.1 3.9 5.2 3.85 5.55" fill="#000000" fill-rule="evenodd" stroke="none"/>
      <path d="M21.15 7.4 Q21.1 11.4 19.65 14.5 17.1 19.75 10.95 19.8 5.15 19.8 2.6 15.2 0.7 11.9 0.75 7.15 0.7 4.15 1.65 0.75 L20.4 1.3 21.1 5.0 21.15 7.4 M3.85 5.55 L3.9 5.2 3.15 5.1 3.1 5.45 Q2.8 7.6 3.35 10.1 4.0 13.45 5.95 15.05 L6.1 15.15 Q4.55 12.3 4.1 9.95 3.6 7.6 3.85 5.55" fill="#cc8f65" fill-rule="evenodd" stroke="none"/>
    </g>
    <g id="shape7" transform="matrix(1.0, 0.0, 0.0, 1.0, 0.45, 0.45)">
      <path d="M14.8 2.6 L15.8 2.35 Q17.3 2.35 17.55 4.1 L17.4 6.9 Q17.05 10.35 15.3 12.9 13.4 15.75 10.9 15.75 9.55 15.75 9.05 14.75 L8.6 13.1 8.05 13.25 5.55 13.8 Q2.6 13.8 1.15 12.3 -0.2 10.8 0.05 8.4 0.4 5.15 3.9 2.55 7.35 0.0 11.3 0.0 12.65 0.0 13.4 0.65 14.4 1.4 14.3 2.85 L14.8 2.6" fill="#ffffff" fill-rule="evenodd" stroke="none"/>
      <path d="M14.8 2.6 L15.8 2.35 Q17.3 2.35 17.55 4.1 L17.4 6.9 Q17.05 10.35 15.3 12.9 13.4 15.75 10.9 15.75 9.55 15.75 9.05 14.75 L8.6 13.1 8.05 13.25 5.55 13.8 Q2.6 13.8 1.15 12.3 -0.2 10.8 0.05 8.4 0.4 5.15 3.9 2.55 7.35 0.0 11.3 0.0 12.65 0.0 13.4 0.65 14.4 1.4 14.3 2.85 L14.8 2.6 Z" fill="none" stroke="#000000" stroke-linecap="square" stroke-linejoin="miter-clip" stroke-miterlimit="3.0" stroke-width="0.75"/>
    </g>
    <g id="shape8" transform="matrix(1.0, 0.0, 0.0, 1.0, -0.1, -0.15)">
      <path d="M2.05 3.75 L1.2 4.3 Q0.7 4.3 0.4 3.65 0.1 3.0 0.1 2.15 0.2 1.3 0.6 0.7 1.0 0.15 1.45 0.15 1.95 0.2 2.2 0.75 2.55 1.45 2.5 2.25 2.45 3.15 2.05 3.75" fill="#000000" fill-rule="evenodd" stroke="none"/>
    </g>
    <g id="shape9" transform="matrix(1.0, 0.0, 0.0, 1.0, -0.1, -0.1)">
      <path d="M0.4 3.25 Q-0.05 2.9 0.2 2.25 0.35 1.6 0.8 1.0 1.45 0.4 2.1 0.2 L3.0 0.25 Q3.3 0.6 3.2 1.1 3.05 1.85 2.55 2.45 L1.35 3.3 0.4 3.25" fill="#000000" fill-rule="evenodd" stroke="none"/>
    </g>
    <g id="shape10" transform="matrix(1.0, 0.0, 0.0, 1.0, 0.0, 0.0)">
      <path d="M12.35 16.25 Q9.75 18.65 6.65 18.25 3.45 17.85 1.55 14.9 -0.35 12.0 0.1 8.25 0.55 4.45 3.1 2.0 5.65 -0.3 8.8 0.05 12.0 0.5 13.9 3.35 15.8 6.3 15.35 10.1 14.9 13.85 12.35 16.25" fill="#000000" fill-opacity="0.2" fill-rule="evenodd" stroke="none"/>
    </g>
    <g id="shape11" transform="matrix(1.0, 0.0, 0.0, 1.0, -0.4, 1.7)">
      <path d="M7.0 -0.9 Q11.5 -2.4 16.4 -1.05 21.4 0.4 23.8 3.9 25.3 6.0 25.4 8.15 L25.2 10.3 24.9 11.2 24.85 11.2 Q23.4 14.8 18.75 16.4 L18.8 16.4 Q14.2 18.0 9.35 16.55 4.35 15.2 2.0 11.65 -0.55 8.0 0.95 4.4 L1.15 4.0 Q2.7 0.65 7.0 -0.9 M23.0 12.45 L23.95 10.8 23.95 10.85 Q25.2 7.6 23.0 4.45 20.7 1.2 16.1 -0.1 L16.15 -0.1 Q11.5 -1.4 7.3 0.05 L7.35 0.05 Q3.25 1.55 1.85 4.8 L1.55 5.85 Q0.95 8.4 2.8 11.05 L2.85 11.1 Q5.05 14.35 9.65 15.6 14.2 16.9 18.45 15.45 21.45 14.4 23.0 12.45 M4.1 7.45 L3.45 8.0 Q3.95 10.15 5.15 12.0 L5.7 12.8 Q3.55 11.1 2.7 8.6 L2.15 9.25 2.15 8.65 Q2.85 7.05 4.1 7.45" fill="#000000" fill-rule="evenodd" stroke="none"/>
      <path d="M23.0 12.45 Q21.45 14.4 18.45 15.45 14.2 16.9 9.65 15.6 5.05 14.35 2.85 11.1 L2.8 11.05 Q0.95 8.4 1.55 5.85 L2.0 6.95 2.45 7.0 3.35 6.45 4.1 7.45 5.5 8.8 Q9.2 12.2 14.05 13.45 18.7 14.65 23.0 12.45 M4.1 7.45 Q2.85 7.05 2.15 8.65 L2.15 9.25 2.7 8.6 Q3.55 11.1 5.7 12.8 L5.15 12.0 Q3.95 10.15 3.45 8.0 L4.1 7.45" fill="#f99108" fill-rule="evenodd" stroke="none"/>
      <path d="M1.55 5.85 L1.85 4.8 Q3.25 1.55 7.35 0.05 L7.3 0.05 Q11.5 -1.4 16.15 -0.1 L16.1 -0.1 Q20.7 1.2 23.0 4.45 25.2 7.6 23.95 10.85 L23.95 10.8 23.0 12.45 Q18.7 14.65 14.05 13.45 9.2 12.2 5.5 8.8 L4.1 7.45 3.35 6.45 2.45 7.0 2.0 6.95 1.55 5.85" fill="#ffb409" fill-rule="evenodd" stroke="none"/>
    </g>
    <g id="shape12" transform="matrix(1.0, 0.0, 0.0, 1.0, 0.0, 0.0)">
      <path d="M36.0 5.4 L35.55 4.55 Q34.05 2.2 31.2 1.6 L27.05 0.95 24.2 0.8 Q22.65 0.9 21.2 1.45 L22.1 1.45 Q26.9 1.2 30.0 4.9 33.15 8.7 31.9 13.55 32.65 8.25 28.9 4.75 25.6 1.65 20.8 2.3 L20.55 2.35 19.15 2.5 18.45 2.6 18.1 2.7 14.6 3.7 7.4 6.2 Q9.85 7.95 10.95 11.35 8.15 7.0 6.75 6.6 L6.7 6.6 6.45 6.4 6.4 6.4 6.4 6.35 Q5.1 5.45 3.2 5.5 2.1 5.5 1.2 6.2 L0.85 6.55 0.75 6.8 0.75 6.9 0.0 6.75 0.1 6.35 0.75 5.6 Q1.9 4.7 3.2 4.75 5.25 4.75 6.7 5.65 L7.0 5.55 14.35 3.0 Q16.15 2.3 17.95 1.95 L18.3 1.85 19.4 1.8 18.85 1.8 Q20.2 0.95 21.6 0.55 L27.15 0.2 27.2 0.2 31.3 0.85 31.35 0.85 Q34.25 1.45 35.9 3.65 L36.2 4.15 Q37.8 6.7 37.55 9.7 37.05 14.4 35.6 18.8 34.2 22.95 31.55 26.6 28.35 30.95 23.15 31.55 18.1 32.0 14.2 28.8 10.3 25.75 8.25 21.15 6.6 17.5 5.2 13.65 L4.55 11.75 4.0 10.2 Q4.05 8.75 4.6 10.05 L5.3 11.8 5.65 12.65 5.9 13.4 8.95 20.85 Q10.9 25.25 14.65 28.2 18.3 31.2 23.05 30.8 27.95 30.25 30.95 26.15 33.5 22.55 34.9 18.55 36.35 14.2 36.8 9.65 36.95 7.35 36.0 5.4" fill="#000000" fill-rule="evenodd" stroke="none"/>
      <path d="M24.2 0.8 L27.05 0.95 31.2 1.6 Q34.05 2.2 35.55 4.55 L36.0 5.4 Q35.9 12.95 32.5 20.5 28.1 30.25 21.0 30.25 15.35 30.25 10.2 19.0 7.35 12.65 6.5 11.25 4.35 7.75 2.1 7.75 L1.7 7.8 0.75 6.8 0.85 6.55 1.2 6.2 Q2.1 5.5 3.2 5.5 5.1 5.45 6.4 6.35 L6.4 6.4 6.45 6.4 6.7 6.6 6.75 6.6 Q8.15 7.0 10.95 11.35 9.85 7.95 7.4 6.2 L14.6 3.7 18.1 2.7 18.45 2.6 19.15 2.5 20.55 2.35 Q26.9 3.3 29.35 8.0 31.8 12.65 31.25 17.5 32.55 16.95 32.95 15.4 L33.8 10.3 Q34.25 6.75 30.85 3.8 28.2 1.5 24.2 0.8" fill="#f8c592" fill-rule="evenodd" stroke="none"/>
      <path d="M24.2 0.8 Q28.2 1.5 30.85 3.8 34.25 6.75 33.8 10.3 L32.95 15.4 Q32.55 16.95 31.25 17.5 31.8 12.65 29.35 8.0 26.9 3.3 20.55 2.35 L20.8 2.3 Q25.6 1.65 28.9 4.75 32.65 8.25 31.9 13.55 33.15 8.7 30.0 4.9 26.9 1.2 22.1 1.45 L21.2 1.45 Q22.65 0.9 24.2 0.8 M1.7 7.8 L2.1 7.75 Q4.35 7.75 6.5 11.25 7.35 12.65 10.2 19.0 15.35 30.25 21.0 30.25 28.1 30.25 32.5 20.5 35.9 12.95 36.0 5.4 36.95 7.35 36.8 9.65 36.35 14.2 34.9 18.55 33.5 22.55 30.95 26.15 27.95 30.25 23.05 30.8 18.3 31.2 14.65 28.2 10.9 25.25 8.95 20.85 L5.9 13.4 5.65 12.65 5.3 11.8 4.6 10.05 Q4.05 8.75 4.0 10.2 L1.7 7.8" fill="#cc8f65" fill-rule="evenodd" stroke="none"/>
    </g>
    <g id="shape13" transform="matrix(1.0, 0.0, 0.0, 1.0, 0.0, 0.0)">
      <path d="M1.05 21.75 L6.1 28.5 Q12.7 36.1 21.0 41.6 29.25 47.05 34.2 47.8 36.0 48.1 36.8 47.8 L35.1 42.9 31.55 39.6 Q27.25 35.35 24.3 31.35 20.8 26.6 19.1 22.0 17.45 17.7 16.2 10.3 15.6 6.75 14.25 4.4 L13.85 3.8 Q12.6 1.65 10.25 0.6 L9.1 0.0 11.2 0.55 Q13.85 1.1 14.85 3.5 16.5 6.1 17.2 10.15 18.45 17.4 20.05 21.65 21.7 26.1 25.1 30.75 28.05 34.75 32.25 38.9 L35.9 42.25 36.05 42.45 37.9 47.85 37.9 48.15 37.75 48.4 Q36.85 49.25 34.05 48.8 28.95 48.05 20.45 42.45 12.0 36.85 5.35 29.15 L5.3 29.1 4.8 28.45 4.4 27.85 2.15 24.4 0.0 20.7 1.05 21.75" fill="#000000" fill-rule="evenodd" stroke="none"/>
      <path d="M10.25 0.6 Q12.6 1.65 13.85 3.8 L14.25 4.4 Q15.6 6.75 16.2 10.3 17.45 17.7 19.1 22.0 20.8 26.6 24.3 31.35 27.25 35.35 31.55 39.6 L35.1 42.9 36.8 47.8 Q36.0 48.1 34.2 47.8 29.25 47.05 21.0 41.6 12.7 36.1 6.1 28.5 L1.05 21.75 10.25 0.6" fill="#009900" fill-rule="evenodd" stroke="none"/>
    </g>
    <g id="shape14" transform="matrix(1.0, 0.0, 0.0, 1.0, 0.0, 0.0)">
      <path d="M47.3 25.95 L47.3 25.4 Q47.3 23.2 46.05 20.75 L46.05 20.7 Q45.3 19.1 44.5 18.55 L44.35 18.45 43.15 17.1 43.55 17.1 44.35 17.25 Q44.45 14.0 41.55 10.45 38.25 6.35 35.2 5.9 L35.55 7.0 35.65 7.45 35.5 7.5 33.95 5.7 33.9 5.65 Q33.05 4.45 31.4 3.25 28.15 1.0 25.7 1.0 24.65 1.0 23.8 1.35 L23.7 1.35 23.25 1.55 23.3 1.6 Q23.65 1.8 24.2 3.4 L24.15 3.45 23.75 3.15 22.75 2.45 21.95 1.95 21.85 1.9 Q20.8 1.3 20.1 1.3 17.55 1.35 15.35 4.45 L14.75 5.4 Q13.2 8.05 13.2 11.05 13.2 13.25 14.6 15.6 15.05 16.5 15.65 17.1 L15.8 17.25 17.15 18.05 Q17.6 17.25 18.35 16.65 L18.65 16.45 17.9 18.85 17.85 18.9 17.8 18.95 Q17.2 20.2 17.2 22.0 17.25 29.3 25.8 29.3 L27.75 29.1 28.3 29.05 Q29.0 28.9 30.3 29.05 L30.35 29.2 29.25 29.9 31.1 32.0 32.05 32.85 33.0 33.45 32.95 33.45 Q37.1 35.4 40.7 32.5 L40.7 32.45 40.85 32.3 41.35 31.8 42.6 29.6 42.1 31.9 Q43.9 31.8 45.5 29.95 47.1 28.0 47.3 25.95 M46.95 20.3 Q47.85 22.1 48.15 23.75 L48.3 25.4 Q48.3 28.05 46.25 30.6 44.15 33.1 41.6 32.95 L41.55 33.05 41.45 33.15 Q37.35 36.6 32.55 34.35 L32.5 34.35 31.75 33.9 28.85 36.3 Q21.3 42.7 17.3 48.5 L17.15 48.75 16.85 48.7 Q3.85 47.15 0.1 34.0 L0.0 33.7 0.25 33.5 Q6.95 27.85 11.7 21.8 L14.75 17.55 13.7 16.1 13.75 16.1 Q12.2 13.45 12.2 11.05 12.2 7.25 14.55 3.9 L14.85 3.5 Q17.2 0.25 20.1 0.3 20.95 0.3 22.15 0.95 23.25 0.4 23.5 0.35 L25.7 0.0 Q28.35 0.0 31.95 2.45 L34.6 4.85 34.75 4.85 Q38.4 4.9 42.35 9.8 45.8 14.0 45.3 17.9 46.2 18.65 46.95 20.3 M17.6 19.15 L17.7 19.05 17.45 19.15 17.6 19.15 M17.8 18.4 L17.9 18.5 17.75 18.25 17.8 18.4 M28.15 35.6 L31.0 33.25 30.4 32.7 30.4 32.75 28.15 30.1 27.9 30.1 25.8 30.3 Q16.15 30.3 16.2 22.0 16.2 20.25 16.7 19.0 L15.45 18.3 12.25 22.75 Q7.65 28.6 1.15 34.05 4.75 46.1 16.7 47.7 20.7 41.9 28.15 35.6" fill="#000000" fill-rule="evenodd" stroke="none"/>
      <path d="M14.75 5.4 L15.35 4.45 Q17.55 1.35 20.1 1.3 20.8 1.3 21.85 1.9 L21.95 1.95 22.75 2.45 23.75 3.15 24.15 3.45 24.2 3.4 Q23.65 1.8 23.3 1.6 L23.25 1.55 23.7 1.35 23.8 1.35 Q24.65 1.0 25.7 1.0 28.15 1.0 31.4 3.25 33.05 4.45 33.9 5.65 L33.95 5.7 35.5 7.5 35.65 7.45 35.55 7.0 35.2 5.9 Q38.25 6.35 41.55 10.45 44.45 14.0 44.35 17.25 L43.55 17.1 43.15 17.1 44.35 18.45 44.5 18.55 Q45.3 19.1 46.05 20.7 L46.05 20.75 Q47.3 23.2 47.3 25.4 L47.3 25.95 Q46.3 28.3 44.75 29.0 L43.5 29.0 43.5 26.0 43.25 25.9 43.0 25.75 Q43.25 27.15 41.25 28.7 39.25 30.25 37.1 30.25 L34.7 29.75 32.75 29.0 Q33.25 28.25 34.0 27.75 L34.0 27.25 Q27.7 28.65 23.55 24.35 19.2 19.85 21.0 12.5 L20.25 13.5 Q19.85 14.0 19.0 14.0 17.55 14.0 16.25 11.75 14.85 9.25 14.75 5.4 M17.8 18.4 L17.75 18.25 17.9 18.5 17.8 18.4 M17.6 19.15 L17.45 19.15 17.7 19.05 17.6 19.15 M28.15 35.6 Q20.7 41.9 16.7 47.7 4.75 46.1 1.15 34.05 7.65 28.6 12.25 22.75 L13.65 25.7 15.35 30.05 Q17.3 34.25 22.6 34.25 L24.9 34.2 Q25.85 34.1 26.5 33.5 L28.0 35.4 28.15 35.6" fill="#ffffff" fill-rule="evenodd" stroke="none"/>
      <path d="M47.3 25.95 Q47.1 28.0 45.5 29.95 43.9 31.8 42.1 31.9 L42.6 29.6 41.35 31.8 40.85 32.3 40.7 32.45 40.7 32.5 Q37.1 35.4 32.95 33.45 L33.0 33.45 32.05 32.85 31.1 32.0 29.25 29.9 30.35 29.2 30.3 29.05 Q29.0 28.9 28.3 29.05 L27.75 29.1 25.8 29.3 Q17.25 29.3 17.2 22.0 17.2 20.2 17.8 18.95 L17.85 18.9 17.9 18.85 18.65 16.45 18.35 16.65 Q17.6 17.25 17.15 18.05 L15.8 17.25 15.65 17.1 Q15.05 16.5 14.6 15.6 13.2 13.25 13.2 11.05 13.2 8.05 14.75 5.4 14.85 9.25 16.25 11.75 17.55 14.0 19.0 14.0 19.85 14.0 20.25 13.5 L21.0 12.5 Q19.2 19.85 23.55 24.35 27.7 28.65 34.0 27.25 L34.0 27.75 Q33.25 28.25 32.75 29.0 L34.7 29.75 37.1 30.25 Q39.25 30.25 41.25 28.7 43.25 27.15 43.0 25.75 L43.25 25.9 43.5 26.0 43.5 29.0 44.75 29.0 Q46.3 28.3 47.3 25.95 M12.25 22.75 L15.45 18.3 16.7 19.0 Q16.2 20.25 16.2 22.0 16.15 30.3 25.8 30.3 L27.9 30.1 28.15 30.1 30.4 32.75 30.4 32.7 31.0 33.25 28.15 35.6 28.0 35.4 26.5 33.5 Q25.85 34.1 24.9 34.2 L22.6 34.25 Q17.3 34.25 15.35 30.05 L13.65 25.7 12.25 22.75" fill="#cccccc" fill-rule="evenodd" stroke="none"/>
    </g>
  </defs>
</svg>
