<?xml version="1.0" encoding="UTF-8" standalone="no"?>
<svg xmlns:ffdec="https://www.free-decompiler.com/flash" xmlns:xlink="http://www.w3.org/1999/xlink" ffdec:objectType="frame" height="251.2px" width="162.6px" xmlns="http://www.w3.org/2000/svg">
  <g transform="matrix(1.0, 0.0, 0.0, 1.0, -295.9, -22.4)">
    <use ffdec:characterId="209" height="41.9" transform="matrix(1.0, 0.0, 0.0, 1.0, 363.25, 224.7)" width="37.05" xlink:href="#shape0"/>
    <use ffdec:characterId="210" height="44.35" transform="matrix(1.0, 0.0, 0.0, 1.0, 338.6, 228.3)" width="40.5" xlink:href="#shape1"/>
    <use ffdec:characterId="211" height="39.6" transform="matrix(1.0, 0.0, 0.0, 1.0, 311.45, 128.75)" width="41.9" xlink:href="#shape2"/>
    <use ffdec:characterId="212" height="71.55" transform="matrix(1.0, 0.0, 0.0, 1.0, 365.1, 115.95)" width="21.75" xlink:href="#shape3"/>
    <use ffdec:characterId="213" height="97.45" transform="matrix(1.0, 0.0, 0.0, 1.0, 334.05, 142.8)" width="59.45" xlink:href="#shape4"/>
    <use ffdec:characterId="214" height="63.3" transform="matrix(1.0, 0.0, 0.0, 1.0, 335.55, 165.7)" width="61.4" xlink:href="#shape5"/>
    <use ffdec:characterId="191" height="24.35" transform="matrix(1.0, 0.0, 0.0, 1.0, 362.4, 182.05)" width="23.2" xlink:href="#shape6"/>
    <use ffdec:characterId="215" height="16.15" transform="matrix(1.0, 0.0, 0.0, 1.0, 344.1, 144.15)" width="15.75" xlink:href="#shape7"/>
    <use ffdec:characterId="115" height="4.15" transform="matrix(0.8113, -0.5846, 0.5846, 0.8113, 349.2188, 148.8632)" width="2.4" xlink:href="#shape8"/>
    <use ffdec:characterId="143" height="3.3" transform="matrix(0.0659, -0.9978, 0.9978, 0.0659, 352.9564, 149.0068)" width="3.1" xlink:href="#shape9"/>
    <use ffdec:characterId="194" height="18.3" transform="matrix(0.517, -0.856, 0.8849, 0.6911, 352.7, 164.4)" width="15.45" xlink:href="#shape10"/>
    <use ffdec:characterId="216" height="18.0" transform="matrix(0.517, -0.856, 0.856, 0.517, 348.8862, 163.6008)" width="27.75" xlink:href="#shape11"/>
    <use ffdec:characterId="224" height="60.9" transform="matrix(1.0, 0.0, 0.0, 1.0, 402.1, 28.65)" width="37.0" xlink:href="#shape12"/>
    <use ffdec:characterId="218" height="56.3" transform="matrix(1.0, 0.0, 0.0, 1.0, 298.65, 139.15)" width="55.4" xlink:href="#shape13"/>
  </g>
  <defs>
    <g id="shape0" transform="matrix(1.0, 0.0, 0.0, 1.0, 0.0, 0.0)">
      <path d="M24.25 23.9 L20.95 25.25 Q16.45 26.9 11.7 27.65 L10.1 27.65 Q10.8 28.15 13.25 28.05 18.75 27.2 22.4 25.35 23.95 24.5 25.2 23.5 L24.25 23.9 M23.9 14.05 Q25.5 18.15 26.4 22.35 L26.6 23.35 26.7 23.65 30.85 24.75 30.8 24.75 34.1 25.85 33.65 26.4 32.8 27.4 33.45 26.35 31.0 28.4 29.45 29.4 Q26.6 30.95 23.15 31.75 20.9 32.5 18.65 32.85 L18.5 32.85 18.25 32.9 Q14.6 32.4 10.95 31.1 L7.75 29.8 7.45 29.55 Q6.55 26.25 5.95 22.7 7.85 22.55 11.15 21.45 L14.65 20.15 Q18.5 18.6 21.1 16.75 L23.9 14.05" fill="#ffb409" fill-rule="evenodd" stroke="none"/>
      <path d="M24.6 13.1 Q26.55 17.95 27.55 22.85 L31.1 23.8 34.0 24.7 34.6 24.95 Q35.7 25.4 36.05 25.8 L36.15 25.9 Q37.0 26.8 37.05 30.5 L37.05 31.7 36.6 35.05 36.55 35.05 Q35.75 37.1 31.15 39.05 26.75 40.95 22.4 41.7 17.9 42.45 12.95 40.55 7.95 38.65 4.65 36.05 1.1 33.35 0.7 31.15 L0.7 31.05 Q-0.05 25.8 0.0 20.6 0.05 14.65 0.9 8.7 L0.9 8.65 0.95 8.65 Q2.9 0.25 10.3 0.0 18.7 -0.4 23.9 11.45 L24.6 13.1 M24.25 23.9 L25.2 23.5 Q23.95 24.5 22.4 25.35 18.75 27.2 13.25 28.05 10.8 28.15 10.1 27.65 L11.7 27.65 Q16.45 26.9 20.95 25.25 L24.25 23.9 M34.1 25.85 L30.8 24.75 30.85 24.75 26.7 23.65 26.6 23.35 26.4 22.35 Q25.5 18.15 23.9 14.05 L23.0 11.85 Q18.1 0.7 10.35 1.0 3.7 1.25 1.9 8.9 L1.9 8.85 Q1.05 14.75 1.0 20.6 0.95 25.7 1.7 30.9 L1.7 30.95 Q2.1 32.85 5.25 35.25 8.45 37.75 13.3 39.6 18.0 41.35 22.25 40.7 26.45 39.95 30.75 38.15 34.85 36.4 35.65 34.65 35.95 33.85 36.05 31.8 L36.05 30.5 Q36.0 27.55 35.5 26.7 L35.35 26.5 35.0 26.25 34.1 25.85 M5.95 22.7 Q6.55 26.25 7.45 29.55 L7.75 29.8 10.95 31.1 Q14.6 32.4 18.25 32.9 L18.5 32.85 18.65 32.85 Q20.9 32.5 23.15 31.75 26.6 30.95 29.45 29.4 L31.0 28.4 33.45 26.35 32.8 27.4 32.3 27.95 31.4 28.8 29.55 30.1 Q27.1 31.5 23.4 32.45 L19.0 33.55 19.0 33.6 18.85 36.05 Q18.75 38.15 17.85 40.15 L18.1 37.9 Q18.45 35.8 18.1 33.65 14.4 33.1 10.7 31.8 L8.3 30.9 6.8 30.0 6.75 29.85 Q5.8 26.4 5.2 22.7 L5.2 22.55 4.8 19.95 Q3.4 9.35 6.3 6.5 4.35 10.65 5.55 19.85 L5.95 22.7" fill="#000000" fill-rule="evenodd" stroke="none"/>
      <path d="M23.9 14.05 L21.1 16.75 Q18.5 18.6 14.65 20.15 L11.15 21.45 Q7.85 22.55 5.95 22.7 L5.55 19.85 Q4.35 10.65 6.3 6.5 3.4 9.35 4.8 19.95 L5.2 22.55 5.2 22.7 Q5.8 26.4 6.75 29.85 L6.8 30.0 8.3 30.9 10.7 31.8 Q14.4 33.1 18.1 33.65 18.45 35.8 18.1 37.9 L17.85 40.15 Q18.75 38.15 18.85 36.05 L19.0 33.6 19.0 33.55 23.4 32.45 Q27.1 31.5 29.55 30.1 L31.4 28.8 32.3 27.95 32.8 27.4 33.65 26.4 34.1 25.85 35.0 26.25 35.35 26.5 35.5 26.7 Q36.0 27.55 36.05 30.5 L36.05 31.8 Q35.95 33.85 35.65 34.65 34.85 36.4 30.75 38.15 26.45 39.95 22.25 40.7 18.0 41.35 13.3 39.6 8.45 37.75 5.25 35.25 2.1 32.85 1.7 30.95 L1.7 30.9 Q0.95 25.7 1.0 20.6 1.05 14.75 1.9 8.85 L1.9 8.9 Q3.7 1.25 10.35 1.0 18.1 0.7 23.0 11.85 L23.9 14.05" fill="#f99108" fill-rule="evenodd" stroke="none"/>
    </g>
    <g id="shape1" transform="matrix(1.0, 0.0, 0.0, 1.0, 0.0, 0.0)">
      <path d="M40.5 35.5 L40.5 35.55 Q40.6 37.35 39.75 38.7 39.05 39.7 37.95 40.15 L35.75 41.1 35.7 41.1 32.3 42.0 32.25 42.0 30.1 42.4 30.15 42.4 26.3 43.1 23.4 43.6 20.5 44.0 20.45 44.0 16.65 44.3 16.6 44.3 14.45 44.35 14.35 44.35 10.9 44.1 10.85 44.1 Q9.2 43.8 7.9 42.9 L7.95 42.95 6.55 41.8 4.25 39.2 2.0 36.15 Q0.85 34.7 0.6 32.7 L0.3 29.6 0.1 26.45 0.05 26.05 0.05 23.2 0.15 20.5 0.35 16.55 0.35 16.5 0.65 14.75 0.65 14.7 1.1 12.8 1.5 11.4 2.4 8.45 Q2.9 7.1 3.55 5.85 L3.6 5.85 5.0 3.9 5.05 3.9 6.65 2.2 7.65 1.5 7.6 1.55 Q8.55 1.0 9.7 0.75 L9.65 0.75 Q10.65 0.3 11.75 0.1 L11.8 0.05 11.85 0.05 14.65 0.2 Q16.5 0.5 18.35 1.45 L20.2 2.7 20.25 2.75 22.1 4.35 Q23.65 5.85 24.65 7.65 L26.05 10.35 27.45 13.35 28.7 16.5 29.45 19.0 29.55 19.4 29.6 19.6 30.5 24.05 30.95 24.25 34.8 26.3 34.8 26.35 34.85 26.35 35.95 27.05 35.9 27.05 Q37.5 27.95 38.85 29.3 L38.95 29.4 39.7 30.5 40.25 33.2 40.5 35.5 M28.55 19.4 L27.75 16.8 27.75 16.85 26.55 13.75 25.15 10.8 23.8 8.15 23.75 8.15 Q22.85 6.45 21.4 5.05 L21.4 5.1 19.6 3.5 17.9 2.35 Q15.6 1.2 13.2 1.05 L11.9 1.05 10.0 1.7 9.95 1.7 Q8.95 1.9 8.1 2.4 L7.3 2.95 5.8 4.5 5.8 4.55 Q5.0 5.4 4.45 6.35 L3.35 8.8 2.45 11.65 1.95 13.5 1.65 14.9 1.35 16.65 1.15 20.55 1.05 23.2 1.05 23.25 1.05 26.0 1.1 26.65 1.3 29.5 1.3 29.55 1.6 32.55 Q1.85 34.3 2.8 35.55 L5.05 38.6 7.25 41.1 8.5 42.1 Q9.6 42.9 11.0 43.1 L14.45 43.35 16.55 43.3 20.35 43.0 23.25 42.6 26.2 42.1 29.9 41.45 29.9 41.4 32.05 41.0 32.05 41.05 35.45 40.15 35.4 40.15 37.55 39.25 38.9 38.15 Q39.6 37.05 39.5 35.6 L39.25 33.35 39.25 33.3 38.75 30.8 38.75 30.85 38.25 30.1 37.95 29.8 35.4 27.9 34.35 27.2 34.3 27.2 29.85 24.8 29.6 24.7 29.6 24.6 29.55 24.45 28.65 19.85 28.55 19.45 28.55 19.4 M35.85 30.8 L33.05 32.05 Q29.05 33.3 24.45 33.85 L17.55 34.2 9.45 33.55 9.2 34.55 Q8.8 36.9 8.8 41.35 8.2 38.1 8.4 36.2 8.55 34.25 8.85 33.0 6.3 29.75 3.25 27.25 L3.1 27.15 3.1 26.9 3.8 18.55 Q3.95 16.75 4.35 15.15 4.7 13.5 5.35 12.05 L5.35 12.0 5.95 10.75 5.8 11.45 5.55 12.2 Q5.0 13.7 4.7 15.35 4.4 17.05 4.25 18.95 L3.65 26.75 3.95 27.0 Q7.05 29.5 9.5 32.6 L9.55 32.65 9.65 32.8 17.6 33.45 24.35 33.1 Q28.85 32.6 33.15 31.35 L34.35 31.0 36.6 30.3 35.85 30.8 M11.0 26.5 L11.1 26.5 Q17.3 26.9 27.15 25.0 L26.2 25.45 23.85 26.15 23.35 26.25 Q16.85 27.6 10.65 26.95 L9.15 26.65 11.0 26.5" fill="#000000" fill-rule="evenodd" stroke="none"/>
      <path d="M37.95 29.8 L38.25 30.1 38.75 30.85 38.75 30.8 39.25 33.3 39.25 33.35 39.5 35.6 Q39.6 37.05 38.9 38.15 L37.55 39.25 35.4 40.15 35.45 40.15 32.05 41.05 32.05 41.0 29.9 41.4 29.9 41.45 26.2 42.1 23.25 42.6 20.35 43.0 16.55 43.3 14.45 43.35 11.0 43.1 Q9.6 42.9 8.5 42.1 L7.25 41.1 5.05 38.6 2.8 35.55 Q1.85 34.3 1.6 32.55 L1.3 29.55 1.3 29.5 1.1 26.65 1.05 26.0 1.05 23.25 1.05 23.2 1.15 20.55 1.35 16.65 1.65 14.9 1.95 13.5 2.45 11.65 3.35 8.8 4.45 6.35 Q5.0 5.4 5.8 4.55 L5.8 4.5 7.3 2.95 8.1 2.4 Q8.95 1.9 9.95 1.7 L10.0 1.7 11.9 1.05 13.2 1.05 Q15.6 1.2 17.9 2.35 L19.6 3.5 21.4 5.1 21.4 5.05 Q22.85 6.45 23.75 8.15 L23.8 8.15 25.15 10.8 26.55 13.75 27.75 16.85 27.75 16.8 28.55 19.4 Q26.05 20.4 22.05 20.4 15.5 20.4 8.3 17.2 L4.7 15.35 Q5.0 13.7 5.55 12.2 L5.8 11.45 5.95 10.75 5.35 12.0 5.35 12.05 Q4.7 13.5 4.35 15.15 3.95 16.75 3.8 18.55 L3.1 26.9 3.1 27.15 3.25 27.25 Q6.3 29.75 8.85 33.0 8.55 34.25 8.4 36.2 8.2 38.1 8.8 41.35 8.8 36.9 9.2 34.55 L9.45 33.55 17.55 34.2 24.45 33.85 Q29.05 33.3 33.05 32.05 L35.85 30.8 37.55 30.0 37.95 29.8" fill="#f99108" fill-rule="evenodd" stroke="none"/>
      <path d="M28.55 19.4 L28.55 19.45 28.65 19.85 29.55 24.45 29.6 24.6 29.6 24.7 29.85 24.8 34.3 27.2 34.35 27.2 35.4 27.9 37.95 29.8 37.55 30.0 35.85 30.8 36.6 30.3 34.35 31.0 33.15 31.35 Q28.85 32.6 24.35 33.1 L17.6 33.45 9.65 32.8 9.55 32.65 9.5 32.6 Q7.05 29.5 3.95 27.0 L3.65 26.75 4.25 18.95 Q4.4 17.05 4.7 15.35 L8.3 17.2 Q15.5 20.4 22.05 20.4 26.05 20.4 28.55 19.4 M11.0 26.5 L9.15 26.65 10.65 26.95 Q16.85 27.6 23.35 26.25 L23.85 26.15 26.2 25.45 27.15 25.0 Q17.3 26.9 11.1 26.5 L11.0 26.5" fill="#ffb409" fill-rule="evenodd" stroke="none"/>
    </g>
    <g id="shape2" transform="matrix(1.0, 0.0, 0.0, 1.0, 0.0, 0.0)">
      <path d="M40.9 17.5 Q41.7 19.4 41.85 21.5 42.0 23.7 41.5 25.95 L41.5 25.9 Q41.0 28.3 40.1 30.65 38.95 33.55 36.9 35.9 L33.75 38.4 Q31.25 39.75 28.45 39.6 L28.35 39.6 27.45 39.45 27.25 39.4 22.2 36.1 20.75 37.4 Q18.3 39.5 14.95 39.2 11.75 38.7 10.85 35.85 L8.25 36.25 5.9 36.0 Q4.2 35.5 3.05 34.1 1.8 32.65 1.4 30.95 0.6 28.1 1.65 25.5 L0.9 23.65 0.35 21.9 Q-0.1 20.15 0.05 18.4 L0.05 18.35 Q0.25 15.3 2.05 12.75 L2.05 12.7 Q2.75 11.75 3.6 11.05 5.7 9.15 8.4 8.55 L8.9 7.15 Q9.75 5.45 11.0 4.2 L11.0 4.15 Q12.35 2.65 14.0 1.55 16.2 0.05 18.8 0.0 21.3 0.0 23.6 0.8 26.65 1.7 27.85 4.4 30.8 3.6 33.4 5.35 L33.35 5.35 Q34.9 6.25 35.25 8.05 35.75 10.45 35.1 12.8 L38.35 13.4 38.5 13.4 38.85 13.65 40.9 17.5 M40.5 25.7 L40.55 25.7 Q41.0 23.6 40.85 21.55 40.7 19.6 40.0 17.9 L38.15 14.4 Q35.95 13.45 34.3 14.4 L34.1 14.35 Q32.15 15.0 30.4 16.05 28.6 17.0 27.3 18.55 25.85 20.1 25.05 22.0 24.15 24.0 23.9 26.1 23.65 28.25 23.9 30.4 L23.9 30.45 Q23.95 31.65 24.3 32.8 L24.35 32.9 Q25.2 35.75 27.05 37.85 L27.45 38.35 27.7 38.5 28.55 38.6 Q31.05 38.75 33.25 37.55 34.95 36.55 36.15 35.25 38.05 33.05 39.15 30.3 L40.5 25.7 M31.2 12.15 L34.1 12.65 Q34.75 10.45 34.25 8.25 34.0 6.85 32.85 6.2 30.65 4.7 28.1 5.35 L27.3 7.2 27.05 5.15 Q26.1 2.6 23.3 1.75 21.1 1.0 18.8 1.0 16.5 1.05 14.55 2.4 L14.55 2.35 Q13.0 3.4 11.75 4.85 L11.7 4.85 Q10.55 6.05 9.8 7.6 L9.8 7.55 9.5 8.4 11.6 8.55 8.9 9.45 Q6.3 9.95 4.25 11.8 L2.85 13.3 Q1.25 15.6 1.05 18.45 0.9 20.05 1.3 21.65 L1.8 23.25 1.85 23.3 2.2 24.15 3.25 22.15 2.3 26.0 Q1.8 28.75 2.35 30.7 2.7 32.15 3.8 33.45 L5.15 34.65 Q6.45 35.35 8.15 35.25 L11.0 34.8 13.85 34.0 11.75 35.45 Q12.5 37.75 15.05 38.2 L15.1 38.2 Q18.0 38.45 20.1 36.65 L21.35 35.55 12.3 29.6 10.6 30.15 11.8 28.7 Q12.6 27.3 13.0 25.7 L12.95 25.7 13.1 23.8 13.1 23.75 Q13.05 21.45 12.15 19.35 L10.8 19.45 12.3 18.3 Q13.4 17.7 14.35 16.9 L14.35 16.85 16.9 14.5 16.9 14.45 Q18.15 13.1 19.0 11.4 L18.1 13.3 20.9 8.5 20.5 10.3 31.2 12.15 M23.45 32.3 L23.15 30.5 Q22.85 28.25 23.15 26.0 23.45 23.8 24.35 21.7 25.25 19.7 26.75 18.05 28.1 16.4 30.05 15.4 L30.5 15.15 31.1 14.85 33.85 13.65 33.85 13.6 21.25 11.45 20.15 11.25 Q19.2 13.45 17.65 15.15 L15.0 17.65 14.95 17.65 13.1 19.05 Q14.05 21.25 14.1 23.75 L13.95 25.9 13.95 25.95 12.95 28.8 22.45 35.05 22.5 35.1 25.5 37.05 Q24.25 35.25 23.6 33.0 L23.45 32.3" fill="#000000" fill-rule="evenodd" stroke="none"/>
      <path d="M5.15 34.65 L3.8 33.45 Q2.7 32.15 2.35 30.7 1.8 28.75 2.3 26.0 L3.25 22.15 2.2 24.15 1.85 23.3 1.8 23.25 1.3 21.65 Q0.9 20.05 1.05 18.45 1.25 15.6 2.85 13.3 L4.25 11.8 Q6.3 9.95 8.9 9.45 L11.6 8.55 9.5 8.4 9.8 7.55 9.8 7.6 Q10.55 6.05 11.7 4.85 L11.75 4.85 Q13.0 3.4 14.55 2.35 L14.55 2.4 Q16.5 1.05 18.8 1.0 21.1 1.0 23.3 1.75 26.1 2.6 27.05 5.15 L27.3 7.2 28.1 5.35 Q30.65 4.7 32.85 6.2 34.0 6.85 34.25 8.25 34.75 10.45 34.1 12.65 L31.2 12.15 Q30.8 9.25 28.45 9.25 26.0 9.25 24.1 7.3 22.2 5.35 19.8 5.35 L18.05 5.6 Q18.35 12.1 4.0 18.85 L5.9 20.9 Q5.1 22.15 4.65 23.6 4.0 25.95 4.0 30.15 4.0 32.3 5.15 34.6 L5.15 34.65 M21.25 11.45 L33.85 13.6 33.85 13.65 31.1 14.85 30.5 15.15 30.05 15.4 Q28.1 16.4 26.75 18.05 25.25 19.7 24.35 21.7 23.45 23.8 23.15 26.0 22.85 28.25 23.15 30.5 L23.45 32.3 20.25 30.3 16.25 27.75 Q17.0 26.55 17.0 25.1 17.0 23.95 16.35 21.75 L15.95 20.4 Q18.7 18.7 20.1 15.7 21.0 13.7 21.25 11.45" fill="#ffffff" fill-rule="evenodd" stroke="none"/>
      <path d="M40.5 25.7 L39.15 30.3 Q38.05 33.05 36.15 35.25 34.95 36.55 33.25 37.55 31.05 38.75 28.55 38.6 L27.7 38.5 27.45 38.35 27.05 37.85 Q25.2 35.75 24.35 32.9 L24.3 32.8 Q23.95 31.65 23.9 30.45 L23.9 30.4 Q23.65 28.25 23.9 26.1 24.15 24.0 25.05 22.0 25.85 20.1 27.3 18.55 28.6 17.0 30.4 16.05 32.15 15.0 34.1 14.35 L34.3 14.4 Q35.95 13.45 38.15 14.4 L40.0 17.9 Q40.7 19.6 40.85 21.55 41.0 23.6 40.55 25.7 L40.5 25.7 M31.2 12.15 L20.5 10.3 20.9 8.5 18.1 13.3 19.0 11.4 Q18.15 13.1 16.9 14.45 L16.9 14.5 14.35 16.85 14.35 16.9 Q13.4 17.7 12.3 18.3 L10.8 19.45 12.15 19.35 Q13.05 21.45 13.1 23.75 L13.1 23.8 12.95 25.7 13.0 25.7 Q12.6 27.3 11.8 28.7 L10.6 30.15 12.3 29.6 21.35 35.55 20.1 36.65 Q18.0 38.45 15.1 38.2 L15.05 38.2 Q12.5 37.75 11.75 35.45 L13.85 34.0 11.0 34.8 8.15 35.25 Q6.45 35.35 5.15 34.65 L5.15 34.6 Q4.0 32.3 4.0 30.15 4.0 25.95 4.65 23.6 5.1 22.15 5.9 20.9 L4.0 18.85 Q18.35 12.1 18.05 5.6 L19.8 5.35 Q22.2 5.35 24.1 7.3 26.0 9.25 28.45 9.25 30.8 9.25 31.2 12.15 M23.45 32.3 L23.6 33.0 Q24.25 35.25 25.5 37.05 L22.5 35.1 22.45 35.05 12.95 28.8 13.95 25.95 13.95 25.9 14.1 23.75 Q14.05 21.25 13.1 19.05 L14.95 17.65 15.0 17.65 17.65 15.15 Q19.2 13.45 20.15 11.25 L21.25 11.45 Q21.0 13.7 20.1 15.7 18.7 18.7 15.95 20.4 L16.35 21.75 Q17.0 23.95 17.0 25.1 17.0 26.55 16.25 27.75 L20.25 30.3 23.45 32.3" fill="#cccccc" fill-rule="evenodd" stroke="none"/>
    </g>
    <g id="shape3" transform="matrix(1.0, 0.0, 0.0, 1.0, 0.5, 0.5)">
      <path d="M4.05 38.25 Q8.0 26.85 7.45 20.05 L6.55 6.15 Q6.35 0.3 7.15 0.0 7.65 -0.2 9.5 1.8 11.65 4.1 13.7 7.5 19.5 17.3 20.55 29.05 21.55 40.45 17.55 56.65 15.5 64.75 13.3 70.55 L0.0 48.3 Q2.1 43.95 4.05 38.25" fill="#009900" fill-rule="evenodd" stroke="none"/>
      <path d="M4.05 38.25 Q8.0 26.85 7.45 20.05 L6.55 6.15 Q6.35 0.3 7.15 0.0 7.65 -0.2 9.5 1.8 11.65 4.1 13.7 7.5 19.5 17.3 20.55 29.05 21.55 40.45 17.55 56.65 15.5 64.75 13.3 70.55 L0.0 48.3 Q2.1 43.95 4.05 38.25 Z" fill="none" stroke="#000000" stroke-linecap="round" stroke-linejoin="round" stroke-width="1.0"/>
    </g>
    <g id="shape4" transform="matrix(1.0, 0.0, 0.0, 1.0, 0.5, 0.5)">
      <path d="M11.25 78.75 L11.25 78.35 Q11.3 74.1 12.85 69.5 13.85 66.5 16.7 60.45 L21.95 48.45 Q24.35 42.5 23.85 34.15 23.35 25.75 21.9 21.85 22.2 21.95 26.3 19.7 L30.35 17.45 Q33.3 19.9 40.3 28.8 47.25 37.7 52.1 47.5 57.0 57.3 57.0 62.2 56.95 66.2 56.25 70.2 L52.2 75.2 Q43.1 84.9 31.85 84.9 20.8 84.9 11.25 78.75" fill="#ffffff" fill-rule="evenodd" stroke="none"/>
      <path d="M0.6 69.35 Q1.35 64.0 3.1 57.5 6.2 45.65 7.1 37.85 7.95 30.05 4.7 24.35 1.4 18.6 1.5 13.75 1.55 9.6 3.2 6.4 6.05 0.6 12.15 0.0 19.5 0.1 27.05 6.65 34.6 13.2 42.75 25.45 50.85 37.7 54.8 48.35 58.5 58.4 58.45 66.9 L56.25 70.2 Q56.95 66.2 57.0 62.2 57.0 57.3 52.1 47.5 47.25 37.7 40.3 28.8 33.3 19.9 30.35 17.45 L26.3 19.7 Q22.2 21.95 21.9 21.85 23.35 25.75 23.85 34.15 24.35 42.5 21.95 48.45 L16.7 60.45 Q13.85 66.5 12.85 69.5 11.3 74.1 11.25 78.35 L11.25 78.75 8.65 76.95 Q4.3 73.7 0.6 69.35" fill="#009900" fill-rule="evenodd" stroke="none"/>
      <path d="M56.25 70.2 L55.85 72.0 Q54.75 76.9 50.5 81.7 46.2 86.45 40.4 88.85 34.6 91.2 26.7 90.6 19.25 90.0 14.85 85.9 11.35 82.6 11.25 78.75 20.8 84.9 31.85 84.9 43.1 84.9 52.2 75.2 L56.25 70.2" fill="#cccccc" fill-rule="evenodd" stroke="none"/>
      <path d="M0.6 69.35 Q4.3 73.7 8.65 76.95 L11.25 78.75 Q11.35 82.6 14.85 85.9 19.25 90.0 26.7 90.6 34.6 91.2 40.4 88.85 46.2 86.45 50.5 81.7 54.75 76.9 55.85 72.0 L56.25 70.2 58.45 66.9 58.4 67.85 Q58.05 76.65 51.9 85.7 45.75 94.7 31.3 96.15 16.85 97.6 8.45 91.45 0.05 85.3 0.0 77.35 0.0 73.75 0.6 69.35" fill="#006700" fill-rule="evenodd" stroke="none"/>
      <path d="M58.45 66.9 Q58.5 58.4 54.8 48.35 50.85 37.7 42.75 25.45 34.6 13.2 27.05 6.65 19.5 0.1 12.15 0.0 6.05 0.6 3.2 6.4 1.55 9.6 1.5 13.75 1.4 18.6 4.7 24.35 7.95 30.05 7.1 37.85 6.2 45.65 3.1 57.5 1.35 64.0 0.6 69.35 0.0 73.75 0.0 77.35 0.05 85.3 8.45 91.45 16.85 97.6 31.3 96.15 45.75 94.7 51.9 85.7 58.05 76.65 58.4 67.85 L58.45 66.9" fill="none" stroke="#000000" stroke-linecap="round" stroke-linejoin="round" stroke-width="1.0"/>
      <path d="M11.25 78.75 L11.25 78.35 Q11.3 74.1 12.85 69.5 13.85 66.5 16.7 60.45 L21.95 48.45 Q24.35 42.5 23.85 34.15 23.35 25.75 21.9 21.85 22.2 21.95 26.3 19.7 L30.35 17.45 Q33.3 19.9 40.3 28.8 47.25 37.7 52.1 47.5 57.0 57.3 57.0 62.2 56.95 66.2 56.25 70.2 L55.85 72.0 Q54.75 76.9 50.5 81.7 46.2 86.45 40.4 88.85 34.6 91.2 26.7 90.6 19.25 90.0 14.85 85.9 11.35 82.6 11.25 78.75 Z" fill="none" stroke="#000000" stroke-linecap="round" stroke-linejoin="round" stroke-width="0.5"/>
    </g>
    <g id="shape5" transform="matrix(1.0, 0.0, 0.0, 1.0, 0.5, 0.5)">
      <path d="M41.8 3.7 L42.0 4.0 44.0 7.1 44.05 7.15 44.25 7.6 44.4 7.9 44.7 7.75 Q48.2 12.95 50.7 17.75 58.4 32.65 60.1 51.5 L40.9 54.35 Q30.1 55.75 19.4 58.95 L19.8 56.15 20.15 53.05 Q20.75 46.75 20.75 37.5 20.75 19.05 18.9 14.65 17.7 11.6 14.95 10.45 12.6 9.4 7.85 9.45 L5.9 9.65 5.5 9.7 5.55 8.25 Q12.7 6.4 17.95 9.9 L20.25 11.5 20.4 11.5 24.05 10.65 29.35 9.2 29.35 9.25 Q36.65 7.35 41.45 7.2 L41.8 7.15 41.85 6.85 41.95 5.2 41.8 3.7" fill="#bf0101" fill-rule="evenodd" stroke="none"/>
      <path d="M39.25 -0.05 L39.85 -0.5 40.05 -0.2 41.3 1.6 41.4 1.7 42.6 3.6 44.6 6.6 44.75 6.65 44.85 6.7 44.9 6.8 Q48.7 12.3 51.35 17.4 59.2 32.6 60.9 51.8 L60.9 52.15 60.55 52.2 41.0 55.1 Q30.0 56.5 19.05 59.8 L18.5 60.0 18.6 59.4 18.95 56.6 Q5.7 60.2 0.15 62.65 L-0.2 62.8 -0.5 62.1 -0.15 61.95 Q5.5 59.45 19.05 55.85 L19.4 53.0 Q19.95 46.75 20.0 37.5 19.95 19.25 18.2 14.95 17.1 12.2 14.65 11.15 12.4 10.2 7.85 10.2 L6.0 10.4 5.15 10.6 4.65 10.7 4.7 10.15 4.8 7.95 4.8 7.65 5.05 7.6 Q12.7 5.55 18.35 9.25 L18.4 9.25 20.4 10.7 23.85 9.9 29.15 8.5 Q36.3 6.65 41.1 6.45 L41.2 5.2 40.7 2.0 39.45 0.25 39.25 -0.05 M41.8 3.7 L41.95 5.2 41.85 6.85 41.8 7.15 41.45 7.2 Q36.65 7.35 29.35 9.25 L29.35 9.2 24.05 10.65 20.4 11.5 20.25 11.5 17.95 9.9 Q12.7 6.4 5.55 8.25 L5.5 9.7 5.9 9.65 7.85 9.45 Q12.6 9.4 14.95 10.45 17.7 11.6 18.9 14.65 20.75 19.05 20.75 37.5 20.75 46.75 20.15 53.05 L19.8 56.15 19.4 58.95 Q30.1 55.75 40.9 54.35 L60.1 51.5 Q58.4 32.65 50.7 17.75 48.2 12.95 44.7 7.75 L44.4 7.9 44.25 7.6 44.05 7.15 44.0 7.1 42.0 4.0 41.8 3.7" fill="#000000" fill-rule="evenodd" stroke="none"/>
    </g>
    <g id="shape6" transform="matrix(1.0, 0.0, 0.0, 1.0, 0.0, 0.0)">
      <path d="M21.1 8.85 L21.35 7.65 19.55 11.2 19.35 11.05 19.25 10.0 18.9 10.8 Q18.5 9.65 18.85 8.0 L19.0 7.2 Q18.4 8.5 18.55 10.1 18.7 10.4 18.15 9.9 L17.8 7.4 17.0 6.55 16.15 5.1 15.85 6.1 15.5 6.1 14.5 4.25 13.7 4.85 13.65 2.35 12.35 4.4 12.35 3.85 Q12.35 2.7 12.65 1.9 13.2 0.35 14.1 0.45 L15.35 1.15 Q17.15 2.35 18.9 3.85 20.75 5.55 22.35 7.8 L21.5 9.0 21.45 8.75 21.1 8.85" fill="#cb7814" fill-rule="evenodd" stroke="none"/>
      <path d="M21.45 8.75 L21.5 9.0 21.15 9.55 21.45 8.75 M20.3 14.8 L21.4 14.65 18.2 17.05 18.45 16.6 18.45 15.9 20.3 14.8 M14.9 17.3 L15.95 17.25 16.25 16.95 16.9 17.5 14.35 18.9 10.25 21.05 6.1 22.9 Q3.35 23.8 0.5 23.85 L0.45 22.85 4.75 22.05 Q5.65 22.0 8.2 20.8 L11.25 18.95 11.7 19.1 Q12.85 18.85 14.0 17.55 L14.9 17.3" fill="#cc9966" fill-rule="evenodd" stroke="none"/>
      <path d="M18.9 10.8 L19.25 10.0 19.35 11.05 19.55 11.2 21.35 7.65 21.1 8.85 Q20.6 10.45 20.55 12.15 L20.5 14.0 Q19.5 13.05 18.9 10.8 M21.5 9.0 L22.35 7.8 Q22.9 9.25 22.75 11.0 22.55 13.2 21.55 13.75 L21.1 13.75 21.1 13.7 21.15 9.55 21.5 9.0 M12.35 4.4 L13.65 2.35 13.7 4.85 14.5 4.25 15.5 6.1 15.85 6.1 16.15 5.1 17.0 6.55 17.8 7.4 18.15 9.9 17.75 9.7 17.6 9.15 Q16.4 9.05 15.3 7.85 L14.3 6.75 12.35 4.55 12.35 4.45 12.35 4.4" fill="#996633" fill-rule="evenodd" stroke="none"/>
      <path d="M18.9 10.8 Q19.5 13.05 20.5 14.0 L20.55 12.15 Q20.6 10.45 21.1 8.85 L21.45 8.75 21.15 9.55 21.1 13.7 21.05 13.75 21.1 13.75 21.55 13.75 Q22.55 13.2 22.75 11.0 22.9 9.25 22.35 7.8 20.75 5.55 18.9 3.85 17.15 2.35 15.35 1.15 L14.1 0.45 Q13.2 0.35 12.65 1.9 12.35 2.7 12.35 3.85 L12.35 4.4 12.35 4.45 12.35 4.55 14.3 6.75 15.3 7.85 Q16.4 9.05 17.6 9.15 L17.75 9.7 18.15 9.9 Q18.7 10.4 18.55 10.1 18.4 8.5 19.0 7.2 L18.85 8.0 Q18.5 9.65 18.9 10.8 M23.05 11.95 Q22.65 13.75 21.8 14.1 L21.75 14.8 19.65 16.55 12.7 20.45 Q8.15 22.9 4.3 23.85 L0.1 24.3 0.0 22.55 9.5 9.6 Q11.15 7.3 12.0 4.95 L11.95 3.3 12.05 1.95 12.45 1.1 Q12.8 0.5 13.3 0.2 L14.3 0.05 Q16.75 1.35 18.45 2.8 21.8 6.15 22.5 7.25 L23.1 9.05 23.05 11.95 M18.45 15.9 L18.45 16.6 18.2 17.05 21.4 14.65 20.3 14.8 Q19.65 14.5 19.4 13.25 19.05 11.75 18.5 10.95 L18.1 10.5 17.5 11.0 17.4 10.0 14.35 7.45 14.4 8.1 12.35 5.1 11.5 7.25 10.0 9.75 8.55 11.7 5.45 15.8 6.1 16.2 6.05 16.7 Q5.9 17.5 5.45 17.8 L5.3 17.85 Q4.1 19.85 2.95 19.85 L2.65 19.6 0.7 22.4 2.8 21.95 3.2 21.85 6.65 21.15 Q7.7 21.2 8.7 20.2 L8.2 20.8 Q5.65 22.0 4.75 22.05 L0.45 22.85 0.5 23.85 Q3.35 23.8 6.1 22.9 L10.25 21.05 14.35 18.9 16.9 17.5 16.25 16.95 15.95 17.25 14.9 17.3 14.4 17.05 Q14.05 16.65 14.0 15.55 L16.05 14.4 16.05 13.4 16.2 13.15 Q17.9 12.65 18.45 15.9 M13.4 12.3 Q12.85 12.3 12.4 11.85 12.0 11.4 11.7 12.0 L11.8 10.85 12.35 10.65 11.95 11.05 Q13.4 12.65 14.95 11.2 L13.4 10.8 13.65 10.55 15.55 10.95 15.55 11.25 14.85 11.8 Q14.15 12.3 13.4 12.3 M9.65 15.6 L9.1 16.2 9.05 16.25 7.85 16.65 7.4 16.2 8.05 14.5 10.05 14.65 9.65 15.6 M7.75 15.85 L9.8 14.9 8.1 14.9 7.75 15.75 7.65 15.85 7.75 15.85 M5.65 16.6 L5.25 16.3 2.9 19.25 Q4.15 19.55 4.8 17.45 L5.3 17.05 5.65 16.6 M17.1 16.7 L18.15 15.9 Q18.1 14.6 17.55 14.15 L17.1 13.75 Q16.45 15.85 15.15 15.35 L14.45 15.7 14.55 16.5 17.5 15.8 17.1 16.65 17.05 16.7 17.1 16.7 M14.0 17.55 Q12.85 18.85 11.7 19.1 L14.0 17.55" fill="#000000" fill-rule="evenodd" stroke="none"/>
      <path d="M3.2 21.85 L2.8 21.95 Q3.5 21.65 3.95 20.2 L4.1 19.7 7.2 17.45 6.05 16.7 6.1 16.2 5.45 15.8 8.55 11.7 Q10.3 11.35 12.05 9.95 L12.75 9.45 10.0 9.75 11.5 7.25 12.35 5.1 14.4 8.1 14.35 7.45 17.4 10.0 17.5 11.0 18.1 10.5 18.5 10.95 Q18.1 11.45 17.65 11.35 L17.05 11.85 Q16.8 12.6 16.55 12.55 L14.85 11.8 15.55 11.25 15.55 10.95 13.65 10.55 12.35 10.65 11.8 10.85 11.7 12.0 Q12.0 11.4 12.4 11.85 12.85 12.3 13.4 12.3 L12.65 14.15 12.6 15.4 9.65 15.6 10.05 14.65 8.05 14.5 7.4 16.2 7.85 16.65 9.05 16.25 9.05 16.3 8.8 16.5 8.6 17.35 8.8 18.0 Q8.1 19.5 7.15 19.85 5.15 20.55 3.2 21.85" fill="#ffdab5" fill-rule="evenodd" stroke="none"/>
      <path d="M12.35 10.65 L13.65 10.55 13.4 10.8 14.95 11.2 Q13.4 12.65 11.95 11.05 L12.35 10.65 M5.65 16.6 L5.3 17.05 4.8 17.45 Q4.15 19.55 2.9 19.25 L5.25 16.3 5.65 16.6" fill="#cc6666" fill-rule="evenodd" stroke="none"/>
      <path d="M18.45 15.9 Q17.9 12.65 16.2 13.15 L16.05 13.4 16.05 14.4 14.0 15.55 Q14.05 16.65 14.4 17.05 L14.9 17.3 14.0 17.55 11.7 19.1 11.25 18.95 8.2 20.8 8.7 20.2 Q7.7 21.2 6.65 21.15 L3.2 21.85 Q5.15 20.55 7.15 19.85 8.1 19.5 8.8 18.0 L8.6 17.35 8.8 16.5 9.05 16.3 9.1 16.2 9.65 15.6 12.6 15.4 12.65 14.15 13.4 12.3 Q14.15 12.3 14.85 11.8 L16.55 12.55 Q16.8 12.6 17.05 11.85 L17.65 11.35 Q18.1 11.45 18.5 10.95 19.05 11.75 19.4 13.25 19.65 14.5 20.3 14.8 L18.45 15.9" fill="#ffcc99" fill-rule="evenodd" stroke="none"/>
      <path d="M2.8 21.95 L0.7 22.4 2.65 19.6 2.95 19.85 Q4.1 19.85 5.3 17.85 L5.45 17.8 Q5.9 17.5 6.05 16.7 L7.2 17.45 4.1 19.7 3.95 20.2 Q3.5 21.65 2.8 21.95 M8.55 11.7 L10.0 9.75 12.75 9.45 12.05 9.95 Q10.3 11.35 8.55 11.7" fill="#ffe7ce" fill-rule="evenodd" stroke="none"/>
      <path d="M7.75 15.75 L8.1 14.9 9.8 14.9 7.75 15.85 7.75 15.75" fill="#339900" fill-rule="evenodd" stroke="none"/>
      <path d="M9.1 16.2 L9.05 16.3 9.05 16.25 9.1 16.2" fill="#ffe0c1" fill-rule="evenodd" stroke="none"/>
      <path d="M17.1 16.65 L17.5 15.8 14.55 16.5 14.45 15.7 15.15 15.35 Q16.45 15.85 17.1 13.75 L17.55 14.15 Q18.1 14.6 18.15 15.9 L17.1 16.7 17.1 16.65" fill="#cccc99" fill-rule="evenodd" stroke="none"/>
    </g>
    <g id="shape7" transform="matrix(1.0, 0.0, 0.0, 1.0, 0.0, 0.0)">
      <path d="M13.05 3.2 L14.4 4.8 14.85 6.4 14.85 7.7 14.0 8.6 12.75 8.65 12.6 9.45 12.15 11.05 11.75 12.0 10.6 13.35 8.4 14.9 6.6 15.3 Q4.65 15.45 3.15 14.3 1.8 13.2 1.15 11.5 0.6 9.95 0.85 8.35 0.85 6.5 1.8 4.8 2.65 3.2 4.25 2.75 5.7 2.5 6.8 3.25 L6.9 1.3 7.25 0.9 9.1 0.8 9.45 1.0 13.05 3.2" fill="#ffffff" fill-rule="evenodd" stroke="none"/>
      <path d="M13.05 3.2 L9.45 1.0 9.1 0.8 7.25 0.9 6.9 1.3 6.8 3.25 Q5.7 2.5 4.25 2.75 2.65 3.2 1.8 4.8 0.85 6.5 0.85 8.35 0.6 9.95 1.15 11.5 1.8 13.2 3.15 14.3 4.65 15.45 6.6 15.3 L8.4 14.9 10.6 13.35 11.75 12.0 12.15 11.05 12.6 9.45 12.75 8.65 14.0 8.6 14.85 7.7 14.85 6.4 14.4 4.8 13.05 3.2 M13.3 9.4 Q13.3 10.4 12.9 11.45 12.3 12.9 11.2 14.0 8.5 16.7 4.8 16.0 3.1 15.55 2.05 14.4 -0.05 12.15 0.05 9.15 -0.1 7.6 0.4 6.05 0.9 4.45 2.1 3.25 L3.25 2.45 Q4.55 1.7 6.0 2.15 6.0 1.05 7.05 0.4 7.5 0.1 8.1 0.0 L9.3 0.1 Q10.95 0.9 12.7 2.0 15.25 3.6 15.7 6.6 L15.7 7.5 Q15.4 8.85 14.2 9.25 L13.35 9.35 13.3 9.4" fill="#000000" fill-rule="evenodd" stroke="none"/>
    </g>
    <g id="shape8" transform="matrix(1.0, 0.0, 0.0, 1.0, -0.1, -0.15)">
      <path d="M2.05 3.75 L1.2 4.3 Q0.7 4.3 0.4 3.65 0.1 3.0 0.1 2.15 0.2 1.3 0.6 0.7 1.0 0.15 1.45 0.15 1.95 0.2 2.2 0.75 2.55 1.45 2.5 2.25 2.45 3.15 2.05 3.75" fill="#000000" fill-rule="evenodd" stroke="none"/>
    </g>
    <g id="shape9" transform="matrix(1.0, 0.0, 0.0, 1.0, -0.1, -0.1)">
      <path d="M0.4 3.25 Q-0.05 2.9 0.2 2.25 0.35 1.6 0.8 1.0 1.45 0.4 2.1 0.2 L3.0 0.25 Q3.3 0.6 3.2 1.1 3.05 1.85 2.55 2.45 L1.35 3.3 0.4 3.25" fill="#000000" fill-rule="evenodd" stroke="none"/>
    </g>
    <g id="shape10" transform="matrix(1.0, 0.0, 0.0, 1.0, 0.0, 0.0)">
      <path d="M12.35 16.25 Q9.75 18.65 6.65 18.25 3.45 17.85 1.55 14.9 -0.35 12.0 0.1 8.25 0.55 4.45 3.1 2.0 5.65 -0.3 8.8 0.05 12.0 0.5 13.9 3.35 15.8 6.3 15.35 10.1 14.9 13.85 12.35 16.25" fill="#000000" fill-opacity="0.2" fill-rule="evenodd" stroke="none"/>
    </g>
    <g id="shape11" transform="matrix(1.0, 0.0, 0.0, 1.0, 2.2, 1.9)">
      <path d="M8.35 -0.6 L6.8 -0.25 5.2 0.25 Q2.4 1.2 0.7 2.9 -1.6 5.15 -1.05 8.1 -0.15 12.9 4.2 13.85 6.5 14.35 8.55 13.85 L8.85 13.85 Q13.9 15.65 18.1 14.8 21.85 14.05 23.65 11.4 L23.75 11.25 Q26.15 7.05 20.75 2.1 18.4 -0.1 14.45 -0.7 11.35 -1.15 8.35 -0.6 M5.35 -0.85 L6.55 -1.2 10.5 -1.85 14.6 -1.7 Q18.9 -1.0 21.45 1.35 26.5 6.0 25.35 10.1 L24.5 11.95 Q22.55 14.95 18.3 15.8 13.95 16.7 8.6 14.85 6.4 15.35 4.0 14.85 -1.05 13.8 -2.05 8.3 -2.7 4.85 0.0 2.2 2.0 0.2 5.35 -0.85 M1.1 6.1 L2.5 4.35 2.65 4.2 2.4 4.15 2.2 4.05 2.15 3.9 2.25 3.7 2.45 3.65 3.35 3.7 3.5 3.75 4.0 3.9 4.15 4.0 4.15 4.2 4.0 4.35 3.85 4.35 3.5 4.25 Q3.45 4.7 4.15 6.0 4.95 7.55 6.2 8.45 L7.9 9.55 7.95 9.55 9.5 10.2 9.45 10.25 9.25 10.3 7.95 10.1 Q6.4 11.0 5.35 11.3 L5.3 11.3 3.65 11.5 3.6 11.5 2.9 11.3 2.75 11.3 Q1.05 10.35 0.7 8.6 0.45 7.3 1.05 6.2 L1.1 6.1 M2.85 4.7 Q2.15 5.45 1.6 6.3 2.8 7.6 3.35 9.15 3.7 10.2 3.3 10.95 L3.7 11.0 5.2 10.8 7.4 9.85 5.9 8.85 Q4.55 7.85 3.7 6.25 L3.0 4.55 2.85 4.7 M1.35 6.75 Q1.0 7.55 1.2 8.5 1.5 9.95 2.8 10.75 3.2 10.15 2.9 9.3 2.4 7.95 1.35 6.75" fill="#000000" fill-rule="evenodd" stroke="none"/>
      <path d="M23.75 11.25 L23.65 11.4 Q21.85 14.05 18.1 14.8 13.9 15.65 8.85 13.85 L8.55 13.85 Q6.5 14.35 4.2 13.85 -0.15 12.9 -1.05 8.1 -1.6 5.15 0.7 2.9 2.4 1.2 5.2 0.25 L6.8 -0.25 8.35 -0.6 Q6.05 1.05 6.05 2.95 6.05 4.2 7.1 6.0 8.05 7.8 11.8 10.25 15.5 12.7 18.7 12.75 21.95 12.8 23.75 11.25 M1.1 6.1 L1.05 6.2 Q0.45 7.3 0.7 8.6 1.05 10.35 2.75 11.3 L2.9 11.3 3.6 11.5 3.65 11.5 5.3 11.3 5.35 11.3 Q6.4 11.0 7.95 10.1 L9.25 10.3 9.45 10.25 9.5 10.2 7.95 9.55 7.9 9.55 6.2 8.45 Q4.95 7.55 4.15 6.0 3.45 4.7 3.5 4.25 L3.85 4.35 4.0 4.35 4.15 4.2 4.15 4.0 4.0 3.9 3.5 3.75 3.35 3.7 2.45 3.65 2.25 3.7 2.15 3.9 2.2 4.05 2.4 4.15 2.65 4.2 2.5 4.35 1.1 6.1" fill="#f99108" fill-rule="evenodd" stroke="none"/>
      <path d="M8.35 -0.6 Q11.35 -1.15 14.45 -0.7 18.4 -0.1 20.75 2.1 26.15 7.05 23.75 11.25 21.95 12.8 18.7 12.75 15.5 12.7 11.8 10.25 8.05 7.8 7.1 6.0 6.05 4.2 6.05 2.95 6.05 1.05 8.35 -0.6" fill="#ffb409" fill-rule="evenodd" stroke="none"/>
      <path d="M2.85 4.7 L3.0 4.55 3.7 6.25 Q4.55 7.85 5.9 8.85 L7.4 9.85 5.2 10.8 3.7 11.0 3.3 10.95 Q3.7 10.2 3.35 9.15 2.8 7.6 1.6 6.3 2.15 5.45 2.85 4.7" fill="#990000" fill-rule="evenodd" stroke="none"/>
      <path d="M1.35 6.75 Q2.4 7.95 2.9 9.3 3.2 10.15 2.8 10.75 1.5 9.95 1.2 8.5 1.0 7.55 1.35 6.75" fill="#fe5fae" fill-rule="evenodd" stroke="none"/>
    </g>
    <g id="shape12" transform="matrix(1.0, 0.0, 0.0, 1.0, 0.0, 0.0)">
      <path d="M9.0 57.6 Q11.5 60.2 14.55 60.15 18.85 59.95 21.85 58.55 L21.85 58.6 Q24.55 57.05 26.5 54.7 L26.55 54.7 Q29.2 51.55 30.6 47.55 32.15 43.3 32.6 38.85 L32.6 38.8 Q33.0 34.4 32.5 30.0 L31.45 21.6 30.25 13.85 30.15 13.15 Q29.85 11.35 29.9 11.15 29.85 9.85 30.15 8.3 L30.2 7.95 30.45 7.95 30.45 8.15 30.85 12.65 Q35.15 11.65 36.05 8.4 36.9 5.05 33.35 3.0 L33.15 2.85 Q29.45 0.75 24.05 0.75 14.9 0.75 8.05 9.0 0.75 17.75 0.75 27.8 0.65 37.9 4.55 49.25 6.45 54.85 9.0 57.6 M31.8 1.35 L33.75 2.35 Q37.8 4.75 36.8 8.6 35.85 12.3 30.95 13.4 L31.0 13.75 32.2 21.5 33.25 29.9 Q33.8 34.4 33.35 38.9 32.85 43.5 31.3 47.8 29.8 51.95 27.1 55.2 25.05 57.65 22.2 59.25 L22.15 59.25 Q19.05 60.75 14.6 60.9 10.55 61.05 7.5 56.95 5.45 54.15 3.85 49.5 -0.05 38.0 0.0 27.8 -0.05 17.45 7.45 8.5 14.6 -0.05 24.05 0.0 28.5 -0.05 31.8 1.35 M6.55 18.15 L6.95 16.8 6.6 18.55 5.0 26.4 4.95 26.4 Q4.1 29.4 4.15 33.0 4.1 37.3 4.65 40.35 L5.15 42.55 7.95 49.45 Q9.7 53.85 11.3 55.1 12.25 55.8 14.1 56.1 L14.5 56.15 16.4 56.25 Q18.55 56.2 21.05 53.8 23.05 51.8 24.7 49.05 26.5 45.95 27.2 40.95 27.6 37.9 27.65 34.15 27.6 29.9 27.1 26.7 L26.35 20.85 27.85 26.55 Q28.4 29.8 28.4 34.15 L28.25 38.15 Q27.75 45.35 25.35 49.45 23.65 52.3 21.55 54.35 18.75 57.0 16.4 57.0 13.1 57.0 11.45 56.1 L10.85 55.7 Q9.1 54.45 7.25 49.75 L4.45 42.8 4.45 42.75 Q3.95 41.15 3.7 39.05 3.4 36.4 3.4 33.0 3.4 29.3 4.25 26.2 L6.55 18.15" fill="#000000" fill-rule="evenodd" stroke="none"/>
      <path d="M33.15 2.85 L33.4 3.4 33.5 3.8 33.45 4.25 33.35 4.6 Q32.75 5.5 31.45 5.8 29.45 5.7 28.65 7.3 27.75 9.05 28.25 10.95 L29.05 14.3 29.65 17.55 30.4 21.4 30.7 23.45 30.9 25.5 31.1 27.65 31.15 29.85 31.25 32.15 31.25 34.45 31.2 36.65 31.1 38.65 30.7 42.05 30.2 44.45 29.5 46.55 28.55 48.4 26.6 51.35 25.05 53.25 23.95 54.75 Q22.8 56.15 21.1 57.05 L19.35 58.05 Q18.05 58.7 16.4 58.75 L12.45 58.55 9.0 57.6 Q6.45 54.85 4.55 49.25 0.65 37.9 0.75 27.8 0.75 17.75 8.05 9.0 14.9 0.75 24.05 0.75 29.45 0.75 33.15 2.85 M6.6 18.55 L6.95 16.8 6.55 18.15 6.5 18.1 6.1 18.1 Q4.0 22.45 3.5 24.6 2.95 26.75 2.8 32.8 2.6 38.8 3.0 40.15 L5.15 45.75 8.35 53.95 Q9.25 55.65 11.45 56.1 13.1 57.0 16.4 57.0 18.75 57.0 21.55 54.35 23.65 52.3 25.35 49.45 27.75 45.35 28.25 38.15 L28.4 34.15 Q28.4 29.8 27.85 26.55 L26.35 20.85 27.1 26.7 Q27.6 29.9 27.65 34.15 27.6 37.9 27.2 40.95 L26.5 42.5 Q25.75 44.05 24.0 44.55 L21.6 44.75 Q20.15 44.75 18.95 46.3 17.75 47.85 16.7 47.85 15.5 47.85 14.55 46.75 13.6 45.6 13.05 45.6 L11.9 46.25 Q11.2 46.25 9.4 45.2 7.55 44.05 7.25 43.35 L6.1 41.9 5.7 39.6 Q5.0 35.05 5.0 33.1 5.0 26.25 5.8 23.5 6.6 20.7 6.6 19.0 L6.6 18.55" fill="#f8c592" fill-rule="evenodd" stroke="none"/>
      <path d="M33.15 2.85 L33.35 3.0 Q36.9 5.05 36.05 8.4 35.15 11.65 30.85 12.65 L30.45 8.15 30.45 7.95 30.2 7.95 30.15 8.3 Q29.85 9.85 29.9 11.15 29.85 11.35 30.15 13.15 L30.25 13.85 31.45 21.6 32.5 30.0 Q33.0 34.4 32.6 38.8 L32.6 38.85 Q32.15 43.3 30.6 47.55 29.2 51.55 26.55 54.7 L26.5 54.7 Q24.55 57.05 21.85 58.6 L21.85 58.55 Q18.85 59.95 14.55 60.15 11.5 60.2 9.0 57.6 L12.45 58.55 16.4 58.75 Q18.05 58.7 19.35 58.05 L21.1 57.05 Q22.8 56.15 23.95 54.75 L25.05 53.25 26.6 51.35 28.55 48.4 29.5 46.55 30.2 44.45 30.7 42.05 31.1 38.65 31.2 36.65 31.25 34.45 31.25 32.15 31.15 29.85 31.1 27.65 30.9 25.5 30.7 23.45 30.4 21.4 29.65 17.55 29.05 14.3 28.25 10.95 Q27.75 9.05 28.65 7.3 29.45 5.7 31.45 5.8 32.75 5.5 33.35 4.6 L33.45 4.25 33.5 3.8 33.4 3.4 33.15 2.85 M6.6 18.55 L6.6 19.0 Q6.6 20.7 5.8 23.5 5.0 26.25 5.0 33.1 5.0 35.05 5.7 39.6 L6.1 41.9 7.25 43.35 Q7.55 44.05 9.4 45.2 11.2 46.25 11.9 46.25 L13.05 45.6 Q13.6 45.6 14.55 46.75 15.5 47.85 16.7 47.85 17.75 47.85 18.95 46.3 20.15 44.75 21.6 44.75 L24.0 44.55 Q25.75 44.05 26.5 42.5 L27.2 40.95 Q26.5 45.95 24.7 49.05 23.05 51.8 21.05 53.8 18.55 56.2 16.4 56.25 L14.5 56.15 14.1 56.1 Q12.25 55.8 11.3 55.1 9.7 53.85 7.95 49.45 L5.15 42.55 4.65 40.35 Q4.1 37.3 4.15 33.0 4.1 29.4 4.95 26.4 L5.0 26.4 6.6 18.55 M11.45 56.1 Q9.25 55.65 8.35 53.95 L5.15 45.75 3.0 40.15 Q2.6 38.8 2.8 32.8 2.95 26.75 3.5 24.6 4.0 22.45 6.1 18.1 L6.5 18.1 6.55 18.15 4.25 26.2 Q3.4 29.3 3.4 33.0 3.4 36.4 3.7 39.05 3.95 41.15 4.45 42.75 L4.45 42.8 7.25 49.75 Q9.1 54.45 10.85 55.7 L11.45 56.1" fill="#cc8f65" fill-rule="evenodd" stroke="none"/>
    </g>
    <g id="shape13" transform="matrix(1.0, 0.0, 0.0, 1.0, 0.0, 0.0)">
      <path d="M42.05 55.5 L42.4 56.3 41.0 54.6 Q29.05 31.05 20.9 22.1 14.6 15.2 5.85 7.7 -0.05 2.6 0.0 0.95 L0.15 0.6 Q0.55 0.0 2.0 0.0 4.3 0.05 9.45 2.2 16.5 5.1 29.1 14.55 42.85 24.85 54.55 41.4 L55.4 43.45 54.75 42.55 Q41.8 25.3 28.5 15.35 16.0 6.0 9.05 3.1 4.2 1.05 2.0 1.0 L1.05 1.15 Q1.55 2.65 6.5 6.95 15.3 14.5 21.65 21.45 L21.65 21.4 Q30.0 30.55 41.55 54.45 L42.05 55.5" fill="#000000" fill-rule="evenodd" stroke="none"/>
      <path d="M42.05 55.5 L41.55 54.45 Q30.0 30.55 21.65 21.4 L21.65 21.45 Q15.3 14.5 6.5 6.95 1.55 2.65 1.05 1.15 L2.0 1.0 Q4.2 1.05 9.05 3.1 16.0 6.0 28.5 15.35 41.8 25.3 54.75 42.55 L42.05 55.5" fill="#009900" fill-rule="evenodd" stroke="none"/>
    </g>
  </defs>
</svg>
