<?xml version="1.0" encoding="UTF-8" standalone="no"?>
<svg xmlns:ffdec="https://www.free-decompiler.com/flash" xmlns:xlink="http://www.w3.org/1999/xlink" ffdec:objectType="frame" height="251.2px" width="162.6px" xmlns="http://www.w3.org/2000/svg">
  <g transform="matrix(1.0, 0.0, 0.0, 1.0, -295.9, -22.4)">
    <use ffdec:characterId="209" height="41.9" transform="matrix(1.0, 0.0, 0.0, 1.0, 363.25, 224.7)" width="37.05" xlink:href="#shape0"/>
    <use ffdec:characterId="226" height="29.95" transform="matrix(1.0, 0.0, 0.0, 1.0, 338.45, 243.6)" width="41.45" xlink:href="#shape1"/>
    <use ffdec:characterId="227" height="51.3" transform="matrix(1.0, 0.0, 0.0, 1.0, 339.55, 118.9)" width="43.35" xlink:href="#shape2"/>
    <use ffdec:characterId="228" height="16.5" transform="matrix(1.0, 0.0, 0.0, 1.0, 375.4, 184.7)" width="54.05" xlink:href="#shape3"/>
    <use ffdec:characterId="229" height="95.9" transform="matrix(0.9055, 0.4244, -0.4244, 0.9055, 365.3, 152.45)" width="58.25" xlink:href="#shape4"/>
    <use ffdec:characterId="230" height="63.85" transform="matrix(1.0, 0.0, 0.0, 1.0, 333.0, 186.1)" width="66.25" xlink:href="#shape5"/>
    <use ffdec:characterId="191" height="24.35" transform="matrix(0.8922, 0.097, 0.0, 0.9363, 377.05, 203.7)" width="23.2" xlink:href="#shape6"/>
    <use ffdec:characterId="231" height="14.45" transform="matrix(1.0, 0.0, 0.0, 1.0, 402.75, 195.45)" width="15.8" xlink:href="#shape7"/>
    <use ffdec:characterId="205" height="3.35" transform="matrix(0.692, -0.7219, 0.7219, 0.692, 376.5, 176.8)" width="7.45" xlink:href="#shape8"/>
    <use ffdec:characterId="205" height="3.35" transform="matrix(-0.8589, -0.1279, -0.1279, 0.8589, 390.75, 172.1)" width="7.45" xlink:href="#shape8"/>
    <use ffdec:characterId="194" height="18.3" transform="matrix(0.7251, -0.2703, 0.2988, 0.8017, 377.3, 180.3)" width="15.45" xlink:href="#shape9"/>
    <use ffdec:characterId="232" height="17.05" transform="matrix(0.8692, -0.4945, 0.4945, 0.8692, 376.1169, 178.6027)" width="25.95" xlink:href="#shape10"/>
    <use ffdec:characterId="233" height="40.2" transform="matrix(1.0, 0.0, 0.0, 1.0, 402.85, 155.45)" width="40.45" xlink:href="#shape11"/>
    <use ffdec:characterId="234" height="21.7" transform="matrix(1.0, 0.0, 0.0, 1.0, 361.0, 189.85)" width="65.75" xlink:href="#shape12"/>
  </g>
  <defs>
    <g id="shape0" transform="matrix(1.0, 0.0, 0.0, 1.0, 0.0, 0.0)">
      <path d="M24.25 23.9 L20.95 25.25 Q16.45 26.9 11.7 27.65 L10.1 27.65 Q10.8 28.15 13.25 28.05 18.75 27.2 22.4 25.35 23.95 24.5 25.2 23.5 L24.25 23.9 M23.9 14.05 Q25.5 18.15 26.4 22.35 L26.6 23.35 26.7 23.65 30.85 24.75 30.8 24.75 34.1 25.85 33.65 26.4 32.8 27.4 33.45 26.35 31.0 28.4 29.45 29.4 Q26.6 30.95 23.15 31.75 20.9 32.5 18.65 32.85 L18.5 32.85 18.25 32.9 Q14.6 32.4 10.95 31.1 L7.75 29.8 7.45 29.55 Q6.55 26.25 5.95 22.7 7.85 22.55 11.15 21.45 L14.65 20.15 Q18.5 18.6 21.1 16.75 L23.9 14.05" fill="#ffb409" fill-rule="evenodd" stroke="none"/>
      <path d="M24.6 13.1 Q26.55 17.95 27.55 22.85 L31.1 23.8 34.0 24.7 34.6 24.95 Q35.7 25.4 36.05 25.8 L36.15 25.9 Q37.0 26.8 37.05 30.5 L37.05 31.7 36.6 35.05 36.55 35.05 Q35.75 37.1 31.15 39.05 26.75 40.95 22.4 41.7 17.9 42.45 12.95 40.55 7.95 38.65 4.65 36.05 1.1 33.35 0.7 31.15 L0.7 31.05 Q-0.05 25.8 0.0 20.6 0.05 14.65 0.9 8.7 L0.9 8.65 0.95 8.65 Q2.9 0.25 10.3 0.0 18.7 -0.4 23.9 11.45 L24.6 13.1 M24.25 23.9 L25.2 23.5 Q23.95 24.5 22.4 25.35 18.75 27.2 13.25 28.05 10.8 28.15 10.1 27.65 L11.7 27.65 Q16.45 26.9 20.95 25.25 L24.25 23.9 M34.1 25.85 L30.8 24.75 30.85 24.75 26.7 23.65 26.6 23.35 26.4 22.35 Q25.5 18.15 23.9 14.05 L23.0 11.85 Q18.1 0.7 10.35 1.0 3.7 1.25 1.9 8.9 L1.9 8.85 Q1.05 14.75 1.0 20.6 0.95 25.7 1.7 30.9 L1.7 30.95 Q2.1 32.85 5.25 35.25 8.45 37.75 13.3 39.6 18.0 41.35 22.25 40.7 26.45 39.95 30.75 38.15 34.85 36.4 35.65 34.65 35.95 33.85 36.05 31.8 L36.05 30.5 Q36.0 27.55 35.5 26.7 L35.35 26.5 35.0 26.25 34.1 25.85 M5.95 22.7 Q6.55 26.25 7.45 29.55 L7.75 29.8 10.95 31.1 Q14.6 32.4 18.25 32.9 L18.5 32.85 18.65 32.85 Q20.9 32.5 23.15 31.75 26.6 30.95 29.45 29.4 L31.0 28.4 33.45 26.35 32.8 27.4 32.3 27.95 31.4 28.8 29.55 30.1 Q27.1 31.5 23.4 32.45 L19.0 33.55 19.0 33.6 18.85 36.05 Q18.75 38.15 17.85 40.15 L18.1 37.9 Q18.45 35.8 18.1 33.65 14.4 33.1 10.7 31.8 L8.3 30.9 6.8 30.0 6.75 29.85 Q5.8 26.4 5.2 22.7 L5.2 22.55 4.8 19.95 Q3.4 9.35 6.3 6.5 4.35 10.65 5.55 19.85 L5.95 22.7" fill="#000000" fill-rule="evenodd" stroke="none"/>
      <path d="M23.9 14.05 L21.1 16.75 Q18.5 18.6 14.65 20.15 L11.15 21.45 Q7.85 22.55 5.95 22.7 L5.55 19.85 Q4.35 10.65 6.3 6.5 3.4 9.35 4.8 19.95 L5.2 22.55 5.2 22.7 Q5.8 26.4 6.75 29.85 L6.8 30.0 8.3 30.9 10.7 31.8 Q14.4 33.1 18.1 33.65 18.45 35.8 18.1 37.9 L17.85 40.15 Q18.75 38.15 18.85 36.05 L19.0 33.6 19.0 33.55 23.4 32.45 Q27.1 31.5 29.55 30.1 L31.4 28.8 32.3 27.95 32.8 27.4 33.65 26.4 34.1 25.85 35.0 26.25 35.35 26.5 35.5 26.7 Q36.0 27.55 36.05 30.5 L36.05 31.8 Q35.95 33.85 35.65 34.65 34.85 36.4 30.75 38.15 26.45 39.95 22.25 40.7 18.0 41.35 13.3 39.6 8.45 37.75 5.25 35.25 2.1 32.85 1.7 30.95 L1.7 30.9 Q0.95 25.7 1.0 20.6 1.05 14.75 1.9 8.85 L1.9 8.9 Q3.7 1.25 10.35 1.0 18.1 0.7 23.0 11.85 L23.9 14.05" fill="#f99108" fill-rule="evenodd" stroke="none"/>
    </g>
    <g id="shape1" transform="matrix(1.0, 0.0, 0.0, 1.0, 0.0, 0.0)">
      <path d="M41.0 17.8 Q41.7 20.7 41.25 22.65 40.6 25.45 39.35 26.35 L34.4 28.1 Q28.15 29.95 23.0 29.95 L13.1 29.8 Q8.75 29.55 8.05 28.6 7.65 28.2 7.2 25.25 L6.55 22.65 5.4 20.55 Q2.65 16.75 1.25 13.25 L1.0 12.6 Q-0.75 7.85 0.55 4.85 1.85 1.8 4.25 0.7 L4.35 0.7 4.7 0.6 4.7 0.55 6.0 0.2 6.05 0.2 Q9.7 -1.0 21.4 4.35 31.75 9.1 36.15 12.35 L37.05 13.1 37.95 13.9 40.1 15.95 Q40.75 16.8 41.0 17.8 M3.4 8.45 L3.55 8.9 4.15 10.0 5.65 11.85 8.25 14.05 Q9.95 15.45 10.8 17.55 L11.4 18.9 11.45 19.0 11.5 19.15 11.9 19.15 17.55 19.55 23.25 19.9 28.85 19.9 Q31.75 19.55 34.45 18.65 L37.65 17.4 37.8 17.3 37.0 17.95 36.3 18.35 Q34.95 19.15 33.45 19.55 L27.85 20.65 22.15 20.55 16.3 20.3 11.9 19.9 11.65 19.9 11.65 20.3 11.55 20.95 11.4 21.75 Q11.05 24.1 9.6 26.15 L10.2 24.25 Q10.95 22.1 10.9 19.95 L10.85 19.75 Q10.3 17.6 9.25 16.2 L6.7 13.5 4.55 11.4 Q3.8 10.55 3.35 9.45 L3.1 8.75 2.95 6.9 3.1 5.55 3.4 8.45 M38.35 15.6 L36.4 13.85 34.95 12.75 Q30.55 9.65 21.0 5.25 10.0 0.2 6.5 1.1 L6.4 1.15 6.3 1.15 5.95 1.25 4.7 1.6 Q2.65 2.6 1.45 5.25 0.25 8.15 2.2 12.9 L2.2 12.85 2.45 13.45 Q3.75 16.55 6.2 19.95 L7.5 22.35 8.2 25.1 Q8.55 27.6 8.8 27.95 9.45 28.55 13.15 28.8 L23.0 28.95 Q28.05 28.95 33.1 27.5 L38.9 25.55 Q39.65 25.0 40.2 23.45 40.7 21.95 40.5 20.1 L40.1 17.65 38.35 15.6" fill="#000000" fill-rule="evenodd" stroke="none"/>
      <path d="M37.65 17.4 L34.45 18.65 Q31.75 19.55 28.85 19.9 L23.25 19.9 17.55 19.55 11.9 19.15 11.5 19.15 11.45 19.0 11.4 18.9 10.8 17.55 Q9.95 15.45 8.25 14.05 L5.65 11.85 4.15 10.0 3.55 8.9 3.4 8.45 4.7 9.15 5.3 9.4 Q8.7 11.05 11.45 11.65 L18.6 13.15 24.85 13.65 33.65 13.0 34.95 12.75 36.4 13.85 38.35 15.6 Q38.3 16.75 37.65 17.4" fill="#f4ac09" fill-rule="evenodd" stroke="none"/>
      <path d="M3.4 8.45 L3.1 5.55 2.95 6.9 3.1 8.75 3.35 9.45 Q3.8 10.55 4.55 11.4 L6.7 13.5 9.25 16.2 Q10.3 17.6 10.85 19.75 L10.9 19.95 Q10.95 22.1 10.2 24.25 L9.6 26.15 Q11.05 24.1 11.4 21.75 L11.55 20.95 11.65 20.3 11.65 19.9 11.9 19.9 16.3 20.3 22.15 20.55 27.85 20.65 33.45 19.55 Q34.95 19.15 36.3 18.35 L37.0 17.95 37.8 17.3 37.65 17.4 Q38.3 16.75 38.35 15.6 L40.1 17.65 40.5 20.1 Q40.7 21.95 40.2 23.45 39.65 25.0 38.9 25.55 L33.1 27.5 Q28.05 28.95 23.0 28.95 L13.15 28.8 Q9.45 28.55 8.8 27.95 8.55 27.6 8.2 25.1 L7.5 22.35 6.2 19.95 Q3.75 16.55 2.45 13.45 L2.2 12.85 2.2 12.9 Q0.25 8.15 1.45 5.25 2.65 2.6 4.7 1.6 L5.95 1.25 6.3 1.15 6.4 1.15 6.5 1.1 Q10.0 0.2 21.0 5.25 30.55 9.65 34.95 12.75 L33.65 13.0 24.85 13.65 18.6 13.15 11.45 11.65 Q8.7 11.05 5.3 9.4 L4.7 9.15 3.4 8.45" fill="#f99108" fill-rule="evenodd" stroke="none"/>
    </g>
    <g id="shape2" transform="matrix(1.0, 0.0, 0.0, 1.0, 0.0, 0.0)">
      <path d="M40.75 8.8 L40.45 10.45 39.85 12.05 38.95 13.65 37.9 15.1 36.75 16.25 35.45 17.1 34.1 17.9 33.3 18.15 33.9 19.65 34.4 21.1 35.0 22.5 35.3 23.2 35.8 24.6 36.4 26.0 37.0 27.4 37.65 28.75 38.3 30.05 38.95 31.45 39.65 32.75 40.3 34.0 41.05 35.3 41.75 36.5 42.45 37.7 43.15 38.9 43.35 39.85 43.1 41.05 42.5 42.25 41.65 43.4 40.55 44.55 39.15 45.6 37.5 46.75 35.7 47.85 34.65 48.35 34.1 48.65 33.5 48.9 32.6 49.3 31.65 49.7 29.9 50.35 28.3 50.85 26.75 51.1 25.4 51.3 24.05 51.25 21.8 50.7 21.65 50.6 21.4 49.7 20.95 48.25 20.55 46.75 20.35 45.95 19.85 44.45 19.45 43.05 18.95 41.55 18.45 40.1 17.9 38.6 17.4 37.2 16.85 35.8 16.3 34.4 15.7 32.95 15.1 31.6 14.5 30.2 13.9 28.8 13.3 27.55 13.2 27.4 13.0 27.5 12.95 27.55 Q11.3 28.3 9.6 28.65 L5.25 28.55 4.55 28.3 3.6 27.85 2.85 27.3 1.55 26.0 0.95 25.0 0.8 24.7 0.15 22.9 0.0 21.7 0.05 20.1 0.3 18.7 0.8 17.4 1.5 16.0 1.95 15.3 3.3 14.0 4.85 13.0 6.55 12.1 7.5 11.8 8.5 11.5 8.65 9.85 8.9 8.25 9.35 6.8 9.7 6.15 10.6 4.9 11.6 3.7 12.9 2.6 14.45 1.65 16.2 0.8 18.0 0.3 19.7 0.0 21.3 0.0 22.9 0.25 24.5 0.75 25.95 1.55 27.4 2.5 28.05 3.05 29.1 2.35 30.4 1.6 31.65 1.1 32.75 0.7 34.8 0.45 Q35.9 0.65 36.9 1.1 L38.85 2.3 39.25 2.8 39.3 2.9 40.05 4.2 40.5 5.6 40.75 7.15 40.75 8.8 M23.95 46.9 L24.2 46.6 25.1 45.65 26.05 44.75 26.55 44.4 27.6 43.55 28.75 42.85 29.95 42.15 Q30.95 41.7 31.95 41.4 L33.35 40.9 34.85 40.45 35.55 40.25 36.35 40.15 38.0 39.95 41.4 39.5 42.25 39.4 41.55 38.2 40.5 36.4 39.75 35.15 39.05 33.85 38.7 33.2 38.05 31.9 37.4 30.6 36.75 29.25 35.8 27.25 35.2 25.9 34.65 24.45 34.4 23.75 34.15 23.05 33.55 21.65 32.5 18.75 31.9 16.95 31.2 14.8 31.1 14.55 30.85 13.7 30.6 13.75 26.2 13.65 25.9 13.6 25.6 14.05 Q24.3 15.7 22.45 17.0 20.45 18.4 18.15 18.65 L16.1 18.85 16.1 18.95 Q15.8 20.6 14.9 21.85 L14.5 22.45 14.3 22.7 13.9 23.15 12.75 24.25 13.35 25.35 13.85 26.45 14.25 27.25 14.9 28.6 15.2 29.25 15.5 29.95 16.05 31.35 16.65 32.65 17.25 34.05 18.05 36.15 18.55 37.55 19.1 39.05 19.4 39.75 19.6 40.45 20.05 41.9 21.0 44.8 21.4 46.25 21.8 47.75 22.2 49.15 22.95 48.1 23.95 46.9 M41.95 41.2 L42.4 40.15 41.55 40.25 40.65 40.3 38.95 40.45 37.3 40.7 35.7 41.0 34.25 41.45 32.8 41.85 32.15 42.15 31.45 42.35 30.85 42.65 29.6 43.3 28.45 44.0 27.4 44.75 Q26.8 45.1 26.3 45.5 L25.4 46.4 24.9 46.85 24.5 47.35 24.2 47.75 23.7 48.35 23.0 49.45 22.6 49.95 23.65 50.2 24.7 50.25 26.5 50.2 27.8 50.0 29.2 49.55 30.7 49.05 32.3 48.35 33.1 47.95 34.1 47.55 35.0 47.05 36.65 46.05 38.15 45.15 39.4 44.15 40.5 43.2 41.3 42.2 41.95 41.2 M39.2 4.8 L39.15 4.65 38.45 3.55 37.3 2.45 Q36.55 1.9 35.7 1.75 L33.95 1.5 31.45 2.3 30.25 2.9 28.65 3.85 28.85 4.95 27.85 5.05 27.45 4.1 26.3 2.95 24.95 2.05 23.55 1.45 22.05 1.05 20.55 1.0 18.15 1.25 16.55 1.75 15.7 2.05 14.2 2.95 12.9 3.95 11.8 5.0 Q11.25 5.5 10.85 6.15 L9.95 8.15 9.55 10.35 9.45 11.2 9.35 12.15 9.2 13.3 9.15 14.15 Q8.95 14.85 8.6 13.0 L8.55 12.5 6.85 13.05 5.3 13.8 3.95 14.75 2.85 15.95 2.0 17.1 1.45 18.35 Q1.05 19.25 1.0 20.2 L1.0 21.6 1.15 22.8 1.4 23.7 1.75 24.45 2.0 24.95 2.9 26.0 4.25 27.1 5.3 27.55 5.95 27.65 8.75 27.7 Q10.8 27.5 12.55 26.65 L12.6 26.65 12.8 26.55 12.8 26.5 11.9 24.75 7.5 25.15 6.45 25.0 Q10.25 24.35 12.2 23.05 13.4 22.3 14.1 21.15 14.9 19.9 15.05 18.5 L13.95 18.1 12.95 17.7 14.35 17.7 15.85 17.65 16.15 17.7 Q18.25 17.95 20.35 17.1 22.4 16.2 23.85 14.55 L25.25 12.9 25.85 12.1 27.15 10.05 26.45 12.7 26.75 12.75 Q29.25 13.5 31.35 12.15 L32.7 11.25 33.3 10.9 32.5 12.35 32.15 12.85 31.9 13.1 32.0 13.75 32.1 14.25 32.7 16.25 33.0 17.2 34.3 16.6 35.5 15.9 36.65 15.0 37.65 13.85 38.6 12.4 39.25 11.0 39.75 8.75 39.75 7.25 39.55 5.85 39.2 4.8" fill="#000000" fill-rule="evenodd" stroke="none"/>
      <path d="M31.1 14.55 L31.2 14.8 31.9 16.95 32.5 18.75 33.55 21.65 34.15 23.05 34.4 23.75 34.65 24.45 35.2 25.9 35.8 27.25 36.75 29.25 37.4 30.6 38.05 31.9 38.7 33.2 39.05 33.85 39.75 35.15 40.5 36.4 41.55 38.2 42.25 39.4 41.4 39.5 38.0 39.95 36.35 40.15 35.55 40.25 34.85 40.45 33.35 40.9 31.95 41.4 Q30.95 41.7 29.95 42.15 L28.75 42.85 27.6 43.55 26.55 44.4 26.05 44.75 25.1 45.65 24.2 46.6 23.95 46.9 Q22.45 42.5 19.25 34.65 L15.25 25.0 17.0 22.8 17.9 21.45 18.75 21.5 Q21.15 21.5 23.7 19.85 25.65 18.5 26.6 16.7 L26.85 16.75 Q28.5 16.75 31.1 14.55 M1.75 24.45 L1.4 23.7 1.15 22.8 1.0 21.6 1.0 20.2 Q1.05 19.25 1.45 18.35 L2.0 17.1 2.85 15.95 3.95 14.75 5.3 13.8 6.85 13.05 8.55 12.5 8.6 13.0 Q8.95 14.85 9.15 14.15 L9.2 13.3 9.35 12.15 9.45 11.2 9.55 10.35 9.95 8.15 10.85 6.15 Q11.25 5.5 11.8 5.0 L12.9 3.95 14.2 2.95 15.7 2.05 16.55 1.75 18.15 1.25 20.55 1.0 22.05 1.05 23.55 1.45 24.95 2.05 26.3 2.95 27.45 4.1 27.85 5.05 28.85 4.95 28.65 3.85 30.25 2.9 31.45 2.3 33.95 1.5 35.7 1.75 Q36.55 1.9 37.3 2.45 L38.45 3.55 39.15 4.65 39.2 4.8 Q38.85 7.95 36.0 9.0 L31.25 9.5 Q30.25 9.5 28.6 8.9 L27.6 8.5 27.4 7.3 Q27.2 6.25 26.5 6.0 26.15 8.2 22.15 10.4 18.25 12.5 15.0 12.5 L11.45 12.0 11.0 13.6 11.5 14.75 12.25 16.0 Q10.95 17.55 9.05 18.55 7.05 19.65 5.0 19.75 4.55 19.75 3.1 22.6 L1.75 24.45" fill="#ffffff" fill-rule="evenodd" stroke="none"/>
      <path d="M31.1 14.55 Q28.5 16.75 26.85 16.75 L26.6 16.7 Q25.65 18.5 23.7 19.85 21.15 21.5 18.75 21.5 L17.9 21.45 17.0 22.8 15.25 25.0 19.25 34.65 Q22.45 42.5 23.95 46.9 L22.95 48.1 22.2 49.15 21.8 47.75 21.4 46.25 21.0 44.8 20.05 41.9 19.6 40.45 19.4 39.75 19.1 39.05 18.55 37.55 18.05 36.15 17.25 34.05 16.65 32.65 16.05 31.35 15.5 29.95 15.2 29.25 14.9 28.6 14.25 27.25 13.85 26.45 13.35 25.35 12.75 24.25 13.9 23.15 14.3 22.7 14.5 22.45 14.9 21.85 Q15.8 20.6 16.1 18.95 L16.1 18.85 18.15 18.65 Q20.45 18.4 22.45 17.0 24.3 15.7 25.6 14.05 L25.9 13.6 26.2 13.65 30.6 13.75 30.85 13.7 31.1 14.55 M41.95 41.2 L41.3 42.2 40.5 43.2 39.4 44.15 38.15 45.15 36.65 46.05 35.0 47.05 34.1 47.55 33.1 47.95 32.3 48.35 30.7 49.05 29.2 49.55 27.8 50.0 26.5 50.2 24.7 50.25 23.65 50.2 22.6 49.95 23.0 49.45 23.7 48.35 24.2 47.75 24.5 47.35 24.9 46.85 25.4 46.4 26.3 45.5 Q26.8 45.1 27.4 44.75 L28.45 44.0 29.6 43.3 30.85 42.65 31.45 42.35 32.15 42.15 32.8 41.85 34.25 41.45 35.7 41.0 37.3 40.7 38.95 40.45 40.65 40.3 41.55 40.25 42.4 40.15 41.95 41.2 M1.75 24.45 L3.1 22.6 Q4.55 19.75 5.0 19.75 7.05 19.65 9.05 18.55 10.95 17.55 12.25 16.0 L11.5 14.75 11.0 13.6 11.45 12.0 15.0 12.5 Q18.25 12.5 22.15 10.4 26.15 8.2 26.5 6.0 27.2 6.25 27.4 7.3 L27.6 8.5 28.6 8.9 Q30.25 9.5 31.25 9.5 L36.0 9.0 Q38.85 7.95 39.2 4.8 L39.55 5.85 39.75 7.25 39.75 8.75 39.25 11.0 38.6 12.4 37.65 13.85 36.65 15.0 35.5 15.9 34.3 16.6 33.0 17.2 32.7 16.25 32.1 14.25 32.0 13.75 31.9 13.1 32.15 12.85 32.5 12.35 33.3 10.9 32.7 11.25 31.35 12.15 Q29.25 13.5 26.75 12.75 L26.45 12.7 27.15 10.05 25.85 12.1 25.25 12.9 23.85 14.55 Q22.4 16.2 20.35 17.1 18.25 17.95 16.15 17.7 L15.85 17.65 14.35 17.7 12.95 17.7 13.95 18.1 15.05 18.5 Q14.9 19.9 14.1 21.15 13.4 22.3 12.2 23.05 10.25 24.35 6.45 25.0 L7.5 25.15 11.9 24.75 12.8 26.5 12.8 26.55 12.6 26.65 12.55 26.65 Q10.8 27.5 8.75 27.7 L5.95 27.65 5.3 27.55 4.25 27.1 2.9 26.0 2.0 24.95 1.75 24.45" fill="#cccccc" fill-rule="evenodd" stroke="none"/>
    </g>
    <g id="shape3" transform="matrix(1.0, 0.0, 0.0, 1.0, 0.5, 0.5)">
      <path d="M53.05 0.2 Q53.35 1.4 49.85 4.0 44.75 7.8 34.5 10.35 24.45 12.85 11.2 14.45 L0.0 15.5 9.7 2.5 16.7 3.0 32.2 2.2 46.8 0.35 53.05 0.2" fill="#009900" fill-rule="evenodd" stroke="none"/>
      <path d="M53.05 0.2 Q53.35 1.4 49.85 4.0 44.75 7.8 34.5 10.35 24.45 12.85 11.2 14.45 L0.0 15.5 9.7 2.5 16.7 3.0 32.2 2.2 46.8 0.35 53.05 0.2 Z" fill="none" stroke="#000000" stroke-linecap="round" stroke-linejoin="round" stroke-width="1.0"/>
    </g>
    <g id="shape4" transform="matrix(1.0, 0.0, 0.0, 1.0, 0.0, 0.0)">
      <path d="M57.0 70.1 L57.15 69.2 57.25 66.25 Q57.3 60.55 56.45 54.85 L55.9 52.1 Q53.7 43.05 49.2 34.9 L47.9 32.4 46.95 30.75 42.0 24.95 32.55 15.9 27.15 18.85 Q31.05 27.15 29.7 36.1 28.3 45.8 24.45 55.0 20.75 63.75 19.35 73.3 18.25 80.7 22.7 85.45 24.2 87.05 26.35 88.35 30.5 90.85 35.4 90.2 44.85 88.9 51.3 81.5 55.65 76.45 57.0 70.1 M21.95 85.35 Q17.8 80.55 18.85 73.25 20.25 63.65 24.0 54.8 27.8 45.7 29.2 36.05 30.55 27.1 26.6 18.8 L26.6 18.65 26.7 18.5 32.5 15.35 32.65 15.3 32.8 15.4 42.35 24.6 45.0 27.6 39.9 20.25 Q34.3 12.9 28.0 6.25 L26.95 5.15 Q21.8 -0.2 16.2 1.4 10.45 3.0 8.1 6.8 5.6 10.55 5.6 14.35 5.6 18.2 8.15 26.4 L11.85 38.05 11.85 38.2 Q11.8 44.05 6.0 54.25 0.9 63.0 1.05 70.65 L1.05 71.1 1.05 71.15 1.0 72.5 Q1.05 78.15 4.4 82.7 10.0 90.3 18.85 93.15 28.0 96.25 37.45 93.95 43.2 92.45 48.1 88.65 55.6 82.95 56.7 73.8 L56.85 72.65 Q55.25 77.7 51.7 81.85 45.15 89.4 35.45 90.7 30.4 91.35 26.1 88.8 23.6 87.3 21.95 85.35 M40.7 19.65 Q45.1 25.45 48.75 31.9 L50.1 34.45 50.1 34.4 Q54.6 42.65 56.85 51.85 L57.45 54.65 57.45 54.7 Q58.3 60.45 58.25 66.25 L58.2 68.3 57.7 73.9 Q56.5 83.45 48.7 89.45 43.6 93.35 37.7 94.9 28.0 97.25 18.55 94.1 9.4 91.2 3.6 83.3 -0.3 78.0 0.05 71.3 L0.05 71.1 0.05 70.65 Q-0.1 62.8 5.15 53.75 10.75 43.9 10.85 38.3 L7.2 26.7 Q4.6 18.3 4.6 14.35 4.6 10.25 7.25 6.25 9.75 2.2 15.95 0.45 L15.9 0.45 Q22.05 -1.4 27.65 4.45 L27.7 4.5 28.7 5.55 Q35.1 12.2 40.7 19.65" fill="#000000" fill-rule="evenodd" stroke="none"/>
      <path d="M22.7 85.45 Q18.25 80.7 19.35 73.3 20.75 63.75 24.45 55.0 28.3 45.8 29.7 36.1 31.05 27.15 27.15 18.85 L32.55 15.9 42.0 24.95 46.95 30.75 47.9 32.4 49.2 34.9 Q53.7 43.05 55.9 52.1 L56.45 54.85 Q57.3 60.55 57.25 66.25 L57.15 69.2 57.0 70.1 54.3 73.45 Q43.6 85.65 26.3 85.65 L22.7 85.45" fill="#ffffff" fill-rule="evenodd" stroke="none"/>
      <path d="M1.0 72.5 L1.05 71.15 1.05 71.1 1.05 70.65 Q0.9 63.0 6.0 54.25 11.8 44.05 11.85 38.2 L11.85 38.05 8.15 26.4 Q5.6 18.2 5.6 14.35 5.6 10.55 8.1 6.8 10.45 3.0 16.2 1.4 21.8 -0.2 26.95 5.15 L28.0 6.25 Q34.3 12.9 39.9 20.25 L45.0 27.6 42.35 24.6 32.8 15.4 32.65 15.3 32.5 15.35 26.7 18.5 26.6 18.65 26.6 18.8 Q30.55 27.1 29.2 36.05 27.8 45.7 24.0 54.8 20.25 63.65 18.85 73.25 17.8 80.55 21.95 85.35 10.15 83.65 1.0 72.5" fill="#009900" fill-rule="evenodd" stroke="none"/>
      <path d="M21.95 85.35 Q23.6 87.3 26.1 88.8 30.4 91.35 35.45 90.7 45.15 89.4 51.7 81.85 55.25 77.7 56.85 72.65 L56.7 73.8 Q55.6 82.95 48.1 88.65 43.2 92.45 37.45 93.95 28.0 96.25 18.85 93.15 10.0 90.3 4.4 82.7 1.05 78.15 1.0 72.5 10.15 83.65 21.95 85.35" fill="#006700" fill-rule="evenodd" stroke="none"/>
      <path d="M57.0 70.1 Q55.65 76.45 51.3 81.5 44.85 88.9 35.4 90.2 30.5 90.85 26.35 88.35 24.2 87.05 22.7 85.45 L26.3 85.65 Q43.6 85.65 54.3 73.45 L57.0 70.1" fill="#cccccc" fill-rule="evenodd" stroke="none"/>
    </g>
    <g id="shape5" transform="matrix(1.0, 0.0, 0.0, 1.0, 0.0, 0.0)">
      <path d="M61.05 0.3 L61.15 0.8 Q67.2 22.5 66.1 55.65 L66.1 55.85 65.9 55.95 Q52.3 64.2 38.9 63.85 L38.55 63.85 38.55 54.7 Q20.85 53.95 0.35 43.45 L0.0 43.25 0.35 42.6 0.7 42.8 Q21.05 53.2 38.55 53.95 L39.1 48.85 39.55 44.5 Q40.45 36.8 41.9 29.3 43.05 21.2 44.35 13.25 39.95 8.7 35.8 6.6 31.7 4.5 26.3 4.15 L25.9 4.1 26.4 0.0 26.8 0.1 Q33.0 1.3 37.7 3.5 42.7 5.9 48.2 11.6 L59.3 11.35 Q61.4 4.45 59.75 1.65 L59.6 1.35 61.05 0.3 M59.85 12.1 L59.55 12.1 48.1 12.35 47.9 12.35 47.8 12.2 Q42.35 6.55 37.4 4.2 32.95 2.1 27.05 0.9 L26.75 3.4 Q32.05 3.85 36.15 5.95 40.45 8.15 45.05 12.85 L45.15 13.0 45.15 13.15 42.65 29.4 42.65 29.45 Q41.25 36.9 40.3 44.6 L39.85 48.9 39.3 54.4 39.3 63.1 Q52.2 63.3 65.35 55.4 66.4 24.5 61.15 3.65 61.5 6.7 59.9 11.85 L59.85 12.1 M60.7 1.85 L60.6 1.55 60.55 1.55 60.7 1.85" fill="#000000" fill-rule="evenodd" stroke="none"/>
      <path d="M60.7 1.85 L60.55 1.55 60.6 1.55 60.7 1.85 M59.85 12.1 L59.9 11.85 Q61.5 6.7 61.15 3.65 66.4 24.5 65.35 55.4 52.2 63.3 39.3 63.1 L39.3 54.4 39.85 48.9 40.3 44.6 Q41.25 36.9 42.65 29.45 L42.65 29.4 45.15 13.15 45.15 13.0 45.05 12.85 Q40.45 8.15 36.15 5.95 32.05 3.85 26.75 3.4 L27.05 0.9 Q32.95 2.1 37.4 4.2 42.35 6.55 47.8 12.2 L47.9 12.35 48.1 12.35 59.55 12.1 59.85 12.1" fill="#bf0101" fill-rule="evenodd" stroke="none"/>
    </g>
    <g id="shape6" transform="matrix(1.0, 0.0, 0.0, 1.0, 0.0, 0.0)">
      <path d="M21.1 8.85 L21.35 7.65 19.55 11.2 19.35 11.05 19.25 10.0 18.9 10.8 Q18.5 9.65 18.85 8.0 L19.0 7.2 Q18.4 8.5 18.55 10.1 18.7 10.4 18.15 9.9 L17.8 7.4 17.0 6.55 16.15 5.1 15.85 6.1 15.5 6.1 14.5 4.25 13.7 4.85 13.65 2.35 12.35 4.4 12.35 3.85 Q12.35 2.7 12.65 1.9 13.2 0.35 14.1 0.45 L15.35 1.15 Q17.15 2.35 18.9 3.85 20.75 5.55 22.35 7.8 L21.5 9.0 21.45 8.75 21.1 8.85" fill="#cb7814" fill-rule="evenodd" stroke="none"/>
      <path d="M21.45 8.75 L21.5 9.0 21.15 9.55 21.45 8.75 M20.3 14.8 L21.4 14.65 18.2 17.05 18.45 16.6 18.45 15.9 20.3 14.8 M14.9 17.3 L15.95 17.25 16.25 16.95 16.9 17.5 14.35 18.9 10.25 21.05 6.1 22.9 Q3.35 23.8 0.5 23.85 L0.45 22.85 4.75 22.05 Q5.65 22.0 8.2 20.8 L11.25 18.95 11.7 19.1 Q12.85 18.85 14.0 17.55 L14.9 17.3" fill="#cc9966" fill-rule="evenodd" stroke="none"/>
      <path d="M18.9 10.8 L19.25 10.0 19.35 11.05 19.55 11.2 21.35 7.65 21.1 8.85 Q20.6 10.45 20.55 12.15 L20.5 14.0 Q19.5 13.05 18.9 10.8 M21.5 9.0 L22.35 7.8 Q22.9 9.25 22.75 11.0 22.55 13.2 21.55 13.75 L21.1 13.75 21.1 13.7 21.15 9.55 21.5 9.0 M12.35 4.4 L13.65 2.35 13.7 4.85 14.5 4.25 15.5 6.1 15.85 6.1 16.15 5.1 17.0 6.55 17.8 7.4 18.15 9.9 17.75 9.7 17.6 9.15 Q16.4 9.05 15.3 7.85 L14.3 6.75 12.35 4.55 12.35 4.45 12.35 4.4" fill="#996633" fill-rule="evenodd" stroke="none"/>
      <path d="M18.9 10.8 Q19.5 13.05 20.5 14.0 L20.55 12.15 Q20.6 10.45 21.1 8.85 L21.45 8.75 21.15 9.55 21.1 13.7 21.05 13.75 21.1 13.75 21.55 13.75 Q22.55 13.2 22.75 11.0 22.9 9.25 22.35 7.8 20.75 5.55 18.9 3.85 17.15 2.35 15.35 1.15 L14.1 0.45 Q13.2 0.35 12.65 1.9 12.35 2.7 12.35 3.85 L12.35 4.4 12.35 4.45 12.35 4.55 14.3 6.75 15.3 7.85 Q16.4 9.05 17.6 9.15 L17.75 9.7 18.15 9.9 Q18.7 10.4 18.55 10.1 18.4 8.5 19.0 7.2 L18.85 8.0 Q18.5 9.65 18.9 10.8 M23.05 11.95 Q22.65 13.75 21.8 14.1 L21.75 14.8 19.65 16.55 12.7 20.45 Q8.15 22.9 4.3 23.85 L0.1 24.3 0.0 22.55 9.5 9.6 Q11.15 7.3 12.0 4.95 L11.95 3.3 12.05 1.95 12.45 1.1 Q12.8 0.5 13.3 0.2 L14.3 0.05 Q16.75 1.35 18.45 2.8 21.8 6.15 22.5 7.25 L23.1 9.05 23.05 11.95 M18.45 15.9 L18.45 16.6 18.2 17.05 21.4 14.65 20.3 14.8 Q19.65 14.5 19.4 13.25 19.05 11.75 18.5 10.95 L18.1 10.5 17.5 11.0 17.4 10.0 14.35 7.45 14.4 8.1 12.35 5.1 11.5 7.25 10.0 9.75 8.55 11.7 5.45 15.8 6.1 16.2 6.05 16.7 Q5.9 17.5 5.45 17.8 L5.3 17.85 Q4.1 19.85 2.95 19.85 L2.65 19.6 0.7 22.4 2.8 21.95 3.2 21.85 6.65 21.15 Q7.7 21.2 8.7 20.2 L8.2 20.8 Q5.65 22.0 4.75 22.05 L0.45 22.85 0.5 23.85 Q3.35 23.8 6.1 22.9 L10.25 21.05 14.35 18.9 16.9 17.5 16.25 16.95 15.95 17.25 14.9 17.3 14.4 17.05 Q14.05 16.65 14.0 15.55 L16.05 14.4 16.05 13.4 16.2 13.15 Q17.9 12.65 18.45 15.9 M13.4 12.3 Q12.85 12.3 12.4 11.85 12.0 11.4 11.7 12.0 L11.8 10.85 12.35 10.65 11.95 11.05 Q13.4 12.65 14.95 11.2 L13.4 10.8 13.65 10.55 15.55 10.95 15.55 11.25 14.85 11.8 Q14.15 12.3 13.4 12.3 M9.65 15.6 L9.1 16.2 9.05 16.25 7.85 16.65 7.4 16.2 8.05 14.5 10.05 14.65 9.65 15.6 M7.75 15.85 L9.8 14.9 8.1 14.9 7.75 15.75 7.65 15.85 7.75 15.85 M5.65 16.6 L5.25 16.3 2.9 19.25 Q4.15 19.55 4.8 17.45 L5.3 17.05 5.65 16.6 M17.1 16.7 L18.15 15.9 Q18.1 14.6 17.55 14.15 L17.1 13.75 Q16.45 15.85 15.15 15.35 L14.45 15.7 14.55 16.5 17.5 15.8 17.1 16.65 17.05 16.7 17.1 16.7 M14.0 17.55 Q12.85 18.85 11.7 19.1 L14.0 17.55" fill="#000000" fill-rule="evenodd" stroke="none"/>
      <path d="M3.2 21.85 L2.8 21.95 Q3.5 21.65 3.95 20.2 L4.1 19.7 7.2 17.45 6.05 16.7 6.1 16.2 5.45 15.8 8.55 11.7 Q10.3 11.35 12.05 9.95 L12.75 9.45 10.0 9.75 11.5 7.25 12.35 5.1 14.4 8.1 14.35 7.45 17.4 10.0 17.5 11.0 18.1 10.5 18.5 10.95 Q18.1 11.45 17.65 11.35 L17.05 11.85 Q16.8 12.6 16.55 12.55 L14.85 11.8 15.55 11.25 15.55 10.95 13.65 10.55 12.35 10.65 11.8 10.85 11.7 12.0 Q12.0 11.4 12.4 11.85 12.85 12.3 13.4 12.3 L12.65 14.15 12.6 15.4 9.65 15.6 10.05 14.65 8.05 14.5 7.4 16.2 7.85 16.65 9.05 16.25 9.05 16.3 8.8 16.5 8.6 17.35 8.8 18.0 Q8.1 19.5 7.15 19.85 5.15 20.55 3.2 21.85" fill="#ffdab5" fill-rule="evenodd" stroke="none"/>
      <path d="M12.35 10.65 L13.65 10.55 13.4 10.8 14.95 11.2 Q13.4 12.65 11.95 11.05 L12.35 10.65 M5.65 16.6 L5.3 17.05 4.8 17.45 Q4.15 19.55 2.9 19.25 L5.25 16.3 5.65 16.6" fill="#cc6666" fill-rule="evenodd" stroke="none"/>
      <path d="M18.45 15.9 Q17.9 12.65 16.2 13.15 L16.05 13.4 16.05 14.4 14.0 15.55 Q14.05 16.65 14.4 17.05 L14.9 17.3 14.0 17.55 11.7 19.1 11.25 18.95 8.2 20.8 8.7 20.2 Q7.7 21.2 6.65 21.15 L3.2 21.85 Q5.15 20.55 7.15 19.85 8.1 19.5 8.8 18.0 L8.6 17.35 8.8 16.5 9.05 16.3 9.1 16.2 9.65 15.6 12.6 15.4 12.65 14.15 13.4 12.3 Q14.15 12.3 14.85 11.8 L16.55 12.55 Q16.8 12.6 17.05 11.85 L17.65 11.35 Q18.1 11.45 18.5 10.95 19.05 11.75 19.4 13.25 19.65 14.5 20.3 14.8 L18.45 15.9" fill="#ffcc99" fill-rule="evenodd" stroke="none"/>
      <path d="M2.8 21.95 L0.7 22.4 2.65 19.6 2.95 19.85 Q4.1 19.85 5.3 17.85 L5.45 17.8 Q5.9 17.5 6.05 16.7 L7.2 17.45 4.1 19.7 3.95 20.2 Q3.5 21.65 2.8 21.95 M8.55 11.7 L10.0 9.75 12.75 9.45 12.05 9.95 Q10.3 11.35 8.55 11.7" fill="#ffe7ce" fill-rule="evenodd" stroke="none"/>
      <path d="M7.75 15.75 L8.1 14.9 9.8 14.9 7.75 15.85 7.75 15.75" fill="#339900" fill-rule="evenodd" stroke="none"/>
      <path d="M9.1 16.2 L9.05 16.3 9.05 16.25 9.1 16.2" fill="#ffe0c1" fill-rule="evenodd" stroke="none"/>
      <path d="M17.1 16.65 L17.5 15.8 14.55 16.5 14.45 15.7 15.15 15.35 Q16.45 15.85 17.1 13.75 L17.55 14.15 Q18.1 14.6 18.15 15.9 L17.1 16.7 17.1 16.65" fill="#cccc99" fill-rule="evenodd" stroke="none"/>
    </g>
    <g id="shape7" transform="matrix(1.0, 0.0, 0.0, 1.0, 0.0, 0.0)">
      <path d="M14.6 2.5 L14.35 1.1 1.05 7.35 Q2.95 10.55 3.95 11.55 5.95 13.7 9.05 13.7 15.05 13.65 15.05 5.9 L14.6 2.55 14.6 2.5 M15.05 0.5 L15.35 2.4 15.8 5.9 Q15.8 14.45 9.05 14.45 5.65 14.4 3.4 12.05 L3.4 12.1 Q2.3 11.0 0.2 7.35 L0.0 7.0 14.95 0.0 15.05 0.5 M10.4 10.7 L10.3 10.8 Q9.25 11.35 8.25 11.35 6.8 11.35 5.6 9.45 4.4 7.65 4.75 6.45 L4.85 6.05 5.55 6.25 5.5 6.6 Q5.3 7.55 6.25 9.2 7.2 10.85 8.0 10.85 L10.4 10.7" fill="#000000" fill-rule="evenodd" stroke="none"/>
      <path d="M14.6 2.5 L14.6 2.55 15.05 5.9 Q15.05 13.65 9.05 13.7 5.95 13.7 3.95 11.55 2.95 10.55 1.05 7.35 L14.35 1.1 14.6 2.5 M10.4 10.7 L8.0 10.85 Q7.2 10.85 6.25 9.2 5.3 7.55 5.5 6.6 L5.55 6.25 4.85 6.05 4.75 6.45 Q4.4 7.65 5.6 9.45 6.8 11.35 8.25 11.35 9.25 11.35 10.3 10.8 L10.4 10.7" fill="#cc8f65" fill-rule="evenodd" stroke="none"/>
    </g>
    <g id="shape8" transform="matrix(1.0, 0.0, 0.0, 1.0, 0.0, 0.0)">
      <path d="M7.4 1.15 L1.95 1.0 Q5.55 1.1 6.85 3.15 L6.95 3.35 Q4.8 1.6 1.15 1.7 L0.0 1.9 1.15 0.85 Q3.95 -0.9 7.45 1.05 L7.4 1.15" fill="#000000" fill-rule="evenodd" stroke="none"/>
    </g>
    <g id="shape9" transform="matrix(1.0, 0.0, 0.0, 1.0, 0.0, 0.0)">
      <path d="M12.35 16.25 Q9.75 18.65 6.65 18.25 3.45 17.85 1.55 14.9 -0.35 12.0 0.1 8.25 0.55 4.45 3.1 2.0 5.65 -0.3 8.8 0.05 12.0 0.5 13.9 3.35 15.8 6.3 15.35 10.1 14.9 13.85 12.35 16.25" fill="#000000" fill-opacity="0.2" fill-rule="evenodd" stroke="none"/>
    </g>
    <g id="shape10" transform="matrix(1.0, 0.0, 0.0, 1.0, 0.7, 0.05)">
      <path d="M0.65 5.55 L0.65 5.45 Q1.4 3.35 3.9 1.95 5.2 1.3 6.4 1.0 10.5 0.1 15.05 1.5 20.05 2.95 22.6 5.55 23.9 6.95 24.4 8.45 24.75 9.85 24.4 11.15 L24.3 11.3 Q22.9 12.7 20.85 13.3 L19.75 13.55 Q16.55 14.2 12.5 12.95 10.2 12.25 8.4 11.1 4.95 8.65 4.25 5.5 L5.5 5.6 4.8 5.0 Q4.25 4.7 3.6 4.75 L3.45 4.85 Q2.3 5.05 1.9 6.2 0.75 7.15 0.65 5.55" fill="#ffb409" fill-rule="evenodd" stroke="none"/>
      <path d="M25.25 10.05 L25.05 11.35 Q24.55 12.85 23.25 14.0 21.8 15.2 19.85 15.6 17.6 16.15 14.35 15.5 L10.4 14.3 Q9.1 17.05 6.35 17.0 2.7 16.9 0.65 13.9 -1.7 10.5 0.05 5.3 L0.05 5.2 Q0.35 4.3 0.9 3.5 L2.5 2.05 Q3.5 1.2 6.25 0.35 10.55 -0.6 15.25 0.85 20.45 2.4 23.05 5.1 24.5 6.65 25.0 8.25 L25.25 10.05 M24.3 11.3 L24.4 11.15 Q24.75 9.85 24.4 8.45 23.9 6.95 22.6 5.55 20.05 2.95 15.05 1.5 10.5 0.1 6.4 1.0 5.2 1.3 3.9 1.95 1.4 3.35 0.65 5.45 L0.65 5.55 0.4 6.55 Q-0.7 10.7 1.2 13.55 L1.2 13.5 Q3.05 16.2 6.4 16.3 8.65 16.3 9.85 14.05 9.15 13.8 8.55 13.4 7.85 14.3 6.6 14.6 L6.6 14.65 Q5.2 14.9 3.65 13.75 L3.35 13.5 Q2.2 12.45 2.2 10.5 2.15 9.5 2.5 8.05 L2.95 5.8 1.85 6.35 1.9 6.3 1.9 6.2 Q2.3 5.05 3.45 4.85 L3.6 4.75 Q4.25 4.7 4.8 5.0 L5.5 5.6 4.25 5.5 4.15 5.5 4.1 5.75 4.0 5.95 4.1 6.9 Q4.55 8.8 5.8 10.35 7.4 12.5 10.3 13.7 L10.35 13.7 14.45 14.85 Q17.55 15.4 19.7 14.95 21.5 14.55 22.85 13.5 23.9 12.55 24.3 11.3 M3.55 6.3 L3.2 7.5 3.85 7.8 3.55 6.3 M2.95 8.5 Q2.7 9.75 2.75 10.45 2.75 11.7 3.45 12.75 L3.6 12.95 4.2 13.55 Q5.35 12.05 5.05 10.4 4.25 9.1 4.0 8.3 3.6 7.95 3.1 7.8 L2.95 8.5 M8.0 13.05 Q6.45 12.1 5.45 10.9 5.55 12.4 4.5 13.7 5.1 14.2 6.15 14.15 7.35 14.15 8.0 13.05" fill="#000000" fill-rule="evenodd" stroke="none"/>
      <path d="M0.65 5.55 Q0.75 7.15 1.9 6.2 L1.9 6.3 1.85 6.35 2.95 5.8 2.5 8.05 Q2.15 9.5 2.2 10.5 2.2 12.45 3.35 13.5 L3.65 13.75 Q5.2 14.9 6.6 14.65 L6.6 14.6 Q7.85 14.3 8.55 13.4 9.15 13.8 9.85 14.05 8.65 16.3 6.4 16.3 3.05 16.2 1.2 13.5 L1.2 13.55 Q-0.7 10.7 0.4 6.55 L0.65 5.55 M4.25 5.5 Q4.95 8.65 8.4 11.1 10.2 12.25 12.5 12.95 16.55 14.2 19.75 13.55 L20.85 13.3 Q22.9 12.7 24.3 11.3 23.9 12.55 22.85 13.5 21.5 14.55 19.7 14.95 17.55 15.4 14.45 14.85 L10.35 13.7 10.3 13.7 Q7.4 12.5 5.8 10.35 4.55 8.8 4.1 6.9 L4.0 5.95 4.1 5.75 4.15 5.5 4.25 5.5" fill="#f99108" fill-rule="evenodd" stroke="none"/>
      <path d="M2.95 8.5 L3.3 8.9 Q4.35 10.45 3.65 12.75 L3.6 12.95 3.45 12.75 Q2.75 11.7 2.75 10.45 2.7 9.75 2.95 8.5" fill="#fe5fae" fill-rule="evenodd" stroke="none"/>
      <path d="M3.6 12.95 L3.65 12.75 Q4.35 10.45 3.3 8.9 L2.95 8.5 3.1 7.8 Q3.6 7.95 4.0 8.3 4.25 9.1 5.05 10.4 5.35 12.05 4.2 13.55 L3.6 12.95" fill="#ff99cc" fill-rule="evenodd" stroke="none"/>
      <path d="M3.55 6.3 L3.85 7.8 3.2 7.5 3.55 6.3 M8.0 13.05 Q7.35 14.15 6.15 14.15 5.1 14.2 4.5 13.7 5.55 12.4 5.45 10.9 6.45 12.1 8.0 13.05" fill="#990000" fill-rule="evenodd" stroke="none"/>
    </g>
    <g id="shape11" transform="matrix(1.0, 0.0, 0.0, 1.0, 0.0, 0.0)">
      <path d="M29.7 17.9 L29.35 16.5 Q28.2 11.95 28.25 9.65 28.25 7.7 28.75 6.05 29.6 3.2 31.6 3.25 32.55 3.2 33.65 4.05 34.95 5.05 35.65 7.0 L35.7 7.1 Q34.5 5.3 33.55 4.55 32.55 3.8 31.35 3.95 30.1 4.05 29.45 6.25 28.95 7.8 29.0 9.65 29.0 11.3 29.65 14.3 L29.75 14.8 30.1 16.3 Q31.2 20.8 31.2 24.05 L31.2 24.1 Q31.1 27.55 30.05 31.05 29.0 34.5 27.2 36.5 L27.8 35.1 Q29.85 30.5 30.4 25.65 L30.45 24.05 Q30.4 21.4 29.7 17.9 M39.45 17.8 L39.4 16.95 39.2 14.9 39.2 14.85 38.65 11.1 37.8 7.9 36.65 5.25 Q35.8 3.5 34.4 2.4 L32.75 1.35 29.85 1.05 Q28.2 1.3 26.95 2.2 25.85 3.0 25.25 4.4 L25.3 4.4 Q24.7 5.8 24.65 7.45 L24.65 9.05 Q24.7 10.55 25.05 12.25 L25.65 14.85 26.3 17.85 26.85 20.45 Q27.25 22.3 27.2 24.3 L27.2 24.35 27.1 26.6 27.0 27.7 27.0 27.85 26.85 28.05 Q26.5 30.2 25.8 31.75 24.45 34.8 22.25 34.8 20.7 34.75 20.3 34.3 L19.75 34.0 22.2 34.2 Q23.8 34.1 24.8 32.05 25.75 30.0 26.05 28.05 22.9 26.95 17.65 26.7 12.75 26.5 9.45 29.9 L9.7 29.9 11.4 30.15 Q12.25 29.1 13.3 28.6 14.45 28.05 16.5 28.1 18.75 28.05 19.75 29.1 L16.5 28.85 13.6 29.3 Q12.85 29.65 12.2 30.35 L13.7 30.85 Q15.4 31.55 17.3 32.85 L12.55 31.25 11.45 30.95 11.4 30.95 9.1 30.65 8.75 30.65 8.65 30.75 8.45 30.8 Q4.25 31.1 1.9 35.6 L1.45 36.45 1.05 37.95 0.25 37.95 0.0 37.95 0.55 36.15 0.55 36.05 Q3.2 30.2 8.15 29.85 11.95 25.45 17.7 25.7 22.85 25.95 26.05 26.95 L26.1 26.5 26.2 24.3 Q26.25 22.4 25.85 20.65 L25.35 18.1 25.3 18.05 24.7 15.1 24.65 15.05 24.1 12.5 24.05 12.45 Q23.7 10.65 23.65 9.1 L23.65 7.4 Q23.7 5.6 24.35 4.05 L24.35 4.0 Q25.05 2.3 26.35 1.4 27.8 0.4 29.7 0.05 L33.1 0.4 33.15 0.4 Q34.1 0.85 35.0 1.6 L35.05 1.65 Q36.6 2.85 37.55 4.8 L38.75 7.55 39.65 10.9 40.2 14.75 40.4 16.9 40.45 17.2 40.45 19.05 40.4 21.1 40.2 23.2 39.45 27.0 38.2 30.6 36.5 33.85 34.5 36.4 34.45 36.4 32.25 38.35 32.2 38.35 29.7 39.45 26.15 40.2 26.05 40.2 24.0 40.2 20.1 39.65 20.05 39.6 15.0 37.3 Q13.25 35.7 9.3 34.45 15.2 35.45 20.4 38.7 L24.0 39.2 26.0 39.2 29.45 38.5 31.7 37.5 33.75 35.75 33.75 35.7 35.65 33.3 37.3 30.2 38.5 26.75 39.2 23.05 39.4 21.05 39.45 19.05 39.45 17.8" fill="#000000" fill-rule="evenodd" stroke="none"/>
      <path d="M29.75 14.8 L29.65 14.3 Q29.0 11.3 29.0 9.65 28.95 7.8 29.45 6.25 30.1 4.05 31.35 3.95 32.55 3.8 33.55 4.55 34.5 5.3 35.7 7.1 L35.65 7.0 Q34.95 5.05 33.65 4.05 32.55 3.2 31.6 3.25 29.6 3.2 28.75 6.05 28.25 7.7 28.25 9.65 28.2 11.95 29.35 16.5 L29.7 17.9 Q29.45 22.25 28.8 26.25 27.05 37.0 22.75 37.0 21.5 37.0 16.2 34.5 10.95 32.0 7.85 32.0 5.5 32.0 2.85 34.55 L1.9 35.6 Q4.25 31.1 8.45 30.8 L8.65 30.75 8.75 30.65 9.1 30.65 11.4 30.95 11.45 30.95 12.55 31.25 17.3 32.85 Q15.4 31.55 13.7 30.85 L16.75 30.15 20.75 29.5 Q21.75 29.5 22.25 30.0 L23.75 30.0 Q23.5 28.8 21.4 28.1 L18.1 27.5 Q15.65 27.5 12.5 28.55 10.55 29.2 9.7 29.9 L9.45 29.9 Q12.75 26.5 17.65 26.7 22.9 26.95 26.05 28.05 25.75 30.0 24.8 32.05 23.8 34.1 22.2 34.2 L19.75 34.0 20.3 34.3 Q20.7 34.75 22.25 34.8 24.45 34.8 25.8 31.75 26.5 30.2 26.85 28.05 L27.0 27.85 27.0 27.7 27.1 26.6 27.2 24.35 27.2 24.3 Q27.25 22.3 26.85 20.45 L26.3 17.85 25.65 14.85 25.05 12.25 Q24.7 10.55 24.65 9.05 L24.65 7.45 Q24.7 5.8 25.3 4.4 L25.25 4.4 Q25.85 3.0 26.95 2.2 28.2 1.3 29.85 1.05 L32.75 1.35 34.4 2.4 Q35.8 3.5 36.65 5.25 L37.8 7.9 38.65 11.1 39.2 14.85 39.2 14.9 39.4 16.95 39.45 17.8 37.6 18.25 36.6 18.0 35.6 17.75 Q35.1 17.75 34.4 19.15 33.65 20.5 33.0 20.5 32.55 20.5 32.2 17.75 31.9 14.9 29.75 14.5 L29.75 14.8" fill="#f8c592" fill-rule="evenodd" stroke="none"/>
      <path d="M29.7 17.9 Q30.4 21.4 30.45 24.05 L30.4 25.65 Q29.85 30.5 27.8 35.1 L27.2 36.5 Q29.0 34.5 30.05 31.05 31.1 27.55 31.2 24.1 L31.2 24.05 Q31.2 20.8 30.1 16.3 L29.75 14.8 29.75 14.5 Q31.9 14.9 32.2 17.75 32.55 20.5 33.0 20.5 33.65 20.5 34.4 19.15 35.1 17.75 35.6 17.75 L36.6 18.0 37.6 18.25 39.45 17.8 39.45 19.05 39.4 21.05 39.2 23.05 38.5 26.75 37.3 30.2 35.65 33.3 33.75 35.7 33.75 35.75 31.7 37.5 29.45 38.5 26.0 39.2 24.0 39.2 20.4 38.7 Q15.2 35.45 9.3 34.45 13.25 35.7 15.0 37.3 L5.75 37.85 1.05 37.95 1.45 36.45 1.9 35.6 2.85 34.55 Q5.5 32.0 7.85 32.0 10.95 32.0 16.2 34.5 21.5 37.0 22.75 37.0 27.05 37.0 28.8 26.25 29.45 22.25 29.7 17.9 M9.7 29.9 Q10.55 29.2 12.5 28.55 15.65 27.5 18.1 27.5 L21.4 28.1 Q23.5 28.8 23.75 30.0 L22.25 30.0 Q21.75 29.5 20.75 29.5 L16.75 30.15 13.7 30.85 12.2 30.35 Q12.85 29.65 13.6 29.3 L16.5 28.85 19.75 29.1 Q18.75 28.05 16.5 28.1 14.45 28.05 13.3 28.6 12.25 29.1 11.4 30.15 L9.7 29.9" fill="#cc8f65" fill-rule="evenodd" stroke="none"/>
    </g>
    <g id="shape12" transform="matrix(1.0, 0.0, 0.0, 1.0, 0.0, 0.0)">
      <path d="M3.25 20.5 L12.0 20.7 Q20.55 20.75 29.1 18.95 37.55 17.2 45.5 13.9 L45.55 13.9 Q51.1 11.75 56.3 9.25 64.55 5.3 64.75 4.1 L64.75 4.05 63.5 3.9 Q61.75 3.7 58.3 3.85 L42.15 4.5 26.55 3.9 Q20.2 3.2 14.05 1.75 9.3 0.6 5.85 0.85 L4.3 1.15 1.1 1.35 0.0 1.4 5.25 0.2 5.3 0.15 Q9.3 -0.4 14.3 0.8 20.4 2.2 26.65 2.9 L42.15 3.5 58.25 2.85 Q61.85 2.7 63.6 2.9 65.95 3.15 65.75 4.15 65.7 5.85 56.75 10.15 51.5 12.65 45.9 14.85 L45.9 14.8 Q37.85 18.2 29.3 19.95 20.65 21.75 12.0 21.7 L3.3 20.65 2.15 20.45 3.25 20.5" fill="#000000" fill-rule="evenodd" stroke="none"/>
      <path d="M1.1 1.35 L4.3 1.15 5.85 0.85 Q9.3 0.6 14.05 1.75 20.2 3.2 26.55 3.9 L42.15 4.5 58.3 3.85 Q61.75 3.7 63.5 3.9 L64.75 4.05 64.75 4.1 Q64.55 5.3 56.3 9.25 51.1 11.75 45.55 13.9 L45.5 13.9 Q37.55 17.2 29.1 18.95 20.55 20.75 12.0 20.7 L3.25 20.5 1.1 1.35" fill="#009900" fill-rule="evenodd" stroke="none"/>
    </g>
  </defs>
</svg>
