<?xml version="1.0" encoding="UTF-8" standalone="no"?>
<svg xmlns:ffdec="https://www.free-decompiler.com/flash" xmlns:xlink="http://www.w3.org/1999/xlink" ffdec:objectType="frame" height="251.2px" width="162.6px" xmlns="http://www.w3.org/2000/svg">
  <g transform="matrix(1.0, 0.0, 0.0, 1.0, -295.9, -22.4)">
    <use ffdec:characterId="199" height="40.05" transform="matrix(1.0, 0.0, 0.0, 1.0, 358.5, 227.1)" width="43.35" xlink:href="#shape0"/>
    <use ffdec:characterId="200" height="34.05" transform="matrix(1.0, 0.0, 0.0, 1.0, 336.75, 238.3)" width="40.3" xlink:href="#shape1"/>
    <use ffdec:characterId="201" height="24.65" transform="matrix(1.0, 0.0, 0.0, 1.0, 367.8, 173.95)" width="53.95" xlink:href="#shape2"/>
    <use ffdec:characterId="202" height="99.85" transform="matrix(1.0, 0.0, 0.0, 1.0, 330.45, 149.3)" width="63.75" xlink:href="#shape3"/>
    <use ffdec:characterId="203" height="60.95" transform="matrix(1.0, 0.0, 0.0, 1.0, 331.5, 178.25)" width="66.3" xlink:href="#shape4"/>
    <use ffdec:characterId="191" height="24.35" transform="matrix(1.0172, 0.0967, 0.0602, 0.8351, 364.55, 195.85)" width="23.2" xlink:href="#shape5"/>
    <use ffdec:characterId="204" height="28.35" transform="matrix(1.0, 0.0, 0.0, 1.0, 383.4, 189.85)" width="32.1" xlink:href="#shape6"/>
    <use ffdec:characterId="205" height="3.35" transform="matrix(1.0, 0.0, 0.0, 1.0, 369.65, 169.7)" width="7.45" xlink:href="#shape7"/>
    <use ffdec:characterId="205" height="3.35" transform="matrix(-0.415, -0.4076, -0.617, 0.6283, 381.9, 173.85)" width="7.45" xlink:href="#shape7"/>
    <use ffdec:characterId="194" height="18.3" transform="matrix(0.9423, 0.3347, -0.3347, 0.9423, 368.1, 173.1)" width="15.45" xlink:href="#shape8"/>
    <use ffdec:characterId="195" height="18.95" transform="matrix(0.9423, 0.3347, -0.3347, 0.9423, 370.496, 170.232)" width="25.0" xlink:href="#shape9"/>
    <use ffdec:characterId="206" height="44.8" transform="matrix(1.0, 0.0, 0.0, 1.0, 398.7, 178.9)" width="26.9" xlink:href="#shape10"/>
    <use ffdec:characterId="207" height="27.05" transform="matrix(1.0, 0.0, 0.0, 1.0, 347.35, 177.75)" width="62.7" xlink:href="#shape11"/>
    <use ffdec:characterId="208" height="40.75" transform="matrix(1.0, 0.0, 0.0, 1.0, 366.9, 126.25)" width="56.9" xlink:href="#shape12"/>
  </g>
  <defs>
    <g id="shape0" transform="matrix(1.0, 0.0, 0.0, 1.0, 0.0, 0.0)">
      <path d="M43.25 30.7 Q42.9 31.7 40.9 33.55 L36.15 37.1 Q33.65 38.65 28.55 39.5 L23.05 39.95 17.65 38.2 Q12.5 36.3 10.3 34.9 7.8 33.25 5.65 31.0 3.5 28.75 3.3 27.55 L3.3 27.6 Q1.2 20.5 0.4 14.15 -1.35 1.05 4.3 0.1 9.55 -0.95 21.25 9.4 L28.45 16.1 31.9 19.6 36.95 20.9 39.6 21.65 Q42.1 22.5 42.25 23.0 L43.0 26.45 Q43.55 29.5 43.25 30.65 L43.25 30.7 M27.8 16.85 L20.6 10.15 Q9.45 0.25 4.5 1.1 -0.15 2.05 1.4 14.0 2.2 20.3 4.25 27.3 L4.25 27.35 Q4.5 28.35 6.35 30.3 8.4 32.45 10.85 34.05 13.0 35.4 18.0 37.25 L23.25 38.95 23.25 39.0 28.4 38.5 Q33.25 37.65 35.6 36.25 38.2 34.6 40.25 32.8 42.0 31.2 42.3 30.4 L42.3 30.45 Q42.5 29.4 42.0 26.6 L41.3 23.35 Q41.15 23.15 40.0 22.8 L36.7 21.85 31.6 20.55 31.4 20.55 31.3 20.4 27.8 16.85 M38.7 24.2 L37.05 25.6 Q32.9 28.45 31.1 29.3 L31.15 29.3 26.8 30.95 24.65 31.65 Q25.05 34.6 24.1 37.0 L24.2 35.4 23.95 31.8 23.8 31.75 18.9 30.7 14.3 29.15 Q12.4 28.4 10.7 27.25 L10.0 26.65 Q8.25 25.1 7.05 23.05 L6.65 22.35 5.9 20.85 Q4.9 18.65 4.2 16.45 5.5 19.4 6.8 21.45 L8.7 24.35 10.7 26.45 11.0 26.7 12.35 27.6 13.7 28.35 16.1 29.2 20.8 30.55 24.0 31.1 26.55 30.25 30.8 28.6 Q32.9 27.65 36.65 25.3 L36.95 25.1 39.35 23.5 38.7 24.2 M27.4 22.4 L28.95 21.45 Q28.1 22.55 26.9 23.15 24.1 24.85 19.75 25.65 L19.35 25.7 18.05 25.6 20.25 25.15 Q24.95 23.95 27.4 22.4" fill="#000000" fill-rule="evenodd" stroke="none"/>
      <path d="M40.0 22.8 Q41.15 23.15 41.3 23.35 L42.0 26.6 Q42.5 29.4 42.3 30.45 L42.3 30.4 Q42.0 31.2 40.25 32.8 38.2 34.6 35.6 36.25 33.25 37.65 28.4 38.5 L23.25 39.0 23.25 38.95 18.0 37.25 Q13.0 35.4 10.85 34.05 8.4 32.45 6.35 30.3 4.5 28.35 4.25 27.35 L4.25 27.3 Q2.2 20.3 1.4 14.0 -0.15 2.05 4.5 1.1 9.45 0.25 20.6 10.15 L27.8 16.85 27.5 17.2 Q24.85 20.2 21.8 22.1 18.8 23.95 13.4 25.6 L10.7 26.45 8.7 24.35 6.8 21.45 Q5.5 19.4 4.2 16.45 4.9 18.65 5.9 20.85 L6.65 22.35 7.05 23.05 Q8.25 25.1 10.0 26.65 L10.7 27.25 Q12.4 28.4 14.3 29.15 L18.9 30.7 23.8 31.75 23.95 31.8 24.2 35.4 24.1 37.0 Q25.05 34.6 24.65 31.65 L26.8 30.95 31.15 29.3 31.1 29.3 Q32.9 28.45 37.05 25.6 L38.7 24.2 38.8 24.15 Q39.9 23.4 40.0 22.8" fill="#f99108" fill-rule="evenodd" stroke="none"/>
      <path d="M27.8 16.85 L31.3 20.4 31.4 20.55 31.6 20.55 36.7 21.85 40.0 22.8 Q39.9 23.4 38.8 24.15 L38.7 24.2 39.35 23.5 36.95 25.1 36.65 25.3 Q32.9 27.65 30.8 28.6 L26.55 30.25 24.0 31.1 20.8 30.55 16.1 29.2 13.7 28.35 12.35 27.6 11.0 26.7 10.7 26.45 13.4 25.6 Q18.8 23.95 21.8 22.1 24.85 20.2 27.5 17.2 L27.8 16.85 M27.4 22.4 Q24.95 23.95 20.25 25.15 L18.05 25.6 19.35 25.7 19.75 25.65 Q24.1 24.85 26.9 23.15 28.1 22.55 28.95 21.45 L27.4 22.4" fill="#ffb409" fill-rule="evenodd" stroke="none"/>
    </g>
    <g id="shape1" transform="matrix(1.0, 0.0, 0.0, 1.0, 0.0, 0.0)">
      <path d="M31.0 15.65 L27.3 9.2 Q23.75 3.0 22.65 2.3 20.75 1.2 13.75 1.0 5.95 0.8 3.15 2.7 L2.15 3.85 2.05 4.0 1.5 5.4 1.35 6.0 Q0.85 8.2 1.1 11.7 1.3 14.35 2.6 21.7 3.1 24.45 5.35 27.65 L5.35 27.7 Q7.5 30.8 9.45 31.65 14.35 33.85 24.35 32.65 30.4 31.95 34.5 30.9 37.35 30.05 38.0 29.55 L38.8 28.25 Q39.25 27.0 39.3 25.65 L39.05 22.45 38.5 20.25 38.45 20.05 Q38.2 19.6 35.35 18.25 31.8 16.6 31.4 16.25 L31.0 15.65 M36.65 21.25 Q35.25 22.3 33.5 22.9 L29.0 24.0 24.25 24.45 19.35 24.55 14.65 24.4 10.15 23.85 10.05 23.85 Q9.4 26.15 9.35 27.85 L9.25 30.05 9.25 30.2 9.1 29.05 Q8.95 27.95 9.1 25.95 L9.25 23.6 9.25 23.35 9.2 23.35 8.5 22.55 7.15 21.15 Q6.1 20.05 4.65 17.4 3.15 14.8 2.7 11.6 L2.35 8.25 2.25 6.75 2.2 6.45 2.2 6.2 3.25 11.5 Q3.8 14.0 4.75 15.9 5.65 17.8 7.05 19.55 L10.05 23.1 11.8 23.3 17.0 23.65 21.65 23.7 27.5 23.3 31.8 22.45 35.3 21.55 36.65 21.2 36.65 21.25 M24.6 15.85 L26.3 15.5 25.7 15.9 25.45 16.05 23.75 16.55 20.55 17.05 Q18.7 17.3 14.9 17.0 L13.3 16.7 24.6 15.85 M23.15 1.45 Q24.35 2.1 28.15 8.7 L32.05 15.5 Q32.4 15.8 35.75 17.35 L35.8 17.35 Q39.1 18.95 39.35 19.65 L39.4 19.7 40.05 22.25 40.05 22.3 40.3 25.7 39.75 28.6 38.6 30.35 Q37.85 30.95 34.75 31.85 30.6 32.95 24.45 33.65 14.15 34.85 9.05 32.55 6.9 31.6 4.55 28.25 2.1 24.85 1.6 21.85 0.3 14.45 0.1 11.75 -0.2 7.15 0.7 4.6 1.3 2.8 2.5 2.0 L2.6 1.9 Q5.55 -0.2 13.8 0.0 21.15 0.2 23.15 1.45" fill="#000000" fill-rule="evenodd" stroke="none"/>
      <path d="M38.5 20.25 L39.05 22.45 39.3 25.65 Q39.25 27.0 38.8 28.25 L38.0 29.55 Q37.35 30.05 34.5 30.9 30.4 31.95 24.35 32.65 14.35 33.85 9.45 31.65 7.5 30.8 5.35 27.7 L5.35 27.65 Q3.1 24.45 2.6 21.7 1.3 14.35 1.1 11.7 0.85 8.2 1.35 6.0 L1.5 5.4 2.05 4.0 2.15 3.85 3.15 2.7 Q5.95 0.8 13.75 1.0 20.75 1.2 22.65 2.3 23.75 3.0 27.3 9.2 L31.0 15.65 30.1 15.75 27.35 15.95 25.7 15.9 26.3 15.5 24.6 15.85 Q19.8 15.45 15.1 13.8 7.95 11.25 2.15 6.0 L2.2 6.45 2.25 6.75 2.35 8.25 2.7 11.6 Q3.15 14.8 4.65 17.4 6.1 20.05 7.15 21.15 L8.5 22.55 9.2 23.35 9.25 23.35 9.25 23.6 9.1 25.95 Q8.95 27.95 9.1 29.05 L9.25 30.2 9.25 30.05 9.35 27.85 Q9.4 26.15 10.05 23.85 L10.15 23.85 14.65 24.4 19.35 24.55 24.25 24.45 29.0 24.0 33.5 22.9 Q35.25 22.3 36.65 21.25 L38.05 20.5 38.5 20.25" fill="#f99108" fill-rule="evenodd" stroke="none"/>
      <path d="M31.0 15.65 L31.4 16.25 Q31.8 16.6 35.35 18.25 38.2 19.6 38.45 20.05 L38.5 20.25 38.05 20.5 36.65 21.25 36.65 21.2 35.3 21.55 31.8 22.45 27.5 23.3 21.65 23.7 17.0 23.65 11.8 23.3 10.05 23.1 7.05 19.55 Q5.65 17.8 4.75 15.9 3.8 14.0 3.25 11.5 L2.2 6.2 2.2 6.45 2.15 6.0 Q7.95 11.25 15.1 13.8 19.8 15.45 24.6 15.85 L13.3 16.7 14.9 17.0 Q18.7 17.3 20.55 17.05 L23.75 16.55 25.45 16.05 25.7 15.9 27.35 15.95 30.1 15.75 31.0 15.65" fill="#ffb409" fill-rule="evenodd" stroke="none"/>
    </g>
    <g id="shape2" transform="matrix(1.0, 0.0, 0.0, 1.0, 0.0, 0.0)">
      <path d="M51.9 14.55 L52.85 14.9 51.85 13.1 Q50.35 10.75 48.05 8.5 41.55 2.2 33.4 1.25 25.4 0.35 13.4 2.55 L3.2 4.9 3.2 5.1 2.95 6.9 2.1 14.3 1.1 23.3 14.65 16.3 Q30.15 8.75 35.0 8.8 39.5 8.8 47.2 12.4 L51.9 14.55 M53.25 16.0 L52.8 15.95 51.55 15.5 46.75 13.3 Q39.3 9.8 35.0 9.8 30.25 9.85 15.1 17.2 L0.75 24.6 0.4 24.65 0.1 24.45 0.0 24.1 1.1 14.2 1.95 6.8 2.2 4.95 2.3 4.5 2.3 4.35 2.4 4.2 Q2.7 3.7 3.0 3.9 L13.2 1.6 13.2 1.55 Q25.4 -0.65 33.5 0.25 41.95 1.2 48.75 7.8 51.15 10.15 52.7 12.55 54.2 14.85 53.9 15.6 L53.9 15.65 Q53.85 16.0 53.25 16.0" fill="#000000" fill-rule="evenodd" stroke="none"/>
      <path d="M51.9 14.55 L47.2 12.4 Q39.5 8.8 35.0 8.8 30.15 8.75 14.65 16.3 L1.1 23.3 2.1 14.3 2.95 6.9 3.2 5.1 3.2 4.9 13.4 2.55 Q25.4 0.35 33.4 1.25 41.55 2.2 48.05 8.5 50.35 10.75 51.85 13.1 L52.85 14.9 51.9 14.55" fill="#009900" fill-rule="evenodd" stroke="none"/>
    </g>
    <g id="shape3" transform="matrix(1.0, 0.0, 0.0, 1.0, 0.5, 0.5)">
      <path d="M0.95 74.9 L0.5 72.25 Q-1.1 59.8 2.55 46.0 4.1 40.25 6.4 34.8 8.4 30.0 10.95 25.55 13.4 21.15 16.3 17.25 19.75 12.6 23.6 8.45 27.5 4.15 32.65 1.65 35.2 0.5 37.75 0.05 39.85 -0.2 41.75 0.5 44.65 1.45 48.2 4.15 54.45 8.8 52.25 17.05 L51.5 19.65 Q50.0 25.6 46.25 30.35 45.9 31.7 48.0 36.3 48.9 38.2 51.55 42.2 L57.45 51.05 Q58.9 53.25 60.0 55.9 L55.2 50.4 Q49.5 44.25 47.8 41.85 44.4 37.05 44.4 32.85 L44.6 29.45 38.75 27.05 Q36.0 31.05 35.85 33.7 35.65 36.4 33.1 43.45 30.55 50.45 23.65 60.85 16.7 71.25 17.7 79.4 18.3 84.8 21.05 87.8 11.0 85.55 4.3 78.85 L0.95 74.9 M62.7 72.2 L62.5 74.6 62.2 75.0 62.7 72.2" fill="#009900" fill-rule="evenodd" stroke="none"/>
      <path d="M60.0 55.9 Q61.15 58.75 61.9 62.05 62.95 67.1 62.7 72.2 L62.2 75.0 Q58.15 79.9 51.7 83.4 41.5 88.95 32.05 88.95 26.1 88.95 21.05 87.8 18.3 84.8 17.7 79.4 16.7 71.25 23.65 60.85 30.55 50.45 33.1 43.45 35.65 36.4 35.85 33.7 36.0 31.05 38.75 27.05 L44.6 29.45 44.4 32.85 Q44.4 37.05 47.8 41.85 49.5 44.25 55.2 50.4 L60.0 55.9" fill="#ffffff" fill-rule="evenodd" stroke="none"/>
      <path d="M62.5 74.6 L62.25 76.5 Q59.65 92.7 43.9 97.35 L42.6 97.7 Q37.15 99.15 31.3 98.8 25.85 98.3 20.7 97.05 14.95 95.6 10.3 92.05 L9.7 91.55 Q2.95 85.85 0.95 74.9 L4.3 78.85 Q11.0 85.55 21.05 87.8 22.4 89.35 24.3 90.25 32.25 94.1 40.2 92.8 54.55 90.45 59.5 82.75 61.15 80.15 61.9 76.75 L62.2 75.0 62.5 74.6" fill="#006700" fill-rule="evenodd" stroke="none"/>
      <path d="M21.05 87.8 Q26.1 88.95 32.05 88.95 41.5 88.95 51.7 83.4 58.15 79.9 62.2 75.0 L61.9 76.75 Q61.15 80.15 59.5 82.75 54.55 90.45 40.2 92.8 32.25 94.1 24.3 90.25 22.4 89.35 21.05 87.8" fill="#cccccc" fill-rule="evenodd" stroke="none"/>
      <path d="M0.95 74.9 L0.5 72.25 Q-1.1 59.8 2.55 46.0 4.1 40.25 6.4 34.8 8.4 30.0 10.95 25.55 13.4 21.15 16.3 17.25 19.75 12.6 23.6 8.45 27.5 4.15 32.65 1.65 35.2 0.5 37.75 0.05 39.85 -0.2 41.75 0.5 44.65 1.45 48.2 4.15 54.45 8.8 52.25 17.05 L51.5 19.65 Q50.0 25.6 46.25 30.35 45.9 31.7 48.0 36.3 48.9 38.2 51.55 42.2 L57.45 51.05 Q58.9 53.25 60.0 55.9 61.15 58.75 61.9 62.05 62.95 67.1 62.7 72.2 L62.5 74.6 62.25 76.5 Q59.65 92.7 43.9 97.35 L42.6 97.7 Q37.15 99.15 31.3 98.8 25.85 98.3 20.7 97.05 14.95 95.6 10.3 92.05 L9.7 91.55 Q2.95 85.85 0.95 74.9" fill="none" stroke="#000000" stroke-linecap="round" stroke-linejoin="round" stroke-width="1.0"/>
      <path d="M21.05 87.8 Q18.3 84.8 17.7 79.4 16.7 71.25 23.65 60.85 30.55 50.45 33.1 43.45 35.65 36.4 35.85 33.7 36.0 31.05 38.75 27.05 L44.6 29.45 44.4 32.85 Q44.4 37.05 47.8 41.85 49.5 44.25 55.2 50.4 L60.0 55.9 M21.05 87.8 Q22.4 89.35 24.3 90.25 32.25 94.1 40.2 92.8 54.55 90.45 59.5 82.75 61.15 80.15 61.9 76.75 L62.2 75.0 62.7 72.2" fill="none" stroke="#000000" stroke-linecap="round" stroke-linejoin="round" stroke-width="0.5"/>
    </g>
    <g id="shape4" transform="matrix(1.0, 0.0, 0.0, 1.0, 0.5, 0.35)">
      <path d="M44.05 13.45 Q46.95 12.3 49.25 10.95 L50.35 12.7 58.7 25.6 Q62.15 32.6 63.5 37.5 65.0 43.4 65.05 51.4 L65.05 52.05 Q59.15 55.25 47.65 57.6 36.4 59.8 29.8 59.85 L28.25 59.85 29.2 57.7 29.25 57.55 30.5 52.85 Q31.8 46.75 31.8 41.6 31.8 34.3 29.5 25.6 L29.45 25.6 26.75 17.1 Q25.0 11.3 17.3 6.5 11.7 3.0 6.95 1.8 L7.7 0.4 7.75 0.4 Q13.5 1.7 17.4 4.0 L17.45 4.0 Q23.95 7.75 28.6 15.2 L28.7 15.35 28.85 15.4 30.25 15.6 32.8 15.8 Q38.1 15.8 44.05 13.45" fill="#bf0101" fill-rule="evenodd" stroke="none"/>
      <path d="M7.2 -0.35 L7.9 -0.35 Q13.8 1.0 17.8 3.35 24.4 7.15 29.15 14.65 L30.35 14.85 32.8 15.05 Q38.0 15.0 43.8 12.75 L43.75 12.75 Q46.8 11.5 49.15 10.1 L49.5 9.9 49.7 10.2 51.0 12.3 59.35 25.2 59.35 25.25 Q62.85 32.3 64.2 37.3 L64.25 37.3 Q65.8 43.3 65.8 51.4 L65.8 52.25 65.8 52.5 65.6 52.6 Q59.65 55.9 47.8 58.35 36.5 60.6 29.8 60.6 L27.65 60.6 27.05 60.6 27.35 60.05 28.3 57.9 Q23.0 57.9 12.8 55.55 0.75 52.7 -0.3 50.6 L-0.5 50.25 0.15 49.9 0.35 50.25 Q1.45 52.1 12.95 54.8 23.3 57.2 28.6 57.15 L29.75 52.7 Q31.0 46.65 31.05 41.6 31.05 34.4 28.75 25.8 L28.75 25.85 26.05 17.3 Q24.3 11.8 16.9 7.15 11.1 3.5 6.25 2.45 L5.65 2.3 6.0 1.85 7.1 -0.15 7.2 -0.35 M44.05 13.45 Q38.1 15.8 32.8 15.8 L30.25 15.6 28.85 15.4 28.7 15.35 28.6 15.2 Q23.95 7.75 17.45 4.0 L17.4 4.0 Q13.5 1.7 7.75 0.4 L7.7 0.4 6.95 1.8 Q11.7 3.0 17.3 6.5 25.0 11.3 26.75 17.1 L29.45 25.6 29.5 25.6 Q31.8 34.3 31.8 41.6 31.8 46.75 30.5 52.85 L29.25 57.55 29.2 57.7 28.25 59.85 29.8 59.85 Q36.4 59.8 47.65 57.6 59.15 55.25 65.05 52.05 L65.05 51.4 Q65.0 43.4 63.5 37.5 62.15 32.6 58.7 25.6 L50.35 12.7 49.25 10.95 Q46.95 12.3 44.05 13.45" fill="#000000" fill-rule="evenodd" stroke="none"/>
    </g>
    <g id="shape5" transform="matrix(1.0, 0.0, 0.0, 1.0, 0.0, 0.0)">
      <path d="M21.1 8.85 L21.35 7.65 19.55 11.2 19.35 11.05 19.25 10.0 18.9 10.8 Q18.5 9.65 18.85 8.0 L19.0 7.2 Q18.4 8.5 18.55 10.1 18.7 10.4 18.15 9.9 L17.8 7.4 17.0 6.55 16.15 5.1 15.85 6.1 15.5 6.1 14.5 4.25 13.7 4.85 13.65 2.35 12.35 4.4 12.35 3.85 Q12.35 2.7 12.65 1.9 13.2 0.35 14.1 0.45 L15.35 1.15 Q17.15 2.35 18.9 3.85 20.75 5.55 22.35 7.8 L21.5 9.0 21.45 8.75 21.1 8.85" fill="#cb7814" fill-rule="evenodd" stroke="none"/>
      <path d="M21.45 8.75 L21.5 9.0 21.15 9.55 21.45 8.75 M20.3 14.8 L21.4 14.65 18.2 17.05 18.45 16.6 18.45 15.9 20.3 14.8 M14.9 17.3 L15.95 17.25 16.25 16.95 16.9 17.5 14.35 18.9 10.25 21.05 6.1 22.9 Q3.35 23.8 0.5 23.85 L0.45 22.85 4.75 22.05 Q5.65 22.0 8.2 20.8 L11.25 18.95 11.7 19.1 Q12.85 18.85 14.0 17.55 L14.9 17.3" fill="#cc9966" fill-rule="evenodd" stroke="none"/>
      <path d="M18.9 10.8 L19.25 10.0 19.35 11.05 19.55 11.2 21.35 7.65 21.1 8.85 Q20.6 10.45 20.55 12.15 L20.5 14.0 Q19.5 13.05 18.9 10.8 M21.5 9.0 L22.35 7.8 Q22.9 9.25 22.75 11.0 22.55 13.2 21.55 13.75 L21.1 13.75 21.1 13.7 21.15 9.55 21.5 9.0 M12.35 4.4 L13.65 2.35 13.7 4.85 14.5 4.25 15.5 6.1 15.85 6.1 16.15 5.1 17.0 6.55 17.8 7.4 18.15 9.9 17.75 9.7 17.6 9.15 Q16.4 9.05 15.3 7.85 L14.3 6.75 12.35 4.55 12.35 4.45 12.35 4.4" fill="#996633" fill-rule="evenodd" stroke="none"/>
      <path d="M18.9 10.8 Q19.5 13.05 20.5 14.0 L20.55 12.15 Q20.6 10.45 21.1 8.85 L21.45 8.75 21.15 9.55 21.1 13.7 21.05 13.75 21.1 13.75 21.55 13.75 Q22.55 13.2 22.75 11.0 22.9 9.25 22.35 7.8 20.75 5.55 18.9 3.85 17.15 2.35 15.35 1.15 L14.1 0.45 Q13.2 0.35 12.65 1.9 12.35 2.7 12.35 3.85 L12.35 4.4 12.35 4.45 12.35 4.55 14.3 6.75 15.3 7.85 Q16.4 9.05 17.6 9.15 L17.75 9.7 18.15 9.9 Q18.7 10.4 18.55 10.1 18.4 8.5 19.0 7.2 L18.85 8.0 Q18.5 9.65 18.9 10.8 M23.05 11.95 Q22.65 13.75 21.8 14.1 L21.75 14.8 19.65 16.55 12.7 20.45 Q8.15 22.9 4.3 23.85 L0.1 24.3 0.0 22.55 9.5 9.6 Q11.15 7.3 12.0 4.95 L11.95 3.3 12.05 1.95 12.45 1.1 Q12.8 0.5 13.3 0.2 L14.3 0.05 Q16.75 1.35 18.45 2.8 21.8 6.15 22.5 7.25 L23.1 9.05 23.05 11.95 M18.45 15.9 L18.45 16.6 18.2 17.05 21.4 14.65 20.3 14.8 Q19.65 14.5 19.4 13.25 19.05 11.75 18.5 10.95 L18.1 10.5 17.5 11.0 17.4 10.0 14.35 7.45 14.4 8.1 12.35 5.1 11.5 7.25 10.0 9.75 8.55 11.7 5.45 15.8 6.1 16.2 6.05 16.7 Q5.9 17.5 5.45 17.8 L5.3 17.85 Q4.1 19.85 2.95 19.85 L2.65 19.6 0.7 22.4 2.8 21.95 3.2 21.85 6.65 21.15 Q7.7 21.2 8.7 20.2 L8.2 20.8 Q5.65 22.0 4.75 22.05 L0.45 22.85 0.5 23.85 Q3.35 23.8 6.1 22.9 L10.25 21.05 14.35 18.9 16.9 17.5 16.25 16.95 15.95 17.25 14.9 17.3 14.4 17.05 Q14.05 16.65 14.0 15.55 L16.05 14.4 16.05 13.4 16.2 13.15 Q17.9 12.65 18.45 15.9 M13.4 12.3 Q12.85 12.3 12.4 11.85 12.0 11.4 11.7 12.0 L11.8 10.85 12.35 10.65 11.95 11.05 Q13.4 12.65 14.95 11.2 L13.4 10.8 13.65 10.55 15.55 10.95 15.55 11.25 14.85 11.8 Q14.15 12.3 13.4 12.3 M9.65 15.6 L9.1 16.2 9.05 16.25 7.85 16.65 7.4 16.2 8.05 14.5 10.05 14.65 9.65 15.6 M7.75 15.85 L9.8 14.9 8.1 14.9 7.75 15.75 7.65 15.85 7.75 15.85 M5.65 16.6 L5.25 16.3 2.9 19.25 Q4.15 19.55 4.8 17.45 L5.3 17.05 5.65 16.6 M17.1 16.7 L18.15 15.9 Q18.1 14.6 17.55 14.15 L17.1 13.75 Q16.45 15.85 15.15 15.35 L14.45 15.7 14.55 16.5 17.5 15.8 17.1 16.65 17.05 16.7 17.1 16.7 M14.0 17.55 Q12.85 18.85 11.7 19.1 L14.0 17.55" fill="#000000" fill-rule="evenodd" stroke="none"/>
      <path d="M3.2 21.85 L2.8 21.95 Q3.5 21.65 3.95 20.2 L4.1 19.7 7.2 17.45 6.05 16.7 6.1 16.2 5.45 15.8 8.55 11.7 Q10.3 11.35 12.05 9.95 L12.75 9.45 10.0 9.75 11.5 7.25 12.35 5.1 14.4 8.1 14.35 7.45 17.4 10.0 17.5 11.0 18.1 10.5 18.5 10.95 Q18.1 11.45 17.65 11.35 L17.05 11.85 Q16.8 12.6 16.55 12.55 L14.85 11.8 15.55 11.25 15.55 10.95 13.65 10.55 12.35 10.65 11.8 10.85 11.7 12.0 Q12.0 11.4 12.4 11.85 12.85 12.3 13.4 12.3 L12.65 14.15 12.6 15.4 9.65 15.6 10.05 14.65 8.05 14.5 7.4 16.2 7.85 16.65 9.05 16.25 9.05 16.3 8.8 16.5 8.6 17.35 8.8 18.0 Q8.1 19.5 7.15 19.85 5.15 20.55 3.2 21.85" fill="#ffdab5" fill-rule="evenodd" stroke="none"/>
      <path d="M12.35 10.65 L13.65 10.55 13.4 10.8 14.95 11.2 Q13.4 12.65 11.95 11.05 L12.35 10.65 M5.65 16.6 L5.3 17.05 4.8 17.45 Q4.15 19.55 2.9 19.25 L5.25 16.3 5.65 16.6" fill="#cc6666" fill-rule="evenodd" stroke="none"/>
      <path d="M18.45 15.9 Q17.9 12.65 16.2 13.15 L16.05 13.4 16.05 14.4 14.0 15.55 Q14.05 16.65 14.4 17.05 L14.9 17.3 14.0 17.55 11.7 19.1 11.25 18.95 8.2 20.8 8.7 20.2 Q7.7 21.2 6.65 21.15 L3.2 21.85 Q5.15 20.55 7.15 19.85 8.1 19.5 8.8 18.0 L8.6 17.35 8.8 16.5 9.05 16.3 9.1 16.2 9.65 15.6 12.6 15.4 12.65 14.15 13.4 12.3 Q14.15 12.3 14.85 11.8 L16.55 12.55 Q16.8 12.6 17.05 11.85 L17.65 11.35 Q18.1 11.45 18.5 10.95 19.05 11.75 19.4 13.25 19.65 14.5 20.3 14.8 L18.45 15.9" fill="#ffcc99" fill-rule="evenodd" stroke="none"/>
      <path d="M2.8 21.95 L0.7 22.4 2.65 19.6 2.95 19.85 Q4.1 19.85 5.3 17.85 L5.45 17.8 Q5.9 17.5 6.05 16.7 L7.2 17.45 4.1 19.7 3.95 20.2 Q3.5 21.65 2.8 21.95 M8.55 11.7 L10.0 9.75 12.75 9.45 12.05 9.95 Q10.3 11.35 8.55 11.7" fill="#ffe7ce" fill-rule="evenodd" stroke="none"/>
      <path d="M7.75 15.75 L8.1 14.9 9.8 14.9 7.75 15.85 7.75 15.75" fill="#339900" fill-rule="evenodd" stroke="none"/>
      <path d="M9.1 16.2 L9.05 16.3 9.05 16.25 9.1 16.2" fill="#ffe0c1" fill-rule="evenodd" stroke="none"/>
      <path d="M17.1 16.65 L17.5 15.8 14.55 16.5 14.45 15.7 15.15 15.35 Q16.45 15.85 17.1 13.75 L17.55 14.15 Q18.1 14.6 18.15 15.9 L17.1 16.7 17.1 16.65" fill="#cccc99" fill-rule="evenodd" stroke="none"/>
    </g>
    <g id="shape6" transform="matrix(1.0, 0.0, 0.0, 1.0, 0.0, -0.65)">
      <path d="M32.1 4.05 L32.05 4.35 Q31.05 10.7 25.1 18.65 22.9 21.45 16.25 25.2 9.35 29.0 6.15 29.0 3.3 29.0 1.65 27.65 -0.05 26.4 0.0 24.5 -0.05 21.85 3.25 19.0 L9.35 13.9 9.35 13.85 Q12.0 11.15 14.65 6.85 16.85 3.3 17.65 1.0 L17.75 0.75 32.1 4.05 M24.5 18.2 Q30.15 10.65 31.25 4.6 L21.65 2.35 Q16.8 12.0 11.25 16.0 16.7 10.45 20.9 2.2 L18.25 1.55 Q17.4 3.85 15.3 7.25 12.6 11.65 9.9 14.45 L9.85 14.45 3.75 19.55 Q0.75 22.15 0.75 24.5 0.75 26.0 2.1 27.05 3.6 28.2 6.15 28.25 9.25 28.2 15.9 24.55 22.4 20.95 24.5 18.2 M17.75 0.7 L17.75 0.65 18.1 0.75 17.75 0.7" fill="#000000" fill-rule="evenodd" stroke="none"/>
      <path d="M24.5 18.2 Q22.4 20.95 15.9 24.55 9.25 28.2 6.15 28.25 3.6 28.2 2.1 27.05 0.75 26.0 0.75 24.5 0.75 22.15 3.75 19.55 L9.85 14.45 9.9 14.45 Q12.6 11.65 15.3 7.25 17.4 3.85 18.25 1.55 L20.9 2.2 Q16.7 10.45 11.25 16.0 16.8 12.0 21.65 2.35 L31.25 4.6 Q30.15 10.65 24.5 18.2" fill="#cc8f65" fill-rule="evenodd" stroke="none"/>
    </g>
    <g id="shape7" transform="matrix(1.0, 0.0, 0.0, 1.0, 0.0, 0.0)">
      <path d="M7.4 1.15 L1.95 1.0 Q5.55 1.1 6.85 3.15 L6.95 3.35 Q4.8 1.6 1.15 1.7 L0.0 1.9 1.15 0.85 Q3.95 -0.9 7.45 1.05 L7.4 1.15" fill="#000000" fill-rule="evenodd" stroke="none"/>
    </g>
    <g id="shape8" transform="matrix(1.0, 0.0, 0.0, 1.0, 0.0, 0.0)">
      <path d="M12.35 16.25 Q9.75 18.65 6.65 18.25 3.45 17.85 1.55 14.9 -0.35 12.0 0.1 8.25 0.55 4.45 3.1 2.0 5.65 -0.3 8.8 0.05 12.0 0.5 13.9 3.35 15.8 6.3 15.35 10.1 14.9 13.85 12.35 16.25" fill="#000000" fill-opacity="0.2" fill-rule="evenodd" stroke="none"/>
    </g>
    <g id="shape9" transform="matrix(1.0, 0.0, 0.0, 1.0, -0.4, 1.7)">
      <path d="M7.0 -0.9 Q11.5 -2.4 16.4 -1.05 21.4 0.4 23.8 3.9 25.3 6.0 25.4 8.15 L25.2 10.3 24.9 11.2 24.85 11.2 Q23.4 14.8 18.75 16.4 L18.8 16.4 Q14.2 18.0 9.35 16.55 4.35 15.2 2.0 11.65 -0.55 8.0 0.95 4.4 L1.15 4.0 Q2.7 0.65 7.0 -0.9 M23.0 12.45 L23.95 10.8 23.95 10.85 Q25.2 7.6 23.0 4.45 20.7 1.2 16.1 -0.1 L16.15 -0.1 Q11.5 -1.4 7.3 0.05 L7.35 0.05 Q3.25 1.55 1.85 4.8 L1.55 5.85 Q0.95 8.4 2.8 11.05 L2.85 11.1 Q5.05 14.35 9.65 15.6 14.2 16.9 18.45 15.45 21.45 14.4 23.0 12.45 M4.1 7.45 L3.45 8.0 Q3.95 10.15 5.15 12.0 L5.7 12.8 Q3.55 11.1 2.7 8.6 L2.15 9.25 2.15 8.65 Q2.85 7.05 4.1 7.45" fill="#000000" fill-rule="evenodd" stroke="none"/>
      <path d="M23.0 12.45 Q21.45 14.4 18.45 15.45 14.2 16.9 9.65 15.6 5.05 14.35 2.85 11.1 L2.8 11.05 Q0.95 8.4 1.55 5.85 L2.0 6.95 2.45 7.0 3.35 6.45 4.1 7.45 5.5 8.8 Q9.2 12.2 14.05 13.45 18.7 14.65 23.0 12.45 M4.1 7.45 Q2.85 7.05 2.15 8.65 L2.15 9.25 2.7 8.6 Q3.55 11.1 5.7 12.8 L5.15 12.0 Q3.95 10.15 3.45 8.0 L4.1 7.45" fill="#f99108" fill-rule="evenodd" stroke="none"/>
      <path d="M1.55 5.85 L1.85 4.8 Q3.25 1.55 7.35 0.05 L7.3 0.05 Q11.5 -1.4 16.15 -0.1 L16.1 -0.1 Q20.7 1.2 23.0 4.45 25.2 7.6 23.95 10.85 L23.95 10.8 23.0 12.45 Q18.7 14.65 14.05 13.45 9.2 12.2 5.5 8.8 L4.1 7.45 3.35 6.45 2.45 7.0 2.0 6.95 1.55 5.85" fill="#ffb409" fill-rule="evenodd" stroke="none"/>
    </g>
    <g id="shape10" transform="matrix(1.0, 0.0, 0.0, 1.0, 0.0, 0.0)">
      <path d="M15.35 1.8 L13.95 2.75 15.15 2.65 16.85 3.0 Q20.55 4.0 22.25 7.45 L21.5 6.55 Q18.8 3.8 14.95 3.4 L13.15 3.7 13.1 3.75 13.05 3.75 12.15 4.0 11.35 4.35 Q13.0 4.8 14.25 6.05 16.75 8.5 16.75 13.7 16.7 18.0 15.65 21.65 L15.55 22.05 15.3 22.8 14.05 25.7 12.55 28.1 15.25 20.7 15.3 20.5 Q16.1 17.45 16.05 13.25 15.95 8.9 13.7 6.6 12.35 5.2 10.35 4.9 L10.3 4.9 8.85 4.75 7.55 5.05 7.5 5.05 6.6 5.4 7.25 5.85 8.25 6.6 10.1 8.1 10.1 8.15 Q10.65 8.6 11.05 13.75 11.4 18.75 8.35 24.8 5.3 30.7 1.95 35.45 0.35 37.6 0.85 39.45 1.35 41.25 3.95 42.75 L4.4 43.0 Q9.5 45.6 14.85 41.65 20.5 37.45 22.5 32.35 L22.5 32.3 Q24.75 26.8 25.65 20.95 26.5 15.05 25.8 9.05 25.0 3.25 22.1 1.7 19.1 0.1 16.55 1.2 L15.35 1.8 M22.45 1.05 Q25.7 2.65 26.55 8.95 27.3 15.05 26.4 21.05 25.45 27.0 23.2 32.6 21.1 37.9 15.3 42.25 10.15 46.0 5.25 44.2 L3.6 43.4 Q0.65 41.7 0.15 39.6 -0.45 37.5 1.35 35.0 4.7 30.3 7.7 24.45 10.6 18.65 10.3 13.8 9.95 9.05 9.65 8.7 L9.6 8.7 7.8 7.2 6.45 6.2 5.7 5.65 5.3 5.4 5.7 5.05 Q6.15 4.65 7.3 4.35 L8.85 4.0 10.25 4.1 11.05 3.65 11.3 3.55 11.9 3.3 11.85 3.3 12.75 3.0 Q13.15 2.4 13.85 1.85 14.8 1.1 16.25 0.5 19.1 -0.7 22.45 1.05 M8.0 40.8 Q8.5 41.4 9.25 41.6 L12.25 41.85 12.05 41.9 9.0 42.2 Q7.3 41.85 6.45 39.6 5.6 37.45 8.45 34.1 L7.5 36.3 Q6.8 38.3 7.25 39.5 L8.0 40.8" fill="#000000" fill-rule="evenodd" stroke="none"/>
      <path d="M15.35 1.8 L16.55 1.2 Q19.1 0.1 22.1 1.7 25.0 3.25 25.8 9.05 26.5 15.05 25.65 20.95 24.75 26.8 22.5 32.3 L22.5 32.35 Q20.5 37.45 14.85 41.65 9.5 45.6 4.4 43.0 3.5 41.55 3.5 40.25 3.5 36.7 8.5 28.05 13.5 19.35 13.5 13.0 13.5 10.1 12.5 8.25 11.15 5.75 8.1 5.75 L7.25 5.85 6.6 5.4 7.5 5.05 7.55 5.05 8.85 4.75 10.3 4.9 10.35 4.9 Q12.35 5.2 13.7 6.6 15.95 8.9 16.05 13.25 16.1 17.45 15.3 20.5 L15.25 20.7 12.55 28.1 14.05 25.7 11.55 30.15 7.5 36.3 8.45 34.1 Q5.6 37.45 6.45 39.6 7.3 41.85 9.0 42.2 L12.05 41.9 12.25 41.85 9.25 41.6 Q8.5 41.4 8.0 40.8 8.75 41.5 10.1 41.5 13.4 41.5 17.5 36.8 21.45 32.25 22.7 27.3 L21.0 27.75 Q17.95 27.75 16.4 24.7 15.8 23.5 15.55 22.05 L15.65 21.65 Q16.7 18.0 16.75 13.7 16.75 8.5 14.25 6.05 13.0 4.8 11.35 4.35 L12.15 4.0 13.05 3.75 13.1 3.75 Q17.5 4.4 20.05 6.3 22.85 8.4 23.5 12.25 L23.65 12.05 23.75 12.0 24.0 10.0 Q24.0 6.5 21.25 4.0 18.75 1.75 16.1 1.75 L15.35 1.8" fill="#f8c592" fill-rule="evenodd" stroke="none"/>
      <path d="M13.1 3.75 L13.15 3.7 14.95 3.4 Q18.8 3.8 21.5 6.55 L22.25 7.45 Q20.55 4.0 16.85 3.0 L15.15 2.65 13.95 2.75 15.35 1.8 16.1 1.75 Q18.75 1.75 21.25 4.0 24.0 6.5 24.0 10.0 L23.75 12.0 23.65 12.05 23.5 12.25 Q22.85 8.4 20.05 6.3 17.5 4.4 13.1 3.75 M4.4 43.0 L3.95 42.75 Q1.35 41.25 0.85 39.45 0.35 37.6 1.95 35.45 5.3 30.7 8.35 24.8 11.4 18.75 11.05 13.75 10.65 8.6 10.1 8.15 L10.1 8.1 8.25 6.6 7.25 5.85 8.1 5.75 Q11.15 5.75 12.5 8.25 13.5 10.1 13.5 13.0 13.5 19.35 8.5 28.05 3.5 36.7 3.5 40.25 3.5 41.55 4.4 43.0 M14.05 25.7 L15.3 22.8 15.55 22.05 Q15.8 23.5 16.4 24.7 17.95 27.75 21.0 27.75 L22.7 27.3 Q21.45 32.25 17.5 36.8 13.4 41.5 10.1 41.5 8.75 41.5 8.0 40.8 L7.25 39.5 Q6.8 38.3 7.5 36.3 L11.55 30.15 14.05 25.7" fill="#cc8f65" fill-rule="evenodd" stroke="none"/>
    </g>
    <g id="shape11" transform="matrix(1.0, 0.0, 0.0, 1.0, 0.0, 0.0)">
      <path d="M7.5 26.8 Q12.55 23.55 19.25 20.95 31.15 16.1 39.6 14.85 48.05 13.6 56.05 14.7 L61.7 15.8 61.4 10.45 Q58.8 8.05 54.55 5.65 45.7 0.75 36.6 1.0 24.8 1.35 12.75 5.5 L1.1 9.7 0.2 9.95 0.0 10.0 0.15 9.9 Q5.15 7.15 8.75 5.85 L18.55 2.45 Q24.6 0.35 36.55 0.0 45.9 -0.25 55.05 4.75 L55.05 4.8 Q59.55 7.3 62.25 9.85 L62.4 10.2 62.7 16.5 62.6 16.8 62.35 17.0 62.05 17.0 Q59.75 16.2 55.9 15.7 48.05 14.6 39.75 15.85 31.45 17.1 19.65 21.9 L19.65 21.85 7.1 27.05 7.5 26.8" fill="#000000" fill-rule="evenodd" stroke="none"/>
      <path d="M0.2 9.95 L1.1 9.7 12.75 5.5 Q24.8 1.35 36.6 1.0 45.7 0.75 54.55 5.65 58.8 8.05 61.4 10.45 L61.7 15.8 56.05 14.7 Q48.05 13.6 39.6 14.85 31.15 16.1 19.25 20.95 12.55 23.55 7.5 26.8 L0.2 9.95" fill="#009900" fill-rule="evenodd" stroke="none"/>
    </g>
    <g id="shape12" transform="matrix(1.0, 0.0, 0.0, 1.0, 0.0, -0.05)">
      <path d="M45.1 4.7 Q45.85 6.0 47.15 6.6 49.45 7.7 50.35 8.75 51.2 9.75 52.1 12.25 52.9 14.5 54.15 15.6 55.2 16.5 56.1 19.1 56.9 21.35 56.9 22.65 L56.3 24.35 Q55.7 25.5 55.7 26.0 55.7 26.5 56.2 27.85 L56.65 29.7 Q56.65 30.7 55.7 33.05 54.8 35.25 53.5 37.45 52.9 38.45 50.85 39.6 48.6 40.8 46.7 40.8 43.9 40.8 42.75 39.95 L41.35 38.3 Q40.4 37.2 40.25 35.95 L40.15 34.25 Q39.8 32.85 34.35 32.85 28.75 32.85 22.75 36.85 L16.75 40.8 Q13.9 40.8 6.8 32.8 0.0 25.1 0.0 23.0 0.0 21.15 11.7 16.15 24.15 10.85 30.65 11.45 29.7 9.05 29.7 8.05 29.7 3.5 33.05 1.45 35.25 0.05 37.95 0.05 41.15 0.05 44.25 3.0 L45.1 4.7 M53.4 35.0 Q53.55 34.35 52.9 31.15 L54.45 33.2 Q55.6 32.2 55.6 29.5 L55.4 27.85 55.05 26.95 53.85 28.5 53.35 29.9 Q53.65 26.0 54.85 25.15 55.9 24.4 55.9 22.6 55.9 19.3 54.05 16.95 52.55 15.05 49.3 13.15 L51.3 13.6 Q50.95 10.65 49.25 8.95 47.1 6.9 43.15 7.05 L44.8 6.4 Q44.5 4.1 42.25 2.55 40.2 1.1 37.9 1.1 37.0 1.1 35.05 1.9 32.75 2.9 31.75 4.05 L31.15 5.05 Q30.7 6.0 30.7 8.0 30.7 8.7 31.2 10.05 L31.85 11.55 32.5 12.25 34.15 12.35 32.45 14.65 Q31.65 15.8 31.05 18.1 30.55 20.05 30.55 20.95 30.55 24.05 33.55 27.35 36.9 31.1 41.8 31.85 L43.35 32.15 40.45 32.0 Q41.3 36.35 42.5 38.0 43.85 39.8 46.7 39.8 50.35 39.8 52.05 37.8 L53.4 35.0 M28.5 32.7 L39.45 32.4 35.9 30.15 Q33.05 28.45 32.05 27.25 30.85 25.85 30.15 23.65 29.55 21.7 29.55 19.85 29.55 18.3 30.4 16.3 31.15 14.5 31.95 13.65 31.45 12.8 29.7 12.75 L26.15 13.0 Q21.85 13.35 14.4 16.1 5.7 19.4 1.25 23.3 2.4 26.2 6.55 31.05 11.65 36.9 16.65 39.55 22.65 34.55 28.5 32.7" fill="#000000" fill-rule="evenodd" stroke="none"/>
      <path d="M31.75 4.05 Q32.75 2.9 35.05 1.9 37.0 1.1 37.9 1.1 40.2 1.1 42.25 2.55 44.5 4.1 44.8 6.4 L43.15 7.05 Q47.1 6.9 49.25 8.95 50.95 10.65 51.3 13.6 L49.3 13.15 Q52.55 15.05 54.05 16.95 55.9 19.3 55.9 22.6 55.9 24.4 54.85 25.15 53.65 26.0 53.35 29.9 L53.85 28.5 55.05 26.95 55.4 27.85 55.6 29.5 Q55.6 32.2 54.45 33.2 L52.9 31.15 Q53.55 34.35 53.4 35.0 52.9 35.5 51.55 35.95 L50.1 36.25 Q45.55 36.25 45.55 32.0 L46.75 31.1 48.25 29.75 Q41.4 27.2 39.45 25.7 35.5 22.85 35.5 17.6 35.5 16.65 36.2 14.25 L37.1 11.5 Q35.8 11.05 34.05 9.2 31.7 6.7 31.75 4.05 M26.15 13.0 L27.0 14.1 28.25 15.25 26.4 19.4 Q26.0 20.55 26.0 23.0 26.0 26.0 26.65 28.4 27.25 30.45 28.5 32.7 22.65 34.55 16.65 39.55 11.65 36.9 6.55 31.05 2.4 26.2 1.25 23.3 5.7 19.4 14.4 16.1 21.85 13.35 26.15 13.0" fill="#ffffff" fill-rule="evenodd" stroke="none"/>
      <path d="M31.75 4.05 Q31.7 6.7 34.05 9.2 35.8 11.05 37.1 11.5 L36.2 14.25 Q35.5 16.65 35.5 17.6 35.5 22.85 39.45 25.7 41.4 27.2 48.25 29.75 L46.75 31.1 45.55 32.0 Q45.55 36.25 50.1 36.25 L51.55 35.95 Q52.9 35.5 53.4 35.0 L52.05 37.8 Q50.35 39.8 46.7 39.8 43.85 39.8 42.5 38.0 41.3 36.35 40.45 32.0 L43.35 32.15 41.8 31.85 Q36.9 31.1 33.55 27.35 30.55 24.05 30.55 20.95 30.55 20.05 31.05 18.1 31.65 15.8 32.45 14.65 L34.15 12.35 32.5 12.25 31.85 11.55 31.2 10.05 Q30.7 8.7 30.7 8.0 30.7 6.0 31.15 5.05 L31.75 4.05 M28.5 32.7 Q27.25 30.45 26.65 28.4 26.0 26.0 26.0 23.0 26.0 20.55 26.4 19.4 L28.25 15.25 27.0 14.1 26.15 13.0 29.7 12.75 Q31.45 12.8 31.95 13.65 31.15 14.5 30.4 16.3 29.55 18.3 29.55 19.85 29.55 21.7 30.15 23.65 30.85 25.85 32.05 27.25 33.05 28.45 35.9 30.15 L39.45 32.4 28.5 32.7" fill="#cccccc" fill-rule="evenodd" stroke="none"/>
    </g>
  </defs>
</svg>
