<?xml version="1.0" encoding="UTF-8" standalone="no"?>
<svg xmlns:ffdec="https://www.free-decompiler.com/flash" xmlns:xlink="http://www.w3.org/1999/xlink" ffdec:objectType="frame" height="251.2px" width="162.6px" xmlns="http://www.w3.org/2000/svg">
  <g transform="matrix(1.0, 0.0, 0.0, 1.0, -295.9, -22.4)">
    <use ffdec:characterId="186" height="45.85" transform="matrix(0.463, 0.0, 0.0, 0.463, 359.2675, 245.7009)" width="89.15" xlink:href="#shape0"/>
    <use ffdec:characterId="187" height="55.85" transform="matrix(0.463, 0.0, 0.0, 0.463, 338.55, 246.3777)" width="89.25" xlink:href="#shape1"/>
    <use ffdec:characterId="247" height="34.45" transform="matrix(1.0, 0.0, 0.0, 1.0, 309.15, 154.45)" width="48.55" xlink:href="#shape2"/>
    <use ffdec:characterId="229" height="95.9" transform="matrix(1.0, 0.0, 0.0, 1.0, 335.15, 160.2)" width="58.25" xlink:href="#shape3"/>
    <use ffdec:characterId="248" height="70.3" transform="matrix(1.0, 0.0, 0.0, 1.0, 335.35, 182.65)" width="60.2" xlink:href="#shape4"/>
    <use ffdec:characterId="191" height="24.35" transform="matrix(1.0, 0.0, 0.0, 1.0, 367.15, 202.2)" width="23.2" xlink:href="#shape5"/>
    <use ffdec:characterId="215" height="16.15" transform="matrix(0.925, 0.0368, -0.0082, 0.9938, 349.8, 161.35)" width="15.75" xlink:href="#shape6"/>
    <use ffdec:characterId="115" height="4.15" transform="matrix(0.8113, -0.5846, 0.5846, 0.8113, 352.8188, 164.8632)" width="2.4" xlink:href="#shape7"/>
    <use ffdec:characterId="143" height="3.3" transform="matrix(0.0659, -0.9978, 0.9978, 0.0659, 356.5564, 164.9068)" width="3.1" xlink:href="#shape8"/>
    <use ffdec:characterId="194" height="18.3" transform="matrix(0.421, -0.907, 0.8427, 0.5597, 355.95, 181.0)" width="15.45" xlink:href="#shape9"/>
    <use ffdec:characterId="246" height="18.95" transform="matrix(0.421, -0.907, 0.907, 0.421, 354.1764, 178.9716)" width="25.0" xlink:href="#shape10"/>
    <use ffdec:characterId="225" height="69.5" transform="matrix(1.0, 0.0, 0.0, 1.0, 408.25, 87.45)" width="32.35" xlink:href="#shape11"/>
    <use ffdec:characterId="249" height="47.05" transform="matrix(1.0, 0.0, 0.0, 1.0, 345.15, 209.9)" width="15.75" xlink:href="#shape12"/>
  </g>
  <defs>
    <g id="shape0" transform="matrix(1.0, 0.0, 0.0, 1.0, 3.85, 2.05)">
      <path d="M11.35 -1.9 L12.6 -1.95 13.7 -2.0 14.55 -2.0 17.25 -1.85 32.0 -1.05 46.15 0.15 58.65 1.35 58.85 1.4 Q67.85 2.35 73.55 3.85 79.95 5.5 81.25 6.55 L82.0 7.3 83.5 9.6 Q85.65 14.0 85.25 20.7 85.1 23.9 84.75 25.75 84.15 28.65 82.95 30.45 L82.35 31.25 Q80.45 33.5 76.2 35.8 70.7 38.95 64.85 40.85 55.2 44.0 47.65 43.8 L47.2 43.75 Q43.1 43.55 39.65 42.35 L39.4 42.3 39.35 42.3 37.2 41.65 37.2 41.7 Q22.5 38.45 8.4 28.55 -2.2 21.1 -3.6 14.85 L-3.85 13.05 Q-3.8 11.5 -3.2 10.15 L-0.85 5.3 Q0.25 3.3 1.65 1.75 L2.8 0.65 Q4.45 -0.9 6.8 -1.2 L11.35 -1.9 M60.6 3.45 L58.25 3.15 14.45 -0.15 12.55 -0.1 Q9.55 0.0 6.8 0.85 5.45 1.15 4.4 2.0 3.45 2.8 2.05 4.5 0.65 6.15 -0.3 8.4 L-1.5 11.9 -1.75 13.2 -1.5 15.0 Q0.15 20.8 10.35 27.8 23.1 36.65 37.25 39.85 L37.25 41.25 37.35 39.8 39.85 40.55 40.65 40.75 40.95 40.85 44.95 41.5 Q53.5 42.35 63.6 39.1 69.95 37.1 74.7 34.4 L78.0 32.4 79.55 31.25 80.9 29.85 Q83.1 27.0 83.25 20.1 L83.05 15.05 Q82.75 12.15 81.55 10.25 80.9 9.3 79.85 8.45 L77.8 7.15 76.85 6.7 68.55 4.8 60.6 3.45 M77.8 11.8 L78.05 11.9 78.05 12.3 Q75.05 15.2 70.45 17.4 67.05 19.2 61.9 20.85 56.15 22.7 51.5 23.6 L44.95 24.2 Q45.6 25.9 45.5 29.3 L45.35 34.2 45.05 37.0 44.65 38.25 44.75 35.2 Q44.75 31.6 44.2 27.85 L43.65 23.95 Q41.55 23.45 38.0 21.9 L36.3 21.0 36.35 20.95 36.85 20.95 37.0 20.95 40.9 21.85 Q48.25 23.75 59.25 20.35 70.25 16.95 77.7 11.85 L77.8 11.8" fill="#000000" fill-rule="evenodd" stroke="none"/>
      <path d="M77.8 7.15 L79.85 8.45 Q80.9 9.3 81.55 10.25 82.75 12.15 83.05 15.05 L83.25 20.1 Q83.1 27.0 80.9 29.85 L79.55 31.25 78.0 32.4 74.7 34.4 Q69.95 37.1 63.6 39.1 53.5 42.35 44.95 41.5 L40.95 40.85 40.65 40.75 39.85 40.55 37.35 39.8 37.25 41.25 37.25 39.85 Q23.1 36.65 10.35 27.8 0.15 20.8 -1.5 15.0 L-1.75 13.2 -1.5 11.9 -0.3 8.4 Q0.65 6.15 2.05 4.5 3.45 2.8 4.4 2.0 5.45 1.15 6.8 0.85 9.55 0.0 12.55 -0.1 L14.45 -0.15 58.25 3.15 60.6 3.45 61.1 4.25 Q62.05 5.85 62.05 6.7 62.05 9.85 57.35 13.5 L52.05 16.8 Q47.95 18.95 44.25 20.0 L38.7 20.85 37.0 20.95 36.85 20.95 36.35 20.95 36.3 21.0 38.0 21.9 Q41.55 23.45 43.65 23.95 L44.2 27.85 Q44.75 31.6 44.75 35.2 L44.65 38.25 45.05 37.0 45.35 34.2 45.5 29.3 Q45.6 25.9 44.95 24.2 L51.5 23.6 Q56.15 22.7 61.9 20.85 67.05 19.2 70.45 17.4 75.05 15.2 78.05 12.3 L78.05 11.9 77.8 11.8 Q78.65 10.85 78.65 10.05 L78.6 8.65 Q78.55 8.05 77.8 7.15" fill="#f99108" fill-rule="evenodd" stroke="none"/>
      <path d="M60.6 3.45 L68.55 4.8 76.85 6.7 77.8 7.15 Q78.55 8.05 78.6 8.65 L78.65 10.05 Q78.65 10.85 77.8 11.8 L77.7 11.85 Q70.25 16.95 59.25 20.35 48.25 23.75 40.9 21.85 L37.0 20.95 38.7 20.85 44.25 20.0 Q47.95 18.95 52.05 16.8 L57.35 13.5 Q62.05 9.85 62.05 6.7 62.05 5.85 61.1 4.25 L60.6 3.45" fill="#f4ac09" fill-rule="evenodd" stroke="none"/>
    </g>
    <g id="shape1" transform="matrix(1.0, 0.0, 0.0, 1.0, 0.0, 2.1)">
      <path d="M9.65 -0.6 Q14.1 -2.55 18.95 -1.95 L27.7 -0.3 Q32.0 0.85 41.7 4.05 L60.2 10.15 71.15 13.95 76.65 16.15 Q79.4 17.25 82.7 19.4 L83.8 20.2 83.9 20.25 83.95 20.3 85.25 21.4 Q88.0 23.8 88.75 27.2 L89.1 29.65 Q89.45 33.15 89.05 36.1 88.6 39.05 87.25 41.8 86.25 43.5 84.8 44.65 83.05 46.1 80.4 47.25 L75.45 48.9 Q68.7 50.9 59.25 52.15 38.45 55.05 23.65 52.65 15.55 51.4 9.75 44.35 4.9 38.55 2.2 29.65 L2.15 29.45 Q-0.7 20.15 0.2 13.0 0.45 10.9 1.05 9.05 1.6 7.2 2.55 5.6 4.7 2.15 7.95 0.25 L9.65 -0.6 M84.35 23.4 L82.75 22.05 81.95 21.5 81.0 20.9 79.5 20.05 77.9 19.2 75.0 17.75 Q72.95 16.85 69.9 15.7 L59.05 11.95 38.7 5.0 Q29.6 1.8 24.8 0.55 20.3 -0.45 15.85 -0.35 10.9 -0.2 7.2 2.85 L6.85 3.15 5.3 4.75 4.2 6.25 3.65 7.3 3.3 8.05 2.8 9.2 Q1.55 12.55 1.7 16.7 1.9 23.35 4.0 29.65 5.2 33.25 6.95 36.75 12.65 47.6 19.95 49.9 23.5 51.1 28.5 51.5 L37.15 51.7 56.05 50.6 Q66.15 49.25 73.25 47.4 L78.7 45.75 Q81.95 44.55 83.6 43.0 86.2 40.4 86.95 35.55 87.45 32.5 87.1 29.65 L86.8 28.0 86.55 27.2 Q85.9 25.05 84.35 23.4 M4.8 13.75 L4.95 13.6 5.95 15.2 Q6.75 16.95 9.35 20.75 11.95 24.45 15.3 27.3 17.1 28.85 18.9 29.65 20.25 30.35 21.55 30.55 L30.05 31.4 42.2 31.15 62.6 29.65 Q73.4 28.55 78.3 26.9 82.5 25.6 83.3 25.6 L83.45 25.65 Q83.6 26.0 83.3 26.1 80.85 27.65 77.45 28.7 L73.55 29.65 73.15 29.75 62.45 31.25 36.3 32.65 28.2 32.65 Q23.35 32.5 20.15 31.6 L19.8 31.55 19.95 34.2 19.8 37.95 19.8 41.6 19.5 45.15 19.25 45.4 19.05 45.15 18.8 41.6 18.8 37.95 18.65 34.2 Q18.65 32.5 18.9 31.15 L16.35 29.65 Q14.35 28.25 12.25 26.0 5.85 19.25 4.8 13.8 L4.8 13.75" fill="#000000" fill-rule="evenodd" stroke="none"/>
      <path d="M81.0 20.9 L81.95 21.5 82.75 22.05 84.35 23.4 Q85.2 24.85 83.3 25.6 82.5 25.6 78.3 26.9 73.4 28.55 62.6 29.65 L42.2 31.15 30.05 31.4 21.55 30.55 Q20.25 30.35 18.9 29.65 17.1 28.85 15.3 27.3 11.95 24.45 9.35 20.75 6.75 16.95 5.95 15.2 L4.95 13.6 4.8 13.75 4.6 12.0 Q4.45 11.05 5.0 10.15 5.55 9.2 6.8 9.65 L8.9 10.55 10.75 11.65 12.55 12.6 Q16.05 15.2 21.9 17.4 36.65 23.05 57.55 23.05 70.25 23.05 80.7 20.95 L81.0 20.9" fill="#ffb409" fill-rule="evenodd" stroke="none"/>
      <path d="M84.35 23.4 Q85.9 25.05 86.55 27.2 L86.8 28.0 87.1 29.65 Q87.45 32.5 86.95 35.55 86.2 40.4 83.6 43.0 81.95 44.55 78.7 45.75 L73.25 47.4 Q66.15 49.25 56.05 50.6 L37.15 51.7 28.5 51.5 Q23.5 51.1 19.95 49.9 12.65 47.6 6.95 36.75 5.2 33.25 4.0 29.65 1.9 23.35 1.7 16.7 1.55 12.55 2.8 9.2 L3.3 8.05 3.65 7.3 4.2 6.25 5.3 4.75 6.85 3.15 7.2 2.85 Q10.9 -0.2 15.85 -0.35 20.3 -0.45 24.8 0.55 29.6 1.8 38.7 5.0 L59.05 11.95 69.9 15.7 Q72.95 16.85 75.0 17.75 L77.9 19.2 79.5 20.05 81.0 20.9 80.7 20.95 Q70.25 23.05 57.55 23.05 36.65 23.05 21.9 17.4 16.05 15.2 12.55 12.6 L10.75 11.65 8.9 10.55 6.8 9.65 Q5.55 9.2 5.0 10.15 4.45 11.05 4.6 12.0 L4.8 13.75 4.8 13.8 Q5.85 19.25 12.25 26.0 14.35 28.25 16.35 29.65 L18.9 31.15 Q18.65 32.5 18.65 34.2 L18.8 37.95 18.8 41.6 19.05 45.15 19.25 45.4 19.5 45.15 19.8 41.6 19.8 37.95 19.95 34.2 19.8 31.55 20.15 31.6 Q23.35 32.5 28.2 32.65 L36.3 32.65 62.45 31.25 73.15 29.75 73.55 29.65 77.45 28.7 Q80.85 27.65 83.3 26.1 83.6 26.0 83.45 25.65 L83.3 25.6 Q85.2 24.85 84.35 23.4" fill="#f99108" fill-rule="evenodd" stroke="none"/>
    </g>
    <g id="shape2" transform="matrix(1.0, 0.0, 0.0, 1.0, 0.0, 0.0)">
      <path d="M47.7 4.95 L48.15 4.95 48.2 5.4 Q50.75 22.05 35.8 30.75 L35.65 30.85 35.4 30.8 34.25 30.45 34.2 30.45 27.95 29.0 26.65 28.8 25.45 28.65 25.35 28.95 Q24.45 31.1 22.25 32.0 L20.85 32.45 Q19.45 32.7 18.0 32.05 L17.9 32.0 Q15.35 34.75 11.65 34.4 8.85 34.3 7.0 32.0 L6.55 31.35 6.35 31.0 Q5.65 29.85 5.25 28.4 3.25 28.2 1.95 26.7 0.2 24.8 0.05 22.25 L0.05 19.15 Q0.4 14.65 4.35 12.05 L4.35 11.85 Q4.4 8.85 5.65 6.1 6.85 3.5 9.4 2.05 11.9 0.6 14.95 1.4 L16.15 1.75 Q18.45 -0.35 21.65 0.05 23.9 0.4 25.2 2.35 25.8 3.2 25.95 4.25 L26.25 6.55 26.25 6.8 27.2 6.6 Q35.6 5.0 45.55 4.95 L47.7 4.95 M45.55 5.95 L43.45 6.0 Q34.2 7.1 30.95 15.55 L30.95 15.5 Q29.8 19.75 30.25 22.95 30.8 27.15 34.15 29.4 L34.5 29.5 35.5 29.75 Q49.45 21.55 47.25 5.95 L45.55 5.95 M25.3 6.35 Q25.45 3.4 23.0 1.75 21.9 0.95 20.45 0.95 18.4 1.2 16.65 2.65 L16.9 3.5 16.2 3.1 Q13.5 1.7 10.55 2.75 7.85 3.7 6.6 6.3 5.5 8.65 5.3 11.4 L5.3 11.55 6.7 11.1 3.55 13.9 Q0.35 17.3 0.85 22.1 1.05 24.35 2.65 26.0 3.75 27.15 5.15 27.35 L5.75 25.55 6.25 28.5 Q6.55 30.1 7.7 31.35 L8.65 32.3 Q10.9 34.05 14.0 33.15 16.4 32.55 18.7 29.85 L18.5 31.2 18.75 31.3 21.5 31.45 22.8 30.65 23.9 29.35 24.35 28.55 22.75 28.45 22.3 28.4 18.1 28.35 17.45 29.4 17.35 29.65 16.7 28.1 16.3 27.4 16.8 27.35 18.05 27.35 25.05 27.6 25.2 27.6 25.65 27.65 28.1 28.0 32.3 28.85 Q29.85 26.55 29.45 22.85 29.1 19.6 30.25 15.3 32.9 8.4 39.35 6.15 L27.4 7.6 26.35 7.8 26.15 7.85 26.15 7.9 25.8 7.95 25.7 8.0 Q22.3 8.65 19.25 9.65 L19.05 9.7 18.4 9.95 Q16.9 12.25 15.0 14.0 L14.1 14.8 Q15.45 18.3 14.75 21.8 L13.7 24.55 13.4 24.95 11.35 23.7 12.6 23.7 13.05 23.25 Q13.5 22.4 13.8 20.6 14.05 18.8 13.2 15.3 L12.25 11.3 13.2 12.85 13.65 13.85 Q16.1 11.9 17.7 9.35 L18.95 7.35 19.05 8.65 19.55 8.5 25.25 7.05 25.25 6.65 25.3 6.35" fill="#000000" fill-rule="evenodd" stroke="none"/>
      <path d="M8.65 32.3 L7.7 31.35 Q6.55 30.1 6.25 28.5 L5.75 25.55 5.15 27.35 Q3.75 27.15 2.65 26.0 1.05 24.35 0.85 22.1 0.35 17.3 3.55 13.9 L6.7 11.1 5.3 11.55 5.3 11.4 Q5.5 8.65 6.6 6.3 7.85 3.7 10.55 2.75 13.5 1.7 16.2 3.1 L16.9 3.5 16.65 2.65 Q18.4 1.2 20.45 0.95 21.9 0.95 23.0 1.75 25.45 3.4 25.3 6.35 L25.25 6.3 Q24.65 5.0 23.55 5.0 L22.45 5.4 21.35 5.75 Q20.2 5.75 19.1 4.75 L18.0 3.5 Q17.05 5.9 14.2 7.85 11.2 9.9 9.3 9.05 10.3 11.0 10.3 13.25 10.3 15.55 9.05 18.7 7.7 21.95 6.25 22.75 L6.5 23.0 Q10.5 26.5 10.5 29.45 10.5 32.0 8.65 32.3 M19.25 9.65 Q22.3 8.65 25.7 8.0 L25.8 7.95 26.15 7.9 26.15 7.85 26.35 7.8 27.4 7.6 39.35 6.15 Q32.9 8.4 30.25 15.3 29.1 19.6 29.45 22.85 L23.5 22.7 18.75 22.95 18.75 22.85 Q18.75 20.5 17.75 18.5 L16.65 16.75 Q17.35 15.6 18.45 12.3 L19.25 9.65 M22.75 28.45 L24.35 28.55 23.9 29.35 22.8 30.65 21.5 31.45 22.75 28.45" fill="#ffffff" fill-rule="evenodd" stroke="none"/>
      <path d="M45.55 5.95 L47.25 5.95 Q49.45 21.55 35.5 29.75 L34.5 29.5 34.15 29.4 Q30.8 27.15 30.25 22.95 29.8 19.75 30.95 15.5 L30.95 15.55 Q34.2 7.1 43.45 6.0 L45.55 5.95 M8.65 32.3 Q10.5 32.0 10.5 29.45 10.5 26.5 6.5 23.0 L6.25 22.75 Q7.7 21.95 9.05 18.7 10.3 15.55 10.3 13.25 10.3 11.0 9.3 9.05 11.2 9.9 14.2 7.85 17.05 5.9 18.0 3.5 L19.1 4.75 Q20.2 5.75 21.35 5.75 L22.45 5.4 23.55 5.0 Q24.65 5.0 25.25 6.3 L25.3 6.35 25.25 6.65 25.25 7.05 19.55 8.5 19.05 8.65 18.95 7.35 17.7 9.35 Q16.1 11.9 13.65 13.85 L13.2 12.85 12.25 11.3 13.2 15.3 Q14.05 18.8 13.8 20.6 13.5 22.4 13.05 23.25 L12.6 23.7 11.35 23.7 13.4 24.95 13.7 24.55 14.75 21.8 Q15.45 18.3 14.1 14.8 L15.0 14.0 Q16.9 12.25 18.4 9.95 L19.05 9.7 19.25 9.65 18.45 12.3 Q17.35 15.6 16.65 16.75 L17.75 18.5 Q18.75 20.5 18.75 22.85 L18.75 22.95 23.5 22.7 29.45 22.85 Q29.85 26.55 32.3 28.85 L28.1 28.0 25.65 27.65 25.2 27.6 25.05 27.6 18.05 27.35 16.8 27.35 16.3 27.4 16.7 28.1 17.35 29.65 17.45 29.4 18.1 28.35 22.3 28.4 22.75 28.45 21.5 31.45 18.75 31.3 18.5 31.2 18.7 29.85 Q16.4 32.55 14.0 33.15 10.9 34.05 8.65 32.3" fill="#cccccc" fill-rule="evenodd" stroke="none"/>
    </g>
    <g id="shape3" transform="matrix(1.0, 0.0, 0.0, 1.0, 0.0, 0.0)">
      <path d="M57.0 70.1 L57.15 69.2 57.25 66.25 Q57.3 60.55 56.45 54.85 L55.9 52.1 Q53.7 43.05 49.2 34.9 L47.9 32.4 46.95 30.75 42.0 24.95 32.55 15.9 27.15 18.85 Q31.05 27.15 29.7 36.1 28.3 45.8 24.45 55.0 20.75 63.75 19.35 73.3 18.25 80.7 22.7 85.45 24.2 87.05 26.35 88.35 30.5 90.85 35.4 90.2 44.85 88.9 51.3 81.5 55.65 76.45 57.0 70.1 M21.95 85.35 Q17.8 80.55 18.85 73.25 20.25 63.65 24.0 54.8 27.8 45.7 29.2 36.05 30.55 27.1 26.6 18.8 L26.6 18.65 26.7 18.5 32.5 15.35 32.65 15.3 32.8 15.4 42.35 24.6 45.0 27.6 39.9 20.25 Q34.3 12.9 28.0 6.25 L26.95 5.15 Q21.8 -0.2 16.2 1.4 10.45 3.0 8.1 6.8 5.6 10.55 5.6 14.35 5.6 18.2 8.15 26.4 L11.85 38.05 11.85 38.2 Q11.8 44.05 6.0 54.25 0.9 63.0 1.05 70.65 L1.05 71.1 1.05 71.15 1.0 72.5 Q1.05 78.15 4.4 82.7 10.0 90.3 18.85 93.15 28.0 96.25 37.45 93.95 43.2 92.45 48.1 88.65 55.6 82.95 56.7 73.8 L56.85 72.65 Q55.25 77.7 51.7 81.85 45.15 89.4 35.45 90.7 30.4 91.35 26.1 88.8 23.6 87.3 21.95 85.35 M40.7 19.65 Q45.1 25.45 48.75 31.9 L50.1 34.45 50.1 34.4 Q54.6 42.65 56.85 51.85 L57.45 54.65 57.45 54.7 Q58.3 60.45 58.25 66.25 L58.2 68.3 57.7 73.9 Q56.5 83.45 48.7 89.45 43.6 93.35 37.7 94.9 28.0 97.25 18.55 94.1 9.4 91.2 3.6 83.3 -0.3 78.0 0.05 71.3 L0.05 71.1 0.05 70.65 Q-0.1 62.8 5.15 53.75 10.75 43.9 10.85 38.3 L7.2 26.7 Q4.6 18.3 4.6 14.35 4.6 10.25 7.25 6.25 9.75 2.2 15.95 0.45 L15.9 0.45 Q22.05 -1.4 27.65 4.45 L27.7 4.5 28.7 5.55 Q35.1 12.2 40.7 19.65" fill="#000000" fill-rule="evenodd" stroke="none"/>
      <path d="M22.7 85.45 Q18.25 80.7 19.35 73.3 20.75 63.75 24.45 55.0 28.3 45.8 29.7 36.1 31.05 27.15 27.15 18.85 L32.55 15.9 42.0 24.95 46.95 30.75 47.9 32.4 49.2 34.9 Q53.7 43.05 55.9 52.1 L56.45 54.85 Q57.3 60.55 57.25 66.25 L57.15 69.2 57.0 70.1 54.3 73.45 Q43.6 85.65 26.3 85.65 L22.7 85.45" fill="#ffffff" fill-rule="evenodd" stroke="none"/>
      <path d="M1.0 72.5 L1.05 71.15 1.05 71.1 1.05 70.65 Q0.9 63.0 6.0 54.25 11.8 44.05 11.85 38.2 L11.85 38.05 8.15 26.4 Q5.6 18.2 5.6 14.35 5.6 10.55 8.1 6.8 10.45 3.0 16.2 1.4 21.8 -0.2 26.95 5.15 L28.0 6.25 Q34.3 12.9 39.9 20.25 L45.0 27.6 42.35 24.6 32.8 15.4 32.65 15.3 32.5 15.35 26.7 18.5 26.6 18.65 26.6 18.8 Q30.55 27.1 29.2 36.05 27.8 45.7 24.0 54.8 20.25 63.65 18.85 73.25 17.8 80.55 21.95 85.35 10.15 83.65 1.0 72.5" fill="#009900" fill-rule="evenodd" stroke="none"/>
      <path d="M21.95 85.35 Q23.6 87.3 26.1 88.8 30.4 91.35 35.45 90.7 45.15 89.4 51.7 81.85 55.25 77.7 56.85 72.65 L56.7 73.8 Q55.6 82.95 48.1 88.65 43.2 92.45 37.45 93.95 28.0 96.25 18.85 93.15 10.0 90.3 4.4 82.7 1.05 78.15 1.0 72.5 10.15 83.65 21.95 85.35" fill="#006700" fill-rule="evenodd" stroke="none"/>
      <path d="M57.0 70.1 Q55.65 76.45 51.3 81.5 44.85 88.9 35.4 90.2 30.5 90.85 26.35 88.35 24.2 87.05 22.7 85.45 L26.3 85.65 Q43.6 85.65 54.3 73.45 L57.0 70.1" fill="#cccccc" fill-rule="evenodd" stroke="none"/>
    </g>
    <g id="shape4" transform="matrix(1.0, 0.0, 0.0, 1.0, 0.0, 0.0)">
      <path d="M49.95 11.1 L46.15 5.4 46.1 5.3 46.1 5.25 45.8 3.8 43.9 2.15 Q44.55 4.7 43.25 6.75 L43.15 6.9 43.0 6.95 Q37.6 8.25 32.35 11.1 L30.85 11.1 32.35 11.1 Q29.85 12.45 27.4 14.2 L27.25 14.3 27.05 14.25 Q21.45 12.7 15.75 12.35 12.7 12.15 9.6 12.3 L10.15 15.05 15.75 15.4 Q21.4 16.25 26.4 19.2 L26.55 19.3 26.6 19.45 Q29.05 38.0 26.85 58.25 L26.0 64.95 25.3 69.55 Q35.6 69.5 46.8 64.95 52.6 62.55 58.65 58.95 62.15 31.75 49.95 11.1 L50.85 11.1 49.95 11.1 M30.85 11.1 Q36.65 7.7 42.65 6.2 43.95 3.95 42.7 1.1 L42.3 0.1 42.5 0.0 46.5 3.4 46.85 5.0 50.85 11.1 Q62.95 31.9 59.4 59.2 L59.35 59.4 59.2 59.5 Q53.9 62.7 48.75 64.95 L46.8 64.95 48.75 64.95 Q36.3 70.4 24.85 70.3 L24.4 70.3 24.5 69.85 25.25 64.95 26.0 64.95 25.25 64.95 26.05 58.45 Q20.45 56.85 15.75 54.45 6.2 49.65 0.2 41.75 L0.0 41.45 0.6 41.0 0.8 41.3 Q6.6 48.95 15.75 53.65 L15.75 54.45 15.75 53.65 Q20.5 56.1 26.15 57.75 28.25 37.9 25.85 19.75 21.05 17.0 15.75 16.2 L9.85 15.8 9.55 15.8 8.7 11.6 9.15 11.6 Q12.45 11.4 15.75 11.65 21.5 11.95 27.1 13.5 L30.85 11.1 M15.75 11.65 L15.75 12.35 15.75 11.65 M15.75 15.4 L15.75 16.2 15.75 15.4" fill="#000000" fill-rule="evenodd" stroke="none"/>
      <path d="M32.35 11.1 Q37.6 8.25 43.0 6.95 L43.15 6.9 43.25 6.75 Q44.55 4.7 43.9 2.15 L45.8 3.8 46.1 5.25 46.1 5.3 46.15 5.4 49.95 11.1 32.35 11.1 49.95 11.1 Q62.15 31.75 58.65 58.95 52.6 62.55 46.8 64.95 L26.0 64.95 46.8 64.95 Q35.6 69.5 25.3 69.55 L26.0 64.95 26.85 58.25 Q29.05 38.0 26.6 19.45 L26.55 19.3 26.4 19.2 Q21.4 16.25 15.75 15.4 L15.75 12.35 15.75 15.4 10.15 15.05 9.6 12.3 Q12.7 12.15 15.75 12.35 21.45 12.7 27.05 14.25 L27.25 14.3 27.4 14.2 Q29.85 12.45 32.35 11.1" fill="#bf0101" fill-rule="evenodd" stroke="none"/>
    </g>
    <g id="shape5" transform="matrix(1.0, 0.0, 0.0, 1.0, 0.0, 0.0)">
      <path d="M21.1 8.85 L21.35 7.65 19.55 11.2 19.35 11.05 19.25 10.0 18.9 10.8 Q18.5 9.65 18.85 8.0 L19.0 7.2 Q18.4 8.5 18.55 10.1 18.7 10.4 18.15 9.9 L17.8 7.4 17.0 6.55 16.15 5.1 15.85 6.1 15.5 6.1 14.5 4.25 13.7 4.85 13.65 2.35 12.35 4.4 12.35 3.85 Q12.35 2.7 12.65 1.9 13.2 0.35 14.1 0.45 L15.35 1.15 Q17.15 2.35 18.9 3.85 20.75 5.55 22.35 7.8 L21.5 9.0 21.45 8.75 21.1 8.85" fill="#cb7814" fill-rule="evenodd" stroke="none"/>
      <path d="M21.45 8.75 L21.5 9.0 21.15 9.55 21.45 8.75 M20.3 14.8 L21.4 14.65 18.2 17.05 18.45 16.6 18.45 15.9 20.3 14.8 M14.9 17.3 L15.95 17.25 16.25 16.95 16.9 17.5 14.35 18.9 10.25 21.05 6.1 22.9 Q3.35 23.8 0.5 23.85 L0.45 22.85 4.75 22.05 Q5.65 22.0 8.2 20.8 L11.25 18.95 11.7 19.1 Q12.85 18.85 14.0 17.55 L14.9 17.3" fill="#cc9966" fill-rule="evenodd" stroke="none"/>
      <path d="M18.9 10.8 L19.25 10.0 19.35 11.05 19.55 11.2 21.35 7.65 21.1 8.85 Q20.6 10.45 20.55 12.15 L20.5 14.0 Q19.5 13.05 18.9 10.8 M21.5 9.0 L22.35 7.8 Q22.9 9.25 22.75 11.0 22.55 13.2 21.55 13.75 L21.1 13.75 21.1 13.7 21.15 9.55 21.5 9.0 M12.35 4.4 L13.65 2.35 13.7 4.85 14.5 4.25 15.5 6.1 15.85 6.1 16.15 5.1 17.0 6.55 17.8 7.4 18.15 9.9 17.75 9.7 17.6 9.15 Q16.4 9.05 15.3 7.85 L14.3 6.75 12.35 4.55 12.35 4.45 12.35 4.4" fill="#996633" fill-rule="evenodd" stroke="none"/>
      <path d="M18.9 10.8 Q19.5 13.05 20.5 14.0 L20.55 12.15 Q20.6 10.45 21.1 8.85 L21.45 8.75 21.15 9.55 21.1 13.7 21.05 13.75 21.1 13.75 21.55 13.75 Q22.55 13.2 22.75 11.0 22.9 9.25 22.35 7.8 20.75 5.55 18.9 3.85 17.15 2.35 15.35 1.15 L14.1 0.45 Q13.2 0.35 12.65 1.9 12.35 2.7 12.35 3.85 L12.35 4.4 12.35 4.45 12.35 4.55 14.3 6.75 15.3 7.85 Q16.4 9.05 17.6 9.15 L17.75 9.7 18.15 9.9 Q18.7 10.4 18.55 10.1 18.4 8.5 19.0 7.2 L18.85 8.0 Q18.5 9.65 18.9 10.8 M23.05 11.95 Q22.65 13.75 21.8 14.1 L21.75 14.8 19.65 16.55 12.7 20.45 Q8.15 22.9 4.3 23.85 L0.1 24.3 0.0 22.55 9.5 9.6 Q11.15 7.3 12.0 4.95 L11.95 3.3 12.05 1.95 12.45 1.1 Q12.8 0.5 13.3 0.2 L14.3 0.05 Q16.75 1.35 18.45 2.8 21.8 6.15 22.5 7.25 L23.1 9.05 23.05 11.95 M18.45 15.9 L18.45 16.6 18.2 17.05 21.4 14.65 20.3 14.8 Q19.65 14.5 19.4 13.25 19.05 11.75 18.5 10.95 L18.1 10.5 17.5 11.0 17.4 10.0 14.35 7.45 14.4 8.1 12.35 5.1 11.5 7.25 10.0 9.75 8.55 11.7 5.45 15.8 6.1 16.2 6.05 16.7 Q5.9 17.5 5.45 17.8 L5.3 17.85 Q4.1 19.85 2.95 19.85 L2.65 19.6 0.7 22.4 2.8 21.95 3.2 21.85 6.65 21.15 Q7.7 21.2 8.7 20.2 L8.2 20.8 Q5.65 22.0 4.75 22.05 L0.45 22.85 0.5 23.85 Q3.35 23.8 6.1 22.9 L10.25 21.05 14.35 18.9 16.9 17.5 16.25 16.95 15.95 17.25 14.9 17.3 14.4 17.05 Q14.05 16.65 14.0 15.55 L16.05 14.4 16.05 13.4 16.2 13.15 Q17.9 12.65 18.45 15.9 M13.4 12.3 Q12.85 12.3 12.4 11.85 12.0 11.4 11.7 12.0 L11.8 10.85 12.35 10.65 11.95 11.05 Q13.4 12.65 14.95 11.2 L13.4 10.8 13.65 10.55 15.55 10.95 15.55 11.25 14.85 11.8 Q14.15 12.3 13.4 12.3 M9.65 15.6 L9.1 16.2 9.05 16.25 7.85 16.65 7.4 16.2 8.05 14.5 10.05 14.65 9.65 15.6 M7.75 15.85 L9.8 14.9 8.1 14.9 7.75 15.75 7.65 15.85 7.75 15.85 M5.65 16.6 L5.25 16.3 2.9 19.25 Q4.15 19.55 4.8 17.45 L5.3 17.05 5.65 16.6 M17.1 16.7 L18.15 15.9 Q18.1 14.6 17.55 14.15 L17.1 13.75 Q16.45 15.85 15.15 15.35 L14.45 15.7 14.55 16.5 17.5 15.8 17.1 16.65 17.05 16.7 17.1 16.7 M14.0 17.55 Q12.85 18.85 11.7 19.1 L14.0 17.55" fill="#000000" fill-rule="evenodd" stroke="none"/>
      <path d="M3.2 21.85 L2.8 21.95 Q3.5 21.65 3.95 20.2 L4.1 19.7 7.2 17.45 6.05 16.7 6.1 16.2 5.45 15.8 8.55 11.7 Q10.3 11.35 12.05 9.95 L12.75 9.45 10.0 9.75 11.5 7.25 12.35 5.1 14.4 8.1 14.35 7.45 17.4 10.0 17.5 11.0 18.1 10.5 18.5 10.95 Q18.1 11.45 17.65 11.35 L17.05 11.85 Q16.8 12.6 16.55 12.55 L14.85 11.8 15.55 11.25 15.55 10.95 13.65 10.55 12.35 10.65 11.8 10.85 11.7 12.0 Q12.0 11.4 12.4 11.85 12.85 12.3 13.4 12.3 L12.65 14.15 12.6 15.4 9.65 15.6 10.05 14.65 8.05 14.5 7.4 16.2 7.85 16.65 9.05 16.25 9.05 16.3 8.8 16.5 8.6 17.35 8.8 18.0 Q8.1 19.5 7.15 19.85 5.15 20.55 3.2 21.85" fill="#ffdab5" fill-rule="evenodd" stroke="none"/>
      <path d="M12.35 10.65 L13.65 10.55 13.4 10.8 14.95 11.2 Q13.4 12.65 11.95 11.05 L12.35 10.65 M5.65 16.6 L5.3 17.05 4.8 17.45 Q4.15 19.55 2.9 19.25 L5.25 16.3 5.65 16.6" fill="#cc6666" fill-rule="evenodd" stroke="none"/>
      <path d="M18.45 15.9 Q17.9 12.65 16.2 13.15 L16.05 13.4 16.05 14.4 14.0 15.55 Q14.05 16.65 14.4 17.05 L14.9 17.3 14.0 17.55 11.7 19.1 11.25 18.95 8.2 20.8 8.7 20.2 Q7.7 21.2 6.65 21.15 L3.2 21.85 Q5.15 20.55 7.15 19.85 8.1 19.5 8.8 18.0 L8.6 17.35 8.8 16.5 9.05 16.3 9.1 16.2 9.65 15.6 12.6 15.4 12.65 14.15 13.4 12.3 Q14.15 12.3 14.85 11.8 L16.55 12.55 Q16.8 12.6 17.05 11.85 L17.65 11.35 Q18.1 11.45 18.5 10.95 19.05 11.75 19.4 13.25 19.65 14.5 20.3 14.8 L18.45 15.9" fill="#ffcc99" fill-rule="evenodd" stroke="none"/>
      <path d="M2.8 21.95 L0.7 22.4 2.65 19.6 2.95 19.85 Q4.1 19.85 5.3 17.85 L5.45 17.8 Q5.9 17.5 6.05 16.7 L7.2 17.45 4.1 19.7 3.95 20.2 Q3.5 21.65 2.8 21.95 M8.55 11.7 L10.0 9.75 12.75 9.45 12.05 9.95 Q10.3 11.35 8.55 11.7" fill="#ffe7ce" fill-rule="evenodd" stroke="none"/>
      <path d="M7.75 15.75 L8.1 14.9 9.8 14.9 7.75 15.85 7.75 15.75" fill="#339900" fill-rule="evenodd" stroke="none"/>
      <path d="M9.1 16.2 L9.05 16.3 9.05 16.25 9.1 16.2" fill="#ffe0c1" fill-rule="evenodd" stroke="none"/>
      <path d="M17.1 16.65 L17.5 15.8 14.55 16.5 14.45 15.7 15.15 15.35 Q16.45 15.85 17.1 13.75 L17.55 14.15 Q18.1 14.6 18.15 15.9 L17.1 16.7 17.1 16.65" fill="#cccc99" fill-rule="evenodd" stroke="none"/>
    </g>
    <g id="shape6" transform="matrix(1.0, 0.0, 0.0, 1.0, 0.0, 0.0)">
      <path d="M13.05 3.2 L14.4 4.8 14.85 6.4 14.85 7.7 14.0 8.6 12.75 8.65 12.6 9.45 12.15 11.05 11.75 12.0 10.6 13.35 8.4 14.9 6.6 15.3 Q4.65 15.45 3.15 14.3 1.8 13.2 1.15 11.5 0.6 9.95 0.85 8.35 0.85 6.5 1.8 4.8 2.65 3.2 4.25 2.75 5.7 2.5 6.8 3.25 L6.9 1.3 7.25 0.9 9.1 0.8 9.45 1.0 13.05 3.2" fill="#ffffff" fill-rule="evenodd" stroke="none"/>
      <path d="M13.05 3.2 L9.45 1.0 9.1 0.8 7.25 0.9 6.9 1.3 6.8 3.25 Q5.7 2.5 4.25 2.75 2.65 3.2 1.8 4.8 0.85 6.5 0.85 8.35 0.6 9.95 1.15 11.5 1.8 13.2 3.15 14.3 4.65 15.45 6.6 15.3 L8.4 14.9 10.6 13.35 11.75 12.0 12.15 11.05 12.6 9.45 12.75 8.65 14.0 8.6 14.85 7.7 14.85 6.4 14.4 4.8 13.05 3.2 M13.3 9.4 Q13.3 10.4 12.9 11.45 12.3 12.9 11.2 14.0 8.5 16.7 4.8 16.0 3.1 15.55 2.05 14.4 -0.05 12.15 0.05 9.15 -0.1 7.6 0.4 6.05 0.9 4.45 2.1 3.25 L3.25 2.45 Q4.55 1.7 6.0 2.15 6.0 1.05 7.05 0.4 7.5 0.1 8.1 0.0 L9.3 0.1 Q10.95 0.9 12.7 2.0 15.25 3.6 15.7 6.6 L15.7 7.5 Q15.4 8.85 14.2 9.25 L13.35 9.35 13.3 9.4" fill="#000000" fill-rule="evenodd" stroke="none"/>
    </g>
    <g id="shape7" transform="matrix(1.0, 0.0, 0.0, 1.0, -0.1, -0.15)">
      <path d="M2.05 3.75 L1.2 4.3 Q0.7 4.3 0.4 3.65 0.1 3.0 0.1 2.15 0.2 1.3 0.6 0.7 1.0 0.15 1.45 0.15 1.95 0.2 2.2 0.75 2.55 1.45 2.5 2.25 2.45 3.15 2.05 3.75" fill="#000000" fill-rule="evenodd" stroke="none"/>
    </g>
    <g id="shape8" transform="matrix(1.0, 0.0, 0.0, 1.0, -0.1, -0.1)">
      <path d="M0.4 3.25 Q-0.05 2.9 0.2 2.25 0.35 1.6 0.8 1.0 1.45 0.4 2.1 0.2 L3.0 0.25 Q3.3 0.6 3.2 1.1 3.05 1.85 2.55 2.45 L1.35 3.3 0.4 3.25" fill="#000000" fill-rule="evenodd" stroke="none"/>
    </g>
    <g id="shape9" transform="matrix(1.0, 0.0, 0.0, 1.0, 0.0, 0.0)">
      <path d="M12.35 16.25 Q9.75 18.65 6.65 18.25 3.45 17.85 1.55 14.9 -0.35 12.0 0.1 8.25 0.55 4.45 3.1 2.0 5.65 -0.3 8.8 0.05 12.0 0.5 13.9 3.35 15.8 6.3 15.35 10.1 14.9 13.85 12.35 16.25" fill="#000000" fill-opacity="0.2" fill-rule="evenodd" stroke="none"/>
    </g>
    <g id="shape10" transform="matrix(1.0, 0.0, 0.0, 1.0, -0.4, 1.7)">
      <path d="M7.0 -0.9 L8.55 -1.35 16.4 -1.05 Q21.4 0.4 23.8 3.9 25.3 6.0 25.4 8.15 L25.35 9.4 25.2 10.3 24.9 11.2 24.85 11.2 Q23.4 14.8 18.75 16.4 L18.8 16.4 Q14.2 18.0 9.35 16.55 4.35 15.2 2.0 11.65 -0.55 8.0 0.95 4.4 L1.15 4.0 Q2.7 0.65 7.0 -0.9 M23.9 10.95 L23.95 10.8 23.95 10.85 Q25.2 7.6 23.0 4.45 20.7 1.2 16.1 -0.1 L16.15 -0.1 Q11.55 -1.35 7.4 0.0 L7.3 0.05 7.35 0.05 Q3.25 1.55 1.85 4.8 L1.55 5.85 Q0.95 8.4 2.8 11.05 L2.85 11.1 Q5.05 14.35 9.65 15.6 14.2 16.9 18.45 15.45 21.45 14.4 23.0 12.45 L23.9 10.95 M3.7 5.95 L3.05 5.25 3.85 5.5 Q5.5 6.3 5.6 7.5 5.75 8.6 4.55 10.05 4.95 9.35 5.0 8.15 5.0 6.6 3.7 6.0 L3.7 5.95" fill="#000000" fill-rule="evenodd" stroke="none"/>
      <path d="M23.9 10.95 L23.0 12.45 Q21.45 14.4 18.45 15.45 14.2 16.9 9.65 15.6 5.05 14.35 2.85 11.1 L2.8 11.05 Q0.95 8.4 1.55 5.85 L1.85 4.8 Q3.25 1.55 7.35 0.05 L7.3 0.05 7.4 0.0 Q6.15 1.85 6.15 4.5 6.15 7.85 9.4 10.5 12.8 13.2 17.4 13.2 20.8 13.2 23.5 11.25 L23.9 10.95 M3.7 5.95 L3.7 6.0 Q5.0 6.6 5.0 8.15 4.95 9.35 4.55 10.05 5.75 8.6 5.6 7.5 5.5 6.3 3.85 5.5 L3.05 5.25 3.7 5.95" fill="#f99108" fill-rule="evenodd" stroke="none"/>
      <path d="M7.4 0.0 Q11.55 -1.35 16.15 -0.1 L16.1 -0.1 Q20.7 1.2 23.0 4.45 25.2 7.6 23.95 10.85 L23.95 10.8 23.9 10.95 23.5 11.25 Q20.8 13.2 17.4 13.2 12.8 13.2 9.4 10.5 6.15 7.85 6.15 4.5 6.15 1.85 7.4 0.0" fill="#ffb409" fill-rule="evenodd" stroke="none"/>
    </g>
    <g id="shape11" transform="matrix(1.0, 0.0, 0.0, 1.0, 0.0, 0.0)">
      <path d="M28.05 16.3 L28.05 16.35 Q29.25 20.7 30.05 24.95 L30.8 28.8 31.25 30.95 31.75 33.35 Q32.65 37.7 32.2 42.4 31.75 47.5 30.25 52.2 28.85 56.45 26.85 60.2 24.5 64.6 20.6 67.3 L20.6 67.25 Q16.35 70.3 11.3 69.2 6.55 68.35 4.2 64.1 L4.25 64.1 Q2.3 60.65 1.45 56.8 0.5 52.5 0.2 48.1 -0.05 43.85 0.0 39.8 0.1 35.4 0.8 31.15 L1.15 28.85 2.15 21.4 3.15 12.65 Q3.65 7.9 6.4 3.9 9.15 -0.2 14.05 0.0 19.35 0.2 22.7 4.6 25.6 8.4 27.05 12.95 L28.05 16.3 M31.15 35.95 L30.75 33.55 29.05 25.15 Q28.25 20.9 27.1 16.6 L26.1 13.25 Q24.7 8.9 21.9 5.2 18.85 1.2 14.0 1.0 9.65 0.8 7.25 4.45 4.65 8.2 4.15 12.75 L3.15 21.55 1.8 31.3 Q1.1 35.5 1.0 39.8 0.95 43.85 1.2 48.05 1.5 52.4 2.45 56.6 L2.75 57.9 Q3.55 60.85 5.1 63.6 7.2 67.45 11.45 68.2 16.1 69.2 20.0 66.45 L20.05 66.45 Q23.7 63.9 25.95 59.75 L25.95 59.7 Q27.95 56.05 29.3 51.9 30.75 47.3 31.2 42.3 31.5 39.05 31.15 35.95 M6.05 25.1 L6.0 25.1 5.95 23.0 6.9 14.7 Q7.2 10.5 9.35 6.95 11.65 3.3 15.0 3.75 L16.7 4.45 17.2 4.7 18.25 5.5 17.45 5.1 17.25 5.0 15.15 4.35 Q12.05 4.1 10.0 7.35 8.1 10.4 7.7 14.05 L7.65 14.75 Q7.35 18.25 6.05 25.1 M20.9 61.85 L22.15 59.9 Q22.8 58.45 24.45 56.85 L24.4 56.95 22.8 60.25 Q20.55 64.8 15.4 65.85 L15.35 65.85 Q13.4 66.15 12.0 64.95 L11.95 64.95 Q9.3 62.75 8.05 59.5 6.35 54.8 5.6 49.85 4.9 45.9 4.55 41.8 L4.5 41.45 4.55 41.45 5.7 47.8 6.3 51.3 Q7.0 55.35 8.45 58.85 9.9 62.3 12.45 64.35 L12.45 64.4 Q13.6 65.35 15.25 65.1 18.8 64.35 20.9 61.85" fill="#000000" fill-rule="evenodd" stroke="none"/>
      <path d="M2.75 57.9 L2.45 56.6 Q1.5 52.4 1.2 48.05 0.95 43.85 1.0 39.8 1.1 35.5 1.8 31.3 L3.15 21.55 4.15 12.75 Q4.65 8.2 7.25 4.45 9.65 0.8 14.0 1.0 18.85 1.2 21.9 5.2 24.7 8.9 26.1 13.25 L27.1 16.6 Q28.25 20.9 29.05 25.15 L30.75 33.55 31.15 35.95 Q30.55 48.3 26.25 57.5 21.45 67.75 15.25 67.75 10.15 67.75 6.5 64.0 4.2 61.6 2.75 57.9 M6.05 25.1 L5.9 26.3 5.45 30.55 6.4 27.95 Q8.25 23.75 9.0 19.75 9.9 14.7 10.75 12.9 12.65 8.75 16.75 8.75 19.25 8.75 20.9 12.3 22.25 15.3 22.25 18.5 22.25 20.55 22.65 21.7 23.2 23.2 24.75 24.75 25.75 25.75 26.55 29.55 L27.25 33.5 27.6 30.75 27.75 28.5 Q27.75 25.95 26.25 21.5 24.55 16.55 24.25 14.0 23.8 10.35 20.75 7.6 L17.45 5.1 18.25 5.5 17.2 4.7 16.7 4.45 15.0 3.75 Q11.65 3.3 9.35 6.95 7.2 10.5 6.9 14.7 L5.95 23.0 6.0 25.1 6.05 25.1 M20.9 61.85 Q23.6 57.8 25.35 51.35 27.0 45.15 27.0 38.85 L26.9 38.3 26.75 38.0 Q26.35 39.15 23.6 40.25 22.55 40.25 22.2 39.7 L21.25 38.0 19.35 40.7 Q17.8 43.0 17.1 43.0 16.65 43.0 15.45 40.75 14.25 38.5 12.1 38.5 10.9 38.5 9.95 39.5 8.95 40.5 8.75 40.5 7.85 40.5 7.1 38.15 6.4 35.75 5.6 35.75 5.4 35.75 5.0 36.25 L4.95 36.35 4.75 40.35 Q4.75 42.05 5.25 44.55 L5.75 47.35 5.7 47.8 4.55 41.45 4.5 41.45 4.55 41.8 Q4.9 45.9 5.6 49.85 6.35 54.8 8.05 59.5 9.3 62.75 11.95 64.95 L12.0 64.95 Q13.4 66.15 15.35 65.85 L15.4 65.85 Q20.55 64.8 22.8 60.25 L24.4 56.95 24.45 56.85 Q22.8 58.45 22.15 59.9 L20.9 61.85" fill="#f8c592" fill-rule="evenodd" stroke="none"/>
      <path d="M31.15 35.95 Q31.5 39.05 31.2 42.3 30.75 47.3 29.3 51.9 27.95 56.05 25.95 59.7 L25.95 59.75 Q23.7 63.9 20.05 66.45 L20.0 66.45 Q16.1 69.2 11.45 68.2 7.2 67.45 5.1 63.6 3.55 60.85 2.75 57.9 4.2 61.6 6.5 64.0 10.15 67.75 15.25 67.75 21.45 67.75 26.25 57.5 30.55 48.3 31.15 35.95 M17.45 5.1 L20.75 7.6 Q23.8 10.35 24.25 14.0 24.55 16.55 26.25 21.5 27.75 25.95 27.75 28.5 L27.6 30.75 27.25 33.5 26.55 29.55 Q25.75 25.75 24.75 24.75 23.2 23.2 22.65 21.7 22.25 20.55 22.25 18.5 22.25 15.3 20.9 12.3 19.25 8.75 16.75 8.75 12.65 8.75 10.75 12.9 9.9 14.7 9.0 19.75 8.25 23.75 6.4 27.95 L5.45 30.55 5.9 26.3 6.05 25.1 Q7.35 18.25 7.65 14.75 L7.7 14.05 Q8.1 10.4 10.0 7.35 12.05 4.1 15.15 4.35 L17.25 5.0 17.45 5.1 M5.7 47.8 L5.75 47.35 5.25 44.55 Q4.75 42.05 4.75 40.35 L4.95 36.35 5.0 36.25 Q5.4 35.75 5.6 35.75 6.4 35.75 7.1 38.15 7.85 40.5 8.75 40.5 8.95 40.5 9.95 39.5 10.9 38.5 12.1 38.5 14.25 38.5 15.45 40.75 16.65 43.0 17.1 43.0 17.8 43.0 19.35 40.7 L21.25 38.0 22.2 39.7 Q22.55 40.25 23.6 40.25 26.35 39.15 26.75 38.0 L26.9 38.3 27.0 38.85 Q27.0 45.15 25.35 51.35 23.6 57.8 20.9 61.85 18.8 64.35 15.25 65.1 13.6 65.35 12.45 64.4 L12.45 64.35 Q9.9 62.3 8.45 58.85 7.0 55.35 6.3 51.3 L5.7 47.8" fill="#cc8f65" fill-rule="evenodd" stroke="none"/>
    </g>
    <g id="shape12" transform="matrix(1.0, 0.0, 0.0, 1.0, 0.0, 0.0)">
      <path d="M13.25 0.45 L13.2 0.05 13.4 0.0 13.55 0.5 Q15.85 8.7 15.75 17.1 15.65 25.5 13.1 33.7 11.8 37.9 8.8 42.55 5.45 47.55 3.85 47.0 L3.8 47.0 Q2.9 46.85 3.15 43.85 4.2 35.15 3.1 26.7 1.95 18.2 0.9 13.6 0.05 10.2 0.05 8.25 L0.05 7.25 0.3 8.1 0.35 8.2 0.85 10.1 Q2.9 18.15 4.0 26.4 5.2 35.15 4.15 43.95 L4.1 46.05 Q5.2 46.15 7.95 42.0 10.9 37.5 12.15 33.4 14.65 25.3 14.75 17.1 14.85 9.8 13.25 0.45" fill="#000000" fill-rule="evenodd" stroke="none"/>
      <path d="M13.25 0.45 Q14.85 9.8 14.75 17.1 14.65 25.3 12.15 33.4 10.9 37.5 7.95 42.0 5.2 46.15 4.1 46.05 L4.15 43.95 Q5.2 35.15 4.0 26.4 2.9 18.15 0.85 10.1 L0.35 8.2 0.3 8.1 13.25 0.45" fill="#009900" fill-rule="evenodd" stroke="none"/>
    </g>
  </defs>
</svg>
