<?xml version="1.0" encoding="UTF-8" standalone="no"?>
<svg xmlns:ffdec="https://www.free-decompiler.com/flash" xmlns:xlink="http://www.w3.org/1999/xlink" ffdec:objectType="frame" height="251.2px" width="162.6px" xmlns="http://www.w3.org/2000/svg">
  <g transform="matrix(1.0, 0.0, 0.0, 1.0, -295.9, -22.4)">
    <use ffdec:characterId="186" height="45.85" transform="matrix(0.4765, -0.0139, 0.0, 0.4584, 359.2655, 245.9137)" width="89.15" xlink:href="#shape0"/>
    <use ffdec:characterId="235" height="11.25" transform="matrix(1.0, 0.0, 0.0, 1.0, 339.3, 244.45)" width="32.4" xlink:href="#shape1"/>
    <use ffdec:characterId="236" height="19.9" transform="matrix(1.0, 0.0, 0.0, 1.0, 372.95, 193.45)" width="48.0" xlink:href="#shape2"/>
    <use ffdec:characterId="237" height="93.5" transform="matrix(1.0, 0.0, 0.0, 1.0, 332.85, 162.9)" width="60.9" xlink:href="#shape3"/>
    <use ffdec:characterId="238" height="69.3" transform="matrix(1.0, 0.0, 0.0, 1.0, 332.6, 181.35)" width="66.05" xlink:href="#shape4"/>
    <use ffdec:characterId="191" height="24.35" transform="matrix(0.8371, 0.2226, -0.12, 0.785, 373.15, 208.2)" width="23.2" xlink:href="#shape5"/>
    <use ffdec:characterId="239" height="22.6" transform="matrix(1.0, 0.0, 0.0, 1.0, 399.05, 216.0)" width="23.05" xlink:href="#shape6"/>
    <use ffdec:characterId="240" height="18.65" transform="matrix(1.0, 0.0, 0.0, 1.0, 338.15, 247.0)" width="45.0" xlink:href="#shape7"/>
    <use ffdec:characterId="205" height="3.35" transform="matrix(1.0, 0.0, 0.0, 1.0, 379.65, 181.5)" width="7.45" xlink:href="#shape8"/>
    <use ffdec:characterId="205" height="3.35" transform="matrix(-0.415, -0.4076, -0.617, 0.6283, 391.9, 185.65)" width="7.45" xlink:href="#shape8"/>
    <use ffdec:characterId="194" height="18.3" transform="matrix(1.0, 0.0, 0.0, 1.0, 375.85, 187.05)" width="15.45" xlink:href="#shape9"/>
    <use ffdec:characterId="241" height="15.85" transform="matrix(1.0, 0.0, 0.0, 1.0, 376.75, 185.2)" width="25.2" xlink:href="#shape10"/>
    <use ffdec:characterId="242" height="15.45" transform="matrix(1.0, 0.0, 0.0, 1.0, 399.45, 207.75)" width="42.3" xlink:href="#shape11"/>
    <use ffdec:characterId="243" height="29.15" transform="matrix(1.0, 0.0, 0.0, 1.0, 355.65, 192.05)" width="57.6" xlink:href="#shape12"/>
    <use ffdec:characterId="244" height="52.0" transform="matrix(1.0, 0.0, 0.0, 1.0, 374.3, 124.5)" width="45.6" xlink:href="#shape13"/>
  </g>
  <defs>
    <g id="shape0" transform="matrix(1.0, 0.0, 0.0, 1.0, 3.85, 2.05)">
      <path d="M11.35 -1.9 L12.6 -1.95 13.7 -2.0 14.55 -2.0 17.25 -1.85 32.0 -1.05 46.15 0.15 58.65 1.35 58.85 1.4 Q67.85 2.35 73.55 3.85 79.95 5.5 81.25 6.55 L82.0 7.3 83.5 9.6 Q85.65 14.0 85.25 20.7 85.1 23.9 84.75 25.75 84.15 28.65 82.95 30.45 L82.35 31.25 Q80.45 33.5 76.2 35.8 70.7 38.95 64.85 40.85 55.2 44.0 47.65 43.8 L47.2 43.75 Q43.1 43.55 39.65 42.35 L39.4 42.3 39.35 42.3 37.2 41.65 37.2 41.7 Q22.5 38.45 8.4 28.55 -2.2 21.1 -3.6 14.85 L-3.85 13.05 Q-3.8 11.5 -3.2 10.15 L-0.85 5.3 Q0.25 3.3 1.65 1.75 L2.8 0.65 Q4.45 -0.9 6.8 -1.2 L11.35 -1.9 M60.6 3.45 L58.25 3.15 14.45 -0.15 12.55 -0.1 Q9.55 0.0 6.8 0.85 5.45 1.15 4.4 2.0 3.45 2.8 2.05 4.5 0.65 6.15 -0.3 8.4 L-1.5 11.9 -1.75 13.2 -1.5 15.0 Q0.15 20.8 10.35 27.8 23.1 36.65 37.25 39.85 L37.25 41.25 37.35 39.8 39.85 40.55 40.65 40.75 40.95 40.85 44.95 41.5 Q53.5 42.35 63.6 39.1 69.95 37.1 74.7 34.4 L78.0 32.4 79.55 31.25 80.9 29.85 Q83.1 27.0 83.25 20.1 L83.05 15.05 Q82.75 12.15 81.55 10.25 80.9 9.3 79.85 8.45 L77.8 7.15 76.85 6.7 68.55 4.8 60.6 3.45 M77.8 11.8 L78.05 11.9 78.05 12.3 Q75.05 15.2 70.45 17.4 67.05 19.2 61.9 20.85 56.15 22.7 51.5 23.6 L44.95 24.2 Q45.6 25.9 45.5 29.3 L45.35 34.2 45.05 37.0 44.65 38.25 44.75 35.2 Q44.75 31.6 44.2 27.85 L43.65 23.95 Q41.55 23.45 38.0 21.9 L36.3 21.0 36.35 20.95 36.85 20.95 37.0 20.95 40.9 21.85 Q48.25 23.75 59.25 20.35 70.25 16.95 77.7 11.85 L77.8 11.8" fill="#000000" fill-rule="evenodd" stroke="none"/>
      <path d="M77.8 7.15 L79.85 8.45 Q80.9 9.3 81.55 10.25 82.75 12.15 83.05 15.05 L83.25 20.1 Q83.1 27.0 80.9 29.85 L79.55 31.25 78.0 32.4 74.7 34.4 Q69.95 37.1 63.6 39.1 53.5 42.35 44.95 41.5 L40.95 40.85 40.65 40.75 39.85 40.55 37.35 39.8 37.25 41.25 37.25 39.85 Q23.1 36.65 10.35 27.8 0.15 20.8 -1.5 15.0 L-1.75 13.2 -1.5 11.9 -0.3 8.4 Q0.65 6.15 2.05 4.5 3.45 2.8 4.4 2.0 5.45 1.15 6.8 0.85 9.55 0.0 12.55 -0.1 L14.45 -0.15 58.25 3.15 60.6 3.45 61.1 4.25 Q62.05 5.85 62.05 6.7 62.05 9.85 57.35 13.5 L52.05 16.8 Q47.95 18.95 44.25 20.0 L38.7 20.85 37.0 20.95 36.85 20.95 36.35 20.95 36.3 21.0 38.0 21.9 Q41.55 23.45 43.65 23.95 L44.2 27.85 Q44.75 31.6 44.75 35.2 L44.65 38.25 45.05 37.0 45.35 34.2 45.5 29.3 Q45.6 25.9 44.95 24.2 L51.5 23.6 Q56.15 22.7 61.9 20.85 67.05 19.2 70.45 17.4 75.05 15.2 78.05 12.3 L78.05 11.9 77.8 11.8 Q78.65 10.85 78.65 10.05 L78.6 8.65 Q78.55 8.05 77.8 7.15" fill="#f99108" fill-rule="evenodd" stroke="none"/>
      <path d="M60.6 3.45 L68.55 4.8 76.85 6.7 77.8 7.15 Q78.55 8.05 78.6 8.65 L78.65 10.05 Q78.65 10.85 77.8 11.8 L77.7 11.85 Q70.25 16.95 59.25 20.35 48.25 23.75 40.9 21.85 L37.0 20.95 38.7 20.85 44.25 20.0 Q47.95 18.95 52.05 16.8 L57.35 13.5 Q62.05 9.85 62.05 6.7 62.05 5.85 61.1 4.25 L60.6 3.45" fill="#f4ac09" fill-rule="evenodd" stroke="none"/>
    </g>
    <g id="shape1" transform="matrix(1.0, 0.0, 0.0, 1.0, -1.15, 0.0)">
      <path d="M1.85 4.55 L1.15 3.7 2.1 2.55 Q3.5 1.25 5.9 0.6 L5.85 0.6 9.75 0.0 14.45 0.6 14.7 0.65 14.75 0.65 17.8 2.55 Q19.7 3.75 23.45 4.55 L33.55 5.7 30.15 6.25 29.7 6.2 22.35 5.25 Q19.3 4.75 17.25 3.4 L17.25 3.35 Q14.9 1.75 14.4 1.6 L14.45 1.6 Q10.0 0.4 6.15 1.55 3.7 2.25 2.45 3.7 L1.85 4.55" fill="#000000" fill-rule="evenodd" stroke="none"/>
      <path d="M30.15 6.25 L30.95 6.3 31.4 6.3 31.55 6.3 30.95 6.35 Q21.0 7.3 12.7 10.5 9.4 11.9 6.95 10.6 4.55 9.35 2.45 5.3 L1.85 4.55 2.45 3.7 Q3.7 2.25 6.15 1.55 10.0 0.4 14.45 1.6 L14.4 1.6 Q14.9 1.75 17.25 3.35 L17.25 3.4 Q19.3 4.75 22.35 5.25 L29.7 6.2 30.15 6.25 M2.95 5.15 L3.1 5.45 3.05 5.25 2.95 5.15" fill="#f99108" fill-rule="evenodd" stroke="none"/>
    </g>
    <g id="shape2" transform="matrix(1.0, 0.0, 0.0, 1.0, 0.5, 0.5)">
      <path d="M47.0 17.55 Q47.0 18.55 37.6 18.85 27.2 19.15 19.1 17.55 11.55 16.05 5.0 13.7 L0.0 11.6 7.4 0.0 17.45 5.7 Q28.65 11.7 34.25 13.3 L44.0 16.0 Q47.0 16.9 47.0 17.55" fill="#009900" fill-rule="evenodd" stroke="none"/>
      <path d="M47.0 17.55 Q47.0 18.55 37.6 18.85 27.2 19.15 19.1 17.55 11.55 16.05 5.0 13.7 L0.0 11.6 7.4 0.0 17.45 5.7 Q28.65 11.7 34.25 13.3 L44.0 16.0 Q47.0 16.9 47.0 17.55 Z" fill="none" stroke="#000000" stroke-linecap="round" stroke-linejoin="round" stroke-width="1.0"/>
    </g>
    <g id="shape3" transform="matrix(1.0, 0.0, 0.0, 1.0, 0.5, 0.5)">
      <path d="M0.05 62.85 L0.1 61.6 Q1.25 47.55 10.15 35.5 19.1 23.4 28.2 12.45 37.25 1.5 43.85 0.35 50.4 -0.8 54.4 1.8 57.55 3.9 59.05 7.35 61.5 15.5 57.05 23.25 53.8 29.0 54.6 35.8 55.55 44.1 57.7 52.05 56.05 48.85 54.55 45.45 50.75 37.05 50.75 33.25 50.75 31.4 51.25 29.05 L48.8 28.35 46.2 27.45 Q35.55 38.3 29.35 45.75 16.8 61.0 16.8 72.35 16.8 75.65 17.65 78.6 L18.45 80.9 Q10.75 78.55 5.8 72.25 L4.25 70.3 4.15 70.15 Q1.75 66.75 0.05 62.85" fill="#009900" fill-rule="evenodd" stroke="none"/>
      <path d="M18.45 80.9 L17.65 78.6 Q16.8 75.65 16.8 72.35 16.8 61.0 29.35 45.75 35.55 38.3 46.2 27.45 L48.8 28.35 51.25 29.05 Q50.75 31.4 50.75 33.25 50.75 37.05 54.55 45.45 56.05 48.85 57.7 52.05 L58.4 54.6 Q60.75 62.4 59.3 69.5 L54.5 73.35 Q42.2 81.85 26.4 81.85 L19.55 81.15 18.45 80.9" fill="#ffffff" fill-rule="evenodd" stroke="none"/>
      <path d="M0.05 62.85 Q1.75 66.75 4.15 70.15 L4.25 70.3 5.8 72.25 Q10.75 78.55 18.45 80.9 L18.8 81.65 18.85 81.75 Q20.0 84.25 21.85 86.45 25.8 91.15 31.25 92.5 19.85 92.85 10.7 85.3 3.5 79.4 1.15 71.85 -0.2 67.6 0.05 62.85" fill="#006700" fill-rule="evenodd" stroke="none"/>
      <path d="M31.25 92.5 Q25.8 91.15 21.85 86.45 20.0 84.25 18.85 81.75 L18.8 81.65 18.45 80.9 19.55 81.15 26.4 81.85 Q42.2 81.85 54.5 73.35 L59.3 69.5 Q57.95 75.9 53.55 81.75 47.1 90.4 36.1 92.0 L31.25 92.5" fill="#cccccc" fill-rule="evenodd" stroke="none"/>
      <path d="M57.7 52.05 Q55.55 44.1 54.6 35.8 53.8 29.0 57.05 23.25 61.5 15.5 59.05 7.35 57.55 3.9 54.4 1.8 50.4 -0.8 43.85 0.35 37.25 1.5 28.2 12.45 19.1 23.4 10.15 35.5 1.25 47.55 0.1 61.6 L0.05 62.85 Q-0.2 67.6 1.15 71.85 3.5 79.4 10.7 85.3 19.85 92.85 31.25 92.5 L36.1 92.0 Q47.1 90.4 53.55 81.75 57.95 75.9 59.3 69.5 60.75 62.4 58.4 54.6 L57.7 52.05" fill="none" stroke="#000000" stroke-linecap="round" stroke-linejoin="round" stroke-width="1.0"/>
      <path d="M18.45 80.9 L17.65 78.6 Q16.8 75.65 16.8 72.35 16.8 61.0 29.35 45.75 35.55 38.3 46.2 27.45 L48.8 28.35 51.25 29.05 Q50.75 31.4 50.75 33.25 50.75 37.05 54.55 45.45 56.05 48.85 57.7 52.05 L58.5 53.6 M31.25 92.5 Q25.8 91.15 21.85 86.45 20.0 84.25 18.85 81.75 L18.8 81.65 18.45 80.9" fill="none" stroke="#000000" stroke-linecap="round" stroke-linejoin="round" stroke-width="0.5"/>
    </g>
    <g id="shape4" transform="matrix(1.0, 0.0, 0.0, 1.0, 0.0, 0.0)">
      <path d="M54.5 15.45 L54.45 14.4 54.85 14.3 55.4 15.85 55.45 15.95 55.45 16.05 55.3 17.7 Q55.3 19.65 58.2 28.9 L61.2 38.3 61.25 38.35 62.1 44.5 Q62.55 47.75 62.5 50.5 62.35 56.0 65.5 56.85 L66.05 57.05 65.7 57.45 Q58.75 66.5 35.6 69.15 L35.55 69.15 35.45 69.2 35.4 69.2 34.35 69.3 34.25 69.3 Q32.55 69.0 31.1 67.4 29.6 65.75 29.65 63.9 29.65 62.75 30.25 60.5 14.6 59.05 0.3 50.15 L0.0 49.95 0.4 49.3 0.7 49.5 Q14.9 58.35 30.45 59.75 L30.95 58.15 Q32.75 52.0 34.1 43.85 L34.45 41.05 Q34.45 40.0 36.35 30.0 38.15 20.1 36.3 13.6 L36.3 13.65 Q33.55 7.5 21.0 3.55 L20.5 3.4 22.75 0.25 22.9 0.0 23.2 0.1 Q29.6 2.15 35.5 7.7 41.35 13.1 40.85 23.65 L54.1 25.9 Q54.6 21.45 54.5 15.45 M60.5 38.45 L57.5 29.1 55.2 21.25 54.8 26.4 54.75 26.8 40.1 24.3 40.1 23.95 Q40.65 13.55 35.0 8.25 29.35 2.95 23.2 0.9 L21.7 3.0 Q34.2 7.05 37.0 13.35 L37.0 13.4 Q38.95 20.0 37.1 30.15 L35.2 41.1 34.85 43.95 Q33.45 52.2 31.65 58.35 L31.65 58.4 31.1 60.2 31.05 60.35 Q30.35 62.7 30.4 63.9 30.4 65.45 31.65 66.9 32.85 68.25 34.35 68.55 L35.3 68.45 35.5 68.4 Q57.7 65.85 64.75 57.4 61.55 56.25 61.75 50.5 61.75 47.75 61.35 44.6 L60.5 38.45" fill="#000000" fill-rule="evenodd" stroke="none"/>
      <path d="M60.5 38.45 L61.35 44.6 Q61.75 47.75 61.75 50.5 61.55 56.25 64.75 57.4 57.7 65.85 35.5 68.4 L35.3 68.45 34.35 68.55 Q32.85 68.25 31.65 66.9 30.4 65.45 30.4 63.9 30.35 62.7 31.05 60.35 L31.1 60.2 31.65 58.4 31.65 58.35 Q33.45 52.2 34.85 43.95 L35.2 41.1 37.1 30.15 Q38.95 20.0 37.0 13.4 L37.0 13.35 Q34.2 7.05 21.7 3.0 L23.2 0.9 Q29.35 2.95 35.0 8.25 40.65 13.55 40.1 23.95 L40.1 24.3 54.75 26.8 54.8 26.4 55.2 21.25 57.5 29.1 60.5 38.45" fill="#bf0101" fill-rule="evenodd" stroke="none"/>
    </g>
    <g id="shape5" transform="matrix(1.0, 0.0, 0.0, 1.0, 0.0, 0.0)">
      <path d="M21.1 8.85 L21.35 7.65 19.55 11.2 19.35 11.05 19.25 10.0 18.9 10.8 Q18.5 9.65 18.85 8.0 L19.0 7.2 Q18.4 8.5 18.55 10.1 18.7 10.4 18.15 9.9 L17.8 7.4 17.0 6.55 16.15 5.1 15.85 6.1 15.5 6.1 14.5 4.25 13.7 4.85 13.65 2.35 12.35 4.4 12.35 3.85 Q12.35 2.7 12.65 1.9 13.2 0.35 14.1 0.45 L15.35 1.15 Q17.15 2.35 18.9 3.85 20.75 5.55 22.35 7.8 L21.5 9.0 21.45 8.75 21.1 8.85" fill="#cb7814" fill-rule="evenodd" stroke="none"/>
      <path d="M21.45 8.75 L21.5 9.0 21.15 9.55 21.45 8.75 M20.3 14.8 L21.4 14.65 18.2 17.05 18.45 16.6 18.45 15.9 20.3 14.8 M14.9 17.3 L15.95 17.25 16.25 16.95 16.9 17.5 14.35 18.9 10.25 21.05 6.1 22.9 Q3.35 23.8 0.5 23.85 L0.45 22.85 4.75 22.05 Q5.65 22.0 8.2 20.8 L11.25 18.95 11.7 19.1 Q12.85 18.85 14.0 17.55 L14.9 17.3" fill="#cc9966" fill-rule="evenodd" stroke="none"/>
      <path d="M18.9 10.8 L19.25 10.0 19.35 11.05 19.55 11.2 21.35 7.65 21.1 8.85 Q20.6 10.45 20.55 12.15 L20.5 14.0 Q19.5 13.05 18.9 10.8 M21.5 9.0 L22.35 7.8 Q22.9 9.25 22.75 11.0 22.55 13.2 21.55 13.75 L21.1 13.75 21.1 13.7 21.15 9.55 21.5 9.0 M12.35 4.4 L13.65 2.35 13.7 4.85 14.5 4.25 15.5 6.1 15.85 6.1 16.15 5.1 17.0 6.55 17.8 7.4 18.15 9.9 17.75 9.7 17.6 9.15 Q16.4 9.05 15.3 7.85 L14.3 6.75 12.35 4.55 12.35 4.45 12.35 4.4" fill="#996633" fill-rule="evenodd" stroke="none"/>
      <path d="M18.9 10.8 Q19.5 13.05 20.5 14.0 L20.55 12.15 Q20.6 10.45 21.1 8.85 L21.45 8.75 21.15 9.55 21.1 13.7 21.05 13.75 21.1 13.75 21.55 13.75 Q22.55 13.2 22.75 11.0 22.9 9.25 22.35 7.8 20.75 5.55 18.9 3.85 17.15 2.35 15.35 1.15 L14.1 0.45 Q13.2 0.35 12.65 1.9 12.35 2.7 12.35 3.85 L12.35 4.4 12.35 4.45 12.35 4.55 14.3 6.75 15.3 7.85 Q16.4 9.05 17.6 9.15 L17.75 9.7 18.15 9.9 Q18.7 10.4 18.55 10.1 18.4 8.5 19.0 7.2 L18.85 8.0 Q18.5 9.65 18.9 10.8 M23.05 11.95 Q22.65 13.75 21.8 14.1 L21.75 14.8 19.65 16.55 12.7 20.45 Q8.15 22.9 4.3 23.85 L0.1 24.3 0.0 22.55 9.5 9.6 Q11.15 7.3 12.0 4.95 L11.95 3.3 12.05 1.95 12.45 1.1 Q12.8 0.5 13.3 0.2 L14.3 0.05 Q16.75 1.35 18.45 2.8 21.8 6.15 22.5 7.25 L23.1 9.05 23.05 11.95 M18.45 15.9 L18.45 16.6 18.2 17.05 21.4 14.65 20.3 14.8 Q19.65 14.5 19.4 13.25 19.05 11.75 18.5 10.95 L18.1 10.5 17.5 11.0 17.4 10.0 14.35 7.45 14.4 8.1 12.35 5.1 11.5 7.25 10.0 9.75 8.55 11.7 5.45 15.8 6.1 16.2 6.05 16.7 Q5.9 17.5 5.45 17.8 L5.3 17.85 Q4.1 19.85 2.95 19.85 L2.65 19.6 0.7 22.4 2.8 21.95 3.2 21.85 6.65 21.15 Q7.7 21.2 8.7 20.2 L8.2 20.8 Q5.65 22.0 4.75 22.05 L0.45 22.85 0.5 23.85 Q3.35 23.8 6.1 22.9 L10.25 21.05 14.35 18.9 16.9 17.5 16.25 16.95 15.95 17.25 14.9 17.3 14.4 17.05 Q14.05 16.65 14.0 15.55 L16.05 14.4 16.05 13.4 16.2 13.15 Q17.9 12.65 18.45 15.9 M13.4 12.3 Q12.85 12.3 12.4 11.85 12.0 11.4 11.7 12.0 L11.8 10.85 12.35 10.65 11.95 11.05 Q13.4 12.65 14.95 11.2 L13.4 10.8 13.65 10.55 15.55 10.95 15.55 11.25 14.85 11.8 Q14.15 12.3 13.4 12.3 M9.65 15.6 L9.1 16.2 9.05 16.25 7.85 16.65 7.4 16.2 8.05 14.5 10.05 14.65 9.65 15.6 M7.75 15.85 L9.8 14.9 8.1 14.9 7.75 15.75 7.65 15.85 7.75 15.85 M5.65 16.6 L5.25 16.3 2.9 19.25 Q4.15 19.55 4.8 17.45 L5.3 17.05 5.65 16.6 M17.1 16.7 L18.15 15.9 Q18.1 14.6 17.55 14.15 L17.1 13.75 Q16.45 15.85 15.15 15.35 L14.45 15.7 14.55 16.5 17.5 15.8 17.1 16.65 17.05 16.7 17.1 16.7 M14.0 17.55 Q12.85 18.85 11.7 19.1 L14.0 17.55" fill="#000000" fill-rule="evenodd" stroke="none"/>
      <path d="M3.2 21.85 L2.8 21.95 Q3.5 21.65 3.95 20.2 L4.1 19.7 7.2 17.45 6.05 16.7 6.1 16.2 5.45 15.8 8.55 11.7 Q10.3 11.35 12.05 9.95 L12.75 9.45 10.0 9.75 11.5 7.25 12.35 5.1 14.4 8.1 14.35 7.45 17.4 10.0 17.5 11.0 18.1 10.5 18.5 10.95 Q18.1 11.45 17.65 11.35 L17.05 11.85 Q16.8 12.6 16.55 12.55 L14.85 11.8 15.55 11.25 15.55 10.95 13.65 10.55 12.35 10.65 11.8 10.85 11.7 12.0 Q12.0 11.4 12.4 11.85 12.85 12.3 13.4 12.3 L12.65 14.15 12.6 15.4 9.65 15.6 10.05 14.65 8.05 14.5 7.4 16.2 7.85 16.65 9.05 16.25 9.05 16.3 8.8 16.5 8.6 17.35 8.8 18.0 Q8.1 19.5 7.15 19.85 5.15 20.55 3.2 21.85" fill="#ffdab5" fill-rule="evenodd" stroke="none"/>
      <path d="M12.35 10.65 L13.65 10.55 13.4 10.8 14.95 11.2 Q13.4 12.65 11.95 11.05 L12.35 10.65 M5.65 16.6 L5.3 17.05 4.8 17.45 Q4.15 19.55 2.9 19.25 L5.25 16.3 5.65 16.6" fill="#cc6666" fill-rule="evenodd" stroke="none"/>
      <path d="M18.45 15.9 Q17.9 12.65 16.2 13.15 L16.05 13.4 16.05 14.4 14.0 15.55 Q14.05 16.65 14.4 17.05 L14.9 17.3 14.0 17.55 11.7 19.1 11.25 18.95 8.2 20.8 8.7 20.2 Q7.7 21.2 6.65 21.15 L3.2 21.85 Q5.15 20.55 7.15 19.85 8.1 19.5 8.8 18.0 L8.6 17.35 8.8 16.5 9.05 16.3 9.1 16.2 9.65 15.6 12.6 15.4 12.65 14.15 13.4 12.3 Q14.15 12.3 14.85 11.8 L16.55 12.55 Q16.8 12.6 17.05 11.85 L17.65 11.35 Q18.1 11.45 18.5 10.95 19.05 11.75 19.4 13.25 19.65 14.5 20.3 14.8 L18.45 15.9" fill="#ffcc99" fill-rule="evenodd" stroke="none"/>
      <path d="M2.8 21.95 L0.7 22.4 2.65 19.6 2.95 19.85 Q4.1 19.85 5.3 17.85 L5.45 17.8 Q5.9 17.5 6.05 16.7 L7.2 17.45 4.1 19.7 3.95 20.2 Q3.5 21.65 2.8 21.95 M8.55 11.7 L10.0 9.75 12.75 9.45 12.05 9.95 Q10.3 11.35 8.55 11.7" fill="#ffe7ce" fill-rule="evenodd" stroke="none"/>
      <path d="M7.75 15.75 L8.1 14.9 9.8 14.9 7.75 15.85 7.75 15.75" fill="#339900" fill-rule="evenodd" stroke="none"/>
      <path d="M9.1 16.2 L9.05 16.3 9.05 16.25 9.1 16.2" fill="#ffe0c1" fill-rule="evenodd" stroke="none"/>
      <path d="M17.1 16.65 L17.5 15.8 14.55 16.5 14.45 15.7 15.15 15.35 Q16.45 15.85 17.1 13.75 L17.55 14.15 Q18.1 14.6 18.15 15.9 L17.1 16.7 17.1 16.65" fill="#cccc99" fill-rule="evenodd" stroke="none"/>
    </g>
    <g id="shape6" transform="matrix(1.0, 0.0, 0.0, 1.0, 0.0, 0.0)">
      <path d="M20.55 9.7 Q23.05 15.2 23.05 17.7 23.05 19.7 21.95 21.05 20.75 22.55 18.55 22.6 12.55 22.6 6.35 15.8 1.0 9.95 0.05 3.2 L0.0 2.85 15.45 0.0 15.6 0.25 Q18.85 6.0 20.55 9.7 M21.35 20.6 Q22.25 19.4 22.3 17.7 22.25 15.3 19.85 10.0 L15.1 0.85 12.35 1.35 12.45 1.45 Q13.45 2.3 15.45 6.3 17.15 9.55 17.3 12.2 L14.8 6.65 Q12.85 2.8 11.95 2.0 L11.7 1.75 12.0 1.4 4.95 2.7 5.05 3.05 Q6.25 6.35 8.1 9.1 L8.05 9.1 Q10.8 13.1 14.15 16.5 15.7 18.05 19.5 17.5 15.7 19.15 13.6 17.05 10.2 13.6 7.45 9.5 5.55 6.65 4.35 3.3 L4.25 2.95 4.8 2.75 0.85 3.45 Q1.85 9.8 6.9 15.3 12.85 21.8 18.55 21.85 20.35 21.85 21.35 20.6" fill="#000000" fill-rule="evenodd" stroke="none"/>
      <path d="M21.35 20.6 Q20.35 21.85 18.55 21.85 12.85 21.8 6.9 15.3 1.85 9.8 0.85 3.45 L4.8 2.75 4.25 2.95 4.35 3.3 Q5.55 6.65 7.45 9.5 10.2 13.6 13.6 17.05 15.7 19.15 19.5 17.5 15.7 18.05 14.15 16.5 10.8 13.1 8.05 9.1 L8.1 9.1 Q6.25 6.35 5.05 3.05 L4.95 2.7 12.0 1.4 11.7 1.75 11.95 2.0 Q12.85 2.8 14.8 6.65 L17.3 12.2 Q17.15 9.55 15.45 6.3 13.45 2.3 12.45 1.45 L12.35 1.35 15.1 0.85 19.85 10.0 Q22.25 15.3 22.3 17.7 22.25 19.4 21.35 20.6" fill="#cc8f65" fill-rule="evenodd" stroke="none"/>
    </g>
    <g id="shape7" transform="matrix(1.0, 0.0, 0.0, 1.0, 0.0, 0.0)">
      <path d="M3.45 3.85 L3.05 2.7 5.05 5.85 Q6.4 7.95 7.65 8.15 L9.6 8.2 9.65 8.2 Q19.3 4.9 30.95 3.8 L31.55 3.75 31.4 3.75 33.6 3.45 34.75 3.2 34.9 3.2 34.95 3.2 38.8 2.4 38.85 2.4 41.95 2.0 Q43.4 1.9 43.55 2.45 L44.6 6.6 Q45.2 9.8 44.9 10.95 L44.9 11.0 44.7 11.5 44.7 11.45 Q43.95 12.7 40.55 14.55 36.7 16.55 32.75 17.35 L19.7 18.6 7.65 18.0 Q4.3 16.95 1.85 12.3 -0.6 7.55 0.2 3.45 0.6 1.4 2.1 0.0 L2.45 1.15 Q1.5 2.2 1.2 3.65 0.5 7.45 2.75 11.85 5.0 16.05 7.95 17.05 L19.65 17.6 32.55 16.35 Q36.4 15.55 40.1 13.65 42.6 12.3 43.5 11.35 27.9 13.1 21.15 15.35 14.35 17.55 11.55 17.25 L13.5 16.9 17.45 15.9 22.35 14.1 Q25.7 12.85 43.95 10.55 44.1 9.45 43.6 6.8 L42.65 2.9 42.65 2.85 42.0 3.0 39.0 3.4 34.05 4.15 Q15.7 6.55 9.8 8.95 9.55 10.15 9.7 11.8 L10.05 14.75 Q9.4 13.95 9.1 12.1 8.8 10.2 8.85 8.95 L7.4 8.85 Q5.75 8.05 4.75 6.35 L3.45 3.85" fill="#000000" fill-rule="evenodd" stroke="none"/>
      <path d="M3.45 3.85 L4.75 6.35 Q5.75 8.05 7.4 8.85 L8.85 8.95 Q8.8 10.2 9.1 12.1 9.4 13.95 10.05 14.75 L9.7 11.8 Q9.55 10.15 9.8 8.95 15.7 6.55 34.05 4.15 L39.0 3.4 42.0 3.0 42.65 2.85 42.65 2.9 43.6 6.8 Q44.1 9.45 43.95 10.55 25.7 12.85 22.35 14.1 L17.45 15.9 13.5 16.9 11.55 17.25 Q14.35 17.55 21.15 15.35 27.9 13.1 43.5 11.35 42.6 12.3 40.1 13.65 36.4 15.55 32.55 16.35 L19.65 17.6 7.95 17.05 Q5.0 16.05 2.75 11.85 0.5 7.45 1.2 3.65 1.5 2.2 2.45 1.15 L3.05 2.7 2.95 2.6 3.45 3.85" fill="#f99108" fill-rule="evenodd" stroke="none"/>
    </g>
    <g id="shape8" transform="matrix(1.0, 0.0, 0.0, 1.0, 0.0, 0.0)">
      <path d="M7.4 1.15 L1.95 1.0 Q5.55 1.1 6.85 3.15 L6.95 3.35 Q4.8 1.6 1.15 1.7 L0.0 1.9 1.15 0.85 Q3.95 -0.9 7.45 1.05 L7.4 1.15" fill="#000000" fill-rule="evenodd" stroke="none"/>
    </g>
    <g id="shape9" transform="matrix(1.0, 0.0, 0.0, 1.0, 0.0, 0.0)">
      <path d="M12.35 16.25 Q9.75 18.65 6.65 18.25 3.45 17.85 1.55 14.9 -0.35 12.0 0.1 8.25 0.55 4.45 3.1 2.0 5.65 -0.3 8.8 0.05 12.0 0.5 13.9 3.35 15.8 6.3 15.35 10.1 14.9 13.85 12.35 16.25" fill="#000000" fill-opacity="0.2" fill-rule="evenodd" stroke="none"/>
    </g>
    <g id="shape10" transform="matrix(1.0, 0.0, 0.0, 1.0, 0.0, 0.0)">
      <path d="M24.35 11.45 Q23.9 12.6 22.8 13.55 21.5 14.6 19.7 15.0 L14.45 14.8 Q11.05 14.1 8.65 12.65 L6.25 10.75 Q4.3 8.75 4.0 6.45 L5.45 8.5 Q8.05 11.5 12.5 12.85 15.35 13.75 18.4 13.65 22.65 13.55 24.35 11.45 M2.8 7.3 L2.85 7.25 3.55 6.7 Q3.85 9.15 5.85 11.1 L5.85 11.15 8.3 13.1 4.2 12.9 Q2.7 12.25 1.9 11.05 1.05 9.7 0.75 8.25 L0.65 7.0 Q0.7 7.55 1.25 7.9 2.05 8.25 2.8 7.3" fill="#f99108" fill-rule="evenodd" stroke="none"/>
      <path d="M4.0 6.45 Q4.3 8.75 6.25 10.75 L8.65 12.65 Q11.05 14.1 14.45 14.8 L19.7 15.0 Q21.5 14.6 22.8 13.55 23.9 12.6 24.35 11.45 24.9 9.85 24.35 8.55 23.6 6.8 22.6 5.7 20.05 3.1 15.05 1.55 10.45 0.1 6.4 1.0 5.2 1.3 4.0 1.95 1.5 3.35 0.85 5.45 0.55 6.45 0.65 7.0 L0.75 8.25 Q1.05 9.7 1.9 11.05 2.7 12.25 4.2 12.9 L8.3 13.1 5.85 11.15 5.85 11.1 Q3.85 9.15 3.55 6.7 L2.85 7.25 2.8 7.3 2.8 7.25 2.9 6.7 Q3.1 6.2 3.65 5.9 L4.3 5.85 Q5.0 5.95 5.4 6.4 L4.55 6.35 4.0 6.45 M25.0 8.4 Q25.25 9.05 25.15 10.1 L25.05 11.45 Q24.55 12.95 23.25 14.0 21.9 15.25 19.8 15.65 18.15 16.0 15.45 15.7 11.85 15.25 8.9 13.55 L4.45 13.8 Q2.45 13.05 1.35 11.45 0.45 10.0 0.1 8.4 -0.15 7.05 0.15 5.8 L0.25 5.25 Q1.15 2.65 3.75 1.25 5.1 0.5 6.25 0.35 10.5 -0.55 15.25 0.95 20.4 2.55 23.0 5.25 24.3 6.55 25.0 8.4" fill="#000000" fill-rule="evenodd" stroke="none"/>
      <path d="M24.35 11.45 Q22.65 13.55 18.4 13.65 15.35 13.75 12.5 12.85 8.05 11.5 5.45 8.5 L4.0 6.45 4.55 6.35 5.4 6.4 Q5.0 5.95 4.3 5.85 L3.65 5.9 Q3.1 6.2 2.9 6.7 L2.8 7.25 2.8 7.3 Q2.05 8.25 1.25 7.9 0.7 7.55 0.65 7.0 0.55 6.45 0.85 5.45 1.5 3.35 4.0 1.95 5.2 1.3 6.4 1.0 10.45 0.1 15.05 1.55 20.05 3.1 22.6 5.7 23.6 6.8 24.35 8.55 24.9 9.85 24.35 11.45" fill="#ffb409" fill-rule="evenodd" stroke="none"/>
    </g>
    <g id="shape11" transform="matrix(1.0, 0.0, 0.0, 1.0, 0.0, 0.0)">
      <path d="M41.25 6.5 L41.3 6.0 Q41.3 4.0 39.9 3.0 38.7 2.15 37.05 2.15 35.0 2.15 29.35 4.15 L29.1 4.2 29.1 4.3 28.6 4.35 28.2 4.4 26.65 5.0 Q22.75 6.1 20.5 6.1 L18.55 6.0 17.6 5.85 14.3 5.25 18.0 5.6 20.75 5.5 21.45 5.45 Q23.6 5.25 25.85 4.4 21.45 4.25 17.4 2.75 12.85 1.0 11.45 1.0 L10.95 1.05 8.4 1.5 11.15 3.5 10.2 3.2 7.8 2.3 6.85 1.9 6.75 1.9 5.65 1.75 Q3.7 1.8 2.1 4.15 L1.4 5.25 1.1 5.75 0.9 6.2 0.0 5.75 0.05 5.7 0.2 5.3 0.5 4.8 Q2.75 0.7 5.65 0.75 L6.85 0.9 8.0 0.55 8.0 0.6 Q10.05 0.0 11.45 0.0 12.95 0.0 17.75 1.8 22.25 3.5 25.65 3.5 L28.5 3.35 28.55 3.35 29.0 3.2 Q34.9 1.15 37.05 1.15 39.1 1.15 40.5 2.2 42.3 3.5 42.3 6.0 42.3 7.35 41.5 8.7 40.25 10.6 37.15 12.4 31.8 15.45 24.95 15.45 21.7 15.45 16.85 13.9 11.2 12.05 9.45 9.25 L9.4 9.2 7.4 7.05 7.05 6.4 6.75 5.95 6.9 5.9 8.9 7.2 11.4 9.1 Q12.9 10.35 15.1 10.7 L19.05 11.1 Q22.65 11.2 28.1 8.6 32.35 6.55 34.75 6.1 L35.95 6.0 35.8 5.95 36.0 5.95 36.1 5.95 37.7 6.2 36.05 6.4 Q36.75 6.95 36.65 7.8 L36.6 8.1 Q36.05 10.95 33.15 11.75 35.05 10.8 36.05 8.85 36.75 7.4 35.3 6.6 32.25 7.1 28.5 9.05 22.4 12.1 19.95 12.1 L14.7 11.45 12.9 11.1 13.7 11.5 17.15 12.95 Q21.8 14.45 24.95 14.45 31.5 14.45 36.65 11.55 40.85 9.1 41.25 6.5" fill="#000000" fill-rule="evenodd" stroke="none"/>
      <path d="M18.55 6.0 L20.5 6.1 Q22.75 6.1 26.65 5.0 L28.2 4.4 28.6 4.35 29.1 4.3 29.1 4.2 29.35 4.15 Q35.0 2.15 37.05 2.15 38.7 2.15 39.9 3.0 41.3 4.0 41.3 6.0 L41.25 6.5 Q40.85 5.65 39.75 5.0 38.1 4.0 35.75 4.0 34.25 4.0 28.5 6.5 22.75 9.0 18.75 9.0 15.8 9.0 11.05 6.15 6.35 3.25 4.1 3.25 3.45 3.25 2.1 4.15 3.7 1.8 5.65 1.75 L6.75 1.9 6.85 1.9 7.8 2.3 10.2 3.2 11.65 4.05 Q14.95 6.0 18.1 6.0 L18.55 6.0 M10.95 1.05 L11.45 1.0 Q12.85 1.0 17.4 2.75 21.45 4.25 25.85 4.4 23.6 5.25 21.45 5.45 L20.75 5.5 Q18.5 5.5 14.9 3.15 12.5 1.55 10.95 1.05" fill="#f8c592" fill-rule="evenodd" stroke="none"/>
      <path d="M41.25 6.5 Q40.85 9.1 36.65 11.55 31.5 14.45 24.95 14.45 21.8 14.45 17.15 12.95 L13.7 11.5 12.9 11.1 14.7 11.45 19.95 12.1 Q22.4 12.1 28.5 9.05 32.25 7.1 35.3 6.6 36.75 7.4 36.05 8.85 35.05 10.8 33.15 11.75 36.05 10.95 36.6 8.1 L36.65 7.8 Q36.75 6.95 36.05 6.4 L37.7 6.2 36.1 5.95 36.0 5.95 35.8 5.95 35.95 6.0 34.75 6.1 Q32.35 6.55 28.1 8.6 22.65 11.2 19.05 11.1 L15.1 10.7 Q12.9 10.35 11.4 9.1 L8.9 7.2 6.9 5.9 6.75 5.95 7.05 6.4 7.4 7.05 3.95 6.1 1.4 5.25 2.1 4.15 Q3.45 3.25 4.1 3.25 6.35 3.25 11.05 6.15 15.8 9.0 18.75 9.0 22.75 9.0 28.5 6.5 34.25 4.0 35.75 4.0 38.1 4.0 39.75 5.0 40.85 5.65 41.25 6.5 M10.2 3.2 L11.15 3.5 8.4 1.5 10.95 1.05 Q12.5 1.55 14.9 3.15 18.5 5.5 20.75 5.5 L18.0 5.6 14.3 5.25 17.6 5.85 18.55 6.0 18.1 6.0 Q14.95 6.0 11.65 4.05 L10.2 3.2" fill="#cc8f65" fill-rule="evenodd" stroke="none"/>
    </g>
    <g id="shape12" transform="matrix(1.0, 0.0, 0.0, 1.0, 0.0, 0.0)">
      <path d="M0.55 17.05 L6.55 19.4 Q17.5 23.35 30.75 26.45 L30.75 26.4 Q43.4 29.3 51.35 27.45 53.95 26.8 55.55 25.75 L56.55 24.85 53.4 24.0 Q48.0 22.85 44.75 21.8 40.1 20.25 35.3 17.55 32.45 15.95 26.2 11.85 17.3 5.9 10.6 0.65 L9.8 0.0 26.75 11.0 Q32.95 15.05 35.8 16.7 40.5 19.35 45.05 20.85 L53.6 23.0 Q57.5 23.85 57.55 24.65 57.8 25.4 56.1 26.6 54.35 27.7 51.6 28.4 43.5 30.3 30.55 27.4 17.2 24.35 6.2 20.35 L6.15 20.3 Q2.45 18.65 0.45 17.2 L0.0 16.8 0.55 17.05" fill="#000000" fill-rule="evenodd" stroke="none"/>
      <path d="M10.6 0.65 Q17.3 5.9 26.2 11.85 32.45 15.95 35.3 17.55 40.1 20.25 44.75 21.8 48.0 22.85 53.4 24.0 L56.55 24.85 55.55 25.75 Q53.95 26.8 51.35 27.45 43.4 29.3 30.75 26.4 L30.75 26.45 Q17.5 23.35 6.55 19.4 L0.55 17.05 10.6 0.65" fill="#009900" fill-rule="evenodd" stroke="none"/>
    </g>
    <g id="shape13" transform="matrix(1.0, 0.0, 0.0, 1.0, 0.0, 0.0)">
      <path d="M45.55 26.95 Q45.95 31.35 43.75 33.55 41.5 35.75 38.45 35.75 35.6 35.75 32.9 33.8 L30.65 36.5 27.15 40.85 Q24.6 44.35 22.45 47.95 L20.25 51.7 20.05 52.0 19.75 51.95 Q14.8 51.2 10.6 48.7 6.65 46.35 3.5 43.05 L0.2 39.15 0.0 38.9 0.2 38.6 5.65 29.25 9.4 21.65 10.3 19.65 12.5 14.8 Q8.2 13.3 6.95 9.05 5.65 4.7 8.1 2.3 9.2 1.25 11.0 0.55 15.05 -1.1 18.35 2.1 23.3 1.7 27.95 3.75 30.95 5.05 32.8 7.9 37.1 9.45 40.05 13.0 42.15 15.6 42.4 19.2 44.8 22.35 45.45 26.0 L45.55 26.95 M44.6 27.6 L44.55 27.05 Q44.15 23.05 41.5 19.65 L39.8 17.05 41.2 17.7 Q40.7 15.4 39.25 13.65 L39.3 13.65 Q36.45 10.25 32.3 8.8 L32.15 8.7 32.05 8.6 Q30.35 5.9 27.55 4.65 23.5 2.85 19.25 3.05 L19.55 4.25 17.8 2.95 17.75 2.9 Q14.9 0.05 11.35 1.5 9.3 2.25 8.35 3.6 6.9 5.55 7.9 8.75 9.1 12.75 13.25 14.0 L13.3 14.05 13.45 14.1 14.55 14.55 15.1 12.3 15.35 15.3 15.8 19.4 Q16.4 24.0 20.55 25.95 L20.5 25.95 Q24.35 27.65 28.75 27.1 L31.45 27.05 29.55 27.95 30.1 29.05 Q31.15 31.15 33.15 32.7 L33.2 32.8 Q35.75 34.75 38.45 34.75 41.1 34.75 43.05 32.85 44.8 31.1 44.6 27.6 M29.55 36.25 L32.1 33.2 Q30.25 31.55 29.2 29.5 L28.55 28.15 Q24.05 28.6 20.1 26.85 15.5 24.7 14.8 19.55 L14.4 15.6 13.4 15.15 11.2 20.05 10.2 22.3 6.55 29.7 1.25 38.85 4.25 42.35 4.2 42.35 Q7.25 45.55 11.1 47.85 15.0 50.15 19.55 50.9 L21.6 47.45 Q23.8 43.75 26.35 40.25 L29.55 36.25" fill="#000000" fill-rule="evenodd" stroke="none"/>
      <path d="M8.35 3.6 Q9.3 2.25 11.35 1.5 14.9 0.05 17.75 2.9 L17.8 2.95 19.55 4.25 19.25 3.05 Q23.5 2.85 27.55 4.65 30.35 5.9 32.05 8.6 L32.15 8.7 32.3 8.8 Q36.45 10.25 39.3 13.65 L39.25 13.65 Q40.7 15.4 41.2 17.7 L39.8 17.05 41.5 19.65 Q44.15 23.05 44.55 27.05 L44.6 27.6 44.25 28.1 Q42.35 30.75 39.85 30.75 37.6 30.75 35.35 27.7 33.35 24.95 33.0 22.5 L28.05 23.45 24.6 23.5 Q20.55 23.5 19.3 17.5 L18.5 12.55 Q18.0 9.7 17.25 8.5 L15.7 9.6 Q14.85 10.25 13.6 10.25 11.15 10.25 9.5 7.0 8.7 5.4 8.35 3.6 M29.55 36.25 L26.35 40.25 Q23.8 43.75 21.6 47.45 L19.55 50.9 Q15.0 50.15 11.1 47.85 7.25 45.55 4.2 42.35 L4.25 42.35 1.25 38.85 6.55 29.7 10.2 22.3 Q11.7 23.3 13.75 23.75 13.95 28.1 16.7 30.2 19.0 32.0 22.6 32.0 L26.5 31.75 27.75 34.2 Q28.7 35.7 29.55 36.25" fill="#ffffff" fill-rule="evenodd" stroke="none"/>
      <path d="M44.6 27.6 Q44.8 31.1 43.05 32.85 41.1 34.75 38.45 34.75 35.75 34.75 33.2 32.8 L33.15 32.7 Q31.15 31.15 30.1 29.05 L29.55 27.95 31.45 27.05 28.75 27.1 Q24.35 27.65 20.5 25.95 L20.55 25.95 Q16.4 24.0 15.8 19.4 L15.35 15.3 15.1 12.3 14.55 14.55 13.45 14.1 13.3 14.05 13.25 14.0 Q9.1 12.75 7.9 8.75 6.9 5.55 8.35 3.6 8.7 5.4 9.5 7.0 11.15 10.25 13.6 10.25 14.85 10.25 15.7 9.6 L17.25 8.5 Q18.0 9.7 18.5 12.55 L19.3 17.5 Q20.55 23.5 24.6 23.5 L28.05 23.45 33.0 22.5 Q33.35 24.95 35.35 27.7 37.6 30.75 39.85 30.75 42.35 30.75 44.25 28.1 L44.6 27.6 M10.2 22.3 L11.2 20.05 13.4 15.15 14.4 15.6 14.8 19.55 Q15.5 24.7 20.1 26.85 24.05 28.6 28.55 28.15 L29.2 29.5 Q30.25 31.55 32.1 33.2 L29.55 36.25 Q28.7 35.7 27.75 34.2 L26.5 31.75 22.6 32.0 Q19.0 32.0 16.7 30.2 13.95 28.1 13.75 23.75 11.7 23.3 10.2 22.3" fill="#cccccc" fill-rule="evenodd" stroke="none"/>
    </g>
  </defs>
</svg>
