<?xml version="1.0" encoding="UTF-8" standalone="no"?>
<svg xmlns:ffdec="https://www.free-decompiler.com/flash" xmlns:xlink="http://www.w3.org/1999/xlink" ffdec:objectType="frame" height="186.4px" width="309.8px" xmlns="http://www.w3.org/2000/svg">
  <g transform="matrix(1.0, 0.0, 0.0, 1.0, -256.15, -106.15)">
    <use ffdec:characterId="77" height="55.0" transform="matrix(1.0, 0.0, 0.0, 1.0, 263.0, 216.05)" width="117.4" xlink:href="#shape0"/>
    <use ffdec:characterId="101" height="49.55" transform="matrix(1.0, 0.0, 0.1816, 1.0454, 318.7193, 213.3298)" width="54.45" xlink:href="#shape1"/>
    <use ffdec:characterId="101" height="49.55" transform="matrix(-0.9761, -0.289, -0.3738, 0.9827, 327.9201, 207.8468)" width="54.45" xlink:href="#shape1"/>
    <use ffdec:characterId="79" height="55.7" transform="matrix(0.9994, -0.0344, 0.0612, 0.9985, 267.5269, 115.7115)" width="58.35" xlink:href="#shape2"/>
    <use ffdec:characterId="80" height="34.5" transform="matrix(0.9865, -0.1547, 0.1055, 0.9778, 347.8413, 116.277)" width="11.55" xlink:href="#shape3"/>
    <use ffdec:characterId="102" height="131.5" transform="matrix(0.9867, 0.0, 0.0029, 0.9917, 290.5073, 112.8)" width="82.05" xlink:href="#shape4"/>
    <use ffdec:characterId="82" height="35.6" transform="matrix(0.9865, -0.1547, 0.1055, 0.9778, 309.904, 116.7385)" width="48.7" xlink:href="#shape5"/>
    <use ffdec:characterId="105" height="63.9" transform="matrix(0.9894, 0.195, -0.0577, 0.9361, 345.1653, 163.9945)" width="45.8" xlink:href="#shape6"/>
    <use ffdec:characterId="84" height="29.7" transform="matrix(0.9609, -0.2768, 0.2768, 0.9609, 331.8116, 173.3734)" width="11.6" xlink:href="#shape7"/>
    <use ffdec:characterId="84" height="29.7" transform="matrix(0.9923, -0.1239, 0.1239, 0.9923, 322.7306, 168.5336)" width="11.6" xlink:href="#shape7"/>
    <use ffdec:characterId="85" height="18.8" transform="matrix(0.9908, -0.1356, 0.1356, 0.9908, 334.8, 132.9)" width="22.35" xlink:href="#shape8"/>
    <use ffdec:characterId="86" height="8.7" transform="matrix(0.6845, 0.0774, -0.0774, 0.6845, 345.45, 141.95)" width="5.0" xlink:href="#shape9"/>
    <use ffdec:characterId="86" height="8.7" transform="matrix(0.6509, 0.0736, -0.0736, 0.6509, 351.0, 142.05)" width="5.0" xlink:href="#shape9"/>
    <use ffdec:characterId="87" height="23.6" transform="matrix(0.9908, -0.1356, 0.1356, 0.9908, 333.6703, 147.6483)" width="33.25" xlink:href="#shape10"/>
    <use ffdec:characterId="88" height="105.9" transform="matrix(1.034, -0.1, 0.0422, 0.9696, 257.5974, 144.9203)" width="130.45" xlink:href="#shape11"/>
    <use ffdec:characterId="89" height="51.1" transform="matrix(0.9956, -0.072, 0.1035, 0.9969, 352.3004, 212.7375)" width="90.45" xlink:href="#shape12"/>
    <use ffdec:characterId="90" height="22.8" transform="matrix(0.9956, -0.072, 0.1035, 0.9969, 368.0958, 232.9316)" width="8.3" xlink:href="#shape13"/>
    <use ffdec:characterId="90" height="22.8" transform="matrix(0.9956, -0.072, 0.1035, 0.9969, 384.5458, 227.3816)" width="8.3" xlink:href="#shape13"/>
    <use ffdec:characterId="90" height="22.8" transform="matrix(0.9956, -0.072, 0.1035, 0.9969, 401.6458, 221.9816)" width="8.3" xlink:href="#shape13"/>
    <use ffdec:characterId="90" height="22.8" transform="matrix(0.9956, -0.072, 0.1035, 0.9969, 417.5458, 216.9816)" width="8.3" xlink:href="#shape13"/>
    <use ffdec:characterId="91" height="34.4" transform="matrix(0.9918, -0.1622, 0.2585, 0.966, 426.95, 219.1)" width="71.75" xlink:href="#shape14"/>
  </g>
  <defs>
    <g id="shape0" transform="matrix(1.0, 0.0, 0.0, 1.0, -263.0, -216.05)">
      <path d="M380.4 252.3 Q380.4 263.05 363.2 268.1 346.0 273.2 321.7 269.55 297.35 265.95 280.15 255.75 263.0 245.6 263.0 234.85 263.0 224.1 280.15 219.0 297.35 213.95 321.7 217.55 346.0 221.2 363.2 231.35 380.4 241.55 380.4 252.3" fill="#000000" fill-opacity="0.2" fill-rule="evenodd" stroke="none"/>
    </g>
    <g id="shape1" transform="matrix(1.0, 0.0, 0.0, 1.0, -4.0, 5.95)">
      <path d="M21.25 -5.95 Q25.5 -6.2 29.45 -2.75 33.2 0.6 35.65 6.35 37.3 10.4 42.1 13.45 46.15 16.0 51.75 17.45 L51.7 17.45 52.65 17.65 52.7 17.6 Q53.85 18.0 54.75 18.65 L56.35 20.25 Q58.05 22.35 58.4 25.35 58.7 28.85 57.8 31.45 56.7 34.5 53.8 35.95 45.4 40.05 34.0 42.1 23.15 44.0 13.1 43.5 L13.05 43.5 10.35 42.95 Q7.6 41.75 6.25 37.95 3.95 31.7 4.0 24.8 4.0 21.05 4.75 17.25 5.2 14.6 6.05 11.95 11.5 -5.65 21.25 -5.95 M53.1 19.05 L52.4 18.8 52.35 18.75 51.45 18.65 51.4 18.65 Q45.65 17.15 41.45 14.45 36.3 11.2 34.45 6.75 32.2 1.25 28.65 -1.85 L28.7 -1.85 Q25.15 -4.9 21.4 -4.8 L21.35 -4.8 Q12.3 -4.25 7.2 12.3 6.35 15.0 5.9 17.65 5.25 21.25 5.25 24.85 5.2 31.5 7.4 37.55 8.55 40.85 10.85 41.85 L13.15 42.3 Q23.15 42.75 33.75 40.9 45.05 38.9 53.25 34.85 55.7 33.6 56.65 31.0 L56.7 31.0 Q57.55 28.65 57.2 25.45 L57.1 24.8 56.75 23.35 Q56.3 22.0 55.45 20.95 L55.4 20.95 Q54.45 19.65 53.1 19.05 M52.3 22.8 L52.2 22.85 Q48.7 24.3 39.95 26.35 L27.9 28.4 11.45 29.05 Q10.6 35.0 10.6 40.0 9.75 36.2 10.75 28.85 8.0 28.15 7.3 22.7 L7.15 18.1 Q7.3 15.25 8.0 12.05 L7.9 14.05 Q7.55 15.9 7.6 18.25 L7.95 22.5 Q8.7 27.65 11.1 28.25 L11.25 28.3 27.8 27.7 39.85 25.55 Q47.3 24.0 53.85 21.95 L52.3 22.8" fill="#000000" fill-rule="evenodd" stroke="none"/>
      <path d="M56.75 23.35 L57.1 24.8 57.2 25.45 Q57.55 28.65 56.7 31.0 L56.65 31.0 Q55.7 33.6 53.25 34.85 45.05 38.9 33.75 40.9 23.15 42.75 13.15 42.3 L10.85 41.85 Q8.55 40.85 7.4 37.55 5.2 31.5 5.25 24.85 5.25 21.25 5.9 17.65 6.35 15.0 7.2 12.3 12.3 -4.25 21.35 -4.8 L21.4 -4.8 Q25.15 -4.9 28.7 -1.85 L28.65 -1.85 Q32.2 1.25 34.45 6.75 36.3 11.2 41.45 14.45 45.65 17.15 51.4 18.65 L51.45 18.65 52.35 18.75 52.4 18.8 53.1 19.05 52.85 19.1 Q31.35 24.65 17.75 21.05 15.2 20.35 10.7 18.45 8.35 17.4 7.6 18.25 7.55 15.9 7.9 14.05 L8.0 12.05 Q7.3 15.25 7.15 18.1 L7.3 22.7 Q8.0 28.15 10.75 28.85 9.75 36.2 10.6 40.0 10.6 35.0 11.45 29.05 L27.9 28.4 39.95 26.35 Q48.7 24.3 52.2 22.85 L52.3 22.8 Q55.8 21.6 56.75 23.35" fill="#f99108" fill-rule="evenodd" stroke="none"/>
      <path d="M53.1 19.05 Q54.45 19.65 55.4 20.95 L55.45 20.95 Q56.3 22.0 56.75 23.35 55.8 21.6 52.3 22.8 L53.85 21.95 Q47.3 24.0 39.85 25.55 L27.8 27.7 11.25 28.3 11.1 28.25 Q8.7 27.65 7.95 22.5 L7.6 18.25 Q8.35 17.4 10.7 18.45 15.2 20.35 17.75 21.05 31.35 24.65 52.85 19.1 L53.1 19.05" fill="#ffb409" fill-rule="evenodd" stroke="none"/>
    </g>
    <g id="shape2" transform="matrix(1.0, 0.0, 0.0, 1.0, 0.5, -3.7)">
      <path d="M4.1 22.3 Q6.7 15.75 12.75 10.65 19.25 5.05 25.25 4.75 30.2 6.7 34.75 9.65 39.35 12.5 43.25 16.25 47.55 20.5 50.9 25.35 L53.05 28.85 Q56.8 35.4 56.95 38.8 L56.95 39.15 56.9 40.0 55.2 42.0 Q52.2 44.8 48.7 44.8 42.35 44.8 31.3 30.5 L23.6 20.65 Q19.8 16.2 17.8 16.2 16.65 16.2 13.5 20.8 10.3 25.4 7.4 25.4 5.75 25.4 4.8 24.0 4.3 23.3 4.1 22.3 M12.15 33.95 L11.0 34.8 9.05 35.5 Q7.9 35.7 5.3 34.65 2.65 33.6 1.8 32.55 L2.45 31.25 Q2.95 30.15 5.5 31.85 7.95 33.5 11.55 32.65 L12.15 33.95" fill="#7ab536" fill-rule="evenodd" stroke="none"/>
      <path d="M56.9 40.0 L56.95 39.15 56.95 38.8 Q56.8 35.4 53.05 28.85 L50.9 25.35 Q47.55 20.5 43.25 16.25 39.35 12.5 34.75 9.65 30.2 6.7 25.25 4.75 19.25 5.05 12.75 10.65 6.7 15.75 4.1 22.3 3.3 24.15 2.85 26.2 L2.85 26.15 2.7 27.0 Q3.75 29.4 7.45 30.0 L13.1 29.75 13.95 29.25 17.05 26.05 17.5 25.45 17.4 25.25 17.0 24.1 16.9 22.65 17.45 23.55 18.2 24.8 18.75 25.75 18.8 25.9 19.05 26.3 19.05 26.35 19.45 27.2 19.5 27.4 25.4 38.45 25.4 38.5 Q29.85 46.65 39.65 57.2 L39.6 57.2 39.75 57.35 39.9 57.65 40.15 58.1 40.3 58.35 40.3 58.4 40.35 58.6 39.95 58.5 38.15 56.8 38.05 56.7 37.9 56.5 37.15 55.75 34.15 52.55 Q28.8 46.9 24.5 38.95 L17.95 26.55 18.05 26.55 18.0 26.5 17.8 26.65 14.7 30.15 Q14.9 31.05 14.45 33.3 14.0 35.5 13.55 36.2 L13.0 36.4 11.95 36.75 11.8 36.8 11.65 37.4 Q10.3 42.4 7.9 42.3 4.6 42.3 3.4 39.45 L3.4 39.4 2.1 34.9 1.15 34.3 -0.3 33.3 -0.45 33.1 -0.5 32.85 0.45 29.1 1.1 27.15 1.7 26.65 1.85 25.95 1.9 25.95 Q2.55 23.05 3.85 20.4 6.55 14.6 12.1 9.9 18.85 4.1 25.05 3.75 L24.9 3.7 25.1 3.75 25.4 3.75 25.75 3.8 29.7 5.4 Q34.75 7.85 39.05 11.3 43.45 14.75 47.1 18.95 50.65 23.05 53.45 27.6 L53.9 28.3 Q57.45 34.6 57.8 38.0 L57.85 38.2 57.85 38.65 57.85 38.8 Q57.9 42.2 56.9 46.45 L56.65 47.4 55.5 51.75 54.95 53.3 Q54.7 53.85 54.65 53.35 54.6 52.85 54.7 52.45 L54.75 52.2 54.85 51.15 54.95 50.8 54.9 50.8 Q56.35 45.0 56.8 41.6 L56.9 40.0 M11.25 35.9 L12.0 35.65 12.7 35.45 12.75 35.4 Q13.8 33.8 13.8 32.0 L13.7 30.35 Q11.3 31.55 7.45 30.9 3.9 30.25 2.35 27.95 L2.05 28.05 1.85 28.0 1.4 29.4 1.3 29.65 1.0 30.85 0.55 32.7 1.35 33.25 2.7 34.1 2.75 34.1 2.8 34.15 3.15 34.35 3.15 34.4 Q6.7 36.5 8.5 36.5 L11.15 35.95 11.2 35.95 11.25 35.9 M4.3 39.05 Q5.3 41.3 7.9 41.3 9.6 41.2 10.65 37.15 L8.5 37.5 Q6.7 37.5 3.4 35.65 L4.3 39.05 M55.9 51.05 L56.0 50.65 55.9 51.0 55.9 51.05" fill="#000000" fill-rule="evenodd" stroke="none"/>
      <path d="M4.1 22.3 Q4.3 23.3 4.8 24.0 5.75 25.4 7.4 25.4 10.3 25.4 13.5 20.8 16.65 16.2 17.8 16.2 19.8 16.2 23.6 20.65 L31.3 30.5 Q42.35 44.8 48.7 44.8 52.2 44.8 55.2 42.0 L56.9 40.0 56.8 41.6 Q56.35 45.0 54.9 50.8 L54.95 50.8 54.85 51.15 54.75 52.2 Q53.7 54.1 52.35 55.6 48.85 59.4 43.7 59.4 42.2 59.4 40.55 58.55 L40.3 58.4 40.3 58.35 40.15 58.1 39.9 57.65 39.75 57.35 39.6 57.2 39.65 57.2 Q29.85 46.65 25.4 38.5 L25.4 38.45 19.5 27.4 19.45 27.2 19.05 26.35 19.05 26.3 18.8 25.9 18.75 25.75 18.2 24.8 17.45 23.55 16.9 22.65 17.0 24.1 17.4 25.25 17.5 25.45 17.05 26.05 13.95 29.25 13.1 29.75 7.45 30.0 Q3.75 29.4 2.7 27.0 L2.85 26.15 2.85 26.2 Q3.3 24.15 4.1 22.3 M12.15 33.95 L11.55 32.65 Q7.95 33.5 5.5 31.85 2.95 30.15 2.45 31.25 L1.8 32.55 Q2.65 33.6 5.3 34.65 7.9 35.7 9.05 35.5 L11.0 34.8 12.15 33.95 M11.25 35.9 L11.2 35.95 11.15 35.95 8.5 36.5 Q6.7 36.5 3.15 34.4 L3.15 34.35 2.8 34.15 2.75 34.1 2.7 34.1 1.35 33.25 0.55 32.7 1.0 30.85 1.3 29.65 1.4 29.4 1.85 28.0 2.05 28.05 2.35 27.95 Q3.9 30.25 7.45 30.9 11.3 31.55 13.7 30.35 L13.8 32.0 Q13.8 33.8 12.75 35.4 L12.7 35.45 12.0 35.65 11.25 35.9" fill="#569113" fill-rule="evenodd" stroke="none"/>
      <path d="M4.3 39.05 L3.4 35.65 Q6.7 37.5 8.5 37.5 L10.65 37.15 Q9.6 41.2 7.9 41.3 5.3 41.3 4.3 39.05" fill="#b24600" fill-rule="evenodd" stroke="none"/>
    </g>
    <g id="shape3" transform="matrix(1.0, 0.0, 0.0, 1.0, 3.65, 0.55)">
      <path d="M1.25 13.65 Q2.65 11.3 3.7 6.65 4.6 2.5 4.6 0.6 L4.55 -0.05 Q6.9 1.45 6.9 2.4 5.55 8.6 4.9 10.1 L4.25 11.5 Q6.45 14.7 7.1 18.25 8.1 23.3 5.65 27.75 2.8 32.95 -3.15 33.45 L1.7 14.65 1.25 13.65 M1.7 14.65 L1.95 15.2 4.25 11.5 1.95 15.2 1.7 14.65" fill="#0098ff" fill-rule="evenodd" stroke="none"/>
      <path d="M1.25 13.65 Q2.65 11.3 3.7 6.65 4.6 2.5 4.6 0.6 L4.55 -0.05 Q6.9 1.45 6.9 2.4 5.55 8.6 4.9 10.1 L4.25 11.5 Q6.45 14.7 7.1 18.25 8.1 23.3 5.65 27.75 2.8 32.95 -3.15 33.45 L1.7 14.65 1.25 13.65 M4.25 11.5 L1.95 15.2 1.7 14.65" fill="none" stroke="#000000" stroke-linecap="round" stroke-linejoin="round" stroke-width="1.0"/>
    </g>
    <g id="shape4" transform="matrix(1.0, 0.0, 0.0, 1.0, 0.55, 0.0)">
      <path d="M63.45 9.4 L64.25 10.95 64.65 11.8 64.65 11.85 Q66.45 16.0 66.85 20.6 L67.4 29.2 67.55 36.05 67.45 40.85 67.5 40.85 67.65 45.55 Q64.5 48.55 60.25 50.25 60.85 46.45 62.4 41.6 L62.35 41.45 62.25 41.3 Q59.65 40.25 55.25 39.15 52.1 38.25 48.7 38.3 L48.55 38.35 48.45 38.5 48.15 39.8 Q47.6 42.0 46.2 44.65 L44.2 48.55 43.8 49.5 34.3 41.1 Q27.0 34.25 25.0 31.1 L25.8 28.15 28.1 21.2 Q29.55 16.7 31.7 12.7 32.7 10.9 34.0 9.2 L34.45 8.5 Q36.75 5.75 39.75 4.0 43.95 1.4 48.1 1.15 L52.85 1.5 Q59.45 3.0 63.45 9.4" fill="#ff6500" fill-rule="evenodd" stroke="none"/>
      <path d="M19.55 40.8 Q18.9 42.0 19.1 40.3 19.35 38.3 19.9 36.6 19.3 35.65 19.3 35.0 19.25 34.45 19.85 33.7 L20.6 33.0 20.5 32.3 Q20.4 31.3 22.1 30.3 L22.3 30.2 22.3 30.25 Q22.45 30.1 23.7 29.6 L24.0 29.55 24.2 29.65 24.7 27.85 27.0 20.85 Q28.6 16.25 30.7 12.2 31.8 10.3 33.1 8.55 L33.55 7.85 33.55 7.8 Q36.05 4.9 39.2 3.0 43.6 0.3 48.05 0.05 L53.15 0.45 53.1 0.45 Q60.15 2.0 64.4 8.85 L65.25 10.5 65.65 11.35 Q67.5 15.7 67.95 20.45 L68.5 29.15 68.65 36.05 68.6 40.9 68.7 44.45 68.85 44.35 69.1 44.15 69.45 44.2 69.9 44.5 Q70.75 45.0 70.7 45.8 70.7 46.8 70.05 47.9 L70.45 48.35 70.5 48.6 Q70.5 49.85 69.55 51.0 L69.95 53.3 70.15 54.1 Q71.35 59.45 73.25 64.7 L76.25 72.15 Q80.3 80.95 81.25 90.4 82.15 99.0 80.05 107.4 L79.85 107.7 78.7 108.4 Q76.75 113.6 73.25 117.8 L71.4 119.8 71.4 119.85 69.35 121.75 Q63.85 126.45 56.75 128.95 51.0 131.0 44.6 131.45 L41.95 131.5 Q30.75 131.7 22.6 128.1 L18.5 125.65 Q14.75 123.25 9.65 117.85 4.65 112.35 2.1 106.1 0.35 101.8 0.05 97.05 -0.1 94.7 0.1 92.3 L0.45 88.7 -0.5 86.1 -0.55 85.9 Q0.05 77.45 3.95 69.0 L4.0 68.95 11.15 56.85 16.2 47.8 Q17.45 46.0 16.7 48.1 14.5 53.1 12.0 57.35 L4.85 69.4 4.85 69.45 Q1.05 77.65 0.45 85.85 L1.45 88.4 1.55 88.75 Q2.85 92.2 4.75 95.6 L5.1 96.15 5.5 96.8 Q13.45 109.9 27.45 116.0 41.75 122.25 60.0 116.15 L60.6 115.95 62.8 115.15 Q70.7 112.15 77.7 107.85 L79.15 106.95 Q81.15 98.8 80.25 90.5 79.75 85.35 78.3 80.35 77.1 76.4 75.35 72.55 73.85 69.3 72.65 65.95 L71.15 61.6 Q70.0 58.0 69.2 54.3 L69.05 53.8 68.65 51.85 68.05 52.25 65.8 53.45 65.8 53.5 60.6 55.3 59.7 55.5 59.25 55.65 59.0 55.7 58.4 55.85 57.4 55.95 Q57.4 55.75 58.25 55.4 L59.25 54.95 59.75 54.75 60.1 54.65 65.45 52.55 65.4 52.55 67.95 51.1 68.6 50.55 68.7 50.5 68.95 50.15 69.4 49.3 69.5 48.6 68.9 49.1 68.2 49.65 67.85 49.9 Q66.7 50.7 65.5 51.05 L64.35 51.3 65.8 50.35 67.8 48.9 68.85 47.8 68.95 47.65 69.0 47.65 Q69.7 46.7 69.7 45.8 L69.35 45.35 69.3 45.3 68.75 45.85 67.7 46.85 Q64.45 49.75 60.15 51.4 L60.05 51.4 59.6 51.6 Q56.0 52.85 52.0 53.25 L50.85 55.75 50.05 56.9 47.9 59.3 47.55 59.4 47.25 59.25 47.1 58.9 47.1 53.8 47.1 53.35 45.55 52.15 43.7 50.7 43.35 50.4 33.6 41.85 Q27.0 35.65 24.65 32.35 L23.8 31.05 23.65 30.7 22.85 31.1 22.8 31.1 22.35 31.4 Q21.55 31.85 21.5 32.3 L21.7 33.05 Q22.0 33.75 22.85 34.65 L23.3 35.1 23.8 35.55 26.8 38.5 26.9 38.85 Q25.4 38.2 23.5 36.6 L22.65 35.85 22.6 35.85 22.6 35.8 21.9 35.1 21.25 34.3 21.0 33.95 20.65 34.3 20.3 35.0 Q20.3 35.45 20.85 36.2 L20.9 36.3 22.05 37.6 22.95 38.4 25.5 40.6 32.9 46.4 37.75 50.25 Q38.5 50.95 38.3 51.0 L37.55 50.75 32.5 47.05 25.05 41.4 22.6 39.4 21.7 38.6 20.65 37.55 19.55 40.8 M63.45 9.4 Q59.45 3.0 52.85 1.5 L48.1 1.15 Q43.95 1.4 39.75 4.0 36.75 5.75 34.45 8.5 L34.0 9.2 Q32.7 10.9 31.7 12.7 29.55 16.7 28.1 21.2 L25.8 28.15 25.0 31.1 Q27.0 34.25 34.3 41.1 L43.8 49.5 44.2 48.55 46.2 44.65 Q47.6 42.0 48.15 39.8 L48.45 38.5 48.55 38.35 48.7 38.3 Q52.1 38.25 55.25 39.15 59.65 40.25 62.25 41.3 L62.35 41.45 62.4 41.6 Q60.85 46.45 60.25 50.25 64.5 48.55 67.65 45.55 L67.5 40.85 67.45 40.85 67.55 36.05 67.4 29.2 66.85 20.6 Q66.45 16.0 64.65 11.85 L64.65 11.8 64.25 10.95 63.45 9.4 M48.8 39.25 Q48.2 41.7 46.7 44.7 L44.35 49.35 44.15 49.75 44.5 50.05 47.9 52.7 48.05 52.9 48.1 53.1 48.1 54.5 48.1 57.7 49.25 56.3 49.9 55.4 51.15 52.6 51.3 52.35 51.55 52.25 Q55.9 51.9 59.75 50.45 60.35 46.4 61.9 41.65 59.45 40.65 55.1 39.55 52.25 38.8 48.9 38.75 L48.8 39.25 M17.55 81.45 L17.55 81.15 17.65 81.15 17.85 81.2 17.9 81.25 24.5 85.25 32.1 89.7 33.3 90.45 33.5 90.6 33.55 90.7 Q33.55 92.55 33.95 94.3 L34.6 96.85 35.45 98.95 36.5 100.9 37.15 101.95 Q35.7 101.05 34.7 99.25 L33.6 96.6 33.45 96.25 Q32.85 94.25 32.55 91.65 L32.5 91.1 32.35 91.05 24.0 86.1 18.2 82.6 16.9 85.05 Q16.0 86.15 14.85 86.55 L14.45 86.65 13.55 86.75 13.0 86.75 13.45 86.55 13.95 86.3 14.15 86.2 14.65 85.95 Q17.15 84.5 17.55 81.45 M1.2 92.4 Q0.65 99.6 3.1 105.65 5.0 110.2 8.2 114.3 5.55 109.85 4.6 104.7 3.9 100.8 4.5 97.05 2.65 94.0 1.35 90.85 L1.2 92.4 M70.6 119.05 L72.4 117.05 72.35 117.05 Q75.25 113.55 77.05 109.4 70.5 113.3 63.15 116.1 L60.0 117.2 Q58.45 120.3 56.3 122.7 52.85 126.55 47.85 128.75 45.3 129.85 42.45 130.4 49.85 130.2 56.4 127.9 63.3 125.4 68.6 120.9 L70.6 119.05 M59.4 117.4 Q41.3 123.15 27.05 116.9 12.95 110.8 4.85 97.7 4.45 101.1 5.1 104.6 6.3 111.45 10.5 116.95 L10.5 116.9 11.75 118.35 12.5 119.15 14.35 120.95 17.7 123.75 19.3 124.8 Q20.15 125.3 20.8 125.75 L23.7 127.25 25.7 128.1 Q30.75 130.15 35.15 130.25 L37.55 130.35 41.65 130.05 Q44.85 129.5 47.65 128.3 52.6 126.2 55.9 122.4 57.9 120.2 59.4 117.4 M37.0 110.8 Q31.05 109.6 26.15 106.85 21.2 104.1 17.15 100.9 13.05 97.7 9.85 93.7 L17.15 99.95 Q21.05 103.1 26.35 105.9 31.6 108.65 37.0 110.8" fill="#000000" fill-rule="evenodd" stroke="none"/>
      <path d="M48.8 39.25 L48.9 38.75 Q52.25 38.8 55.1 39.55 59.45 40.65 61.9 41.65 60.35 46.4 59.75 50.45 55.9 51.9 51.55 52.25 L51.3 52.35 51.15 52.6 49.9 55.4 49.25 56.3 48.1 57.7 48.1 54.5 48.1 53.1 48.05 52.9 47.9 52.7 44.5 50.05 44.15 49.75 44.35 49.35 46.7 44.7 Q48.2 41.7 48.8 39.25" fill="#ffffff" fill-rule="evenodd" stroke="none"/>
      <path d="M22.35 31.4 L22.8 31.1 22.85 31.1 23.65 30.7 23.8 31.05 24.65 32.35 Q27.0 35.65 33.6 41.85 L43.35 50.4 43.7 50.7 45.55 52.15 47.1 53.35 47.1 53.8 47.1 58.9 47.25 59.25 47.55 59.4 47.9 59.3 50.05 56.9 50.85 55.75 52.0 53.25 Q56.0 52.85 59.6 51.6 L60.05 51.4 60.15 51.4 Q64.45 49.75 67.7 46.85 L68.75 45.85 69.3 45.3 69.35 45.35 69.7 45.8 Q69.7 46.7 69.0 47.65 L68.95 47.65 68.85 47.8 67.8 48.9 65.8 50.35 64.35 51.3 65.5 51.05 Q66.7 50.7 67.85 49.9 L68.2 49.65 68.9 49.1 69.5 48.6 69.4 49.3 Q66.4 51.7 62.1 53.3 55.65 55.75 55.4 56.2 L57.9 56.6 63.7 55.65 69.05 53.8 69.2 54.3 Q70.0 58.0 71.15 61.6 L72.65 65.95 Q70.9 69.4 68.2 71.85 65.65 74.15 62.65 75.3 55.7 77.8 50.35 82.6 49.6 83.85 49.6 85.6 L50.0 89.0 50.4 92.4 Q50.4 96.05 47.8 98.6 L45.75 100.1 Q42.55 99.8 38.6 98.45 L36.6 97.1 Q35.0 95.8 33.95 94.3 33.55 92.55 33.55 90.7 L33.5 90.6 33.3 90.45 32.1 89.7 24.5 85.25 17.9 81.25 17.85 81.2 17.65 81.15 17.55 81.15 17.55 81.45 17.4 81.4 Q17.2 83.2 14.7 85.0 L14.4 85.25 11.6 86.6 Q8.75 86.55 6.6 84.5 L5.4 83.15 Q6.35 77.65 8.5 72.4 10.8 66.7 14.2 62.2 L17.25 58.0 19.2 54.4 Q20.7 51.25 21.55 50.45 22.7 49.4 25.4 49.4 27.95 49.4 33.0 51.3 38.05 53.2 39.2 53.2 L40.8 52.6 Q39.0 49.85 31.1 44.2 27.2 41.45 24.75 38.85 L26.7 39.85 29.3 41.0 29.7 40.8 Q28.4 38.8 24.8 35.3 23.35 33.9 22.7 32.45 L22.35 31.4 M14.85 86.55 Q16.0 86.15 16.9 85.05 L18.2 82.6 24.0 86.1 32.35 91.05 32.5 91.1 32.55 91.65 Q32.85 94.25 33.45 96.25 L33.6 96.6 33.5 96.6 31.75 96.8 26.3 96.0 Q22.7 95.1 21.0 93.9 18.9 92.4 16.75 89.6 15.35 87.8 14.85 86.55" fill="#7ab536" fill-rule="evenodd" stroke="none"/>
      <path d="M16.7 48.1 L19.55 40.8 20.65 37.55 21.7 38.6 22.6 39.4 25.05 41.4 32.5 47.05 37.55 50.75 38.3 51.0 Q38.5 50.95 37.75 50.25 L32.9 46.4 25.5 40.6 22.95 38.4 22.05 37.6 20.9 36.3 20.85 36.2 Q20.3 35.45 20.3 35.0 L20.65 34.3 21.0 33.95 21.25 34.3 21.9 35.1 22.6 35.8 22.6 35.85 22.65 35.85 23.5 36.6 Q25.4 38.2 26.9 38.85 L26.8 38.5 23.8 35.55 23.3 35.1 22.85 34.65 Q22.0 33.75 21.7 33.05 L21.5 32.3 Q21.55 31.85 22.35 31.4 L22.7 32.45 Q23.35 33.9 24.8 35.3 28.4 38.8 29.7 40.8 L29.3 41.0 26.7 39.85 24.75 38.85 Q27.2 41.45 31.1 44.2 39.0 49.85 40.8 52.6 L39.2 53.2 Q38.05 53.2 33.0 51.3 27.95 49.4 25.4 49.4 22.7 49.4 21.55 50.45 20.7 51.25 19.2 54.4 L17.25 58.0 14.2 62.2 Q10.8 66.7 8.5 72.4 6.35 77.65 5.4 83.15 L6.6 84.5 Q8.75 86.55 11.6 86.6 L14.4 85.25 14.7 85.0 Q17.2 83.2 17.4 81.4 L17.55 81.45 Q17.15 84.5 14.65 85.95 L14.15 86.2 13.95 86.3 13.45 86.55 13.0 86.75 13.55 86.75 14.45 86.65 14.85 86.55 Q15.35 87.8 16.75 89.6 18.9 92.4 21.0 93.9 22.7 95.1 26.3 96.0 L31.75 96.8 33.5 96.6 33.6 96.6 34.7 99.25 Q35.7 101.05 37.15 101.95 L36.5 100.9 35.45 98.95 34.6 96.85 33.95 94.3 Q35.0 95.8 36.6 97.1 L38.6 98.45 Q42.55 99.8 45.75 100.1 L47.8 98.6 Q50.4 96.05 50.4 92.4 L50.0 89.0 49.6 85.6 Q49.6 83.85 50.35 82.6 55.7 77.8 62.65 75.3 65.65 74.15 68.2 71.85 70.9 69.4 72.65 65.95 73.85 69.3 75.35 72.55 77.1 76.4 78.3 80.35 79.75 85.35 80.25 90.5 81.15 98.8 79.15 106.95 L77.7 107.85 Q70.7 112.15 62.8 115.15 L60.6 115.95 60.0 116.15 Q41.75 122.25 27.45 116.0 13.45 109.9 5.5 96.8 L5.1 96.15 4.75 95.6 Q2.85 92.2 1.55 88.75 L1.45 88.4 0.45 85.85 Q1.05 77.65 4.85 69.45 L4.85 69.4 12.0 57.35 Q14.5 53.1 16.7 48.1 M69.4 49.3 L68.95 50.15 68.7 50.5 68.6 50.55 67.95 51.1 65.4 52.55 65.45 52.55 60.1 54.65 59.75 54.75 59.25 54.95 58.25 55.4 Q57.4 55.75 57.4 55.95 L58.4 55.85 59.0 55.7 59.25 55.65 59.7 55.5 60.6 55.3 65.8 53.5 65.8 53.45 68.05 52.25 68.65 51.85 69.05 53.8 63.7 55.65 57.9 56.6 55.4 56.2 Q55.65 55.75 62.1 53.3 66.4 51.7 69.4 49.3 M37.0 110.8 Q31.6 108.65 26.35 105.9 21.05 103.1 17.15 99.95 L9.85 93.7 Q13.05 97.7 17.15 100.9 21.2 104.1 26.15 106.85 31.05 109.6 37.0 110.8" fill="#569113" fill-rule="evenodd" stroke="none"/>
      <path d="M59.4 117.4 Q57.9 120.2 55.9 122.4 52.6 126.2 47.65 128.3 44.85 129.5 41.65 130.05 L37.55 130.35 35.15 130.25 Q30.75 130.15 25.7 128.1 L23.7 127.25 20.8 125.75 Q20.15 125.3 19.3 124.8 L17.7 123.75 14.35 120.95 12.5 119.15 11.75 118.35 10.5 116.9 10.5 116.95 Q6.3 111.45 5.1 104.6 4.45 101.1 4.85 97.7 12.95 110.8 27.05 116.9 41.3 123.15 59.4 117.4" fill="#b2b2b2" fill-rule="evenodd" stroke="none"/>
      <path d="M1.2 92.4 L1.35 90.85 Q2.65 94.0 4.5 97.05 3.9 100.8 4.6 104.7 5.55 109.85 8.2 114.3 5.0 110.2 3.1 105.65 0.65 99.6 1.2 92.4 M70.6 119.05 L68.6 120.9 Q63.3 125.4 56.4 127.9 49.85 130.2 42.45 130.4 45.3 129.85 47.85 128.75 52.85 126.55 56.3 122.7 58.45 120.3 60.0 117.2 L63.15 116.1 Q70.5 113.3 77.05 109.4 75.25 113.55 72.35 117.05 L72.4 117.05 70.6 119.05" fill="#b24600" fill-rule="evenodd" stroke="none"/>
    </g>
    <g id="shape5" transform="matrix(1.0, 0.0, 0.0, 1.0, 0.5, 0.5)">
      <path d="M44.15 5.55 L37.9 4.1 29.35 3.0 22.0 2.5 Q18.25 2.5 16.8 4.95 L16.75 5.0 14.75 9.1 Q13.5 8.15 11.95 7.75 L14.75 1.95 Q16.1 0.1 22.15 0.25 28.2 0.35 36.8 2.5 45.4 4.6 46.85 6.35 L44.15 5.55 M0.6 24.05 L0.5 22.4 0.5 22.25 0.5 22.2 Q0.6 18.7 3.35 13.4 4.25 11.5 6.05 9.95 7.2 8.9 8.45 8.45 L8.6 8.45 Q11.8 8.2 14.4 10.15 L15.05 10.75 15.1 11.05 15.65 16.5 Q15.9 20.85 13.05 25.5 10.2 30.1 6.65 29.95 3.1 29.8 1.75 26.85 L0.6 24.05" fill="#00ccff" fill-rule="evenodd" stroke="none"/>
      <path d="M0.6 24.05 L1.75 26.85 Q3.1 29.8 6.65 29.95 10.2 30.1 13.05 25.5 15.9 20.85 15.65 16.5 L15.1 11.05 15.05 10.75 15.2 10.85 15.35 10.85 16.25 10.9 16.1 11.95 16.2 12.3 16.85 13.85 17.05 14.15 18.4 15.1 18.15 15.7 17.45 17.15 17.4 17.35 17.4 17.45 17.85 19.95 Q18.2 21.7 18.0 22.3 L17.95 22.4 17.55 22.25 17.3 22.15 17.0 22.25 16.85 22.5 16.45 23.75 16.45 24.05 16.75 25.7 15.45 26.15 Q15.25 26.2 15.2 26.35 L14.2 27.75 14.15 27.85 14.1 27.9 13.9 28.1 13.8 28.35 13.7 29.7 12.45 29.75 12.25 29.85 11.85 30.15 11.75 30.35 11.3 31.5 10.1 31.2 9.85 31.2 7.8 31.4 Q7.6 31.4 7.5 31.55 L6.85 32.15 5.7 31.1 5.5 31.0 4.45 30.55 Q1.05 28.85 0.6 24.05" fill="#0098ff" fill-rule="evenodd" stroke="none"/>
      <path d="M44.15 5.55 L46.85 6.35 Q45.4 4.6 36.8 2.5 28.2 0.35 22.15 0.25 16.1 0.1 14.75 1.95 L11.95 7.75 Q13.5 8.15 14.75 9.1 L16.75 5.0 16.8 4.95 Q18.25 2.5 22.0 2.5 L29.35 3.0 37.9 4.1 44.15 5.55 M4.45 31.65 Q-0.5 29.6 -0.5 22.4 L-0.5 22.2 Q-0.4 18.5 2.45 12.95 3.45 10.9 5.4 9.2 6.75 7.95 8.2 7.5 L8.3 7.45 10.55 7.5 10.85 7.65 13.9 1.4 13.95 1.3 Q15.3 -0.5 21.35 -0.5 28.35 -0.5 37.5 1.95 46.8 4.3 48.15 6.75 L48.2 7.15 47.95 7.45 47.6 7.5 43.9 6.5 37.7 5.1 29.25 4.0 22.0 3.5 Q18.85 3.5 17.65 5.45 L15.5 9.85 16.8 9.9 17.05 10.0 17.25 10.2 17.3 10.45 17.15 12.0 17.75 13.4 19.3 14.6 19.45 14.85 19.45 15.1 18.9 16.5 18.45 17.45 18.85 19.75 Q19.3 22.0 18.9 22.7 18.6 23.3 18.1 23.35 L17.6 23.35 17.45 23.95 17.75 26.15 17.7 26.45 17.5 26.6 17.2 26.65 15.95 27.05 15.05 28.3 15.0 28.35 14.8 28.65 14.65 30.25 14.5 30.6 14.1 30.7 12.7 30.75 12.65 30.75 12.65 30.8 12.0 32.3 11.75 32.55 11.4 32.6 9.95 32.15 8.0 32.4 7.2 33.15 6.9 33.3 6.55 33.2 5.05 31.9 4.45 31.65 M15.05 10.75 L14.4 10.15 Q11.8 8.2 8.6 8.45 L8.45 8.45 Q7.2 8.9 6.05 9.95 4.25 11.5 3.35 13.4 0.6 18.7 0.5 22.2 L0.5 22.25 0.5 22.4 0.6 24.05 Q1.05 28.85 4.45 30.55 L5.5 31.0 5.7 31.1 6.85 32.15 7.5 31.55 Q7.6 31.4 7.8 31.4 L9.85 31.2 10.1 31.2 11.3 31.5 11.75 30.35 11.85 30.15 12.25 29.85 12.45 29.75 13.7 29.7 13.8 28.35 13.9 28.1 14.1 27.9 14.15 27.85 14.2 27.75 15.2 26.35 Q15.25 26.2 15.45 26.15 L16.75 25.7 16.45 24.05 16.45 23.75 16.85 22.5 17.0 22.25 17.3 22.15 17.55 22.25 17.95 22.4 18.0 22.3 Q18.2 21.7 17.85 19.95 L17.4 17.45 17.4 17.35 17.45 17.15 18.15 15.7 18.4 15.1 17.05 14.15 16.85 13.85 16.2 12.3 16.1 11.95 16.25 10.9 15.35 10.85 15.2 10.85 15.05 10.75" fill="#000000" fill-rule="evenodd" stroke="none"/>
      <path d="M4.45 31.65 L5.05 31.9 6.55 33.2 6.9 33.3 7.2 33.15 8.0 32.4 9.95 32.15 11.4 32.6 11.75 32.55 12.0 32.3 12.65 30.8 12.65 30.75 12.7 30.75 14.1 30.7 14.5 30.6 14.65 30.25 14.8 28.65 15.0 28.35 15.05 28.3 15.95 27.05 17.2 26.65 17.5 26.6 17.7 26.45 17.75 26.15 17.45 23.95 17.6 23.35 18.1 23.35 Q18.6 23.3 18.9 22.7 19.3 22.0 18.85 19.75 L18.45 17.45 18.9 16.5 19.0 17.1 19.3 19.55 19.5 21.1 19.2 23.15 Q18.8 24.2 18.1 24.25 L18.2 24.25 18.3 24.95 18.5 25.8 18.65 26.6 Q18.65 27.0 17.55 27.45 16.4 27.9 16.4 28.35 L16.6 28.8 16.8 29.2 16.3 29.85 15.55 30.45 14.75 32.7 Q13.8 32.7 12.55 33.85 L11.45 34.95 10.35 34.6 Q9.8 34.2 9.5 34.2 L8.95 34.55 8.55 34.9 7.8 35.1 Q6.55 35.0 6.55 34.55 L5.45 33.45 Q4.65 32.5 4.45 31.65" fill="#000000" fill-opacity="0.2" fill-rule="evenodd" stroke="none"/>
    </g>
    <g id="shape6" transform="matrix(1.0, 0.0, 0.0, 1.0, 0.35, 0.2)">
      <path d="M40.85 48.0 L40.7 48.0 Q37.7 48.0 35.55 51.0 L33.1 54.0 Q32.2 54.0 31.6 53.2 L31.55 53.1 Q31.95 50.95 33.25 49.25 35.3 46.55 37.0 46.25 L37.85 46.1 Q39.55 46.1 40.45 47.25 L40.85 48.0 M10.85 0.55 L11.25 0.7 Q16.5 2.5 22.0 15.35 27.75 28.95 27.75 40.6 L27.7 41.9 22.85 42.3 21.0 42.85 29.05 43.15 32.4 44.0 Q34.95 44.65 36.0 45.55 35.15 45.85 34.1 46.8 33.05 46.9 31.65 48.5 L30.85 49.4 Q29.3 51.4 28.8 52.6 27.15 56.2 22.65 56.2 18.1 56.2 13.8 52.4 9.5 48.6 6.7 42.75 3.85 36.85 2.35 33.35 L0.85 29.8 0.4 28.3 0.2 27.95 10.85 0.55" fill="#7ab536" fill-rule="evenodd" stroke="none"/>
      <path d="M37.05 51.8 Q38.2 50.1 39.7 49.4 41.15 48.65 43.05 50.25 44.7 51.65 44.6 54.2 44.45 56.4 43.7 57.4 42.95 58.35 41.8 58.75 L39.55 59.25 37.95 59.05 36.85 57.7 Q36.2 56.65 36.05 55.05 35.9 53.45 37.05 51.8" fill="#ff6500" fill-rule="evenodd" stroke="none"/>
      <path d="M31.55 53.1 Q31.3 54.25 31.3 55.55 31.35 59.15 33.15 60.4 33.95 60.9 35.25 60.9 36.6 60.9 37.6 59.8 L37.3 59.6 35.95 57.9 35.9 57.9 Q34.8 55.9 35.05 54.3 35.25 52.2 37.0 50.3 38.75 48.2 40.35 48.25 L40.95 48.3 40.85 48.0 40.45 47.25 Q39.55 46.1 37.85 46.1 L37.0 46.25 Q35.3 46.55 33.25 49.25 31.95 50.95 31.55 53.1 M10.85 0.55 L9.2 0.05 9.85 -0.15 Q11.65 -0.45 13.35 0.75 18.15 3.8 22.9 14.95 28.75 28.75 28.75 40.6 L28.7 42.3 Q30.7 42.5 32.65 43.05 36.0 43.9 37.1 45.2 L37.85 45.1 Q40.05 45.1 41.25 46.65 41.85 47.4 42.05 48.6 43.2 49.05 44.15 50.3 45.65 52.25 45.4 54.7 45.2 56.8 44.0 58.7 L43.9 58.75 43.9 58.8 43.7 59.0 41.75 59.7 39.25 60.25 38.55 60.2 Q37.15 61.9 35.25 61.9 L32.85 61.4 Q30.05 63.0 26.65 63.55 23.05 64.1 18.0 62.5 12.95 60.75 8.45 52.75 3.95 44.75 1.8 36.5 -0.35 28.2 -0.35 27.2 L0.2 27.95 0.4 28.3 0.85 29.8 1.2 31.05 Q4.65 44.05 8.95 51.65 13.55 59.85 18.35 61.55 L18.3 61.55 Q23.05 63.1 26.5 62.55 29.5 62.1 31.95 60.75 30.2 58.5 30.5 54.55 30.6 52.8 31.0 51.45 31.55 49.6 32.7 48.3 L34.1 46.8 Q35.15 45.85 36.0 45.55 34.95 44.65 32.4 44.0 L29.05 43.15 21.0 42.85 22.85 42.3 27.7 41.9 27.75 40.6 Q27.75 28.95 22.0 15.35 16.5 2.5 11.25 0.7 L10.85 0.55 M37.05 51.8 Q35.9 53.45 36.05 55.05 36.2 56.65 36.85 57.7 L37.95 59.05 39.55 59.25 41.8 58.75 Q42.95 58.35 43.7 57.4 44.45 56.4 44.6 54.2 44.7 51.65 43.05 50.25 41.15 48.65 39.7 49.4 38.2 50.1 37.05 51.8" fill="#000000" fill-rule="evenodd" stroke="none"/>
      <path d="M31.55 53.1 L31.6 53.2 Q32.2 54.0 33.1 54.0 L35.55 51.0 Q37.7 48.0 40.7 48.0 L40.85 48.0 40.95 48.3 40.35 48.25 Q38.75 48.2 37.0 50.3 35.25 52.2 35.05 54.3 34.8 55.9 35.9 57.9 L35.95 57.9 37.3 59.6 37.6 59.8 Q36.6 60.9 35.25 60.9 33.95 60.9 33.15 60.4 31.35 59.15 31.3 55.55 31.3 54.25 31.55 53.1 M34.1 46.8 L32.7 48.3 Q31.55 49.6 31.0 51.45 30.6 52.8 30.5 54.55 30.2 58.5 31.95 60.75 29.5 62.1 26.5 62.55 23.05 63.1 18.3 61.55 L18.35 61.55 Q13.55 59.85 8.95 51.65 4.65 44.05 1.2 31.05 L0.85 29.8 2.35 33.35 Q3.85 36.85 6.7 42.75 9.5 48.6 13.8 52.4 18.1 56.2 22.65 56.2 27.15 56.2 28.8 52.6 29.3 51.4 30.85 49.4 L31.65 48.5 Q33.05 46.9 34.1 46.8" fill="#569113" fill-rule="evenodd" stroke="none"/>
    </g>
    <g id="shape7" transform="matrix(1.0, 0.0, 0.0, 1.0, 3.05, 0.75)">
      <path d="M-1.1 25.35 Q-0.85 26.5 -0.85 27.7 L-1.15 27.9 -1.35 27.75 -2.15 25.65 -1.1 25.35 M-2.45 23.6 L-1.25 23.05 -1.15 24.8 -2.25 25.15 Q-2.2 24.2 -2.45 23.6 M-2.1 20.5 L-1.05 20.5 -1.25 22.5 -2.4 22.75 -2.1 20.5 M-1.15 17.35 L-0.3 17.5 -0.95 20.0 -1.95 19.85 -1.15 17.35 M0.0 14.3 L0.85 14.5 0.35 15.75 -0.35 17.0 -1.0 16.85 0.0 14.3 M1.75 10.6 L2.4 10.9 1.05 14.0 0.25 13.8 1.75 10.6 M3.7 7.3 L4.45 7.75 3.6 9.1 2.65 10.45 2.0 10.15 3.7 7.3 M6.3 3.75 L6.35 3.75 4.7 7.35 3.95 6.85 5.75 3.4 6.3 3.75 M6.0 3.0 L7.35 0.25 7.55 0.25 6.95 3.0 6.65 3.35 6.0 3.0" fill="#7ab536" fill-rule="evenodd" stroke="none"/>
      <path d="M8.45 -0.6 L8.5 -0.1 Q8.35 1.5 7.8 3.0 5.95 7.35 3.55 11.3 1.2 15.1 0.0 19.6 -1.1 23.9 0.5 28.15 L0.0 28.6 -1.25 28.95 -2.15 28.55 Q-3.9 23.55 -2.3 18.5 L-0.5 13.6 Q0.65 10.85 2.55 7.5 L5.65 1.85 7.0 -0.75 8.45 -0.6 M6.0 3.0 L6.65 3.35 6.95 3.0 7.55 0.25 7.35 0.25 6.0 3.0 M6.3 3.75 L5.75 3.4 3.95 6.85 4.7 7.35 6.35 3.75 6.3 3.75 M3.7 7.3 L2.0 10.15 2.65 10.45 3.6 9.1 4.45 7.75 3.7 7.3 M1.75 10.6 L0.25 13.8 1.05 14.0 2.4 10.9 1.75 10.6 M0.0 14.3 L-1.0 16.85 -0.35 17.0 0.35 15.75 0.85 14.5 0.0 14.3 M-1.15 17.35 L-1.95 19.85 -0.95 20.0 -0.3 17.5 -1.15 17.35 M-2.1 20.5 L-2.4 22.75 -1.25 22.5 -1.05 20.5 -2.1 20.5 M-2.45 23.6 Q-2.2 24.2 -2.25 25.15 L-1.15 24.8 -1.25 23.05 -2.45 23.6 M-1.1 25.35 L-2.15 25.65 -1.35 27.75 -1.15 27.9 -0.85 27.7 Q-0.85 26.5 -1.1 25.35" fill="#000000" fill-rule="evenodd" stroke="none"/>
    </g>
    <g id="shape8" transform="matrix(1.0, 0.0, 0.0, 1.0, 0.0, 0.0)">
      <path d="M21.35 10.4 Q21.7 7.5 20.95 5.15 L20.6 4.2 19.75 2.25 Q19.3 1.65 18.45 1.5 16.8 1.3 15.5 2.9 L15.25 3.1 14.95 3.05 14.8 2.85 Q14.5 1.05 12.75 0.95 11.65 0.95 10.1 1.55 8.35 2.2 7.15 3.25 L6.3 4.0 Q4.05 6.2 2.55 9.05 0.75 12.4 0.9 14.75 1.0 15.7 1.55 16.2 1.95 16.6 3.05 16.95 L9.55 17.75 15.9 17.8 17.8 17.4 19.35 16.0 Q20.95 13.85 21.35 10.4 M20.35 1.45 L21.45 3.65 21.95 5.2 Q22.55 7.5 22.25 10.25 21.7 14.05 20.0 16.45 L18.7 17.75 17.95 18.15 17.95 18.2 15.75 18.7 14.15 18.8 9.35 18.65 2.65 17.8 Q1.4 17.35 0.9 16.95 0.2 16.35 0.05 15.1 L0.05 15.05 Q-0.3 12.7 1.0 9.85 2.3 6.95 3.95 5.05 5.55 3.1 6.95 2.1 8.35 1.1 10.1 0.5 11.85 -0.1 13.4 0.0 14.9 0.05 15.5 1.75 16.9 0.3 18.8 0.6 19.8 0.75 20.35 1.45" fill="#000000" fill-rule="evenodd" stroke="none"/>
      <path d="M21.35 10.4 Q20.95 13.85 19.35 16.0 L17.8 17.4 15.9 17.8 9.55 17.75 3.05 16.95 Q1.95 16.6 1.55 16.2 1.0 15.7 0.9 14.75 0.75 12.4 2.55 9.05 4.05 6.2 6.3 4.0 L7.15 3.25 Q8.35 2.2 10.1 1.55 11.65 0.95 12.75 0.95 14.5 1.05 14.8 2.85 L14.95 3.05 15.25 3.1 15.5 2.9 Q16.8 1.3 18.45 1.5 19.3 1.65 19.75 2.25 L20.6 4.2 20.95 5.15 Q21.7 7.5 21.35 10.4" fill="#ffffff" fill-rule="evenodd" stroke="none"/>
    </g>
    <g id="shape9" transform="matrix(1.0, 0.0, 0.0, 1.0, 0.0, 0.0)">
      <path d="M4.05 7.5 Q3.3 8.75 2.25 8.7 1.25 8.7 0.6 7.35 -0.05 6.0 0.0 4.15 0.15 2.45 1.0 1.15 1.8 0.0 2.75 0.0 3.8 0.05 4.4 1.3 5.05 2.75 5.0 4.45 4.85 6.3 4.05 7.5" fill="#000000" fill-rule="evenodd" stroke="none"/>
      <path d="M3.15 2.35 L2.55 2.6 2.0 2.35 1.75 1.75 2.0 1.15 Q2.2 0.95 2.55 0.95 L3.15 1.15 3.4 1.75 3.15 2.35" fill="#ffffff" fill-rule="evenodd" stroke="none"/>
    </g>
    <g id="shape10" transform="matrix(1.0, 0.0, 0.0, 1.0, 2.2, 0.0)">
      <path d="M3.25 4.25 Q2.7 5.05 2.45 6.1 L2.35 6.6 2.2 8.5 Q2.35 9.65 2.95 10.9 L2.95 11.1 3.0 11.2 3.0 11.1 3.55 11.95 3.7 12.1 3.85 12.35 4.15 12.7 Q5.7 14.65 7.75 16.05 L8.2 16.35 Q10.9 18.3 14.45 18.9 L14.6 18.95 16.1 19.25 16.85 19.35 Q21.15 19.8 24.9 18.35 L26.15 17.85 28.45 16.05 29.45 14.45 29.75 13.5 29.95 12.55 Q30.1 13.8 29.85 15.0 L29.8 15.4 Q28.65 19.35 23.8 21.05 19.3 22.7 13.95 21.55 L12.8 21.25 Q6.85 19.6 3.4 15.45 0.2 11.6 1.2 7.6 L1.5 6.75 Q2.1 5.35 3.25 4.25" fill="#f99108" fill-rule="evenodd" stroke="none"/>
      <path d="M3.25 4.25 Q2.1 5.35 1.5 6.75 L1.2 7.6 Q0.2 11.6 3.4 15.45 6.85 19.6 12.8 21.25 L13.95 21.55 Q19.3 22.7 23.8 21.05 28.65 19.35 29.8 15.4 L29.85 15.0 Q30.1 13.8 29.95 12.55 29.6 10.05 27.5 7.55 24.1 3.5 18.1 1.85 12.15 0.25 7.1 1.95 4.7 2.85 3.25 4.25 M1.95 4.2 Q3.7 2.05 6.9 0.95 12.2 -0.9 18.4 0.8 24.65 2.45 28.25 6.75 30.9 9.85 31.05 13.05 31.05 14.35 30.7 15.65 29.55 20.15 24.05 22.1 18.9 23.95 12.85 22.4 L12.5 22.3 Q6.3 20.6 2.7 16.3 -0.95 11.85 0.3 7.35 0.7 5.7 1.7 4.5 L1.95 4.2" fill="#000000" fill-rule="evenodd" stroke="none"/>
      <path d="M29.95 12.55 L29.75 13.5 29.45 14.45 28.45 16.05 26.15 17.85 24.9 18.35 Q21.15 19.8 16.85 19.35 L16.1 19.25 14.6 18.95 14.45 18.9 Q10.9 18.3 8.2 16.35 L7.75 16.05 Q5.7 14.65 4.15 12.7 L3.85 12.35 3.7 12.1 3.55 11.95 3.0 11.1 3.0 11.2 2.95 11.1 2.95 10.9 Q2.35 9.65 2.2 8.5 L2.35 6.6 2.45 6.1 Q2.7 5.05 3.25 4.25 4.7 2.85 7.1 1.95 12.15 0.25 18.1 1.85 24.1 3.5 27.5 7.55 29.6 10.05 29.95 12.55" fill="#ffb409" fill-rule="evenodd" stroke="none"/>
      <path d="M1.95 4.2 L1.7 4.5 Q0.7 5.7 0.3 7.35 -0.95 11.85 2.7 16.3 6.3 20.6 12.5 22.3 L12.85 22.4 Q10.8 23.75 7.4 23.6 4.0 23.45 0.9 20.4 -2.2 17.3 -2.2 13.3 -2.2 9.1 0.3 5.9 L1.95 4.2" fill="#000000" fill-opacity="0.29803923" fill-rule="evenodd" stroke="none"/>
      <path d="M3.1 9.6 Q2.4 10.25 2.3 11.5 L2.25 11.6 2.25 11.7 2.2 11.6 2.2 11.4 Q2.1 9.4 3.2 8.7 3.25 8.6 3.35 8.6 L5.1 8.7 Q4.25 8.7 3.65 9.1 3.95 13.3 7.0 16.55 L6.6 16.2 6.55 16.15 Q3.05 13.2 3.1 9.6" fill="#000000" fill-rule="evenodd" stroke="none"/>
    </g>
    <g id="shape11" transform="matrix(1.0, 0.0, 0.0, 1.0, 28.5, 13.85)">
      <path d="M-17.8 -2.05 L-19.7 -3.35 Q-21.4 -4.5 -22.95 -5.05 L5.95 -12.55 Q5.7 -10.15 3.75 -8.65 3.0 -8.05 2.15 -7.6 -2.2 -6.15 -6.65 -5.0 -9.45 -4.15 -12.2 -3.55 L-17.8 -2.05 M6.1 -0.65 L4.7 -1.9 Q6.2 -3.7 7.15 -6.05 8.05 -8.25 7.6 -10.7 L7.5 -11.8 Q9.5 -9.1 9.05 -3.75 L8.1 -2.45 6.1 -0.65 M4.6 -1.85 L4.65 -1.9 4.7 -1.8 4.6 -1.85 M-1.45 0.05 L-1.35 -0.1 Q0.05 -1.55 2.1 -1.75 L3.2 -1.65 3.55 -1.4 4.1 -1.0 6.25 0.85 6.3 0.9 6.35 0.95 7.8 2.2 Q6.15 2.05 4.4 3.45 2.6 4.85 2.95 5.0 0.95 4.1 -0.5 2.35 L-1.25 1.4 Q-1.8 0.5 -1.45 0.05 M-25.3 -4.4 L-24.95 -4.55 -24.9 -4.55 Q-22.85 -4.8 -19.65 -2.45 L-18.7 -1.8 -17.5 -0.95 Q-16.55 -0.25 -15.45 0.2 -10.7 1.8 -5.6 1.1 L-3.0 0.5 -3.25 0.85 -3.3 0.95 -4.65 3.15 -4.8 3.45 Q-5.55 4.5 -9.15 4.65 L-16.25 4.45 -21.05 3.55 -23.4 2.75 Q-23.8 2.4 -23.65 2.1 L-23.45 -0.35 Q-23.55 -2.6 -24.15 -3.4 L-25.3 -4.4" fill="#126bc6" fill-rule="evenodd" stroke="none"/>
      <path d="M8.25 4.1 L8.95 4.75 9.05 4.8 84.7 72.15 Q83.05 72.65 81.9 73.9 L5.05 6.35 Q5.85 4.9 8.25 4.1" fill="#986f1e" fill-rule="evenodd" stroke="none"/>
      <path d="M81.75 75.7 L82.65 74.55 Q83.95 73.25 85.8 72.9 L85.95 72.85 87.45 72.7 87.55 72.8 100.75 84.85 97.15 88.5 90.3 82.95 Q90.3 81.0 89.9 79.4 L89.7 78.65 Q88.9 76.2 87.5 76.3 86.35 76.25 85.3 77.6 L84.8 78.3 81.75 75.7" fill="#393939" fill-rule="evenodd" stroke="none"/>
      <path d="M85.0 80.2 L85.3 79.5 85.6 79.0 Q86.5 77.35 87.5 77.3 88.2 77.4 88.75 78.95 L89.2 81.1 Q88.45 82.15 86.9 82.15 86.15 82.15 85.6 81.6 85.1 81.05 85.0 80.2" fill="#ff6500" fill-rule="evenodd" stroke="none"/>
      <path d="M6.45 -13.75 L6.65 -13.85 6.7 -13.85 6.85 -13.8 7.05 -13.7 7.1 -13.65 Q10.75 -10.8 10.0 -3.3 L10.0 -3.15 Q9.0 -0.35 7.5 0.65 L9.75 2.6 9.8 2.65 9.9 2.95 9.85 4.15 85.85 71.9 87.6 71.7 87.95 71.85 101.8 84.45 101.95 84.65 101.95 84.95 101.8 85.15 95.2 91.9 94.9 92.05 94.55 91.95 89.1 87.05 88.15 87.65 Q87.45 87.8 86.55 87.25 85.0 86.3 84.25 85.6 L84.3 85.6 Q83.3 84.7 83.3 83.85 L83.3 83.8 83.45 81.95 79.85 78.65 79.7 78.4 79.65 78.15 80.0 77.1 4.5 9.9 3.05 10.4 2.75 10.45 2.5 10.3 -2.55 5.2 -5.8 5.95 -15.5 6.35 -21.4 5.55 Q-23.75 5.05 -25.45 4.0 L-26.9 2.95 Q-28.25 1.7 -28.5 -0.3 L-28.4 -1.85 -27.9 -3.35 -27.85 -3.4 -26.7 -4.85 -25.15 -5.5 -25.05 -5.55 -25.0 -5.55 6.45 -13.75 M-17.8 -2.05 L-16.2 -1.1 -15.75 -0.85 5.0 -6.4 5.25 -6.95 Q6.4 -9.75 6.35 -12.7 L5.95 -12.55 -22.95 -5.05 Q-21.4 -4.5 -19.7 -3.35 L-17.8 -2.05 M6.9 -11.55 Q6.7 -8.6 5.55 -6.35 L5.3 -3.8 Q6.2 -4.85 6.85 -6.8 7.45 -8.8 6.9 -11.55 M9.05 -3.75 Q9.5 -9.1 7.5 -11.8 L7.6 -10.7 Q8.05 -8.25 7.15 -6.05 6.2 -3.7 4.7 -1.9 L6.1 -0.65 6.7 -0.1 Q8.1 -0.8 9.0 -3.45 L9.05 -3.75 M4.55 -3.15 L4.7 -5.55 -13.85 -0.3 -11.55 0.25 Q-6.75 0.9 -2.25 -0.65 L-1.75 -0.85 -1.55 -1.0 -0.85 -1.45 Q0.8 -2.45 3.5 -2.5 L3.75 -2.45 4.55 -3.15 M7.8 2.2 L6.35 0.95 6.3 0.9 6.25 0.85 4.1 -1.0 3.55 -1.4 3.2 -1.65 2.1 -1.75 Q0.05 -1.55 -1.35 -0.1 L-1.45 0.05 Q-2.8 1.45 -2.95 3.25 L-2.1 4.2 -1.95 4.35 2.35 8.75 2.55 7.85 2.6 7.8 2.6 7.75 Q3.0 6.3 3.75 5.2 5.15 3.2 7.85 2.65 L7.95 2.65 8.0 2.65 8.25 2.6 7.8 2.2 M4.6 -1.85 L4.7 -1.8 4.65 -1.9 4.6 -1.85 M97.15 88.5 L100.75 84.85 87.55 72.8 87.45 72.7 85.95 72.85 85.8 72.9 Q83.95 73.25 82.65 74.55 L81.75 75.7 81.05 77.15 80.95 77.25 80.7 78.1 83.7 80.8 84.4 79.05 84.8 78.3 85.3 77.6 Q86.35 76.25 87.5 76.3 88.9 76.2 89.7 78.65 L89.9 79.4 Q90.3 81.0 90.3 82.95 L90.3 83.0 Q90.3 84.8 89.65 86.2 L94.85 90.9 97.15 88.5 M81.9 73.9 Q83.05 72.65 84.7 72.15 L9.05 4.8 8.95 4.75 8.25 4.1 7.8 3.7 Q5.65 4.2 4.5 5.9 L3.7 7.6 3.8 7.7 4.95 8.95 80.4 76.15 81.0 75.05 81.9 73.9 M89.2 81.1 L88.75 78.95 Q88.2 77.4 87.5 77.3 86.5 77.35 85.6 79.0 L85.3 79.5 85.0 80.2 84.5 81.85 84.5 81.95 Q84.25 83.05 84.3 83.8 84.35 84.3 84.95 84.85 L87.1 86.4 87.95 86.65 88.55 86.15 88.6 86.0 Q89.3 84.7 89.3 83.0 L89.3 82.1 89.2 81.1 M-25.3 -4.4 L-25.55 -4.3 -25.6 -4.3 -25.7 -4.2 Q-24.0 -3.6 -23.8 -1.65 L-23.75 -0.45 -23.75 -0.35 Q-23.9 0.9 -24.5 2.05 L-24.6 2.2 -24.85 2.6 -25.0 2.85 -24.85 2.5 -24.75 2.1 -24.6 1.75 Q-23.85 -0.5 -24.9 -2.55 -25.5 -3.8 -26.6 -3.5 L-26.55 -3.5 -27.1 -3.05 Q-27.6 -2.35 -27.6 -0.25 -27.65 1.85 -25.05 3.3 -22.5 4.7 -19.8 5.0 L-12.8 5.55 -5.4 4.85 -3.35 4.35 -3.55 4.15 -3.65 4.0 -3.7 3.8 Q-3.65 2.5 -3.15 1.3 L-2.8 0.5 -3.0 0.5 -5.6 1.1 Q-10.7 1.8 -15.45 0.2 -16.55 -0.25 -17.5 -0.95 L-18.7 -1.8 -19.65 -2.45 Q-22.85 -4.8 -24.9 -4.55 L-24.95 -4.55 -25.3 -4.4" fill="#000000" fill-rule="evenodd" stroke="none"/>
      <path d="M81.9 73.9 L81.0 75.05 80.4 76.15 4.95 8.95 3.8 7.7 3.7 7.6 4.5 5.9 Q5.65 4.2 7.8 3.7 L8.25 4.1 Q5.85 4.9 5.05 6.35 L81.9 73.9" fill="#774a12" fill-rule="evenodd" stroke="none"/>
      <path d="M5.95 -12.55 L6.35 -12.7 Q6.4 -9.75 5.25 -6.95 L5.0 -6.4 -15.75 -0.85 -16.2 -1.1 -17.8 -2.05 -12.2 -3.55 Q-9.45 -4.15 -6.65 -5.0 -2.2 -6.15 2.15 -7.6 3.0 -8.05 3.75 -8.65 5.7 -10.15 5.95 -12.55 M6.9 -11.55 Q7.45 -8.8 6.85 -6.8 6.2 -4.85 5.3 -3.8 L5.55 -6.35 Q6.7 -8.6 6.9 -11.55 M9.05 -3.75 L9.0 -3.45 Q8.1 -0.8 6.7 -0.1 L6.1 -0.65 8.1 -2.45 9.05 -3.75 M7.8 2.2 L8.25 2.6 8.0 2.65 7.95 2.65 7.85 2.65 Q5.15 3.2 3.75 5.2 3.0 6.3 2.6 7.75 L2.6 7.8 2.55 7.85 2.35 8.75 -1.95 4.35 -2.1 4.2 -2.95 3.25 Q-2.8 1.45 -1.45 0.05 -1.8 0.5 -1.25 1.4 L-0.5 2.35 Q0.95 4.1 2.95 5.0 2.6 4.85 4.4 3.45 6.15 2.05 7.8 2.2 M-3.0 0.5 L-2.8 0.5 -3.15 1.3 Q-3.65 2.5 -3.7 3.8 L-3.65 4.0 -3.55 4.15 -3.35 4.35 -5.4 4.85 -12.8 5.55 -19.8 5.0 Q-22.5 4.7 -25.05 3.3 -27.65 1.85 -27.6 -0.25 -27.6 -2.35 -27.1 -3.05 L-26.55 -3.5 -26.6 -3.5 Q-25.5 -3.8 -24.9 -2.55 -23.85 -0.5 -24.6 1.75 L-24.75 2.1 -24.85 2.5 -25.0 2.85 -24.85 2.6 -24.6 2.2 -24.5 2.05 Q-23.9 0.9 -23.75 -0.35 L-23.75 -0.45 -23.8 -1.65 Q-24.0 -3.6 -25.7 -4.2 L-25.6 -4.3 -25.55 -4.3 -25.3 -4.4 -24.15 -3.4 Q-23.55 -2.6 -23.45 -0.35 L-23.65 2.1 Q-23.8 2.4 -23.4 2.75 L-21.05 3.55 -16.25 4.45 -9.15 4.65 Q-5.55 4.5 -4.8 3.45 L-4.65 3.15 -3.3 0.95 -3.25 0.85 -3.0 0.5" fill="#084889" fill-rule="evenodd" stroke="none"/>
      <path d="M97.15 88.5 L94.85 90.9 89.65 86.2 Q90.3 84.8 90.3 83.0 L90.3 82.95 97.15 88.5 M84.8 78.3 L84.4 79.05 83.7 80.8 80.7 78.1 80.95 77.25 81.05 77.15 81.75 75.7 84.8 78.3" fill="#2a2a2a" fill-rule="evenodd" stroke="none"/>
      <path d="M89.2 81.1 L89.3 82.1 89.3 83.0 Q89.3 84.7 88.6 86.0 L88.55 86.15 87.95 86.65 87.1 86.4 84.95 84.85 Q84.35 84.3 84.3 83.8 84.25 83.05 84.5 81.95 L84.5 81.85 85.0 80.2 Q85.1 81.05 85.6 81.6 86.15 82.15 86.9 82.15 88.45 82.15 89.2 81.1" fill="#b24600" fill-rule="evenodd" stroke="none"/>
    </g>
    <g id="shape12" transform="matrix(1.0, 0.0, 0.0, 1.0, 0.5, 0.5)">
      <path d="M76.5 1.05 L77.7 0.1 Q78.9 -0.4 79.1 1.95 L78.05 4.9 Q74.15 14.45 76.75 20.8 79.55 27.6 89.45 29.6 L86.95 33.1 Q77.55 30.65 73.95 25.1 68.55 16.7 76.5 1.05" fill="#272727" fill-rule="evenodd" stroke="none"/>
      <path d="M76.5 1.05 Q68.55 16.7 73.95 25.1 77.55 30.65 86.95 33.1 L17.15 50.1 17.75 48.1 81.9 32.9 Q76.65 31.35 72.55 27.55 L71.15 26.2 70.6 26.2 Q67.4 26.2 65.8 24.6 L65.75 24.5 Q66.35 25.8 67.8 27.75 70.35 31.15 72.1 30.8 L72.2 31.1 68.0 30.9 Q65.8 30.05 64.5 29.1 L62.0 26.7 Q59.1 30.2 55.8 30.2 50.7 30.2 49.05 25.9 48.5 28.15 51.0 31.2 53.95 34.75 55.0 35.0 L54.2 35.2 Q52.2 35.2 48.05 32.9 46.55 32.1 45.55 31.2 L45.45 31.3 Q42.55 34.2 38.4 34.2 35.5 34.2 32.95 32.6 L31.6 31.6 Q32.3 33.35 33.3 34.6 34.7 36.35 38.2 39.2 L37.0 39.8 34.8 39.35 Q31.3 37.5 28.5 34.7 L28.0 35.75 Q25.95 38.8 22.3 38.8 19.9 38.8 17.1 37.95 15.6 37.45 14.75 36.95 L15.75 38.85 Q17.75 42.1 20.8 43.4 L20.55 43.95 19.65 44.2 Q18.8 44.2 15.7 42.85 12.55 41.5 11.65 40.75 9.8 41.8 7.2 41.8 L5.5 41.55 Q4.4 40.3 3.85 38.7 1.45 31.85 6.55 17.0 L76.5 1.05 M48.05 26.85 L48.0 27.0 48.1 26.9 48.05 26.85" fill="#313131" fill-rule="evenodd" stroke="none"/>
      <path d="M5.5 41.55 L7.2 41.8 Q9.8 41.8 11.65 40.75 12.55 41.5 15.7 42.85 18.8 44.2 19.65 44.2 L20.55 43.95 20.8 43.4 Q17.75 42.1 15.75 38.85 L14.75 36.95 Q15.6 37.45 17.1 37.95 19.9 38.8 22.3 38.8 25.95 38.8 28.0 35.75 L28.5 34.7 Q31.3 37.5 34.8 39.35 L37.0 39.8 38.2 39.2 Q34.7 36.35 33.3 34.6 32.3 33.35 31.6 31.6 L32.95 32.6 Q35.5 34.2 38.4 34.2 42.55 34.2 45.45 31.3 L45.55 31.2 Q46.55 32.1 48.05 32.9 52.2 35.2 54.2 35.2 L55.0 35.0 Q53.95 34.75 51.0 31.2 48.5 28.15 49.05 25.9 50.7 30.2 55.8 30.2 59.1 30.2 62.0 26.7 L64.5 29.1 Q65.8 30.05 68.0 30.9 L72.2 31.1 72.1 30.8 Q70.35 31.15 67.8 27.75 66.35 25.8 65.75 24.5 L65.8 24.6 Q67.4 26.2 70.6 26.2 L71.15 26.2 72.55 27.55 Q76.65 31.35 81.9 32.9 L17.75 48.1 18.5 45.6 Q9.1 45.85 5.5 41.55 M48.05 26.85 L48.1 26.9 48.0 27.0 48.05 26.85" fill="#5a5a5a" fill-rule="evenodd" stroke="none"/>
      <path d="M17.15 50.1 Q-8.25 49.3 3.95 16.7 5.6 13.8 6.95 15.55 L6.55 17.0 Q1.45 31.85 3.85 38.7 4.4 40.3 5.5 41.55 9.1 45.85 18.5 45.6 L17.75 48.1 17.15 50.1" fill="#262626" fill-rule="evenodd" stroke="none"/>
      <path d="M86.95 33.1 L89.45 29.6 Q79.55 27.6 76.75 20.8 74.15 14.45 78.05 4.9 L79.1 1.95 Q78.9 -0.4 77.7 0.1 L76.5 1.05 Q68.55 16.7 73.95 25.1 77.55 30.65 86.95 33.1 L17.15 50.1 Q-8.25 49.3 3.95 16.7 5.6 13.8 6.95 15.55 L6.55 17.0 76.5 1.05 M17.75 48.1 L17.15 50.1 M6.55 17.0 Q1.45 31.85 3.85 38.7 4.4 40.3 5.5 41.55 9.1 45.85 18.5 45.6 L17.75 48.1" fill="none" stroke="#000000" stroke-linecap="round" stroke-linejoin="round" stroke-width="1.0"/>
    </g>
    <g id="shape13" transform="matrix(1.0, 0.0, 0.0, 1.0, -0.95, 0.0)">
      <path d="M1.5 6.4 L2.05 4.4 1.75 6.8 Q1.1 15.8 6.65 21.25 L7.2 21.8 Q6.7 21.7 5.15 20.65 1.75 16.75 1.4 11.55 1.25 8.95 1.5 6.4" fill="#5a5a5a" fill-rule="evenodd" stroke="none"/>
      <path d="M1.5 6.4 L0.95 8.2 Q1.1 5.95 1.75 3.95 L1.85 3.6 Q2.4 1.8 2.9 1.0 L3.5 0.0 2.75 3.25 Q2.35 5.05 2.35 7.75 2.15 17.55 9.2 22.7 L9.25 22.8 Q6.45 22.85 4.15 20.75 L1.9 18.35 Q1.0 16.95 1.9 17.8 L2.35 18.2 Q3.55 19.55 5.15 20.65 6.7 21.7 7.2 21.8 L6.65 21.25 Q1.1 15.8 1.75 6.8 L2.05 4.4 1.5 6.4" fill="#000000" fill-rule="evenodd" stroke="none"/>
    </g>
    <g id="shape14" transform="matrix(1.0, 0.0, 0.0, 1.0, 0.0, 0.0)">
      <path d="M69.8 16.3 L69.45 15.45 Q69.2 14.85 68.2 14.35 66.65 13.6 66.5 13.15 L66.45 13.15 64.75 9.65 Q64.2 8.55 62.8 8.55 L60.1 8.9 60.05 8.9 Q59.35 9.0 58.8 9.55 L58.8 9.5 58.75 9.55 Q59.95 10.05 60.35 10.8 L59.0 10.45 57.5 10.1 57.25 10.1 56.8 9.95 56.75 9.95 Q54.05 9.35 54.15 7.75 L54.2 7.6 54.4 6.75 Q54.4 5.9 53.7 5.3 52.9 4.65 51.8 4.65 L51.35 4.7 50.7 5.0 50.65 5.0 Q50.25 5.25 50.25 5.7 50.3 6.25 50.95 6.85 L51.9 8.0 Q51.95 8.9 50.45 10.0 49.85 10.35 49.6 10.9 L51.65 11.35 52.5 11.75 52.65 11.85 52.75 11.95 52.6 12.15 52.35 12.2 52.3 12.2 50.5 11.95 49.2 11.85 48.95 11.9 47.7 11.9 45.15 12.15 44.3 12.25 44.15 12.5 44.15 12.45 44.0 12.85 Q44.05 13.2 45.2 14.35 L47.55 16.15 47.35 16.05 44.75 14.8 44.7 14.8 Q42.9 13.8 43.0 12.85 43.0 12.45 43.3 11.95 L43.4 11.75 43.4 11.7 Q43.35 11.15 42.6 10.5 L40.85 9.4 40.8 9.35 Q39.65 8.9 39.65 7.65 L39.65 7.6 Q39.6 6.65 39.15 6.15 37.7 4.7 34.5 2.8 L32.15 1.4 31.7 1.15 31.2 1.35 31.15 1.35 Q30.95 1.45 30.9 1.65 L31.25 2.25 31.75 3.25 Q31.8 3.6 31.1 4.55 30.7 5.1 30.65 5.35 30.7 5.85 32.05 7.15 33.8 8.75 33.75 10.45 L33.6 11.65 33.6 11.8 32.9 12.95 32.55 13.15 32.2 13.05 32.0 12.7 32.1 12.4 31.9 12.4 30.45 12.05 29.45 10.9 Q28.9 9.95 28.3 9.9 27.75 9.9 26.9 10.35 L26.5 10.6 Q25.45 11.2 25.4 11.65 25.4 12.15 25.95 13.45 L26.5 15.35 26.25 16.45 26.7 16.4 27.05 16.35 27.85 16.05 Q28.25 15.8 27.95 16.35 L27.95 16.45 27.25 17.2 Q26.8 17.5 25.45 17.6 L25.4 17.6 24.6 17.65 24.55 17.65 Q23.05 17.7 22.6 18.05 L22.5 18.1 21.8 18.45 20.65 19.1 19.8 19.55 Q19.5 19.7 20.15 20.5 20.75 21.25 21.55 21.35 L22.25 21.6 22.25 21.65 21.35 21.85 20.55 21.7 19.4 21.0 18.5 19.95 Q18.15 19.25 18.15 18.35 L18.15 18.3 18.4 16.45 Q18.35 15.85 17.85 15.6 16.85 15.05 16.65 13.5 L15.45 12.1 Q14.25 10.95 13.7 10.9 L13.55 10.9 Q13.05 11.0 12.65 11.45 L12.65 11.5 Q12.15 12.05 12.15 12.7 12.2 13.3 13.45 14.7 14.9 16.35 14.9 18.6 L14.8 19.55 Q15.85 19.9 16.35 20.3 L16.65 20.6 16.8 21.0 17.1 21.7 Q17.35 22.15 16.7 21.6 L15.75 20.9 14.65 20.5 13.75 20.1 13.45 20.15 Q11.0 19.5 10.95 19.15 L11.0 19.15 Q9.7 16.95 8.75 16.8 L7.55 17.05 7.45 17.05 Q6.55 17.1 5.7 16.05 L5.65 16.0 Q5.1 15.3 4.25 15.3 3.45 15.3 2.8 15.75 L2.7 15.8 2.7 15.85 Q2.0 16.25 2.0 16.95 L3.05 17.8 Q4.7 18.65 4.95 19.35 L5.0 19.45 5.25 20.4 5.5 21.2 5.55 21.25 6.15 21.85 6.2 21.9 6.5 23.0 6.15 24.15 5.9 24.95 6.15 25.35 Q6.35 25.6 6.75 25.65 L6.8 25.65 Q6.9 25.35 7.15 25.15 L7.45 25.0 8.2 23.85 8.2 23.95 Q8.45 25.2 7.9 25.8 L7.85 25.8 Q7.7 25.95 7.7 26.2 L7.7 26.3 7.65 26.5 Q7.65 27.65 8.65 28.0 11.15 28.8 12.2 29.65 13.1 30.35 13.4 31.25 L13.4 31.3 13.75 32.7 13.75 32.6 Q14.1 33.4 15.8 33.4 16.95 33.4 18.2 32.3 19.9 30.7 20.25 30.6 L22.4 30.35 23.35 29.85 23.4 29.8 24.75 28.45 24.85 28.6 24.9 28.95 24.5 29.95 Q26.55 31.05 30.65 31.05 31.2 31.0 33.35 32.25 35.2 33.3 36.7 33.3 39.0 33.3 41.55 31.65 43.4 30.4 44.6 28.85 L46.0 27.55 46.05 27.55 47.15 26.75 47.15 26.7 48.5 25.2 47.75 25.15 46.95 25.45 46.5 25.65 46.1 25.7 45.9 25.65 Q46.2 25.1 46.75 24.8 L47.85 24.35 48.95 24.3 49.6 24.45 50.55 24.65 52.1 24.3 52.15 24.3 52.35 24.2 52.4 24.15 54.6 23.1 54.55 23.1 56.45 22.2 Q57.75 21.2 57.75 19.7 L57.65 18.85 57.55 18.45 56.65 17.45 55.55 16.9 55.1 16.75 Q54.3 16.45 54.95 16.4 L55.1 16.35 56.3 16.5 56.45 16.55 Q57.05 16.75 57.7 17.3 L58.35 17.95 58.4 18.0 58.7 18.8 58.75 19.7 Q58.75 21.7 57.0 23.0 L57.0 23.05 54.95 24.05 54.9 24.05 53.5 24.7 54.9 25.1 54.95 25.15 58.95 25.65 Q59.6 25.65 60.05 25.2 L60.5 24.3 60.5 24.25 Q61.3 22.45 60.95 21.0 L61.45 21.5 61.65 22.55 63.3 22.55 64.55 22.55 65.4 22.25 66.3 21.6 66.35 21.55 Q66.95 21.1 67.7 21.15 69.3 21.2 70.1 20.7 70.75 20.15 70.75 19.15 L70.3 17.45 69.8 16.3 M62.8 7.55 Q64.8 7.55 65.65 9.2 L67.35 12.7 68.65 13.45 69.75 14.2 70.4 15.15 71.2 17.05 Q71.75 18.3 71.75 19.15 71.75 20.75 70.65 21.5 69.65 22.2 67.65 22.15 L67.6 22.15 Q67.2 22.1 66.9 22.35 L66.95 22.35 65.9 23.1 65.95 23.1 64.65 23.55 64.6 23.55 63.3 23.55 61.6 23.55 61.5 24.3 61.5 24.35 Q61.5 25.15 60.75 25.9 60.0 26.65 58.95 26.65 L54.7 26.1 52.3 25.3 50.55 25.65 49.6 25.45 47.9 27.4 47.85 27.4 46.6 28.35 Q45.8 28.9 45.4 29.45 44.1 31.1 42.1 32.5 39.3 34.3 36.7 34.3 35.0 34.3 32.85 33.1 31.1 32.1 30.65 32.05 26.05 32.05 23.85 30.75 23.25 31.25 22.55 31.35 L22.45 31.35 20.6 31.5 20.55 31.55 18.85 33.05 Q17.25 34.4 15.8 34.4 13.3 34.4 12.8 33.0 L12.8 32.95 12.4 31.5 12.45 31.55 Q12.2 30.95 11.6 30.45 10.65 29.7 8.35 28.95 6.75 28.4 6.65 26.65 5.85 26.6 5.4 26.0 L5.35 25.95 Q4.85 25.4 4.9 24.95 4.9 24.55 5.25 23.75 L5.5 23.0 5.4 22.55 4.8 21.9 Q4.5 21.6 4.3 20.65 L4.25 20.6 4.0 19.7 2.6 18.7 Q0.9 17.8 1.0 16.95 1.0 15.75 2.15 15.0 2.55 14.7 3.0 14.55 L4.25 14.3 Q5.6 14.3 6.45 15.4 L7.4 16.05 8.65 15.8 8.7 15.8 Q10.15 15.7 11.85 18.65 L11.85 18.7 13.7 19.2 13.85 19.25 13.9 18.6 Q13.9 16.75 12.7 15.35 11.1 13.6 11.15 12.7 11.15 11.7 11.85 10.85 L11.9 10.85 Q12.65 9.9 13.7 9.9 14.45 9.85 15.75 11.0 L16.15 11.4 Q17.65 12.9 17.65 13.35 17.75 14.35 18.35 14.75 19.4 15.3 19.4 16.5 L19.4 16.55 19.15 18.4 19.2 18.85 20.15 18.25 Q20.85 17.8 22.05 17.2 22.6 16.8 24.0 16.7 L24.55 16.65 25.05 16.65 25.5 15.35 25.0 13.8 24.4 11.65 Q24.3 10.7 26.0 9.75 27.4 8.9 28.3 8.9 29.4 8.85 30.3 10.4 L30.85 11.1 31.9 11.4 32.7 11.2 32.75 10.45 Q32.7 9.15 31.35 7.9 L31.35 7.85 Q29.6 6.15 29.65 5.35 29.6 4.9 30.3 3.95 L30.75 3.25 30.5 2.9 30.45 2.85 Q29.85 2.2 29.9 1.65 29.85 0.95 30.65 0.5 L30.75 0.4 31.2 0.25 31.7 0.15 Q32.0 0.1 35.0 1.95 38.3 3.9 39.85 5.45 40.6 6.15 40.65 7.6 40.65 8.2 41.2 8.45 42.25 8.85 43.25 9.75 44.15 10.5 44.35 11.25 L45.3 11.15 47.65 10.9 47.7 10.9 48.55 10.9 Q48.85 9.8 49.9 9.15 L50.9 8.0 Q50.8 8.1 50.25 7.6 L50.3 7.6 Q49.2 6.65 49.25 5.7 49.25 4.65 50.15 4.15 50.85 3.65 51.8 3.65 L52.1 3.65 Q53.4 3.75 54.35 4.55 55.4 5.45 55.4 6.75 L55.15 7.8 Q55.3 8.6 56.95 9.0 L56.95 8.95 57.6 9.15 57.7 9.2 58.1 8.8 Q58.95 8.0 59.95 7.9 L62.8 7.55 M48.1 0.65 L48.45 1.05 48.65 1.65 Q48.65 2.7 47.65 3.05 L46.3 3.15 Q45.65 3.15 45.2 2.7 L45.15 2.65 44.65 1.8 Q44.6 0.85 45.7 0.3 L46.2 0.15 46.15 0.15 46.8 0.0 47.35 0.05 47.5 0.1 48.1 0.65 M47.6 1.55 L47.4 1.35 47.0 1.0 46.95 1.0 46.8 1.0 46.5 1.1 46.45 1.1 46.15 1.2 45.8 1.5 45.65 1.8 45.85 1.95 Q46.05 2.15 46.3 2.15 L47.35 2.1 47.65 1.65 47.6 1.55 M29.75 25.1 Q29.7 25.65 28.55 26.45 L27.8 26.8 27.4 26.8 Q27.55 26.65 28.05 26.25 L28.75 25.45 28.85 24.95 28.85 24.85 28.7 24.45 Q28.5 23.85 27.5 23.35 L27.35 23.3 25.9 22.55 26.05 22.6 27.15 22.9 27.35 22.95 Q29.85 23.8 29.75 24.95 L29.75 25.1 M28.2 1.15 Q28.55 1.6 28.5 2.3 28.55 4.15 26.4 4.15 24.65 4.15 24.65 2.4 24.65 1.55 25.25 0.75 L25.55 0.45 25.7 0.3 26.05 0.2 Q27.6 0.4 28.2 1.15 M27.5 2.15 Q27.3 1.4 26.15 1.25 L26.05 1.35 25.7 2.05 25.65 2.4 Q25.65 3.15 26.4 3.15 27.45 3.15 27.5 2.3 L27.5 2.15 M29.65 18.45 L29.9 18.1 Q30.0 17.85 31.3 17.4 32.5 16.95 33.6 18.35 34.65 19.8 34.65 20.85 L34.75 21.2 36.45 21.55 36.75 21.7 36.1 22.0 Q35.3 22.25 34.5 22.0 33.65 21.75 33.65 20.85 33.65 20.0 33.3 19.3 32.75 18.15 31.8 18.1 L30.65 18.2 30.2 18.3 29.65 18.45 M6.85 6.15 L6.8 6.1 7.7 6.3 8.3 6.5 8.45 6.55 Q9.5 7.25 9.5 8.4 9.55 8.95 8.8 9.55 8.15 10.1 7.6 10.05 L7.55 10.05 5.55 9.8 4.7 10.25 Q3.8 10.9 2.8 10.9 -0.05 10.9 0.0 8.35 0.0 6.45 1.75 5.85 L1.8 5.8 6.85 6.15 M8.2 7.65 L7.9 7.4 6.6 7.1 6.55 7.1 2.0 6.8 1.75 6.95 Q1.0 7.35 1.0 8.35 1.05 9.9 2.8 9.9 3.5 9.9 4.1 9.45 4.95 8.75 5.6 8.8 L5.65 8.8 7.65 9.05 8.2 8.75 8.5 8.4 8.2 7.65" fill="#000000" fill-rule="evenodd" stroke="none"/>
      <path d="M51.35 4.7 L51.8 4.65 Q52.9 4.65 53.7 5.3 54.4 5.9 54.4 6.75 L54.2 7.6 54.15 7.75 Q54.05 9.35 56.75 9.95 L56.8 9.95 57.25 10.1 57.5 10.1 59.0 10.45 60.35 10.8 Q59.95 10.05 58.75 9.55 L58.8 9.5 58.8 9.55 Q59.35 9.0 60.05 8.9 L60.1 8.9 62.8 8.55 Q64.2 8.55 64.75 9.65 L66.45 13.15 66.5 13.15 Q66.65 13.6 68.2 14.35 69.2 14.85 69.45 15.45 L69.8 16.3 Q69.1 18.65 64.45 18.7 L64.2 18.7 Q62.8 18.65 62.8 17.8 62.8 16.9 61.85 16.9 60.95 16.9 60.0 17.9 L59.8 18.1 Q59.25 17.35 58.1 16.85 L56.45 16.55 56.3 16.5 55.1 16.35 54.95 16.4 Q54.3 16.45 55.1 16.75 L55.55 16.9 55.6 17.05 55.8 17.95 Q55.8 19.1 54.7 20.2 53.5 21.4 52.0 21.4 L47.75 21.0 Q45.75 21.0 44.0 21.9 42.5 22.7 42.5 23.25 42.5 23.6 43.05 23.95 43.6 24.35 43.6 24.95 43.6 26.0 42.2 27.0 40.6 28.1 38.3 28.1 34.85 28.1 33.2 26.7 31.75 25.5 29.75 25.1 L29.75 24.95 Q29.85 23.8 27.35 22.95 L27.15 22.9 26.05 22.6 25.9 22.55 27.35 23.3 27.5 23.35 27.7 24.15 Q27.7 25.2 26.9 26.1 26.1 27.0 25.25 27.0 L24.3 26.45 Q23.6 25.9 22.6 25.9 L21.7 26.2 Q19.45 27.7 17.7 28.4 16.75 28.75 16.05 29.25 L15.2 29.6 Q14.3 29.6 13.6 27.45 12.85 25.0 11.2 24.3 L9.75 23.8 Q9.2 23.65 9.2 23.3 L8.85 22.45 8.75 22.3 8.6 22.3 Q7.6 22.3 7.4 20.9 7.2 19.25 6.5 18.9 5.3 18.55 4.45 18.05 2.95 17.2 2.8 15.75 3.45 15.3 4.25 15.3 5.1 15.3 5.65 16.0 L5.7 16.05 Q6.55 17.1 7.45 17.05 L7.55 17.05 8.75 16.8 Q9.7 16.95 11.0 19.15 L10.95 19.15 Q11.0 19.5 13.45 20.15 L13.75 20.1 14.65 20.5 15.75 20.9 16.7 21.6 Q17.35 22.15 17.1 21.7 L16.8 21.0 16.65 20.6 16.35 20.3 15.95 19.35 15.3 17.55 Q15.3 16.8 15.8 16.5 L16.3 16.05 Q16.3 15.75 14.7 14.35 13.1 12.95 13.1 11.95 13.1 11.2 13.55 10.9 L13.7 10.9 Q14.25 10.95 15.45 12.1 L16.65 13.5 Q16.85 15.05 17.85 15.6 18.35 15.85 18.4 16.45 L18.15 18.3 18.15 18.35 Q18.15 19.25 18.5 19.95 L19.4 21.0 20.55 21.7 21.35 21.85 22.25 21.65 22.6 21.4 21.7 20.5 Q21.3 20.0 21.3 19.55 21.3 19.1 21.8 18.45 L22.5 18.1 22.6 18.05 Q23.05 17.7 24.55 17.65 L24.6 17.65 25.4 17.6 25.45 17.6 Q26.8 17.5 27.25 17.2 L27.95 16.45 28.2 16.25 Q29.6 15.45 29.6 15.1 29.6 14.45 28.05 14.0 26.5 13.6 26.5 11.65 L26.9 10.35 Q27.75 9.9 28.3 9.9 28.9 9.95 29.45 10.9 L30.45 12.05 30.3 12.75 Q30.3 13.7 30.8 14.1 31.3 14.5 32.6 14.5 33.8 14.5 34.8 13.6 35.9 12.6 35.9 11.2 35.9 9.8 33.85 7.45 L31.8 5.2 32.3 4.55 32.8 3.85 32.35 2.95 31.9 1.95 32.1 1.45 32.15 1.4 34.5 2.8 Q37.7 4.7 39.15 6.15 39.6 6.65 39.65 7.6 L39.65 7.65 Q39.65 8.9 40.8 9.35 L40.85 9.4 42.6 10.5 Q43.35 11.15 43.4 11.7 L43.4 11.75 43.3 11.95 Q43.0 12.45 43.0 12.85 42.9 13.8 44.7 14.8 L44.75 14.8 47.35 16.05 47.55 16.15 48.45 16.4 Q49.1 16.4 49.1 15.85 49.1 15.05 47.1 13.95 45.35 13.05 45.15 12.15 L47.7 11.9 48.95 11.9 49.2 11.85 50.5 11.95 52.3 12.2 52.35 12.2 52.6 12.15 52.75 11.95 52.65 11.85 51.1 10.25 Q51.1 9.6 52.25 9.15 53.4 8.7 53.4 8.0 53.4 7.35 52.35 6.6 51.3 5.8 51.3 5.1 L51.35 4.7 M57.55 18.45 L57.65 18.85 57.5 18.6 57.55 18.45 M45.8 1.5 L46.15 1.2 46.45 1.1 46.5 1.1 46.8 1.0 46.95 1.0 47.0 1.0 47.4 1.35 47.6 1.55 47.45 1.6 46.15 1.8 45.8 1.5 M28.85 24.95 L28.6 24.9 28.5 24.9 28.85 24.85 28.85 24.95 M25.7 2.05 L26.05 1.35 26.15 1.25 Q27.3 1.4 27.5 2.15 L26.55 2.5 Q25.95 2.5 25.7 2.05 M30.65 18.2 L31.8 18.1 Q32.75 18.15 33.3 19.3 33.65 20.0 33.65 20.85 33.65 21.75 34.5 22.0 35.3 22.25 36.1 22.0 L36.75 21.7 36.45 21.55 34.75 21.2 34.65 20.85 Q34.65 19.8 33.6 18.35 32.5 16.95 31.3 17.4 30.0 17.85 29.9 18.1 L29.65 18.45 Q28.1 19.2 28.1 19.9 28.1 20.75 29.0 21.5 29.95 22.3 31.3 22.3 31.9 22.4 31.9 22.0 L30.85 20.85 Q29.8 19.95 29.8 19.45 L30.25 18.65 30.65 18.2 M8.2 7.65 Q8.1 8.5 6.8 8.5 6.2 8.5 5.7 8.0 L5.1 7.5 4.1 8.1 Q3.3 8.7 2.8 8.7 1.85 8.7 1.75 6.95 L2.0 6.8 6.55 7.1 6.6 7.1 7.9 7.4 8.2 7.65" fill="#ffffff" fill-rule="evenodd" stroke="none"/>
      <path d="M69.8 16.3 L70.3 17.45 70.75 19.15 Q70.75 20.15 70.1 20.7 69.3 21.2 67.7 21.15 66.95 21.1 66.35 21.55 L66.3 21.6 65.4 22.25 64.55 22.55 63.3 22.55 61.65 22.55 61.45 21.5 60.95 21.0 Q61.3 22.45 60.5 24.25 L60.5 24.3 60.05 25.2 Q59.6 25.65 58.95 25.65 L54.95 25.15 54.9 25.1 53.5 24.7 54.9 24.05 54.95 24.05 57.0 23.05 57.0 23.0 Q58.75 21.7 58.75 19.7 L58.7 18.8 58.4 18.0 58.35 17.95 57.7 17.3 Q57.05 16.75 56.45 16.55 L58.1 16.85 Q59.25 17.35 59.8 18.1 L60.0 17.9 Q60.95 16.9 61.85 16.9 62.8 16.9 62.8 17.8 62.8 18.65 64.2 18.7 L64.45 18.7 Q69.1 18.65 69.8 16.3 M55.55 16.9 L56.65 17.45 57.55 18.45 57.5 18.6 57.65 18.85 57.75 19.7 Q57.75 21.2 56.45 22.2 L54.55 23.1 54.6 23.1 52.4 24.15 52.35 24.2 52.15 24.3 52.1 24.3 50.55 24.65 49.6 24.45 48.95 24.3 47.85 24.35 46.75 24.8 Q46.2 25.1 45.9 25.65 L46.1 25.7 46.5 25.65 46.95 25.45 47.75 25.15 48.5 25.2 47.15 26.7 47.15 26.75 46.05 27.55 46.0 27.55 44.6 28.85 Q43.4 30.4 41.55 31.65 39.0 33.3 36.7 33.3 35.2 33.3 33.35 32.25 31.2 31.0 30.65 31.05 26.55 31.05 24.5 29.95 L24.9 28.95 24.85 28.6 24.75 28.45 23.4 29.8 23.35 29.85 22.4 30.35 20.25 30.6 Q19.9 30.7 18.2 32.3 16.95 33.4 15.8 33.4 14.1 33.4 13.75 32.6 L13.75 32.7 13.4 31.3 13.4 31.25 Q13.1 30.35 12.2 29.65 11.15 28.8 8.65 28.0 7.65 27.65 7.65 26.5 L7.7 26.3 7.7 26.2 Q7.7 25.95 7.85 25.8 L7.9 25.8 Q8.45 25.2 8.2 23.95 L8.2 23.85 7.45 25.0 7.15 25.15 Q6.9 25.35 6.8 25.65 L6.75 25.65 Q6.35 25.6 6.15 25.35 L5.9 24.95 6.15 24.15 6.5 23.0 6.2 21.9 6.15 21.85 5.55 21.25 5.5 21.2 5.25 20.4 5.0 19.45 4.95 19.35 Q4.7 18.65 3.05 17.8 L2.0 16.95 Q2.0 16.25 2.7 15.85 L2.7 15.8 2.8 15.75 Q2.95 17.2 4.45 18.05 5.3 18.55 6.5 18.9 7.2 19.25 7.4 20.9 7.6 22.3 8.6 22.3 L8.75 22.3 8.85 22.45 9.2 23.3 Q9.2 23.65 9.75 23.8 L11.2 24.3 Q12.85 25.0 13.6 27.45 14.3 29.6 15.2 29.6 L16.05 29.25 Q16.75 28.75 17.7 28.4 19.45 27.7 21.7 26.2 L22.6 25.9 Q23.6 25.9 24.3 26.45 L25.25 27.0 Q26.1 27.0 26.9 26.1 27.7 25.2 27.7 24.15 L27.5 23.35 Q28.5 23.85 28.7 24.45 L28.85 24.85 28.5 24.9 28.6 24.9 28.85 24.95 28.75 25.45 28.05 26.25 Q27.55 26.65 27.4 26.8 L27.8 26.8 28.55 26.45 Q29.7 25.65 29.75 25.1 31.75 25.5 33.2 26.7 34.85 28.1 38.3 28.1 40.6 28.1 42.2 27.0 43.6 26.0 43.6 24.95 43.6 24.35 43.05 23.95 42.5 23.6 42.5 23.25 42.5 22.7 44.0 21.9 45.75 21.0 47.75 21.0 L52.0 21.4 Q53.5 21.4 54.7 20.2 55.8 19.1 55.8 17.95 L55.6 17.05 55.55 16.9 M16.35 20.3 Q15.85 19.9 14.8 19.55 L14.9 18.6 Q14.9 16.35 13.45 14.7 12.2 13.3 12.15 12.7 12.15 12.05 12.65 11.5 L12.65 11.45 Q13.05 11.0 13.55 10.9 13.1 11.2 13.1 11.95 13.1 12.95 14.7 14.35 16.3 15.75 16.3 16.05 L15.8 16.5 Q15.3 16.8 15.3 17.55 L15.95 19.35 16.35 20.3 M22.25 21.65 L22.25 21.6 21.55 21.35 Q20.75 21.25 20.15 20.5 19.5 19.7 19.8 19.55 L20.65 19.1 21.8 18.45 Q21.3 19.1 21.3 19.55 21.3 20.0 21.7 20.5 L22.6 21.4 22.25 21.65 M27.95 16.45 L27.95 16.35 Q28.25 15.8 27.85 16.05 L27.05 16.35 26.7 16.4 26.25 16.45 26.5 15.35 25.95 13.45 Q25.4 12.15 25.4 11.65 25.45 11.2 26.5 10.6 L26.9 10.35 26.5 11.65 Q26.5 13.6 28.05 14.0 29.6 14.45 29.6 15.1 29.6 15.45 28.2 16.25 L27.95 16.45 M30.45 12.05 L31.9 12.4 32.1 12.4 32.0 12.7 32.2 13.05 32.55 13.15 32.9 12.95 33.6 11.8 33.6 11.65 33.75 10.45 Q33.8 8.75 32.05 7.15 30.7 5.85 30.65 5.35 30.7 5.1 31.1 4.55 31.8 3.6 31.75 3.25 L31.25 2.25 30.9 1.65 Q30.95 1.45 31.15 1.35 L31.2 1.35 31.7 1.15 32.15 1.4 32.1 1.45 31.9 1.95 32.35 2.95 32.8 3.85 32.3 4.55 31.8 5.2 33.85 7.45 Q35.9 9.8 35.9 11.2 35.9 12.6 34.8 13.6 33.8 14.5 32.6 14.5 31.3 14.5 30.8 14.1 30.3 13.7 30.3 12.75 L30.45 12.05 M47.55 16.15 L45.2 14.35 Q44.05 13.2 44.0 12.85 L44.15 12.45 44.15 12.5 44.3 12.25 45.15 12.15 Q45.35 13.05 47.1 13.95 49.1 15.05 49.1 15.85 49.1 16.4 48.45 16.4 L47.55 16.15 M52.65 11.85 L52.5 11.75 51.65 11.35 49.6 10.9 Q49.85 10.35 50.45 10.0 51.95 8.9 51.9 8.0 L50.95 6.85 Q50.3 6.25 50.25 5.7 50.25 5.25 50.65 5.0 L50.7 5.0 51.35 4.7 51.3 5.1 Q51.3 5.8 52.35 6.6 53.4 7.35 53.4 8.0 53.4 8.7 52.25 9.15 51.1 9.6 51.1 10.25 L52.65 11.85 M47.6 1.55 L47.65 1.65 47.35 2.1 46.3 2.15 Q46.05 2.15 45.85 1.95 L45.65 1.8 45.8 1.5 46.15 1.8 47.45 1.6 47.6 1.55 M27.5 2.15 L27.5 2.3 Q27.45 3.15 26.4 3.15 25.65 3.15 25.65 2.4 L25.7 2.05 Q25.95 2.5 26.55 2.5 L27.5 2.15 M29.65 18.45 L30.2 18.3 30.65 18.2 30.25 18.65 29.8 19.45 Q29.8 19.95 30.85 20.85 L31.9 22.0 Q31.9 22.4 31.3 22.3 29.95 22.3 29.0 21.5 28.1 20.75 28.1 19.9 28.1 19.2 29.65 18.45 M1.75 6.95 Q1.85 8.7 2.8 8.7 3.3 8.7 4.1 8.1 L5.1 7.5 5.7 8.0 Q6.2 8.5 6.8 8.5 8.1 8.5 8.2 7.65 L8.5 8.4 8.2 8.75 7.65 9.05 5.65 8.8 5.6 8.8 Q4.95 8.75 4.1 9.45 3.5 9.9 2.8 9.9 1.05 9.9 1.0 8.35 1.0 7.35 1.75 6.95" fill="#c8cfd7" fill-rule="evenodd" stroke="none"/>
    </g>
  </defs>
</svg>
