<?xml version="1.0" encoding="UTF-8" standalone="no"?>
<svg xmlns:ffdec="https://www.free-decompiler.com/flash" xmlns:xlink="http://www.w3.org/1999/xlink" ffdec:objectType="frame" height="186.4px" width="309.8px" xmlns="http://www.w3.org/2000/svg">
  <g transform="matrix(1.0, 0.0, 0.0, 1.0, -256.15, -106.15)">
    <use ffdec:characterId="77" height="55.0" transform="matrix(1.0, 0.0, 0.0, 1.0, 263.0, 216.05)" width="117.4" xlink:href="#shape0"/>
    <use ffdec:characterId="78" height="43.7" transform="matrix(1.0, 0.0, 0.0, 1.0, 323.8, 221.85)" width="58.65" xlink:href="#shape1"/>
    <use ffdec:characterId="78" height="43.7" transform="matrix(-0.9104, -0.2483, -0.0722, 0.9569, 316.25, 216.25)" width="58.65" xlink:href="#shape1"/>
    <use ffdec:characterId="79" height="55.7" transform="matrix(0.9318, -0.1563, 0.1776, 1.0016, 264.4414, 121.0343)" width="58.35" xlink:href="#shape2"/>
    <use ffdec:characterId="80" height="34.5" transform="matrix(1.0, 0.0, 0.0, 1.0, 357.65, 125.8)" width="11.55" xlink:href="#shape3"/>
    <use ffdec:characterId="81" height="126.2" transform="matrix(1.0, 0.0, 0.0, 1.0, 289.55, 119.5)" width="82.8" xlink:href="#shape4"/>
    <use ffdec:characterId="82" height="35.6" transform="matrix(1.0, 0.0, 0.0, 1.0, 319.7, 120.25)" width="48.7" xlink:href="#shape5"/>
    <use ffdec:characterId="83" height="65.3" transform="matrix(0.9979, -0.0621, 0.0717, 1.0113, 340.9649, 175.7661)" width="39.05" xlink:href="#shape6"/>
    <use ffdec:characterId="84" height="29.7" transform="matrix(0.9987, 0.0513, -0.0513, 0.9987, 329.1926, 176.6444)" width="11.6" xlink:href="#shape7"/>
    <use ffdec:characterId="84" height="29.7" transform="matrix(0.9865, 0.1639, -0.1639, 0.9865, 322.3642, 171.7103)" width="11.6" xlink:href="#shape7"/>
    <use ffdec:characterId="85" height="18.8" transform="matrix(1.0, 0.0, 0.0, 1.0, 342.25, 141.45)" width="22.35" xlink:href="#shape8"/>
    <use ffdec:characterId="86" height="8.7" transform="matrix(0.6677, 0.1695, -0.1695, 0.6677, 350.6, 152.3)" width="5.0" xlink:href="#shape9"/>
    <use ffdec:characterId="86" height="8.7" transform="matrix(0.6349, 0.1612, -0.1612, 0.6349, 355.8, 153.15)" width="5.0" xlink:href="#shape9"/>
    <use ffdec:characterId="87" height="23.6" transform="matrix(1.0, 0.0, 0.0, 1.0, 338.25, 156.35)" width="33.25" xlink:href="#shape10"/>
    <use ffdec:characterId="88" height="105.9" transform="matrix(1.0035, -4.0E-4, 0.043, 0.9679, 261.4049, 146.6057)" width="130.45" xlink:href="#shape11"/>
    <use ffdec:characterId="89" height="51.1" transform="matrix(1.0, 0.0, 0.0395, 1.0007, 351.5303, 225.8497)" width="90.45" xlink:href="#shape12"/>
    <use ffdec:characterId="90" height="22.8" transform="matrix(1.0, 0.0, 0.0395, 1.0007, 366.0, 247.1)" width="8.3" xlink:href="#shape13"/>
    <use ffdec:characterId="90" height="22.8" transform="matrix(1.0, 0.0, 0.0395, 1.0007, 382.85, 242.75)" width="8.3" xlink:href="#shape13"/>
    <use ffdec:characterId="90" height="22.8" transform="matrix(1.0, 0.0, 0.0395, 1.0007, 400.3, 238.6)" width="8.3" xlink:href="#shape13"/>
    <use ffdec:characterId="90" height="22.8" transform="matrix(1.0, 0.0, 0.0395, 1.0007, 416.55, 234.8)" width="8.3" xlink:href="#shape13"/>
    <use ffdec:characterId="92" height="21.2" transform="matrix(1.0, 0.0, 0.0, 1.0, 372.2, 256.2)" width="74.95" xlink:href="#shape14"/>
    <use ffdec:characterId="91" height="34.4" transform="matrix(0.8996, 0.104, 0.0, 1.1395, 459.0, 232.65)" width="71.75" xlink:href="#shape15"/>
  </g>
  <defs>
    <g id="shape0" transform="matrix(1.0, 0.0, 0.0, 1.0, -263.0, -216.05)">
      <path d="M380.4 252.3 Q380.4 263.05 363.2 268.1 346.0 273.2 321.7 269.55 297.35 265.95 280.15 255.75 263.0 245.6 263.0 234.85 263.0 224.1 280.15 219.0 297.35 213.95 321.7 217.55 346.0 221.2 363.2 231.35 380.4 241.55 380.4 252.3" fill="#000000" fill-opacity="0.2" fill-rule="evenodd" stroke="none"/>
    </g>
    <g id="shape1" transform="matrix(1.0, 0.0, 0.0, 1.0, 0.0, 0.0)">
      <path d="M56.1 21.25 Q57.6 23.45 57.45 26.95 57.3 32.3 54.1 34.25 L54.15 34.2 Q37.75 42.35 16.45 42.45 L15.0 42.5 14.95 42.5 14.75 42.45 Q6.2 42.5 2.55 32.0 0.5 25.95 1.65 15.8 L1.7 15.65 Q2.85 5.5 6.15 3.0 L6.2 2.95 Q8.7 0.7 13.95 1.35 16.1 1.6 24.45 6.6 34.2 12.25 40.75 14.35 44.8 15.6 48.65 17.0 L53.35 18.85 Q32.85 25.0 16.15 19.35 L7.8 16.05 Q5.3 15.1 5.5 17.25 4.85 12.4 5.45 7.7 L5.55 6.25 Q5.0 6.6 4.9 7.75 4.3 12.5 4.75 16.95 L5.45 21.15 Q6.95 27.7 10.1 29.15 10.4 40.95 11.25 40.55 L10.8 29.4 Q15.0 30.55 30.75 27.85 43.15 25.8 54.2 22.1 L54.9 21.75 54.95 21.55 56.1 21.25" fill="#f99108" fill-rule="evenodd" stroke="none"/>
      <path d="M41.1 13.2 L49.1 15.9 Q53.9 17.65 55.0 18.4 L55.1 18.45 Q56.5 19.45 57.3 20.9 58.8 23.25 58.65 27.0 58.45 33.05 54.7 35.25 L54.7 35.3 Q38.05 43.6 16.45 43.65 L15.05 43.7 14.85 43.65 Q5.3 43.8 1.4 32.45 -0.75 26.15 0.45 15.7 L0.55 15.1 Q1.85 4.7 5.35 2.05 L5.4 2.0 Q8.25 -0.55 14.1 0.15 16.35 0.35 25.15 5.6 L25.1 5.6 Q34.65 11.2 41.1 13.2 M53.35 18.85 L48.65 17.0 Q44.8 15.6 40.75 14.35 34.2 12.25 24.45 6.6 16.1 1.6 13.95 1.35 8.7 0.7 6.2 2.95 L6.15 3.0 Q2.85 5.5 1.7 15.65 L1.65 15.8 Q0.5 25.95 2.55 32.0 6.2 42.5 14.75 42.45 L14.95 42.5 15.0 42.5 16.45 42.45 Q37.75 42.35 54.15 34.2 L54.1 34.25 Q57.3 32.3 57.45 26.95 57.6 23.45 56.1 21.25 55.35 20.15 54.25 19.4 54.0 19.15 53.35 18.85 M54.95 21.55 L54.9 21.75 54.2 22.1 Q43.15 25.8 30.75 27.85 15.0 30.55 10.8 29.4 L11.25 40.55 Q10.4 40.95 10.1 29.15 6.95 27.7 5.45 21.15 L4.75 16.95 Q4.3 12.5 4.9 7.75 5.0 6.6 5.55 6.25 L5.45 7.7 Q4.85 12.4 5.5 17.25 L6.1 21.0 Q7.55 27.35 10.6 28.6 14.2 30.0 30.6 27.2 L46.75 23.65 54.25 21.65 54.9 21.45 54.95 21.55" fill="#000000" fill-rule="evenodd" stroke="none"/>
      <path d="M56.1 21.25 L54.95 21.55 54.9 21.45 54.25 21.65 46.75 23.65 30.6 27.2 Q14.2 30.0 10.6 28.6 7.55 27.35 6.1 21.0 L5.5 17.25 Q5.3 15.1 7.8 16.05 L16.15 19.35 Q32.85 25.0 53.35 18.85 54.0 19.15 54.25 19.4 55.35 20.15 56.1 21.25" fill="#ffb409" fill-rule="evenodd" stroke="none"/>
    </g>
    <g id="shape2" transform="matrix(1.0, 0.0, 0.0, 1.0, 0.5, -3.7)">
      <path d="M4.1 22.3 Q6.7 15.75 12.75 10.65 19.25 5.05 25.25 4.75 30.2 6.7 34.75 9.65 39.35 12.5 43.25 16.25 47.55 20.5 50.9 25.35 L53.05 28.85 Q56.8 35.4 56.95 38.8 L56.95 39.15 56.9 40.0 55.2 42.0 Q52.2 44.8 48.7 44.8 42.35 44.8 31.3 30.5 L23.6 20.65 Q19.8 16.2 17.8 16.2 16.65 16.2 13.5 20.8 10.3 25.4 7.4 25.4 5.75 25.4 4.8 24.0 4.3 23.3 4.1 22.3 M12.15 33.95 L11.0 34.8 9.05 35.5 Q7.9 35.7 5.3 34.65 2.65 33.6 1.8 32.55 L2.45 31.25 Q2.95 30.15 5.5 31.85 7.95 33.5 11.55 32.65 L12.15 33.95" fill="#7ab536" fill-rule="evenodd" stroke="none"/>
      <path d="M56.9 40.0 L56.95 39.15 56.95 38.8 Q56.8 35.4 53.05 28.85 L50.9 25.35 Q47.55 20.5 43.25 16.25 39.35 12.5 34.75 9.65 30.2 6.7 25.25 4.75 19.25 5.05 12.75 10.65 6.7 15.75 4.1 22.3 3.3 24.15 2.85 26.2 L2.85 26.15 2.7 27.0 Q3.75 29.4 7.45 30.0 L13.1 29.75 13.95 29.25 17.05 26.05 17.5 25.45 17.4 25.25 17.0 24.1 16.9 22.65 17.45 23.55 18.2 24.8 18.75 25.75 18.8 25.9 19.05 26.3 19.05 26.35 19.45 27.2 19.5 27.4 25.4 38.45 25.4 38.5 Q29.85 46.65 39.65 57.2 L39.6 57.2 39.75 57.35 39.9 57.65 40.15 58.1 40.3 58.35 40.3 58.4 40.35 58.6 39.95 58.5 38.15 56.8 38.05 56.7 37.9 56.5 37.15 55.75 34.15 52.55 Q28.8 46.9 24.5 38.95 L17.95 26.55 18.05 26.55 18.0 26.5 17.8 26.65 14.7 30.15 Q14.9 31.05 14.45 33.3 14.0 35.5 13.55 36.2 L13.0 36.4 11.95 36.75 11.8 36.8 11.65 37.4 Q10.3 42.4 7.9 42.3 4.6 42.3 3.4 39.45 L3.4 39.4 2.1 34.9 1.15 34.3 -0.3 33.3 -0.45 33.1 -0.5 32.85 0.45 29.1 1.1 27.15 1.7 26.65 1.85 25.95 1.9 25.95 Q2.55 23.05 3.85 20.4 6.55 14.6 12.1 9.9 18.85 4.1 25.05 3.75 L24.9 3.7 25.1 3.75 25.4 3.75 25.75 3.8 29.7 5.4 Q34.75 7.85 39.05 11.3 43.45 14.75 47.1 18.95 50.65 23.05 53.45 27.6 L53.9 28.3 Q57.45 34.6 57.8 38.0 L57.85 38.2 57.85 38.65 57.85 38.8 Q57.9 42.2 56.9 46.45 L56.65 47.4 55.5 51.75 54.95 53.3 Q54.7 53.85 54.65 53.35 54.6 52.85 54.7 52.45 L54.75 52.2 54.85 51.15 54.95 50.8 54.9 50.8 Q56.35 45.0 56.8 41.6 L56.9 40.0 M11.25 35.9 L12.0 35.65 12.7 35.45 12.75 35.4 Q13.8 33.8 13.8 32.0 L13.7 30.35 Q11.3 31.55 7.45 30.9 3.9 30.25 2.35 27.95 L2.05 28.05 1.85 28.0 1.4 29.4 1.3 29.65 1.0 30.85 0.55 32.7 1.35 33.25 2.7 34.1 2.75 34.1 2.8 34.15 3.15 34.35 3.15 34.4 Q6.7 36.5 8.5 36.5 L11.15 35.95 11.2 35.95 11.25 35.9 M4.3 39.05 Q5.3 41.3 7.9 41.3 9.6 41.2 10.65 37.15 L8.5 37.5 Q6.7 37.5 3.4 35.65 L4.3 39.05 M55.9 51.05 L56.0 50.65 55.9 51.0 55.9 51.05" fill="#000000" fill-rule="evenodd" stroke="none"/>
      <path d="M4.1 22.3 Q4.3 23.3 4.8 24.0 5.75 25.4 7.4 25.4 10.3 25.4 13.5 20.8 16.65 16.2 17.8 16.2 19.8 16.2 23.6 20.65 L31.3 30.5 Q42.35 44.8 48.7 44.8 52.2 44.8 55.2 42.0 L56.9 40.0 56.8 41.6 Q56.35 45.0 54.9 50.8 L54.95 50.8 54.85 51.15 54.75 52.2 Q53.7 54.1 52.35 55.6 48.85 59.4 43.7 59.4 42.2 59.4 40.55 58.55 L40.3 58.4 40.3 58.35 40.15 58.1 39.9 57.65 39.75 57.35 39.6 57.2 39.65 57.2 Q29.85 46.65 25.4 38.5 L25.4 38.45 19.5 27.4 19.45 27.2 19.05 26.35 19.05 26.3 18.8 25.9 18.75 25.75 18.2 24.8 17.45 23.55 16.9 22.65 17.0 24.1 17.4 25.25 17.5 25.45 17.05 26.05 13.95 29.25 13.1 29.75 7.45 30.0 Q3.75 29.4 2.7 27.0 L2.85 26.15 2.85 26.2 Q3.3 24.15 4.1 22.3 M12.15 33.95 L11.55 32.65 Q7.95 33.5 5.5 31.85 2.95 30.15 2.45 31.25 L1.8 32.55 Q2.65 33.6 5.3 34.65 7.9 35.7 9.05 35.5 L11.0 34.8 12.15 33.95 M11.25 35.9 L11.2 35.95 11.15 35.95 8.5 36.5 Q6.7 36.5 3.15 34.4 L3.15 34.35 2.8 34.15 2.75 34.1 2.7 34.1 1.35 33.25 0.55 32.7 1.0 30.85 1.3 29.65 1.4 29.4 1.85 28.0 2.05 28.05 2.35 27.95 Q3.9 30.25 7.45 30.9 11.3 31.55 13.7 30.35 L13.8 32.0 Q13.8 33.8 12.75 35.4 L12.7 35.45 12.0 35.65 11.25 35.9" fill="#569113" fill-rule="evenodd" stroke="none"/>
      <path d="M4.3 39.05 L3.4 35.65 Q6.7 37.5 8.5 37.5 L10.65 37.15 Q9.6 41.2 7.9 41.3 5.3 41.3 4.3 39.05" fill="#b24600" fill-rule="evenodd" stroke="none"/>
    </g>
    <g id="shape3" transform="matrix(1.0, 0.0, 0.0, 1.0, 3.65, 0.55)">
      <path d="M1.25 13.65 Q2.65 11.3 3.7 6.65 4.6 2.5 4.6 0.6 L4.55 -0.05 Q6.9 1.45 6.9 2.4 5.55 8.6 4.9 10.1 L4.25 11.5 Q6.45 14.7 7.1 18.25 8.1 23.3 5.65 27.75 2.8 32.95 -3.15 33.45 L1.7 14.65 1.25 13.65 M1.7 14.65 L1.95 15.2 4.25 11.5 1.95 15.2 1.7 14.65" fill="#0098ff" fill-rule="evenodd" stroke="none"/>
      <path d="M1.25 13.65 Q2.65 11.3 3.7 6.65 4.6 2.5 4.6 0.6 L4.55 -0.05 Q6.9 1.45 6.9 2.4 5.55 8.6 4.9 10.1 L4.25 11.5 Q6.45 14.7 7.1 18.25 8.1 23.3 5.65 27.75 2.8 32.95 -3.15 33.45 L1.7 14.65 1.25 13.65 M4.25 11.5 L1.95 15.2 1.7 14.65" fill="none" stroke="#000000" stroke-linecap="round" stroke-linejoin="round" stroke-width="1.0"/>
    </g>
    <g id="shape4" transform="matrix(1.0, 0.0, 0.0, 1.0, 4.2, 5.25)">
      <path d="M49.0 -2.8 Q45.7 -1.6 43.0 0.65 L42.4 1.2 42.35 1.2 Q40.8 2.55 39.5 4.15 36.65 7.55 34.3 11.6 L29.9 19.9 Q30.6 26.2 34.5 33.1 39.0 41.25 43.5 45.75 L43.65 45.95 43.65 46.2 43.5 46.95 45.3 45.35 Q49.45 41.45 53.3 32.9 L53.4 32.8 53.5 32.75 Q58.7 32.7 61.8 34.15 64.9 35.6 66.45 37.85 L66.5 38.0 66.4 38.15 Q64.2 40.35 62.95 42.6 L61.9 45.25 Q61.2 47.3 60.75 49.4 64.0 48.95 67.25 47.8 L67.25 47.7 67.4 43.45 Q67.6 40.95 68.2 38.0 L70.0 31.3 70.45 29.65 Q72.05 24.5 72.5 18.85 73.0 11.85 70.2 5.55 67.6 -0.4 62.1 -2.75 56.05 -5.4 49.0 -2.8 M22.65 27.9 Q21.3 29.5 22.1 27.7 22.9 25.85 23.7 24.7 L23.5 23.5 Q23.5 22.25 24.55 21.2 L25.35 20.6 Q25.45 18.8 26.85 18.0 27.4 17.6 28.4 17.4 L29.15 17.25 29.4 17.3 29.65 17.5 29.7 17.75 29.7 17.9 33.35 11.1 33.35 11.05 Q35.7 6.95 38.65 3.45 40.0 1.8 41.65 0.45 L41.65 0.4 42.3 -0.2 Q45.15 -2.6 48.6 -3.85 56.1 -6.65 62.55 -3.8 68.4 -1.25 71.2 5.1 74.1 11.65 73.6 18.95 73.1 24.65 71.55 29.95 L71.05 31.6 Q70.0 35.3 69.3 38.25 68.65 41.15 68.5 43.55 L68.4 45.6 69.45 46.0 69.5 46.05 Q70.5 46.65 70.5 47.9 L70.3 48.5 Q70.7 49.3 70.7 50.1 70.75 51.15 69.7 52.05 L70.0 53.9 71.35 58.8 Q72.35 62.05 74.0 66.15 77.9 76.05 78.4 80.85 78.9 85.7 78.1 90.1 L76.6 96.6 76.5 96.75 75.15 98.45 Q73.45 102.75 70.95 105.95 L67.5 109.9 66.1 111.25 65.4 111.9 63.3 113.55 61.1 115.15 Q57.3 117.75 51.7 119.35 L50.55 119.7 Q44.7 121.15 37.9 120.95 L35.8 120.85 27.55 119.7 25.25 119.05 Q13.6 115.5 5.95 105.7 L5.2 104.8 3.95 103.15 Q0.45 98.0 -1.2 92.75 L-1.4 92.15 -1.4 92.2 Q-2.75 87.25 -2.65 82.9 L-2.5 81.4 -4.15 78.1 -4.2 77.8 Q-3.2 71.85 -1.25 66.2 0.5 61.05 3.15 56.2 8.6 45.9 12.2 41.05 15.8 36.2 16.9 35.35 18.0 34.45 16.8 36.2 L16.3 36.85 Q9.45 46.35 3.95 56.7 1.1 62.05 -0.7 67.75 -2.3 72.65 -3.15 77.8 L-2.3 79.6 -1.85 80.55 -1.4 81.4 1.15 86.15 1.6 87.0 3.3 89.55 Q8.35 96.35 15.1 101.55 L17.1 102.9 Q26.75 109.0 38.2 110.45 44.6 111.15 50.75 110.2 L55.8 109.1 56.55 108.9 60.95 107.35 61.0 107.35 Q68.75 104.2 74.1 98.15 L75.65 96.25 77.1 89.9 Q77.9 85.6 77.4 80.95 76.9 76.25 73.05 66.5 L70.45 59.3 Q69.5 56.45 69.05 54.2 L68.75 52.5 67.8 52.8 Q63.9 54.0 60.0 54.2 L59.55 54.25 Q54.65 54.35 49.75 52.95 L52.15 53.4 54.2 53.7 Q56.75 53.95 59.6 53.65 L60.05 53.6 Q63.65 53.15 67.65 51.8 L68.7 51.45 68.95 51.35 Q69.65 50.8 69.7 50.1 L69.6 49.4 68.55 50.1 67.5 50.55 65.35 51.25 67.05 50.35 67.45 50.15 68.5 49.35 68.9 48.85 69.5 47.9 Q69.5 47.25 68.95 46.9 L68.5 46.7 68.35 47.85 68.35 48.1 68.25 48.4 68.05 48.6 67.35 48.85 Q63.95 50.05 60.5 50.4 L60.05 50.45 Q54.8 50.9 49.45 49.4 L49.4 49.4 47.4 48.7 Q43.6 52.25 41.65 53.1 L42.6 46.25 Q38.1 41.7 33.65 33.6 30.05 27.25 29.1 21.35 L28.85 19.5 28.75 18.35 Q28.35 18.4 28.1 18.55 27.65 18.65 27.4 18.85 L27.35 18.85 Q26.4 19.45 26.3 20.75 26.3 21.45 26.65 23.45 L26.75 23.8 27.0 25.05 Q27.55 27.15 28.8 30.35 L26.65 25.65 26.15 24.3 25.95 23.55 25.5 21.7 25.25 21.9 Q24.5 22.65 24.5 23.5 L24.7 24.55 24.75 24.65 25.25 25.8 25.85 27.05 Q27.8 31.3 30.95 36.9 34.15 42.6 38.4 48.25 32.25 40.65 28.9 35.0 26.85 31.6 25.2 28.1 L24.65 26.85 24.15 25.8 22.65 27.9 M47.2 47.6 L47.5 47.65 49.75 48.45 49.7 48.45 Q55.0 49.95 60.25 49.45 60.7 47.25 61.45 45.1 L62.55 42.4 Q63.8 40.1 65.95 37.95 64.5 35.9 61.6 34.55 58.65 33.15 53.7 33.25 49.75 41.8 45.6 45.65 L43.35 47.7 42.6 51.6 46.95 47.75 47.2 47.6 M15.2 74.2 Q15.4 73.1 15.55 73.0 L15.8 72.85 22.3 76.85 Q25.6 78.85 29.2 80.55 L30.05 80.95 30.45 81.1 30.65 81.3 30.75 81.55 30.85 83.4 31.1 84.9 31.9 87.15 Q33.05 89.4 34.75 91.55 L35.45 92.4 35.65 92.65 36.65 93.85 36.55 93.75 35.6 93.0 34.3 91.75 Q32.0 89.55 31.0 87.6 L30.9 87.35 Q30.1 85.6 29.85 83.45 L29.7 81.6 29.45 81.5 29.4 81.45 23.2 78.2 16.2 73.9 16.1 73.8 Q15.5 77.25 14.05 77.8 L13.35 78.05 11.65 78.05 11.45 78.0 11.0 77.9 10.25 77.7 11.1 77.75 11.55 77.75 12.95 77.45 13.05 77.4 13.35 77.25 Q14.75 76.55 15.1 74.85 L15.2 74.2 M8.9 85.7 L8.45 85.05 8.3 84.65 8.5 84.85 Q11.25 87.75 14.4 90.15 17.6 92.55 21.8 94.95 25.95 97.35 30.05 98.65 L35.65 100.25 36.2 100.4 37.1 100.75 36.8 100.95 36.3 101.0 35.9 101.0 34.15 100.7 29.0 99.2 Q25.1 97.95 20.35 95.2 L14.95 91.6 Q11.55 88.9 8.9 85.7 M1.0 87.9 L0.3 86.65 -1.55 83.3 Q-1.6 87.3 -0.3 91.9 L-0.15 92.45 1.15 95.8 5.65 103.65 4.3 100.25 Q3.35 97.9 2.25 92.7 L1.0 87.9 M2.55 90.3 L3.3 94.15 Q4.45 99.45 6.6 104.45 L7.25 105.6 8.6 107.2 Q16.35 115.35 27.05 118.85 32.5 120.1 36.5 119.8 L39.95 119.15 46.45 116.7 Q51.35 114.3 54.75 110.45 L50.7 111.25 Q44.5 112.2 38.1 111.45 26.45 110.0 16.55 103.75 L15.7 103.2 Q9.9 99.05 5.45 93.85 L2.55 90.3 M61.35 108.3 L55.5 110.25 Q51.95 114.55 46.65 117.1 45.05 117.9 40.1 119.55 L38.95 119.9 Q45.05 120.0 50.25 118.65 L51.35 118.3 51.4 118.3 Q56.8 116.7 60.45 114.25 L62.65 112.65 64.7 111.0 65.3 110.45 65.35 110.45 66.7 109.15 70.1 105.25 Q71.65 103.25 72.9 100.85 68.0 105.6 61.35 108.3" fill="#000000" fill-rule="evenodd" stroke="none"/>
      <path d="M47.2 47.6 L46.95 47.75 42.6 51.6 43.35 47.7 45.6 45.65 Q49.75 41.8 53.7 33.25 58.65 33.15 61.6 34.55 64.5 35.9 65.95 37.95 63.8 40.1 62.55 42.4 L61.45 45.1 Q60.7 47.25 60.25 49.45 55.0 49.95 49.7 48.45 L49.75 48.45 47.5 47.65 47.2 47.6" fill="#ffffff" fill-rule="evenodd" stroke="none"/>
      <path d="M49.0 -2.8 Q56.05 -5.4 62.1 -2.75 67.6 -0.4 70.2 5.55 73.0 11.85 72.5 18.85 72.05 24.5 70.45 29.65 L70.0 31.3 68.2 38.0 Q67.6 40.95 67.4 43.45 L67.25 47.7 67.25 47.8 Q64.0 48.95 60.75 49.4 61.2 47.3 61.9 45.25 L62.95 42.6 Q64.2 40.35 66.4 38.15 L66.5 38.0 66.45 37.85 Q64.9 35.6 61.8 34.15 58.7 32.7 53.5 32.75 L53.4 32.8 53.3 32.9 Q49.45 41.45 45.3 45.35 L43.5 46.95 43.65 46.2 43.65 45.95 43.5 45.75 Q39.0 41.25 34.5 33.1 30.6 26.2 29.9 19.9 L34.3 11.6 Q36.65 7.55 39.5 4.15 40.8 2.55 42.35 1.2 L42.4 1.2 43.0 0.65 Q45.7 -1.6 49.0 -2.8" fill="#ff6500" fill-rule="evenodd" stroke="none"/>
      <path d="M28.1 18.55 Q28.35 18.4 28.75 18.35 L28.85 19.5 29.1 21.35 Q30.05 27.25 33.65 33.6 38.1 41.7 42.6 46.25 L41.65 53.1 Q43.6 52.25 47.4 48.7 L49.4 49.4 49.45 49.4 Q54.8 50.9 60.05 50.45 L60.5 50.4 Q63.95 50.05 67.35 48.85 L68.05 48.6 68.25 48.4 68.35 48.1 68.35 47.85 68.5 46.7 68.95 46.9 Q69.5 47.25 69.5 47.9 L68.9 48.85 68.5 49.35 67.45 50.15 67.05 50.35 65.35 51.25 67.5 50.55 68.55 50.1 69.6 49.4 68.6 50.3 67.55 50.9 65.2 51.7 60.15 52.65 59.7 52.7 58.2 52.85 51.05 52.3 Q48.1 52.1 48.1 52.6 48.1 53.5 50.4 54.15 L55.05 55.2 59.45 55.55 59.9 55.5 60.0 55.5 66.0 54.8 68.2 54.4 69.05 54.2 Q69.5 56.45 70.45 59.3 L69.9 59.65 Q64.2 63.0 60.25 65.5 L59.8 65.8 Q57.75 67.1 56.2 68.15 48.6 73.35 47.9 75.8 L47.8 76.3 48.0 77.7 Q47.85 81.95 46.2 85.6 43.8 91.0 39.2 91.0 35.7 91.0 32.2 86.4 L31.1 84.9 30.85 83.4 30.75 81.55 30.65 81.3 30.45 81.1 30.05 80.95 29.2 80.55 Q25.6 78.85 22.3 76.85 L15.8 72.85 15.55 73.0 Q15.4 73.1 15.2 74.2 L13.4 75.55 Q11.6 76.6 9.8 76.6 7.05 76.6 3.6 72.85 2.55 71.25 2.3 68.8 5.0 62.5 8.8 56.0 18.05 40.2 22.8 40.2 25.95 40.2 29.9 43.8 34.55 48.1 39.0 49.4 L39.2 49.2 39.4 48.8 Q39.4 48.2 34.3 40.1 L29.4 32.35 29.5 32.4 Q30.05 32.8 30.6 32.6 28.95 26.1 28.35 22.7 L28.1 20.9 28.0 19.8 28.1 18.55 M13.35 78.05 L14.05 77.8 Q15.5 77.25 16.1 73.8 L16.2 73.9 23.2 78.2 29.4 81.45 29.45 81.5 29.7 81.6 29.85 83.45 Q30.1 85.6 30.9 87.35 L29.9 87.5 28.1 87.7 Q22.85 87.7 18.55 84.35 15.25 81.8 13.35 78.05" fill="#7ab536" fill-rule="evenodd" stroke="none"/>
      <path d="M16.8 36.2 L22.65 27.9 24.15 25.8 24.65 26.85 25.2 28.1 Q26.85 31.6 28.9 35.0 32.25 40.65 38.4 48.25 34.15 42.6 30.95 36.9 27.8 31.3 25.85 27.05 L25.25 25.8 24.75 24.65 24.7 24.55 24.5 23.5 Q24.5 22.65 25.25 21.9 L25.5 21.7 25.95 23.55 26.15 24.3 26.65 25.65 28.8 30.35 Q27.55 27.15 27.0 25.05 L26.75 23.8 26.65 23.45 Q26.3 21.45 26.3 20.75 26.4 19.45 27.35 18.85 L27.4 18.85 Q27.65 18.65 28.1 18.55 L28.0 19.8 28.1 20.9 28.35 22.7 Q28.95 26.1 30.6 32.6 30.05 32.8 29.5 32.4 L29.4 32.35 34.3 40.1 Q39.4 48.2 39.4 48.8 L39.2 49.2 39.0 49.4 Q34.55 48.1 29.9 43.8 25.95 40.2 22.8 40.2 18.05 40.2 8.8 56.0 5.0 62.5 2.3 68.8 2.55 71.25 3.6 72.85 7.05 76.6 9.8 76.6 11.6 76.6 13.4 75.55 L15.2 74.2 15.1 74.85 Q14.75 76.55 13.35 77.25 L13.05 77.4 12.95 77.45 11.55 77.75 11.1 77.75 10.25 77.7 11.0 77.9 11.45 78.0 11.65 78.05 13.35 78.05 Q15.25 81.8 18.55 84.35 22.85 87.7 28.1 87.7 L29.9 87.5 30.9 87.35 31.0 87.6 Q32.0 89.55 34.3 91.75 L35.6 93.0 36.55 93.75 36.65 93.85 35.65 92.65 35.45 92.4 34.75 91.55 Q33.05 89.4 31.9 87.15 L31.1 84.9 32.2 86.4 Q35.7 91.0 39.2 91.0 43.8 91.0 46.2 85.6 47.85 81.95 48.0 77.7 L47.8 76.3 47.9 75.8 Q48.6 73.35 56.2 68.15 57.75 67.1 59.8 65.8 L60.25 65.5 Q64.2 63.0 69.9 59.65 L70.45 59.3 73.05 66.5 Q76.9 76.25 77.4 80.95 77.9 85.6 77.1 89.9 L75.65 96.25 74.1 98.15 Q68.75 104.2 61.0 107.35 L60.95 107.35 56.55 108.9 55.8 109.1 50.75 110.2 Q44.6 111.15 38.2 110.45 26.75 109.0 17.1 102.9 L15.1 101.55 Q8.35 96.35 3.3 89.55 L1.6 87.0 1.15 86.15 -1.4 81.4 -1.85 80.55 -2.3 79.6 -3.15 77.8 Q-2.3 72.65 -0.7 67.75 1.1 62.05 3.95 56.7 9.45 46.35 16.3 36.85 L16.8 36.2 M69.6 49.4 L69.7 50.1 Q69.65 50.8 68.95 51.35 L68.7 51.45 67.65 51.8 Q63.65 53.15 60.05 53.6 L59.6 53.65 Q56.75 53.95 54.2 53.7 L52.15 53.4 49.75 52.95 Q54.65 54.35 59.55 54.25 L60.0 54.2 Q63.9 54.0 67.8 52.8 L68.75 52.5 69.05 54.2 68.2 54.4 66.0 54.8 60.0 55.5 59.9 55.5 59.45 55.55 55.05 55.2 50.4 54.15 Q48.1 53.5 48.1 52.6 48.1 52.1 51.05 52.3 L58.2 52.85 59.7 52.7 60.15 52.65 65.2 51.7 67.55 50.9 68.6 50.3 69.6 49.4 M8.9 85.7 Q11.55 88.9 14.95 91.6 L20.35 95.2 Q25.1 97.95 29.0 99.2 L34.15 100.7 35.9 101.0 36.3 101.0 36.8 100.95 37.1 100.75 36.2 100.4 35.65 100.25 30.05 98.65 Q25.95 97.35 21.8 94.95 17.6 92.55 14.4 90.15 11.25 87.75 8.5 84.85 L8.3 84.65 8.45 85.05 8.9 85.7" fill="#569113" fill-rule="evenodd" stroke="none"/>
      <path d="M2.55 90.3 L5.45 93.85 Q9.9 99.05 15.7 103.2 L16.55 103.75 Q26.45 110.0 38.1 111.45 44.5 112.2 50.7 111.25 L54.75 110.45 Q51.35 114.3 46.45 116.7 L39.95 119.15 36.5 119.8 Q32.5 120.1 27.05 118.85 16.35 115.35 8.6 107.2 L7.25 105.6 6.6 104.45 Q4.45 99.45 3.3 94.15 L2.55 90.3" fill="#b2b2b2" fill-rule="evenodd" stroke="none"/>
      <path d="M1.0 87.9 L2.25 92.7 Q3.35 97.9 4.3 100.25 L5.65 103.65 1.15 95.8 -0.15 92.45 -0.3 91.9 Q-1.6 87.3 -1.55 83.3 L0.3 86.65 1.0 87.9 M61.35 108.3 Q68.0 105.6 72.9 100.85 71.65 103.25 70.1 105.25 L66.7 109.15 65.35 110.45 65.3 110.45 64.7 111.0 62.65 112.65 60.45 114.25 Q56.8 116.7 51.4 118.3 L51.35 118.3 50.25 118.65 Q45.05 120.0 38.95 119.9 L40.1 119.55 Q45.05 117.9 46.65 117.1 51.95 114.55 55.5 110.25 L61.35 108.3" fill="#b24600" fill-rule="evenodd" stroke="none"/>
    </g>
    <g id="shape5" transform="matrix(1.0, 0.0, 0.0, 1.0, 0.5, 0.5)">
      <path d="M44.15 5.55 L37.9 4.1 29.35 3.0 22.0 2.5 Q18.25 2.5 16.8 4.95 L16.75 5.0 14.75 9.1 Q13.5 8.15 11.95 7.75 L14.75 1.95 Q16.1 0.1 22.15 0.25 28.2 0.35 36.8 2.5 45.4 4.6 46.85 6.35 L44.15 5.55 M0.6 24.05 L0.5 22.4 0.5 22.25 0.5 22.2 Q0.6 18.7 3.35 13.4 4.25 11.5 6.05 9.95 7.2 8.9 8.45 8.45 L8.6 8.45 Q11.8 8.2 14.4 10.15 L15.05 10.75 15.1 11.05 15.65 16.5 Q15.9 20.85 13.05 25.5 10.2 30.1 6.65 29.95 3.1 29.8 1.75 26.85 L0.6 24.05" fill="#00ccff" fill-rule="evenodd" stroke="none"/>
      <path d="M0.6 24.05 L1.75 26.85 Q3.1 29.8 6.65 29.95 10.2 30.1 13.05 25.5 15.9 20.85 15.65 16.5 L15.1 11.05 15.05 10.75 15.2 10.85 15.35 10.85 16.25 10.9 16.1 11.95 16.2 12.3 16.85 13.85 17.05 14.15 18.4 15.1 18.15 15.7 17.45 17.15 17.4 17.35 17.4 17.45 17.85 19.95 Q18.2 21.7 18.0 22.3 L17.95 22.4 17.55 22.25 17.3 22.15 17.0 22.25 16.85 22.5 16.45 23.75 16.45 24.05 16.75 25.7 15.45 26.15 Q15.25 26.2 15.2 26.35 L14.2 27.75 14.15 27.85 14.1 27.9 13.9 28.1 13.8 28.35 13.7 29.7 12.45 29.75 12.25 29.85 11.85 30.15 11.75 30.35 11.3 31.5 10.1 31.2 9.85 31.2 7.8 31.4 Q7.6 31.4 7.5 31.55 L6.85 32.15 5.7 31.1 5.5 31.0 4.45 30.55 Q1.05 28.85 0.6 24.05" fill="#0098ff" fill-rule="evenodd" stroke="none"/>
      <path d="M44.15 5.55 L46.85 6.35 Q45.4 4.6 36.8 2.5 28.2 0.35 22.15 0.25 16.1 0.1 14.75 1.95 L11.95 7.75 Q13.5 8.15 14.75 9.1 L16.75 5.0 16.8 4.95 Q18.25 2.5 22.0 2.5 L29.35 3.0 37.9 4.1 44.15 5.55 M4.45 31.65 Q-0.5 29.6 -0.5 22.4 L-0.5 22.2 Q-0.4 18.5 2.45 12.95 3.45 10.9 5.4 9.2 6.75 7.95 8.2 7.5 L8.3 7.45 10.55 7.5 10.85 7.65 13.9 1.4 13.95 1.3 Q15.3 -0.5 21.35 -0.5 28.35 -0.5 37.5 1.95 46.8 4.3 48.15 6.75 L48.2 7.15 47.95 7.45 47.6 7.5 43.9 6.5 37.7 5.1 29.25 4.0 22.0 3.5 Q18.85 3.5 17.65 5.45 L15.5 9.85 16.8 9.9 17.05 10.0 17.25 10.2 17.3 10.45 17.15 12.0 17.75 13.4 19.3 14.6 19.45 14.85 19.45 15.1 18.9 16.5 18.45 17.45 18.85 19.75 Q19.3 22.0 18.9 22.7 18.6 23.3 18.1 23.35 L17.6 23.35 17.45 23.95 17.75 26.15 17.7 26.45 17.5 26.6 17.2 26.65 15.95 27.05 15.05 28.3 15.0 28.35 14.8 28.65 14.65 30.25 14.5 30.6 14.1 30.7 12.7 30.75 12.65 30.75 12.65 30.8 12.0 32.3 11.75 32.55 11.4 32.6 9.95 32.15 8.0 32.4 7.2 33.15 6.9 33.3 6.55 33.2 5.05 31.9 4.45 31.65 M15.05 10.75 L14.4 10.15 Q11.8 8.2 8.6 8.45 L8.45 8.45 Q7.2 8.9 6.05 9.95 4.25 11.5 3.35 13.4 0.6 18.7 0.5 22.2 L0.5 22.25 0.5 22.4 0.6 24.05 Q1.05 28.85 4.45 30.55 L5.5 31.0 5.7 31.1 6.85 32.15 7.5 31.55 Q7.6 31.4 7.8 31.4 L9.85 31.2 10.1 31.2 11.3 31.5 11.75 30.35 11.85 30.15 12.25 29.85 12.45 29.75 13.7 29.7 13.8 28.35 13.9 28.1 14.1 27.9 14.15 27.85 14.2 27.75 15.2 26.35 Q15.25 26.2 15.45 26.15 L16.75 25.7 16.45 24.05 16.45 23.75 16.85 22.5 17.0 22.25 17.3 22.15 17.55 22.25 17.95 22.4 18.0 22.3 Q18.2 21.7 17.85 19.95 L17.4 17.45 17.4 17.35 17.45 17.15 18.15 15.7 18.4 15.1 17.05 14.15 16.85 13.85 16.2 12.3 16.1 11.95 16.25 10.9 15.35 10.85 15.2 10.85 15.05 10.75" fill="#000000" fill-rule="evenodd" stroke="none"/>
      <path d="M4.45 31.65 L5.05 31.9 6.55 33.2 6.9 33.3 7.2 33.15 8.0 32.4 9.95 32.15 11.4 32.6 11.75 32.55 12.0 32.3 12.65 30.8 12.65 30.75 12.7 30.75 14.1 30.7 14.5 30.6 14.65 30.25 14.8 28.65 15.0 28.35 15.05 28.3 15.95 27.05 17.2 26.65 17.5 26.6 17.7 26.45 17.75 26.15 17.45 23.95 17.6 23.35 18.1 23.35 Q18.6 23.3 18.9 22.7 19.3 22.0 18.85 19.75 L18.45 17.45 18.9 16.5 19.0 17.1 19.3 19.55 19.5 21.1 19.2 23.15 Q18.8 24.2 18.1 24.25 L18.2 24.25 18.3 24.95 18.5 25.8 18.65 26.6 Q18.65 27.0 17.55 27.45 16.4 27.9 16.4 28.35 L16.6 28.8 16.8 29.2 16.3 29.85 15.55 30.45 14.75 32.7 Q13.8 32.7 12.55 33.85 L11.45 34.95 10.35 34.6 Q9.8 34.2 9.5 34.2 L8.95 34.55 8.55 34.9 7.8 35.1 Q6.55 35.0 6.55 34.55 L5.45 33.45 Q4.65 32.5 4.45 31.65" fill="#000000" fill-opacity="0.2" fill-rule="evenodd" stroke="none"/>
    </g>
    <g id="shape6" transform="matrix(1.0, 0.0, 0.0, 1.0, 0.35, 0.5)">
      <path d="M20.4 1.05 Q33.65 17.75 35.35 46.4 L34.8 46.3 Q33.9 44.8 30.0 44.8 28.25 44.8 24.65 46.35 L23.15 47.05 Q18.25 43.2 10.1 32.75 2.85 23.45 0.5 20.9 -2.5 5.3 20.4 1.05 M32.8 47.0 L35.0 47.15 35.45 47.25 Q37.5 49.0 37.6 50.75 L36.4 50.25 36.15 50.2 34.7 50.0 Q32.2 50.0 28.55 53.15 25.0 56.2 25.4 57.4 L25.0 57.4 24.25 55.75 Q24.0 55.1 24.0 54.3 24.0 51.95 27.6 49.4 30.25 47.5 32.8 47.0" fill="#7ab536" fill-rule="evenodd" stroke="none"/>
      <path d="M34.2 52.35 Q35.05 52.4 35.5 52.75 L36.45 53.9 Q37.65 58.2 37.45 61.1 L36.7 61.2 Q35.4 61.2 34.2 58.6 33.2 56.5 33.2 55.6 33.2 54.15 34.05 52.6 L34.2 52.35" fill="#ff6500" fill-rule="evenodd" stroke="none"/>
      <path d="M20.4 1.05 L20.35 1.0 19.8 0.3 19.7 -0.05 19.9 -0.4 20.3 -0.5 20.6 -0.3 21.15 0.4 Q34.7 17.4 36.35 46.75 39.05 49.0 38.65 51.4 38.45 52.55 37.45 53.8 38.45 57.35 38.5 60.0 38.55 62.35 37.9 64.0 L37.75 64.2 37.55 64.3 Q31.65 65.7 28.85 63.1 L26.85 61.4 26.65 61.25 26.5 61.25 Q22.95 61.05 20.8 54.1 L12.65 43.95 Q7.1 36.85 3.2 28.55 1.8 25.95 0.75 23.25 L0.0 21.15 -0.2 20.55 -0.35 20.15 0.35 21.05 3.85 28.5 Q7.65 36.1 13.15 43.25 18.65 50.4 21.35 53.25 23.8 49.0 28.2 47.4 32.2 45.9 34.8 46.3 L35.35 46.4 Q33.65 17.75 20.4 1.05 M37.6 50.75 Q37.5 49.0 35.45 47.25 L35.0 47.15 32.8 47.0 Q30.55 47.15 27.8 48.4 23.2 50.4 21.8 53.9 23.45 59.2 25.9 60.1 L25.9 59.95 Q25.85 57.05 29.05 54.1 32.0 51.3 34.0 51.35 L34.85 51.4 Q35.7 51.55 36.15 52.0 L36.9 52.85 Q37.6 51.8 37.6 50.75 M37.45 61.1 Q37.65 58.2 36.45 53.9 L35.5 52.75 Q35.05 52.4 34.2 52.35 L34.0 52.35 Q32.3 52.4 29.75 54.85 26.95 57.45 26.9 59.95 L26.95 60.3 27.45 60.6 29.5 62.35 Q31.95 64.55 37.0 63.4 L37.45 61.1" fill="#000000" fill-rule="evenodd" stroke="none"/>
      <path d="M34.8 46.3 Q32.2 45.9 28.2 47.4 23.8 49.0 21.35 53.25 18.65 50.4 13.15 43.25 7.65 36.1 3.85 28.5 L0.35 21.05 0.5 20.9 Q2.85 23.45 10.1 32.75 18.25 43.2 23.15 47.05 L24.65 46.35 Q28.25 44.8 30.0 44.8 33.9 44.8 34.8 46.3 M37.6 50.75 Q37.6 51.8 36.9 52.85 L36.15 52.0 Q35.7 51.55 34.85 51.4 L34.0 51.35 Q32.0 51.3 29.05 54.1 25.85 57.05 25.9 59.95 L25.9 60.1 Q23.45 59.2 21.8 53.9 23.2 50.4 27.8 48.4 30.55 47.15 32.8 47.0 30.25 47.5 27.6 49.4 24.0 51.95 24.0 54.3 24.0 55.1 24.25 55.75 L25.0 57.4 25.4 57.4 Q25.0 56.2 28.55 53.15 32.2 50.0 34.7 50.0 L36.15 50.2 36.4 50.25 37.6 50.75" fill="#569113" fill-rule="evenodd" stroke="none"/>
      <path d="M37.45 61.1 L37.0 63.4 Q31.95 64.55 29.5 62.35 L27.45 60.6 26.95 60.3 26.9 59.95 Q26.95 57.45 29.75 54.85 32.3 52.4 34.0 52.35 L34.2 52.35 34.05 52.6 Q33.2 54.15 33.2 55.6 33.2 56.5 34.2 58.6 35.4 61.2 36.7 61.2 L37.45 61.1" fill="#b24600" fill-rule="evenodd" stroke="none"/>
    </g>
    <g id="shape7" transform="matrix(1.0, 0.0, 0.0, 1.0, 3.05, 0.75)">
      <path d="M-1.1 25.35 Q-0.85 26.5 -0.85 27.7 L-1.15 27.9 -1.35 27.75 -2.15 25.65 -1.1 25.35 M-2.45 23.6 L-1.25 23.05 -1.15 24.8 -2.25 25.15 Q-2.2 24.2 -2.45 23.6 M-2.1 20.5 L-1.05 20.5 -1.25 22.5 -2.4 22.75 -2.1 20.5 M-1.15 17.35 L-0.3 17.5 -0.95 20.0 -1.95 19.85 -1.15 17.35 M0.0 14.3 L0.85 14.5 0.35 15.75 -0.35 17.0 -1.0 16.85 0.0 14.3 M1.75 10.6 L2.4 10.9 1.05 14.0 0.25 13.8 1.75 10.6 M3.7 7.3 L4.45 7.75 3.6 9.1 2.65 10.45 2.0 10.15 3.7 7.3 M6.3 3.75 L6.35 3.75 4.7 7.35 3.95 6.85 5.75 3.4 6.3 3.75 M6.0 3.0 L7.35 0.25 7.55 0.25 6.95 3.0 6.65 3.35 6.0 3.0" fill="#7ab536" fill-rule="evenodd" stroke="none"/>
      <path d="M8.45 -0.6 L8.5 -0.1 Q8.35 1.5 7.8 3.0 5.95 7.35 3.55 11.3 1.2 15.1 0.0 19.6 -1.1 23.9 0.5 28.15 L0.0 28.6 -1.25 28.95 -2.15 28.55 Q-3.9 23.55 -2.3 18.5 L-0.5 13.6 Q0.65 10.85 2.55 7.5 L5.65 1.85 7.0 -0.75 8.45 -0.6 M6.0 3.0 L6.65 3.35 6.95 3.0 7.55 0.25 7.35 0.25 6.0 3.0 M6.3 3.75 L5.75 3.4 3.95 6.85 4.7 7.35 6.35 3.75 6.3 3.75 M3.7 7.3 L2.0 10.15 2.65 10.45 3.6 9.1 4.45 7.75 3.7 7.3 M1.75 10.6 L0.25 13.8 1.05 14.0 2.4 10.9 1.75 10.6 M0.0 14.3 L-1.0 16.85 -0.35 17.0 0.35 15.75 0.85 14.5 0.0 14.3 M-1.15 17.35 L-1.95 19.85 -0.95 20.0 -0.3 17.5 -1.15 17.35 M-2.1 20.5 L-2.4 22.75 -1.25 22.5 -1.05 20.5 -2.1 20.5 M-2.45 23.6 Q-2.2 24.2 -2.25 25.15 L-1.15 24.8 -1.25 23.05 -2.45 23.6 M-1.1 25.35 L-2.15 25.65 -1.35 27.75 -1.15 27.9 -0.85 27.7 Q-0.85 26.5 -1.1 25.35" fill="#000000" fill-rule="evenodd" stroke="none"/>
    </g>
    <g id="shape8" transform="matrix(1.0, 0.0, 0.0, 1.0, 0.0, 0.0)">
      <path d="M21.35 10.4 Q21.7 7.5 20.95 5.15 L20.6 4.2 19.75 2.25 Q19.3 1.65 18.45 1.5 16.8 1.3 15.5 2.9 L15.25 3.1 14.95 3.05 14.8 2.85 Q14.5 1.05 12.75 0.95 11.65 0.95 10.1 1.55 8.35 2.2 7.15 3.25 L6.3 4.0 Q4.05 6.2 2.55 9.05 0.75 12.4 0.9 14.75 1.0 15.7 1.55 16.2 1.95 16.6 3.05 16.95 L9.55 17.75 15.9 17.8 17.8 17.4 19.35 16.0 Q20.95 13.85 21.35 10.4 M20.35 1.45 L21.45 3.65 21.95 5.2 Q22.55 7.5 22.25 10.25 21.7 14.05 20.0 16.45 L18.7 17.75 17.95 18.15 17.95 18.2 15.75 18.7 14.15 18.8 9.35 18.65 2.65 17.8 Q1.4 17.35 0.9 16.95 0.2 16.35 0.05 15.1 L0.05 15.05 Q-0.3 12.7 1.0 9.85 2.3 6.95 3.95 5.05 5.55 3.1 6.95 2.1 8.35 1.1 10.1 0.5 11.85 -0.1 13.4 0.0 14.9 0.05 15.5 1.75 16.9 0.3 18.8 0.6 19.8 0.75 20.35 1.45" fill="#000000" fill-rule="evenodd" stroke="none"/>
      <path d="M21.35 10.4 Q20.95 13.85 19.35 16.0 L17.8 17.4 15.9 17.8 9.55 17.75 3.05 16.95 Q1.95 16.6 1.55 16.2 1.0 15.7 0.9 14.75 0.75 12.4 2.55 9.05 4.05 6.2 6.3 4.0 L7.15 3.25 Q8.35 2.2 10.1 1.55 11.65 0.95 12.75 0.95 14.5 1.05 14.8 2.85 L14.95 3.05 15.25 3.1 15.5 2.9 Q16.8 1.3 18.45 1.5 19.3 1.65 19.75 2.25 L20.6 4.2 20.95 5.15 Q21.7 7.5 21.35 10.4" fill="#ffffff" fill-rule="evenodd" stroke="none"/>
    </g>
    <g id="shape9" transform="matrix(1.0, 0.0, 0.0, 1.0, 0.0, 0.0)">
      <path d="M4.05 7.5 Q3.3 8.75 2.25 8.7 1.25 8.7 0.6 7.35 -0.05 6.0 0.0 4.15 0.15 2.45 1.0 1.15 1.8 0.0 2.75 0.0 3.8 0.05 4.4 1.3 5.05 2.75 5.0 4.45 4.85 6.3 4.05 7.5" fill="#000000" fill-rule="evenodd" stroke="none"/>
      <path d="M3.15 2.35 L2.55 2.6 2.0 2.35 1.75 1.75 2.0 1.15 Q2.2 0.95 2.55 0.95 L3.15 1.15 3.4 1.75 3.15 2.35" fill="#ffffff" fill-rule="evenodd" stroke="none"/>
    </g>
    <g id="shape10" transform="matrix(1.0, 0.0, 0.0, 1.0, 2.2, 0.0)">
      <path d="M3.25 4.25 Q2.7 5.05 2.45 6.1 L2.35 6.6 2.2 8.5 Q2.35 9.65 2.95 10.9 L2.95 11.1 3.0 11.2 3.0 11.1 3.55 11.95 3.7 12.1 3.85 12.35 4.15 12.7 Q5.7 14.65 7.75 16.05 L8.2 16.35 Q10.9 18.3 14.45 18.9 L14.6 18.95 16.1 19.25 16.85 19.35 Q21.15 19.8 24.9 18.35 L26.15 17.85 28.45 16.05 29.45 14.45 29.75 13.5 29.95 12.55 Q30.1 13.8 29.85 15.0 L29.8 15.4 Q28.65 19.35 23.8 21.05 19.3 22.7 13.95 21.55 L12.8 21.25 Q6.85 19.6 3.4 15.45 0.2 11.6 1.2 7.6 L1.5 6.75 Q2.1 5.35 3.25 4.25" fill="#f99108" fill-rule="evenodd" stroke="none"/>
      <path d="M3.25 4.25 Q2.1 5.35 1.5 6.75 L1.2 7.6 Q0.2 11.6 3.4 15.45 6.85 19.6 12.8 21.25 L13.95 21.55 Q19.3 22.7 23.8 21.05 28.65 19.35 29.8 15.4 L29.85 15.0 Q30.1 13.8 29.95 12.55 29.6 10.05 27.5 7.55 24.1 3.5 18.1 1.85 12.15 0.25 7.1 1.95 4.7 2.85 3.25 4.25 M1.95 4.2 Q3.7 2.05 6.9 0.95 12.2 -0.9 18.4 0.8 24.65 2.45 28.25 6.75 30.9 9.85 31.05 13.05 31.05 14.35 30.7 15.65 29.55 20.15 24.05 22.1 18.9 23.95 12.85 22.4 L12.5 22.3 Q6.3 20.6 2.7 16.3 -0.95 11.85 0.3 7.35 0.7 5.7 1.7 4.5 L1.95 4.2" fill="#000000" fill-rule="evenodd" stroke="none"/>
      <path d="M29.95 12.55 L29.75 13.5 29.45 14.45 28.45 16.05 26.15 17.85 24.9 18.35 Q21.15 19.8 16.85 19.35 L16.1 19.25 14.6 18.95 14.45 18.9 Q10.9 18.3 8.2 16.35 L7.75 16.05 Q5.7 14.65 4.15 12.7 L3.85 12.35 3.7 12.1 3.55 11.95 3.0 11.1 3.0 11.2 2.95 11.1 2.95 10.9 Q2.35 9.65 2.2 8.5 L2.35 6.6 2.45 6.1 Q2.7 5.05 3.25 4.25 4.7 2.85 7.1 1.95 12.15 0.25 18.1 1.85 24.1 3.5 27.5 7.55 29.6 10.05 29.95 12.55" fill="#ffb409" fill-rule="evenodd" stroke="none"/>
      <path d="M1.95 4.2 L1.7 4.5 Q0.7 5.7 0.3 7.35 -0.95 11.85 2.7 16.3 6.3 20.6 12.5 22.3 L12.85 22.4 Q10.8 23.75 7.4 23.6 4.0 23.45 0.9 20.4 -2.2 17.3 -2.2 13.3 -2.2 9.1 0.3 5.9 L1.95 4.2" fill="#000000" fill-opacity="0.29803923" fill-rule="evenodd" stroke="none"/>
      <path d="M3.1 9.6 Q2.4 10.25 2.3 11.5 L2.25 11.6 2.25 11.7 2.2 11.6 2.2 11.4 Q2.1 9.4 3.2 8.7 3.25 8.6 3.35 8.6 L5.1 8.7 Q4.25 8.7 3.65 9.1 3.95 13.3 7.0 16.55 L6.6 16.2 6.55 16.15 Q3.05 13.2 3.1 9.6" fill="#000000" fill-rule="evenodd" stroke="none"/>
    </g>
    <g id="shape11" transform="matrix(1.0, 0.0, 0.0, 1.0, 28.5, 13.85)">
      <path d="M-17.8 -2.05 L-19.7 -3.35 Q-21.4 -4.5 -22.95 -5.05 L5.95 -12.55 Q5.7 -10.15 3.75 -8.65 3.0 -8.05 2.15 -7.6 -2.2 -6.15 -6.65 -5.0 -9.45 -4.15 -12.2 -3.55 L-17.8 -2.05 M6.1 -0.65 L4.7 -1.9 Q6.2 -3.7 7.15 -6.05 8.05 -8.25 7.6 -10.7 L7.5 -11.8 Q9.5 -9.1 9.05 -3.75 L8.1 -2.45 6.1 -0.65 M4.6 -1.85 L4.65 -1.9 4.7 -1.8 4.6 -1.85 M-1.45 0.05 L-1.35 -0.1 Q0.05 -1.55 2.1 -1.75 L3.2 -1.65 3.55 -1.4 4.1 -1.0 6.25 0.85 6.3 0.9 6.35 0.95 7.8 2.2 Q6.15 2.05 4.4 3.45 2.6 4.85 2.95 5.0 0.95 4.1 -0.5 2.35 L-1.25 1.4 Q-1.8 0.5 -1.45 0.05 M-25.3 -4.4 L-24.95 -4.55 -24.9 -4.55 Q-22.85 -4.8 -19.65 -2.45 L-18.7 -1.8 -17.5 -0.95 Q-16.55 -0.25 -15.45 0.2 -10.7 1.8 -5.6 1.1 L-3.0 0.5 -3.25 0.85 -3.3 0.95 -4.65 3.15 -4.8 3.45 Q-5.55 4.5 -9.15 4.65 L-16.25 4.45 -21.05 3.55 -23.4 2.75 Q-23.8 2.4 -23.65 2.1 L-23.45 -0.35 Q-23.55 -2.6 -24.15 -3.4 L-25.3 -4.4" fill="#126bc6" fill-rule="evenodd" stroke="none"/>
      <path d="M8.25 4.1 L8.95 4.75 9.05 4.8 84.7 72.15 Q83.05 72.65 81.9 73.9 L5.05 6.35 Q5.85 4.9 8.25 4.1" fill="#986f1e" fill-rule="evenodd" stroke="none"/>
      <path d="M81.75 75.7 L82.65 74.55 Q83.95 73.25 85.8 72.9 L85.95 72.85 87.45 72.7 87.55 72.8 100.75 84.85 97.15 88.5 90.3 82.95 Q90.3 81.0 89.9 79.4 L89.7 78.65 Q88.9 76.2 87.5 76.3 86.35 76.25 85.3 77.6 L84.8 78.3 81.75 75.7" fill="#393939" fill-rule="evenodd" stroke="none"/>
      <path d="M85.0 80.2 L85.3 79.5 85.6 79.0 Q86.5 77.35 87.5 77.3 88.2 77.4 88.75 78.95 L89.2 81.1 Q88.45 82.15 86.9 82.15 86.15 82.15 85.6 81.6 85.1 81.05 85.0 80.2" fill="#ff6500" fill-rule="evenodd" stroke="none"/>
      <path d="M6.45 -13.75 L6.65 -13.85 6.7 -13.85 6.85 -13.8 7.05 -13.7 7.1 -13.65 Q10.75 -10.8 10.0 -3.3 L10.0 -3.15 Q9.0 -0.35 7.5 0.65 L9.75 2.6 9.8 2.65 9.9 2.95 9.85 4.15 85.85 71.9 87.6 71.7 87.95 71.85 101.8 84.45 101.95 84.65 101.95 84.95 101.8 85.15 95.2 91.9 94.9 92.05 94.55 91.95 89.1 87.05 88.15 87.65 Q87.45 87.8 86.55 87.25 85.0 86.3 84.25 85.6 L84.3 85.6 Q83.3 84.7 83.3 83.85 L83.3 83.8 83.45 81.95 79.85 78.65 79.7 78.4 79.65 78.15 80.0 77.1 4.5 9.9 3.05 10.4 2.75 10.45 2.5 10.3 -2.55 5.2 -5.8 5.95 -15.5 6.35 -21.4 5.55 Q-23.75 5.05 -25.45 4.0 L-26.9 2.95 Q-28.25 1.7 -28.5 -0.3 L-28.4 -1.85 -27.9 -3.35 -27.85 -3.4 -26.7 -4.85 -25.15 -5.5 -25.05 -5.55 -25.0 -5.55 6.45 -13.75 M-17.8 -2.05 L-16.2 -1.1 -15.75 -0.85 5.0 -6.4 5.25 -6.95 Q6.4 -9.75 6.35 -12.7 L5.95 -12.55 -22.95 -5.05 Q-21.4 -4.5 -19.7 -3.35 L-17.8 -2.05 M6.9 -11.55 Q6.7 -8.6 5.55 -6.35 L5.3 -3.8 Q6.2 -4.85 6.85 -6.8 7.45 -8.8 6.9 -11.55 M9.05 -3.75 Q9.5 -9.1 7.5 -11.8 L7.6 -10.7 Q8.05 -8.25 7.15 -6.05 6.2 -3.7 4.7 -1.9 L6.1 -0.65 6.7 -0.1 Q8.1 -0.8 9.0 -3.45 L9.05 -3.75 M4.55 -3.15 L4.7 -5.55 -13.85 -0.3 -11.55 0.25 Q-6.75 0.9 -2.25 -0.65 L-1.75 -0.85 -1.55 -1.0 -0.85 -1.45 Q0.8 -2.45 3.5 -2.5 L3.75 -2.45 4.55 -3.15 M7.8 2.2 L6.35 0.95 6.3 0.9 6.25 0.85 4.1 -1.0 3.55 -1.4 3.2 -1.65 2.1 -1.75 Q0.05 -1.55 -1.35 -0.1 L-1.45 0.05 Q-2.8 1.45 -2.95 3.25 L-2.1 4.2 -1.95 4.35 2.35 8.75 2.55 7.85 2.6 7.8 2.6 7.75 Q3.0 6.3 3.75 5.2 5.15 3.2 7.85 2.65 L7.95 2.65 8.0 2.65 8.25 2.6 7.8 2.2 M4.6 -1.85 L4.7 -1.8 4.65 -1.9 4.6 -1.85 M97.15 88.5 L100.75 84.85 87.55 72.8 87.45 72.7 85.95 72.85 85.8 72.9 Q83.95 73.25 82.65 74.55 L81.75 75.7 81.05 77.15 80.95 77.25 80.7 78.1 83.7 80.8 84.4 79.05 84.8 78.3 85.3 77.6 Q86.35 76.25 87.5 76.3 88.9 76.2 89.7 78.65 L89.9 79.4 Q90.3 81.0 90.3 82.95 L90.3 83.0 Q90.3 84.8 89.65 86.2 L94.85 90.9 97.15 88.5 M81.9 73.9 Q83.05 72.65 84.7 72.15 L9.05 4.8 8.95 4.75 8.25 4.1 7.8 3.7 Q5.65 4.2 4.5 5.9 L3.7 7.6 3.8 7.7 4.95 8.95 80.4 76.15 81.0 75.05 81.9 73.9 M89.2 81.1 L88.75 78.95 Q88.2 77.4 87.5 77.3 86.5 77.35 85.6 79.0 L85.3 79.5 85.0 80.2 84.5 81.85 84.5 81.95 Q84.25 83.05 84.3 83.8 84.35 84.3 84.95 84.85 L87.1 86.4 87.95 86.65 88.55 86.15 88.6 86.0 Q89.3 84.7 89.3 83.0 L89.3 82.1 89.2 81.1 M-25.3 -4.4 L-25.55 -4.3 -25.6 -4.3 -25.7 -4.2 Q-24.0 -3.6 -23.8 -1.65 L-23.75 -0.45 -23.75 -0.35 Q-23.9 0.9 -24.5 2.05 L-24.6 2.2 -24.85 2.6 -25.0 2.85 -24.85 2.5 -24.75 2.1 -24.6 1.75 Q-23.85 -0.5 -24.9 -2.55 -25.5 -3.8 -26.6 -3.5 L-26.55 -3.5 -27.1 -3.05 Q-27.6 -2.35 -27.6 -0.25 -27.65 1.85 -25.05 3.3 -22.5 4.7 -19.8 5.0 L-12.8 5.55 -5.4 4.85 -3.35 4.35 -3.55 4.15 -3.65 4.0 -3.7 3.8 Q-3.65 2.5 -3.15 1.3 L-2.8 0.5 -3.0 0.5 -5.6 1.1 Q-10.7 1.8 -15.45 0.2 -16.55 -0.25 -17.5 -0.95 L-18.7 -1.8 -19.65 -2.45 Q-22.85 -4.8 -24.9 -4.55 L-24.95 -4.55 -25.3 -4.4" fill="#000000" fill-rule="evenodd" stroke="none"/>
      <path d="M81.9 73.9 L81.0 75.05 80.4 76.15 4.95 8.95 3.8 7.7 3.7 7.6 4.5 5.9 Q5.65 4.2 7.8 3.7 L8.25 4.1 Q5.85 4.9 5.05 6.35 L81.9 73.9" fill="#774a12" fill-rule="evenodd" stroke="none"/>
      <path d="M5.95 -12.55 L6.35 -12.7 Q6.4 -9.75 5.25 -6.95 L5.0 -6.4 -15.75 -0.85 -16.2 -1.1 -17.8 -2.05 -12.2 -3.55 Q-9.45 -4.15 -6.65 -5.0 -2.2 -6.15 2.15 -7.6 3.0 -8.05 3.75 -8.65 5.7 -10.15 5.95 -12.55 M6.9 -11.55 Q7.45 -8.8 6.85 -6.8 6.2 -4.85 5.3 -3.8 L5.55 -6.35 Q6.7 -8.6 6.9 -11.55 M9.05 -3.75 L9.0 -3.45 Q8.1 -0.8 6.7 -0.1 L6.1 -0.65 8.1 -2.45 9.05 -3.75 M7.8 2.2 L8.25 2.6 8.0 2.65 7.95 2.65 7.85 2.65 Q5.15 3.2 3.75 5.2 3.0 6.3 2.6 7.75 L2.6 7.8 2.55 7.85 2.35 8.75 -1.95 4.35 -2.1 4.2 -2.95 3.25 Q-2.8 1.45 -1.45 0.05 -1.8 0.5 -1.25 1.4 L-0.5 2.35 Q0.95 4.1 2.95 5.0 2.6 4.85 4.4 3.45 6.15 2.05 7.8 2.2 M-3.0 0.5 L-2.8 0.5 -3.15 1.3 Q-3.65 2.5 -3.7 3.8 L-3.65 4.0 -3.55 4.15 -3.35 4.35 -5.4 4.85 -12.8 5.55 -19.8 5.0 Q-22.5 4.7 -25.05 3.3 -27.65 1.85 -27.6 -0.25 -27.6 -2.35 -27.1 -3.05 L-26.55 -3.5 -26.6 -3.5 Q-25.5 -3.8 -24.9 -2.55 -23.85 -0.5 -24.6 1.75 L-24.75 2.1 -24.85 2.5 -25.0 2.85 -24.85 2.6 -24.6 2.2 -24.5 2.05 Q-23.9 0.9 -23.75 -0.35 L-23.75 -0.45 -23.8 -1.65 Q-24.0 -3.6 -25.7 -4.2 L-25.6 -4.3 -25.55 -4.3 -25.3 -4.4 -24.15 -3.4 Q-23.55 -2.6 -23.45 -0.35 L-23.65 2.1 Q-23.8 2.4 -23.4 2.75 L-21.05 3.55 -16.25 4.45 -9.15 4.65 Q-5.55 4.5 -4.8 3.45 L-4.65 3.15 -3.3 0.95 -3.25 0.85 -3.0 0.5" fill="#084889" fill-rule="evenodd" stroke="none"/>
      <path d="M97.15 88.5 L94.85 90.9 89.65 86.2 Q90.3 84.8 90.3 83.0 L90.3 82.95 97.15 88.5 M84.8 78.3 L84.4 79.05 83.7 80.8 80.7 78.1 80.95 77.25 81.05 77.15 81.75 75.7 84.8 78.3" fill="#2a2a2a" fill-rule="evenodd" stroke="none"/>
      <path d="M89.2 81.1 L89.3 82.1 89.3 83.0 Q89.3 84.7 88.6 86.0 L88.55 86.15 87.95 86.65 87.1 86.4 84.95 84.85 Q84.35 84.3 84.3 83.8 84.25 83.05 84.5 81.95 L84.5 81.85 85.0 80.2 Q85.1 81.05 85.6 81.6 86.15 82.15 86.9 82.15 88.45 82.15 89.2 81.1" fill="#b24600" fill-rule="evenodd" stroke="none"/>
    </g>
    <g id="shape12" transform="matrix(1.0, 0.0, 0.0, 1.0, 0.5, 0.5)">
      <path d="M76.5 1.05 L77.7 0.1 Q78.9 -0.4 79.1 1.95 L78.05 4.9 Q74.15 14.45 76.75 20.8 79.55 27.6 89.45 29.6 L86.95 33.1 Q77.55 30.65 73.95 25.1 68.55 16.7 76.5 1.05" fill="#272727" fill-rule="evenodd" stroke="none"/>
      <path d="M76.5 1.05 Q68.55 16.7 73.95 25.1 77.55 30.65 86.95 33.1 L17.15 50.1 17.75 48.1 81.9 32.9 Q76.65 31.35 72.55 27.55 L71.15 26.2 70.6 26.2 Q67.4 26.2 65.8 24.6 L65.75 24.5 Q66.35 25.8 67.8 27.75 70.35 31.15 72.1 30.8 L72.2 31.1 68.0 30.9 Q65.8 30.05 64.5 29.1 L62.0 26.7 Q59.1 30.2 55.8 30.2 50.7 30.2 49.05 25.9 48.5 28.15 51.0 31.2 53.95 34.75 55.0 35.0 L54.2 35.2 Q52.2 35.2 48.05 32.9 46.55 32.1 45.55 31.2 L45.45 31.3 Q42.55 34.2 38.4 34.2 35.5 34.2 32.95 32.6 L31.6 31.6 Q32.3 33.35 33.3 34.6 34.7 36.35 38.2 39.2 L37.0 39.8 34.8 39.35 Q31.3 37.5 28.5 34.7 L28.0 35.75 Q25.95 38.8 22.3 38.8 19.9 38.8 17.1 37.95 15.6 37.45 14.75 36.95 L15.75 38.85 Q17.75 42.1 20.8 43.4 L20.55 43.95 19.65 44.2 Q18.8 44.2 15.7 42.85 12.55 41.5 11.65 40.75 9.8 41.8 7.2 41.8 L5.5 41.55 Q4.4 40.3 3.85 38.7 1.45 31.85 6.55 17.0 L76.5 1.05 M48.05 26.85 L48.0 27.0 48.1 26.9 48.05 26.85" fill="#313131" fill-rule="evenodd" stroke="none"/>
      <path d="M5.5 41.55 L7.2 41.8 Q9.8 41.8 11.65 40.75 12.55 41.5 15.7 42.85 18.8 44.2 19.65 44.2 L20.55 43.95 20.8 43.4 Q17.75 42.1 15.75 38.85 L14.75 36.95 Q15.6 37.45 17.1 37.95 19.9 38.8 22.3 38.8 25.95 38.8 28.0 35.75 L28.5 34.7 Q31.3 37.5 34.8 39.35 L37.0 39.8 38.2 39.2 Q34.7 36.35 33.3 34.6 32.3 33.35 31.6 31.6 L32.95 32.6 Q35.5 34.2 38.4 34.2 42.55 34.2 45.45 31.3 L45.55 31.2 Q46.55 32.1 48.05 32.9 52.2 35.2 54.2 35.2 L55.0 35.0 Q53.95 34.75 51.0 31.2 48.5 28.15 49.05 25.9 50.7 30.2 55.8 30.2 59.1 30.2 62.0 26.7 L64.5 29.1 Q65.8 30.05 68.0 30.9 L72.2 31.1 72.1 30.8 Q70.35 31.15 67.8 27.75 66.35 25.8 65.75 24.5 L65.8 24.6 Q67.4 26.2 70.6 26.2 L71.15 26.2 72.55 27.55 Q76.65 31.35 81.9 32.9 L17.75 48.1 18.5 45.6 Q9.1 45.85 5.5 41.55 M48.05 26.85 L48.1 26.9 48.0 27.0 48.05 26.85" fill="#5a5a5a" fill-rule="evenodd" stroke="none"/>
      <path d="M17.15 50.1 Q-8.25 49.3 3.95 16.7 5.6 13.8 6.95 15.55 L6.55 17.0 Q1.45 31.85 3.85 38.7 4.4 40.3 5.5 41.55 9.1 45.85 18.5 45.6 L17.75 48.1 17.15 50.1" fill="#262626" fill-rule="evenodd" stroke="none"/>
      <path d="M86.95 33.1 L89.45 29.6 Q79.55 27.6 76.75 20.8 74.15 14.45 78.05 4.9 L79.1 1.95 Q78.9 -0.4 77.7 0.1 L76.5 1.05 Q68.55 16.7 73.95 25.1 77.55 30.65 86.95 33.1 L17.15 50.1 Q-8.25 49.3 3.95 16.7 5.6 13.8 6.95 15.55 L6.55 17.0 76.5 1.05 M17.75 48.1 L17.15 50.1 M6.55 17.0 Q1.45 31.85 3.85 38.7 4.4 40.3 5.5 41.55 9.1 45.85 18.5 45.6 L17.75 48.1" fill="none" stroke="#000000" stroke-linecap="round" stroke-linejoin="round" stroke-width="1.0"/>
    </g>
    <g id="shape13" transform="matrix(1.0, 0.0, 0.0, 1.0, -0.95, 0.0)">
      <path d="M1.5 6.4 L2.05 4.4 1.75 6.8 Q1.1 15.8 6.65 21.25 L7.2 21.8 Q6.7 21.7 5.15 20.65 1.75 16.75 1.4 11.55 1.25 8.95 1.5 6.4" fill="#5a5a5a" fill-rule="evenodd" stroke="none"/>
      <path d="M1.5 6.4 L0.95 8.2 Q1.1 5.95 1.75 3.95 L1.85 3.6 Q2.4 1.8 2.9 1.0 L3.5 0.0 2.75 3.25 Q2.35 5.05 2.35 7.75 2.15 17.55 9.2 22.7 L9.25 22.8 Q6.45 22.85 4.15 20.75 L1.9 18.35 Q1.0 16.95 1.9 17.8 L2.35 18.2 Q3.55 19.55 5.15 20.65 6.7 21.7 7.2 21.8 L6.65 21.25 Q1.1 15.8 1.75 6.8 L2.05 4.4 1.5 6.4" fill="#000000" fill-rule="evenodd" stroke="none"/>
    </g>
    <g id="shape14" transform="matrix(1.0, 0.0, 0.0, 1.0, -372.2, -256.2)">
      <path d="M401.5 270.8 L401.95 270.4 403.2 269.55 405.35 268.35 Q406.75 267.35 407.95 265.95 L411.45 261.65 411.5 261.65 411.55 261.55 Q412.4 260.85 414.15 260.9 L415.25 260.8 Q415.3 260.1 416.1 258.1 416.95 255.6 419.4 256.35 421.65 257.0 422.15 258.75 422.55 259.9 424.4 259.9 425.55 259.9 426.3 259.1 L426.3 259.05 Q427.35 257.9 429.3 257.9 L430.85 258.35 Q431.45 258.7 432.1 258.7 432.9 258.7 433.35 258.25 L433.35 258.3 Q433.95 257.5 435.3 257.5 436.0 257.5 438.15 258.35 440.0 259.1 441.1 259.1 L443.55 258.9 445.9 259.2 446.4 259.25 Q447.8 259.5 446.5 259.55 L445.85 259.6 444.45 259.75 443.65 259.9 441.1 260.1 Q439.9 260.1 437.8 259.3 L435.3 258.5 Q434.45 258.5 434.1 258.95 433.4 259.7 432.1 259.7 L430.4 259.25 429.3 258.9 Q427.85 258.9 427.05 259.75 425.95 260.9 424.4 260.9 421.75 260.9 421.2 259.05 420.75 257.8 419.1 257.3 417.55 256.8 417.05 258.4 L417.05 258.45 Q416.3 260.35 416.25 260.9 L416.25 260.95 Q416.2 261.95 414.1 261.9 412.8 261.85 412.15 262.35 L412.15 262.4 410.15 264.85 408.7 266.6 Q406.45 269.25 403.6 270.45 L403.2 270.45 401.95 270.8 Q401.2 271.1 401.5 270.8 M373.6 276.8 L372.9 277.15 372.2 277.4 372.6 277.15 372.8 276.7 372.8 276.6 372.95 276.35 374.55 274.7 375.4 273.25 Q375.45 272.2 377.45 270.75 L378.5 270.05 Q379.6 269.35 380.0 269.45 380.6 269.5 381.15 270.05 L381.3 270.3 Q381.95 270.25 382.9 268.75 384.15 266.7 386.9 266.7 388.05 266.65 389.45 268.3 L390.3 269.5 393.05 268.75 393.2 268.7 Q394.0 268.7 395.3 269.5 L395.25 269.5 397.4 270.45 398.65 270.7 398.75 270.65 Q399.05 270.5 399.95 271.15 L400.0 271.2 400.7 271.85 398.5 271.55 397.65 271.4 Q396.1 271.1 394.75 270.35 393.85 269.75 393.25 269.7 L390.3 270.5 Q390.1 270.6 388.7 268.95 387.65 267.75 386.9 267.7 384.75 267.7 383.75 269.3 L383.75 269.25 Q382.45 271.4 381.3 271.3 L380.45 270.75 379.9 270.45 378.05 271.55 377.2 272.25 Q376.5 272.85 376.4 273.35 L376.4 273.4 Q376.25 274.4 375.25 275.4 L373.6 276.8" fill="#000000" fill-rule="evenodd" stroke="none"/>
      <path d="M410.15 264.85 L412.15 262.4 412.15 262.35 Q412.8 261.85 414.1 261.9 416.2 261.95 416.25 260.95 L416.25 260.9 Q416.3 260.35 417.05 258.45 L417.05 258.4 Q417.55 256.8 419.1 257.3 420.75 257.8 421.2 259.05 421.75 260.9 424.4 260.9 425.95 260.9 427.05 259.75 427.85 258.9 429.3 258.9 L430.4 259.25 432.1 259.7 Q433.4 259.7 434.1 258.95 434.45 258.5 435.3 258.5 L437.8 259.3 Q439.9 260.1 441.1 260.1 L443.65 259.9 444.45 259.75 445.85 259.6 442.2 261.8 440.35 262.15 435.1 263.0 433.4 262.3 Q432.25 261.6 431.4 261.6 L429.7 262.5 427.9 263.4 426.7 263.1 425.2 262.8 Q422.55 262.8 421.25 265.2 420.0 267.6 418.2 267.6 L417.0 267.3 415.7 267.0 414.0 267.3 412.2 267.6 410.8 267.4 Q410.0 267.0 410.0 265.7 410.0 265.25 410.15 264.85 M377.2 272.25 L378.05 271.55 379.9 270.45 380.45 270.75 381.3 271.3 Q382.45 271.4 383.75 269.25 L383.75 269.3 Q384.75 267.7 386.9 267.7 387.65 267.75 388.7 268.95 390.1 270.6 390.3 270.5 L393.25 269.7 Q393.85 269.75 394.75 270.35 396.1 271.1 397.65 271.4 L395.7 272.7 Q394.05 273.6 392.2 273.6 390.9 273.6 389.75 272.4 L388.5 271.2 Q387.0 271.2 386.05 273.7 385.15 276.2 384.2 276.2 382.5 276.2 380.8 273.8 380.4 273.2 378.7 273.05 377.2 272.95 377.2 272.25" fill="#ffffff" fill-rule="evenodd" stroke="none"/>
      <path d="M401.5 270.8 Q401.2 271.1 401.95 270.8 L403.2 270.45 403.6 270.45 Q406.45 269.25 408.7 266.6 L410.15 264.85 Q410.0 265.25 410.0 265.7 410.0 267.0 410.8 267.4 L412.2 267.6 414.0 267.3 415.7 267.0 417.0 267.3 418.2 267.6 Q420.0 267.6 421.25 265.2 422.55 262.8 425.2 262.8 L426.7 263.1 427.9 263.4 429.7 262.5 431.4 261.6 Q432.25 261.6 433.4 262.3 L435.1 263.0 440.35 262.15 442.2 261.8 Q437.7 264.25 435.2 264.4 427.2 264.9 421.4 268.4 420.2 269.1 417.95 269.2 L413.8 269.2 Q412.15 269.2 410.6 270.05 408.6 271.1 407.4 271.4 L402.35 272.05 Q399.35 272.35 398.6 273.0 L396.2 274.65 Q394.8 275.4 393.3 275.4 L390.2 275.0 Q389.55 275.0 387.35 276.0 385.1 277.0 383.9 277.0 382.35 277.0 381.1 276.1 379.8 275.2 378.85 275.4 L376.15 276.2 Q374.4 276.8 373.7 276.8 L373.6 276.8 375.25 275.4 Q376.25 274.4 376.4 273.4 L376.4 273.35 Q376.5 272.85 377.2 272.25 377.2 272.95 378.7 273.05 380.4 273.2 380.8 273.8 382.5 276.2 384.2 276.2 385.15 276.2 386.05 273.7 387.0 271.2 388.5 271.2 L389.75 272.4 Q390.9 273.6 392.2 273.6 394.05 273.6 395.7 272.7 L397.65 271.4 398.5 271.55 400.7 271.85 400.0 271.2 399.95 271.15 401.5 270.8" fill="#c8cfd7" fill-rule="evenodd" stroke="none"/>
    </g>
    <g id="shape15" transform="matrix(1.0, 0.0, 0.0, 1.0, 0.0, 0.0)">
      <path d="M69.8 16.3 L69.45 15.45 Q69.2 14.85 68.2 14.35 66.65 13.6 66.5 13.15 L66.45 13.15 64.75 9.65 Q64.2 8.55 62.8 8.55 L60.1 8.9 60.05 8.9 Q59.35 9.0 58.8 9.55 L58.8 9.5 58.75 9.55 Q59.95 10.05 60.35 10.8 L59.0 10.45 57.5 10.1 57.25 10.1 56.8 9.95 56.75 9.95 Q54.05 9.35 54.15 7.75 L54.2 7.6 54.4 6.75 Q54.4 5.9 53.7 5.3 52.9 4.65 51.8 4.65 L51.35 4.7 50.7 5.0 50.65 5.0 Q50.25 5.25 50.25 5.7 50.3 6.25 50.95 6.85 L51.9 8.0 Q51.95 8.9 50.45 10.0 49.85 10.35 49.6 10.9 L51.65 11.35 52.5 11.75 52.65 11.85 52.75 11.95 52.6 12.15 52.35 12.2 52.3 12.2 50.5 11.95 49.2 11.85 48.95 11.9 47.7 11.9 45.15 12.15 44.3 12.25 44.15 12.5 44.15 12.45 44.0 12.85 Q44.05 13.2 45.2 14.35 L47.55 16.15 47.35 16.05 44.75 14.8 44.7 14.8 Q42.9 13.8 43.0 12.85 43.0 12.45 43.3 11.95 L43.4 11.75 43.4 11.7 Q43.35 11.15 42.6 10.5 L40.85 9.4 40.8 9.35 Q39.65 8.9 39.65 7.65 L39.65 7.6 Q39.6 6.65 39.15 6.15 37.7 4.7 34.5 2.8 L32.15 1.4 31.7 1.15 31.2 1.35 31.15 1.35 Q30.95 1.45 30.9 1.65 L31.25 2.25 31.75 3.25 Q31.8 3.6 31.1 4.55 30.7 5.1 30.65 5.35 30.7 5.85 32.05 7.15 33.8 8.75 33.75 10.45 L33.6 11.65 33.6 11.8 32.9 12.95 32.55 13.15 32.2 13.05 32.0 12.7 32.1 12.4 31.9 12.4 30.45 12.05 29.45 10.9 Q28.9 9.95 28.3 9.9 27.75 9.9 26.9 10.35 L26.5 10.6 Q25.45 11.2 25.4 11.65 25.4 12.15 25.95 13.45 L26.5 15.35 26.25 16.45 26.7 16.4 27.05 16.35 27.85 16.05 Q28.25 15.8 27.95 16.35 L27.95 16.45 27.25 17.2 Q26.8 17.5 25.45 17.6 L25.4 17.6 24.6 17.65 24.55 17.65 Q23.05 17.7 22.6 18.05 L22.5 18.1 21.8 18.45 20.65 19.1 19.8 19.55 Q19.5 19.7 20.15 20.5 20.75 21.25 21.55 21.35 L22.25 21.6 22.25 21.65 21.35 21.85 20.55 21.7 19.4 21.0 18.5 19.95 Q18.15 19.25 18.15 18.35 L18.15 18.3 18.4 16.45 Q18.35 15.85 17.85 15.6 16.85 15.05 16.65 13.5 L15.45 12.1 Q14.25 10.95 13.7 10.9 L13.55 10.9 Q13.05 11.0 12.65 11.45 L12.65 11.5 Q12.15 12.05 12.15 12.7 12.2 13.3 13.45 14.7 14.9 16.35 14.9 18.6 L14.8 19.55 Q15.85 19.9 16.35 20.3 L16.65 20.6 16.8 21.0 17.1 21.7 Q17.35 22.15 16.7 21.6 L15.75 20.9 14.65 20.5 13.75 20.1 13.45 20.15 Q11.0 19.5 10.95 19.15 L11.0 19.15 Q9.7 16.95 8.75 16.8 L7.55 17.05 7.45 17.05 Q6.55 17.1 5.7 16.05 L5.65 16.0 Q5.1 15.3 4.25 15.3 3.45 15.3 2.8 15.75 L2.7 15.8 2.7 15.85 Q2.0 16.25 2.0 16.95 L3.05 17.8 Q4.7 18.65 4.95 19.35 L5.0 19.45 5.25 20.4 5.5 21.2 5.55 21.25 6.15 21.85 6.2 21.9 6.5 23.0 6.15 24.15 5.9 24.95 6.15 25.35 Q6.35 25.6 6.75 25.65 L6.8 25.65 Q6.9 25.35 7.15 25.15 L7.45 25.0 8.2 23.85 8.2 23.95 Q8.45 25.2 7.9 25.8 L7.85 25.8 Q7.7 25.95 7.7 26.2 L7.7 26.3 7.65 26.5 Q7.65 27.65 8.65 28.0 11.15 28.8 12.2 29.65 13.1 30.35 13.4 31.25 L13.4 31.3 13.75 32.7 13.75 32.6 Q14.1 33.4 15.8 33.4 16.95 33.4 18.2 32.3 19.9 30.7 20.25 30.6 L22.4 30.35 23.35 29.85 23.4 29.8 24.75 28.45 24.85 28.6 24.9 28.95 24.5 29.95 Q26.55 31.05 30.65 31.05 31.2 31.0 33.35 32.25 35.2 33.3 36.7 33.3 39.0 33.3 41.55 31.65 43.4 30.4 44.6 28.85 L46.0 27.55 46.05 27.55 47.15 26.75 47.15 26.7 48.5 25.2 47.75 25.15 46.95 25.45 46.5 25.65 46.1 25.7 45.9 25.65 Q46.2 25.1 46.75 24.8 L47.85 24.35 48.95 24.3 49.6 24.45 50.55 24.65 52.1 24.3 52.15 24.3 52.35 24.2 52.4 24.15 54.6 23.1 54.55 23.1 56.45 22.2 Q57.75 21.2 57.75 19.7 L57.65 18.85 57.55 18.45 56.65 17.45 55.55 16.9 55.1 16.75 Q54.3 16.45 54.95 16.4 L55.1 16.35 56.3 16.5 56.45 16.55 Q57.05 16.75 57.7 17.3 L58.35 17.95 58.4 18.0 58.7 18.8 58.75 19.7 Q58.75 21.7 57.0 23.0 L57.0 23.05 54.95 24.05 54.9 24.05 53.5 24.7 54.9 25.1 54.95 25.15 58.95 25.65 Q59.6 25.65 60.05 25.2 L60.5 24.3 60.5 24.25 Q61.3 22.45 60.95 21.0 L61.45 21.5 61.65 22.55 63.3 22.55 64.55 22.55 65.4 22.25 66.3 21.6 66.35 21.55 Q66.95 21.1 67.7 21.15 69.3 21.2 70.1 20.7 70.75 20.15 70.75 19.15 L70.3 17.45 69.8 16.3 M62.8 7.55 Q64.8 7.55 65.65 9.2 L67.35 12.7 68.65 13.45 69.75 14.2 70.4 15.15 71.2 17.05 Q71.75 18.3 71.75 19.15 71.75 20.75 70.65 21.5 69.65 22.2 67.65 22.15 L67.6 22.15 Q67.2 22.1 66.9 22.35 L66.95 22.35 65.9 23.1 65.95 23.1 64.65 23.55 64.6 23.55 63.3 23.55 61.6 23.55 61.5 24.3 61.5 24.35 Q61.5 25.15 60.75 25.9 60.0 26.65 58.95 26.65 L54.7 26.1 52.3 25.3 50.55 25.65 49.6 25.45 47.9 27.4 47.85 27.4 46.6 28.35 Q45.8 28.9 45.4 29.45 44.1 31.1 42.1 32.5 39.3 34.3 36.7 34.3 35.0 34.3 32.85 33.1 31.1 32.1 30.65 32.05 26.05 32.05 23.85 30.75 23.25 31.25 22.55 31.35 L22.45 31.35 20.6 31.5 20.55 31.55 18.85 33.05 Q17.25 34.4 15.8 34.4 13.3 34.4 12.8 33.0 L12.8 32.95 12.4 31.5 12.45 31.55 Q12.2 30.95 11.6 30.45 10.65 29.7 8.35 28.95 6.75 28.4 6.65 26.65 5.85 26.6 5.4 26.0 L5.35 25.95 Q4.85 25.4 4.9 24.95 4.9 24.55 5.25 23.75 L5.5 23.0 5.4 22.55 4.8 21.9 Q4.5 21.6 4.3 20.65 L4.25 20.6 4.0 19.7 2.6 18.7 Q0.9 17.8 1.0 16.95 1.0 15.75 2.15 15.0 2.55 14.7 3.0 14.55 L4.25 14.3 Q5.6 14.3 6.45 15.4 L7.4 16.05 8.65 15.8 8.7 15.8 Q10.15 15.7 11.85 18.65 L11.85 18.7 13.7 19.2 13.85 19.25 13.9 18.6 Q13.9 16.75 12.7 15.35 11.1 13.6 11.15 12.7 11.15 11.7 11.85 10.85 L11.9 10.85 Q12.65 9.9 13.7 9.9 14.45 9.85 15.75 11.0 L16.15 11.4 Q17.65 12.9 17.65 13.35 17.75 14.35 18.35 14.75 19.4 15.3 19.4 16.5 L19.4 16.55 19.15 18.4 19.2 18.85 20.15 18.25 Q20.85 17.8 22.05 17.2 22.6 16.8 24.0 16.7 L24.55 16.65 25.05 16.65 25.5 15.35 25.0 13.8 24.4 11.65 Q24.3 10.7 26.0 9.75 27.4 8.9 28.3 8.9 29.4 8.85 30.3 10.4 L30.85 11.1 31.9 11.4 32.7 11.2 32.75 10.45 Q32.7 9.15 31.35 7.9 L31.35 7.85 Q29.6 6.15 29.65 5.35 29.6 4.9 30.3 3.95 L30.75 3.25 30.5 2.9 30.45 2.85 Q29.85 2.2 29.9 1.65 29.85 0.95 30.65 0.5 L30.75 0.4 31.2 0.25 31.7 0.15 Q32.0 0.1 35.0 1.95 38.3 3.9 39.85 5.45 40.6 6.15 40.65 7.6 40.65 8.2 41.2 8.45 42.25 8.85 43.25 9.75 44.15 10.5 44.35 11.25 L45.3 11.15 47.65 10.9 47.7 10.9 48.55 10.9 Q48.85 9.8 49.9 9.15 L50.9 8.0 Q50.8 8.1 50.25 7.6 L50.3 7.6 Q49.2 6.65 49.25 5.7 49.25 4.65 50.15 4.15 50.85 3.65 51.8 3.65 L52.1 3.65 Q53.4 3.75 54.35 4.55 55.4 5.45 55.4 6.75 L55.15 7.8 Q55.3 8.6 56.95 9.0 L56.95 8.95 57.6 9.15 57.7 9.2 58.1 8.8 Q58.95 8.0 59.95 7.9 L62.8 7.55 M48.1 0.65 L48.45 1.05 48.65 1.65 Q48.65 2.7 47.65 3.05 L46.3 3.15 Q45.65 3.15 45.2 2.7 L45.15 2.65 44.65 1.8 Q44.6 0.85 45.7 0.3 L46.2 0.15 46.15 0.15 46.8 0.0 47.35 0.05 47.5 0.1 48.1 0.65 M47.6 1.55 L47.4 1.35 47.0 1.0 46.95 1.0 46.8 1.0 46.5 1.1 46.45 1.1 46.15 1.2 45.8 1.5 45.65 1.8 45.85 1.95 Q46.05 2.15 46.3 2.15 L47.35 2.1 47.65 1.65 47.6 1.55 M29.75 25.1 Q29.7 25.65 28.55 26.45 L27.8 26.8 27.4 26.8 Q27.55 26.65 28.05 26.25 L28.75 25.45 28.85 24.95 28.85 24.85 28.7 24.45 Q28.5 23.85 27.5 23.35 L27.35 23.3 25.9 22.55 26.05 22.6 27.15 22.9 27.35 22.95 Q29.85 23.8 29.75 24.95 L29.75 25.1 M28.2 1.15 Q28.55 1.6 28.5 2.3 28.55 4.15 26.4 4.15 24.65 4.15 24.65 2.4 24.65 1.55 25.25 0.75 L25.55 0.45 25.7 0.3 26.05 0.2 Q27.6 0.4 28.2 1.15 M27.5 2.15 Q27.3 1.4 26.15 1.25 L26.05 1.35 25.7 2.05 25.65 2.4 Q25.65 3.15 26.4 3.15 27.45 3.15 27.5 2.3 L27.5 2.15 M29.65 18.45 L29.9 18.1 Q30.0 17.85 31.3 17.4 32.5 16.95 33.6 18.35 34.65 19.8 34.65 20.85 L34.75 21.2 36.45 21.55 36.75 21.7 36.1 22.0 Q35.3 22.25 34.5 22.0 33.65 21.75 33.65 20.85 33.65 20.0 33.3 19.3 32.75 18.15 31.8 18.1 L30.65 18.2 30.2 18.3 29.65 18.45 M6.85 6.15 L6.8 6.1 7.7 6.3 8.3 6.5 8.45 6.55 Q9.5 7.25 9.5 8.4 9.55 8.95 8.8 9.55 8.15 10.1 7.6 10.05 L7.55 10.05 5.55 9.8 4.7 10.25 Q3.8 10.9 2.8 10.9 -0.05 10.9 0.0 8.35 0.0 6.45 1.75 5.85 L1.8 5.8 6.85 6.15 M8.2 7.65 L7.9 7.4 6.6 7.1 6.55 7.1 2.0 6.8 1.75 6.95 Q1.0 7.35 1.0 8.35 1.05 9.9 2.8 9.9 3.5 9.9 4.1 9.45 4.95 8.75 5.6 8.8 L5.65 8.8 7.65 9.05 8.2 8.75 8.5 8.4 8.2 7.65" fill="#000000" fill-rule="evenodd" stroke="none"/>
      <path d="M51.35 4.7 L51.8 4.65 Q52.9 4.65 53.7 5.3 54.4 5.9 54.4 6.75 L54.2 7.6 54.15 7.75 Q54.05 9.35 56.75 9.95 L56.8 9.95 57.25 10.1 57.5 10.1 59.0 10.45 60.35 10.8 Q59.95 10.05 58.75 9.55 L58.8 9.5 58.8 9.55 Q59.35 9.0 60.05 8.9 L60.1 8.9 62.8 8.55 Q64.2 8.55 64.75 9.65 L66.45 13.15 66.5 13.15 Q66.65 13.6 68.2 14.35 69.2 14.85 69.45 15.45 L69.8 16.3 Q69.1 18.65 64.45 18.7 L64.2 18.7 Q62.8 18.65 62.8 17.8 62.8 16.9 61.85 16.9 60.95 16.9 60.0 17.9 L59.8 18.1 Q59.25 17.35 58.1 16.85 L56.45 16.55 56.3 16.5 55.1 16.35 54.95 16.4 Q54.3 16.45 55.1 16.75 L55.55 16.9 55.6 17.05 55.8 17.95 Q55.8 19.1 54.7 20.2 53.5 21.4 52.0 21.4 L47.75 21.0 Q45.75 21.0 44.0 21.9 42.5 22.7 42.5 23.25 42.5 23.6 43.05 23.95 43.6 24.35 43.6 24.95 43.6 26.0 42.2 27.0 40.6 28.1 38.3 28.1 34.85 28.1 33.2 26.7 31.75 25.5 29.75 25.1 L29.75 24.95 Q29.85 23.8 27.35 22.95 L27.15 22.9 26.05 22.6 25.9 22.55 27.35 23.3 27.5 23.35 27.7 24.15 Q27.7 25.2 26.9 26.1 26.1 27.0 25.25 27.0 L24.3 26.45 Q23.6 25.9 22.6 25.9 L21.7 26.2 Q19.45 27.7 17.7 28.4 16.75 28.75 16.05 29.25 L15.2 29.6 Q14.3 29.6 13.6 27.45 12.85 25.0 11.2 24.3 L9.75 23.8 Q9.2 23.65 9.2 23.3 L8.85 22.45 8.75 22.3 8.6 22.3 Q7.6 22.3 7.4 20.9 7.2 19.25 6.5 18.9 5.3 18.55 4.45 18.05 2.95 17.2 2.8 15.75 3.45 15.3 4.25 15.3 5.1 15.3 5.65 16.0 L5.7 16.05 Q6.55 17.1 7.45 17.05 L7.55 17.05 8.75 16.8 Q9.7 16.95 11.0 19.15 L10.95 19.15 Q11.0 19.5 13.45 20.15 L13.75 20.1 14.65 20.5 15.75 20.9 16.7 21.6 Q17.35 22.15 17.1 21.7 L16.8 21.0 16.65 20.6 16.35 20.3 15.95 19.35 15.3 17.55 Q15.3 16.8 15.8 16.5 L16.3 16.05 Q16.3 15.75 14.7 14.35 13.1 12.95 13.1 11.95 13.1 11.2 13.55 10.9 L13.7 10.9 Q14.25 10.95 15.45 12.1 L16.65 13.5 Q16.85 15.05 17.85 15.6 18.35 15.85 18.4 16.45 L18.15 18.3 18.15 18.35 Q18.15 19.25 18.5 19.95 L19.4 21.0 20.55 21.7 21.35 21.85 22.25 21.65 22.6 21.4 21.7 20.5 Q21.3 20.0 21.3 19.55 21.3 19.1 21.8 18.45 L22.5 18.1 22.6 18.05 Q23.05 17.7 24.55 17.65 L24.6 17.65 25.4 17.6 25.45 17.6 Q26.8 17.5 27.25 17.2 L27.95 16.45 28.2 16.25 Q29.6 15.45 29.6 15.1 29.6 14.45 28.05 14.0 26.5 13.6 26.5 11.65 L26.9 10.35 Q27.75 9.9 28.3 9.9 28.9 9.95 29.45 10.9 L30.45 12.05 30.3 12.75 Q30.3 13.7 30.8 14.1 31.3 14.5 32.6 14.5 33.8 14.5 34.8 13.6 35.9 12.6 35.9 11.2 35.9 9.8 33.85 7.45 L31.8 5.2 32.3 4.55 32.8 3.85 32.35 2.95 31.9 1.95 32.1 1.45 32.15 1.4 34.5 2.8 Q37.7 4.7 39.15 6.15 39.6 6.65 39.65 7.6 L39.65 7.65 Q39.65 8.9 40.8 9.35 L40.85 9.4 42.6 10.5 Q43.35 11.15 43.4 11.7 L43.4 11.75 43.3 11.95 Q43.0 12.45 43.0 12.85 42.9 13.8 44.7 14.8 L44.75 14.8 47.35 16.05 47.55 16.15 48.45 16.4 Q49.1 16.4 49.1 15.85 49.1 15.05 47.1 13.95 45.35 13.05 45.15 12.15 L47.7 11.9 48.95 11.9 49.2 11.85 50.5 11.95 52.3 12.2 52.35 12.2 52.6 12.15 52.75 11.95 52.65 11.85 51.1 10.25 Q51.1 9.6 52.25 9.15 53.4 8.7 53.4 8.0 53.4 7.35 52.35 6.6 51.3 5.8 51.3 5.1 L51.35 4.7 M57.55 18.45 L57.65 18.85 57.5 18.6 57.55 18.45 M45.8 1.5 L46.15 1.2 46.45 1.1 46.5 1.1 46.8 1.0 46.95 1.0 47.0 1.0 47.4 1.35 47.6 1.55 47.45 1.6 46.15 1.8 45.8 1.5 M28.85 24.95 L28.6 24.9 28.5 24.9 28.85 24.85 28.85 24.95 M25.7 2.05 L26.05 1.35 26.15 1.25 Q27.3 1.4 27.5 2.15 L26.55 2.5 Q25.95 2.5 25.7 2.05 M30.65 18.2 L31.8 18.1 Q32.75 18.15 33.3 19.3 33.65 20.0 33.65 20.85 33.65 21.75 34.5 22.0 35.3 22.25 36.1 22.0 L36.75 21.7 36.45 21.55 34.75 21.2 34.65 20.85 Q34.65 19.8 33.6 18.35 32.5 16.95 31.3 17.4 30.0 17.85 29.9 18.1 L29.65 18.45 Q28.1 19.2 28.1 19.9 28.1 20.75 29.0 21.5 29.95 22.3 31.3 22.3 31.9 22.4 31.9 22.0 L30.85 20.85 Q29.8 19.95 29.8 19.45 L30.25 18.65 30.65 18.2 M8.2 7.65 Q8.1 8.5 6.8 8.5 6.2 8.5 5.7 8.0 L5.1 7.5 4.1 8.1 Q3.3 8.7 2.8 8.7 1.85 8.7 1.75 6.95 L2.0 6.8 6.55 7.1 6.6 7.1 7.9 7.4 8.2 7.65" fill="#ffffff" fill-rule="evenodd" stroke="none"/>
      <path d="M69.8 16.3 L70.3 17.45 70.75 19.15 Q70.75 20.15 70.1 20.7 69.3 21.2 67.7 21.15 66.95 21.1 66.35 21.55 L66.3 21.6 65.4 22.25 64.55 22.55 63.3 22.55 61.65 22.55 61.45 21.5 60.95 21.0 Q61.3 22.45 60.5 24.25 L60.5 24.3 60.05 25.2 Q59.6 25.65 58.95 25.65 L54.95 25.15 54.9 25.1 53.5 24.7 54.9 24.05 54.95 24.05 57.0 23.05 57.0 23.0 Q58.75 21.7 58.75 19.7 L58.7 18.8 58.4 18.0 58.35 17.95 57.7 17.3 Q57.05 16.75 56.45 16.55 L58.1 16.85 Q59.25 17.35 59.8 18.1 L60.0 17.9 Q60.95 16.9 61.85 16.9 62.8 16.9 62.8 17.8 62.8 18.65 64.2 18.7 L64.45 18.7 Q69.1 18.65 69.8 16.3 M55.55 16.9 L56.65 17.45 57.55 18.45 57.5 18.6 57.65 18.85 57.75 19.7 Q57.75 21.2 56.45 22.2 L54.55 23.1 54.6 23.1 52.4 24.15 52.35 24.2 52.15 24.3 52.1 24.3 50.55 24.65 49.6 24.45 48.95 24.3 47.85 24.35 46.75 24.8 Q46.2 25.1 45.9 25.65 L46.1 25.7 46.5 25.65 46.95 25.45 47.75 25.15 48.5 25.2 47.15 26.7 47.15 26.75 46.05 27.55 46.0 27.55 44.6 28.85 Q43.4 30.4 41.55 31.65 39.0 33.3 36.7 33.3 35.2 33.3 33.35 32.25 31.2 31.0 30.65 31.05 26.55 31.05 24.5 29.95 L24.9 28.95 24.85 28.6 24.75 28.45 23.4 29.8 23.35 29.85 22.4 30.35 20.25 30.6 Q19.9 30.7 18.2 32.3 16.95 33.4 15.8 33.4 14.1 33.4 13.75 32.6 L13.75 32.7 13.4 31.3 13.4 31.25 Q13.1 30.35 12.2 29.65 11.15 28.8 8.65 28.0 7.65 27.65 7.65 26.5 L7.7 26.3 7.7 26.2 Q7.7 25.95 7.85 25.8 L7.9 25.8 Q8.45 25.2 8.2 23.95 L8.2 23.85 7.45 25.0 7.15 25.15 Q6.9 25.35 6.8 25.65 L6.75 25.65 Q6.35 25.6 6.15 25.35 L5.9 24.95 6.15 24.15 6.5 23.0 6.2 21.9 6.15 21.85 5.55 21.25 5.5 21.2 5.25 20.4 5.0 19.45 4.95 19.35 Q4.7 18.65 3.05 17.8 L2.0 16.95 Q2.0 16.25 2.7 15.85 L2.7 15.8 2.8 15.75 Q2.95 17.2 4.45 18.05 5.3 18.55 6.5 18.9 7.2 19.25 7.4 20.9 7.6 22.3 8.6 22.3 L8.75 22.3 8.85 22.45 9.2 23.3 Q9.2 23.65 9.75 23.8 L11.2 24.3 Q12.85 25.0 13.6 27.45 14.3 29.6 15.2 29.6 L16.05 29.25 Q16.75 28.75 17.7 28.4 19.45 27.7 21.7 26.2 L22.6 25.9 Q23.6 25.9 24.3 26.45 L25.25 27.0 Q26.1 27.0 26.9 26.1 27.7 25.2 27.7 24.15 L27.5 23.35 Q28.5 23.85 28.7 24.45 L28.85 24.85 28.5 24.9 28.6 24.9 28.85 24.95 28.75 25.45 28.05 26.25 Q27.55 26.65 27.4 26.8 L27.8 26.8 28.55 26.45 Q29.7 25.65 29.75 25.1 31.75 25.5 33.2 26.7 34.85 28.1 38.3 28.1 40.6 28.1 42.2 27.0 43.6 26.0 43.6 24.95 43.6 24.35 43.05 23.95 42.5 23.6 42.5 23.25 42.5 22.7 44.0 21.9 45.75 21.0 47.75 21.0 L52.0 21.4 Q53.5 21.4 54.7 20.2 55.8 19.1 55.8 17.95 L55.6 17.05 55.55 16.9 M16.35 20.3 Q15.85 19.9 14.8 19.55 L14.9 18.6 Q14.9 16.35 13.45 14.7 12.2 13.3 12.15 12.7 12.15 12.05 12.65 11.5 L12.65 11.45 Q13.05 11.0 13.55 10.9 13.1 11.2 13.1 11.95 13.1 12.95 14.7 14.35 16.3 15.75 16.3 16.05 L15.8 16.5 Q15.3 16.8 15.3 17.55 L15.95 19.35 16.35 20.3 M22.25 21.65 L22.25 21.6 21.55 21.35 Q20.75 21.25 20.15 20.5 19.5 19.7 19.8 19.55 L20.65 19.1 21.8 18.45 Q21.3 19.1 21.3 19.55 21.3 20.0 21.7 20.5 L22.6 21.4 22.25 21.65 M27.95 16.45 L27.95 16.35 Q28.25 15.8 27.85 16.05 L27.05 16.35 26.7 16.4 26.25 16.45 26.5 15.35 25.95 13.45 Q25.4 12.15 25.4 11.65 25.45 11.2 26.5 10.6 L26.9 10.35 26.5 11.65 Q26.5 13.6 28.05 14.0 29.6 14.45 29.6 15.1 29.6 15.45 28.2 16.25 L27.95 16.45 M30.45 12.05 L31.9 12.4 32.1 12.4 32.0 12.7 32.2 13.05 32.55 13.15 32.9 12.95 33.6 11.8 33.6 11.65 33.75 10.45 Q33.8 8.75 32.05 7.15 30.7 5.85 30.65 5.35 30.7 5.1 31.1 4.55 31.8 3.6 31.75 3.25 L31.25 2.25 30.9 1.65 Q30.95 1.45 31.15 1.35 L31.2 1.35 31.7 1.15 32.15 1.4 32.1 1.45 31.9 1.95 32.35 2.95 32.8 3.85 32.3 4.55 31.8 5.2 33.85 7.45 Q35.9 9.8 35.9 11.2 35.9 12.6 34.8 13.6 33.8 14.5 32.6 14.5 31.3 14.5 30.8 14.1 30.3 13.7 30.3 12.75 L30.45 12.05 M47.55 16.15 L45.2 14.35 Q44.05 13.2 44.0 12.85 L44.15 12.45 44.15 12.5 44.3 12.25 45.15 12.15 Q45.35 13.05 47.1 13.95 49.1 15.05 49.1 15.85 49.1 16.4 48.45 16.4 L47.55 16.15 M52.65 11.85 L52.5 11.75 51.65 11.35 49.6 10.9 Q49.85 10.35 50.45 10.0 51.95 8.9 51.9 8.0 L50.95 6.85 Q50.3 6.25 50.25 5.7 50.25 5.25 50.65 5.0 L50.7 5.0 51.35 4.7 51.3 5.1 Q51.3 5.8 52.35 6.6 53.4 7.35 53.4 8.0 53.4 8.7 52.25 9.15 51.1 9.6 51.1 10.25 L52.65 11.85 M47.6 1.55 L47.65 1.65 47.35 2.1 46.3 2.15 Q46.05 2.15 45.85 1.95 L45.65 1.8 45.8 1.5 46.15 1.8 47.45 1.6 47.6 1.55 M27.5 2.15 L27.5 2.3 Q27.45 3.15 26.4 3.15 25.65 3.15 25.65 2.4 L25.7 2.05 Q25.95 2.5 26.55 2.5 L27.5 2.15 M29.65 18.45 L30.2 18.3 30.65 18.2 30.25 18.65 29.8 19.45 Q29.8 19.95 30.85 20.85 L31.9 22.0 Q31.9 22.4 31.3 22.3 29.95 22.3 29.0 21.5 28.1 20.75 28.1 19.9 28.1 19.2 29.65 18.45 M1.75 6.95 Q1.85 8.7 2.8 8.7 3.3 8.7 4.1 8.1 L5.1 7.5 5.7 8.0 Q6.2 8.5 6.8 8.5 8.1 8.5 8.2 7.65 L8.5 8.4 8.2 8.75 7.65 9.05 5.65 8.8 5.6 8.8 Q4.95 8.75 4.1 9.45 3.5 9.9 2.8 9.9 1.05 9.9 1.0 8.35 1.0 7.35 1.75 6.95" fill="#c8cfd7" fill-rule="evenodd" stroke="none"/>
    </g>
  </defs>
</svg>
