<?xml version="1.0" encoding="UTF-8" standalone="no"?>
<svg xmlns:ffdec="https://www.free-decompiler.com/flash" xmlns:xlink="http://www.w3.org/1999/xlink" ffdec:objectType="frame" height="186.4px" width="309.8px" xmlns="http://www.w3.org/2000/svg">
  <g transform="matrix(1.0, 0.0, 0.0, 1.0, -256.15, -106.15)">
    <use ffdec:characterId="77" height="55.0" transform="matrix(1.0, 0.0, 0.0, 1.0, 263.0, 216.05)" width="117.4" xlink:href="#shape0"/>
    <use ffdec:characterId="101" height="49.55" transform="matrix(1.0, 0.0, 0.0732, 1.0, 324.1143, 215.6)" width="54.45" xlink:href="#shape1"/>
    <use ffdec:characterId="101" height="49.55" transform="matrix(-0.9539, -0.3085, -0.4302, 0.9084, 329.4441, 211.1607)" width="54.45" xlink:href="#shape1"/>
    <use ffdec:characterId="93" height="54.95" transform="matrix(0.8823, -0.3668, 0.4086, 0.8344, 262.9906, 137.6421)" width="53.25" xlink:href="#shape2"/>
    <use ffdec:characterId="80" height="34.5" transform="matrix(0.9777, -0.1547, 0.161, 0.9778, 349.0428, 114.827)" width="11.55" xlink:href="#shape3"/>
    <use ffdec:characterId="102" height="131.5" transform="matrix(1.0, 0.0, 0.0, 1.0, 292.0, 110.9)" width="82.05" xlink:href="#shape4"/>
    <use ffdec:characterId="82" height="35.6" transform="matrix(0.9777, -0.1547, 0.161, 0.9778, 311.1306, 115.2885)" width="48.7" xlink:href="#shape5"/>
    <use ffdec:characterId="103" height="64.85" transform="matrix(1.0, 0.0, 0.0, 1.0, 349.8, 159.1)" width="57.0" xlink:href="#shape6"/>
    <use ffdec:characterId="94" height="30.35" transform="matrix(0.9916, 0.1295, -0.1295, 0.9916, 335.7303, 167.7146)" width="10.6" xlink:href="#shape7"/>
    <use ffdec:characterId="94" height="30.35" transform="matrix(0.9988, -0.0481, 0.0481, 0.9988, 326.0781, 166.3896)" width="10.6" xlink:href="#shape7"/>
    <use ffdec:characterId="85" height="18.8" transform="matrix(0.9789, -0.204, 0.204, 0.9789, 335.2, 130.2)" width="22.35" xlink:href="#shape8"/>
    <use ffdec:characterId="86" height="8.7" transform="matrix(0.6882, 0.0297, -0.0297, 0.6882, 346.5, 138.5)" width="5.0" xlink:href="#shape9"/>
    <use ffdec:characterId="86" height="8.7" transform="matrix(0.6545, 0.0283, -0.0283, 0.6545, 352.0, 138.2)" width="5.0" xlink:href="#shape9"/>
    <use ffdec:characterId="87" height="23.6" transform="matrix(0.9789, -0.204, 0.204, 0.9789, 335.1463, 144.9989)" width="33.25" xlink:href="#shape10"/>
    <use ffdec:characterId="88" height="105.9" transform="matrix(0.909, -0.2018, 0.3631, 0.8393, 264.7642, 165.9283)" width="130.45" xlink:href="#shape11"/>
    <use ffdec:characterId="89" height="51.1" transform="matrix(0.9754, -0.2203, 0.3665, 0.9424, 370.4791, 217.089)" width="90.45" xlink:href="#shape12"/>
    <use ffdec:characterId="90" height="22.8" transform="matrix(0.9754, -0.2203, 0.3665, 0.9424, 391.5767, 234.0907)" width="8.3" xlink:href="#shape13"/>
    <use ffdec:characterId="90" height="22.8" transform="matrix(0.9754, -0.2203, 0.3665, 0.9424, 406.5767, 226.2407)" width="8.3" xlink:href="#shape13"/>
    <use ffdec:characterId="90" height="22.8" transform="matrix(0.9754, -0.2203, 0.3665, 0.9424, 422.2267, 218.4907)" width="8.3" xlink:href="#shape13"/>
    <use ffdec:characterId="90" height="22.8" transform="matrix(0.9754, -0.2203, 0.3665, 0.9424, 436.8267, 211.2907)" width="8.3" xlink:href="#shape13"/>
    <use ffdec:characterId="95" height="32.75" transform="matrix(0.9539, -0.2194, 0.2703, 0.9464, 389.9148, 232.3768)" width="80.6" xlink:href="#shape14"/>
    <use ffdec:characterId="97" height="7.7" transform="matrix(0.4827, 0.0, 0.0, 0.4827, 452.4587, 288.8087)" width="13.4" xlink:href="#shape15"/>
    <use ffdec:characterId="97" height="7.7" transform="matrix(-0.4085, 0.257, 0.257, 0.4085, 559.8258, 257.3172)" width="13.4" xlink:href="#shape15"/>
    <use ffdec:characterId="98" height="5.4" transform="matrix(0.4827, 0.0, 0.0, 0.4827, 530.0087, 289.9587)" width="8.85" xlink:href="#shape16"/>
    <use ffdec:characterId="98" height="5.4" transform="matrix(0.4821, -0.0231, 0.0231, 0.4821, 458.9474, 256.3705)" width="8.85" xlink:href="#shape16"/>
    <use ffdec:characterId="98" height="5.4" transform="matrix(-0.477, -0.0736, -0.0736, 0.477, 529.9753, 252.1983)" width="8.85" xlink:href="#shape16"/>
    <use ffdec:characterId="99" height="4.2" transform="matrix(0.4827, 0.0, 0.0, 0.4827, 440.3087, 270.6087)" width="16.2" xlink:href="#shape17"/>
    <use ffdec:characterId="99" height="4.2" transform="matrix(-0.4826, -0.0083, -0.0083, 0.4826, 565.9454, 274.8129)" width="16.2" xlink:href="#shape17"/>
    <use ffdec:characterId="100" height="3.2" transform="matrix(0.4827, 0.0, 0.0, 0.4827, 483.4, 251.55)" width="5.8" xlink:href="#shape18"/>
  </g>
  <defs>
    <g id="shape0" transform="matrix(1.0, 0.0, 0.0, 1.0, -263.0, -216.05)">
      <path d="M380.4 252.3 Q380.4 263.05 363.2 268.1 346.0 273.2 321.7 269.55 297.35 265.95 280.15 255.75 263.0 245.6 263.0 234.85 263.0 224.1 280.15 219.0 297.35 213.95 321.7 217.55 346.0 221.2 363.2 231.35 380.4 241.55 380.4 252.3" fill="#000000" fill-opacity="0.2" fill-rule="evenodd" stroke="none"/>
    </g>
    <g id="shape1" transform="matrix(1.0, 0.0, 0.0, 1.0, -4.0, 5.95)">
      <path d="M21.25 -5.95 Q25.5 -6.2 29.45 -2.75 33.2 0.6 35.65 6.35 37.3 10.4 42.1 13.45 46.15 16.0 51.75 17.45 L51.7 17.45 52.65 17.65 52.7 17.6 Q53.85 18.0 54.75 18.65 L56.35 20.25 Q58.05 22.35 58.4 25.35 58.7 28.85 57.8 31.45 56.7 34.5 53.8 35.95 45.4 40.05 34.0 42.1 23.15 44.0 13.1 43.5 L13.05 43.5 10.35 42.95 Q7.6 41.75 6.25 37.95 3.95 31.7 4.0 24.8 4.0 21.05 4.75 17.25 5.2 14.6 6.05 11.95 11.5 -5.65 21.25 -5.95 M53.1 19.05 L52.4 18.8 52.35 18.75 51.45 18.65 51.4 18.65 Q45.65 17.15 41.45 14.45 36.3 11.2 34.45 6.75 32.2 1.25 28.65 -1.85 L28.7 -1.85 Q25.15 -4.9 21.4 -4.8 L21.35 -4.8 Q12.3 -4.25 7.2 12.3 6.35 15.0 5.9 17.65 5.25 21.25 5.25 24.85 5.2 31.5 7.4 37.55 8.55 40.85 10.85 41.85 L13.15 42.3 Q23.15 42.75 33.75 40.9 45.05 38.9 53.25 34.85 55.7 33.6 56.65 31.0 L56.7 31.0 Q57.55 28.65 57.2 25.45 L57.1 24.8 56.75 23.35 Q56.3 22.0 55.45 20.95 L55.4 20.95 Q54.45 19.65 53.1 19.05 M52.3 22.8 L52.2 22.85 Q48.7 24.3 39.95 26.35 L27.9 28.4 11.45 29.05 Q10.6 35.0 10.6 40.0 9.75 36.2 10.75 28.85 8.0 28.15 7.3 22.7 L7.15 18.1 Q7.3 15.25 8.0 12.05 L7.9 14.05 Q7.55 15.9 7.6 18.25 L7.95 22.5 Q8.7 27.65 11.1 28.25 L11.25 28.3 27.8 27.7 39.85 25.55 Q47.3 24.0 53.85 21.95 L52.3 22.8" fill="#000000" fill-rule="evenodd" stroke="none"/>
      <path d="M56.75 23.35 L57.1 24.8 57.2 25.45 Q57.55 28.65 56.7 31.0 L56.65 31.0 Q55.7 33.6 53.25 34.85 45.05 38.9 33.75 40.9 23.15 42.75 13.15 42.3 L10.85 41.85 Q8.55 40.85 7.4 37.55 5.2 31.5 5.25 24.85 5.25 21.25 5.9 17.65 6.35 15.0 7.2 12.3 12.3 -4.25 21.35 -4.8 L21.4 -4.8 Q25.15 -4.9 28.7 -1.85 L28.65 -1.85 Q32.2 1.25 34.45 6.75 36.3 11.2 41.45 14.45 45.65 17.15 51.4 18.65 L51.45 18.65 52.35 18.75 52.4 18.8 53.1 19.05 52.85 19.1 Q31.35 24.65 17.75 21.05 15.2 20.35 10.7 18.45 8.35 17.4 7.6 18.25 7.55 15.9 7.9 14.05 L8.0 12.05 Q7.3 15.25 7.15 18.1 L7.3 22.7 Q8.0 28.15 10.75 28.85 9.75 36.2 10.6 40.0 10.6 35.0 11.45 29.05 L27.9 28.4 39.95 26.35 Q48.7 24.3 52.2 22.85 L52.3 22.8 Q55.8 21.6 56.75 23.35" fill="#f99108" fill-rule="evenodd" stroke="none"/>
      <path d="M53.1 19.05 Q54.45 19.65 55.4 20.95 L55.45 20.95 Q56.3 22.0 56.75 23.35 55.8 21.6 52.3 22.8 L53.85 21.95 Q47.3 24.0 39.85 25.55 L27.8 27.7 11.25 28.3 11.1 28.25 Q8.7 27.65 7.95 22.5 L7.6 18.25 Q8.35 17.4 10.7 18.45 15.2 20.35 17.75 21.05 31.35 24.65 52.85 19.1 L53.1 19.05" fill="#ffb409" fill-rule="evenodd" stroke="none"/>
    </g>
    <g id="shape2" transform="matrix(1.0, 0.0, 0.0, 1.0, -4.6, -3.75)">
      <path d="M56.0 46.2 L56.8 41.6 56.9 40.0 56.95 39.15 56.95 38.8 Q56.8 35.4 53.05 28.85 L50.9 25.35 Q47.55 20.5 43.25 16.25 39.35 12.5 34.75 9.65 30.5 6.9 25.85 5.0 L25.45 4.85 25.35 4.8 Q19.55 6.1 14.05 12.65 9.15 18.4 7.6 24.9 L7.4 25.6 Q6.9 27.5 6.8 29.65 L6.8 30.45 Q8.2 32.65 11.95 32.65 16.05 32.55 17.5 31.45 L18.25 30.8 19.35 29.2 Q18.45 27.9 18.1 26.45 L17.95 25.25 20.05 28.4 20.55 29.35 20.55 29.4 25.4 38.45 25.4 38.5 Q29.85 46.65 39.65 57.2 L39.6 57.2 39.75 57.35 39.9 57.65 40.15 58.1 40.3 58.35 40.3 58.4 40.35 58.6 39.95 58.5 38.2 56.8 38.05 56.7 37.9 56.5 37.15 55.75 34.15 52.55 Q28.8 46.9 24.5 38.95 L19.95 30.35 19.15 31.6 19.4 32.95 19.4 34.75 Q19.3 36.95 19.0 37.75 L18.45 38.0 17.55 38.55 17.4 38.6 17.35 39.25 Q16.8 44.4 14.45 44.7 L11.95 44.55 Q10.5 44.1 9.5 42.6 L9.5 42.55 7.5 38.35 6.5 37.9 4.85 37.15 4.7 36.95 4.6 36.75 Q4.55 35.3 4.9 32.9 L5.25 30.85 5.75 30.25 5.75 29.55 5.8 29.55 Q6.0 26.6 6.85 23.7 L6.9 23.5 Q8.6 17.5 13.25 12.0 18.95 5.2 25.0 3.85 L25.05 3.85 25.35 3.8 25.7 3.8 25.65 4.05 25.75 3.8 26.15 3.95 29.7 5.4 Q34.75 7.85 39.05 11.3 43.45 14.75 47.1 18.95 50.65 23.05 53.45 27.6 L53.9 28.3 Q57.45 34.6 57.8 38.0 L57.85 38.2 57.85 38.65 57.85 38.8 Q57.85 41.7 57.15 45.2 L56.9 46.45 56.65 47.4 55.5 51.75 54.95 53.3 Q54.7 53.85 54.65 53.35 L54.65 52.8 54.7 52.45 54.75 52.2 54.85 51.15 54.95 50.8 54.9 50.8 56.0 46.2 M18.55 33.55 L18.2 31.95 Q16.05 33.5 12.1 33.55 8.5 33.45 6.6 31.4 L6.3 31.55 6.1 31.55 5.9 33.0 5.85 33.3 5.75 34.55 5.6 36.4 6.5 36.85 7.95 37.45 8.0 37.45 8.05 37.5 8.45 37.65 8.45 37.7 Q12.3 39.15 14.1 38.85 L16.05 38.15 16.6 37.85 16.65 37.85 16.7 37.8 17.4 37.45 18.05 37.1 18.1 37.05 Q18.75 35.6 18.65 34.1 L18.55 33.55 M15.1 39.6 L14.25 39.85 Q12.45 40.15 8.9 38.85 L10.35 42.05 Q11.2 43.35 12.5 43.7 L14.3 43.7 Q15.9 43.35 16.3 39.15 L15.1 39.6 M55.9 51.05 L56.0 50.65 55.9 51.0 55.9 51.05" fill="#000000" fill-rule="evenodd" stroke="none"/>
      <path d="M7.6 24.9 Q9.15 18.4 14.05 12.65 19.55 6.1 25.35 4.8 L25.45 4.85 25.85 5.0 Q30.5 6.9 34.75 9.65 39.35 12.5 43.25 16.25 47.55 20.5 50.9 25.35 L53.05 28.85 Q56.8 35.4 56.95 38.8 L56.95 39.15 56.9 40.0 56.8 41.6 56.0 46.2 54.45 47.25 Q51.95 48.75 49.3 48.75 43.75 48.75 40.25 45.25 L32.85 35.4 Q29.15 30.4 24.05 24.85 18.35 18.7 16.95 18.7 L16.6 18.75 16.65 18.8 Q16.75 24.75 11.75 26.95 L10.85 27.15 Q8.8 26.9 7.6 24.9 M13.5 34.5 L14.05 34.35 16.55 34.0 16.95 35.35 Q16.95 36.15 15.6 36.85 14.35 37.5 13.3 37.5 L10.65 37.2 Q9.1 37.2 7.9 36.4 6.75 35.65 6.75 34.8 6.75 34.2 7.15 33.9 7.45 33.65 7.7 33.65 L9.75 34.15 12.95 34.65 13.5 34.5" fill="#7ab536" fill-rule="evenodd" stroke="none"/>
      <path d="M7.6 24.9 Q8.8 26.9 10.85 27.15 L11.75 26.95 Q16.75 24.75 16.65 18.8 L16.6 18.75 16.95 18.7 Q18.35 18.7 24.05 24.85 29.15 30.4 32.85 35.4 L40.25 45.25 Q43.75 48.75 49.3 48.75 51.95 48.75 54.45 47.25 L56.0 46.2 54.9 50.8 54.95 50.8 54.85 51.15 54.75 52.2 54.7 52.45 54.65 52.8 Q53.55 54.1 50.55 55.6 45.95 57.9 42.45 57.9 L39.75 57.35 39.6 57.2 39.65 57.2 Q29.85 46.65 25.4 38.5 L25.4 38.45 20.55 29.4 20.55 29.35 20.05 28.4 17.95 25.25 18.1 26.45 Q18.45 27.9 19.35 29.2 L18.25 30.8 17.5 31.45 Q16.05 32.55 11.95 32.65 8.2 32.65 6.8 30.45 L6.8 29.65 Q6.9 27.5 7.4 25.6 L7.6 24.9 M13.5 34.5 L12.95 34.65 9.75 34.15 7.7 33.65 Q7.45 33.65 7.15 33.9 6.75 34.2 6.75 34.8 6.75 35.65 7.9 36.4 9.1 37.2 10.65 37.2 L13.3 37.5 Q14.35 37.5 15.6 36.85 16.95 36.15 16.95 35.35 L16.55 34.0 14.05 34.35 13.5 34.5 M18.55 33.55 L18.65 34.1 Q18.75 35.6 18.1 37.05 L18.05 37.1 17.4 37.45 16.7 37.8 16.65 37.85 16.6 37.85 16.05 38.15 14.1 38.85 Q12.3 39.15 8.45 37.7 L8.45 37.65 8.05 37.5 8.0 37.45 7.95 37.45 6.5 36.85 5.6 36.4 5.75 34.55 5.85 33.3 5.9 33.0 6.1 31.55 6.3 31.55 6.6 31.4 Q8.5 33.45 12.1 33.55 16.05 33.5 18.2 31.95 L18.55 33.55" fill="#569113" fill-rule="evenodd" stroke="none"/>
      <path d="M15.1 39.6 L16.3 39.15 Q15.9 43.35 14.3 43.7 L12.5 43.7 Q11.2 43.35 10.35 42.05 L8.9 38.85 Q12.45 40.15 14.25 39.85 L15.1 39.6" fill="#b24600" fill-rule="evenodd" stroke="none"/>
    </g>
    <g id="shape3" transform="matrix(1.0, 0.0, 0.0, 1.0, 3.65, 0.55)">
      <path d="M1.25 13.65 Q2.65 11.3 3.7 6.65 4.6 2.5 4.6 0.6 L4.55 -0.05 Q6.9 1.45 6.9 2.4 5.55 8.6 4.9 10.1 L4.25 11.5 Q6.45 14.7 7.1 18.25 8.1 23.3 5.65 27.75 2.8 32.95 -3.15 33.45 L1.7 14.65 1.25 13.65 M1.7 14.65 L1.95 15.2 4.25 11.5 1.95 15.2 1.7 14.65" fill="#0098ff" fill-rule="evenodd" stroke="none"/>
      <path d="M1.25 13.65 Q2.65 11.3 3.7 6.65 4.6 2.5 4.6 0.6 L4.55 -0.05 Q6.9 1.45 6.9 2.4 5.55 8.6 4.9 10.1 L4.25 11.5 Q6.45 14.7 7.1 18.25 8.1 23.3 5.65 27.75 2.8 32.95 -3.15 33.45 L1.7 14.65 1.25 13.65 M4.25 11.5 L1.95 15.2 1.7 14.65" fill="none" stroke="#000000" stroke-linecap="round" stroke-linejoin="round" stroke-width="1.0"/>
    </g>
    <g id="shape4" transform="matrix(1.0, 0.0, 0.0, 1.0, 0.55, 0.0)">
      <path d="M63.45 9.4 L64.25 10.95 64.65 11.8 64.65 11.85 Q66.45 16.0 66.85 20.6 L67.4 29.2 67.55 36.05 67.45 40.85 67.5 40.85 67.65 45.55 Q64.5 48.55 60.25 50.25 60.85 46.45 62.4 41.6 L62.35 41.45 62.25 41.3 Q59.65 40.25 55.25 39.15 52.1 38.25 48.7 38.3 L48.55 38.35 48.45 38.5 48.15 39.8 Q47.6 42.0 46.2 44.65 L44.2 48.55 43.8 49.5 34.3 41.1 Q27.0 34.25 25.0 31.1 L25.8 28.15 28.1 21.2 Q29.55 16.7 31.7 12.7 32.7 10.9 34.0 9.2 L34.45 8.5 Q36.75 5.75 39.75 4.0 43.95 1.4 48.1 1.15 L52.85 1.5 Q59.45 3.0 63.45 9.4" fill="#ff6500" fill-rule="evenodd" stroke="none"/>
      <path d="M19.55 40.8 Q18.9 42.0 19.1 40.3 19.35 38.3 19.9 36.6 19.3 35.65 19.3 35.0 19.25 34.45 19.85 33.7 L20.6 33.0 20.5 32.3 Q20.4 31.3 22.1 30.3 L22.3 30.2 22.3 30.25 Q22.45 30.1 23.7 29.6 L24.0 29.55 24.2 29.65 24.7 27.85 27.0 20.85 Q28.6 16.25 30.7 12.2 31.8 10.3 33.1 8.55 L33.55 7.85 33.55 7.8 Q36.05 4.9 39.2 3.0 43.6 0.3 48.05 0.05 L53.15 0.45 53.1 0.45 Q60.15 2.0 64.4 8.85 L65.25 10.5 65.65 11.35 Q67.5 15.7 67.95 20.45 L68.5 29.15 68.65 36.05 68.6 40.9 68.7 44.45 68.85 44.35 69.1 44.15 69.45 44.2 69.9 44.5 Q70.75 45.0 70.7 45.8 70.7 46.8 70.05 47.9 L70.45 48.35 70.5 48.6 Q70.5 49.85 69.55 51.0 L69.95 53.3 70.15 54.1 Q71.35 59.45 73.25 64.7 L76.25 72.15 Q80.3 80.95 81.25 90.4 82.15 99.0 80.05 107.4 L79.85 107.7 78.7 108.4 Q76.75 113.6 73.25 117.8 L71.4 119.8 71.4 119.85 69.35 121.75 Q63.85 126.45 56.75 128.95 51.0 131.0 44.6 131.45 L41.95 131.5 Q30.75 131.7 22.6 128.1 L18.5 125.65 Q14.75 123.25 9.65 117.85 4.65 112.35 2.1 106.1 0.35 101.8 0.05 97.05 -0.1 94.7 0.1 92.3 L0.45 88.7 -0.5 86.1 -0.55 85.9 Q0.05 77.45 3.95 69.0 L4.0 68.95 11.15 56.85 16.2 47.8 Q17.45 46.0 16.7 48.1 14.5 53.1 12.0 57.35 L4.85 69.4 4.85 69.45 Q1.05 77.65 0.45 85.85 L1.45 88.4 1.55 88.75 Q2.85 92.2 4.75 95.6 L5.1 96.15 5.5 96.8 Q13.45 109.9 27.45 116.0 41.75 122.25 60.0 116.15 L60.6 115.95 62.8 115.15 Q70.7 112.15 77.7 107.85 L79.15 106.95 Q81.15 98.8 80.25 90.5 79.75 85.35 78.3 80.35 77.1 76.4 75.35 72.55 73.85 69.3 72.65 65.95 L71.15 61.6 Q70.0 58.0 69.2 54.3 L69.05 53.8 68.65 51.85 68.05 52.25 65.8 53.45 65.8 53.5 60.6 55.3 59.7 55.5 59.25 55.65 59.0 55.7 58.4 55.85 57.4 55.95 Q57.4 55.75 58.25 55.4 L59.25 54.95 59.75 54.75 60.1 54.65 65.45 52.55 65.4 52.55 67.95 51.1 68.6 50.55 68.7 50.5 68.95 50.15 69.4 49.3 69.5 48.6 68.9 49.1 68.2 49.65 67.85 49.9 Q66.7 50.7 65.5 51.05 L64.35 51.3 65.8 50.35 67.8 48.9 68.85 47.8 68.95 47.65 69.0 47.65 Q69.7 46.7 69.7 45.8 L69.35 45.35 69.3 45.3 68.75 45.85 67.7 46.85 Q64.45 49.75 60.15 51.4 L60.05 51.4 59.6 51.6 Q56.0 52.85 52.0 53.25 L50.85 55.75 50.05 56.9 47.9 59.3 47.55 59.4 47.25 59.25 47.1 58.9 47.1 53.8 47.1 53.35 45.55 52.15 43.7 50.7 43.35 50.4 33.6 41.85 Q27.0 35.65 24.65 32.35 L23.8 31.05 23.65 30.7 22.85 31.1 22.8 31.1 22.35 31.4 Q21.55 31.85 21.5 32.3 L21.7 33.05 Q22.0 33.75 22.85 34.65 L23.3 35.1 23.8 35.55 26.8 38.5 26.9 38.85 Q25.4 38.2 23.5 36.6 L22.65 35.85 22.6 35.85 22.6 35.8 21.9 35.1 21.25 34.3 21.0 33.95 20.65 34.3 20.3 35.0 Q20.3 35.45 20.85 36.2 L20.9 36.3 22.05 37.6 22.95 38.4 25.5 40.6 32.9 46.4 37.75 50.25 Q38.5 50.95 38.3 51.0 L37.55 50.75 32.5 47.05 25.05 41.4 22.6 39.4 21.7 38.6 20.65 37.55 19.55 40.8 M63.45 9.4 Q59.45 3.0 52.85 1.5 L48.1 1.15 Q43.95 1.4 39.75 4.0 36.75 5.75 34.45 8.5 L34.0 9.2 Q32.7 10.9 31.7 12.7 29.55 16.7 28.1 21.2 L25.8 28.15 25.0 31.1 Q27.0 34.25 34.3 41.1 L43.8 49.5 44.2 48.55 46.2 44.65 Q47.6 42.0 48.15 39.8 L48.45 38.5 48.55 38.35 48.7 38.3 Q52.1 38.25 55.25 39.15 59.65 40.25 62.25 41.3 L62.35 41.45 62.4 41.6 Q60.85 46.45 60.25 50.25 64.5 48.55 67.65 45.55 L67.5 40.85 67.45 40.85 67.55 36.05 67.4 29.2 66.85 20.6 Q66.45 16.0 64.65 11.85 L64.65 11.8 64.25 10.95 63.45 9.4 M48.8 39.25 Q48.2 41.7 46.7 44.7 L44.35 49.35 44.15 49.75 44.5 50.05 47.9 52.7 48.05 52.9 48.1 53.1 48.1 54.5 48.1 57.7 49.25 56.3 49.9 55.4 51.15 52.6 51.3 52.35 51.55 52.25 Q55.9 51.9 59.75 50.45 60.35 46.4 61.9 41.65 59.45 40.65 55.1 39.55 52.25 38.8 48.9 38.75 L48.8 39.25 M17.55 81.45 L17.55 81.15 17.65 81.15 17.85 81.2 17.9 81.25 24.5 85.25 32.1 89.7 33.3 90.45 33.5 90.6 33.55 90.7 Q33.55 92.55 33.95 94.3 L34.6 96.85 35.45 98.95 36.5 100.9 37.15 101.95 Q35.7 101.05 34.7 99.25 L33.6 96.6 33.45 96.25 Q32.85 94.25 32.55 91.65 L32.5 91.1 32.35 91.05 24.0 86.1 18.2 82.6 16.9 85.05 Q16.0 86.15 14.85 86.55 L14.45 86.65 13.55 86.75 13.0 86.75 13.45 86.55 13.95 86.3 14.15 86.2 14.65 85.95 Q17.15 84.5 17.55 81.45 M1.2 92.4 Q0.65 99.6 3.1 105.65 5.0 110.2 8.2 114.3 5.55 109.85 4.6 104.7 3.9 100.8 4.5 97.05 2.65 94.0 1.35 90.85 L1.2 92.4 M70.6 119.05 L72.4 117.05 72.35 117.05 Q75.25 113.55 77.05 109.4 70.5 113.3 63.15 116.1 L60.0 117.2 Q58.45 120.3 56.3 122.7 52.85 126.55 47.85 128.75 45.3 129.85 42.45 130.4 49.85 130.2 56.4 127.9 63.3 125.4 68.6 120.9 L70.6 119.05 M59.4 117.4 Q41.3 123.15 27.05 116.9 12.95 110.8 4.85 97.7 4.45 101.1 5.1 104.6 6.3 111.45 10.5 116.95 L10.5 116.9 11.75 118.35 12.5 119.15 14.35 120.95 17.7 123.75 19.3 124.8 Q20.15 125.3 20.8 125.75 L23.7 127.25 25.7 128.1 Q30.75 130.15 35.15 130.25 L37.55 130.35 41.65 130.05 Q44.85 129.5 47.65 128.3 52.6 126.2 55.9 122.4 57.9 120.2 59.4 117.4 M37.0 110.8 Q31.05 109.6 26.15 106.85 21.2 104.1 17.15 100.9 13.05 97.7 9.85 93.7 L17.15 99.95 Q21.05 103.1 26.35 105.9 31.6 108.65 37.0 110.8" fill="#000000" fill-rule="evenodd" stroke="none"/>
      <path d="M48.8 39.25 L48.9 38.75 Q52.25 38.8 55.1 39.55 59.45 40.65 61.9 41.65 60.35 46.4 59.75 50.45 55.9 51.9 51.55 52.25 L51.3 52.35 51.15 52.6 49.9 55.4 49.25 56.3 48.1 57.7 48.1 54.5 48.1 53.1 48.05 52.9 47.9 52.7 44.5 50.05 44.15 49.75 44.35 49.35 46.7 44.7 Q48.2 41.7 48.8 39.25" fill="#ffffff" fill-rule="evenodd" stroke="none"/>
      <path d="M22.35 31.4 L22.8 31.1 22.85 31.1 23.65 30.7 23.8 31.05 24.65 32.35 Q27.0 35.65 33.6 41.85 L43.35 50.4 43.7 50.7 45.55 52.15 47.1 53.35 47.1 53.8 47.1 58.9 47.25 59.25 47.55 59.4 47.9 59.3 50.05 56.9 50.85 55.75 52.0 53.25 Q56.0 52.85 59.6 51.6 L60.05 51.4 60.15 51.4 Q64.45 49.75 67.7 46.85 L68.75 45.85 69.3 45.3 69.35 45.35 69.7 45.8 Q69.7 46.7 69.0 47.65 L68.95 47.65 68.85 47.8 67.8 48.9 65.8 50.35 64.35 51.3 65.5 51.05 Q66.7 50.7 67.85 49.9 L68.2 49.65 68.9 49.1 69.5 48.6 69.4 49.3 Q66.4 51.7 62.1 53.3 55.65 55.75 55.4 56.2 L57.9 56.6 63.7 55.65 69.05 53.8 69.2 54.3 Q70.0 58.0 71.15 61.6 L72.65 65.95 Q70.9 69.4 68.2 71.85 65.65 74.15 62.65 75.3 55.7 77.8 50.35 82.6 49.6 83.85 49.6 85.6 L50.0 89.0 50.4 92.4 Q50.4 96.05 47.8 98.6 L45.75 100.1 Q42.55 99.8 38.6 98.45 L36.6 97.1 Q35.0 95.8 33.95 94.3 33.55 92.55 33.55 90.7 L33.5 90.6 33.3 90.45 32.1 89.7 24.5 85.25 17.9 81.25 17.85 81.2 17.65 81.15 17.55 81.15 17.55 81.45 17.4 81.4 Q17.2 83.2 14.7 85.0 L14.4 85.25 11.6 86.6 Q8.75 86.55 6.6 84.5 L5.4 83.15 Q6.35 77.65 8.5 72.4 10.8 66.7 14.2 62.2 L17.25 58.0 19.2 54.4 Q20.7 51.25 21.55 50.45 22.7 49.4 25.4 49.4 27.95 49.4 33.0 51.3 38.05 53.2 39.2 53.2 L40.8 52.6 Q39.0 49.85 31.1 44.2 27.2 41.45 24.75 38.85 L26.7 39.85 29.3 41.0 29.7 40.8 Q28.4 38.8 24.8 35.3 23.35 33.9 22.7 32.45 L22.35 31.4 M14.85 86.55 Q16.0 86.15 16.9 85.05 L18.2 82.6 24.0 86.1 32.35 91.05 32.5 91.1 32.55 91.65 Q32.85 94.25 33.45 96.25 L33.6 96.6 33.5 96.6 31.75 96.8 26.3 96.0 Q22.7 95.1 21.0 93.9 18.9 92.4 16.75 89.6 15.35 87.8 14.85 86.55" fill="#7ab536" fill-rule="evenodd" stroke="none"/>
      <path d="M16.7 48.1 L19.55 40.8 20.65 37.55 21.7 38.6 22.6 39.4 25.05 41.4 32.5 47.05 37.55 50.75 38.3 51.0 Q38.5 50.95 37.75 50.25 L32.9 46.4 25.5 40.6 22.95 38.4 22.05 37.6 20.9 36.3 20.85 36.2 Q20.3 35.45 20.3 35.0 L20.65 34.3 21.0 33.95 21.25 34.3 21.9 35.1 22.6 35.8 22.6 35.85 22.65 35.85 23.5 36.6 Q25.4 38.2 26.9 38.85 L26.8 38.5 23.8 35.55 23.3 35.1 22.85 34.65 Q22.0 33.75 21.7 33.05 L21.5 32.3 Q21.55 31.85 22.35 31.4 L22.7 32.45 Q23.35 33.9 24.8 35.3 28.4 38.8 29.7 40.8 L29.3 41.0 26.7 39.85 24.75 38.85 Q27.2 41.45 31.1 44.2 39.0 49.85 40.8 52.6 L39.2 53.2 Q38.05 53.2 33.0 51.3 27.95 49.4 25.4 49.4 22.7 49.4 21.55 50.45 20.7 51.25 19.2 54.4 L17.25 58.0 14.2 62.2 Q10.8 66.7 8.5 72.4 6.35 77.65 5.4 83.15 L6.6 84.5 Q8.75 86.55 11.6 86.6 L14.4 85.25 14.7 85.0 Q17.2 83.2 17.4 81.4 L17.55 81.45 Q17.15 84.5 14.65 85.95 L14.15 86.2 13.95 86.3 13.45 86.55 13.0 86.75 13.55 86.75 14.45 86.65 14.85 86.55 Q15.35 87.8 16.75 89.6 18.9 92.4 21.0 93.9 22.7 95.1 26.3 96.0 L31.75 96.8 33.5 96.6 33.6 96.6 34.7 99.25 Q35.7 101.05 37.15 101.95 L36.5 100.9 35.45 98.95 34.6 96.85 33.95 94.3 Q35.0 95.8 36.6 97.1 L38.6 98.45 Q42.55 99.8 45.75 100.1 L47.8 98.6 Q50.4 96.05 50.4 92.4 L50.0 89.0 49.6 85.6 Q49.6 83.85 50.35 82.6 55.7 77.8 62.65 75.3 65.65 74.15 68.2 71.85 70.9 69.4 72.65 65.95 73.85 69.3 75.35 72.55 77.1 76.4 78.3 80.35 79.75 85.35 80.25 90.5 81.15 98.8 79.15 106.95 L77.7 107.85 Q70.7 112.15 62.8 115.15 L60.6 115.95 60.0 116.15 Q41.75 122.25 27.45 116.0 13.45 109.9 5.5 96.8 L5.1 96.15 4.75 95.6 Q2.85 92.2 1.55 88.75 L1.45 88.4 0.45 85.85 Q1.05 77.65 4.85 69.45 L4.85 69.4 12.0 57.35 Q14.5 53.1 16.7 48.1 M69.4 49.3 L68.95 50.15 68.7 50.5 68.6 50.55 67.95 51.1 65.4 52.55 65.45 52.55 60.1 54.65 59.75 54.75 59.25 54.95 58.25 55.4 Q57.4 55.75 57.4 55.95 L58.4 55.85 59.0 55.7 59.25 55.65 59.7 55.5 60.6 55.3 65.8 53.5 65.8 53.45 68.05 52.25 68.65 51.85 69.05 53.8 63.7 55.65 57.9 56.6 55.4 56.2 Q55.65 55.75 62.1 53.3 66.4 51.7 69.4 49.3 M37.0 110.8 Q31.6 108.65 26.35 105.9 21.05 103.1 17.15 99.95 L9.85 93.7 Q13.05 97.7 17.15 100.9 21.2 104.1 26.15 106.85 31.05 109.6 37.0 110.8" fill="#569113" fill-rule="evenodd" stroke="none"/>
      <path d="M59.4 117.4 Q57.9 120.2 55.9 122.4 52.6 126.2 47.65 128.3 44.85 129.5 41.65 130.05 L37.55 130.35 35.15 130.25 Q30.75 130.15 25.7 128.1 L23.7 127.25 20.8 125.75 Q20.15 125.3 19.3 124.8 L17.7 123.75 14.35 120.95 12.5 119.15 11.75 118.35 10.5 116.9 10.5 116.95 Q6.3 111.45 5.1 104.6 4.45 101.1 4.85 97.7 12.95 110.8 27.05 116.9 41.3 123.15 59.4 117.4" fill="#b2b2b2" fill-rule="evenodd" stroke="none"/>
      <path d="M1.2 92.4 L1.35 90.85 Q2.65 94.0 4.5 97.05 3.9 100.8 4.6 104.7 5.55 109.85 8.2 114.3 5.0 110.2 3.1 105.65 0.65 99.6 1.2 92.4 M70.6 119.05 L68.6 120.9 Q63.3 125.4 56.4 127.9 49.85 130.2 42.45 130.4 45.3 129.85 47.85 128.75 52.85 126.55 56.3 122.7 58.45 120.3 60.0 117.2 L63.15 116.1 Q70.5 113.3 77.05 109.4 75.25 113.55 72.35 117.05 L72.4 117.05 70.6 119.05" fill="#b24600" fill-rule="evenodd" stroke="none"/>
    </g>
    <g id="shape5" transform="matrix(1.0, 0.0, 0.0, 1.0, 0.5, 0.5)">
      <path d="M44.15 5.55 L37.9 4.1 29.35 3.0 22.0 2.5 Q18.25 2.5 16.8 4.95 L16.75 5.0 14.75 9.1 Q13.5 8.15 11.95 7.75 L14.75 1.95 Q16.1 0.1 22.15 0.25 28.2 0.35 36.8 2.5 45.4 4.6 46.85 6.35 L44.15 5.55 M0.6 24.05 L0.5 22.4 0.5 22.25 0.5 22.2 Q0.6 18.7 3.35 13.4 4.25 11.5 6.05 9.95 7.2 8.9 8.45 8.45 L8.6 8.45 Q11.8 8.2 14.4 10.15 L15.05 10.75 15.1 11.05 15.65 16.5 Q15.9 20.85 13.05 25.5 10.2 30.1 6.65 29.95 3.1 29.8 1.75 26.85 L0.6 24.05" fill="#00ccff" fill-rule="evenodd" stroke="none"/>
      <path d="M0.6 24.05 L1.75 26.85 Q3.1 29.8 6.65 29.95 10.2 30.1 13.05 25.5 15.9 20.85 15.65 16.5 L15.1 11.05 15.05 10.75 15.2 10.85 15.35 10.85 16.25 10.9 16.1 11.95 16.2 12.3 16.85 13.85 17.05 14.15 18.4 15.1 18.15 15.7 17.45 17.15 17.4 17.35 17.4 17.45 17.85 19.95 Q18.2 21.7 18.0 22.3 L17.95 22.4 17.55 22.25 17.3 22.15 17.0 22.25 16.85 22.5 16.45 23.75 16.45 24.05 16.75 25.7 15.45 26.15 Q15.25 26.2 15.2 26.35 L14.2 27.75 14.15 27.85 14.1 27.9 13.9 28.1 13.8 28.35 13.7 29.7 12.45 29.75 12.25 29.85 11.85 30.15 11.75 30.35 11.3 31.5 10.1 31.2 9.85 31.2 7.8 31.4 Q7.6 31.4 7.5 31.55 L6.85 32.15 5.7 31.1 5.5 31.0 4.45 30.55 Q1.05 28.85 0.6 24.05" fill="#0098ff" fill-rule="evenodd" stroke="none"/>
      <path d="M44.15 5.55 L46.85 6.35 Q45.4 4.6 36.8 2.5 28.2 0.35 22.15 0.25 16.1 0.1 14.75 1.95 L11.95 7.75 Q13.5 8.15 14.75 9.1 L16.75 5.0 16.8 4.95 Q18.25 2.5 22.0 2.5 L29.35 3.0 37.9 4.1 44.15 5.55 M4.45 31.65 Q-0.5 29.6 -0.5 22.4 L-0.5 22.2 Q-0.4 18.5 2.45 12.95 3.45 10.9 5.4 9.2 6.75 7.95 8.2 7.5 L8.3 7.45 10.55 7.5 10.85 7.65 13.9 1.4 13.95 1.3 Q15.3 -0.5 21.35 -0.5 28.35 -0.5 37.5 1.95 46.8 4.3 48.15 6.75 L48.2 7.15 47.95 7.45 47.6 7.5 43.9 6.5 37.7 5.1 29.25 4.0 22.0 3.5 Q18.85 3.5 17.65 5.45 L15.5 9.85 16.8 9.9 17.05 10.0 17.25 10.2 17.3 10.45 17.15 12.0 17.75 13.4 19.3 14.6 19.45 14.85 19.45 15.1 18.9 16.5 18.45 17.45 18.85 19.75 Q19.3 22.0 18.9 22.7 18.6 23.3 18.1 23.35 L17.6 23.35 17.45 23.95 17.75 26.15 17.7 26.45 17.5 26.6 17.2 26.65 15.95 27.05 15.05 28.3 15.0 28.35 14.8 28.65 14.65 30.25 14.5 30.6 14.1 30.7 12.7 30.75 12.65 30.75 12.65 30.8 12.0 32.3 11.75 32.55 11.4 32.6 9.95 32.15 8.0 32.4 7.2 33.15 6.9 33.3 6.55 33.2 5.05 31.9 4.45 31.65 M15.05 10.75 L14.4 10.15 Q11.8 8.2 8.6 8.45 L8.45 8.45 Q7.2 8.9 6.05 9.95 4.25 11.5 3.35 13.4 0.6 18.7 0.5 22.2 L0.5 22.25 0.5 22.4 0.6 24.05 Q1.05 28.85 4.45 30.55 L5.5 31.0 5.7 31.1 6.85 32.15 7.5 31.55 Q7.6 31.4 7.8 31.4 L9.85 31.2 10.1 31.2 11.3 31.5 11.75 30.35 11.85 30.15 12.25 29.85 12.45 29.75 13.7 29.7 13.8 28.35 13.9 28.1 14.1 27.9 14.15 27.85 14.2 27.75 15.2 26.35 Q15.25 26.2 15.45 26.15 L16.75 25.7 16.45 24.05 16.45 23.75 16.85 22.5 17.0 22.25 17.3 22.15 17.55 22.25 17.95 22.4 18.0 22.3 Q18.2 21.7 17.85 19.95 L17.4 17.45 17.4 17.35 17.45 17.15 18.15 15.7 18.4 15.1 17.05 14.15 16.85 13.85 16.2 12.3 16.1 11.95 16.25 10.9 15.35 10.85 15.2 10.85 15.05 10.75" fill="#000000" fill-rule="evenodd" stroke="none"/>
      <path d="M4.45 31.65 L5.05 31.9 6.55 33.2 6.9 33.3 7.2 33.15 8.0 32.4 9.95 32.15 11.4 32.6 11.75 32.55 12.0 32.3 12.65 30.8 12.65 30.75 12.7 30.75 14.1 30.7 14.5 30.6 14.65 30.25 14.8 28.65 15.0 28.35 15.05 28.3 15.95 27.05 17.2 26.65 17.5 26.6 17.7 26.45 17.75 26.15 17.45 23.95 17.6 23.35 18.1 23.35 Q18.6 23.3 18.9 22.7 19.3 22.0 18.85 19.75 L18.45 17.45 18.9 16.5 19.0 17.1 19.3 19.55 19.5 21.1 19.2 23.15 Q18.8 24.2 18.1 24.25 L18.2 24.25 18.3 24.95 18.5 25.8 18.65 26.6 Q18.65 27.0 17.55 27.45 16.4 27.9 16.4 28.35 L16.6 28.8 16.8 29.2 16.3 29.85 15.55 30.45 14.75 32.7 Q13.8 32.7 12.55 33.85 L11.45 34.95 10.35 34.6 Q9.8 34.2 9.5 34.2 L8.95 34.55 8.55 34.9 7.8 35.1 Q6.55 35.0 6.55 34.55 L5.45 33.45 Q4.65 32.5 4.45 31.65" fill="#000000" fill-opacity="0.2" fill-rule="evenodd" stroke="none"/>
    </g>
    <g id="shape6" transform="matrix(1.0, 0.0, 0.0, 1.0, 2.0, 0.5)">
      <path d="M7.95 0.55 Q9.35 0.9 11.8 3.05 15.4 6.15 18.8 11.1 22.9 17.15 26.1 23.35 30.0 30.8 31.15 35.9 L29.8 35.95 29.15 36.05 29.15 36.1 29.25 36.1 30.45 36.5 31.6 37.0 Q34.6 38.5 39.6 42.45 42.8 44.95 45.3 48.05 39.45 49.1 37.25 51.55 35.0 54.0 31.35 53.25 27.65 52.45 17.7 45.45 7.75 38.45 1.25 31.6 L0.1 29.8 -0.4 29.15 Q-6.0 21.15 7.95 0.55 M46.0 50.45 L46.95 50.25 47.5 50.45 Q49.8 51.9 50.75 54.15 48.6 55.15 46.55 56.95 44.95 58.35 44.0 59.6 43.25 59.6 42.2 59.0 41.0 58.3 41.0 57.6 41.0 55.45 43.8 52.5 L46.0 50.45" fill="#7ab536" fill-rule="evenodd" stroke="none"/>
      <path d="M53.55 61.2 L53.45 61.3 Q52.3 63.8 46.9 63.2 L46.7 62.3 Q46.7 59.6 48.7 57.35 50.0 55.85 51.4 55.55 54.85 59.5 53.55 61.2" fill="#ff6500" fill-rule="evenodd" stroke="none"/>
      <path d="M7.95 0.55 L7.9 0.55 7.8 0.5 7.45 0.35 7.3 0.0 7.45 -0.35 7.8 -0.5 8.2 -0.4 Q9.75 0.0 12.45 2.3 16.2 5.45 19.65 10.55 23.8 16.65 27.0 22.9 31.2 30.85 32.25 36.25 35.3 37.75 40.2 41.65 43.8 44.45 46.5 48.05 L47.05 48.75 47.5 49.4 47.7 49.7 Q50.55 51.25 51.65 53.75 L52.0 54.75 Q56.3 59.55 54.4 61.75 53.1 65.0 46.55 64.15 43.2 64.95 38.45 61.3 31.55 59.95 24.5 56.35 17.3 52.7 10.85 45.8 4.4 38.8 2.05 34.6 L-0.35 30.2 -0.65 29.6 Q-1.0 28.8 -0.7 28.95 L-0.4 29.15 0.1 29.8 1.25 31.6 2.95 34.35 Q5.25 38.15 11.6 45.05 17.9 51.9 24.95 55.45 31.65 58.85 38.25 60.2 38.6 57.65 40.2 54.6 42.7 49.85 46.4 49.55 L45.3 48.05 Q42.8 44.95 39.6 42.45 34.6 38.5 31.6 37.0 L30.45 36.5 29.25 36.1 29.15 36.1 29.15 36.05 29.8 35.95 31.15 35.9 Q30.0 30.8 26.1 23.35 22.9 17.15 18.8 11.1 15.4 6.15 11.8 3.05 9.35 0.9 7.95 0.55 M46.0 50.45 L44.85 50.8 Q43.05 51.35 41.05 54.75 39.05 58.15 39.05 60.45 43.05 63.55 45.9 63.3 L45.7 62.3 Q45.7 59.2 47.95 56.7 49.4 55.05 50.95 54.65 L50.75 54.15 Q49.8 51.9 47.5 50.45 L46.95 50.25 46.0 50.45 M53.55 61.2 Q54.85 59.5 51.4 55.55 50.0 55.85 48.7 57.35 46.7 59.6 46.7 62.3 L46.9 63.2 Q52.3 63.8 53.45 61.3 L53.55 61.2" fill="#000000" fill-rule="evenodd" stroke="none"/>
      <path d="M45.3 48.05 L46.4 49.55 Q42.7 49.85 40.2 54.6 38.6 57.65 38.25 60.2 31.65 58.85 24.95 55.45 17.9 51.9 11.6 45.05 5.25 38.15 2.95 34.35 L1.25 31.6 Q7.75 38.45 17.7 45.45 27.65 52.45 31.35 53.25 35.0 54.0 37.25 51.55 39.45 49.1 45.3 48.05 M50.75 54.15 L50.95 54.65 Q49.4 55.05 47.95 56.7 45.7 59.2 45.7 62.3 L45.9 63.3 Q43.05 63.55 39.05 60.45 39.05 58.15 41.05 54.75 43.05 51.35 44.85 50.8 L46.0 50.45 43.8 52.5 Q41.0 55.45 41.0 57.6 41.0 58.3 42.2 59.0 43.25 59.6 44.0 59.6 44.95 58.35 46.55 56.95 48.6 55.15 50.75 54.15" fill="#569113" fill-rule="evenodd" stroke="none"/>
    </g>
    <g id="shape7" transform="matrix(1.0, 0.0, 0.0, 1.0, 1.85, 0.5)">
      <path d="M6.75 1.1 Q7.1 0.55 7.5 0.5 L7.6 0.45 7.65 0.5 7.45 1.05 7.25 1.3 6.75 1.1 M7.0 1.8 L6.65 4.8 5.85 4.5 Q6.05 2.55 6.55 1.55 L7.0 1.8 M6.65 5.4 L6.45 7.95 5.5 8.15 5.7 5.45 5.8 5.05 5.85 5.0 6.65 5.4 M5.45 8.65 L6.4 8.45 6.2 11.15 6.15 11.5 5.25 11.7 5.45 8.7 5.45 8.65 M6.05 12.0 L5.5 14.65 Q5.05 14.4 4.65 14.3 L5.15 12.45 5.25 12.25 Q5.7 12.05 6.05 12.0 M3.6 17.9 L4.3 18.55 4.3 18.6 4.25 18.7 4.25 18.75 3.05 21.45 2.7 21.05 2.3 20.6 2.5 20.15 2.45 20.15 3.45 17.8 3.6 17.9 M4.5 14.8 Q4.95 14.85 5.35 15.2 L4.5 18.0 3.9 17.5 3.65 17.3 4.5 14.8 M2.35 21.4 L2.8 22.0 2.15 23.2 1.75 23.9 1.7 23.8 1.4 23.35 1.25 23.1 2.1 21.1 2.3 21.35 2.35 21.4 M1.5 24.4 L0.95 25.25 0.85 25.15 0.55 24.85 1.0 23.65 1.4 24.25 1.5 24.4 M0.2 25.9 L0.4 26.1 0.45 26.1 0.15 26.8 -0.65 28.65 -0.7 28.6 -0.75 28.55 -0.8 28.5 0.15 25.85 0.2 25.9 M0.5 24.75 L0.55 24.7 0.55 24.8 0.5 24.75" fill="#7ab536" fill-rule="evenodd" stroke="none"/>
      <path d="M6.7 -0.3 L7.5 -0.5 Q8.25 -0.5 8.45 -0.1 L8.7 0.2 8.75 0.45 8.7 0.7 8.7 0.75 Q7.45 3.45 7.5 6.55 7.6 14.75 3.65 22.0 L2.5 24.45 Q0.5 27.45 0.05 28.6 L-0.6 29.85 -1.35 29.35 -1.85 28.8 -1.7 28.35 -0.75 25.85 2.4 18.45 Q4.7 13.1 4.8 7.75 4.85 2.4 6.7 -0.3 M6.75 1.1 L7.25 1.3 7.45 1.05 7.65 0.5 7.6 0.45 7.5 0.5 Q7.1 0.55 6.75 1.1 M0.5 24.75 L0.55 24.8 0.55 24.7 0.5 24.75 M0.2 25.9 L0.15 25.85 -0.8 28.5 -0.75 28.55 -0.7 28.6 -0.65 28.65 0.15 26.8 0.45 26.1 0.4 26.1 0.2 25.9 M1.5 24.4 L1.4 24.25 1.0 23.65 0.55 24.85 0.85 25.15 0.95 25.25 1.5 24.4 M2.35 21.4 L2.3 21.35 2.1 21.1 1.25 23.1 1.4 23.35 1.7 23.8 1.75 23.9 2.15 23.2 2.8 22.0 2.35 21.4 M4.5 14.8 L3.65 17.3 3.9 17.5 4.5 18.0 5.35 15.2 Q4.95 14.85 4.5 14.8 M3.6 17.9 L3.45 17.8 2.45 20.15 2.5 20.15 2.3 20.6 2.7 21.05 3.05 21.45 4.25 18.75 4.25 18.7 4.3 18.6 4.3 18.55 3.6 17.9 M6.05 12.0 Q5.7 12.05 5.25 12.25 L5.15 12.45 4.65 14.3 Q5.05 14.4 5.5 14.65 L6.05 12.0 M5.45 8.65 L5.45 8.7 5.25 11.7 6.15 11.5 6.2 11.15 6.4 8.45 5.45 8.65 M6.65 5.4 L5.85 5.0 5.8 5.05 5.7 5.45 5.5 8.15 6.45 7.95 6.65 5.4 M7.0 1.8 L6.55 1.55 Q6.05 2.55 5.85 4.5 L6.65 4.8 7.0 1.8" fill="#000000" fill-rule="evenodd" stroke="none"/>
    </g>
    <g id="shape8" transform="matrix(1.0, 0.0, 0.0, 1.0, 0.0, 0.0)">
      <path d="M21.35 10.4 Q21.7 7.5 20.95 5.15 L20.6 4.2 19.75 2.25 Q19.3 1.65 18.45 1.5 16.8 1.3 15.5 2.9 L15.25 3.1 14.95 3.05 14.8 2.85 Q14.5 1.05 12.75 0.95 11.65 0.95 10.1 1.55 8.35 2.2 7.15 3.25 L6.3 4.0 Q4.05 6.2 2.55 9.05 0.75 12.4 0.9 14.75 1.0 15.7 1.55 16.2 1.95 16.6 3.05 16.95 L9.55 17.75 15.9 17.8 17.8 17.4 19.35 16.0 Q20.95 13.85 21.35 10.4 M20.35 1.45 L21.45 3.65 21.95 5.2 Q22.55 7.5 22.25 10.25 21.7 14.05 20.0 16.45 L18.7 17.75 17.95 18.15 17.95 18.2 15.75 18.7 14.15 18.8 9.35 18.65 2.65 17.8 Q1.4 17.35 0.9 16.95 0.2 16.35 0.05 15.1 L0.05 15.05 Q-0.3 12.7 1.0 9.85 2.3 6.95 3.95 5.05 5.55 3.1 6.95 2.1 8.35 1.1 10.1 0.5 11.85 -0.1 13.4 0.0 14.9 0.05 15.5 1.75 16.9 0.3 18.8 0.6 19.8 0.75 20.35 1.45" fill="#000000" fill-rule="evenodd" stroke="none"/>
      <path d="M21.35 10.4 Q20.95 13.85 19.35 16.0 L17.8 17.4 15.9 17.8 9.55 17.75 3.05 16.95 Q1.95 16.6 1.55 16.2 1.0 15.7 0.9 14.75 0.75 12.4 2.55 9.05 4.05 6.2 6.3 4.0 L7.15 3.25 Q8.35 2.2 10.1 1.55 11.65 0.95 12.75 0.95 14.5 1.05 14.8 2.85 L14.95 3.05 15.25 3.1 15.5 2.9 Q16.8 1.3 18.45 1.5 19.3 1.65 19.75 2.25 L20.6 4.2 20.95 5.15 Q21.7 7.5 21.35 10.4" fill="#ffffff" fill-rule="evenodd" stroke="none"/>
    </g>
    <g id="shape9" transform="matrix(1.0, 0.0, 0.0, 1.0, 0.0, 0.0)">
      <path d="M4.05 7.5 Q3.3 8.75 2.25 8.7 1.25 8.7 0.6 7.35 -0.05 6.0 0.0 4.15 0.15 2.45 1.0 1.15 1.8 0.0 2.75 0.0 3.8 0.05 4.4 1.3 5.05 2.75 5.0 4.45 4.85 6.3 4.05 7.5" fill="#000000" fill-rule="evenodd" stroke="none"/>
      <path d="M3.15 2.35 L2.55 2.6 2.0 2.35 1.75 1.75 2.0 1.15 Q2.2 0.95 2.55 0.95 L3.15 1.15 3.4 1.75 3.15 2.35" fill="#ffffff" fill-rule="evenodd" stroke="none"/>
    </g>
    <g id="shape10" transform="matrix(1.0, 0.0, 0.0, 1.0, 2.2, 0.0)">
      <path d="M3.25 4.25 Q2.7 5.05 2.45 6.1 L2.35 6.6 2.2 8.5 Q2.35 9.65 2.95 10.9 L2.95 11.1 3.0 11.2 3.0 11.1 3.55 11.95 3.7 12.1 3.85 12.35 4.15 12.7 Q5.7 14.65 7.75 16.05 L8.2 16.35 Q10.9 18.3 14.45 18.9 L14.6 18.95 16.1 19.25 16.85 19.35 Q21.15 19.8 24.9 18.35 L26.15 17.85 28.45 16.05 29.45 14.45 29.75 13.5 29.95 12.55 Q30.1 13.8 29.85 15.0 L29.8 15.4 Q28.65 19.35 23.8 21.05 19.3 22.7 13.95 21.55 L12.8 21.25 Q6.85 19.6 3.4 15.45 0.2 11.6 1.2 7.6 L1.5 6.75 Q2.1 5.35 3.25 4.25" fill="#f99108" fill-rule="evenodd" stroke="none"/>
      <path d="M3.25 4.25 Q2.1 5.35 1.5 6.75 L1.2 7.6 Q0.2 11.6 3.4 15.45 6.85 19.6 12.8 21.25 L13.95 21.55 Q19.3 22.7 23.8 21.05 28.65 19.35 29.8 15.4 L29.85 15.0 Q30.1 13.8 29.95 12.55 29.6 10.05 27.5 7.55 24.1 3.5 18.1 1.85 12.15 0.25 7.1 1.95 4.7 2.85 3.25 4.25 M1.95 4.2 Q3.7 2.05 6.9 0.95 12.2 -0.9 18.4 0.8 24.65 2.45 28.25 6.75 30.9 9.85 31.05 13.05 31.05 14.35 30.7 15.65 29.55 20.15 24.05 22.1 18.9 23.95 12.85 22.4 L12.5 22.3 Q6.3 20.6 2.7 16.3 -0.95 11.85 0.3 7.35 0.7 5.7 1.7 4.5 L1.95 4.2" fill="#000000" fill-rule="evenodd" stroke="none"/>
      <path d="M29.95 12.55 L29.75 13.5 29.45 14.45 28.45 16.05 26.15 17.85 24.9 18.35 Q21.15 19.8 16.85 19.35 L16.1 19.25 14.6 18.95 14.45 18.9 Q10.9 18.3 8.2 16.35 L7.75 16.05 Q5.7 14.65 4.15 12.7 L3.85 12.35 3.7 12.1 3.55 11.95 3.0 11.1 3.0 11.2 2.95 11.1 2.95 10.9 Q2.35 9.65 2.2 8.5 L2.35 6.6 2.45 6.1 Q2.7 5.05 3.25 4.25 4.7 2.85 7.1 1.95 12.15 0.25 18.1 1.85 24.1 3.5 27.5 7.55 29.6 10.05 29.95 12.55" fill="#ffb409" fill-rule="evenodd" stroke="none"/>
      <path d="M1.95 4.2 L1.7 4.5 Q0.7 5.7 0.3 7.35 -0.95 11.85 2.7 16.3 6.3 20.6 12.5 22.3 L12.85 22.4 Q10.8 23.75 7.4 23.6 4.0 23.45 0.9 20.4 -2.2 17.3 -2.2 13.3 -2.2 9.1 0.3 5.9 L1.95 4.2" fill="#000000" fill-opacity="0.29803923" fill-rule="evenodd" stroke="none"/>
      <path d="M3.1 9.6 Q2.4 10.25 2.3 11.5 L2.25 11.6 2.25 11.7 2.2 11.6 2.2 11.4 Q2.1 9.4 3.2 8.7 3.25 8.6 3.35 8.6 L5.1 8.7 Q4.25 8.7 3.65 9.1 3.95 13.3 7.0 16.55 L6.6 16.2 6.55 16.15 Q3.05 13.2 3.1 9.6" fill="#000000" fill-rule="evenodd" stroke="none"/>
    </g>
    <g id="shape11" transform="matrix(1.0, 0.0, 0.0, 1.0, 28.5, 13.85)">
      <path d="M-17.8 -2.05 L-19.7 -3.35 Q-21.4 -4.5 -22.95 -5.05 L5.95 -12.55 Q5.7 -10.15 3.75 -8.65 3.0 -8.05 2.15 -7.6 -2.2 -6.15 -6.65 -5.0 -9.45 -4.15 -12.2 -3.55 L-17.8 -2.05 M6.1 -0.65 L4.7 -1.9 Q6.2 -3.7 7.15 -6.05 8.05 -8.25 7.6 -10.7 L7.5 -11.8 Q9.5 -9.1 9.05 -3.75 L8.1 -2.45 6.1 -0.65 M4.6 -1.85 L4.65 -1.9 4.7 -1.8 4.6 -1.85 M-1.45 0.05 L-1.35 -0.1 Q0.05 -1.55 2.1 -1.75 L3.2 -1.65 3.55 -1.4 4.1 -1.0 6.25 0.85 6.3 0.9 6.35 0.95 7.8 2.2 Q6.15 2.05 4.4 3.45 2.6 4.85 2.95 5.0 0.95 4.1 -0.5 2.35 L-1.25 1.4 Q-1.8 0.5 -1.45 0.05 M-25.3 -4.4 L-24.95 -4.55 -24.9 -4.55 Q-22.85 -4.8 -19.65 -2.45 L-18.7 -1.8 -17.5 -0.95 Q-16.55 -0.25 -15.45 0.2 -10.7 1.8 -5.6 1.1 L-3.0 0.5 -3.25 0.85 -3.3 0.95 -4.65 3.15 -4.8 3.45 Q-5.55 4.5 -9.15 4.65 L-16.25 4.45 -21.05 3.55 -23.4 2.75 Q-23.8 2.4 -23.65 2.1 L-23.45 -0.35 Q-23.55 -2.6 -24.15 -3.4 L-25.3 -4.4" fill="#126bc6" fill-rule="evenodd" stroke="none"/>
      <path d="M8.25 4.1 L8.95 4.75 9.05 4.8 84.7 72.15 Q83.05 72.65 81.9 73.9 L5.05 6.35 Q5.85 4.9 8.25 4.1" fill="#986f1e" fill-rule="evenodd" stroke="none"/>
      <path d="M81.75 75.7 L82.65 74.55 Q83.95 73.25 85.8 72.9 L85.95 72.85 87.45 72.7 87.55 72.8 100.75 84.85 97.15 88.5 90.3 82.95 Q90.3 81.0 89.9 79.4 L89.7 78.65 Q88.9 76.2 87.5 76.3 86.35 76.25 85.3 77.6 L84.8 78.3 81.75 75.7" fill="#393939" fill-rule="evenodd" stroke="none"/>
      <path d="M85.0 80.2 L85.3 79.5 85.6 79.0 Q86.5 77.35 87.5 77.3 88.2 77.4 88.75 78.95 L89.2 81.1 Q88.45 82.15 86.9 82.15 86.15 82.15 85.6 81.6 85.1 81.05 85.0 80.2" fill="#ff6500" fill-rule="evenodd" stroke="none"/>
      <path d="M6.45 -13.75 L6.65 -13.85 6.7 -13.85 6.85 -13.8 7.05 -13.7 7.1 -13.65 Q10.75 -10.8 10.0 -3.3 L10.0 -3.15 Q9.0 -0.35 7.5 0.65 L9.75 2.6 9.8 2.65 9.9 2.95 9.85 4.15 85.85 71.9 87.6 71.7 87.95 71.85 101.8 84.45 101.95 84.65 101.95 84.95 101.8 85.15 95.2 91.9 94.9 92.05 94.55 91.95 89.1 87.05 88.15 87.65 Q87.45 87.8 86.55 87.25 85.0 86.3 84.25 85.6 L84.3 85.6 Q83.3 84.7 83.3 83.85 L83.3 83.8 83.45 81.95 79.85 78.65 79.7 78.4 79.65 78.15 80.0 77.1 4.5 9.9 3.05 10.4 2.75 10.45 2.5 10.3 -2.55 5.2 -5.8 5.95 -15.5 6.35 -21.4 5.55 Q-23.75 5.05 -25.45 4.0 L-26.9 2.95 Q-28.25 1.7 -28.5 -0.3 L-28.4 -1.85 -27.9 -3.35 -27.85 -3.4 -26.7 -4.85 -25.15 -5.5 -25.05 -5.55 -25.0 -5.55 6.45 -13.75 M-17.8 -2.05 L-16.2 -1.1 -15.75 -0.85 5.0 -6.4 5.25 -6.95 Q6.4 -9.75 6.35 -12.7 L5.95 -12.55 -22.95 -5.05 Q-21.4 -4.5 -19.7 -3.35 L-17.8 -2.05 M6.9 -11.55 Q6.7 -8.6 5.55 -6.35 L5.3 -3.8 Q6.2 -4.85 6.85 -6.8 7.45 -8.8 6.9 -11.55 M9.05 -3.75 Q9.5 -9.1 7.5 -11.8 L7.6 -10.7 Q8.05 -8.25 7.15 -6.05 6.2 -3.7 4.7 -1.9 L6.1 -0.65 6.7 -0.1 Q8.1 -0.8 9.0 -3.45 L9.05 -3.75 M4.55 -3.15 L4.7 -5.55 -13.85 -0.3 -11.55 0.25 Q-6.75 0.9 -2.25 -0.65 L-1.75 -0.85 -1.55 -1.0 -0.85 -1.45 Q0.8 -2.45 3.5 -2.5 L3.75 -2.45 4.55 -3.15 M7.8 2.2 L6.35 0.95 6.3 0.9 6.25 0.85 4.1 -1.0 3.55 -1.4 3.2 -1.65 2.1 -1.75 Q0.05 -1.55 -1.35 -0.1 L-1.45 0.05 Q-2.8 1.45 -2.95 3.25 L-2.1 4.2 -1.95 4.35 2.35 8.75 2.55 7.85 2.6 7.8 2.6 7.75 Q3.0 6.3 3.75 5.2 5.15 3.2 7.85 2.65 L7.95 2.65 8.0 2.65 8.25 2.6 7.8 2.2 M4.6 -1.85 L4.7 -1.8 4.65 -1.9 4.6 -1.85 M97.15 88.5 L100.75 84.85 87.55 72.8 87.45 72.7 85.95 72.85 85.8 72.9 Q83.95 73.25 82.65 74.55 L81.75 75.7 81.05 77.15 80.95 77.25 80.7 78.1 83.7 80.8 84.4 79.05 84.8 78.3 85.3 77.6 Q86.35 76.25 87.5 76.3 88.9 76.2 89.7 78.65 L89.9 79.4 Q90.3 81.0 90.3 82.95 L90.3 83.0 Q90.3 84.8 89.65 86.2 L94.85 90.9 97.15 88.5 M81.9 73.9 Q83.05 72.65 84.7 72.15 L9.05 4.8 8.95 4.75 8.25 4.1 7.8 3.7 Q5.65 4.2 4.5 5.9 L3.7 7.6 3.8 7.7 4.95 8.95 80.4 76.15 81.0 75.05 81.9 73.9 M89.2 81.1 L88.75 78.95 Q88.2 77.4 87.5 77.3 86.5 77.35 85.6 79.0 L85.3 79.5 85.0 80.2 84.5 81.85 84.5 81.95 Q84.25 83.05 84.3 83.8 84.35 84.3 84.95 84.85 L87.1 86.4 87.95 86.65 88.55 86.15 88.6 86.0 Q89.3 84.7 89.3 83.0 L89.3 82.1 89.2 81.1 M-25.3 -4.4 L-25.55 -4.3 -25.6 -4.3 -25.7 -4.2 Q-24.0 -3.6 -23.8 -1.65 L-23.75 -0.45 -23.75 -0.35 Q-23.9 0.9 -24.5 2.05 L-24.6 2.2 -24.85 2.6 -25.0 2.85 -24.85 2.5 -24.75 2.1 -24.6 1.75 Q-23.85 -0.5 -24.9 -2.55 -25.5 -3.8 -26.6 -3.5 L-26.55 -3.5 -27.1 -3.05 Q-27.6 -2.35 -27.6 -0.25 -27.65 1.85 -25.05 3.3 -22.5 4.7 -19.8 5.0 L-12.8 5.55 -5.4 4.85 -3.35 4.35 -3.55 4.15 -3.65 4.0 -3.7 3.8 Q-3.65 2.5 -3.15 1.3 L-2.8 0.5 -3.0 0.5 -5.6 1.1 Q-10.7 1.8 -15.45 0.2 -16.55 -0.25 -17.5 -0.95 L-18.7 -1.8 -19.65 -2.45 Q-22.85 -4.8 -24.9 -4.55 L-24.95 -4.55 -25.3 -4.4" fill="#000000" fill-rule="evenodd" stroke="none"/>
      <path d="M81.9 73.9 L81.0 75.05 80.4 76.15 4.95 8.95 3.8 7.7 3.7 7.6 4.5 5.9 Q5.65 4.2 7.8 3.7 L8.25 4.1 Q5.85 4.9 5.05 6.35 L81.9 73.9" fill="#774a12" fill-rule="evenodd" stroke="none"/>
      <path d="M5.95 -12.55 L6.35 -12.7 Q6.4 -9.75 5.25 -6.95 L5.0 -6.4 -15.75 -0.85 -16.2 -1.1 -17.8 -2.05 -12.2 -3.55 Q-9.45 -4.15 -6.65 -5.0 -2.2 -6.15 2.15 -7.6 3.0 -8.05 3.75 -8.65 5.7 -10.15 5.95 -12.55 M6.9 -11.55 Q7.45 -8.8 6.85 -6.8 6.2 -4.85 5.3 -3.8 L5.55 -6.35 Q6.7 -8.6 6.9 -11.55 M9.05 -3.75 L9.0 -3.45 Q8.1 -0.8 6.7 -0.1 L6.1 -0.65 8.1 -2.45 9.05 -3.75 M7.8 2.2 L8.25 2.6 8.0 2.65 7.95 2.65 7.85 2.65 Q5.15 3.2 3.75 5.2 3.0 6.3 2.6 7.75 L2.6 7.8 2.55 7.85 2.35 8.75 -1.95 4.35 -2.1 4.2 -2.95 3.25 Q-2.8 1.45 -1.45 0.05 -1.8 0.5 -1.25 1.4 L-0.5 2.35 Q0.95 4.1 2.95 5.0 2.6 4.85 4.4 3.45 6.15 2.05 7.8 2.2 M-3.0 0.5 L-2.8 0.5 -3.15 1.3 Q-3.65 2.5 -3.7 3.8 L-3.65 4.0 -3.55 4.15 -3.35 4.35 -5.4 4.85 -12.8 5.55 -19.8 5.0 Q-22.5 4.7 -25.05 3.3 -27.65 1.85 -27.6 -0.25 -27.6 -2.35 -27.1 -3.05 L-26.55 -3.5 -26.6 -3.5 Q-25.5 -3.8 -24.9 -2.55 -23.85 -0.5 -24.6 1.75 L-24.75 2.1 -24.85 2.5 -25.0 2.85 -24.85 2.6 -24.6 2.2 -24.5 2.05 Q-23.9 0.9 -23.75 -0.35 L-23.75 -0.45 -23.8 -1.65 Q-24.0 -3.6 -25.7 -4.2 L-25.6 -4.3 -25.55 -4.3 -25.3 -4.4 -24.15 -3.4 Q-23.55 -2.6 -23.45 -0.35 L-23.65 2.1 Q-23.8 2.4 -23.4 2.75 L-21.05 3.55 -16.25 4.45 -9.15 4.65 Q-5.55 4.5 -4.8 3.45 L-4.65 3.15 -3.3 0.95 -3.25 0.85 -3.0 0.5" fill="#084889" fill-rule="evenodd" stroke="none"/>
      <path d="M97.15 88.5 L94.85 90.9 89.65 86.2 Q90.3 84.8 90.3 83.0 L90.3 82.95 97.15 88.5 M84.8 78.3 L84.4 79.05 83.7 80.8 80.7 78.1 80.95 77.25 81.05 77.15 81.75 75.7 84.8 78.3" fill="#2a2a2a" fill-rule="evenodd" stroke="none"/>
      <path d="M89.2 81.1 L89.3 82.1 89.3 83.0 Q89.3 84.7 88.6 86.0 L88.55 86.15 87.95 86.65 87.1 86.4 84.95 84.85 Q84.35 84.3 84.3 83.8 84.25 83.05 84.5 81.95 L84.5 81.85 85.0 80.2 Q85.1 81.05 85.6 81.6 86.15 82.15 86.9 82.15 88.45 82.15 89.2 81.1" fill="#b24600" fill-rule="evenodd" stroke="none"/>
    </g>
    <g id="shape12" transform="matrix(1.0, 0.0, 0.0, 1.0, 0.5, 0.5)">
      <path d="M76.5 1.05 L77.7 0.1 Q78.9 -0.4 79.1 1.95 L78.05 4.9 Q74.15 14.45 76.75 20.8 79.55 27.6 89.45 29.6 L86.95 33.1 Q77.55 30.65 73.95 25.1 68.55 16.7 76.5 1.05" fill="#272727" fill-rule="evenodd" stroke="none"/>
      <path d="M76.5 1.05 Q68.55 16.7 73.95 25.1 77.55 30.65 86.95 33.1 L17.15 50.1 17.75 48.1 81.9 32.9 Q76.65 31.35 72.55 27.55 L71.15 26.2 70.6 26.2 Q67.4 26.2 65.8 24.6 L65.75 24.5 Q66.35 25.8 67.8 27.75 70.35 31.15 72.1 30.8 L72.2 31.1 68.0 30.9 Q65.8 30.05 64.5 29.1 L62.0 26.7 Q59.1 30.2 55.8 30.2 50.7 30.2 49.05 25.9 48.5 28.15 51.0 31.2 53.95 34.75 55.0 35.0 L54.2 35.2 Q52.2 35.2 48.05 32.9 46.55 32.1 45.55 31.2 L45.45 31.3 Q42.55 34.2 38.4 34.2 35.5 34.2 32.95 32.6 L31.6 31.6 Q32.3 33.35 33.3 34.6 34.7 36.35 38.2 39.2 L37.0 39.8 34.8 39.35 Q31.3 37.5 28.5 34.7 L28.0 35.75 Q25.95 38.8 22.3 38.8 19.9 38.8 17.1 37.95 15.6 37.45 14.75 36.95 L15.75 38.85 Q17.75 42.1 20.8 43.4 L20.55 43.95 19.65 44.2 Q18.8 44.2 15.7 42.85 12.55 41.5 11.65 40.75 9.8 41.8 7.2 41.8 L5.5 41.55 Q4.4 40.3 3.85 38.7 1.45 31.85 6.55 17.0 L76.5 1.05 M48.05 26.85 L48.0 27.0 48.1 26.9 48.05 26.85" fill="#313131" fill-rule="evenodd" stroke="none"/>
      <path d="M5.5 41.55 L7.2 41.8 Q9.8 41.8 11.65 40.75 12.55 41.5 15.7 42.85 18.8 44.2 19.65 44.2 L20.55 43.95 20.8 43.4 Q17.75 42.1 15.75 38.85 L14.75 36.95 Q15.6 37.45 17.1 37.95 19.9 38.8 22.3 38.8 25.95 38.8 28.0 35.75 L28.5 34.7 Q31.3 37.5 34.8 39.35 L37.0 39.8 38.2 39.2 Q34.7 36.35 33.3 34.6 32.3 33.35 31.6 31.6 L32.95 32.6 Q35.5 34.2 38.4 34.2 42.55 34.2 45.45 31.3 L45.55 31.2 Q46.55 32.1 48.05 32.9 52.2 35.2 54.2 35.2 L55.0 35.0 Q53.95 34.75 51.0 31.2 48.5 28.15 49.05 25.9 50.7 30.2 55.8 30.2 59.1 30.2 62.0 26.7 L64.5 29.1 Q65.8 30.05 68.0 30.9 L72.2 31.1 72.1 30.8 Q70.35 31.15 67.8 27.75 66.35 25.8 65.75 24.5 L65.8 24.6 Q67.4 26.2 70.6 26.2 L71.15 26.2 72.55 27.55 Q76.65 31.35 81.9 32.9 L17.75 48.1 18.5 45.6 Q9.1 45.85 5.5 41.55 M48.05 26.85 L48.1 26.9 48.0 27.0 48.05 26.85" fill="#5a5a5a" fill-rule="evenodd" stroke="none"/>
      <path d="M17.15 50.1 Q-8.25 49.3 3.95 16.7 5.6 13.8 6.95 15.55 L6.55 17.0 Q1.45 31.85 3.85 38.7 4.4 40.3 5.5 41.55 9.1 45.85 18.5 45.6 L17.75 48.1 17.15 50.1" fill="#262626" fill-rule="evenodd" stroke="none"/>
      <path d="M86.95 33.1 L89.45 29.6 Q79.55 27.6 76.75 20.8 74.15 14.45 78.05 4.9 L79.1 1.95 Q78.9 -0.4 77.7 0.1 L76.5 1.05 Q68.55 16.7 73.95 25.1 77.55 30.65 86.95 33.1 L17.15 50.1 Q-8.25 49.3 3.95 16.7 5.6 13.8 6.95 15.55 L6.55 17.0 76.5 1.05 M17.75 48.1 L17.15 50.1 M6.55 17.0 Q1.45 31.85 3.85 38.7 4.4 40.3 5.5 41.55 9.1 45.85 18.5 45.6 L17.75 48.1" fill="none" stroke="#000000" stroke-linecap="round" stroke-linejoin="round" stroke-width="1.0"/>
    </g>
    <g id="shape13" transform="matrix(1.0, 0.0, 0.0, 1.0, -0.95, 0.0)">
      <path d="M1.5 6.4 L2.05 4.4 1.75 6.8 Q1.1 15.8 6.65 21.25 L7.2 21.8 Q6.7 21.7 5.15 20.65 1.75 16.75 1.4 11.55 1.25 8.95 1.5 6.4" fill="#5a5a5a" fill-rule="evenodd" stroke="none"/>
      <path d="M1.5 6.4 L0.95 8.2 Q1.1 5.95 1.75 3.95 L1.85 3.6 Q2.4 1.8 2.9 1.0 L3.5 0.0 2.75 3.25 Q2.35 5.05 2.35 7.75 2.15 17.55 9.2 22.7 L9.25 22.8 Q6.45 22.85 4.15 20.75 L1.9 18.35 Q1.0 16.95 1.9 17.8 L2.35 18.2 Q3.55 19.55 5.15 20.65 6.7 21.7 7.2 21.8 L6.65 21.25 Q1.1 15.8 1.75 6.8 L2.05 4.4 1.5 6.4" fill="#000000" fill-rule="evenodd" stroke="none"/>
    </g>
    <g id="shape14" transform="matrix(1.0, 0.0, 0.0, 1.0, 0.0, 0.5)">
      <path d="M78.8 10.85 L78.6 11.15 Q78.2 11.7 77.85 11.7 L77.7 11.8 74.15 11.0 73.75 11.3 73.7 11.6 73.8 12.95 73.9 13.4 73.25 14.4 Q72.6 15.25 72.15 15.35 69.45 16.3 68.35 16.3 L66.4 15.95 65.0 15.6 64.75 15.65 64.45 15.8 63.95 16.05 63.45 16.25 62.95 16.35 62.2 16.4 62.1 16.5 61.55 16.45 58.95 15.55 Q56.65 14.6 55.9 14.6 L54.75 14.75 Q53.95 14.75 53.95 16.25 L54.35 18.45 Q54.35 19.45 53.6 20.1 52.8 20.7 51.55 20.7 L49.7 19.95 48.1 19.15 47.9 19.2 47.5 19.4 47.35 19.6 46.75 19.9 44.65 19.2 Q42.85 18.45 42.1 18.45 L41.05 18.5 Q40.6 18.5 40.2 19.1 39.85 19.6 39.85 19.9 L39.9 20.55 40.15 22.1 40.3 22.35 40.0 22.6 38.6 23.5 Q38.55 23.5 37.75 23.85 L36.45 24.15 35.75 24.0 35.25 23.6 35.1 23.35 Q35.1 22.85 34.0 21.9 L32.3 20.7 30.0 20.0 27.65 19.4 27.0 19.45 Q26.7 19.45 26.6 19.7 26.95 20.3 28.1 20.85 L27.65 20.8 27.5 20.8 Q28.1 21.0 29.0 21.55 30.45 22.4 30.5 22.85 L30.25 24.0 29.85 24.55 Q28.55 26.45 26.25 26.6 24.25 26.15 22.4 24.65 L20.9 25.3 19.5 28.2 Q16.5 29.2 14.4 26.7 L11.55 26.55 11.3 24.45 10.35 23.8 Q8.4 24.6 6.3 24.55 5.25 24.65 4.55 23.8 3.75 22.75 3.85 21.2 5.85 20.3 7.55 20.3 L9.05 20.5 9.15 20.5 10.75 20.3 11.1 20.3 11.3 20.3 11.45 20.3 11.6 20.3 11.75 20.3 12.0 20.3 12.35 20.45 Q14.25 22.45 16.85 23.05 L17.55 23.1 Q17.9 21.05 16.2 19.95 14.3 18.7 12.7 16.95 12.3 15.4 12.95 14.0 L13.4 13.1 13.8 12.9 16.2 12.5 17.6 12.9 17.65 12.9 Q18.2 13.3 18.2 14.05 L17.9 14.55 17.85 14.6 17.85 14.65 17.6 14.95 17.5 15.25 17.8 16.3 17.8 16.65 17.8 16.7 17.75 16.85 17.45 17.75 17.45 18.1 17.7 18.35 18.15 18.35 Q18.45 18.25 19.25 18.75 19.95 19.2 20.65 19.45 L21.45 19.75 21.15 19.4 21.25 19.0 21.2 18.8 20.2 17.9 19.75 17.6 19.65 17.45 Q19.65 17.05 20.35 16.2 L20.5 16.05 21.95 16.3 22.25 16.25 22.5 16.0 22.65 15.55 22.85 15.25 Q23.7 14.0 25.15 14.75 L25.55 14.8 26.4 14.95 26.45 14.95 26.95 15.0 28.9 14.6 Q29.2 14.7 29.75 15.55 L29.85 15.7 Q30.75 16.95 31.95 17.0 L32.0 17.0 33.4 17.15 33.65 16.95 34.0 16.5 33.85 16.25 Q33.85 15.75 31.5 14.2 L31.3 13.8 31.25 13.6 31.65 12.5 32.2 12.1 32.55 12.0 32.95 11.9 33.4 11.85 36.3 11.35 37.3 10.75 Q37.95 10.15 38.45 9.0 L38.45 9.05 38.7 8.6 38.85 8.4 38.9 8.1 39.05 7.95 Q39.55 7.25 40.15 7.2 L41.15 7.4 41.25 7.4 44.75 7.05 46.0 7.8 46.85 7.9 47.9 8.05 48.4 7.8 48.7 7.15 46.4 3.45 46.35 2.8 46.35 2.75 47.25 1.8 Q48.55 0.55 49.3 0.5 49.7 0.55 50.2 1.3 L50.7 2.45 50.4 3.85 50.4 3.95 Q50.3 4.15 52.1 5.6 L53.9 7.3 54.15 7.85 54.15 7.95 54.3 8.8 Q54.35 9.3 55.15 9.9 L55.6 10.35 55.95 10.85 56.65 11.55 56.95 11.5 Q57.25 11.5 57.4 10.85 L57.2 10.5 57.0 10.0 56.95 9.75 56.85 9.5 Q56.85 9.05 57.6 8.5 58.3 8.0 58.3 7.5 L58.2 6.9 58.65 6.45 60.8 6.55 61.2 7.05 61.25 7.1 61.65 7.45 61.75 7.55 Q62.8 8.45 64.1 8.5 L65.05 8.2 Q63.65 8.05 63.35 7.55 L63.05 7.15 63.3 7.1 63.85 7.05 Q65.05 6.85 66.0 7.75 L66.3 8.0 Q67.6 9.25 68.45 9.2 69.65 9.2 70.55 8.3 L70.5 8.3 Q71.15 7.7 72.55 7.7 74.5 7.75 77.15 9.55 L77.4 9.7 78.8 10.85" fill="#ffffff" fill-rule="evenodd" stroke="none"/>
      <path d="M28.1 20.85 L30.15 21.25 30.35 21.35 Q31.55 21.85 31.5 22.85 31.5 23.7 30.8 25.2 30.25 26.3 30.15 27.15 L30.9 26.95 30.95 26.9 34.1 26.7 37.7 26.9 Q40.4 26.9 42.25 24.9 44.35 22.5 47.05 22.5 L49.5 22.8 51.5 23.1 Q53.65 23.1 56.55 20.95 59.7 18.6 64.85 18.6 L66.05 18.75 67.3 18.9 Q68.55 18.9 71.15 17.75 73.85 16.55 74.8 15.5 L74.85 15.5 Q75.9 14.1 78.45 13.65 79.6 13.4 79.6 12.05 79.55 11.55 78.8 10.85 L77.4 9.7 77.15 9.55 Q74.5 7.75 72.55 7.7 71.15 7.7 70.5 8.3 L70.55 8.3 Q69.65 9.2 68.45 9.2 67.6 9.25 66.3 8.0 L66.0 7.75 Q65.05 6.85 63.85 7.05 L63.3 7.1 63.05 7.15 63.35 7.55 Q63.65 8.05 65.05 8.2 L64.1 8.5 Q62.8 8.45 61.75 7.55 L61.65 7.45 61.25 7.1 61.2 7.05 60.8 6.55 58.65 6.45 58.2 6.9 58.2 6.95 57.1 8.05 55.65 8.3 55.25 8.35 55.3 8.65 55.75 9.1 55.8 9.15 Q56.45 9.8 56.45 11.15 L55.95 10.85 55.6 10.35 55.15 9.9 Q54.35 9.3 54.3 8.8 L54.15 7.95 54.15 7.85 53.9 7.3 52.1 5.6 Q50.3 4.15 50.4 3.95 L50.4 3.85 50.7 2.45 50.2 1.3 Q49.7 0.55 49.3 0.5 48.55 0.55 47.25 1.8 L46.35 2.75 Q45.95 3.3 45.9 3.75 L46.1 4.4 46.4 5.5 Q46.45 6.6 44.75 7.05 L41.25 7.4 41.15 7.4 40.15 7.2 Q39.55 7.25 39.05 7.95 L38.9 8.1 38.85 8.4 38.7 8.6 38.45 9.05 38.45 9.0 Q37.95 10.15 37.3 10.75 L36.3 11.35 35.65 11.4 35.6 11.4 33.75 11.2 Q32.5 11.25 29.9 12.6 L27.8 13.85 28.75 13.65 28.85 13.6 Q29.6 13.5 30.6 15.0 L31.9 16.55 33.2 16.6 32.0 17.0 31.95 17.0 Q30.75 16.95 29.85 15.7 L29.75 15.55 Q29.2 14.7 28.9 14.6 L26.95 15.0 26.45 14.95 26.4 14.95 25.55 14.8 25.15 14.75 Q23.7 14.0 22.85 15.25 L22.65 15.55 22.5 16.0 22.25 16.25 21.95 16.3 20.5 16.05 19.7 15.9 18.65 15.6 18.8 16.05 18.8 16.2 18.75 17.0 18.75 17.05 18.7 17.1 18.6 17.45 Q19.2 17.65 20.0 18.3 L21.15 19.4 21.45 19.75 20.65 19.45 Q19.95 19.2 19.25 18.75 18.45 18.25 18.15 18.35 L17.7 18.35 17.45 18.1 17.45 17.75 17.75 16.85 17.8 16.7 17.8 16.65 17.8 16.3 17.5 15.25 17.6 14.95 17.85 14.65 17.85 14.6 17.9 14.55 18.2 14.05 Q18.2 13.3 17.65 12.9 L17.6 12.9 16.2 12.5 13.8 12.9 13.4 13.1 12.75 13.55 Q11.6 14.75 11.6 17.5 L11.6 17.55 11.8 19.35 12.95 20.15 13.45 20.6 13.7 21.05 13.6 21.15 12.8 20.65 12.35 20.45 12.0 20.3 11.75 20.3 11.6 20.3 11.45 20.3 11.3 20.3 11.1 20.3 10.75 20.3 9.15 20.5 9.05 20.5 7.55 20.3 Q5.85 20.3 3.85 21.2 L3.5 21.35 Q1.05 22.5 1.0 23.9 L1.2 24.75 1.2 25.05 1.15 25.1 1.05 25.3 0.75 25.4 0.45 25.35 0.1 25.15 0.0 24.0 0.0 23.9 Q-0.05 21.9 3.1 20.45 L4.9 19.75 7.6 19.3 7.7 19.3 9.15 19.5 10.65 19.3 10.75 19.3 10.6 17.6 10.6 17.55 Q10.6 14.25 12.05 12.85 12.7 12.2 13.7 11.85 L15.0 11.6 15.15 11.55 16.2 11.5 Q17.4 11.5 18.2 12.1 19.2 12.8 19.2 14.05 L19.0 14.7 19.9 14.9 21.6 15.25 21.7 15.25 21.7 15.2 21.75 15.15 Q21.75 14.55 22.65 14.1 23.5 13.65 24.75 13.65 L25.75 13.8 26.3 13.9 Q27.05 12.95 29.45 11.7 32.4 10.2 33.8 10.2 L33.85 10.2 35.65 10.4 36.5 10.1 37.55 8.6 38.0 7.85 38.15 7.65 38.25 7.35 38.3 7.35 Q39.15 6.15 40.15 6.2 L41.3 6.4 43.5 6.3 Q45.35 6.1 45.4 5.5 L45.2 4.8 44.9 3.75 Q44.85 2.65 46.55 1.05 L47.45 0.3 Q48.55 -0.55 49.3 -0.5 50.2 -0.55 51.05 0.75 51.75 1.8 51.7 2.5 L51.7 2.6 51.45 3.95 52.7 4.8 52.75 4.85 54.7 6.75 54.75 6.75 55.05 7.35 55.65 7.3 56.6 7.1 57.3 6.45 57.35 6.45 Q57.85 5.55 58.65 5.25 L59.1 5.2 59.35 5.2 Q60.8 5.2 61.85 6.3 L61.95 6.4 62.05 6.5 62.75 6.2 Q64.7 5.6 66.25 6.7 L66.75 7.1 67.0 7.3 Q67.9 8.15 68.45 8.2 69.25 8.2 69.8 7.6 70.65 6.7 72.55 6.7 74.7 6.65 77.7 8.7 L77.95 8.9 78.95 9.65 Q80.65 11.05 80.6 12.05 80.6 14.3 78.6 14.65 76.5 15.0 75.6 16.1 L75.6 16.15 Q74.6 17.35 71.55 18.65 68.65 19.9 67.3 19.9 L65.85 19.75 64.85 19.6 Q60.1 19.6 57.15 21.75 53.95 24.1 51.5 24.1 L49.3 23.8 47.05 23.5 Q44.75 23.5 43.0 25.55 40.8 27.9 37.65 27.9 L34.1 27.7 31.1 27.9 31.15 27.9 29.8 28.25 28.8 29.6 Q27.35 31.15 26.2 31.1 L23.75 30.5 22.05 30.25 Q21.65 30.9 19.15 31.6 L16.2 32.25 16.15 32.25 13.9 31.9 11.6 31.35 Q10.35 31.05 10.4 30.05 10.35 29.8 9.95 29.8 L8.85 29.6 8.55 29.35 8.55 28.95 8.8 28.65 9.15 28.65 9.95 28.8 Q11.35 28.8 11.4 30.0 L11.85 30.4 14.1 30.9 16.15 31.25 18.9 30.65 Q20.85 30.1 21.25 29.65 L24.05 29.55 26.2 30.1 Q26.95 30.05 28.05 28.9 L29.0 27.65 29.1 27.2 Q29.15 26.2 29.9 24.75 L30.25 24.0 30.5 22.85 Q30.45 22.4 29.0 21.55 28.1 21.0 27.5 20.8 L27.65 20.8 28.1 20.85" fill="#000000" fill-rule="evenodd" stroke="none"/>
      <path d="M28.1 20.85 Q26.95 20.3 26.6 19.7 26.7 19.45 27.0 19.45 L27.65 19.4 30.0 20.0 32.3 20.7 34.0 21.9 Q35.1 22.85 35.1 23.35 L35.25 23.6 35.75 24.0 36.45 24.15 37.75 23.85 Q38.55 23.5 38.6 23.5 L40.0 22.6 40.3 22.35 40.15 22.1 39.9 20.55 39.85 19.9 Q39.85 19.6 40.2 19.1 40.6 18.5 41.05 18.5 L42.1 18.45 Q42.85 18.45 44.65 19.2 L46.75 19.9 47.35 19.6 47.5 19.4 47.9 19.2 48.1 19.15 49.7 19.95 51.55 20.7 Q52.8 20.7 53.6 20.1 54.35 19.45 54.35 18.45 L53.95 16.25 Q53.95 14.75 54.75 14.75 L55.9 14.6 Q56.65 14.6 58.95 15.55 L61.55 16.45 62.1 16.5 62.2 16.4 62.95 16.35 63.45 16.25 63.95 16.05 64.45 15.8 64.75 15.65 65.0 15.6 66.4 15.95 68.35 16.3 Q69.45 16.3 72.15 15.35 72.6 15.25 73.25 14.4 L73.9 13.4 73.8 12.95 73.7 11.6 73.75 11.3 74.15 11.0 77.7 11.8 77.85 11.7 Q78.2 11.7 78.6 11.15 L78.8 10.85 Q79.55 11.55 79.6 12.05 79.6 13.4 78.45 13.65 75.9 14.1 74.85 15.5 L74.8 15.5 Q73.85 16.55 71.15 17.75 68.55 18.9 67.3 18.9 L66.05 18.75 64.85 18.6 Q59.7 18.6 56.55 20.95 53.65 23.1 51.5 23.1 L49.5 22.8 47.05 22.5 Q44.35 22.5 42.25 24.9 40.4 26.9 37.7 26.9 L34.1 26.7 30.95 26.9 30.9 26.95 30.15 27.15 Q30.25 26.3 30.8 25.2 31.5 23.7 31.5 22.85 31.55 21.85 30.35 21.35 L30.15 21.25 28.1 20.85 M58.2 6.9 L58.3 7.5 Q58.3 8.0 57.6 8.5 56.85 9.05 56.85 9.5 L56.95 9.75 57.0 10.0 57.2 10.5 57.4 10.85 Q57.25 11.5 56.95 11.5 L56.65 11.55 55.95 10.85 56.45 11.15 Q56.45 9.8 55.8 9.15 L55.75 9.1 55.3 8.65 55.25 8.35 55.65 8.3 57.1 8.05 58.2 6.95 58.2 6.9 M46.35 2.75 L46.35 2.8 46.4 3.45 48.7 7.15 48.4 7.8 47.9 8.05 46.85 7.9 46.0 7.8 44.75 7.05 Q46.45 6.6 46.4 5.5 L46.1 4.4 45.9 3.75 Q45.95 3.3 46.35 2.75 M36.3 11.35 L33.4 11.85 32.95 11.9 32.55 12.0 32.2 12.1 31.65 12.5 31.25 13.6 31.3 13.8 31.5 14.2 Q33.85 15.75 33.85 16.25 L34.0 16.5 33.65 16.95 33.4 17.15 32.0 17.0 33.2 16.6 31.9 16.55 30.6 15.0 Q29.6 13.5 28.85 13.6 L28.75 13.65 27.8 13.85 29.9 12.6 Q32.5 11.25 33.75 11.2 L35.6 11.4 35.65 11.4 36.3 11.35 M20.5 16.05 L20.35 16.2 Q19.65 17.05 19.65 17.45 L19.75 17.6 20.2 17.9 21.2 18.8 21.25 19.0 21.15 19.4 20.0 18.3 Q19.2 17.65 18.6 17.45 L18.7 17.1 18.75 17.05 18.75 17.0 18.8 16.2 18.8 16.05 18.65 15.6 19.7 15.9 20.5 16.05 M13.4 13.1 L12.95 14.0 Q12.3 15.4 12.7 16.95 14.3 18.7 16.2 19.95 17.9 21.05 17.55 23.1 L16.85 23.05 Q14.25 22.45 12.35 20.45 L12.8 20.65 13.6 21.15 13.7 21.05 13.45 20.6 12.95 20.15 11.8 19.35 11.6 17.55 11.6 17.5 Q11.6 14.75 12.75 13.55 L13.4 13.1 M3.85 21.2 Q3.75 22.75 4.55 23.8 5.25 24.65 6.3 24.55 8.4 24.6 10.35 23.8 L11.3 24.45 11.55 26.55 14.4 26.7 Q16.5 29.2 19.5 28.2 L20.9 25.3 22.4 24.65 Q24.25 26.15 26.25 26.6 28.55 26.45 29.85 24.55 L30.25 24.0 29.9 24.75 Q29.15 26.2 29.1 27.2 L29.0 27.65 28.05 28.9 Q26.95 30.05 26.2 30.1 L24.05 29.55 21.25 29.65 Q20.85 30.1 18.9 30.65 L16.15 31.25 14.1 30.9 11.85 30.4 11.4 30.0 Q11.35 28.8 9.95 28.8 L9.15 28.65 9.65 26.35 8.25 26.4 Q4.05 26.4 1.15 25.1 L1.2 25.05 1.2 24.75 1.0 23.9 Q1.05 22.5 3.5 21.35 L3.85 21.2" fill="#c8cfd7" fill-rule="evenodd" stroke="none"/>
      <path d="M11.3 20.3 L11.1 20.3" fill="none" stroke="#00ff00" stroke-linecap="round" stroke-linejoin="round" stroke-width="0.05"/>
    </g>
    <g id="shape15" transform="matrix(1.0, 0.0, 0.0, 1.0, 0.5, 0.5)">
      <path d="M0.8 4.4 Q1.6 3.05 4.7 2.0 8.45 0.65 11.15 0.25 10.3 1.35 7.1 3.0 3.1 5.0 1.9 5.0 1.25 5.0 0.8 4.4" fill="#ffffff" fill-rule="evenodd" stroke="none"/>
      <path d="M11.25 -0.5 L12.1 -0.4 Q13.05 -0.05 12.9 0.5 12.9 1.2 12.4 1.6 L10.75 2.75 8.45 4.4 8.5 4.4 Q3.9 7.25 2.0 7.2 L0.55 6.75 Q-0.55 6.1 -0.5 5.3 -0.55 4.3 0.3 3.45 1.65 2.05 5.25 0.95 8.15 -0.05 11.15 -0.5 L11.25 -0.5 M0.8 4.4 L0.5 5.3 1.05 5.9 2.0 6.2 Q3.7 6.15 7.95 3.55 L11.05 1.55 Q12.4 0.75 12.1 0.5 L11.55 0.2 11.15 0.25 Q8.45 0.65 4.7 2.0 1.6 3.05 0.8 4.4" fill="#000000" fill-rule="evenodd" stroke="none"/>
      <path d="M11.15 0.25 L11.55 0.2 12.1 0.5 Q12.4 0.75 11.05 1.55 L7.95 3.55 Q3.7 6.15 2.0 6.2 L1.05 5.9 0.5 5.3 0.8 4.4 Q1.25 5.0 1.9 5.0 3.1 5.0 7.1 3.0 10.3 1.35 11.15 0.25" fill="#c8cfd7" fill-rule="evenodd" stroke="none"/>
    </g>
    <g id="shape16" transform="matrix(1.0, 0.0, 0.0, 1.0, 0.5, 0.5)">
      <path d="M1.05 0.5 Q2.75 0.2 5.05 1.7 L5.8 2.2 6.65 2.9 Q5.4 2.9 3.2 1.8 L1.05 0.5" fill="#ffffff" fill-rule="evenodd" stroke="none"/>
      <path d="M0.2 -0.15 L0.6 -0.45 0.8 -0.5 Q3.1 -0.45 5.8 1.2 L5.85 1.2 7.4 2.35 Q8.6 3.5 8.3 4.35 L8.2 4.55 8.05 4.65 6.9 4.9 Q5.9 4.95 3.25 3.6 0.6 2.3 -0.35 1.35 L-0.5 1.1 -0.45 0.8 0.2 -0.15 M6.65 2.9 L5.8 2.2 5.05 1.7 Q2.75 0.2 1.05 0.5 L0.95 0.5 0.6 0.9 3.7 2.7 Q6.0 3.85 6.9 3.9 L7.3 3.85 6.65 2.9" fill="#000000" fill-rule="evenodd" stroke="none"/>
      <path d="M6.65 2.9 L7.3 3.85 6.9 3.9 Q6.0 3.85 3.7 2.7 L0.6 0.9 0.95 0.5 1.05 0.5 3.2 1.8 Q5.4 2.9 6.65 2.9" fill="#c8cfd7" fill-rule="evenodd" stroke="none"/>
    </g>
    <g id="shape17" transform="matrix(1.0, 0.0, 0.0, 1.0, 0.5, 0.5)">
      <path d="M0.55 0.75 L0.75 0.4 2.5 0.25 7.4 0.5 12.25 0.7 13.35 0.8 5.3 1.5 1.4 1.2 Q0.9 1.05 0.55 0.75" fill="#ffffff" fill-rule="evenodd" stroke="none"/>
      <path d="M3.3 -0.5 L8.5 -0.2 13.0 0.05 13.55 0.1 14.05 0.1 14.55 0.15 14.65 0.2 Q15.45 0.6 15.7 1.7 L15.65 2.05 15.4 2.25 12.6 3.1 8.15 3.4 3.8 3.7 1.25 3.3 Q-0.55 2.6 -0.5 1.1 -0.5 0.3 0.0 -0.1 0.35 -0.4 0.95 -0.5 L1.0 -0.5 3.3 -0.5 M0.55 0.75 L0.5 1.1 Q0.55 1.9 1.6 2.35 L3.8 2.7 8.05 2.4 12.6 2.1 Q13.3 2.1 14.6 1.55 L14.2 1.05 13.8 0.85 13.35 0.8 12.25 0.7 7.4 0.5 2.5 0.25 0.75 0.4 0.55 0.75" fill="#000000" fill-rule="evenodd" stroke="none"/>
      <path d="M13.35 0.8 L13.8 0.85 14.2 1.05 14.6 1.55 Q13.3 2.1 12.6 2.1 L8.05 2.4 3.8 2.7 1.6 2.35 Q0.55 1.9 0.5 1.1 L0.55 0.75 Q0.9 1.05 1.4 1.2 L5.3 1.5 13.35 0.8" fill="#c8cfd7" fill-rule="evenodd" stroke="none"/>
    </g>
    <g id="shape18" transform="matrix(1.0, 0.0, 0.0, 1.0, 0.0, 0.0)">
      <path d="M1.7 1.25 L1.35 1.35 2.15 1.85 2.1 1.85 3.3 2.2 Q4.7 2.2 4.8 1.5 L4.3 1.3 4.35 1.3 4.25 1.25 3.8 1.15 3.75 1.15 3.45 1.0 3.05 1.05 3.0 1.05 1.7 1.25 M3.8 0.05 L4.1 0.2 4.6 0.35 4.65 0.35 4.75 0.4 Q5.9 0.8 5.8 1.5 5.9 3.2 3.3 3.2 L1.7 2.75 Q0.3 2.1 0.05 1.3 L0.05 0.9 Q0.1 0.7 0.3 0.65 L0.85 0.45 2.85 0.05 3.55 0.0 3.8 0.05" fill="#000000" fill-rule="evenodd" stroke="none"/>
      <path d="M4.25 1.25 L4.35 1.3 4.3 1.3 4.8 1.5 Q4.7 2.2 3.3 2.2 L2.1 1.85 2.15 1.85 1.35 1.35 1.7 1.25 Q2.45 1.8 3.15 1.8 3.75 1.8 4.25 1.25" fill="#c8cfd7" fill-rule="evenodd" stroke="none"/>
      <path d="M4.25 1.25 Q3.75 1.8 3.15 1.8 2.45 1.8 1.7 1.25 L3.0 1.05 3.05 1.05 3.45 1.0 3.75 1.15 3.8 1.15 4.25 1.25" fill="#ffffff" fill-rule="evenodd" stroke="none"/>
    </g>
  </defs>
</svg>
