<?xml version="1.0" encoding="UTF-8" standalone="no"?>
<svg xmlns:ffdec="https://www.free-decompiler.com/flash" xmlns:xlink="http://www.w3.org/1999/xlink" ffdec:objectType="frame" height="240.0px" width="240.0px" xmlns="http://www.w3.org/2000/svg">
  <g transform="matrix(10.0, 0.0, 0.0, 10.0, 120.0, 120.0)">
    <use ffdec:characterId="47" height="24.0" transform="matrix(1.0, 0.0, 0.0, 1.0, -12.0, -12.0)" width="24.0" xlink:href="#shape0"/>
  </g>
  <defs>
    <g id="shape0" transform="matrix(1.0, 0.0, 0.0, 1.0, 12.0, 12.0)">
      <path d="M11.0 -10.0 L10.0 -10.0 10.0 -9.0 9.0 -9.0 9.0 -8.0 8.0 -8.0 8.0 -7.0 7.0 -7.0 7.0 -6.0 6.0 -6.0 -6.0 -6.0 -7.0 -6.0 -7.0 -7.0 -8.0 -7.0 -8.0 -8.0 -9.0 -8.0 -9.0 -9.0 -10.0 -9.0 -10.0 -10.0 -11.0 -10.0 -11.0 -11.0 11.0 -11.0 11.0 -10.0" fill="#e1f0ff" fill-rule="evenodd" stroke="none"/>
      <path d="M6.0 -6.0 L7.0 -6.0 7.0 -7.0 8.0 -7.0 8.0 -8.0 9.0 -8.0 9.0 -9.0 10.0 -9.0 10.0 -10.0 11.0 -10.0 11.0 10.0 10.0 10.0 10.0 9.0 9.0 9.0 9.0 8.0 8.0 8.0 8.0 7.0 7.0 7.0 7.0 6.0 6.0 6.0 6.0 -6.0 M-11.0 -10.0 L-10.0 -10.0 -10.0 -9.0 -9.0 -9.0 -9.0 -8.0 -8.0 -8.0 -8.0 -7.0 -7.0 -7.0 -7.0 -6.0 -6.0 -6.0 -6.0 6.0 -7.0 6.0 -7.0 7.0 -8.0 7.0 -8.0 8.0 -9.0 8.0 -9.0 9.0 -10.0 9.0 -10.0 10.0 -11.0 10.0 -11.0 -10.0" fill="#48a4ff" fill-rule="evenodd" stroke="none"/>
      <path d="M11.0 -10.0 L11.0 -11.0 -11.0 -11.0 -11.0 -10.0 -11.0 10.0 -10.0 10.0 -10.0 9.0 -9.0 9.0 -9.0 8.0 -8.0 8.0 -8.0 7.0 -7.0 7.0 -7.0 6.0 -6.0 6.0 6.0 6.0 7.0 6.0 7.0 7.0 8.0 7.0 8.0 8.0 9.0 8.0 9.0 9.0 10.0 9.0 10.0 10.0 11.0 10.0 11.0 -10.0 M12.0 12.0 L-12.0 12.0 -12.0 -12.0 12.0 -12.0 12.0 12.0" fill="#0066cc" fill-rule="evenodd" stroke="none"/>
      <path d="M-6.0 -6.0 L6.0 -6.0 6.0 6.0 -6.0 6.0 -6.0 -6.0" fill="#bfdfff" fill-rule="evenodd" stroke="none"/>
    </g>
  </defs>
</svg>
