<?xml version="1.0" encoding="UTF-8" standalone="no"?>
<svg xmlns:ffdec="https://www.free-decompiler.com/flash" xmlns:xlink="http://www.w3.org/1999/xlink" ffdec:objectType="shape" height="489.8px" width="777.95px" xmlns="http://www.w3.org/2000/svg">
  <g transform="matrix(1.0, 0.0, 0.0, 1.0, 0.0, 0.0)">
    <path d="M728.75 0.0 L777.95 0.0 777.95 3.8 Q770.7 21.05 764.2 38.55 758.05 55.1 753.95 72.3 L751.2 55.1 Q748.1 35.3 738.45 17.5 734.8 10.3 730.8 3.45 L728.75 0.0 M763.25 489.8 L739.75 489.8 713.1 476.2 706.85 472.6 720.25 474.4 Q725.85 474.2 730.85 471.7 742.75 465.75 751.0 446.7 L763.25 489.8 M34.4 489.8 L14.15 489.8 25.35 450.85 29.05 454.8 31.45 456.85 Q46.6 468.85 65.75 472.35 L34.4 489.8 M0.0 5.1 L0.0 0.0 52.05 0.0 51.9 1.45 52.55 0.0 59.9 0.0 Q57.2 1.65 54.7 3.9 52.3 6.05 50.1 8.75 L44.3 16.25 Q37.9 24.7 34.15 31.25 25.75 45.55 20.95 62.7 L19.5 57.5 Q17.5 50.65 13.3 39.5 L0.0 5.1" fill="#191818" fill-rule="evenodd" stroke="none"/>
    <path d="M52.05 0.0 L52.55 0.0 51.9 1.45 52.05 0.0 M654.85 30.05 L662.0 68.35 Q673.75 131.25 676.1 155.0 678.6 179.7 684.25 229.2 688.6 272.55 688.6 303.35 688.6 320.05 687.1 333.15 685.6 346.25 685.6 373.1 L685.35 408.35 Q684.85 415.75 678.1 443.6 L678.15 443.75 678.1 444.85 Q678.1 450.6 681.1 453.8 L674.15 452.55 677.85 396.75 Q678.4 384.55 678.45 360.55 L678.3 325.0 Q677.8 240.9 669.85 163.25 663.55 102.0 652.05 38.05 L651.0 32.35 654.85 30.05 M630.55 401.3 L628.35 434.05 Q624.35 443.25 614.05 443.25 L163.65 443.25 Q153.3 443.25 149.3 434.05 L148.35 415.8 Q145.8 366.5 144.6 317.95 141.25 184.05 147.85 55.7 148.5 42.4 149.3 29.2 153.3 18.95 163.65 18.95 L282.25 18.95 467.55 18.95 614.05 18.95 Q624.35 18.95 626.35 30.2 641.3 223.25 630.55 401.3 M120.8 26.05 L123.35 27.85 Q110.45 97.1 103.65 163.25 95.7 240.9 95.2 325.0 L95.05 360.55 Q95.1 384.55 95.65 396.75 96.15 407.75 97.5 426.7 L97.85 431.8 96.05 420.0 Q94.05 407.4 94.0 402.85 92.0 373.5 92.0 371.0 L94.0 333.5 Q94.0 320.65 90.4 291.0 86.75 261.35 86.75 238.75 86.75 230.05 90.8 185.8 94.9 141.0 96.75 130.75 97.25 128.05 103.7 103.85 108.1 87.45 107.5 76.75 106.85 64.45 113.8 47.95 117.65 38.75 118.7 35.55 120.3 30.55 120.8 26.05 M97.9 440.7 L98.0 434.15 98.5 440.75 97.9 440.7 M70.0 469.95 L70.9 468.15 72.15 468.75 70.0 469.95 M702.4 470.0 L703.8 470.0 703.45 470.6 703.95 470.95 702.4 470.0" fill="#333333" fill-rule="evenodd" stroke="none"/>
    <path d="M753.95 72.3 Q758.05 55.1 764.2 38.55 770.7 21.05 777.95 3.8 L777.95 14.65 774.8 21.85 762.9 56.25 Q757.4 73.5 753.4 91.1 L745.65 126.0 744.75 130.35 Q742.0 143.65 740.4 157.0 738.8 169.45 737.3 185.2 L734.55 217.8 Q732.65 245.1 732.65 265.1 732.65 331.35 747.0 406.25 L748.6 413.75 Q753.05 432.75 758.45 451.7 L769.3 489.8 763.25 489.8 751.0 446.7 742.55 409.95 735.4 369.4 733.8 356.95 Q727.85 310.6 728.55 263.8 729.2 217.1 734.1 170.75 736.0 151.45 739.55 132.45 L740.3 128.45 753.95 72.3 M777.95 67.35 L777.95 105.85 Q773.45 120.35 769.95 135.15 767.75 144.45 766.0 153.85 L765.6 155.8 758.7 216.85 758.65 218.35 758.45 223.35 Q756.8 281.8 766.9 339.7 L769.95 356.3 Q773.6 375.0 777.95 393.65 L777.95 453.1 764.95 396.95 762.4 385.25 Q755.25 351.8 751.6 325.55 746.15 286.8 746.15 251.6 746.15 240.3 746.55 229.6 L746.7 226.05 Q747.4 209.8 749.2 193.55 L752.3 167.85 Q753.35 159.35 755.0 150.9 758.05 135.4 762.55 120.1 L777.95 67.35 M739.75 489.8 L726.75 489.8 Q708.2 480.05 690.4 469.05 L670.6 456.95 670.2 456.7 669.75 456.7 595.05 456.85 158.05 456.75 103.3 456.7 Q77.1 473.0 47.35 489.8 L34.4 489.8 65.75 472.35 70.0 469.95 72.15 468.75 99.4 453.25 98.5 440.75 98.0 434.15 97.85 431.8 97.5 426.7 Q96.15 407.75 95.65 396.75 95.1 384.55 95.05 360.55 L95.2 325.0 Q95.7 240.9 103.65 163.25 110.45 97.1 123.35 27.85 L128.8 0.0 132.45 0.0 129.85 14.75 128.0 25.75 127.95 25.9 121.55 65.6 Q113.15 120.2 108.6 164.95 L101.55 259.5 100.6 301.2 100.55 301.7 Q100.3 313.1 100.2 324.7 L100.65 392.75 100.95 417.35 101.4 423.6 Q103.45 443.85 103.65 451.95 105.4 451.35 106.65 451.35 L666.85 451.35 669.9 451.95 Q670.05 443.85 672.1 423.6 672.7 417.75 672.75 409.05 L673.3 325.0 672.75 288.6 Q671.4 239.5 667.5 192.7 L666.7 183.5 666.65 183.25 664.25 158.5 Q659.75 116.5 652.05 66.1 L644.1 17.2 644.05 17.0 641.15 0.0 644.75 0.0 651.0 32.35 652.05 38.05 Q663.55 102.0 669.85 163.25 677.8 240.9 678.3 325.0 L678.45 360.55 Q678.4 384.55 677.85 396.75 L674.15 452.55 674.1 453.25 674.9 453.65 702.4 470.0 703.95 470.95 706.85 472.6 713.1 476.2 739.75 489.8 M14.15 489.8 L8.15 489.8 17.6 456.7 27.65 418.85 30.4 406.25 Q44.75 331.35 44.75 265.1 44.75 250.8 43.8 232.8 42.85 215.7 41.05 195.25 L37.15 158.0 Q35.25 141.8 31.75 126.0 L24.0 91.1 Q19.75 71.45 13.5 52.35 7.45 33.85 0.0 15.85 L0.0 5.1 13.3 39.5 Q17.5 50.65 19.5 57.5 L20.95 62.7 34.55 117.65 34.55 117.7 Q39.6 137.15 41.75 157.2 47.5 204.05 49.0 251.4 50.55 300.6 44.6 349.4 L42.2 368.0 Q40.35 380.75 38.0 393.65 L31.6 425.05 25.35 450.85 14.15 489.8 M0.0 468.7 L0.0 426.15 1.75 419.35 Q21.0 340.8 21.0 266.1 L20.8 259.3 18.15 209.6 16.85 197.45 Q15.0 181.25 12.25 164.5 7.3 133.85 2.25 114.25 L0.0 106.1 0.0 76.15 4.0 85.75 12.5 112.0 Q15.25 120.35 16.95 128.9 L24.8 169.2 Q27.5 184.55 29.05 201.4 L31.9 237.75 Q33.0 254.8 33.0 269.1 33.0 333.9 17.05 405.7 12.4 426.4 6.5 446.95 L0.0 468.7" fill="#000000" fill-rule="evenodd" stroke="none"/>
    <path d="M728.75 0.0 L730.8 3.45 692.15 6.15 Q666.65 8.15 659.1 11.85 L658.95 11.45 Q655.7 12.45 651.75 13.05 L654.85 30.05 651.0 32.35 644.75 0.0 728.75 0.0 M59.9 0.0 L128.8 0.0 123.35 27.85 120.8 26.05 Q121.8 22.75 119.9 20.05 117.15 16.15 112.3 16.1 L108.85 15.55 Q101.6 13.55 94.3 12.15 L65.75 7.0 54.7 3.9 Q57.2 1.65 59.9 0.0 M674.15 452.55 L681.1 453.8 Q683.75 456.4 687.15 458.1 703.5 466.4 720.25 474.4 L706.85 472.6 703.95 470.95 703.45 470.6 703.8 470.0 702.4 470.0 674.9 453.65 674.1 453.25 674.15 452.55" fill="#282828" fill-rule="evenodd" stroke="none"/>
    <path d="M132.45 0.0 L183.65 0.0 Q166.75 3.6 150.5 8.2 139.25 11.4 129.8 15.2 L129.85 14.75 132.45 0.0 M518.9 0.0 L641.15 0.0 644.05 17.0 644.1 17.2 652.05 66.1 Q659.75 116.5 664.25 158.5 L666.65 183.25 666.7 183.5 667.5 192.7 Q671.4 239.5 672.75 288.6 L673.3 325.0 672.75 409.05 Q672.7 417.75 672.1 423.6 670.05 443.85 669.9 451.95 L666.85 451.35 106.65 451.35 Q105.4 451.35 103.65 451.95 103.45 443.85 101.4 423.6 L100.95 417.35 100.65 392.75 107.75 397.9 Q123.95 408.4 137.25 412.6 L148.35 415.8 149.3 434.05 Q153.3 443.25 163.65 443.25 L614.05 443.25 Q624.35 443.25 628.35 434.05 L630.55 401.3 Q635.55 385.7 639.6 370.4 648.5 336.4 654.6 292.65 660.2 237.95 660.2 186.55 L660.2 181.7 Q659.25 175.55 659.25 171.7 L659.3 163.7 659.55 162.7 Q657.35 121.9 648.0 71.4 644.55 53.1 639.55 30.5 L636.45 15.85 580.4 4.85 Q557.25 2.45 518.9 0.0" fill="#0e4e8d" fill-rule="evenodd" stroke="none"/>
    <path d="M183.65 0.0 L518.9 0.0 Q557.25 2.45 580.4 4.85 L636.45 15.85 639.55 30.5 Q644.55 53.1 648.0 71.4 657.35 121.9 659.55 162.7 L659.3 163.7 659.25 171.7 Q659.25 175.55 660.2 181.7 L660.2 186.55 Q660.2 237.95 654.6 292.65 648.5 336.4 639.6 370.4 635.55 385.7 630.55 401.3 641.3 223.25 626.35 30.2 624.35 18.95 614.05 18.95 L467.55 18.95 408.8 5.65 Q358.95 8.7 282.25 18.95 L163.65 18.95 Q153.3 18.95 149.3 29.2 148.5 42.4 147.85 55.7 L143.9 57.25 136.55 60.25 117.4 309.8 128.75 314.95 Q133.5 316.8 143.25 317.8 L144.6 317.95 Q145.8 366.5 148.35 415.8 L137.25 412.6 Q123.95 408.4 107.75 397.9 L100.65 392.75 100.2 324.7 Q100.3 313.1 100.55 301.7 L100.6 301.2 101.55 259.5 108.6 164.95 Q113.15 120.2 121.55 65.6 L127.95 25.9 128.0 25.75 129.85 14.75 129.8 15.2 Q139.25 11.4 150.5 8.2 166.75 3.6 183.65 0.0" fill="#1c6ab7" fill-rule="evenodd" stroke="none"/>
    <path d="M730.8 3.45 Q734.8 10.3 738.45 17.5 718.8 21.9 708.55 23.55 706.1 23.65 704.05 22.85 681.1 13.75 663.65 25.5 L654.85 30.05 651.75 13.05 Q655.7 12.45 658.95 11.45 L659.1 11.85 Q666.65 8.15 692.15 6.15 L730.8 3.45" fill="url(#gradient0)" fill-rule="evenodd" stroke="none"/>
    <path d="M654.85 30.05 L663.65 25.5 Q671.55 73.05 685.1 119.45 690.25 136.95 687.9 155.25 685.4 174.35 690.85 192.9 704.4 238.8 701.55 286.7 699.15 326.45 695.25 365.95 691.25 406.65 695.4 444.65 695.75 448.0 699.1 446.95 708.2 444.25 715.55 450.0 707.8 455.3 699.3 455.3 690.5 455.3 681.1 453.8 678.1 450.6 678.1 444.85 L678.15 443.75 678.1 443.6 Q684.85 415.75 685.35 408.35 L685.6 373.1 Q685.6 346.25 687.1 333.15 688.6 320.05 688.6 303.35 688.6 272.55 684.25 229.2 678.6 179.7 676.1 155.0 673.75 131.25 662.0 68.35 L654.85 30.05" fill="url(#gradient1)" fill-rule="evenodd" stroke="none"/>
    <path d="M282.25 18.95 Q358.95 8.7 408.8 5.65 L467.55 18.95 282.25 18.95 M144.6 317.95 L143.25 317.8 Q133.5 316.8 128.75 314.95 L117.4 309.8 136.55 60.25 143.9 57.25 147.85 55.7 Q141.25 184.05 144.6 317.95" fill="#378ee4" fill-rule="evenodd" stroke="none"/>
    <path d="M54.7 3.9 L65.75 7.0 94.3 12.15 Q101.6 13.55 108.85 15.55 L112.3 16.1 Q117.15 16.15 119.9 20.05 121.8 22.75 120.8 26.05 102.35 13.45 83.25 13.45 74.8 13.45 66.75 13.9 L62.65 32.3 Q58.45 33.35 53.75 34.0 54.65 27.15 53.2 23.05 51.35 17.8 44.3 16.25 L50.1 8.75 Q52.3 6.05 54.7 3.9" fill="url(#gradient2)" fill-rule="evenodd" stroke="none"/>
    <path d="M61.8 434.2 L66.5 429.45 70.25 431.25 Q76.55 434.15 83.2 433.9 86.9 421.45 79.25 409.2 74.6 401.75 71.35 393.95 63.4 374.65 67.45 352.75 72.55 325.2 71.7 297.5 69.9 238.9 82.8 181.5 91.25 144.05 84.85 106.2 77.9 65.0 106.75 37.3 L104.0 34.25 102.55 35.35 Q99.15 34.6 95.9 33.45 78.9 27.05 62.65 32.3 L66.75 13.9 Q74.8 13.45 83.25 13.45 102.35 13.45 120.8 26.05 120.3 30.55 118.7 35.55 117.65 38.75 113.8 47.95 106.85 64.45 107.5 76.75 108.1 87.45 103.7 103.85 97.25 128.05 96.75 130.75 94.9 141.0 90.8 185.8 86.75 230.05 86.75 238.75 86.75 261.35 90.4 291.0 94.0 320.65 94.0 333.5 L92.0 371.0 Q92.0 373.5 94.0 402.85 94.05 407.4 96.05 420.0 L97.85 431.8 98.0 434.15 97.9 440.7 Q89.55 440.4 81.1 440.75 70.0 441.8 61.8 434.2" fill="url(#gradient3)" fill-rule="evenodd" stroke="none"/>
    <path d="M62.65 32.3 Q78.9 27.05 95.9 33.45 99.15 34.6 102.55 35.35 L104.0 34.25 106.75 37.3 Q77.9 65.0 84.85 106.2 91.25 144.05 82.8 181.5 69.9 238.9 71.7 297.5 72.55 325.2 67.45 352.75 63.4 374.65 71.35 393.95 74.6 401.75 79.25 409.2 86.9 421.45 83.2 433.9 76.55 434.15 70.25 431.25 L66.5 429.45 61.8 434.2 59.05 430.55 Q40.0 402.55 42.2 368.0 L44.6 349.4 Q50.55 300.6 49.0 251.4 47.5 204.05 41.75 157.2 42.3 143.25 44.4 129.25 51.8 80.35 62.65 32.3" fill="url(#gradient4)" fill-rule="evenodd" stroke="none"/>
    <path d="M62.65 32.3 Q51.8 80.35 44.4 129.25 42.3 143.25 41.75 157.2 39.6 137.15 34.55 117.7 L34.55 117.65 20.95 62.7 Q25.75 45.55 34.15 31.25 37.9 24.7 44.3 16.25 51.35 17.8 53.2 23.05 54.65 27.15 53.75 34.0 58.45 33.35 62.65 32.3" fill="url(#gradient5)" fill-rule="evenodd" stroke="none"/>
    <path d="M24.8 169.2 L37.15 158.0 41.05 195.25 29.05 201.4 Q27.5 184.55 24.8 169.2 M737.3 185.2 Q738.8 169.45 740.4 157.0 746.55 163.55 752.2 168.55 L752.3 167.85 749.2 193.55 737.3 185.2" fill="#4a4848" fill-rule="evenodd" stroke="none"/>
    <path d="M777.95 14.65 L777.95 67.35 762.55 120.1 Q758.05 135.4 755.0 150.9 753.35 159.35 752.3 167.85 L752.2 168.55 Q746.55 163.55 740.4 157.0 742.0 143.65 744.75 130.35 L745.65 126.0 753.4 91.1 Q757.4 73.5 762.9 56.25 L774.8 21.85 777.95 14.65 M0.0 76.15 L0.0 15.85 Q7.45 33.85 13.5 52.35 19.75 71.45 24.0 91.1 L31.75 126.0 Q35.25 141.8 37.15 158.0 L24.8 169.2 16.95 128.9 Q15.25 120.35 12.5 112.0 L4.0 85.75 0.0 76.15" fill="#3f3a3a" fill-rule="evenodd" stroke="none"/>
    <path d="M777.95 453.1 L777.95 489.8 769.3 489.8 758.45 451.7 Q753.05 432.75 748.6 413.75 L750.65 410.55 Q758.05 398.65 762.4 385.25 L764.95 396.95 777.95 453.1 M8.15 489.8 L0.0 489.8 0.0 468.7 6.5 446.95 Q12.4 426.4 17.05 405.7 20.45 411.35 27.65 418.85 L17.6 456.7 8.15 489.8 M41.05 195.25 Q42.85 215.7 43.8 232.8 L31.9 237.75 29.05 201.4 41.05 195.25 M749.2 193.55 Q747.4 209.8 746.7 226.05 L746.55 229.6 Q741.8 224.35 734.55 217.8 L737.3 185.2 749.2 193.55" fill="#565454" fill-rule="evenodd" stroke="none"/>
    <path d="M43.8 232.8 Q44.75 250.8 44.75 265.1 44.75 331.35 30.4 406.25 L27.65 418.85 Q20.45 411.35 17.05 405.7 33.0 333.9 33.0 269.1 33.0 254.8 31.9 237.75 L43.8 232.8 M746.55 229.6 Q746.15 240.3 746.15 251.6 746.15 286.8 751.6 325.55 755.25 351.8 762.4 385.25 758.05 398.65 750.65 410.55 L748.6 413.75 747.0 406.25 Q732.65 331.35 732.65 265.1 732.65 245.1 734.55 217.8 741.8 224.35 746.55 229.6" fill="#605f5f" fill-rule="evenodd" stroke="none"/>
    <path d="M0.0 426.15 L0.0 235.85 0.5 236.3 Q11.45 246.95 20.8 259.3 L21.0 266.1 Q21.0 340.8 1.75 419.35 L0.0 426.15" fill="#bbddff" fill-rule="evenodd" stroke="none"/>
    <path d="M777.95 105.85 L777.95 143.75 766.0 153.85 Q767.75 144.45 769.95 135.15 773.45 120.35 777.95 105.85 M0.0 235.85 L0.0 180.55 Q9.4 188.0 16.85 197.45 L18.15 209.6 20.8 259.3 Q11.45 246.95 0.5 236.3 L0.0 235.85" fill="#c8e3ff" fill-rule="evenodd" stroke="none"/>
    <path d="M42.2 368.0 Q40.0 402.55 59.05 430.55 L61.8 434.2 57.85 439.35 Q50.3 449.6 47.0 450.35 L29.05 454.8 25.35 450.85 31.6 425.05 38.0 393.65 Q40.35 380.75 42.2 368.0" fill="url(#gradient6)" fill-rule="evenodd" stroke="none"/>
    <path d="M715.45 489.8 L87.95 489.8 Q104.1 483.2 114.75 480.8 125.2 478.35 141.85 473.5 158.3 469.3 181.7 466.75 L203.75 463.15 Q217.1 460.95 234.9 460.0 L235.3 464.35 Q235.65 468.65 260.2 471.15 284.75 473.7 299.3 476.3 313.85 478.85 332.1 469.05 L332.85 468.65 Q333.65 470.65 334.8 471.95 335.95 473.2 343.95 476.3 L366.4 485.2 Q378.9 489.5 390.95 489.5 398.05 489.5 409.0 485.45 L426.5 479.0 Q439.65 475.25 442.75 473.55 445.9 471.8 445.3 465.8 464.65 479.45 474.8 477.4 484.9 475.3 496.25 473.85 L549.2 465.85 602.2 470.5 Q630.6 473.65 651.15 477.0 L700.6 485.65 708.75 487.55 Q710.9 488.05 715.45 489.8" fill="#325a82" fill-rule="evenodd" stroke="none"/>
    <path d="M722.05 489.8 L715.45 489.8 Q710.9 488.05 708.75 487.55 L700.6 485.65 651.15 477.0 Q630.6 473.65 602.2 470.5 L549.2 465.85 496.25 473.85 Q484.9 475.3 474.8 477.4 464.65 479.45 445.3 465.8 445.9 471.8 442.75 473.55 439.65 475.25 426.5 479.0 L409.0 485.45 Q398.05 489.5 390.95 489.5 378.9 489.5 366.4 485.2 L343.95 476.3 Q335.95 473.2 334.8 471.95 333.65 470.65 332.85 468.65 L332.1 469.05 Q313.85 478.85 299.3 476.3 284.75 473.7 260.2 471.15 235.65 468.65 235.3 464.35 L234.9 460.0 Q217.1 460.95 203.75 463.15 L181.7 466.75 Q158.3 469.3 141.85 473.5 125.2 478.35 114.75 480.8 104.1 483.2 87.95 489.8 L48.6 489.8 Q70.25 480.0 91.2 473.15 120.5 463.75 133.05 461.25 L158.05 456.75 595.05 456.85 Q606.3 461.35 629.5 465.2 652.25 469.0 678.05 471.55 690.1 474.6 701.05 478.4 711.65 483.75 722.05 489.8 M669.75 456.7 L670.2 456.7 670.6 456.95 669.75 456.7" fill="#28435d" fill-rule="evenodd" stroke="none"/>
    <path d="M726.75 489.8 L722.05 489.8 Q711.65 483.75 701.05 478.4 690.1 474.6 678.05 471.55 652.25 469.0 629.5 465.2 606.3 461.35 595.05 456.85 L669.75 456.7 670.6 456.95 690.4 469.05 Q708.2 480.05 726.75 489.8 M48.6 489.8 L47.35 489.8 Q77.1 473.0 103.3 456.7 L158.05 456.75 133.05 461.25 Q120.5 463.75 91.2 473.15 70.25 480.0 48.6 489.8" fill="#162e44" fill-rule="evenodd" stroke="none"/>
    <path d="M61.8 434.2 Q70.0 441.8 81.1 440.75 89.55 440.4 97.9 440.7 L98.5 440.75 99.4 453.25 72.15 468.75 70.9 468.15 70.0 469.95 65.75 472.35 Q46.6 468.85 31.45 456.85 L29.05 454.8 47.0 450.35 Q50.3 449.6 57.85 439.35 L61.8 434.2" fill="url(#gradient7)" fill-rule="evenodd" stroke="none"/>
    <path d="M738.45 17.5 Q748.1 35.3 751.2 55.1 L753.95 72.3 740.3 128.45 739.55 132.45 Q736.0 151.45 734.1 170.75 L708.55 23.55 Q718.8 21.9 738.45 17.5" fill="url(#gradient8)" fill-rule="evenodd" stroke="none"/>
    <path d="M663.65 25.5 Q681.1 13.75 704.05 22.85 706.1 23.65 708.55 23.55 L734.1 170.75 Q729.2 217.1 728.55 263.8 727.85 310.6 733.8 356.95 L735.4 369.4 735.4 372.85 Q736.5 414.45 715.55 450.0 708.2 444.25 699.1 446.95 695.75 448.0 695.4 444.65 691.25 406.65 695.25 365.95 699.15 326.45 701.55 286.7 704.4 238.8 690.85 192.9 685.4 174.35 687.9 155.25 690.25 136.95 685.1 119.45 671.55 73.05 663.65 25.5" fill="url(#gradient9)" fill-rule="evenodd" stroke="none"/>
    <path d="M777.95 143.75 L777.95 187.75 Q774.3 192.15 769.95 199.0 764.8 207.0 758.65 218.35 L758.7 216.85 765.6 155.8 766.0 153.85 777.95 143.75" fill="#cbd7fc" fill-rule="evenodd" stroke="none"/>
    <path d="M777.95 187.75 L777.95 393.65 Q773.6 375.0 769.95 356.3 L766.9 339.7 Q756.8 281.8 758.45 223.35 L758.65 218.35 Q764.8 207.0 769.95 199.0 774.3 192.15 777.95 187.75" fill="#bfcdfb" fill-rule="evenodd" stroke="none"/>
    <path d="M730.85 471.7 Q727.25 468.25 725.05 463.75 721.3 456.1 715.55 450.0 736.5 414.45 735.4 372.85 L735.4 369.4 742.55 409.95 751.0 446.7 Q742.75 465.75 730.85 471.7" fill="url(#gradient10)" fill-rule="evenodd" stroke="none"/>
    <path d="M681.1 453.8 Q690.5 455.3 699.3 455.3 707.8 455.3 715.55 450.0 721.3 456.1 725.05 463.75 727.25 468.25 730.85 471.7 725.85 474.2 720.25 474.4 703.5 466.4 687.15 458.1 683.75 456.4 681.1 453.8" fill="url(#gradient11)" fill-rule="evenodd" stroke="none"/>
    <path d="M0.0 180.55 L0.0 106.1 2.25 114.25 Q7.3 133.85 12.25 164.5 15.0 181.25 16.85 197.45 9.4 188.0 0.0 180.55" fill="#d9ecff" fill-rule="evenodd" stroke="none"/>
    <path d="M630.55 401.3 L628.35 434.05 Q624.35 443.25 614.05 443.25 L163.65 443.25 Q153.3 443.25 149.3 434.05 L148.35 415.8 Q145.8 366.5 144.6 317.95 141.25 184.05 147.85 55.7 148.5 42.4 149.3 29.2 153.3 18.95 163.65 18.95 L282.25 18.95 467.55 18.95 614.05 18.95 Q624.35 18.95 626.35 30.2 641.3 223.25 630.55 401.3 Z" fill="none" stroke="#000000" stroke-linecap="round" stroke-linejoin="round" stroke-width="4.0"/>
  </g>
  <defs>
    <linearGradient gradientTransform="matrix(-0.0529, 0.0, 0.0, -0.0162, 695.1, 16.75)" gradientUnits="userSpaceOnUse" id="gradient0" spreadMethod="pad" x1="-819.2" x2="819.2">
      <stop offset="0.0" stop-color="#282d35"/>
      <stop offset="1.0" stop-color="#303a4e"/>
    </linearGradient>
    <linearGradient gradientTransform="matrix(-0.037, 0.0, 0.0, -0.2623, 685.2, 240.4)" gradientUnits="userSpaceOnUse" id="gradient1" spreadMethod="pad" x1="-819.2" x2="819.2">
      <stop offset="0.0" stop-color="#333744"/>
      <stop offset="1.0" stop-color="#343d57"/>
    </linearGradient>
    <linearGradient gradientTransform="matrix(0.0468, 0.0, 0.0, 0.0184, 82.65, 18.95)" gradientUnits="userSpaceOnUse" id="gradient2" spreadMethod="pad" x1="-819.2" x2="819.2">
      <stop offset="0.0" stop-color="#282d35"/>
      <stop offset="1.0" stop-color="#303a4e"/>
    </linearGradient>
    <linearGradient gradientTransform="matrix(0.036, 0.0, 0.0, 0.2616, 91.3, 226.35)" gradientUnits="userSpaceOnUse" id="gradient3" spreadMethod="pad" x1="-819.2" x2="819.2">
      <stop offset="0.0" stop-color="#333744"/>
      <stop offset="1.0" stop-color="#343d57"/>
    </linearGradient>
    <linearGradient gradientTransform="matrix(0.0405, 0.0019, -0.0118, 0.2468, 87.1, 231.05)" gradientUnits="userSpaceOnUse" id="gradient4" spreadMethod="pad" x1="-819.2" x2="819.2">
      <stop offset="0.0" stop-color="#363838"/>
      <stop offset="1.0" stop-color="#4d5253"/>
    </linearGradient>
    <linearGradient gradientTransform="matrix(0.0255, 0.0, 0.0, 0.086, 41.8, 86.7)" gradientUnits="userSpaceOnUse" id="gradient5" spreadMethod="pad" x1="-819.2" x2="819.2">
      <stop offset="0.0" stop-color="#282828"/>
      <stop offset="1.0" stop-color="#353737"/>
    </linearGradient>
    <linearGradient gradientTransform="matrix(0.0222, 0.0, 0.0, 0.053, 43.55, 411.4)" gradientUnits="userSpaceOnUse" id="gradient6" spreadMethod="pad" x1="-819.2" x2="819.2">
      <stop offset="0.0" stop-color="#282828"/>
      <stop offset="1.0" stop-color="#353737"/>
    </linearGradient>
    <linearGradient gradientTransform="matrix(0.0429, 0.0, 0.0, 0.0233, 64.2, 453.25)" gradientUnits="userSpaceOnUse" id="gradient7" spreadMethod="pad" x1="-819.2" x2="819.2">
      <stop offset="0.0" stop-color="#272a31"/>
      <stop offset="1.0" stop-color="#2f384b"/>
    </linearGradient>
    <linearGradient gradientTransform="matrix(-0.0277, 0.0, 0.0, -0.0935, 731.25, 94.1)" gradientUnits="userSpaceOnUse" id="gradient8" spreadMethod="pad" x1="-819.2" x2="819.2">
      <stop offset="0.0" stop-color="#282828"/>
      <stop offset="1.0" stop-color="#353737"/>
    </linearGradient>
    <linearGradient gradientTransform="matrix(-0.0314, 0.0014, -0.0115, -0.2626, 684.65, 234.1)" gradientUnits="userSpaceOnUse" id="gradient9" spreadMethod="pad" x1="-819.2" x2="819.2">
      <stop offset="0.0" stop-color="#363838"/>
      <stop offset="1.0" stop-color="#4d5253"/>
    </linearGradient>
    <linearGradient gradientTransform="matrix(-0.0216, 0.0, 0.0, -0.0628, 733.25, 420.25)" gradientUnits="userSpaceOnUse" id="gradient10" spreadMethod="pad" x1="-819.2" x2="819.2">
      <stop offset="0.0" stop-color="#282828"/>
      <stop offset="1.0" stop-color="#353737"/>
    </linearGradient>
    <linearGradient gradientTransform="matrix(-0.0304, 0.0, 0.0, -0.0149, 705.95, 462.2)" gradientUnits="userSpaceOnUse" id="gradient11" spreadMethod="pad" x1="-819.2" x2="819.2">
      <stop offset="0.0" stop-color="#282d35"/>
      <stop offset="1.0" stop-color="#303a4e"/>
    </linearGradient>
  </defs>
</svg>
