<?xml version="1.0" encoding="UTF-8" standalone="no"?>
<svg xmlns:ffdec="https://www.free-decompiler.com/flash" xmlns:xlink="http://www.w3.org/1999/xlink" ffdec:objectType="frame" height="28.0px" width="96.0px" xmlns="http://www.w3.org/2000/svg">
  <g transform="matrix(1.0, 0.0, 0.0, 1.0, 48.0, 14.0)">
    <use ffdec:characterId="126" height="28.0" transform="matrix(1.0, 0.0, 0.0, 1.0, -48.0, -14.0)" width="96.0" xlink:href="#shape0"/>
  </g>
  <defs>
    <g id="shape0" transform="matrix(1.0, 0.0, 0.0, 1.0, 48.0, 14.0)">
      <path d="M-48.0 2.0 L-48.0 -6.0 -44.0 -6.0 -44.0 -10.0 -40.0 -10.0 -40.0 -14.0 40.0 -14.0 40.0 -10.0 44.0 -10.0 44.0 -6.0 48.0 -6.0 48.0 2.0 44.0 2.0 44.0 6.0 40.0 6.0 40.0 10.0 -40.0 10.0 -40.0 6.0 -44.0 6.0 -44.0 2.0 -48.0 2.0" fill="#0066cc" fill-rule="evenodd" stroke="none"/>
      <path d="M48.0 2.0 L48.0 6.0 44.0 6.0 44.0 10.0 40.0 10.0 40.0 14.0 -40.0 14.0 -40.0 10.0 -44.0 10.0 -44.0 6.0 -48.0 6.0 -48.0 2.0 -44.0 2.0 -44.0 6.0 -40.0 6.0 -40.0 10.0 40.0 10.0 40.0 6.0 44.0 6.0 44.0 2.0 48.0 2.0" fill="#0053a5" fill-rule="evenodd" stroke="none"/>
    </g>
  </defs>
</svg>
