<?xml version="1.0" encoding="UTF-8" standalone="no"?>
<svg xmlns:ffdec="https://www.free-decompiler.com/flash" xmlns:xlink="http://www.w3.org/1999/xlink" ffdec:objectType="shape" height="36.525px" width="165.6px" xmlns="http://www.w3.org/2000/svg">
  <g transform="matrix(1.5, 0.0, 0.0, 1.5, 0.0, 0.0)">
    <path d="M108.05 5.95 Q110.4 8.3 110.4 11.6 110.4 14.9 108.05 17.25 105.7 19.6 102.4 19.6 L21.9 19.6 20.85 20.8 Q17.25 24.35 12.2 24.35 7.15 24.35 3.6 20.8 0.0 17.2 0.0 12.15 0.0 7.15 3.6 3.55 7.15 0.0 12.2 0.0 17.25 0.0 20.85 3.55 L20.9 3.6 102.4 3.6 Q105.7 3.6 108.05 5.95 M21.0 18.6 Q23.05 15.8 23.05 12.15 23.05 7.75 20.0 4.6 L19.9 4.5 18.9 3.6 Q16.0 1.35 12.2 1.35 7.75 1.35 4.55 4.5 1.4 7.7 1.4 12.15 1.4 16.65 4.55 19.85 7.75 23.0 12.2 23.0 16.7 23.0 19.9 19.85 L20.15 19.6 21.0 18.6 M109.4 11.6 Q109.4 8.7 107.35 6.65 105.25 4.6 102.4 4.6 L21.8 4.6 Q24.4 7.85 24.4 12.15 24.4 15.75 22.6 18.6 L102.4 18.6 Q105.25 18.6 107.35 16.55 109.4 14.5 109.4 11.6" fill="#006699" fill-rule="evenodd" stroke="none"/>
    <path d="M109.4 11.6 Q109.4 14.5 107.35 16.55 105.25 18.6 102.4 18.6 L22.6 18.6 Q24.4 15.75 24.4 12.15 24.4 7.85 21.8 4.6 L102.4 4.6 Q105.25 4.6 107.35 6.65 109.4 8.7 109.4 11.6 M21.0 18.6 L20.15 19.6 19.9 19.85 Q16.7 23.0 12.2 23.0 7.75 23.0 4.55 19.85 1.4 16.65 1.4 12.15 1.4 7.7 4.55 4.5 7.75 1.35 12.2 1.35 16.0 1.35 18.9 3.6 L19.9 4.5 20.0 4.6 Q23.05 7.75 23.05 12.15 23.05 15.8 21.0 18.6" fill="#0280cd" fill-rule="evenodd" stroke="none"/>
  </g>
</svg>
