<?xml version="1.0" encoding="UTF-8" standalone="no"?>
<svg xmlns:ffdec="https://www.free-decompiler.com/flash" xmlns:xlink="http://www.w3.org/1999/xlink" ffdec:objectType="shape" height="72.0px" width="234.0px" xmlns="http://www.w3.org/2000/svg">
  <g transform="matrix(1.5, 0.0, 0.0, 1.5, 117.0, 36.0)">
    <path d="M62.0 -24.0 Q68.6 -24.05 73.3 -19.25 78.0 -14.5 78.0 -7.85 L78.0 7.8 Q78.0 14.45 73.3 19.2 68.6 23.95 62.0 24.0 L-62.0 24.0 Q-68.6 23.95 -73.3 19.2 -78.0 14.45 -78.0 7.8 L-78.0 -7.85 Q-78.0 -14.5 -73.3 -19.25 -68.6 -24.05 -62.0 -24.0 L62.0 -24.0" fill="#003366" fill-rule="evenodd" stroke="none"/>
    <path d="M71.75 -19.3 Q75.4 -15.6 75.65 -10.45 L75.65 7.55 Q75.65 13.05 71.75 17.05 67.85 20.95 62.35 21.0 L-62.35 21.0 Q-67.85 20.95 -71.75 17.05 -75.65 13.05 -75.65 7.55 L-75.65 -10.45 Q-75.45 -15.6 -71.75 -19.3 -67.85 -23.25 -62.35 -23.25 L62.35 -23.25 Q67.85 -23.25 71.75 -19.3" fill="url(#gradient0)" fill-rule="evenodd" stroke="none"/>
  </g>
  <defs>
    <linearGradient gradientTransform="matrix(0.0, -0.0306, 0.027, 0.0, -0.05, -1.1)" gradientUnits="userSpaceOnUse" id="gradient0" spreadMethod="pad" x1="-819.2" x2="819.2">
      <stop offset="0.0" stop-color="#0055b1"/>
      <stop offset="0.5176470588235295" stop-color="#0052af"/>
      <stop offset="0.5725490196078431" stop-color="#0162ba"/>
      <stop offset="1.0" stop-color="#2483c1"/>
    </linearGradient>
  </defs>
</svg>
