<?xml version="1.0" encoding="UTF-8" standalone="no"?>
<svg xmlns:ffdec="https://www.free-decompiler.com/flash" xmlns:xlink="http://www.w3.org/1999/xlink" ffdec:objectType="shape" height="311.95px" width="369.8px" xmlns="http://www.w3.org/2000/svg">
  <g transform="matrix(1.0, 0.0, 0.0, 1.0, 185.15, 148.0)">
    <path d="M86.5 -69.25 Q125.45 -44.65 154.2 -10.15 161.8 -1.05 165.65 9.4 172.1 26.85 176.1 45.1 180.9 67.0 184.45 89.25 185.1 93.2 183.6 96.8 L183.3 97.25 182.9 97.6 Q179.9 97.75 177.95 95.1 156.3 65.35 141.5 31.2 140.95 30.0 139.55 29.15 L135.25 26.5 Q130.75 23.55 126.5 21.0 131.55 41.2 128.35 61.8 125.7 79.0 115.9 93.5 107.45 106.0 95.5 115.25 90.3 120.05 84.2 123.15 L82.75 123.75 Q5.2 202.4 -78.25 127.25 L-88.25 122.25 -96.5 116.25 Q-112.05 105.5 -120.9 88.6 -129.15 72.85 -130.2 55.15 -131.25 38.2 -128.25 21.5 -136.05 26.2 -140.8 33.3 -160.65 62.85 -178.1 94.05 -181.45 100.1 -184.45 96.0 -185.3 94.8 -185.15 92.95 -183.3 66.8 -175.7 41.6 -170.75 25.1 -163.15 9.45 L-160.85 5.3 Q-132.35 -40.6 -87.0 -69.25 -67.55 -99.15 -42.2 -123.8 -26.55 -138.9 -6.25 -146.45 L-1.5 -148.0 Q27.55 -139.15 48.95 -117.3 70.3 -95.35 86.5 -69.25 M-1.35 -70.35 L-1.0 -70.25 -1.35 -70.4 -1.35 -70.35" fill="#2e47aa" fill-rule="evenodd" stroke="none"/>
    <path d="M-1.35 -70.35 L-1.35 -70.4 -1.0 -70.25 -1.35 -70.35" fill="#243773" fill-rule="evenodd" stroke="none"/>
  </g>
</svg>
