<?xml version="1.0" encoding="UTF-8" standalone="no"?>
<svg xmlns:ffdec="https://www.free-decompiler.com/flash" xmlns:xlink="http://www.w3.org/1999/xlink" ffdec:objectType="shape" height="64.0px" width="64.0px" xmlns="http://www.w3.org/2000/svg">
  <g transform="matrix(1.0, 0.0, 0.0, 1.0, 32.0, 32.0)">
    <path d="M24.0 -28.0 L28.0 -28.0 28.0 -24.0 32.0 -24.0 32.0 24.0 28.0 24.0 28.0 28.0 24.0 28.0 24.0 32.0 -24.0 32.0 -24.0 28.0 -28.0 28.0 -28.0 24.0 -32.0 24.0 -32.0 -24.0 -28.0 -24.0 -28.0 -28.0 -24.0 -28.0 -24.0 -32.0 24.0 -32.0 24.0 -28.0 M20.0 -24.0 L20.0 -28.0 -20.0 -28.0 -20.0 -24.0 -24.0 -24.0 -24.0 -20.0 -28.0 -20.0 -28.0 20.0 -24.0 20.0 -24.0 24.0 -20.0 24.0 -20.0 28.0 20.0 28.0 20.0 24.0 24.0 24.0 24.0 20.0 28.0 20.0 28.0 -20.0 24.0 -20.0 24.0 -24.0 20.0 -24.0" fill="#ff9900" fill-rule="evenodd" stroke="none"/>
    <path d="M20.0 -24.0 L-20.0 -24.0 -20.0 -20.0 -24.0 -20.0 -24.0 20.0 -20.0 20.0 -20.0 24.0 20.0 24.0 20.0 20.0 24.0 20.0 24.0 -20.0 20.0 -20.0 20.0 -24.0 24.0 -24.0 24.0 -20.0 28.0 -20.0 28.0 20.0 24.0 20.0 24.0 24.0 20.0 24.0 20.0 28.0 -20.0 28.0 -20.0 24.0 -24.0 24.0 -24.0 20.0 -28.0 20.0 -28.0 -20.0 -24.0 -20.0 -24.0 -24.0 -20.0 -24.0 -20.0 -28.0 20.0 -28.0 20.0 -24.0" fill="#cc6600" fill-rule="evenodd" stroke="none"/>
    <path d="M20.0 -24.0 L20.0 -20.0 24.0 -20.0 24.0 20.0 20.0 20.0 20.0 24.0 -20.0 24.0 -20.0 20.0 -24.0 20.0 -24.0 -20.0 -20.0 -20.0 -20.0 -24.0 20.0 -24.0" fill="#330000" fill-rule="evenodd" stroke="none"/>
  </g>
</svg>
