<?xml version="1.0" encoding="UTF-8" standalone="no"?>
<svg xmlns:ffdec="https://www.free-decompiler.com/flash" xmlns:xlink="http://www.w3.org/1999/xlink" ffdec:objectType="shape" height="198.0px" width="228.0px" xmlns="http://www.w3.org/2000/svg">
  <g transform="matrix(1.5, 0.0, 0.0, 1.5, 114.0, 102.0)">
    <path d="M64.0 -56.0 L60.0 -56.0 60.0 -68.0 76.0 -68.0 76.0 -56.0 72.0 -56.0 64.0 -56.0 M-72.0 -56.0 L-76.0 -56.0 -76.0 -68.0 -60.0 -68.0 -60.0 -56.0 -64.0 -56.0 -72.0 -56.0 M72.0 -64.0 L64.0 -64.0 64.0 -60.0 72.0 -60.0 72.0 -64.0 M-72.0 -60.0 L-64.0 -60.0 -64.0 -64.0 -72.0 -64.0 -72.0 -60.0" fill="#000066" fill-rule="evenodd" stroke="none"/>
    <path d="M72.0 -56.0 L72.0 64.0 -72.0 64.0 -72.0 -56.0 -64.0 -56.0 -64.0 56.0 64.0 56.0 64.0 -56.0 72.0 -56.0 M72.0 -64.0 L72.0 -60.0 64.0 -60.0 64.0 -64.0 72.0 -64.0 M-72.0 -60.0 L-72.0 -64.0 -64.0 -64.0 -64.0 -60.0 -72.0 -60.0" fill="#003399" fill-rule="evenodd" stroke="none"/>
  </g>
</svg>
