<?xml version="1.0" encoding="UTF-8" standalone="no"?>
<svg xmlns:ffdec="https://www.free-decompiler.com/flash" xmlns:xlink="http://www.w3.org/1999/xlink" ffdec:objectType="frame" height="167.55px" width="209.0px" xmlns="http://www.w3.org/2000/svg">
  <g transform="matrix(1.0, 0.0, 0.0, 1.0, 103.25, 2.0)">
    <use ffdec:characterId="41" height="161.25" transform="matrix(1.0, 0.0, 0.0, 1.0, -38.25, 3.5)" width="144.0" xlink:href="#shape0"/>
  </g>
  <defs>
    <g id="shape0" transform="matrix(1.0, 0.0, 0.0, 1.0, 38.25, -3.5)">
      <path d="M87.35 17.3 Q98.75 31.95 105.75 48.75 L104.5 79.75 104.0 80.25 Q103.25 88.65 99.6 96.4 L85.25 126.25 61.75 147.5 30.0 161.5 Q2.0 167.25 -11.5 162.75 L-32.75 157.5 -34.25 155.75 -38.25 146.75 -38.25 145.25 Q0.5 85.5 10.0 3.75 L12.4 5.85 Q48.3 35.9 77.5 3.5 82.1 10.6 87.35 17.3" fill="#ffffff" fill-rule="evenodd" stroke="none"/>
    </g>
  </defs>
</svg>
