<?xml version="1.0" encoding="UTF-8" standalone="no"?>
<svg xmlns:ffdec="https://www.free-decompiler.com/flash" xmlns:xlink="http://www.w3.org/1999/xlink" ffdec:objectType="frame" height="167.55px" width="209.0px" xmlns="http://www.w3.org/2000/svg">
  <g transform="matrix(1.0, 0.0, 0.0, 1.0, 103.25, 2.0)">
    <use ffdec:characterId="42" height="165.05" transform="matrix(1.0, 0.0, 0.0, 1.0, -60.0, 0.5)" width="161.75" xlink:href="#shape0"/>
  </g>
  <defs>
    <g id="shape0" transform="matrix(1.0, 0.0, 0.0, 1.0, 60.0, -0.5)">
      <path d="M101.75 77.5 L100.65 82.35 Q91.65 131.45 47.25 153.5 10.25 169.5 -13.0 164.25 L-27.0 162.25 -53.25 150.5 -58.75 141.0 -60.0 137.25 Q-26.0 84.25 -13.25 7.0 -5.9 15.6 4.3 20.65 42.7 39.45 57.0 0.5 76.65 30.45 94.65 59.85 99.6 67.95 101.75 77.5" fill="#ffffff" fill-rule="evenodd" stroke="none"/>
    </g>
  </defs>
</svg>
