<?xml version="1.0" encoding="UTF-8" standalone="no"?>
<svg xmlns:ffdec="https://www.free-decompiler.com/flash" xmlns:xlink="http://www.w3.org/1999/xlink" ffdec:objectType="frame" height="167.55px" width="209.0px" xmlns="http://www.w3.org/2000/svg">
  <g transform="matrix(1.0, 0.0, 0.0, 1.0, 103.25, 2.0)">
    <use ffdec:characterId="43" height="167.25" transform="matrix(1.0, 0.0, 0.0, 1.0, -79.5, -2.0)" width="169.55" xlink:href="#shape0"/>
  </g>
  <defs>
    <g id="shape0" transform="matrix(1.0, 0.0, 0.0, 1.0, 79.5, 2.0)">
      <path d="M29.5 159.75 Q26.4 161.15 23.25 162.5 L-7.0 165.25 -17.25 164.25 Q-42.5 162.0 -62.25 146.85 -64.7 144.95 -67.25 143.25 L-72.0 139.5 -77.25 130.75 -79.5 126.0 Q-76.5 122.0 -77.5 116.75 -51.25 81.0 -38.25 8.25 L-34.45 13.2 Q-27.75 21.55 -17.8 25.0 21.15 38.15 32.5 -2.0 49.85 32.5 75.35 59.65 93.4 78.8 89.25 105.0 82.85 117.35 74.5 128.2 56.95 151.1 29.5 159.75" fill="#ffffff" fill-rule="evenodd" stroke="none"/>
    </g>
  </defs>
</svg>
