<?xml version="1.0" encoding="UTF-8" standalone="no"?>
<svg xmlns:ffdec="https://www.free-decompiler.com/flash" xmlns:xlink="http://www.w3.org/1999/xlink" ffdec:objectType="frame" height="167.55px" width="209.0px" xmlns="http://www.w3.org/2000/svg">
  <g transform="matrix(1.0, 0.0, 0.0, 1.0, 103.25, 2.0)">
    <use ffdec:characterId="44" height="164.5" transform="matrix(1.0, 0.0, 0.0, 1.0, -103.25, -0.5)" width="168.55" xlink:href="#shape0"/>
  </g>
  <defs>
    <g id="shape0" transform="matrix(1.0, 0.0, 0.0, 1.0, 103.25, 0.5)">
      <path d="M15.3 39.05 L17.0 44.75 32.0 74.75 Q47.45 88.25 58.85 105.45 72.9 126.65 56.25 145.0 L34.25 158.5 7.25 164.0 -24.15 162.75 Q-29.15 162.35 -34.0 160.75 L-62.25 148.5 Q-74.25 137.6 -83.65 124.85 -92.15 113.25 -98.0 99.75 L-103.25 86.5 -102.95 85.6 Q-101.65 81.5 -102.5 77.25 -80.55 45.2 -69.75 6.75 -67.45 13.45 -61.35 16.95 -21.85 39.45 1.5 -0.5 9.35 18.95 15.3 39.05" fill="#ffffff" fill-rule="evenodd" stroke="none"/>
    </g>
  </defs>
</svg>
