<?xml version="1.0" encoding="UTF-8" standalone="no"?>
<svg xmlns:ffdec="https://www.free-decompiler.com/flash" xmlns:xlink="http://www.w3.org/1999/xlink" ffdec:objectType="frame" height="167.55px" width="209.0px" xmlns="http://www.w3.org/2000/svg">
  <g transform="matrix(1.0, 0.0, 0.0, 1.0, 103.25, 2.0)">
    <use ffdec:characterId="45" height="162.15" transform="matrix(1.0, 0.0, 0.0, 1.0, -103.25, 2.25)" width="143.9" xlink:href="#shape0"/>
  </g>
  <defs>
    <g id="shape0" transform="matrix(1.0, 0.0, 0.0, 1.0, 103.25, -2.25)">
      <path d="M1.0 53.75 L11.75 85.75 Q28.75 107.95 38.55 134.4 44.95 151.75 31.65 160.1 L29.0 160.0 16.25 163.5 Q-36.75 166.75 -41.75 158.0 L-59.25 149.75 -82.0 129.75 Q-96.4 108.95 -101.75 85.0 L-103.25 62.25 -102.75 50.5 -99.5 48.25 -93.5 35.75 -93.0 36.0 -78.0 5.25 Q-45.85 37.2 -10.95 4.25 L-8.75 2.25 Q-2.9 27.9 1.0 53.75" fill="#ffffff" fill-rule="evenodd" stroke="none"/>
    </g>
  </defs>
</svg>
