<?xml version="1.0" encoding="UTF-8" standalone="no"?>
<svg xmlns:ffdec="https://www.free-decompiler.com/flash" xmlns:xlink="http://www.w3.org/1999/xlink" ffdec:objectType="frame" height="167.55px" width="209.0px" xmlns="http://www.w3.org/2000/svg">
  <g transform="matrix(1.0, 0.0, 0.0, 1.0, 103.25, 2.0)">
    <use ffdec:characterId="46" height="161.25" transform="matrix(1.0, 0.0, 0.0, 1.0, -100.0, 2.75)" width="162.95" xlink:href="#shape0"/>
  </g>
  <defs>
    <g id="shape0" transform="matrix(1.0, 0.0, 0.0, 1.0, 100.0, -2.75)">
      <path d="M18.85 27.35 Q25.25 69.1 51.65 101.95 74.65 130.55 50.75 153.0 L29.75 163.0 20.5 164.0 -29.85 160.55 Q-35.0 159.85 -40.0 157.75 L-68.25 141.0 Q-77.5 129.85 -84.55 117.45 -92.3 103.9 -96.5 88.75 L-98.8 80.2 -100.0 74.75 -99.5 74.2 Q-98.6 73.15 -98.35 71.85 -97.95 69.55 -98.25 67.25 L-93.25 64.0 -74.25 34.75 -74.5 34.0 -74.0 34.25 Q-66.2 18.4 -58.0 2.75 -51.35 24.7 -27.95 26.45 -0.7 27.45 13.75 4.5 17.05 15.8 18.85 27.35" fill="#ffffff" fill-rule="evenodd" stroke="none"/>
    </g>
  </defs>
</svg>
