<?xml version="1.0" encoding="UTF-8" standalone="no"?>
<svg xmlns:ffdec="https://www.free-decompiler.com/flash" xmlns:xlink="http://www.w3.org/1999/xlink" ffdec:objectType="frame" height="167.55px" width="209.0px" xmlns="http://www.w3.org/2000/svg">
  <g transform="matrix(1.0, 0.0, 0.0, 1.0, 103.25, 2.0)">
    <use ffdec:characterId="47" height="162.7" transform="matrix(1.0, 0.0, 0.0, 1.0, -92.0, 1.0)" width="174.1" xlink:href="#shape0"/>
  </g>
  <defs>
    <g id="shape0" transform="matrix(1.0, 0.0, 0.0, 1.0, 92.0, -1.0)">
      <path d="M38.5 5.25 Q41.5 15.45 42.8 25.85 47.05 59.15 68.1 83.2 94.25 113.1 71.5 141.5 60.75 149.25 49.0 154.95 38.6 160.0 27.25 163.0 8.5 164.25 -10.15 163.25 -17.4 163.1 -24.5 160.75 -64.0 147.65 -85.35 111.65 L-87.25 108.5 -92.0 91.5 Q-88.5 87.5 -89.0 82.25 -58.75 55.75 -33.5 1.0 -15.85 44.0 22.7 21.5 32.75 15.6 38.5 5.25" fill="#ffffff" fill-rule="evenodd" stroke="none"/>
    </g>
  </defs>
</svg>
