<?xml version="1.0" encoding="UTF-8" standalone="no"?>
<svg xmlns:ffdec="https://www.free-decompiler.com/flash" xmlns:xlink="http://www.w3.org/1999/xlink" ffdec:objectType="frame" height="167.55px" width="209.0px" xmlns="http://www.w3.org/2000/svg">
  <g transform="matrix(1.0, 0.0, 0.0, 1.0, 103.25, 2.0)">
    <use ffdec:characterId="48" height="162.6" transform="matrix(1.0, 0.0, 0.0, 1.0, -63.2, 2.0)" width="167.5" xlink:href="#shape0"/>
  </g>
  <defs>
    <g id="shape0" transform="matrix(1.0, 0.0, 0.0, 1.0, 63.2, -2.0)">
      <path d="M83.4 28.5 Q105.2 55.7 104.25 89.5 L89.0 124.0 66.25 146.5 42.5 157.5 Q1.25 168.25 -9.0 162.75 L-32.0 158.0 -57.75 142.75 Q-64.25 130.0 -63.0 128.0 -22.25 78.5 -1.5 2.0 26.8 42.1 62.75 13.8 67.4 10.2 69.0 4.5 74.65 17.65 83.4 28.5" fill="#ffffff" fill-rule="evenodd" stroke="none"/>
    </g>
  </defs>
</svg>
