<?xml version="1.0" encoding="UTF-8" standalone="no"?>
<svg xmlns:ffdec="https://www.free-decompiler.com/flash" xmlns:xlink="http://www.w3.org/1999/xlink" ffdec:objectType="frame" height="188.1px" width="168.3px" xmlns="http://www.w3.org/2000/svg">
  <g transform="matrix(1.0, 0.0, 0.0, 1.0, -298.75, -90.2)">
    <use ffdec:characterId="111" height="46.05" transform="matrix(1.0, 0.0, 0.0, 1.0, 313.45, 232.25)" width="153.6" xlink:href="#sprite0"/>
    <use ffdec:characterId="157" height="19.7" transform="matrix(0.8163, 0.0, 0.0, 0.8163, 339.05, 206.8)" width="17.4" xlink:href="#sprite2"/>
    <use ffdec:characterId="157" height="19.7" transform="matrix(0.7647, 0.0, 0.0, 0.7647, 391.35, 196.2)" width="17.4" xlink:href="#sprite2"/>
    <use ffdec:characterId="159" height="125.6" transform="matrix(1.0, 0.0, 0.0, 1.0, 310.0, 90.2)" width="129.65" xlink:href="#sprite3"/>
    <use ffdec:characterId="157" height="19.7" transform="matrix(1.0, 0.0, 0.0, 1.0, 349.05, 196.25)" width="17.4" xlink:href="#sprite2"/>
    <use ffdec:characterId="157" height="19.7" transform="matrix(1.0, 0.0, 0.0, 1.0, 400.25, 186.25)" width="17.4" xlink:href="#sprite2"/>
  </g>
  <defs>
    <g id="sprite0" transform="matrix(1.0, 0.0, 0.0, 1.0, 6.8, -77.45)">
      <use ffdec:characterId="107" height="27.0" transform="matrix(0.4552, -0.0312, -0.0042, 0.2457, 3.75, 84.65)" width="92.85" xlink:href="#shape0"/>
      <use ffdec:characterId="107" height="27.0" transform="matrix(1.0, 0.0, 0.0, 1.0, 39.65, 92.4)" width="92.85" xlink:href="#shape0"/>
      <use ffdec:characterId="107" height="27.0" transform="matrix(0.6977, -0.0049, 0.0826, 0.6195, 20.4, 86.4)" width="92.85" xlink:href="#shape0"/>
      <use ffdec:characterId="107" height="27.0" transform="matrix(0.6088, -0.0439, -0.0013, 0.366, 10.95, 86.0)" width="92.85" xlink:href="#shape0"/>
      <use ffdec:characterId="108" height="21.65" transform="matrix(1.2456, 0.2085, -0.1481, 0.7657, 53.4, 93.45)" width="31.85" xlink:href="#shape1"/>
      <use ffdec:characterId="108" height="21.65" transform="matrix(0.9359, -0.024, -0.0606, 0.6043, 63.65, 93.45)" width="31.85" xlink:href="#shape1"/>
      <use ffdec:characterId="108" height="21.65" transform="matrix(1.1144, 0.0533, -0.0606, 0.6043, 50.3, 90.4)" width="31.85" xlink:href="#shape1"/>
      <use ffdec:characterId="108" height="21.65" transform="matrix(1.4771, 0.1617, -0.0394, 0.6061, 66.6, 92.3)" width="31.85" xlink:href="#shape1"/>
      <use ffdec:characterId="108" height="21.65" transform="matrix(1.0534, -0.0909, 0.0433, 0.5014, 14.95, 84.4)" width="31.85" xlink:href="#shape1"/>
      <use ffdec:characterId="108" height="21.65" transform="matrix(0.8836, -0.1655, 0.1004, 0.5192, 26.4, 84.55)" width="31.85" xlink:href="#shape1"/>
      <use ffdec:characterId="108" height="21.65" transform="matrix(0.6358, -0.0317, -0.2094, 0.5701, 22.55, 95.9)" width="31.85" xlink:href="#shape1"/>
      <use ffdec:characterId="110" height="38.5" transform="matrix(1.0, 0.0, 0.0, 1.0, -6.8, 83.25)" width="94.7" xlink:href="#sprite1"/>
      <use ffdec:characterId="110" height="38.5" transform="matrix(1.1409, -0.0355, 0.2423, 0.8404, 29.45, 80.8)" width="94.7" xlink:href="#sprite1"/>
    </g>
    <g id="shape0" transform="matrix(1.0, 0.0, 0.0, 1.0, 0.0, 0.0)">
      <path d="M92.85 5.65 L92.85 9.3 92.75 9.55 92.55 9.7 10.65 27.0 10.45 27.0 10.3 26.9 0.5 18.7 0.35 18.45 0.0 13.65 0.1 13.35 Q0.15 13.25 0.35 13.2 L76.15 0.0 76.35 0.05 92.6 5.3 92.8 5.45 92.85 5.65 M92.05 9.0 L92.05 6.0 10.9 21.45 10.8 26.15 92.05 9.0 M10.4 21.35 L0.85 14.25 1.15 18.25 10.35 25.9 10.4 21.35 M1.2 13.9 L10.7 20.95 91.15 5.65 76.2 0.85 1.2 13.9" fill="#000000" fill-rule="evenodd" stroke="none"/>
      <path d="M92.05 9.0 L10.8 26.15 10.9 21.45 92.05 6.0 92.05 9.0" fill="#672f00" fill-rule="evenodd" stroke="none"/>
      <path d="M10.4 21.35 L10.35 25.9 1.15 18.25 0.85 14.25 10.4 21.35" fill="#561d00" fill-rule="evenodd" stroke="none"/>
      <path d="M1.2 13.9 L76.2 0.85 91.15 5.65 10.7 20.95 1.2 13.9" fill="#8b5300" fill-rule="evenodd" stroke="none"/>
    </g>
    <g id="shape1" transform="matrix(1.0, 0.0, 0.0, 1.0, 0.0, 0.0)">
      <path d="M0.0 0.35 Q1.65 -1.45 13.7 6.35 26.1 14.4 31.85 21.65 11.55 5.3 0.0 0.35" fill="#895200" fill-rule="evenodd" stroke="none"/>
    </g>
    <g id="sprite1" transform="matrix(1.0, 0.0, 0.0, 1.0, 0.0, 0.0)">
      <use ffdec:characterId="109" height="38.5" transform="matrix(1.0, 0.0, 0.0, 1.0, 0.0, 0.0)" width="94.7" xlink:href="#shape2"/>
    </g>
    <g id="shape2" transform="matrix(1.0, 0.0, 0.0, 1.0, 0.0, 0.0)">
      <path d="M4.65 0.5 L3.0 0.35 3.8 0.1 8.15 0.0 Q53.45 2.15 94.55 34.55 L94.7 34.8 94.7 34.95 94.65 35.1 94.35 35.25 94.05 35.2 93.9 35.05 Q52.25 2.3 4.85 0.5 L4.65 0.5 M79.05 37.25 L79.25 37.45 79.3 37.6 79.25 37.8 79.05 37.85 78.9 37.8 78.4 37.35 76.3 35.5 Q70.75 30.65 64.95 26.45 50.65 16.2 34.65 9.9 21.2 4.55 6.5 2.0 L5.25 1.8 3.7 1.55 2.3 1.35 2.15 1.3 2.7 1.25 4.1 1.15 5.35 1.35 Q21.6 4.0 36.4 10.05 50.55 15.85 63.35 24.75 70.15 29.45 76.6 35.05 L79.05 37.25 M73.7 38.05 L73.7 38.1 73.6 38.4 73.3 38.5 73.05 38.4 72.8 38.2 Q53.85 19.95 27.6 9.85 15.95 5.35 2.9 2.45 L1.1 2.1 0.3 2.0 Q-0.35 1.9 0.45 1.7 L3.5 1.8 6.7 2.55 7.95 2.85 Q19.35 5.65 29.6 9.8 55.05 19.95 73.6 37.8 L73.7 38.05" fill="#000000" fill-rule="evenodd" stroke="none"/>
      <path d="M78.4 37.35 L73.7 38.05 73.6 37.8 Q55.05 19.95 29.6 9.8 19.35 5.65 7.95 2.85 L6.7 2.55 3.5 1.8 3.7 1.55 5.25 1.8 6.5 2.0 Q21.2 4.55 34.65 9.9 50.65 16.2 64.95 26.45 70.75 30.65 76.3 35.5 L78.4 37.35" fill="#757683" fill-rule="evenodd" stroke="none"/>
      <path d="M4.65 0.5 L4.85 0.5 Q52.25 2.3 93.9 35.05 L79.05 37.25 76.6 35.05 Q70.15 29.45 63.35 24.75 50.55 15.85 36.4 10.05 21.6 4.0 5.35 1.35 L4.1 1.15 4.65 0.5" fill="#b9b9b9" fill-rule="evenodd" stroke="none"/>
    </g>
    <g id="sprite2" transform="matrix(1.0, 0.0, 0.0, 1.0, 0.0, 0.0)">
      <use ffdec:characterId="156" height="19.7" transform="matrix(1.0, 0.0, 0.0, 1.0, 0.0, 0.0)" width="17.4" xlink:href="#shape3"/>
    </g>
    <g id="shape3" transform="matrix(1.0, 0.0, 0.0, 1.0, 0.0, 0.0)">
      <path d="M13.6 5.25 Q12.65 4.45 11.35 4.5 9.6 5.5 9.6 7.45 9.6 8.6 10.25 9.4 10.85 10.2 11.9 10.2 12.75 10.2 13.45 9.8 L14.35 8.8 14.35 8.75 14.4 8.65 14.55 7.55 Q14.55 6.1 13.6 5.25 M11.2 4.0 L11.35 4.0 Q12.85 3.9 13.95 4.85 L13.95 4.9 Q15.05 5.9 15.05 7.55 L14.85 8.8 14.85 8.9 Q14.6 9.75 13.95 10.5 12.75 11.75 11.15 11.9 9.55 12.1 8.35 11.05 7.15 10.05 7.15 8.4 7.15 6.75 8.3 5.45 L8.35 5.45 Q9.5 4.2 11.1 4.0 L11.2 4.0 M13.25 10.45 L11.9 10.7 Q10.65 10.7 9.85 9.7 9.1 8.8 9.1 7.45 9.1 5.8 10.2 4.75 9.35 5.05 8.7 5.8 7.65 6.95 7.65 8.4 7.65 9.8 8.65 10.65 L8.7 10.7 Q9.7 11.6 11.1 11.4 12.3 11.3 13.25 10.45 M17.4 10.1 L17.4 10.35 17.4 10.65 17.4 10.7 Q17.2 14.45 14.7 17.15 12.2 19.8 8.5 19.7 4.8 19.6 2.4 16.95 0.0 14.25 0.0 10.1 0.0 5.9 2.5 2.95 L3.5 1.95 Q5.75 0.0 8.7 0.0 12.35 0.0 14.85 2.95 17.4 5.9 17.4 10.1 M16.6 10.35 L16.6 10.1 Q16.6 6.2 14.25 3.45 11.95 0.8 8.7 0.8 6.05 0.8 4.0 2.55 L4.05 2.55 3.8 2.8 Q1.4 8.15 4.0 12.3 5.95 15.35 8.4 16.0 L8.45 16.0 Q11.45 16.85 13.7 15.35 15.6 14.05 16.55 11.25 L16.6 10.65 16.6 10.35 M2.85 3.75 Q0.8 6.4 0.8 10.1 0.8 13.95 3.0 16.4 5.2 18.8 8.5 18.9 11.8 19.0 14.1 16.6 15.3 15.3 15.9 13.8 15.1 15.0 14.0 15.75 11.55 17.45 8.3 16.5 5.65 15.8 3.6 12.55 1.1 8.65 2.85 3.75" fill="#000000" fill-rule="evenodd" stroke="none"/>
      <path d="M11.2 4.0 L11.1 4.0 Q9.5 4.2 8.35 5.45 L8.3 5.45 Q7.15 6.75 7.15 8.4 7.15 10.05 8.35 11.05 9.55 12.1 11.15 11.9 12.75 11.75 13.95 10.5 14.6 9.75 14.85 8.9 L14.85 8.8 15.05 7.55 Q15.05 5.9 13.95 4.9 L13.95 4.85 Q12.85 3.9 11.35 4.0 L11.2 4.0 M13.6 5.25 Q14.55 6.1 14.55 7.55 L14.4 8.65 14.35 8.75 14.35 8.8 13.45 9.8 Q12.75 10.2 11.9 10.2 10.85 10.2 10.25 9.4 9.6 8.6 9.6 7.45 9.6 5.5 11.35 4.5 12.65 4.45 13.6 5.25 M16.6 10.35 L16.6 10.65 16.55 11.25 Q15.6 14.05 13.7 15.35 11.45 16.85 8.45 16.0 L8.4 16.0 Q5.95 15.35 4.0 12.3 1.4 8.15 3.8 2.8 L4.05 2.55 4.0 2.55 Q6.05 0.8 8.7 0.8 11.95 0.8 14.25 3.45 16.6 6.2 16.6 10.1 L16.6 10.35" fill="#757683" fill-rule="evenodd" stroke="none"/>
      <path d="M13.25 10.45 Q12.3 11.3 11.1 11.4 9.7 11.6 8.7 10.7 L8.65 10.65 Q7.65 9.8 7.65 8.4 7.65 6.95 8.7 5.8 9.35 5.05 10.2 4.75 9.1 5.8 9.1 7.45 9.1 8.8 9.85 9.7 10.65 10.7 11.9 10.7 L13.25 10.45 M2.85 3.75 Q1.1 8.65 3.6 12.55 5.65 15.8 8.3 16.5 11.55 17.45 14.0 15.75 15.1 15.0 15.9 13.8 15.3 15.3 14.1 16.6 11.8 19.0 8.5 18.9 5.2 18.8 3.0 16.4 0.8 13.95 0.8 10.1 0.8 6.4 2.85 3.75" fill="#8e9297" fill-rule="evenodd" stroke="none"/>
    </g>
    <g id="sprite3" transform="matrix(1.0, 0.0, 0.0, 1.0, 0.0, 0.0)">
      <use ffdec:characterId="158" height="125.6" transform="matrix(1.0, 0.0, 0.0, 1.0, 0.0, 0.0)" width="129.65" xlink:href="#shape4"/>
    </g>
    <g id="shape4" transform="matrix(1.0, 0.0, 0.0, 1.0, 0.0, 0.0)">
      <path d="M122.5 46.0 L122.45 46.15 116.0 54.85 117.25 59.1 117.6 59.0 117.8 59.05 117.95 59.2 118.1 59.4 118.2 59.5 118.2 59.55 119.75 61.65 121.15 61.3 121.4 61.35 121.6 61.45 Q123.0 63.3 123.0 65.0 L122.6 67.3 122.5 67.5 122.3 67.6 121.2 67.85 121.2 67.9 Q121.2 69.85 120.8 71.1 L120.45 72.05 120.35 72.2 120.15 72.3 119.3 72.55 119.25 72.55 119.25 74.75 Q119.2 77.95 118.75 81.15 L119.9 79.8 Q120.0 79.65 120.15 79.65 L126.25 78.75 126.55 78.85 126.7 79.05 129.65 89.45 129.65 89.7 129.5 89.9 109.1 103.7 108.8 103.75 108.6 103.65 105.15 107.3 104.95 107.4 27.95 125.45 27.25 125.6 Q25.55 125.75 23.2 123.3 19.6 119.7 14.7 110.8 10.3 102.8 8.0 96.25 L3.05 96.25 2.8 96.15 2.65 95.85 2.7 95.65 Q1.05 93.95 0.0 89.1 L0.05 88.85 Q3.15 82.4 5.95 77.1 L5.85 76.9 5.9 76.95 5.7 76.65 5.65 76.6 Q4.8 75.0 4.9 72.05 5.0 68.95 7.55 67.25 9.95 65.5 12.6 64.95 L12.85 65.0 Q14.75 61.95 16.55 59.6 L16.75 59.45 Q29.55 54.85 41.65 51.15 L41.65 50.95 41.8 50.7 49.3 44.3 Q55.1 39.0 59.5 34.1 58.1 29.95 56.3 25.8 55.05 22.9 54.75 20.95 54.35 18.35 55.95 14.5 57.55 10.55 62.15 8.6 66.7 6.65 70.4 8.7 L71.15 8.4 70.35 8.05 Q68.75 7.3 67.85 6.65 L67.65 6.4 67.75 6.1 Q70.2 2.6 74.5 2.6 75.95 2.6 77.8 3.25 L77.5 2.8 77.5 2.75 76.6 1.0 76.6 0.75 Q76.6 0.6 76.75 0.55 L77.45 0.2 77.4 0.25 79.4 0.0 Q81.15 0.0 83.25 1.4 L84.55 2.4 84.3 1.15 84.35 0.85 Q84.45 0.7 84.6 0.7 L84.9 0.7 Q86.8 1.6 88.35 2.95 L88.4 2.95 Q91.0 5.35 91.0 8.1 L90.8 9.25 92.55 11.85 Q94.0 14.6 94.0 17.5 94.0 19.95 92.55 22.1 91.25 23.9 89.0 25.25 L91.75 28.9 97.05 37.8 97.1 37.9 100.1 37.45 100.2 37.15 102.25 34.65 102.25 34.7 Q103.85 33.0 105.9 33.0 107.5 33.0 109.2 34.5 L109.2 34.55 110.55 35.95 110.65 36.15 115.7 35.7 115.85 35.75 Q120.95 37.8 122.5 45.85 L122.5 46.0 M85.8 4.75 L84.85 3.8 Q83.9 2.75 82.8 2.05 80.95 0.8 79.4 0.8 L77.65 1.0 77.6 1.0 77.5 1.05 78.2 2.35 79.1 3.75 Q79.9 4.65 80.1 5.25 79.75 4.9 78.65 4.45 L78.05 4.2 Q76.05 3.4 74.5 3.4 70.8 3.4 68.65 6.2 L70.7 7.3 72.45 8.05 74.3 7.95 Q75.35 8.0 76.05 8.4 L74.65 8.5 72.5 8.85 72.45 8.85 70.65 9.45 70.55 9.5 70.5 9.55 Q69.95 9.7 69.5 10.0 66.5 11.7 65.6 14.15 L66.2 14.45 66.25 14.45 67.9 14.6 70.0 14.4 70.5 14.3 71.3 14.05 70.3 15.15 70.25 15.2 Q68.3 16.85 67.75 18.0 66.75 19.85 66.5 21.0 L67.0 21.0 69.85 20.65 69.8 20.65 70.8 20.25 72.25 19.6 72.3 19.6 70.85 21.15 70.8 21.7 Q70.8 25.05 73.05 26.9 74.8 28.35 77.2 28.4 78.2 26.5 79.55 24.9 81.9 22.15 83.8 22.2 85.95 22.15 88.45 24.65 90.65 23.35 91.9 21.65 93.2 19.75 93.2 17.5 93.2 14.8 91.85 12.2 91.05 10.6 90.15 9.7 L90.0 9.4 90.0 9.25 90.05 9.15 90.2 8.1 Q90.2 5.65 87.85 3.55 L85.25 1.8 85.55 3.3 86.1 5.05 85.8 4.75 M88.15 25.5 L88.05 25.45 Q85.75 23.05 83.8 23.0 82.2 23.05 80.15 25.4 78.8 27.0 77.8 28.95 L77.75 29.0 76.15 31.9 76.8 29.2 Q74.35 29.0 72.55 27.5 70.0 25.45 70.0 21.7 L70.0 21.4 67.0 21.8 66.0 21.75 65.75 21.6 65.65 21.35 Q65.75 20.0 67.05 17.6 L67.05 17.65 Q67.5 16.7 68.9 15.4 L67.9 15.4 66.0 15.2 64.85 14.65 64.75 14.45 64.75 14.2 Q65.65 11.3 69.1 9.3 L69.45 9.15 62.45 9.35 Q58.15 11.15 56.7 14.8 55.2 18.4 55.55 20.85 55.85 22.7 57.05 25.5 L59.25 31.05 59.85 32.85 Q60.5 35.3 59.95 37.8 L59.7 35.85 59.6 35.2 Q55.35 39.9 49.85 44.9 L43.15 50.65 Q71.85 41.9 96.25 38.05 L91.1 29.35 Q89.55 26.95 88.15 25.5 M22.7 68.45 Q95.15 46.75 121.65 45.7 120.15 38.5 115.65 36.5 L110.9 36.95 99.8 38.35 97.1 38.75 Q71.05 42.75 40.05 52.45 29.35 55.75 18.1 59.8 18.85 60.05 19.55 60.9 20.85 62.3 22.05 65.55 L21.8 65.15 Q19.6 61.5 18.4 60.85 17.15 60.1 16.3 61.3 L13.6 65.4 Q11.75 68.25 9.8 71.75 L9.9 72.15 9.9 72.2 10.2 73.5 Q10.8 75.95 10.8 76.9 10.85 78.6 8.7 78.6 7.45 78.6 6.5 77.7 3.8 82.85 0.85 89.05 1.9 93.85 3.5 95.3 12.1 80.4 22.25 68.65 22.3 68.55 22.4 68.55 L22.7 68.45 M105.9 33.8 Q104.15 33.8 102.8 35.25 102.4 35.55 101.1 37.35 L109.75 36.25 108.65 35.1 Q107.2 33.8 105.9 33.8 M114.1 50.2 L114.4 50.2 114.6 50.45 115.7 53.9 121.45 46.2 Q94.85 47.35 22.7 69.0 L22.6 69.05 Q12.55 80.7 4.0 95.45 L8.2 95.45 Q8.7 94.4 10.8 91.3 13.5 87.15 18.95 79.45 L23.2 73.35 23.35 73.3 Q36.45 68.9 52.7 64.55 L52.85 64.6 52.95 64.5 Q68.7 60.3 87.25 56.1 L87.4 56.15 87.45 56.1 87.65 56.1 87.75 56.0 Q100.1 53.15 113.8 50.4 L113.85 50.4 113.85 50.35 114.1 50.2 M115.2 55.0 L115.15 54.85 114.95 54.15 113.9 50.9 Q100.25 53.65 87.9 56.5 90.3 61.3 91.65 68.1 92.75 73.8 93.0 79.75 105.95 76.8 118.45 74.6 L118.4 72.4 118.3 70.3 Q117.9 64.95 116.65 59.9 L115.2 55.0 M121.1 62.15 L120.15 62.4 120.3 62.65 Q121.1 64.4 121.2 67.0 L121.85 66.85 122.2 65.0 Q122.2 63.6 121.1 62.15 M117.7 60.15 L117.55 60.15 Q118.7 65.05 119.1 70.25 L119.2 71.75 119.75 71.6 120.05 70.8 120.05 70.85 Q120.4 69.65 120.4 67.9 L120.4 67.6 120.4 67.5 Q120.35 64.8 119.55 63.0 L119.55 62.95 119.25 62.35 119.2 62.3 119.2 62.25 119.15 62.2 117.7 60.15 M118.7 82.3 L118.6 82.3 Q117.95 86.1 116.75 89.9 115.3 94.4 112.35 98.8 L122.75 90.35 120.15 80.8 119.0 82.15 118.7 82.3 M93.0 80.25 L93.05 82.6 Q93.05 96.7 87.0 106.0 84.5 109.85 81.95 111.95 L104.7 106.65 106.15 105.2 109.45 101.4 Q114.05 95.6 116.0 89.65 L117.65 83.1 Q118.35 79.1 118.45 75.1 105.95 77.35 93.0 80.25 M92.55 82.6 L92.5 80.4 Q76.7 83.9 60.25 88.4 60.95 93.9 60.35 99.5 59.05 111.0 51.05 119.2 L80.75 112.25 Q83.7 110.2 86.6 105.75 92.55 96.5 92.55 82.6 M87.4 56.6 L87.35 56.6 Q68.85 60.8 53.15 65.0 55.45 68.85 57.5 75.4 59.5 81.9 60.2 87.9 76.65 83.4 92.5 79.85 92.3 73.95 91.15 68.2 89.8 61.4 87.4 56.6 M127.9 90.0 L123.15 90.65 112.0 99.7 111.85 99.75 111.7 99.7 109.75 102.3 127.9 90.0 M123.25 90.15 L128.8 89.35 126.05 79.6 120.6 80.4 123.25 90.15 M9.45 69.25 L9.6 70.4 12.35 65.85 Q10.05 66.4 8.0 67.9 5.8 69.35 5.7 72.1 5.6 74.8 6.35 76.2 L6.55 76.5 7.0 77.1 Q7.7 77.8 8.7 77.8 9.95 77.8 10.0 76.9 L9.85 75.6 9.65 74.7 Q9.05 72.65 9.0 70.55 L9.0 70.35 Q9.05 69.9 9.25 69.6 L9.45 69.25 M11.15 91.55 L11.25 91.65 23.7 122.35 23.95 122.6 24.0 122.75 23.95 122.95 Q25.85 124.85 27.25 124.8 L27.7 124.7 27.75 124.65 28.05 124.6 Q28.95 123.8 29.85 121.9 31.05 119.25 31.65 115.25 L31.6 115.25 31.5 115.1 19.0 80.3 Q13.75 87.65 11.15 91.55 M8.55 95.6 L8.65 95.75 Q10.9 102.3 15.4 110.4 19.75 118.35 23.05 122.0 L10.85 92.0 8.55 95.6 M19.3 79.85 L19.4 80.0 31.75 114.45 32.15 109.6 Q32.35 105.35 31.7 99.95 L31.35 97.2 31.25 96.45 31.3 96.35 31.2 96.2 29.9 90.1 Q27.55 81.25 23.4 74.0 L19.3 79.85 M30.4 89.95 L31.7 96.1 Q45.9 91.7 59.7 88.0 59.0 82.0 57.0 75.55 54.95 68.95 52.65 65.1 36.75 69.35 23.8 73.65 28.05 81.0 30.4 89.95 M31.8 96.6 L31.85 97.15 32.2 99.9 Q32.85 105.35 32.65 109.6 L32.05 116.0 Q31.4 119.65 30.3 122.1 L29.0 124.4 50.15 119.45 Q58.55 111.15 59.85 99.45 60.45 93.95 59.75 88.55 46.0 92.2 31.8 96.6" fill="#000000" fill-rule="evenodd" stroke="none"/>
      <path d="M85.8 4.75 L86.1 5.05 85.55 3.3 85.25 1.8 87.85 3.55 Q90.2 5.65 90.2 8.1 L90.05 9.15 90.0 9.25 90.0 9.4 90.15 9.7 Q91.05 10.6 91.85 12.2 93.2 14.8 93.2 17.5 93.2 19.75 91.9 21.65 90.65 23.35 88.45 24.65 85.95 22.15 83.8 22.2 81.9 22.15 79.55 24.9 78.2 26.5 77.2 28.4 74.8 28.35 73.05 26.9 70.8 25.05 70.8 21.7 L70.85 21.15 72.3 19.6 72.25 19.6 70.8 20.25 69.8 20.65 69.85 20.65 67.0 21.0 66.5 21.0 Q66.75 19.85 67.75 18.0 68.3 16.85 70.25 15.2 L70.3 15.15 71.3 14.05 70.5 14.3 70.0 14.4 67.9 14.6 66.25 14.45 66.2 14.45 65.6 14.15 Q66.5 11.7 69.5 10.0 69.95 9.7 70.5 9.55 L70.55 9.5 70.65 9.45 72.45 8.85 72.5 8.85 74.65 8.5 76.05 8.4 Q75.35 8.0 74.3 7.95 L72.45 8.05 70.7 7.3 68.65 6.2 Q70.8 3.4 74.5 3.4 76.05 3.4 78.05 4.2 L78.65 4.45 Q79.75 4.9 80.1 5.25 79.9 4.65 79.1 3.75 L78.2 2.35 77.5 1.05 77.6 1.0 77.65 1.0 79.4 0.8 Q80.95 0.8 82.8 2.05 83.9 2.75 84.85 3.8 L85.8 4.75" fill="#666666" fill-rule="evenodd" stroke="none"/>
      <path d="M88.15 25.5 Q89.55 26.95 91.1 29.35 L96.25 38.05 Q71.85 41.9 43.15 50.65 L49.85 44.9 Q55.35 39.9 59.6 35.2 L59.7 35.85 59.95 37.8 Q60.5 35.3 59.85 32.85 L59.25 31.05 57.05 25.5 Q55.85 22.7 55.55 20.85 55.2 18.4 56.7 14.8 58.15 11.15 62.45 9.35 L69.45 9.15 69.1 9.3 Q65.65 11.3 64.75 14.2 L64.75 14.45 64.85 14.65 66.0 15.2 67.9 15.4 68.9 15.4 Q67.5 16.7 67.05 17.65 L67.05 17.6 Q65.75 20.0 65.65 21.35 L65.75 21.6 66.0 21.75 67.0 21.8 70.0 21.4 70.0 21.7 Q70.0 25.45 72.55 27.5 74.35 29.0 76.8 29.2 L76.15 31.9 77.75 29.0 77.8 28.95 Q78.8 27.0 80.15 25.4 82.2 23.05 83.8 23.0 85.75 23.05 88.05 25.45 L88.15 25.5 M105.9 33.8 Q107.2 33.8 108.65 35.1 L109.75 36.25 101.1 37.35 Q102.4 35.55 102.8 35.25 104.15 33.8 105.9 33.8 M9.45 69.25 L9.25 69.6 Q9.05 69.9 9.0 70.35 L9.0 70.55 Q9.05 72.65 9.65 74.7 L9.85 75.6 10.0 76.9 Q9.95 77.8 8.7 77.8 7.7 77.8 7.0 77.1 L6.55 76.5 6.35 76.2 Q5.6 74.8 5.7 72.1 5.8 69.35 8.0 67.9 10.05 66.4 12.35 65.85 L9.6 70.4 9.45 69.25" fill="#650099" fill-rule="evenodd" stroke="none"/>
      <path d="M21.8 65.15 L22.05 65.55 Q20.85 62.3 19.55 60.9 18.85 60.05 18.1 59.8 29.35 55.75 40.05 52.45 71.05 42.75 97.1 38.75 L99.8 38.35 110.9 36.95 115.65 36.5 Q120.15 38.5 121.65 45.7 95.15 46.75 22.7 68.45 22.6 66.95 21.8 65.15 M117.7 60.15 L119.15 62.2 119.2 62.25 119.2 62.3 119.25 62.35 119.55 62.95 119.55 63.0 Q120.35 64.8 120.4 67.5 L120.4 67.6 120.4 67.9 Q120.4 69.65 120.05 70.85 L120.05 70.8 119.75 71.6 119.2 71.75 119.1 70.25 Q118.7 65.05 117.55 60.15 L117.7 60.15 M121.1 62.15 Q122.2 63.6 122.2 65.0 L121.85 66.85 121.2 67.0 Q121.1 64.4 120.3 62.65 L120.15 62.4 121.1 62.15 M123.25 90.15 L120.6 80.4 126.05 79.6 128.8 89.35 123.25 90.15" fill="#b9b9b9" fill-rule="evenodd" stroke="none"/>
      <path d="M114.1 50.2 L113.85 50.35 113.85 50.4 113.8 50.4 Q100.1 53.15 87.75 56.0 L87.65 56.1 87.45 56.1 87.4 56.15 87.25 56.1 Q68.7 60.3 52.95 64.5 L52.85 64.6 52.7 64.55 Q36.45 68.9 23.35 73.3 L23.2 73.35 18.95 79.45 Q13.5 87.15 10.8 91.3 8.7 94.4 8.2 95.45 L4.0 95.45 Q12.55 80.7 22.6 69.05 L22.7 69.0 Q94.85 47.35 121.45 46.2 L115.7 53.9 114.6 50.45 114.4 50.2 114.1 50.2 M127.9 90.0 L109.75 102.3 111.7 99.7 111.85 99.75 112.0 99.7 123.15 90.65 127.9 90.0 M19.3 79.85 L23.4 74.0 Q27.55 81.25 29.9 90.1 L31.2 96.2 31.3 96.35 31.25 96.45 31.35 97.2 31.7 99.95 Q32.35 105.35 32.15 109.6 L31.75 114.45 19.4 80.0 19.3 79.85 M8.55 95.6 L10.85 92.0 23.05 122.0 Q19.75 118.35 15.4 110.4 10.9 102.3 8.65 95.75 L8.55 95.6 M11.15 91.55 Q13.75 87.65 19.0 80.3 L31.5 115.1 31.6 115.25 31.65 115.25 Q31.05 119.25 29.85 121.9 28.95 123.8 28.05 124.6 L27.75 124.65 27.7 124.7 27.25 124.8 Q25.85 124.85 23.95 122.95 L24.0 122.75 23.95 122.6 23.7 122.35 11.25 91.65 11.15 91.55" fill="#757683" fill-rule="evenodd" stroke="none"/>
      <path d="M22.7 68.45 L22.4 68.55 Q22.3 68.55 22.25 68.65 12.1 80.4 3.5 95.3 1.9 93.85 0.85 89.05 3.8 82.85 6.5 77.7 7.45 78.6 8.7 78.6 10.85 78.6 10.8 76.9 10.8 75.95 10.2 73.5 L9.9 72.2 9.9 72.15 9.8 71.75 Q11.75 68.25 13.6 65.4 L16.3 61.3 Q17.15 60.1 18.4 60.85 19.6 61.5 21.8 65.15 22.6 66.95 22.7 68.45 M115.2 55.0 L116.65 59.9 Q117.9 64.95 118.3 70.3 L118.4 72.4 118.45 74.6 Q105.95 76.8 93.0 79.75 92.75 73.8 91.65 68.1 90.3 61.3 87.9 56.5 100.25 53.65 113.9 50.9 L114.95 54.15 115.15 54.85 115.2 55.0 M87.4 56.6 Q89.8 61.4 91.15 68.2 92.3 73.95 92.5 79.85 76.65 83.4 60.2 87.9 59.5 81.9 57.5 75.4 55.45 68.85 53.15 65.0 68.85 60.8 87.35 56.6 L87.4 56.6 M92.55 82.6 Q92.55 96.5 86.6 105.75 83.7 110.2 80.75 112.25 L51.05 119.2 Q59.05 111.0 60.35 99.5 60.95 93.9 60.25 88.4 76.7 83.9 92.5 80.4 L92.55 82.6 M93.0 80.25 Q105.95 77.35 118.45 75.1 118.35 79.1 117.65 83.1 L116.0 89.65 Q114.05 95.6 109.45 101.4 L106.15 105.2 104.7 106.65 81.95 111.95 Q84.5 109.85 87.0 106.0 93.05 96.7 93.05 82.6 L93.0 80.25 M118.7 82.3 L119.0 82.15 120.15 80.8 122.75 90.35 112.35 98.8 Q115.3 94.4 116.75 89.9 117.95 86.1 118.6 82.3 L118.7 82.3 M31.8 96.6 Q46.0 92.2 59.75 88.55 60.45 93.95 59.85 99.45 58.55 111.15 50.15 119.45 L29.0 124.4 30.3 122.1 Q31.4 119.65 32.05 116.0 L32.65 109.6 Q32.85 105.35 32.2 99.9 L31.85 97.15 31.8 96.6 M30.4 89.95 Q28.05 81.0 23.8 73.65 36.75 69.35 52.65 65.1 54.95 68.95 57.0 75.55 59.0 82.0 59.7 88.0 45.9 91.7 31.7 96.1 L30.4 89.95" fill="#8e9297" fill-rule="evenodd" stroke="none"/>
    </g>
  </defs>
</svg>
