<?xml version="1.0" encoding="UTF-8" standalone="no"?>
<svg xmlns:ffdec="https://www.free-decompiler.com/flash" xmlns:xlink="http://www.w3.org/1999/xlink" ffdec:objectType="frame" height="188.1px" width="168.3px" xmlns="http://www.w3.org/2000/svg">
  <g transform="matrix(1.0, 0.0, 0.0, 1.0, -298.75, -90.2)">
    <use ffdec:characterId="111" height="46.05" transform="matrix(1.0, 0.0, 0.0, 1.0, 313.45, 232.25)" width="153.6" xlink:href="#sprite0"/>
    <use ffdec:characterId="161" height="24.05" transform="matrix(0.8059, 0.095, -0.095, 0.8059, 402.15, 187.8)" width="20.7" xlink:href="#sprite2"/>
    <use ffdec:characterId="161" height="24.05" transform="matrix(0.529, -0.0022, 0.0024, 0.5677, 373.25, 199.25)" width="20.7" xlink:href="#sprite2"/>
    <use ffdec:characterId="163" height="108.6" transform="matrix(1.0, 0.0, 0.0, 1.0, 312.8, 106.2)" width="120.55" xlink:href="#sprite3"/>
    <use ffdec:characterId="165" height="24.1" transform="matrix(1.0, 0.0, 0.0, 1.0, 359.4, 192.95)" width="20.7" xlink:href="#sprite4"/>
    <use ffdec:characterId="165" height="24.1" transform="matrix(0.6471, -0.0791, 0.0849, 0.6945, 339.75, 205.45)" width="20.7" xlink:href="#sprite4"/>
  </g>
  <defs>
    <g id="sprite0" transform="matrix(1.0, 0.0, 0.0, 1.0, 6.8, -77.45)">
      <use ffdec:characterId="107" height="27.0" transform="matrix(0.4552, -0.0312, -0.0042, 0.2457, 3.75, 84.65)" width="92.85" xlink:href="#shape0"/>
      <use ffdec:characterId="107" height="27.0" transform="matrix(1.0, 0.0, 0.0, 1.0, 39.65, 92.4)" width="92.85" xlink:href="#shape0"/>
      <use ffdec:characterId="107" height="27.0" transform="matrix(0.6977, -0.0049, 0.0826, 0.6195, 20.4, 86.4)" width="92.85" xlink:href="#shape0"/>
      <use ffdec:characterId="107" height="27.0" transform="matrix(0.6088, -0.0439, -0.0013, 0.366, 10.95, 86.0)" width="92.85" xlink:href="#shape0"/>
      <use ffdec:characterId="108" height="21.65" transform="matrix(1.2456, 0.2085, -0.1481, 0.7657, 53.4, 93.45)" width="31.85" xlink:href="#shape1"/>
      <use ffdec:characterId="108" height="21.65" transform="matrix(0.9359, -0.024, -0.0606, 0.6043, 63.65, 93.45)" width="31.85" xlink:href="#shape1"/>
      <use ffdec:characterId="108" height="21.65" transform="matrix(1.1144, 0.0533, -0.0606, 0.6043, 50.3, 90.4)" width="31.85" xlink:href="#shape1"/>
      <use ffdec:characterId="108" height="21.65" transform="matrix(1.4771, 0.1617, -0.0394, 0.6061, 66.6, 92.3)" width="31.85" xlink:href="#shape1"/>
      <use ffdec:characterId="108" height="21.65" transform="matrix(1.0534, -0.0909, 0.0433, 0.5014, 14.95, 84.4)" width="31.85" xlink:href="#shape1"/>
      <use ffdec:characterId="108" height="21.65" transform="matrix(0.8836, -0.1655, 0.1004, 0.5192, 26.4, 84.55)" width="31.85" xlink:href="#shape1"/>
      <use ffdec:characterId="108" height="21.65" transform="matrix(0.6358, -0.0317, -0.2094, 0.5701, 22.55, 95.9)" width="31.85" xlink:href="#shape1"/>
      <use ffdec:characterId="110" height="38.5" transform="matrix(1.0, 0.0, 0.0, 1.0, -6.8, 83.25)" width="94.7" xlink:href="#sprite1"/>
      <use ffdec:characterId="110" height="38.5" transform="matrix(1.1409, -0.0355, 0.2423, 0.8404, 29.45, 80.8)" width="94.7" xlink:href="#sprite1"/>
    </g>
    <g id="shape0" transform="matrix(1.0, 0.0, 0.0, 1.0, 0.0, 0.0)">
      <path d="M92.85 5.65 L92.85 9.3 92.75 9.55 92.55 9.7 10.65 27.0 10.45 27.0 10.3 26.9 0.5 18.7 0.35 18.45 0.0 13.65 0.1 13.35 Q0.15 13.25 0.35 13.2 L76.15 0.0 76.35 0.05 92.6 5.3 92.8 5.45 92.85 5.65 M92.05 9.0 L92.05 6.0 10.9 21.45 10.8 26.15 92.05 9.0 M10.4 21.35 L0.85 14.25 1.15 18.25 10.35 25.9 10.4 21.35 M1.2 13.9 L10.7 20.95 91.15 5.65 76.2 0.85 1.2 13.9" fill="#000000" fill-rule="evenodd" stroke="none"/>
      <path d="M92.05 9.0 L10.8 26.15 10.9 21.45 92.05 6.0 92.05 9.0" fill="#672f00" fill-rule="evenodd" stroke="none"/>
      <path d="M10.4 21.35 L10.35 25.9 1.15 18.25 0.85 14.25 10.4 21.35" fill="#561d00" fill-rule="evenodd" stroke="none"/>
      <path d="M1.2 13.9 L76.2 0.85 91.15 5.65 10.7 20.95 1.2 13.9" fill="#8b5300" fill-rule="evenodd" stroke="none"/>
    </g>
    <g id="shape1" transform="matrix(1.0, 0.0, 0.0, 1.0, 0.0, 0.0)">
      <path d="M0.0 0.35 Q1.65 -1.45 13.7 6.35 26.1 14.4 31.85 21.65 11.55 5.3 0.0 0.35" fill="#895200" fill-rule="evenodd" stroke="none"/>
    </g>
    <g id="sprite1" transform="matrix(1.0, 0.0, 0.0, 1.0, 0.0, 0.0)">
      <use ffdec:characterId="109" height="38.5" transform="matrix(1.0, 0.0, 0.0, 1.0, 0.0, 0.0)" width="94.7" xlink:href="#shape2"/>
    </g>
    <g id="shape2" transform="matrix(1.0, 0.0, 0.0, 1.0, 0.0, 0.0)">
      <path d="M4.65 0.5 L3.0 0.35 3.8 0.1 8.15 0.0 Q53.45 2.15 94.55 34.55 L94.7 34.8 94.7 34.95 94.65 35.1 94.35 35.25 94.05 35.2 93.9 35.05 Q52.25 2.3 4.85 0.5 L4.65 0.5 M79.05 37.25 L79.25 37.45 79.3 37.6 79.25 37.8 79.05 37.85 78.9 37.8 78.4 37.35 76.3 35.5 Q70.75 30.65 64.95 26.45 50.65 16.2 34.65 9.9 21.2 4.55 6.5 2.0 L5.25 1.8 3.7 1.55 2.3 1.35 2.15 1.3 2.7 1.25 4.1 1.15 5.35 1.35 Q21.6 4.0 36.4 10.05 50.55 15.85 63.35 24.75 70.15 29.45 76.6 35.05 L79.05 37.25 M73.7 38.05 L73.7 38.1 73.6 38.4 73.3 38.5 73.05 38.4 72.8 38.2 Q53.85 19.95 27.6 9.85 15.95 5.35 2.9 2.45 L1.1 2.1 0.3 2.0 Q-0.35 1.9 0.45 1.7 L3.5 1.8 6.7 2.55 7.95 2.85 Q19.35 5.65 29.6 9.8 55.05 19.95 73.6 37.8 L73.7 38.05" fill="#000000" fill-rule="evenodd" stroke="none"/>
      <path d="M78.4 37.35 L73.7 38.05 73.6 37.8 Q55.05 19.95 29.6 9.8 19.35 5.65 7.95 2.85 L6.7 2.55 3.5 1.8 3.7 1.55 5.25 1.8 6.5 2.0 Q21.2 4.55 34.65 9.9 50.65 16.2 64.95 26.45 70.75 30.65 76.3 35.5 L78.4 37.35" fill="#757683" fill-rule="evenodd" stroke="none"/>
      <path d="M4.65 0.5 L4.85 0.5 Q52.25 2.3 93.9 35.05 L79.05 37.25 76.6 35.05 Q70.15 29.45 63.35 24.75 50.55 15.85 36.4 10.05 21.6 4.0 5.35 1.35 L4.1 1.15 4.65 0.5" fill="#b9b9b9" fill-rule="evenodd" stroke="none"/>
    </g>
    <g id="sprite2" transform="matrix(1.0, 0.0, 0.0, 1.0, 0.0, 0.0)">
      <use ffdec:characterId="160" height="24.05" transform="matrix(1.0, 0.0, 0.0, 1.0, 0.0, 0.0)" width="20.7" xlink:href="#shape3"/>
    </g>
    <g id="shape3" transform="matrix(1.0, 0.0, 0.0, 1.0, 0.0, 0.0)">
      <path d="M16.45 2.2 Q19.05 4.95 20.15 9.55 21.2 14.15 20.25 17.9 19.7 19.9 18.75 21.05 L18.6 21.2 10.15 23.8 9.85 23.75 9.8 23.75 9.6 23.95 8.9 24.05 8.85 24.05 Q6.6 24.25 4.25 21.65 1.7 18.8 0.6 14.2 -0.5 9.6 0.45 5.9 L0.5 5.9 Q1.5 2.3 3.85 1.55 L4.1 1.55 4.25 1.45 4.65 1.35 4.95 1.4 Q5.0 1.3 5.1 1.3 L13.5 0.0 13.7 0.05 Q15.1 0.6 16.45 2.2 M19.35 9.75 Q18.35 5.35 15.85 2.75 L15.85 2.7 Q14.65 1.35 13.5 0.85 L7.05 1.85 Q8.25 2.4 9.45 3.8 12.05 6.55 13.15 11.15 14.2 15.75 13.25 19.5 12.8 21.3 11.95 22.4 L18.25 20.45 19.5 17.7 Q20.4 14.15 19.35 9.75 M6.25 2.35 L6.0 2.15 5.95 2.0 5.2 2.1 5.0 2.1 4.85 2.15 4.45 2.25 4.2 2.25 4.1 2.3 Q2.1 3.0 1.25 6.1 0.4 9.6 1.4 14.0 2.4 18.4 4.85 21.1 6.9 23.35 8.85 23.25 L9.35 23.2 9.65 23.2 9.65 23.25 Q9.7 23.1 9.9 23.05 L10.8 22.75 10.8 22.65 10.95 22.4 Q11.95 21.35 12.5 19.3 13.4 15.75 12.35 11.35 11.35 6.95 8.85 4.35 7.55 2.8 6.25 2.35" fill="#000000" fill-rule="evenodd" stroke="none"/>
      <path d="M19.35 9.75 Q20.4 14.15 19.5 17.7 L18.25 20.45 11.95 22.4 Q12.8 21.3 13.25 19.5 14.2 15.75 13.15 11.15 12.05 6.55 9.45 3.8 8.25 2.4 7.05 1.85 L13.5 0.85 Q14.65 1.35 15.85 2.7 L15.85 2.75 Q18.35 5.35 19.35 9.75" fill="#b9b9b9" fill-rule="evenodd" stroke="none"/>
      <path d="M6.25 2.35 Q7.55 2.8 8.85 4.35 11.35 6.95 12.35 11.35 13.4 15.75 12.5 19.3 11.95 21.35 10.95 22.4 L10.8 22.65 10.8 22.75 9.9 23.05 Q9.7 23.1 9.65 23.25 L9.65 23.2 9.35 23.2 8.85 23.25 Q6.9 23.35 4.85 21.1 2.4 18.4 1.4 14.0 0.4 9.6 1.25 6.1 2.1 3.0 4.1 2.3 L4.2 2.25 4.45 2.25 4.85 2.15 5.0 2.1 5.2 2.1 5.95 2.0 6.0 2.15 6.25 2.35" fill="#757683" fill-rule="evenodd" stroke="none"/>
    </g>
    <g id="sprite3" transform="matrix(1.0, 0.0, 0.0, 1.0, 0.0, 0.0)">
      <use ffdec:characterId="162" height="108.6" transform="matrix(1.0, 0.0, 0.0, 1.0, 0.0, 0.0)" width="120.55" xlink:href="#shape4"/>
    </g>
    <g id="shape4" transform="matrix(1.0, 0.0, 0.0, 1.0, 0.0, 0.0)">
      <path d="M120.5 30.95 L120.55 31.2 119.25 39.15 119.15 39.35 119.15 39.45 119.1 39.7 118.9 39.85 111.7 42.9 Q112.2 51.6 109.4 61.0 106.1 72.0 99.0 80.95 L98.95 80.95 Q96.75 83.75 94.15 85.8 L94.15 85.85 Q90.95 88.3 87.2 89.8 L85.95 90.15 85.95 90.2 84.05 90.85 92.7 89.8 92.75 89.8 Q95.8 89.65 96.0 92.45 96.15 95.2 94.05 96.05 L93.95 96.05 Q72.65 98.3 62.9 101.0 L62.7 101.0 62.55 100.9 62.4 100.7 61.95 98.7 58.35 100.0 Q59.0 100.4 59.1 101.45 59.35 103.3 57.9 104.0 L57.8 104.0 Q44.35 106.15 38.25 108.15 L38.0 108.15 37.85 108.05 37.75 107.85 36.8 104.55 34.5 103.7 23.35 107.3 23.15 107.35 19.45 108.6 19.15 108.6 18.95 108.4 14.8 100.25 14.75 100.0 14.85 99.8 16.9 97.45 17.15 97.3 22.9 95.5 Q19.25 92.1 16.2 88.2 12.2 83.25 9.65 77.6 L2.1 75.6 1.9 75.55 1.8 75.45 1.75 75.4 1.7 75.2 0.05 69.2 0.05 68.95 Q4.05 60.05 8.75 51.75 13.25 43.75 18.7 36.5 23.9 29.5 30.0 23.3 35.8 17.25 42.35 11.95 L42.65 11.85 42.8 11.9 43.0 11.85 Q48.05 11.75 53.15 12.0 L53.2 11.85 55.55 6.9 Q58.4 -0.1 58.8 0.0 59.75 -0.1 60.6 2.3 61.6 5.15 61.6 10.7 L61.55 12.7 Q90.45 15.8 120.35 30.75 L120.5 30.95 M110.85 42.65 L110.7 40.75 Q105.0 38.05 97.85 35.95 L94.2 84.75 98.35 80.45 Q105.4 71.6 108.65 60.75 111.45 51.4 110.85 42.75 L110.85 42.65 M111.45 40.45 L111.6 42.1 117.7 39.5 Q88.55 28.6 56.8 25.45 L43.85 24.45 43.7 24.55 Q22.8 41.1 2.7 74.95 L9.25 76.7 8.0 73.4 8.0 73.1 Q11.1 66.15 16.1 59.15 21.4 51.45 28.8 43.65 36.15 35.9 45.5 28.1 L45.55 28.05 45.6 28.0 45.85 27.9 45.9 27.9 63.3 29.05 Q83.5 30.95 97.7 35.1 105.3 37.3 111.25 40.15 L111.4 40.3 111.45 40.45 M93.8 95.25 Q95.35 94.6 95.2 92.5 95.0 90.5 92.8 90.6 L80.75 92.05 80.6 92.1 77.2 92.45 65.4 94.3 64.0 94.55 61.95 94.95 63.15 100.1 Q72.9 97.45 93.8 95.25 M93.65 85.2 L93.7 85.2 97.35 35.8 Q83.3 31.75 63.5 29.9 L63.3 84.55 63.35 84.55 63.35 84.6 Q69.85 90.95 79.35 90.7 L85.65 89.45 85.75 89.45 Q86.3 89.2 86.95 89.05 L86.9 89.05 Q90.55 87.6 93.65 85.2 M118.45 38.9 L119.7 31.35 Q89.9 16.5 61.1 13.45 L53.05 12.8 Q48.05 12.55 43.05 12.65 L44.15 23.65 44.45 23.65 57.15 24.6 Q88.7 27.7 118.45 38.9 M60.75 12.6 L60.8 10.7 Q60.8 5.35 59.85 2.55 59.25 0.9 58.9 1.5 58.9 0.9 56.3 7.2 L54.0 12.05 60.75 12.6 M46.25 39.65 Q45.7 34.45 45.5 29.15 36.5 36.7 29.4 44.2 36.7 87.3 63.3 93.85 70.75 92.35 78.3 91.5 69.15 91.4 62.8 85.15 L60.2 82.2 Q53.35 73.3 50.45 62.25 47.45 51.05 46.25 39.65 M43.35 23.85 L42.3 13.05 Q36.05 18.1 30.55 23.85 24.5 30.0 19.35 37.0 13.95 44.25 9.45 52.15 4.8 60.4 0.85 69.2 L2.25 74.2 Q22.35 40.3 43.35 23.85 M46.3 28.75 Q46.45 34.2 47.05 39.55 48.25 50.85 51.2 62.05 54.05 72.9 60.85 81.7 L62.8 84.05 63.0 29.85 46.3 28.75 M16.35 60.1 Q11.75 66.75 8.8 73.3 L10.35 77.1 Q12.85 82.75 16.8 87.7 L16.85 87.7 Q20.05 91.8 23.95 95.35 27.3 98.4 31.2 101.0 32.8 102.1 34.6 102.85 L34.7 102.9 36.85 103.7 36.95 103.65 Q42.95 102.05 49.2 101.05 L49.5 101.0 Q27.35 97.55 16.35 60.1 M23.55 96.1 L17.85 97.95 23.3 106.5 33.4 103.2 Q32.0 102.5 30.75 101.65 26.9 99.1 23.55 96.1 M61.1 94.5 L61.2 94.3 Q61.25 94.2 61.4 94.2 L62.1 94.05 Q36.2 87.0 29.0 44.65 21.85 52.2 16.75 59.6 28.0 98.35 51.2 100.7 L56.4 99.85 61.8 97.95 61.05 94.7 61.1 94.5 M58.3 101.55 Q58.15 100.45 56.9 100.6 L56.45 100.7 52.2 101.35 49.35 101.85 Q43.75 102.75 38.3 104.1 L37.55 104.3 38.4 107.25 Q44.55 105.3 57.55 103.2 58.45 102.75 58.3 101.55 M15.65 100.15 L19.5 107.75 22.5 106.75 17.15 98.4 15.65 100.15" fill="#000000" fill-rule="evenodd" stroke="none"/>
      <path d="M110.85 42.65 L110.85 42.75 Q111.45 51.4 108.65 60.75 105.4 71.6 98.35 80.45 L94.2 84.75 97.85 35.95 Q105.0 38.05 110.7 40.75 L110.85 42.65 M118.45 38.9 Q88.7 27.7 57.15 24.6 L44.45 23.65 44.15 23.65 43.05 12.65 Q48.05 12.55 53.05 12.8 L61.1 13.45 Q89.9 16.5 119.7 31.35 L118.45 38.9 M93.65 85.2 Q90.55 87.6 86.9 89.05 L86.95 89.05 Q86.3 89.2 85.75 89.45 L85.65 89.45 79.35 90.7 Q69.85 90.95 63.35 84.6 L63.35 84.55 63.3 84.55 63.5 29.9 Q83.3 31.75 97.35 35.8 L93.7 85.2 93.65 85.2 M93.8 95.25 Q72.9 97.45 63.15 100.1 L61.95 94.95 64.0 94.55 65.4 94.3 77.2 92.45 80.6 92.1 80.75 92.05 92.8 90.6 Q95.0 90.5 95.2 92.5 95.35 94.6 93.8 95.25 M46.3 28.75 L63.0 29.85 62.8 84.05 60.85 81.7 Q54.05 72.9 51.2 62.05 48.25 50.85 47.05 39.55 46.45 34.2 46.3 28.75 M23.55 96.1 Q26.9 99.1 30.75 101.65 32.0 102.5 33.4 103.2 L23.3 106.5 17.85 97.95 23.55 96.1 M58.3 101.55 Q58.45 102.75 57.55 103.2 44.55 105.3 38.4 107.25 L37.55 104.3 38.3 104.1 Q43.75 102.75 49.35 101.85 L52.2 101.35 56.45 100.7 56.9 100.6 Q58.15 100.45 58.3 101.55" fill="#b9b9b9" fill-rule="evenodd" stroke="none"/>
      <path d="M111.45 40.45 L111.4 40.3 111.25 40.15 Q105.3 37.3 97.7 35.1 83.5 30.95 63.3 29.05 L45.9 27.9 45.85 27.9 45.6 28.0 45.55 28.05 45.5 28.1 Q36.15 35.9 28.8 43.65 21.4 51.45 16.1 59.15 11.1 66.15 8.0 73.1 L8.0 73.4 9.25 76.7 2.7 74.95 Q22.8 41.1 43.7 24.55 L43.85 24.45 56.8 25.45 Q88.55 28.6 117.7 39.5 L111.6 42.1 111.45 40.45" fill="#757683" fill-rule="evenodd" stroke="none"/>
      <path d="M60.75 12.6 L54.0 12.05 56.3 7.2 Q58.9 0.9 58.9 1.5 59.25 0.9 59.85 2.55 60.8 5.35 60.8 10.7 L60.75 12.6" fill="#650099" fill-rule="evenodd" stroke="none"/>
      <path d="M43.35 23.85 Q22.35 40.3 2.25 74.2 L0.85 69.2 Q4.8 60.4 9.45 52.15 13.95 44.25 19.35 37.0 24.5 30.0 30.55 23.85 36.05 18.1 42.3 13.05 L43.35 23.85 M46.25 39.65 Q47.45 51.05 50.45 62.25 53.35 73.3 60.2 82.2 L62.8 85.15 Q69.15 91.4 78.3 91.5 70.75 92.35 63.3 93.85 36.7 87.3 29.4 44.2 36.5 36.7 45.5 29.15 45.7 34.45 46.25 39.65 M16.35 60.1 Q27.35 97.55 49.5 101.0 L49.2 101.05 Q42.95 102.05 36.95 103.65 L36.85 103.7 34.7 102.9 34.6 102.85 Q32.8 102.1 31.2 101.0 27.3 98.4 23.95 95.35 20.05 91.8 16.85 87.7 L16.8 87.7 Q12.85 82.75 10.35 77.1 L8.8 73.3 Q11.75 66.75 16.35 60.1 M61.1 94.5 L61.05 94.7 61.8 97.95 56.4 99.85 51.2 100.7 Q28.0 98.35 16.75 59.6 21.85 52.2 29.0 44.65 36.2 87.0 62.1 94.05 L61.4 94.2 Q61.25 94.2 61.2 94.3 L61.1 94.5 M15.65 100.15 L17.15 98.4 22.5 106.75 19.5 107.75 15.65 100.15" fill="#8e9297" fill-rule="evenodd" stroke="none"/>
    </g>
    <g id="sprite4" transform="matrix(1.0, 0.0, 0.0, 1.0, 0.0, 0.0)">
      <use ffdec:characterId="164" height="24.1" transform="matrix(1.0, 0.0, 0.0, 1.0, 0.0, 0.0)" width="20.7" xlink:href="#shape5"/>
    </g>
    <g id="shape5" transform="matrix(1.0, 0.0, 0.0, 1.0, 0.0, 0.0)">
      <path d="M15.85 2.75 L15.85 2.7 Q14.65 1.35 13.5 0.85 L7.05 1.85 Q8.25 2.4 9.45 3.8 12.05 6.55 13.15 11.15 14.2 15.75 13.25 19.5 12.8 21.3 11.95 22.4 L18.25 20.45 19.5 17.7 Q20.4 14.15 19.35 9.75 18.35 5.35 15.85 2.75 M13.5 0.0 L13.7 0.05 Q15.1 0.6 16.45 2.2 19.05 4.95 20.15 9.55 21.2 14.15 20.25 17.9 19.7 19.9 18.75 21.05 L18.6 21.2 11.3 23.55 9.75 24.0 8.7 24.1 7.05 23.6 Q5.65 23.15 3.7 21.0 1.7 18.8 0.6 14.2 -0.1 11.25 0.0 9.75 L0.3 6.85 Q0.45 5.45 0.9 4.55 L1.8 3.05 2.55 2.35 Q3.8 1.25 5.5 1.25 L13.5 0.0 M3.65 10.25 L3.5 10.25 Q3.05 10.6 2.95 11.65 2.85 13.0 3.45 14.65 3.95 16.25 4.75 17.15 5.3 17.7 5.7 17.65 L5.75 17.65 6.1 17.55 6.55 16.15 Q6.6 14.8 6.15 13.25 5.6 11.6 4.75 10.75 4.2 10.1 3.75 10.25 L3.65 10.25 M2.15 11.6 L2.15 11.55 Q2.3 10.25 2.9 9.75 L6.15 8.55 6.45 8.6 Q7.0 8.65 7.55 9.35 8.55 10.35 9.1 12.15 9.65 13.85 9.6 15.4 L9.1 17.15 9.1 17.2 9.0 17.3 8.35 17.55 6.2 18.4 5.85 18.5 Q5.1 18.65 4.15 17.7 3.25 16.65 2.7 14.9 2.05 13.1 2.15 11.6 M8.85 4.35 Q7.55 2.8 5.8 2.3 L5.35 2.15 4.75 2.25 Q3.5 2.6 2.4 3.6 1.7 4.55 1.25 6.1 0.4 9.6 1.4 14.0 2.4 18.4 4.85 21.1 6.85 23.3 9.1 23.4 L9.95 23.15 10.8 22.75 11.2 22.15 Q12.0 21.1 12.5 19.3 13.4 15.75 12.35 11.35 11.35 6.95 8.85 4.35 M7.0 9.9 L6.95 9.85 Q6.6 9.45 6.3 9.4 L6.2 9.35 6.1 9.35 4.95 9.8 5.35 10.2 Q6.3 11.2 6.9 13.0 7.4 14.7 7.35 16.25 L7.15 17.25 8.15 16.95 8.3 16.9 8.35 16.9 8.4 16.8 8.45 16.75 8.8 15.3 Q8.85 13.95 8.35 12.4 7.85 10.8 7.0 9.9" fill="#000000" fill-rule="evenodd" stroke="none"/>
      <path d="M15.85 2.75 Q18.35 5.35 19.35 9.75 20.4 14.15 19.5 17.7 L18.25 20.45 11.95 22.4 Q12.8 21.3 13.25 19.5 14.2 15.75 13.15 11.15 12.05 6.55 9.45 3.8 8.25 2.4 7.05 1.85 L13.5 0.85 Q14.65 1.35 15.85 2.7 L15.85 2.75 M7.0 9.9 Q7.85 10.8 8.35 12.4 8.85 13.95 8.8 15.3 L8.45 16.75 8.4 16.8 8.35 16.9 8.3 16.9 8.15 16.95 7.15 17.25 7.35 16.25 Q7.4 14.7 6.9 13.0 6.3 11.2 5.35 10.2 L4.95 9.8 6.1 9.35 6.2 9.35 6.3 9.4 Q6.6 9.45 6.95 9.85 L7.0 9.9" fill="#b9b9b9" fill-rule="evenodd" stroke="none"/>
      <path d="M8.85 4.35 Q11.35 6.95 12.35 11.35 13.4 15.75 12.5 19.3 12.0 21.1 11.2 22.15 L10.8 22.75 9.95 23.15 9.1 23.4 Q6.85 23.3 4.85 21.1 2.4 18.4 1.4 14.0 0.4 9.6 1.25 6.1 1.7 4.55 2.4 3.6 3.5 2.6 4.75 2.25 L5.35 2.15 5.8 2.3 Q7.55 2.8 8.85 4.35 M2.15 11.6 Q2.05 13.1 2.7 14.9 3.25 16.65 4.15 17.7 5.1 18.65 5.85 18.5 L6.2 18.4 8.35 17.55 9.0 17.3 9.1 17.2 9.1 17.15 9.6 15.4 Q9.65 13.85 9.1 12.15 8.55 10.35 7.55 9.35 7.0 8.65 6.45 8.6 L6.15 8.55 2.9 9.75 Q2.3 10.25 2.15 11.55 L2.15 11.6 M3.65 10.25 L3.75 10.25 Q4.2 10.1 4.75 10.75 5.6 11.6 6.15 13.25 6.6 14.8 6.55 16.15 L6.1 17.55 5.75 17.65 5.7 17.65 Q5.3 17.7 4.75 17.15 3.95 16.25 3.45 14.65 2.85 13.0 2.95 11.65 3.05 10.6 3.5 10.25 L3.65 10.25" fill="#757683" fill-rule="evenodd" stroke="none"/>
    </g>
  </defs>
</svg>
