<?xml version="1.0" encoding="UTF-8" standalone="no"?>
<svg xmlns:ffdec="https://www.free-decompiler.com/flash" xmlns:xlink="http://www.w3.org/1999/xlink" ffdec:objectType="frame" height="188.1px" width="168.3px" xmlns="http://www.w3.org/2000/svg">
  <g transform="matrix(1.0, 0.0, 0.0, 1.0, -298.75, -90.2)">
    <use ffdec:characterId="111" height="46.05" transform="matrix(1.0, 0.0, 0.0, 1.0, 313.45, 232.25)" width="153.6" xlink:href="#sprite0"/>
    <use ffdec:characterId="167" height="23.3" transform="matrix(0.7401, -0.0613, 0.0613, 0.7401, 331.1092, 207.561)" width="18.6" xlink:href="#sprite2"/>
    <use ffdec:characterId="167" height="23.3" transform="matrix(0.5709, -0.0473, 0.0473, 0.5709, 372.7571, 217.3356)" width="18.6" xlink:href="#sprite2"/>
    <use ffdec:characterId="169" height="98.2" id="ikNode_1" transform="matrix(1.0, 0.0, 0.0, 1.0, 298.75, 126.5)" width="122.2" xlink:href="#sprite3"/>
    <use ffdec:characterId="171" height="23.3" transform="matrix(1.0, 0.0, 0.0, 1.0, 373.6, 183.1)" width="18.6" xlink:href="#sprite4"/>
    <use ffdec:characterId="171" height="23.3" transform="matrix(0.7714, 0.0, 0.0, 0.7714, 400.45, 202.0657)" width="18.6" xlink:href="#sprite4"/>
    <use ffdec:characterId="173" height="54.3" transform="matrix(1.0, 0.0, 0.0, 1.0, 310.05, 157.5)" width="67.65" xlink:href="#sprite5"/>
  </g>
  <defs>
    <g id="sprite0" transform="matrix(1.0, 0.0, 0.0, 1.0, 6.8, -77.45)">
      <use ffdec:characterId="107" height="27.0" transform="matrix(0.4552, -0.0312, -0.0042, 0.2457, 3.75, 84.65)" width="92.85" xlink:href="#shape0"/>
      <use ffdec:characterId="107" height="27.0" transform="matrix(1.0, 0.0, 0.0, 1.0, 39.65, 92.4)" width="92.85" xlink:href="#shape0"/>
      <use ffdec:characterId="107" height="27.0" transform="matrix(0.6977, -0.0049, 0.0826, 0.6195, 20.4, 86.4)" width="92.85" xlink:href="#shape0"/>
      <use ffdec:characterId="107" height="27.0" transform="matrix(0.6088, -0.0439, -0.0013, 0.366, 10.95, 86.0)" width="92.85" xlink:href="#shape0"/>
      <use ffdec:characterId="108" height="21.65" transform="matrix(1.2456, 0.2085, -0.1481, 0.7657, 53.4, 93.45)" width="31.85" xlink:href="#shape1"/>
      <use ffdec:characterId="108" height="21.65" transform="matrix(0.9359, -0.024, -0.0606, 0.6043, 63.65, 93.45)" width="31.85" xlink:href="#shape1"/>
      <use ffdec:characterId="108" height="21.65" transform="matrix(1.1144, 0.0533, -0.0606, 0.6043, 50.3, 90.4)" width="31.85" xlink:href="#shape1"/>
      <use ffdec:characterId="108" height="21.65" transform="matrix(1.4771, 0.1617, -0.0394, 0.6061, 66.6, 92.3)" width="31.85" xlink:href="#shape1"/>
      <use ffdec:characterId="108" height="21.65" transform="matrix(1.0534, -0.0909, 0.0433, 0.5014, 14.95, 84.4)" width="31.85" xlink:href="#shape1"/>
      <use ffdec:characterId="108" height="21.65" transform="matrix(0.8836, -0.1655, 0.1004, 0.5192, 26.4, 84.55)" width="31.85" xlink:href="#shape1"/>
      <use ffdec:characterId="108" height="21.65" transform="matrix(0.6358, -0.0317, -0.2094, 0.5701, 22.55, 95.9)" width="31.85" xlink:href="#shape1"/>
      <use ffdec:characterId="110" height="38.5" transform="matrix(1.0, 0.0, 0.0, 1.0, -6.8, 83.25)" width="94.7" xlink:href="#sprite1"/>
      <use ffdec:characterId="110" height="38.5" transform="matrix(1.1409, -0.0355, 0.2423, 0.8404, 29.45, 80.8)" width="94.7" xlink:href="#sprite1"/>
    </g>
    <g id="shape0" transform="matrix(1.0, 0.0, 0.0, 1.0, 0.0, 0.0)">
      <path d="M92.85 5.65 L92.85 9.3 92.75 9.55 92.55 9.7 10.65 27.0 10.45 27.0 10.3 26.9 0.5 18.7 0.35 18.45 0.0 13.65 0.1 13.35 Q0.15 13.25 0.35 13.2 L76.15 0.0 76.35 0.05 92.6 5.3 92.8 5.45 92.85 5.65 M92.05 9.0 L92.05 6.0 10.9 21.45 10.8 26.15 92.05 9.0 M10.4 21.35 L0.85 14.25 1.15 18.25 10.35 25.9 10.4 21.35 M1.2 13.9 L10.7 20.95 91.15 5.65 76.2 0.85 1.2 13.9" fill="#000000" fill-rule="evenodd" stroke="none"/>
      <path d="M92.05 9.0 L10.8 26.15 10.9 21.45 92.05 6.0 92.05 9.0" fill="#672f00" fill-rule="evenodd" stroke="none"/>
      <path d="M10.4 21.35 L10.35 25.9 1.15 18.25 0.85 14.25 10.4 21.35" fill="#561d00" fill-rule="evenodd" stroke="none"/>
      <path d="M1.2 13.9 L76.2 0.85 91.15 5.65 10.7 20.95 1.2 13.9" fill="#8b5300" fill-rule="evenodd" stroke="none"/>
    </g>
    <g id="shape1" transform="matrix(1.0, 0.0, 0.0, 1.0, 0.0, 0.0)">
      <path d="M0.0 0.35 Q1.65 -1.45 13.7 6.35 26.1 14.4 31.85 21.65 11.55 5.3 0.0 0.35" fill="#895200" fill-rule="evenodd" stroke="none"/>
    </g>
    <g id="sprite1" transform="matrix(1.0, 0.0, 0.0, 1.0, 0.0, 0.0)">
      <use ffdec:characterId="109" height="38.5" transform="matrix(1.0, 0.0, 0.0, 1.0, 0.0, 0.0)" width="94.7" xlink:href="#shape2"/>
    </g>
    <g id="shape2" transform="matrix(1.0, 0.0, 0.0, 1.0, 0.0, 0.0)">
      <path d="M4.65 0.5 L3.0 0.35 3.8 0.1 8.15 0.0 Q53.45 2.15 94.55 34.55 L94.7 34.8 94.7 34.95 94.65 35.1 94.35 35.25 94.05 35.2 93.9 35.05 Q52.25 2.3 4.85 0.5 L4.65 0.5 M79.05 37.25 L79.25 37.45 79.3 37.6 79.25 37.8 79.05 37.85 78.9 37.8 78.4 37.35 76.3 35.5 Q70.75 30.65 64.95 26.45 50.65 16.2 34.65 9.9 21.2 4.55 6.5 2.0 L5.25 1.8 3.7 1.55 2.3 1.35 2.15 1.3 2.7 1.25 4.1 1.15 5.35 1.35 Q21.6 4.0 36.4 10.05 50.55 15.85 63.35 24.75 70.15 29.45 76.6 35.05 L79.05 37.25 M73.7 38.05 L73.7 38.1 73.6 38.4 73.3 38.5 73.05 38.4 72.8 38.2 Q53.85 19.95 27.6 9.85 15.95 5.35 2.9 2.45 L1.1 2.1 0.3 2.0 Q-0.35 1.9 0.45 1.7 L3.5 1.8 6.7 2.55 7.95 2.85 Q19.35 5.65 29.6 9.8 55.05 19.95 73.6 37.8 L73.7 38.05" fill="#000000" fill-rule="evenodd" stroke="none"/>
      <path d="M78.4 37.35 L73.7 38.05 73.6 37.8 Q55.05 19.95 29.6 9.8 19.35 5.65 7.95 2.85 L6.7 2.55 3.5 1.8 3.7 1.55 5.25 1.8 6.5 2.0 Q21.2 4.55 34.65 9.9 50.65 16.2 64.95 26.45 70.75 30.65 76.3 35.5 L78.4 37.35" fill="#757683" fill-rule="evenodd" stroke="none"/>
      <path d="M4.65 0.5 L4.85 0.5 Q52.25 2.3 93.9 35.05 L79.05 37.25 76.6 35.05 Q70.15 29.45 63.35 24.75 50.55 15.85 36.4 10.05 21.6 4.0 5.35 1.35 L4.1 1.15 4.65 0.5" fill="#b9b9b9" fill-rule="evenodd" stroke="none"/>
    </g>
    <g id="sprite2" transform="matrix(1.0, 0.0, 0.0, 1.0, 0.0, -0.15)">
      <use ffdec:characterId="166" height="23.3" transform="matrix(1.0, 0.0, 0.0, 1.0, 0.0, 0.15)" width="18.6" xlink:href="#shape3"/>
    </g>
    <g id="shape3" transform="matrix(1.0, 0.0, 0.0, 1.0, 0.0, -0.15)">
      <path d="M13.6 1.85 Q16.1 4.3 17.5 8.5 18.95 12.75 18.45 16.35 18.05 19.25 16.7 20.4 L14.9 21.25 14.05 21.55 7.6 23.45 Q6.2 22.85 4.95 21.7 2.45 19.2 1.05 15.0 -0.45 10.75 0.15 7.2 0.35 5.25 1.05 4.05 L1.25 3.9 7.6 0.8 9.2 0.25 11.0 0.2 Q11.95 0.3 13.6 1.85 M10.75 0.9 L8.75 1.1 8.1 1.4 7.75 1.95 Q7.1 2.95 6.75 4.95 6.15 8.3 7.55 12.35 8.95 16.45 11.35 18.75 12.5 19.9 13.55 20.35 L14.15 20.65 15.05 20.45 15.7 20.2 16.2 19.85 Q17.4 18.85 17.8 16.2 18.25 12.8 16.8 8.75 15.4 4.75 13.1 2.45 11.85 1.2 10.75 0.9 M6.85 2.0 L1.65 4.6 Q1.25 5.25 1.0 6.25 L0.75 8.4 0.7 9.45 Q0.7 11.9 1.75 14.75 3.1 18.8 5.45 21.2 L7.7 22.7 13.25 20.95 Q12.1 20.6 10.9 19.35 8.35 16.85 6.95 12.65 5.45 8.35 6.0 4.85 6.2 3.15 6.85 2.0" fill="#000000" fill-rule="evenodd" stroke="none"/>
      <path d="M6.85 2.0 Q6.2 3.15 6.0 4.85 5.45 8.35 6.95 12.65 8.35 16.85 10.9 19.35 12.1 20.6 13.25 20.95 L7.7 22.7 5.45 21.2 Q3.1 18.8 1.75 14.75 0.7 11.9 0.7 9.45 L0.75 8.4 1.0 6.25 Q1.25 5.25 1.65 4.6 L6.85 2.0" fill="#757683" fill-rule="evenodd" stroke="none"/>
      <path d="M10.75 0.9 Q11.85 1.2 13.1 2.45 15.4 4.75 16.8 8.75 18.25 12.8 17.8 16.2 17.4 18.85 16.2 19.85 L15.7 20.2 15.05 20.45 14.15 20.65 13.55 20.35 Q12.5 19.9 11.35 18.75 8.95 16.45 7.55 12.35 6.15 8.3 6.75 4.95 7.1 2.95 7.75 1.95 L8.1 1.4 8.75 1.1 10.75 0.9" fill="#8e9297" fill-rule="evenodd" stroke="none"/>
    </g>
    <g id="sprite3" transform="matrix(1.0, 0.0, 0.0, 1.0, 0.0, 5.0)">
      <use ffdec:characterId="168" height="98.2" transform="matrix(1.0, 0.0, 0.0, 1.0, 0.0, -5.0)" width="122.2" xlink:href="#shape4"/>
    </g>
    <g id="shape4" transform="matrix(1.0, 0.0, 0.0, 1.0, 0.0, 5.0)">
      <path d="M43.65 -1.55 Q46.45 -5.0 51.1 -5.0 54.15 -5.0 57.6 -1.9 59.5 -0.1 60.75 1.95 L60.8 2.05 Q64.95 0.85 69.25 0.0 L69.5 0.05 69.7 0.3 69.7 0.35 69.75 0.35 70.05 0.45 Q102.35 22.2 121.55 59.15 L121.6 59.35 121.75 59.6 122.2 62.9 122.2 63.1 122.15 63.25 122.1 63.3 122.0 63.4 117.6 65.35 117.6 65.5 116.85 69.3 Q115.15 76.05 111.35 81.1 108.75 84.5 105.5 86.9 98.65 91.85 88.75 92.15 L83.1 93.2 83.05 93.2 82.6 93.15 Q81.85 92.9 81.7 92.35 81.55 91.95 81.75 91.45 L75.25 90.3 Q61.75 87.75 48.8 84.35 L43.85 85.25 43.75 85.25 43.15 85.15 43.1 85.15 Q42.05 84.8 41.85 84.0 41.6 83.35 42.0 82.4 L38.25 81.35 37.8 81.3 37.5 81.25 37.35 81.2 36.25 81.0 32.55 80.0 32.45 79.9 32.2 79.9 Q25.6 77.4 20.05 71.15 14.15 64.5 10.4 55.55 L10.35 55.35 Q6.05 54.0 0.15 49.65 L0.1 49.6 0.0 49.4 0.0 49.25 0.65 40.1 0.75 39.85 Q8.55 31.25 17.15 24.45 L17.1 24.4 13.0 17.65 Q11.4 14.7 11.4 12.7 11.4 10.8 12.0 8.3 12.95 4.3 14.8 4.4 15.7 4.35 16.15 5.55 16.5 6.45 16.45 8.3 16.4 11.85 16.85 12.3 17.55 12.8 21.7 14.9 25.3 16.7 26.8 17.15 L26.8 17.1 27.15 17.2 Q29.9 15.4 32.7 13.8 L32.6 13.65 32.55 13.6 Q31.6 12.3 31.6 11.1 31.55 8.35 35.0 6.1 38.0 4.05 40.95 4.0 41.9 0.6 43.65 -1.55 M44.25 -1.05 L44.3 -1.05 Q42.7 0.95 41.75 4.05 L44.1 4.65 45.5 5.15 Q45.7 3.8 46.3 3.0 47.45 1.2 50.2 1.2 52.0 1.2 53.0 1.8 L55.1 3.6 55.2 3.75 60.0 2.25 Q58.85 0.35 57.05 -1.3 53.85 -4.2 51.1 -4.2 46.85 -4.2 44.25 -1.05 M77.4 74.4 L79.3 72.55 Q91.4 59.95 91.4 41.0 91.4 35.45 90.15 31.35 L90.2 31.35 90.1 31.15 90.0 31.0 86.5 28.1 86.5 28.05 Q79.95 22.65 71.35 17.3 73.85 25.55 74.35 34.25 74.85 44.2 71.85 53.7 69.25 61.95 63.95 68.4 L60.55 72.05 60.15 72.45 Q51.5 80.65 40.2 81.35 L42.3 81.95 42.4 81.9 Q54.9 80.05 68.9 70.6 73.15 67.65 77.6 64.0 L77.85 63.9 78.05 63.95 78.25 64.15 80.55 69.65 80.55 69.95 80.4 70.15 75.15 73.4 Q62.5 80.85 51.05 83.85 L53.85 84.05 Q66.95 84.05 77.4 74.4 M94.65 82.05 Q97.7 79.3 100.25 75.55 107.6 64.85 107.6 54.2 107.6 51.05 107.05 48.3 L106.9 48.15 106.9 48.1 102.1 42.9 Q95.95 36.45 90.85 31.8 91.9 35.75 91.9 41.0 91.9 60.15 79.65 72.9 L77.9 74.6 Q67.25 84.55 53.85 84.55 L52.35 84.5 Q63.65 87.3 75.4 89.5 L76.05 89.65 Q86.9 89.0 94.65 82.05 M87.0 27.45 L90.55 30.4 Q96.05 35.35 102.7 42.35 L107.5 47.6 Q113.25 54.1 117.9 60.6 L117.95 60.9 117.9 61.0 117.95 61.2 117.75 64.4 121.25 62.85 Q98.85 25.85 71.3 7.8 27.85 18.3 1.0 49.25 6.05 52.95 9.9 54.35 L8.3 49.85 8.3 49.6 8.25 49.55 8.15 49.3 8.3 49.0 Q14.1 44.1 19.9 39.95 35.2 28.75 50.05 22.45 60.45 18.0 70.55 16.0 L70.6 16.0 70.85 16.05 Q80.1 21.7 87.0 27.45 M104.65 86.5 Q108.0 84.1 110.7 80.6 114.4 75.65 116.1 69.1 L116.8 65.4 116.9 65.2 116.9 64.95 116.95 64.8 116.9 64.55 117.15 61.2 117.2 61.0 Q112.95 55.05 107.7 49.05 108.1 51.45 108.1 54.2 108.1 65.05 100.65 75.85 98.1 79.55 95.15 82.3 87.9 88.85 77.95 89.95 L82.6 90.75 Q90.25 89.65 99.0 84.0 L104.5 80.0 104.75 79.9 105.0 80.0 105.15 80.15 106.55 83.7 106.55 84.0 106.35 84.2 103.4 85.95 Q97.7 89.2 92.4 91.05 99.4 90.1 104.65 86.5 M120.95 59.7 L120.95 59.6 120.85 59.5 Q101.85 22.95 70.0 1.35 L71.7 7.1 Q98.9 24.95 121.15 61.15 L120.95 59.7 M82.45 92.1 L82.8 92.4 82.85 92.4 83.0 92.4 85.45 92.05 88.65 91.35 Q95.25 89.6 102.5 85.55 L105.65 83.7 104.6 80.95 99.85 84.4 Q92.05 89.6 85.0 91.15 L82.6 91.6 82.55 91.6 82.45 92.1 M69.05 0.9 Q64.85 1.75 60.8 2.9 58.05 3.65 55.4 4.55 53.35 5.2 51.4 5.95 L51.4 6.1 51.4 6.15 Q51.2 8.45 49.9 10.05 48.6 11.65 47.3 11.6 45.35 11.7 45.2 8.4 39.3 10.95 33.65 14.2 30.65 15.9 27.8 17.75 L27.7 17.9 27.4 18.0 Q22.5 21.2 17.9 24.9 9.25 31.7 1.45 40.3 L0.9 48.15 Q27.75 17.6 70.85 7.05 L69.05 0.9 M46.05 8.75 Q46.2 10.75 47.3 10.8 48.3 10.75 49.3 9.55 50.3 8.3 50.55 5.35 L50.6 5.35 50.6 5.2 50.6 4.3 Q50.55 4.1 51.0 3.8 L51.1 3.75 Q51.35 3.95 51.4 5.05 L54.4 4.0 Q53.3 2.9 52.6 2.5 51.7 2.0 50.2 2.0 47.95 2.0 46.95 3.45 46.45 4.15 46.25 5.35 L46.15 5.6 46.15 5.75 46.05 8.05 46.0 8.05 46.0 8.25 46.05 8.75 M43.85 5.4 Q42.2 4.85 41.25 4.8 L41.1 4.8 Q38.3 4.8 35.45 6.75 32.45 8.75 32.4 11.1 32.4 12.1 33.2 13.1 L33.15 13.1 33.4 13.4 Q39.15 10.1 45.2 7.5 L45.2 7.35 45.3 5.95 43.85 5.4 M73.55 34.3 Q73.05 25.35 70.4 16.9 60.55 18.85 50.55 23.1 L60.4 71.1 63.2 68.05 Q68.5 61.65 71.1 53.45 74.05 44.1 73.55 34.3 M26.25 17.8 Q24.65 17.25 21.35 15.6 L16.35 12.95 Q15.6 12.45 15.65 8.3 L15.4 5.8 Q15.2 5.25 14.8 5.2 13.55 5.3 12.8 8.5 12.2 10.9 12.2 12.7 12.2 14.5 13.7 17.25 L13.7 17.3 17.75 23.95 Q21.9 20.65 26.25 17.8 M36.4 80.2 L37.5 80.4 39.25 80.6 Q50.8 80.2 59.6 71.85 L59.6 71.9 59.95 71.5 50.05 23.3 Q35.5 29.55 20.45 40.5 L32.85 79.25 36.4 80.2 M20.0 40.8 Q14.5 44.8 9.0 49.45 L9.05 49.6 10.8 54.4 10.8 54.65 10.95 54.8 11.0 55.1 11.15 55.25 Q14.85 64.1 20.65 70.6 25.95 76.55 32.25 79.05 L20.0 40.8 M74.25 73.0 L79.65 69.65 77.7 64.95 69.7 70.95 Q56.25 80.2 44.15 82.45 L42.95 82.65 42.75 82.7 Q42.5 83.35 42.6 83.8 42.75 84.2 43.35 84.4 L43.3 84.35 43.8 84.45 47.05 83.9 48.95 83.5 Q60.95 80.8 74.25 73.0" fill="#000000" fill-rule="evenodd" stroke="none"/>
      <path d="M63.95 68.4 Q69.25 61.95 71.85 53.7 74.85 44.2 74.35 34.25 73.85 25.55 71.35 17.3 79.95 22.65 86.5 28.05 L86.5 28.1 90.0 31.0 90.1 31.15 90.2 31.35 90.15 31.35 Q91.4 35.45 91.4 41.0 91.4 59.95 79.3 72.55 L77.4 74.4 75.15 73.4 80.4 70.15 80.55 69.95 80.55 69.65 78.25 64.15 78.05 63.95 77.85 63.9 77.6 64.0 Q73.15 67.65 68.9 70.6 L63.95 68.4 M77.9 74.6 L79.65 72.9 Q91.9 60.15 91.9 41.0 91.9 35.75 90.85 31.8 95.95 36.45 102.1 42.9 L106.9 48.1 106.9 48.15 107.05 48.3 Q107.6 51.05 107.6 54.2 107.6 64.85 100.25 75.55 97.7 79.3 94.65 82.05 L77.9 74.6 M95.15 82.3 Q98.1 79.55 100.65 75.85 108.1 65.05 108.1 54.2 108.1 51.45 107.7 49.05 112.95 55.05 117.2 61.0 L117.15 61.2 116.9 64.55 116.95 64.8 116.9 64.95 116.9 65.2 116.8 65.4 116.1 69.1 Q114.4 75.65 110.7 80.6 108.0 84.1 104.65 86.5 L103.4 85.95 106.35 84.2 106.55 84.0 106.55 83.7 105.15 80.15 105.0 80.0 104.75 79.9 104.5 80.0 99.0 84.0 95.15 82.3 M120.95 59.7 L121.15 61.15 Q98.9 24.95 71.7 7.1 L70.0 1.35 Q101.85 22.95 120.85 59.5 L120.95 59.6 120.95 59.7" fill="#b9b9b9" fill-rule="evenodd" stroke="none"/>
      <path d="M87.0 27.45 Q80.1 21.7 70.85 16.05 L70.6 16.0 70.55 16.0 Q60.45 18.0 50.05 22.45 35.2 28.75 19.9 39.95 14.1 44.1 8.3 49.0 L8.15 49.3 8.25 49.55 8.3 49.6 8.3 49.85 9.9 54.35 Q6.05 52.95 1.0 49.25 27.85 18.3 71.3 7.8 98.85 25.85 121.25 62.85 L117.75 64.4 117.95 61.2 117.9 61.0 117.95 60.9 117.9 60.6 Q113.25 54.1 107.5 47.6 L102.7 42.35 Q96.05 35.35 90.55 30.4 L87.0 27.45 M82.45 92.1 L82.55 91.6 82.6 91.6 85.0 91.15 Q92.05 89.6 99.85 84.4 L104.6 80.95 105.65 83.7 102.5 85.55 Q95.25 89.6 88.65 91.35 L85.45 92.05 83.0 92.4 82.85 92.4 82.8 92.4 82.45 92.1 M74.25 73.0 Q60.95 80.8 48.95 83.5 L47.05 83.9 43.8 84.45 43.3 84.35 43.35 84.4 Q42.75 84.2 42.6 83.8 42.5 83.35 42.75 82.7 L42.95 82.65 44.15 82.45 Q56.25 80.2 69.7 70.95 L77.7 64.95 79.65 69.65 74.25 73.0" fill="#757683" fill-rule="evenodd" stroke="none"/>
      <path d="M77.4 74.4 Q66.95 84.05 53.85 84.05 L51.05 83.85 Q62.5 80.85 75.15 73.4 L77.4 74.4 M68.9 70.6 Q54.9 80.05 42.4 81.9 L42.3 81.95 40.2 81.35 Q51.5 80.65 60.15 72.45 L60.55 72.05 63.95 68.4 68.9 70.6 M94.65 82.05 Q86.9 89.0 76.05 89.65 L75.4 89.5 Q63.65 87.3 52.35 84.5 L53.85 84.55 Q67.25 84.55 77.9 74.6 L94.65 82.05 M104.65 86.5 Q99.4 90.1 92.4 91.05 97.7 89.2 103.4 85.95 L104.65 86.5 M99.0 84.0 Q90.25 89.65 82.6 90.75 L77.95 89.95 Q87.9 88.85 95.15 82.3 L99.0 84.0 M69.05 0.9 L70.85 7.05 Q27.75 17.6 0.9 48.15 L1.45 40.3 Q9.25 31.7 17.9 24.9 22.5 21.2 27.4 18.0 L27.7 17.9 27.8 17.75 Q30.65 15.9 33.65 14.2 39.3 10.95 45.2 8.4 45.35 11.7 47.3 11.6 48.6 11.65 49.9 10.05 51.2 8.45 51.4 6.15 L51.4 6.1 51.4 5.95 Q53.35 5.2 55.4 4.55 58.05 3.65 60.8 2.9 64.85 1.75 69.05 0.9 M46.05 8.75 L46.0 8.25 46.0 8.05 46.05 8.05 46.05 8.75 M73.55 34.3 Q74.05 44.1 71.1 53.45 68.5 61.65 63.2 68.05 L60.4 71.1 50.55 23.1 Q60.55 18.85 70.4 16.9 73.05 25.35 73.55 34.3 M20.0 40.8 L32.25 79.05 Q25.95 76.55 20.65 70.6 14.85 64.1 11.15 55.25 L11.0 55.1 10.95 54.8 10.8 54.65 10.8 54.4 9.05 49.6 9.0 49.45 Q14.5 44.8 20.0 40.8 M36.4 80.2 L32.85 79.25 20.45 40.5 Q35.5 29.55 50.05 23.3 L59.95 71.5 59.6 71.9 59.6 71.85 Q50.8 80.2 39.25 80.6 L37.5 80.4 36.4 80.2" fill="#8e9297" fill-rule="evenodd" stroke="none"/>
      <path d="M44.25 -1.05 Q46.85 -4.2 51.1 -4.2 53.85 -4.2 57.05 -1.3 58.85 0.35 60.0 2.25 L55.2 3.75 55.1 3.6 53.0 1.8 Q52.0 1.2 50.2 1.2 47.45 1.2 46.3 3.0 45.7 3.8 45.5 5.15 L44.1 4.65 41.75 4.05 Q42.7 0.95 44.3 -1.05 L44.25 -1.05 M46.05 8.05 L46.15 5.75 46.15 5.6 46.25 5.35 Q46.45 4.15 46.95 3.45 47.95 2.0 50.2 2.0 51.7 2.0 52.6 2.5 53.3 2.9 54.4 4.0 L51.4 5.05 Q51.35 3.95 51.1 3.75 L51.0 3.8 Q50.55 4.1 50.6 4.3 L50.6 5.2 50.6 5.35 50.55 5.35 Q50.3 8.3 49.3 9.55 48.3 10.75 47.3 10.8 46.2 10.75 46.05 8.75 L46.05 8.05 M26.25 17.8 Q21.9 20.65 17.75 23.95 L13.7 17.3 13.7 17.25 Q12.2 14.5 12.2 12.7 12.2 10.9 12.8 8.5 13.55 5.3 14.8 5.2 15.2 5.25 15.4 5.8 L15.65 8.3 Q15.6 12.45 16.35 12.95 L21.35 15.6 Q24.65 17.25 26.25 17.8" fill="#650099" fill-rule="evenodd" stroke="none"/>
      <path d="M43.85 5.4 L45.3 5.95 45.2 7.35 45.2 7.5 Q39.15 10.1 33.4 13.4 L33.15 13.1 33.2 13.1 Q32.4 12.1 32.4 11.1 32.45 8.75 35.45 6.75 38.3 4.8 41.1 4.8 L41.25 4.8 Q42.2 4.85 43.85 5.4" fill="#ffb409" fill-rule="evenodd" stroke="none"/>
    </g>
    <g id="sprite4" transform="matrix(1.0, 0.0, 0.0, 1.0, 0.0, -0.15)">
      <use ffdec:characterId="170" height="23.3" transform="matrix(1.0, 0.0, 0.0, 1.0, 0.0, 0.15)" width="18.6" xlink:href="#shape5"/>
    </g>
    <g id="shape5" transform="matrix(1.0, 0.0, 0.0, 1.0, 0.0, -0.15)">
      <path d="M13.25 6.15 L13.15 6.15 12.45 6.3 10.9 6.8 10.55 7.3 10.45 7.5 Q10.0 8.45 10.05 9.6 L10.3 11.3 Q10.7 12.95 11.55 14.15 L12.75 15.3 12.75 15.35 13.05 15.4 13.3 15.35 13.5 15.4 15.15 14.8 15.25 14.8 15.3 14.8 15.35 14.8 15.7 14.65 Q16.35 14.45 16.6 13.2 16.75 11.8 16.35 10.15 15.95 8.4 15.1 7.25 14.15 6.0 13.25 6.15 M13.7 6.9 Q14.05 7.05 14.55 7.7 15.3 8.75 15.65 10.35 16.05 11.9 15.95 13.0 L15.5 13.95 15.45 13.95 15.15 14.05 Q14.6 13.85 14.15 13.15 13.45 12.15 13.0 10.65 L12.75 8.7 12.75 8.25 Q12.9 7.3 13.7 6.9 M10.75 0.9 Q11.85 1.2 13.1 2.45 15.4 4.75 16.8 8.75 18.25 12.8 17.8 16.2 17.4 18.85 16.2 19.85 L15.7 20.2 15.05 20.45 14.15 20.65 13.55 20.35 Q12.5 19.9 11.35 18.75 8.95 16.45 7.55 12.35 6.15 8.3 6.75 4.95 7.1 2.95 7.75 1.95 L8.1 1.4 8.75 1.1 10.75 0.9" fill="#b9b9b9" fill-rule="evenodd" stroke="none"/>
      <path d="M13.25 6.15 Q14.15 6.0 15.1 7.25 15.95 8.4 16.35 10.15 16.75 11.8 16.6 13.2 16.35 14.45 15.7 14.65 L15.35 14.8 15.3 14.8 15.25 14.8 15.15 14.8 13.5 15.4 13.3 15.35 13.05 15.4 12.75 15.35 12.75 15.3 11.55 14.15 Q10.7 12.95 10.3 11.3 L10.05 9.6 Q10.0 8.45 10.45 7.5 L10.55 7.3 10.9 6.8 12.45 6.3 13.15 6.15 13.25 6.15 M13.6 1.85 Q16.1 4.3 17.5 8.5 18.95 12.75 18.45 16.35 18.05 19.25 16.7 20.4 L14.9 21.25 14.05 21.55 7.6 23.45 Q6.2 22.85 4.95 21.7 2.45 19.2 1.05 15.0 -0.45 10.75 0.15 7.2 0.35 5.25 1.05 4.05 L1.25 3.9 7.6 0.8 9.2 0.25 11.0 0.2 Q11.95 0.3 13.6 1.85 M10.75 0.9 L8.75 1.1 8.1 1.4 7.75 1.95 Q7.1 2.95 6.75 4.95 6.15 8.3 7.55 12.35 8.95 16.45 11.35 18.75 12.5 19.9 13.55 20.35 L14.15 20.65 15.05 20.45 15.7 20.2 16.2 19.85 Q17.4 18.85 17.8 16.2 18.25 12.8 16.8 8.75 15.4 4.75 13.1 2.45 11.85 1.2 10.75 0.9 M13.7 6.9 Q12.9 7.3 12.75 8.25 L12.75 8.7 13.0 10.65 Q13.45 12.15 14.15 13.15 14.6 13.85 15.15 14.05 L15.45 13.95 15.5 13.95 15.95 13.0 Q16.05 11.9 15.65 10.35 15.3 8.75 14.55 7.7 14.05 7.05 13.7 6.9 M10.9 8.0 L10.7 9.65 10.95 11.1 Q11.4 12.65 12.1 13.65 L13.05 14.65 13.15 14.7 13.2 14.65 13.35 14.65 14.25 14.35 13.6 13.7 Q12.8 12.45 12.35 10.85 11.9 9.1 12.1 7.8 L12.4 7.1 11.25 7.5 10.95 7.95 10.9 8.0 M6.85 2.0 L1.65 4.6 Q1.25 5.25 1.0 6.25 L0.75 8.4 0.7 9.45 Q0.7 11.9 1.75 14.75 3.1 18.8 5.45 21.2 L7.7 22.7 13.25 20.95 Q12.1 20.6 10.9 19.35 8.35 16.85 6.95 12.65 5.45 8.35 6.0 4.85 6.2 3.15 6.85 2.0" fill="#000000" fill-rule="evenodd" stroke="none"/>
      <path d="M6.85 2.0 Q6.2 3.15 6.0 4.85 5.45 8.35 6.95 12.65 8.35 16.85 10.9 19.35 12.1 20.6 13.25 20.95 L7.7 22.7 5.45 21.2 Q3.1 18.8 1.75 14.75 0.7 11.9 0.7 9.45 L0.75 8.4 1.0 6.25 Q1.25 5.25 1.65 4.6 L6.85 2.0 M10.9 8.0 L10.95 7.95 11.25 7.5 12.4 7.1 12.1 7.8 Q11.9 9.1 12.35 10.85 12.8 12.45 13.6 13.7 L14.25 14.35 13.35 14.65 13.2 14.65 13.15 14.7 13.05 14.65 12.1 13.65 Q11.4 12.65 10.95 11.1 L10.7 9.65 10.9 8.0" fill="#757683" fill-rule="evenodd" stroke="none"/>
    </g>
    <g id="sprite5" transform="matrix(1.0, 0.0, 0.0, 1.0, 0.0, 0.0)">
      <use ffdec:characterId="172" height="54.3" transform="matrix(1.0, 0.0, 0.0, 1.0, 0.0, 0.0)" width="67.65" xlink:href="#shape6"/>
    </g>
    <g id="shape6" transform="matrix(1.0, 0.0, 0.0, 1.0, 0.0, 0.0)">
      <path d="M60.9 11.5 Q61.7 11.05 66.55 16.5 L66.65 16.7 67.65 25.1 67.6 25.4 67.55 25.45 67.35 25.55 10.55 54.25 10.25 54.3 3.45 52.45 3.2 52.25 3.15 52.05 3.05 51.85 0.05 44.15 0.05 43.9 0.2 43.7 7.55 39.05 7.75 39.0 13.8 20.7 Q11.4 17.35 11.4 12.9 L11.4 12.85 Q11.4 7.55 14.9 3.8 18.5 0.0 23.5 0.0 L24.75 0.05 24.9 0.1 25.5 0.45 25.6 0.35 Q25.7 0.25 25.9 0.25 29.35 0.9 32.05 3.8 34.05 5.9 34.95 8.6 L34.95 8.85 35.05 8.95 35.25 8.95 52.7 14.9 52.9 15.1 52.95 15.1 53.15 15.05 53.35 14.9 Q59.15 12.2 60.55 11.65 L60.75 11.6 Q60.8 11.5 60.9 11.5 M62.45 22.15 L62.35 22.25 Q36.85 33.95 4.65 51.95 L10.3 53.5 66.5 25.1 62.45 22.15 M62.0 21.5 L62.1 21.45 62.05 21.3 60.75 12.45 53.7 15.65 53.45 15.65 53.3 15.85 Q47.45 18.45 41.7 21.3 L40.15 22.1 39.9 22.15 39.8 22.25 Q28.7 27.75 17.9 33.95 L17.6 34.0 17.4 34.2 13.8 36.3 8.3 39.55 8.1 39.6 7.95 39.75 0.9 44.15 3.8 51.55 3.85 51.45 Q36.3 33.3 62.0 21.5 M62.85 21.2 L62.85 21.4 66.75 24.3 65.9 16.95 61.55 12.4 62.85 21.2 M41.25 20.4 L41.4 20.55 Q46.7 17.95 52.05 15.5 L35.0 9.7 34.8 9.55 34.6 9.55 34.05 9.35 31.35 15.95 41.25 20.4 M33.95 8.5 L34.1 8.55 Q33.25 6.2 31.45 4.35 29.3 2.05 26.7 1.3 L27.8 2.4 Q30.7 5.55 30.7 10.0 30.7 14.45 27.8 17.6 24.95 20.75 20.9 20.75 16.85 20.75 13.9 17.6 L12.45 15.55 Q12.9 17.8 14.1 19.7 L14.3 19.5 14.6 19.4 14.85 19.55 16.2 20.95 18.1 22.3 18.15 22.35 20.45 23.4 20.65 23.6 20.7 23.9 20.45 24.6 23.5 24.95 Q28.15 24.95 31.45 21.45 L33.4 18.85 30.9 16.6 30.75 16.4 30.7 16.4 30.5 16.15 30.5 15.85 33.45 8.7 33.65 8.5 33.95 8.5 M21.15 5.65 L20.55 5.15 20.5 5.1 18.4 5.25 Q17.1 6.05 16.2 7.65 15.4 9.2 15.6 10.7 L15.6 10.75 Q15.65 11.75 16.25 12.35 L16.3 12.4 17.15 12.8 Q17.85 12.95 18.8 12.4 20.05 11.65 20.9 10.1 21.75 8.5 21.6 6.9 L21.15 5.65 M21.7 5.1 L21.8 5.2 24.1 7.1 24.2 7.25 24.5 8.35 Q24.65 10.15 23.7 11.95 22.75 13.75 21.3 14.6 L19.75 15.15 19.5 15.1 16.8 13.55 16.35 13.35 16.3 13.35 15.8 13.05 15.7 12.95 Q14.9 12.2 14.8 10.8 14.6 9.1 15.5 7.3 L15.5 7.25 Q16.5 5.45 18.0 4.55 19.45 3.7 20.75 4.35 L20.95 4.45 21.7 5.1 M24.6 0.85 L23.5 0.8 Q18.85 0.8 15.5 4.35 12.2 7.85 12.2 12.85 L12.2 12.9 Q12.85 15.2 14.5 17.05 17.15 19.95 20.9 19.95 24.55 19.95 27.2 17.05 29.9 14.15 29.9 10.0 29.9 5.85 27.2 2.95 26.0 1.55 24.6 0.85 M23.7 8.4 L23.55 7.65 22.4 6.7 22.4 6.8 22.4 6.85 Q22.55 8.65 21.6 10.45 20.65 12.25 19.2 13.1 L18.35 13.5 19.8 14.35 20.9 13.9 Q22.15 13.15 23.0 11.6 23.85 9.95 23.7 8.4 M33.4 17.75 L34.2 18.45 39.8 21.2 39.95 21.35 40.6 21.0 33.4 17.75 M34.1 19.3 L32.05 22.0 Q28.45 25.75 23.5 25.75 L20.25 25.35 17.9 33.05 Q28.35 27.05 39.1 21.75 L34.1 19.3 M14.65 20.7 L14.6 20.85 8.85 38.3 13.3 35.7 17.4 22.85 15.7 21.55 14.7 20.65 14.65 20.7 M19.8 24.0 L18.1 23.25 14.3 35.1 16.9 33.6 19.8 24.0" fill="#000000" fill-rule="evenodd" stroke="none"/>
      <path d="M62.45 22.15 L66.5 25.1 10.3 53.5 4.65 51.95 Q36.85 33.95 62.35 22.25 L62.45 22.15 M33.95 8.5 L33.65 8.5 33.45 8.7 30.5 15.85 30.5 16.15 30.7 16.4 30.75 16.4 30.9 16.6 33.4 18.85 31.45 21.45 Q28.15 24.95 23.5 24.95 L20.45 24.6 20.7 23.9 20.65 23.6 20.45 23.4 18.15 22.35 18.1 22.3 16.2 20.95 14.85 19.55 14.6 19.4 14.3 19.5 14.1 19.7 Q12.9 17.8 12.45 15.55 L13.9 17.6 Q16.85 20.75 20.9 20.75 24.95 20.75 27.8 17.6 30.7 14.45 30.7 10.0 30.7 5.55 27.8 2.4 L26.7 1.3 Q29.3 2.05 31.45 4.35 33.25 6.2 34.1 8.55 L33.95 8.5 M33.4 17.75 L40.6 21.0 39.95 21.35 39.8 21.2 34.2 18.45 33.4 17.75 M19.8 24.0 L16.9 33.6 14.3 35.1 18.1 23.25 19.8 24.0" fill="#757683" fill-rule="evenodd" stroke="none"/>
      <path d="M62.85 21.2 L61.55 12.4 65.9 16.95 66.75 24.3 62.85 21.4 62.85 21.2 M23.7 8.4 Q23.85 9.95 23.0 11.6 22.15 13.15 20.9 13.9 L19.8 14.35 18.35 13.5 19.2 13.1 Q20.65 12.25 21.6 10.45 22.55 8.65 22.4 6.85 L22.4 6.8 22.4 6.7 23.55 7.65 23.7 8.4" fill="#b9b9b9" fill-rule="evenodd" stroke="none"/>
      <path d="M62.0 21.5 Q36.3 33.3 3.85 51.45 L3.8 51.55 0.9 44.15 7.95 39.75 8.1 39.6 8.3 39.55 13.8 36.3 17.4 34.2 17.6 34.0 17.9 33.95 Q28.7 27.75 39.8 22.25 L39.9 22.15 40.15 22.1 41.7 21.3 Q47.45 18.45 53.3 15.85 L53.45 15.65 53.7 15.65 60.75 12.45 62.05 21.3 62.1 21.45 62.0 21.5 M41.25 20.4 L31.35 15.95 34.05 9.35 34.6 9.55 34.8 9.55 35.0 9.7 52.05 15.5 Q46.7 17.95 41.4 20.55 L41.25 20.4 M24.6 0.85 Q26.0 1.55 27.2 2.95 29.9 5.85 29.9 10.0 29.9 14.15 27.2 17.05 24.55 19.95 20.9 19.95 17.15 19.95 14.5 17.05 12.85 15.2 12.2 12.9 L12.2 12.85 Q12.2 7.85 15.5 4.35 18.85 0.8 23.5 0.8 L24.6 0.85 M21.7 5.1 L20.95 4.45 20.75 4.35 Q19.45 3.7 18.0 4.55 16.5 5.45 15.5 7.25 L15.5 7.3 Q14.6 9.1 14.8 10.8 14.9 12.2 15.7 12.95 L15.8 13.05 16.3 13.35 16.35 13.35 16.8 13.55 19.5 15.1 19.75 15.15 21.3 14.6 Q22.75 13.75 23.7 11.95 24.65 10.15 24.5 8.35 L24.2 7.25 24.1 7.1 21.8 5.2 21.7 5.1 M21.15 5.65 L21.6 6.9 Q21.75 8.5 20.9 10.1 20.05 11.65 18.8 12.4 17.85 12.95 17.15 12.8 L16.3 12.4 16.25 12.35 Q15.65 11.75 15.6 10.75 L15.6 10.7 Q15.4 9.2 16.2 7.65 17.1 6.05 18.4 5.25 L20.5 5.1 20.55 5.15 21.15 5.65 M14.65 20.7 L14.7 20.65 15.7 21.55 17.4 22.85 13.3 35.7 8.85 38.3 14.6 20.85 14.65 20.7" fill="#8e9297" fill-rule="evenodd" stroke="none"/>
    </g>
  </defs>
</svg>
