<?xml version="1.0" encoding="UTF-8" standalone="no"?>
<svg xmlns:ffdec="https://www.free-decompiler.com/flash" xmlns:xlink="http://www.w3.org/1999/xlink" ffdec:objectType="frame" height="188.1px" width="168.3px" xmlns="http://www.w3.org/2000/svg">
  <g transform="matrix(1.0, 0.0, 0.0, 1.0, -298.75, -90.2)">
    <use ffdec:characterId="111" height="46.05" transform="matrix(1.0, 0.0, 0.0, 1.0, 313.45, 232.25)" width="153.6" xlink:href="#sprite0"/>
    <use ffdec:characterId="174" height="17.9" transform="matrix(-0.7942, -0.3076, -0.3611, 0.9325, 442.4, 236.75)" width="27.65" xlink:href="#shape3"/>
    <use ffdec:characterId="176" height="18.95" transform="matrix(0.7366, -0.0169, 0.0, 0.7366, 337.0554, 226.5121)" width="61.95" xlink:href="#sprite2"/>
    <use ffdec:characterId="176" height="18.95" transform="matrix(1.0, 0.0, 0.0, 1.0, 362.35, 229.4)" width="61.95" xlink:href="#sprite2"/>
    <use ffdec:characterId="178" height="90.95" transform="matrix(1.0, 0.0, 0.0, 1.0, 311.95, 145.95)" width="123.5" xlink:href="#sprite3"/>
    <use ffdec:characterId="180" height="48.95" transform="matrix(1.0, 0.0, 0.0, 1.0, 356.5, 187.65)" width="71.7" xlink:href="#sprite4"/>
    <use ffdec:characterId="182" height="19.25" transform="matrix(1.0, 0.0, 0.0, 1.0, 349.4, 231.0)" width="17.45" xlink:href="#sprite5"/>
    <use ffdec:characterId="182" height="19.25" transform="matrix(0.7359, 0.0, 0.0, 0.7359, 328.3972, 228.0)" width="17.45" xlink:href="#sprite5"/>
    <use ffdec:characterId="174" height="17.9" transform="matrix(0.8436, 0.0, 0.0, 0.8436, 313.35, 227.8)" width="27.65" xlink:href="#shape3"/>
    <use ffdec:characterId="174" height="17.9" transform="matrix(0.9833, 0.182, -0.182, 0.9833, 338.2, 230.95)" width="27.65" xlink:href="#shape3"/>
  </g>
  <defs>
    <g id="sprite0" transform="matrix(1.0, 0.0, 0.0, 1.0, 6.8, -77.45)">
      <use ffdec:characterId="107" height="27.0" transform="matrix(0.4552, -0.0312, -0.0042, 0.2457, 3.75, 84.65)" width="92.85" xlink:href="#shape0"/>
      <use ffdec:characterId="107" height="27.0" transform="matrix(1.0, 0.0, 0.0, 1.0, 39.65, 92.4)" width="92.85" xlink:href="#shape0"/>
      <use ffdec:characterId="107" height="27.0" transform="matrix(0.6977, -0.0049, 0.0826, 0.6195, 20.4, 86.4)" width="92.85" xlink:href="#shape0"/>
      <use ffdec:characterId="107" height="27.0" transform="matrix(0.6088, -0.0439, -0.0013, 0.366, 10.95, 86.0)" width="92.85" xlink:href="#shape0"/>
      <use ffdec:characterId="108" height="21.65" transform="matrix(1.2456, 0.2085, -0.1481, 0.7657, 53.4, 93.45)" width="31.85" xlink:href="#shape1"/>
      <use ffdec:characterId="108" height="21.65" transform="matrix(0.9359, -0.024, -0.0606, 0.6043, 63.65, 93.45)" width="31.85" xlink:href="#shape1"/>
      <use ffdec:characterId="108" height="21.65" transform="matrix(1.1144, 0.0533, -0.0606, 0.6043, 50.3, 90.4)" width="31.85" xlink:href="#shape1"/>
      <use ffdec:characterId="108" height="21.65" transform="matrix(1.4771, 0.1617, -0.0394, 0.6061, 66.6, 92.3)" width="31.85" xlink:href="#shape1"/>
      <use ffdec:characterId="108" height="21.65" transform="matrix(1.0534, -0.0909, 0.0433, 0.5014, 14.95, 84.4)" width="31.85" xlink:href="#shape1"/>
      <use ffdec:characterId="108" height="21.65" transform="matrix(0.8836, -0.1655, 0.1004, 0.5192, 26.4, 84.55)" width="31.85" xlink:href="#shape1"/>
      <use ffdec:characterId="108" height="21.65" transform="matrix(0.6358, -0.0317, -0.2094, 0.5701, 22.55, 95.9)" width="31.85" xlink:href="#shape1"/>
      <use ffdec:characterId="110" height="38.5" transform="matrix(1.0, 0.0, 0.0, 1.0, -6.8, 83.25)" width="94.7" xlink:href="#sprite1"/>
      <use ffdec:characterId="110" height="38.5" transform="matrix(1.1409, -0.0355, 0.2423, 0.8404, 29.45, 80.8)" width="94.7" xlink:href="#sprite1"/>
    </g>
    <g id="shape0" transform="matrix(1.0, 0.0, 0.0, 1.0, 0.0, 0.0)">
      <path d="M92.85 5.65 L92.85 9.3 92.75 9.55 92.55 9.7 10.65 27.0 10.45 27.0 10.3 26.9 0.5 18.7 0.35 18.45 0.0 13.65 0.1 13.35 Q0.15 13.25 0.35 13.2 L76.15 0.0 76.35 0.05 92.6 5.3 92.8 5.45 92.85 5.65 M92.05 9.0 L92.05 6.0 10.9 21.45 10.8 26.15 92.05 9.0 M10.4 21.35 L0.85 14.25 1.15 18.25 10.35 25.9 10.4 21.35 M1.2 13.9 L10.7 20.95 91.15 5.65 76.2 0.85 1.2 13.9" fill="#000000" fill-rule="evenodd" stroke="none"/>
      <path d="M92.05 9.0 L10.8 26.15 10.9 21.45 92.05 6.0 92.05 9.0" fill="#672f00" fill-rule="evenodd" stroke="none"/>
      <path d="M10.4 21.35 L10.35 25.9 1.15 18.25 0.85 14.25 10.4 21.35" fill="#561d00" fill-rule="evenodd" stroke="none"/>
      <path d="M1.2 13.9 L76.2 0.85 91.15 5.65 10.7 20.95 1.2 13.9" fill="#8b5300" fill-rule="evenodd" stroke="none"/>
    </g>
    <g id="shape1" transform="matrix(1.0, 0.0, 0.0, 1.0, 0.0, 0.0)">
      <path d="M0.0 0.35 Q1.65 -1.45 13.7 6.35 26.1 14.4 31.85 21.65 11.55 5.3 0.0 0.35" fill="#895200" fill-rule="evenodd" stroke="none"/>
    </g>
    <g id="sprite1" transform="matrix(1.0, 0.0, 0.0, 1.0, 0.0, 0.0)">
      <use ffdec:characterId="109" height="38.5" transform="matrix(1.0, 0.0, 0.0, 1.0, 0.0, 0.0)" width="94.7" xlink:href="#shape2"/>
    </g>
    <g id="shape2" transform="matrix(1.0, 0.0, 0.0, 1.0, 0.0, 0.0)">
      <path d="M4.65 0.5 L3.0 0.35 3.8 0.1 8.15 0.0 Q53.45 2.15 94.55 34.55 L94.7 34.8 94.7 34.95 94.65 35.1 94.35 35.25 94.05 35.2 93.9 35.05 Q52.25 2.3 4.85 0.5 L4.65 0.5 M79.05 37.25 L79.25 37.45 79.3 37.6 79.25 37.8 79.05 37.85 78.9 37.8 78.4 37.35 76.3 35.5 Q70.75 30.65 64.95 26.45 50.65 16.2 34.65 9.9 21.2 4.55 6.5 2.0 L5.25 1.8 3.7 1.55 2.3 1.35 2.15 1.3 2.7 1.25 4.1 1.15 5.35 1.35 Q21.6 4.0 36.4 10.05 50.55 15.85 63.35 24.75 70.15 29.45 76.6 35.05 L79.05 37.25 M73.7 38.05 L73.7 38.1 73.6 38.4 73.3 38.5 73.05 38.4 72.8 38.2 Q53.85 19.95 27.6 9.85 15.95 5.35 2.9 2.45 L1.1 2.1 0.3 2.0 Q-0.35 1.9 0.45 1.7 L3.5 1.8 6.7 2.55 7.95 2.85 Q19.35 5.65 29.6 9.8 55.05 19.95 73.6 37.8 L73.7 38.05" fill="#000000" fill-rule="evenodd" stroke="none"/>
      <path d="M78.4 37.35 L73.7 38.05 73.6 37.8 Q55.05 19.95 29.6 9.8 19.35 5.65 7.95 2.85 L6.7 2.55 3.5 1.8 3.7 1.55 5.25 1.8 6.5 2.0 Q21.2 4.55 34.65 9.9 50.65 16.2 64.95 26.45 70.75 30.65 76.3 35.5 L78.4 37.35" fill="#757683" fill-rule="evenodd" stroke="none"/>
      <path d="M4.65 0.5 L4.85 0.5 Q52.25 2.3 93.9 35.05 L79.05 37.25 76.6 35.05 Q70.15 29.45 63.35 24.75 50.55 15.85 36.4 10.05 21.6 4.0 5.35 1.35 L4.1 1.15 4.65 0.5" fill="#b9b9b9" fill-rule="evenodd" stroke="none"/>
    </g>
    <g id="shape3" transform="matrix(1.0, 0.0, 0.0, 1.0, 0.0, 0.0)">
      <path d="M13.3 3.95 Q14.55 4.75 14.55 5.6 L14.1 6.0 Q13.0 6.0 12.05 4.1 12.05 3.2 13.3 3.95 M9.1 5.1 L8.85 5.15 Q8.15 5.15 7.8 4.75 L7.4 4.1 Q8.1 3.95 8.65 4.4 9.15 4.75 9.1 5.1 M0.4 4.4 Q0.4 3.85 1.6 4.2 2.75 4.55 2.75 4.95 L2.35 5.5 1.55 5.5 0.65 4.9 0.4 4.4 M18.1 13.0 L17.0 8.35 21.95 13.55 19.15 0.0 27.65 17.9 11.3 14.2 0.0 5.95 15.0 13.3 6.4 4.95 16.8 13.4 8.15 1.65 18.1 13.0" fill="#ffff33" fill-rule="evenodd" stroke="none"/>
    </g>
    <g id="sprite2" transform="matrix(1.0, 0.0, 0.0, 1.0, 0.4, 0.4)">
      <use ffdec:characterId="175" height="18.95" transform="matrix(1.0, 0.0, 0.0, 1.0, -0.4, -0.4)" width="61.95" xlink:href="#shape4"/>
    </g>
    <g id="shape4" transform="matrix(1.0, 0.0, 0.0, 1.0, 0.4, 0.4)">
      <path d="M46.7 0.0 L52.9 0.05 Q54.65 3.0 57.65 6.85 61.15 11.3 61.15 14.05 61.15 15.8 60.7 16.65 L54.9 17.35 Q55.65 17.05 55.65 15.15 55.65 13.05 54.6 11.2 L51.85 6.8 49.25 2.2 Q47.9 0.05 46.7 0.0" fill="#8e9297" fill-rule="evenodd" stroke="none"/>
      <path d="M46.7 0.0 Q47.9 0.05 49.25 2.2 L51.85 6.8 54.6 11.2 Q55.65 13.05 55.65 15.15 55.65 17.05 54.9 17.35 L54.45 17.4 53.75 17.25 52.25 16.3 Q49.8 14.5 48.15 12.1 L47.65 11.45 Q26.45 22.7 0.0 15.1 L1.8 9.25 Q29.0 15.95 45.7 6.35 L45.4 4.8 44.95 2.5 Q44.95 0.05 46.5 0.0 L46.6 0.0 46.7 0.0 M45.7 6.35 L47.9 5.0 Q48.6 5.2 49.7 6.2 50.8 7.2 50.45 9.85 L47.65 11.45 50.45 9.85 Q50.8 7.2 49.7 6.2 48.6 5.2 47.9 5.0 L45.7 6.35" fill="#757683" fill-rule="evenodd" stroke="none"/>
      <path d="M54.9 17.35 L60.7 16.65 Q61.15 15.8 61.15 14.05 61.15 11.3 57.65 6.85 54.65 3.0 52.9 0.05 L46.7 0.0 Q47.9 0.05 49.25 2.2 L51.85 6.8 54.6 11.2 Q55.65 13.05 55.65 15.15 55.65 17.05 54.9 17.35 L54.55 17.4 54.45 17.4 53.75 17.25 52.25 16.3 Q49.8 14.5 48.15 12.1 L47.65 11.45 Q26.45 22.7 0.0 15.1 L1.8 9.25 Q29.0 15.95 45.7 6.35 L45.4 4.8 44.95 2.5 Q44.95 0.05 46.5 0.0 L46.6 0.0 46.7 0.0 M47.65 11.45 L50.45 9.85 Q50.8 7.2 49.7 6.2 48.6 5.2 47.9 5.0 L45.7 6.35 M54.45 17.4 L54.9 17.35" fill="none" stroke="#000000" stroke-linecap="round" stroke-linejoin="round" stroke-width="0.8"/>
    </g>
    <g id="sprite3" transform="matrix(1.0, 0.0, 0.0, 1.0, 0.0, 29.1)">
      <use ffdec:characterId="177" height="90.95" transform="matrix(1.0, 0.0, 0.0, 1.0, 0.0, -29.1)" width="123.5" xlink:href="#shape5"/>
      <use ffdec:characterId="143" height="3.3" transform="matrix(0.5397, 0.0, 0.0, 0.5152, 53.354, 20.5515)" width="3.1" xlink:href="#shape6"/>
      <use ffdec:characterId="143" height="3.3" transform="matrix(0.5397, 0.0, 0.0, 0.5152, 55.054, 27.9515)" width="3.1" xlink:href="#shape6"/>
      <use ffdec:characterId="143" height="3.3" transform="matrix(0.5397, 0.0, 0.0, 0.5152, 56.154, 34.7515)" width="3.1" xlink:href="#shape6"/>
      <use ffdec:characterId="143" height="3.3" transform="matrix(0.5397, 0.0, 0.0, 0.5152, 57.254, 41.2515)" width="3.1" xlink:href="#shape6"/>
      <use ffdec:characterId="143" height="3.3" transform="matrix(0.5397, 0.0, 0.0, 0.5152, 58.654, 47.9515)" width="3.1" xlink:href="#shape6"/>
      <use ffdec:characterId="143" height="3.3" transform="matrix(0.4508, 0.2215, -0.2114, 0.4303, 103.4739, 23.7652)" width="3.1" xlink:href="#shape6"/>
      <use ffdec:characterId="143" height="3.3" transform="matrix(0.4508, 0.2215, -0.2114, 0.4303, 101.7739, 30.5152)" width="3.1" xlink:href="#shape6"/>
      <use ffdec:characterId="143" height="3.3" transform="matrix(0.4508, 0.2215, -0.2114, 0.4303, 100.0239, 36.7652)" width="3.1" xlink:href="#shape6"/>
      <use ffdec:characterId="143" height="3.3" transform="matrix(0.4508, 0.2215, -0.2114, 0.4303, 98.2739, 42.6152)" width="3.1" xlink:href="#shape6"/>
      <use ffdec:characterId="143" height="3.3" transform="matrix(0.4508, 0.2215, -0.2114, 0.4303, 96.7239, 48.7152)" width="3.1" xlink:href="#shape6"/>
    </g>
    <g id="shape5" transform="matrix(1.0, 0.0, 0.0, 1.0, 0.0, 29.1)">
      <path d="M39.8 -25.4 L39.95 -25.6 Q40.6 -26.3 41.8 -26.7 L41.75 -26.7 Q43.45 -27.4 45.95 -27.4 L47.05 -27.3 47.9 -27.65 47.85 -27.65 Q49.25 -28.2 50.0 -28.2 52.9 -28.2 54.85 -26.85 55.0 -26.75 55.25 -26.6 58.35 -26.55 60.4 -24.75 61.7 -23.55 62.15 -22.1 64.3 -24.35 66.85 -25.95 71.6 -29.1 76.15 -29.1 81.45 -29.1 85.2 -26.4 89.0 -23.75 89.3 -19.25 89.55 -15.4 89.0 -13.05 91.0 -12.85 93.05 -12.05 97.2 -10.5 97.5 -6.9 97.6 -5.65 97.2 -4.15 96.5 -1.45 94.55 0.35 92.1 2.5 88.9 3.65 96.55 4.95 103.9 6.75 L104.3 6.55 104.25 6.55 Q106.25 5.4 108.0 4.85 109.9 4.2 113.15 3.95 114.95 3.8 115.75 4.9 116.6 5.85 116.45 8.0 L116.2 10.1 116.2 10.15 122.6 12.25 122.75 12.35 122.85 12.5 Q124.2 17.7 122.65 21.8 L122.0 23.2 121.8 23.4 114.4 26.4 113.05 30.85 Q110.25 38.7 106.1 44.8 100.6 52.7 93.85 56.45 90.85 58.05 87.55 58.95 L82.85 59.7 63.7 61.65 Q55.3 62.05 47.65 61.6 37.65 61.0 28.85 58.9 27.4 58.6 22.4 56.35 14.25 52.55 9.9 46.15 8.2 43.7 6.9 40.25 L1.55 39.85 1.25 39.75 1.15 39.55 Q0.15 38.45 0.05 36.5 L0.05 35.0 0.15 34.75 Q16.75 14.35 39.15 0.1 L39.35 0.05 42.6 0.0 42.8 -0.25 44.2 -2.05 Q42.4 -2.3 40.75 -3.8 38.75 -5.55 38.8 -7.2 L38.85 -7.7 37.25 -7.4 Q35.65 -7.4 35.7 -8.75 35.65 -10.4 37.75 -12.7 L39.3 -14.35 38.15 -14.15 35.55 -13.7 Q34.9 -13.7 34.3 -14.05 33.55 -14.5 33.6 -15.0 33.55 -15.9 35.8 -17.5 L35.75 -17.5 38.0 -18.9 36.5 -19.1 Q35.65 -19.35 35.7 -20.1 35.6 -21.7 38.95 -23.15 L41.9 -24.15 40.05 -25.0 39.85 -25.15 39.8 -25.4 M39.25 -22.4 L39.3 -22.4 Q36.6 -21.2 36.5 -20.1 L36.75 -19.85 38.75 -19.7 39.4 -19.7 41.15 -20.15 42.5 -20.1 Q41.6 -19.3 40.45 -19.1 L39.8 -18.85 38.65 -18.35 Q37.45 -17.8 36.25 -16.85 34.45 -15.6 34.4 -15.0 L34.7 -14.75 35.55 -14.5 38.0 -14.95 40.35 -15.4 40.75 -15.2 40.8 -15.1 39.85 -13.95 38.35 -12.15 Q36.55 -10.15 36.5 -8.75 36.55 -8.3 37.0 -8.2 L40.55 -8.9 41.0 -9.0 41.35 -9.1 39.7 -7.95 39.6 -7.2 Q39.65 -5.85 41.3 -4.4 43.0 -2.85 44.9 -2.8 L45.0 -2.95 45.95 -4.05 Q47.5 -5.5 49.65 -5.5 51.15 -5.5 52.25 -4.5 L53.25 -3.1 54.0 -3.5 53.95 -3.5 Q55.35 -4.3 56.5 -4.5 L57.3 -4.55 Q58.7 -5.5 59.9 -7.2 62.0 -10.35 62.0 -13.6 62.0 -15.65 61.45 -17.55 L61.0 -18.8 61.0 -18.85 60.65 -20.35 60.65 -20.4 61.35 -19.8 61.4 -19.95 61.45 -20.8 Q61.35 -22.15 60.7 -23.15 L59.85 -24.15 Q58.4 -25.4 56.45 -25.7 L57.65 -23.8 56.85 -24.45 55.35 -25.55 Q53.6 -26.9 51.55 -27.3 L50.0 -27.4 48.55 -27.05 Q49.8 -26.75 51.2 -26.05 L51.55 -25.85 51.5 -25.85 47.05 -26.5 45.95 -26.6 42.05 -25.95 40.95 -25.45 42.2 -24.9 42.9 -24.65 Q45.15 -24.8 47.1 -24.05 L46.3 -23.85 41.65 -23.25 39.25 -22.4 M76.15 -28.3 Q71.8 -28.3 67.3 -25.3 64.55 -23.55 62.3 -21.1 L62.3 -20.85 62.3 -20.75 62.0 -19.3 61.8 -18.95 62.2 -17.8 Q62.8 -15.75 62.8 -13.6 62.8 -10.15 60.55 -6.75 L58.4 -4.35 Q59.1 -4.1 59.8 -3.5 61.3 -2.1 61.55 0.45 L61.55 0.5 73.65 1.5 Q71.7 0.0 71.95 -2.4 72.05 -3.75 72.9 -5.3 74.15 -7.8 76.6 -9.4 L76.6 -9.45 79.25 -10.9 79.1 -10.9 Q76.05 -12.5 72.95 -12.1 L71.25 -11.75 71.1 -11.8 70.95 -11.95 71.0 -12.1 71.15 -12.25 72.85 -12.6 72.9 -12.6 Q75.6 -12.95 78.25 -11.85 L78.15 -12.0 Q76.15 -14.45 72.75 -14.05 L72.55 -14.1 72.45 -14.25 72.5 -14.45 72.7 -14.55 Q76.35 -14.95 78.55 -12.3 L79.4 -11.3 79.45 -11.15 79.4 -11.0 79.35 -10.95 Q81.7 -12.05 84.3 -12.7 L84.25 -12.65 84.55 -12.75 84.6 -12.8 84.75 -12.8 84.75 -12.85 84.85 -13.05 86.9 -14.4 87.1 -14.45 87.25 -14.3 87.25 -14.1 87.15 -13.95 85.6 -12.95 88.05 -13.1 88.2 -13.05 Q88.8 -15.35 88.5 -19.2 88.2 -23.35 84.75 -25.75 81.15 -28.3 76.15 -28.3 M56.15 -12.65 L56.35 -12.6 55.75 -11.85 56.1 -11.5 56.15 -11.35 Q56.15 -10.65 55.4 -10.65 54.85 -10.6 54.85 -11.35 54.85 -11.7 55.2 -12.0 L55.35 -12.15 55.35 -12.2 Q55.8 -12.6 56.15 -12.65 M54.8 -19.15 L55.2 -18.6 55.5 -17.9 55.75 -16.2 55.75 -16.05 56.05 -15.7 Q56.25 -15.55 56.65 -15.5 57.0 -15.5 57.95 -16.55 L59.75 -18.5 59.65 -18.25 59.0 -17.35 57.6 -15.45 57.65 -15.45 57.7 -15.45 60.05 -15.25 60.1 -15.2 57.65 -14.95 56.55 -14.85 56.85 -14.5 Q57.25 -14.25 58.6 -13.75 L58.65 -13.7 58.15 -13.65 Q57.65 -13.65 56.85 -14.1 L55.9 -14.75 55.8 -14.9 55.85 -15.05 55.9 -15.15 55.95 -15.15 55.75 -15.3 55.6 -15.45 55.15 -14.95 55.0 -14.7 54.95 -14.65 54.9 -14.6 53.05 -13.45 Q51.75 -12.95 51.15 -12.95 L52.8 -13.7 Q54.15 -14.3 54.2 -14.8 L51.45 -15.25 47.9 -14.7 47.1 -14.55 47.2 -14.6 49.1 -15.25 51.45 -15.75 53.7 -15.45 51.9 -16.8 Q50.6 -17.85 49.05 -17.6 L47.25 -17.25 47.0 -17.1 Q48.7 -18.15 49.5 -18.15 50.8 -18.15 52.7 -16.75 54.4 -15.5 54.9 -15.45 L54.95 -15.45 55.25 -15.95 Q55.3 -17.6 54.85 -18.9 L54.75 -19.2 54.8 -19.15 M45.4 -2.3 L45.3 -2.15 43.65 0.0 49.4 0.05 49.45 0.05 49.6 -0.15 49.6 -0.2 Q50.35 -1.2 52.45 -2.55 L52.4 -2.55 52.55 -2.65 52.55 -2.7 51.7 -3.9 Q50.85 -4.7 49.65 -4.7 47.8 -4.7 46.5 -3.45 L46.45 -3.45 45.65 -2.45 45.4 -2.3 M55.35 -11.35 L55.4 -11.15 Q55.6 -11.15 55.65 -11.25 L55.4 -11.45 55.35 -11.35 M56.85 -10.35 L56.35 -9.75 Q56.05 -9.4 55.45 -9.4 L55.0 -9.8 Q55.85 -9.8 56.85 -10.35 M52.9 -1.9 Q51.2 -0.8 50.45 0.05 L54.6 0.2 54.65 0.1 54.6 0.1 55.1 -1.1 55.35 -1.3 55.65 -1.2 55.8 -0.95 55.75 -0.65 55.4 0.3 55.25 1.0 55.25 1.05 55.25 1.1 55.1 1.9 55.15 2.85 55.15 2.9 Q55.25 4.85 55.9 6.45 56.6 8.35 57.6 8.4 58.7 8.35 59.65 6.7 60.5 5.2 60.75 3.2 L60.8 1.65 60.8 1.3 60.8 1.25 60.75 0.55 Q60.5 -1.7 59.25 -2.9 58.4 -3.7 57.4 -3.75 L57.35 -3.75 56.7 -3.7 Q55.65 -3.5 54.35 -2.8 L54.35 -2.75 53.3 -2.15 53.25 -2.15 52.9 -1.9 M96.7 -5.85 Q96.95 -9.75 92.75 -11.3 90.8 -12.05 88.85 -12.25 L88.7 -12.3 88.65 -12.3 88.35 -12.25 Q88.25 -12.3 88.25 -12.3 L88.05 -12.3 84.75 -12.0 84.8 -12.0 84.6 -11.95 84.5 -11.9 Q80.5 -10.9 77.0 -8.75 L77.05 -8.75 Q74.75 -7.3 73.6 -4.95 72.6 -3.1 72.75 -1.6 72.9 0.15 74.7 1.25 L75.6 1.75 87.65 3.4 87.65 3.3 Q87.7 3.15 87.9 3.15 91.4 2.05 94.0 -0.25 95.8 -1.85 96.4 -4.35 L96.45 -4.35 96.7 -5.85 M91.75 -1.4 L91.5 -1.65 91.45 -1.8 91.55 -2.0 91.75 -2.05 91.9 -1.95 92.5 -1.85 93.1 -2.0 Q94.05 -2.25 94.1 -2.75 L94.1 -2.95 94.2 -2.85 94.25 -2.65 Q94.0 -1.25 92.6 -1.25 L91.75 -1.4 M93.95 -6.2 L94.0 -6.2 93.6 -5.55 93.85 -4.5 Q93.85 -3.85 93.5 -3.4 93.05 -2.95 92.45 -2.95 91.2 -2.95 91.25 -3.85 91.2 -4.75 93.05 -5.8 L93.95 -6.2 M93.2 -5.25 L93.15 -5.3 Q91.8 -4.5 91.75 -3.85 91.8 -3.45 92.45 -3.45 92.85 -3.45 93.1 -3.75 L93.35 -4.5 93.2 -5.25 M115.35 12.7 L115.3 12.75 115.35 12.75 114.55 14.05 114.5 14.05 Q112.75 16.25 111.65 16.15 110.45 16.1 109.8 15.15 109.1 14.2 109.1 12.8 109.1 11.75 109.35 10.95 L109.35 10.9 109.45 10.65 110.0 9.15 104.05 7.6 103.8 7.6 103.6 7.5 Q83.65 2.6 61.6 1.3 L61.6 1.65 61.55 3.25 61.55 3.3 Q61.3 5.5 60.35 7.1 59.1 9.25 57.6 9.2 56.1 9.25 55.15 6.75 54.45 5.05 54.35 2.95 L54.35 2.85 54.3 1.85 54.3 1.8 54.45 0.95 Q47.1 0.7 39.5 0.85 L38.4 4.1 38.05 5.0 38.0 5.15 38.1 4.3 38.85 1.3 Q17.05 15.25 0.85 35.15 L0.85 35.85 Q0.8 37.85 1.75 38.95 L7.35 34.25 Q21.5 22.9 38.85 13.55 L38.3 11.45 39.35 13.4 Q81.75 11.35 121.4 22.65 L122.35 20.05 Q123.1 16.8 122.15 12.9 L116.0 10.9 115.35 12.7 M115.15 5.4 Q114.5 4.65 113.2 4.75 110.1 5.0 108.25 5.6 106.75 6.05 105.05 7.05 L110.3 8.45 110.35 8.35 110.75 7.35 110.95 7.15 111.3 7.15 111.5 7.35 111.5 7.7 111.1 8.7 111.05 8.75 110.8 9.35 110.8 9.4 110.2 10.9 110.15 10.95 110.15 11.0 110.15 11.15 Q109.9 11.8 109.9 12.8 109.9 13.9 110.45 14.7 110.85 15.3 111.7 15.35 112.45 15.35 113.9 13.55 L114.55 12.45 114.6 12.4 115.25 10.7 115.2 10.7 115.25 10.65 115.45 9.95 115.4 10.0 115.65 7.95 Q115.75 6.2 115.15 5.4 M112.55 29.75 L113.7 26.0 113.75 25.85 Q113.8 25.75 113.9 25.75 L114.3 24.1 102.65 22.6 101.85 25.75 94.1 55.35 Q100.35 51.7 105.45 44.35 109.55 38.3 112.3 30.6 L112.55 29.75 M102.45 22.05 L102.55 22.05 114.65 23.65 114.75 23.7 114.85 23.85 114.85 24.0 114.45 25.5 120.65 23.0 Q81.3 11.9 39.25 13.9 21.8 23.3 7.65 34.65 L2.35 39.1 6.75 39.45 6.35 38.25 6.35 38.1 6.45 37.95 13.15 33.8 13.2 33.75 13.25 33.75 22.9 27.65 23.0 27.55 37.75 18.35 37.9 18.25 37.95 18.25 Q46.95 18.2 55.85 18.55 L55.9 18.55 Q79.45 19.3 102.45 22.05 M57.15 23.55 L63.75 55.7 Q71.1 58.95 79.9 59.1 L80.65 59.1 81.45 59.1 82.75 58.9 82.8 58.9 87.35 58.15 87.35 58.2 Q90.55 57.35 93.45 55.75 L93.5 55.75 101.3 25.7 102.15 22.55 Q79.45 19.8 56.25 19.05 L57.15 23.55 M56.65 23.5 L55.7 19.05 Q46.95 18.7 38.2 18.75 38.35 21.45 39.0 24.4 L39.05 24.55 39.65 27.0 39.65 27.05 Q42.0 35.2 47.3 42.2 54.1 51.2 63.15 55.45 L56.65 23.5 M39.2 27.25 L39.15 27.2 39.15 27.15 38.55 24.65 Q37.85 21.65 37.7 18.95 L23.35 27.9 24.1 30.85 Q25.0 34.1 26.4 37.15 L26.45 37.25 Q28.45 41.7 31.45 45.7 37.55 53.75 47.0 57.4 54.4 60.25 62.4 60.9 L63.65 60.85 78.2 59.55 Q70.15 59.1 63.4 56.1 53.95 51.85 46.9 42.5 41.55 35.45 39.2 27.25 M8.1 37.5 L6.85 38.3 7.3 39.5 7.4 39.55 7.55 39.7 Q8.85 43.2 10.55 45.7 14.85 51.95 22.75 55.6 27.6 57.8 29.0 58.1 L39.35 60.0 Q30.85 57.65 24.25 52.05 L20.85 48.8 20.7 48.65 Q15.05 42.4 13.1 34.4 L8.1 37.5 M26.05 37.55 L26.0 37.45 Q24.55 34.35 23.6 31.0 L22.9 28.2 13.55 34.1 Q15.4 42.0 20.9 48.1 L21.05 48.3 24.6 51.65 24.55 51.65 Q32.95 58.8 44.35 60.55 L47.7 60.8 Q53.1 61.1 58.9 61.0 52.7 60.1 46.8 57.85 37.25 54.15 31.05 46.0 28.05 42.0 26.05 37.55" fill="#000000" fill-rule="evenodd" stroke="none"/>
      <path d="M115.35 12.7 Q117.95 13.45 120.45 14.35 121.05 15.5 121.7 17.7 L122.35 20.05 121.4 22.65 Q81.75 11.35 39.35 13.4 L38.3 11.45 Q37.85 10.35 37.7 9.25 38.05 7.5 38.85 5.85 39.65 4.25 41.65 2.55 L54.35 2.85 54.35 2.95 Q54.45 5.05 55.15 6.75 56.1 9.25 57.6 9.2 59.1 9.25 60.35 7.1 61.3 5.5 61.55 3.3 L61.55 3.25 Q87.9 5.0 109.35 10.9 L109.35 10.95 Q109.1 11.75 109.1 12.8 109.1 14.2 109.8 15.15 110.45 16.1 111.65 16.15 112.75 16.25 114.5 14.05 L114.55 14.05 115.35 12.75 115.3 12.75 115.35 12.7 M112.55 29.75 L112.3 30.6 Q109.55 38.3 105.45 44.35 100.35 51.7 94.1 55.35 L101.85 25.75 105.65 26.4 Q111.8 27.65 112.55 29.75 M57.15 23.55 L70.55 24.1 88.35 24.75 101.3 25.7 93.5 55.75 93.45 55.75 Q90.55 57.35 87.35 58.2 L87.35 58.15 82.8 58.9 82.75 58.9 81.45 59.1 80.65 59.1 79.9 59.1 Q71.1 58.95 63.75 55.7 L57.15 23.55 M56.65 23.5 L63.15 55.45 Q54.1 51.2 47.3 42.2 42.0 35.2 39.65 27.05 L39.65 27.0 39.05 24.55 39.0 24.4 40.05 23.5 Q41.45 22.55 43.15 22.55 L56.65 23.5 M38.1 4.3 Q18.8 16.0 0.85 35.85 L0.85 35.15 Q17.05 15.25 38.85 1.3 L38.1 4.3" fill="#b9b9b9" fill-rule="evenodd" stroke="none"/>
      <path d="M122.35 20.05 L121.7 17.7 Q121.05 15.5 120.45 14.35 117.95 13.45 115.35 12.7 L116.0 10.9 122.15 12.9 Q123.1 16.8 122.35 20.05 M109.35 10.9 Q87.9 5.0 61.55 3.25 L61.6 1.65 61.6 1.3 Q83.65 2.6 103.6 7.5 L103.8 7.6 104.05 7.6 110.0 9.15 109.45 10.65 109.35 10.9 M54.35 2.85 L41.65 2.55 Q39.65 4.25 38.85 5.85 38.05 7.5 37.7 9.25 37.35 7.2 38.0 5.2 L38.0 5.15 38.05 5.0 38.4 4.1 39.5 0.85 Q47.1 0.7 54.45 0.95 L54.3 1.8 54.3 1.85 54.35 2.85" fill="#dfdfdf" fill-rule="evenodd" stroke="none"/>
      <path d="M102.45 22.05 Q79.45 19.3 55.9 18.55 L55.85 18.55 Q46.95 18.2 37.95 18.25 L37.9 18.25 37.75 18.35 23.0 27.55 22.9 27.65 13.25 33.75 13.2 33.75 13.15 33.8 6.45 37.95 6.35 38.1 6.35 38.25 6.75 39.45 2.35 39.1 7.65 34.65 Q21.8 23.3 39.25 13.9 81.3 11.9 120.65 23.0 L114.45 25.5 114.85 24.0 114.85 23.85 114.75 23.7 114.65 23.65 102.55 22.05 102.45 22.05 M101.85 25.75 L102.65 22.6 114.3 24.1 113.9 25.75 Q113.8 25.75 113.75 25.85 L113.7 26.0 112.55 29.75 Q111.8 27.65 105.65 26.4 L101.85 25.75 M101.3 25.7 L88.35 24.75 70.55 24.1 57.15 23.55 56.25 19.05 Q79.45 19.8 102.15 22.55 L101.3 25.7 M39.0 24.4 Q38.35 21.45 38.2 18.75 46.95 18.7 55.7 19.05 L56.65 23.5 43.15 22.55 Q41.45 22.55 40.05 23.5 L39.0 24.4 M26.4 37.15 Q25.0 34.1 24.1 30.85 L23.35 27.9 37.7 18.95 Q37.85 21.65 38.55 24.65 L39.15 27.15 39.15 27.2 39.2 27.25 Q32.7 30.55 27.55 35.85 L26.4 37.15 M20.85 48.8 L20.85 48.95 Q20.85 50.35 21.4 52.15 L21.9 53.75 19.8 52.3 Q15.45 49.25 13.25 46.75 10.7 43.85 9.1 40.2 L8.1 37.5 13.1 34.4 Q15.05 42.4 20.7 48.65 L20.85 48.8 M20.9 48.1 Q15.4 42.0 13.55 34.1 L22.9 28.2 23.6 31.0 Q24.55 34.35 26.0 37.45 L26.05 37.55 Q21.25 43.1 20.9 48.1" fill="#757683" fill-rule="evenodd" stroke="none"/>
      <path d="M37.7 9.25 Q37.85 10.35 38.3 11.45 L38.85 13.55 Q21.5 22.9 7.35 34.25 L1.75 38.95 Q0.8 37.85 0.85 35.85 18.8 16.0 38.1 4.3 L38.0 5.15 38.0 5.2 Q37.35 7.2 37.7 9.25 M39.2 27.25 Q41.55 35.45 46.9 42.5 53.95 51.85 63.4 56.1 70.15 59.1 78.2 59.55 L63.65 60.85 62.4 60.9 Q54.4 60.25 47.0 57.4 37.55 53.75 31.45 45.7 28.45 41.7 26.45 37.25 L26.4 37.15 27.55 35.85 Q32.7 30.55 39.2 27.25 M8.1 37.5 L9.1 40.2 Q10.7 43.85 13.25 46.75 15.45 49.25 19.8 52.3 L21.9 53.75 21.4 52.15 Q20.85 50.35 20.85 48.95 L20.85 48.8 24.25 52.05 Q30.85 57.65 39.35 60.0 L29.0 58.1 Q27.6 57.8 22.75 55.6 14.85 51.95 10.55 45.7 8.85 43.2 7.55 39.7 L7.4 39.55 7.3 39.5 6.85 38.3 8.1 37.5 M26.05 37.55 Q28.05 42.0 31.05 46.0 37.25 54.15 46.8 57.85 52.7 60.1 58.9 61.0 53.1 61.1 47.7 60.8 L44.35 60.55 Q32.95 58.8 24.55 51.65 L24.6 51.65 21.05 48.3 20.9 48.1 Q21.25 43.1 26.05 37.55" fill="#8e9297" fill-rule="evenodd" stroke="none"/>
      <path d="M39.25 -22.4 L41.65 -23.25 46.3 -23.85 47.1 -24.05 Q45.15 -24.8 42.9 -24.65 L42.2 -24.9 40.95 -25.45 42.05 -25.95 45.95 -26.6 47.05 -26.5 51.5 -25.85 51.55 -25.85 51.2 -26.05 Q49.8 -26.75 48.55 -27.05 L50.0 -27.4 51.55 -27.3 Q53.6 -26.9 55.35 -25.55 L56.85 -24.45 57.65 -23.8 56.45 -25.7 Q58.4 -25.4 59.85 -24.15 L60.7 -23.15 Q61.35 -22.15 61.45 -20.8 L61.4 -19.95 61.35 -19.8 60.65 -20.4 60.65 -20.35 61.0 -18.85 61.0 -18.8 61.45 -17.55 Q62.0 -15.65 62.0 -13.6 62.0 -10.35 59.9 -7.2 58.7 -5.5 57.3 -4.55 L56.5 -4.5 Q55.35 -4.3 53.95 -3.5 L54.0 -3.5 53.25 -3.1 52.25 -4.5 Q51.15 -5.5 49.65 -5.5 47.5 -5.5 45.95 -4.05 L45.0 -2.95 44.9 -2.8 Q43.0 -2.85 41.3 -4.4 39.65 -5.85 39.6 -7.2 L39.7 -7.95 41.35 -9.1 41.0 -9.0 40.55 -8.9 37.0 -8.2 Q36.55 -8.3 36.5 -8.75 36.55 -10.15 38.35 -12.15 L39.85 -13.95 40.8 -15.1 40.75 -15.2 40.35 -15.4 38.0 -14.95 35.55 -14.5 34.7 -14.75 34.4 -15.0 Q34.45 -15.6 36.25 -16.85 37.45 -17.8 38.65 -18.35 L39.8 -18.85 40.45 -19.1 Q41.6 -19.3 42.5 -20.1 L41.15 -20.15 39.4 -19.7 38.75 -19.7 36.75 -19.85 36.5 -20.1 Q36.6 -21.2 39.3 -22.4 L39.25 -22.4 M54.8 -19.15 L54.75 -19.2 54.85 -18.9 Q55.3 -17.6 55.25 -15.95 L54.95 -15.45 54.9 -15.45 Q54.4 -15.5 52.7 -16.75 50.8 -18.15 49.5 -18.15 48.7 -18.15 47.0 -17.1 L47.25 -17.25 49.05 -17.6 Q50.6 -17.85 51.9 -16.8 L53.7 -15.45 51.45 -15.75 49.1 -15.25 47.2 -14.6 47.1 -14.55 47.9 -14.7 51.45 -15.25 54.2 -14.8 Q54.15 -14.3 52.8 -13.7 L51.15 -12.95 Q51.75 -12.95 53.05 -13.45 L54.9 -14.6 54.95 -14.65 55.0 -14.7 55.15 -14.95 55.6 -15.45 55.75 -15.3 55.95 -15.15 55.9 -15.15 55.85 -15.05 55.8 -14.9 55.9 -14.75 56.85 -14.1 Q57.65 -13.65 58.15 -13.65 L58.65 -13.7 58.6 -13.75 Q57.25 -14.25 56.85 -14.5 L56.55 -14.85 57.65 -14.95 60.1 -15.2 60.05 -15.25 57.7 -15.45 57.65 -15.45 57.6 -15.45 59.0 -17.35 59.65 -18.25 59.75 -18.5 57.95 -16.55 Q57.0 -15.5 56.65 -15.5 56.25 -15.55 56.05 -15.7 L55.75 -16.05 55.75 -16.2 55.5 -17.9 55.2 -18.6 54.8 -19.15 M56.15 -12.65 Q55.8 -12.6 55.35 -12.2 L55.35 -12.15 55.2 -12.0 Q54.85 -11.7 54.85 -11.35 54.85 -10.6 55.4 -10.65 56.15 -10.65 56.15 -11.35 L56.1 -11.5 55.75 -11.85 56.35 -12.6 56.15 -12.65 M56.85 -10.35 Q55.85 -9.8 55.0 -9.8 L55.45 -9.4 Q56.05 -9.4 56.35 -9.75 L56.85 -10.35 M55.35 -11.35 L55.4 -11.45 55.65 -11.25 Q55.6 -11.15 55.4 -11.15 L55.35 -11.35" fill="#666666" fill-rule="evenodd" stroke="none"/>
      <path d="M76.15 -28.3 Q81.15 -28.3 84.75 -25.75 88.2 -23.35 88.5 -19.2 88.8 -15.35 88.2 -13.05 L88.05 -13.1 85.6 -12.95 87.15 -13.95 87.25 -14.1 87.25 -14.3 87.1 -14.45 86.9 -14.4 84.85 -13.05 84.75 -12.85 84.75 -12.8 84.6 -12.8 84.55 -12.75 84.25 -12.65 84.3 -12.7 Q81.7 -12.05 79.35 -10.95 L79.4 -11.0 79.45 -11.15 79.4 -11.3 78.55 -12.3 Q76.35 -14.95 72.7 -14.55 L72.5 -14.45 72.45 -14.25 72.55 -14.1 72.75 -14.05 Q76.15 -14.45 78.15 -12.0 L78.25 -11.85 Q75.6 -12.95 72.9 -12.6 L72.85 -12.6 71.15 -12.25 71.0 -12.1 70.95 -11.95 71.1 -11.8 71.25 -11.75 72.95 -12.1 Q76.05 -12.5 79.1 -10.9 L79.25 -10.9 76.6 -9.45 76.6 -9.4 Q74.15 -7.8 72.9 -5.3 72.05 -3.75 71.95 -2.4 71.7 0.0 73.65 1.5 L61.55 0.5 61.55 0.45 Q61.3 -2.1 59.8 -3.5 59.1 -4.1 58.4 -4.35 L60.55 -6.75 Q62.8 -10.15 62.8 -13.6 62.8 -15.75 62.2 -17.8 L61.8 -18.95 62.0 -19.3 62.3 -20.75 62.3 -20.85 62.3 -21.1 Q64.55 -23.55 67.3 -25.3 71.8 -28.3 76.15 -28.3 M45.4 -2.3 L45.65 -2.45 46.45 -3.45 46.5 -3.45 Q47.8 -4.7 49.65 -4.7 50.85 -4.7 51.7 -3.9 L52.55 -2.7 52.55 -2.65 52.4 -2.55 52.45 -2.55 Q50.35 -1.2 49.6 -0.2 L49.6 -0.15 49.45 0.05 49.4 0.05 43.65 0.0 45.3 -2.15 45.4 -2.3 M52.9 -1.9 L53.25 -2.15 53.3 -2.15 54.35 -2.75 54.35 -2.8 Q55.65 -3.5 56.7 -3.7 L57.35 -3.75 57.4 -3.75 Q58.4 -3.7 59.25 -2.9 60.5 -1.7 60.75 0.55 L60.8 1.25 60.8 1.3 60.8 1.65 60.75 3.2 Q60.5 5.2 59.65 6.7 58.7 8.35 57.6 8.4 56.6 8.35 55.9 6.45 55.25 4.85 55.15 2.9 L55.15 2.85 55.1 1.9 55.25 1.1 55.25 1.05 55.25 1.0 55.4 0.3 55.75 -0.65 55.8 -0.95 55.65 -1.2 55.35 -1.3 55.1 -1.1 54.6 0.1 54.65 0.1 54.6 0.2 50.45 0.05 Q51.2 -0.8 52.9 -1.9 M115.15 5.4 Q115.75 6.2 115.65 7.95 L115.4 10.0 115.45 9.95 115.25 10.65 115.2 10.7 115.25 10.7 114.6 12.4 114.55 12.45 113.9 13.55 Q112.45 15.35 111.7 15.35 110.85 15.3 110.45 14.7 109.9 13.9 109.9 12.8 109.9 11.8 110.15 11.15 L110.15 11.0 110.15 10.95 110.2 10.9 110.8 9.4 110.8 9.35 111.05 8.75 111.1 8.7 111.5 7.7 111.5 7.35 111.3 7.15 110.95 7.15 110.75 7.35 110.35 8.35 110.3 8.45 105.05 7.05 Q106.75 6.05 108.25 5.6 110.1 5.0 113.2 4.75 114.5 4.65 115.15 5.4" fill="#650099" fill-rule="evenodd" stroke="none"/>
      <path d="M72.75 -1.6 Q72.6 -3.1 73.6 -4.95 74.75 -7.3 77.05 -8.75 L77.0 -8.75 Q80.5 -10.9 84.5 -11.9 L84.6 -11.95 84.8 -12.0 84.75 -12.0 88.05 -12.3 88.25 -12.3 Q88.25 -12.3 88.35 -12.25 L88.65 -12.3 88.7 -12.3 88.85 -12.25 Q90.8 -12.05 92.75 -11.3 96.95 -9.75 96.7 -5.85 94.6 -3.25 92.5 -1.85 L91.9 -1.95 91.75 -2.05 91.55 -2.0 91.45 -1.8 91.5 -1.65 91.75 -1.4 Q87.9 0.8 81.6 0.8 76.9 0.8 74.15 -0.7 L72.75 -1.6 M93.95 -6.2 L93.05 -5.8 Q91.2 -4.75 91.25 -3.85 91.2 -2.95 92.45 -2.95 93.05 -2.95 93.5 -3.4 93.85 -3.85 93.85 -4.5 L93.6 -5.55 94.0 -6.2 93.95 -6.2" fill="#ffb409" fill-rule="evenodd" stroke="none"/>
      <path d="M93.2 -5.25 L93.35 -4.5 93.1 -3.75 Q92.85 -3.45 92.45 -3.45 91.8 -3.45 91.75 -3.85 91.8 -4.5 93.15 -5.3 L93.2 -5.25" fill="#4c0000" fill-rule="evenodd" stroke="none"/>
      <path d="M96.7 -5.85 L96.45 -4.35 96.4 -4.35 Q95.8 -1.85 94.0 -0.25 91.4 2.05 87.9 3.15 87.7 3.15 87.65 3.3 L87.65 3.4 75.6 1.75 74.7 1.25 Q72.9 0.15 72.75 -1.6 L74.15 -0.7 Q76.9 0.8 81.6 0.8 87.9 0.8 91.75 -1.4 L92.6 -1.25 Q94.0 -1.25 94.25 -2.65 L94.2 -2.85 94.1 -2.95 94.1 -2.75 Q94.05 -2.25 93.1 -2.0 L92.5 -1.85 Q94.6 -3.25 96.7 -5.85" fill="#f99108" fill-rule="evenodd" stroke="none"/>
    </g>
    <g id="shape6" transform="matrix(1.0, 0.0, 0.0, 1.0, -0.1, -0.1)">
      <path d="M0.4 3.25 Q-0.05 2.9 0.2 2.25 0.35 1.6 0.8 1.0 1.45 0.4 2.1 0.2 L3.0 0.25 Q3.3 0.6 3.2 1.1 3.05 1.85 2.55 2.45 L1.35 3.3 0.4 3.25" fill="#000000" fill-rule="evenodd" stroke="none"/>
    </g>
    <g id="sprite4" transform="matrix(1.0, 0.0, 0.0, 1.0, 0.0, 0.0)">
      <use ffdec:characterId="179" height="48.95" transform="matrix(1.0, 0.0, 0.0, 1.0, 0.0, 0.0)" width="71.7" xlink:href="#shape7"/>
    </g>
    <g id="shape7" transform="matrix(1.0, 0.0, 0.0, 1.0, 0.0, 0.0)">
      <path d="M43.95 3.4 Q46.95 6.8 46.95 11.5 46.95 14.3 45.95 16.6 L46.1 16.7 60.6 35.3 60.8 35.25 69.55 35.65 69.8 35.75 69.9 36.0 71.7 46.7 71.65 47.0 71.4 47.15 64.95 48.95 64.85 48.95 0.35 47.9 0.1 47.75 0.05 47.7 0.0 47.5 0.0 47.45 1.35 36.05 1.5 35.8 5.3 32.75 5.6 32.65 9.45 32.85 9.6 32.9 26.55 14.55 26.65 14.45 Q26.35 13.05 26.35 11.5 26.35 6.8 29.35 3.4 32.35 0.0 36.7 0.0 L38.85 0.25 Q41.75 0.85 43.95 3.4 M43.95 19.65 L43.9 19.7 43.85 19.8 42.25 21.2 54.45 35.0 59.5 35.2 45.55 17.35 43.95 19.65 M43.05 10.1 Q43.05 8.45 42.0 7.25 L41.95 7.2 Q41.0 6.05 39.6 6.05 L38.75 6.2 38.65 6.25 38.6 6.3 37.95 6.75 37.95 6.8 Q37.45 7.35 37.25 8.0 36.95 8.65 36.95 9.4 36.95 11.0 37.95 12.1 39.0 13.15 40.4 13.15 41.5 13.15 42.4 12.55 L42.8 11.6 42.85 11.6 43.05 10.1 M42.35 6.9 Q43.55 8.25 43.55 10.1 L43.3 11.75 42.85 12.8 42.75 12.85 42.35 13.3 42.35 13.35 Q41.2 14.65 39.6 14.65 38.0 14.65 36.8 13.35 L36.75 13.3 Q35.65 12.0 35.65 10.1 35.65 8.25 36.75 6.9 L36.85 6.85 Q37.6 6.0 38.5 5.75 L38.55 5.75 39.6 5.55 Q41.2 5.55 42.35 6.9 M46.15 11.5 Q46.15 7.1 43.35 3.95 41.35 1.65 38.7 1.05 L38.65 1.05 37.75 0.9 37.7 1.0 37.55 1.1 36.25 1.55 Q34.65 2.25 33.35 3.7 30.8 6.55 30.8 10.5 30.8 14.55 33.35 17.4 35.9 20.2 39.55 20.2 41.45 20.2 43.0 19.5 L43.25 19.25 43.4 19.1 43.35 19.1 44.95 16.8 45.1 16.6 45.15 16.45 Q46.15 14.2 46.15 11.5 M41.8 21.5 L41.1 21.95 50.45 34.85 50.65 34.8 53.7 34.95 41.8 21.5 M40.55 21.4 L40.65 21.25 41.55 20.75 42.0 20.4 39.55 20.7 Q35.7 20.7 33.0 17.75 30.3 14.75 30.3 10.5 30.3 6.35 33.0 3.35 34.35 1.85 36.05 1.1 L36.75 0.8 36.7 0.8 Q32.75 0.8 29.95 3.95 27.15 7.1 27.15 11.5 L27.4 14.0 27.45 14.0 29.4 13.55 29.7 13.65 29.85 13.9 29.85 14.1 29.85 14.15 Q30.15 17.05 31.6 18.85 L31.7 19.15 31.55 19.4 31.5 19.45 31.45 19.65 31.1 20.15 31.05 20.2 Q33.5 22.2 36.65 22.2 38.4 22.2 40.0 21.6 L40.2 21.55 40.3 21.5 40.55 21.4 M60.55 36.0 L60.3 36.05 60.05 35.95 59.8 36.0 50.6 35.6 50.35 35.55 50.15 35.55 49.95 35.5 49.7 35.55 21.65 34.2 21.4 34.15 21.25 34.2 20.95 34.15 20.75 34.15 10.35 33.7 10.05 33.6 9.85 33.65 9.6 33.6 9.4 33.65 5.95 33.5 4.8 44.85 70.0 46.35 Q70.2 46.35 70.3 46.5 L70.4 46.6 70.85 46.5 69.15 36.45 60.75 36.05 60.55 36.0 M36.8 7.8 L36.9 7.55 Q36.15 8.65 36.15 10.1 36.15 11.8 37.15 13.0 38.2 14.15 39.6 14.15 40.6 14.15 41.45 13.55 L40.4 13.65 Q38.8 13.65 37.6 12.45 36.45 11.2 36.45 9.4 36.45 8.55 36.8 7.8 M64.85 48.15 L68.55 47.15 4.75 45.65 4.55 45.6 1.9 47.15 64.85 48.15 M27.25 14.9 L27.15 15.1 10.7 32.9 12.95 33.0 28.9 14.5 27.6 14.8 27.4 14.8 27.25 14.9 M30.2 20.05 L30.35 19.9 30.4 19.75 30.75 19.25 30.85 19.15 Q29.55 17.5 29.15 15.0 L13.65 33.05 20.8 33.35 20.95 33.4 30.2 20.05 M40.4 22.3 L40.3 22.35 36.65 23.0 Q33.25 23.0 30.6 20.85 L21.9 33.4 49.4 34.75 40.4 22.3 M5.05 34.0 L2.15 36.35 0.9 46.75 4.0 45.0 5.05 34.0" fill="#000000" fill-rule="evenodd" stroke="none"/>
      <path d="M46.15 11.5 Q46.15 14.2 45.15 16.45 L45.1 16.6 44.95 16.8 43.35 19.1 43.4 19.1 43.25 19.25 43.0 19.5 Q41.45 20.2 39.55 20.2 35.9 20.2 33.35 17.4 30.8 14.55 30.8 10.5 30.8 6.55 33.35 3.7 34.65 2.25 36.25 1.55 L37.55 1.1 37.7 1.0 37.75 0.9 38.65 1.05 38.7 1.05 Q41.35 1.65 43.35 3.95 46.15 7.1 46.15 11.5 M42.35 6.9 Q41.2 5.55 39.6 5.55 L38.55 5.75 38.5 5.75 Q37.6 6.0 36.85 6.85 L36.75 6.9 Q35.65 8.25 35.65 10.1 35.65 12.0 36.75 13.3 L36.8 13.35 Q38.0 14.65 39.6 14.65 41.2 14.65 42.35 13.35 L42.35 13.3 42.75 12.85 42.85 12.8 43.3 11.75 43.55 10.1 Q43.55 8.25 42.35 6.9 M43.05 10.1 L42.85 11.6 42.8 11.6 42.4 12.55 Q41.5 13.15 40.4 13.15 39.0 13.15 37.95 12.1 36.95 11.0 36.95 9.4 36.95 8.65 37.25 8.0 37.45 7.35 37.95 6.8 L37.95 6.75 38.6 6.3 38.65 6.25 38.75 6.2 39.6 6.05 Q41.0 6.05 41.95 7.2 L42.0 7.25 Q43.05 8.45 43.05 10.1 M43.95 19.65 L45.55 17.35 59.5 35.2 54.45 35.0 42.25 21.2 43.85 19.8 43.9 19.7 43.95 19.65 M60.55 36.0 L60.75 36.05 69.15 36.45 70.85 46.5 70.4 46.6 70.3 46.5 Q70.2 46.35 70.0 46.35 L4.8 44.85 5.95 33.5 9.4 33.65 9.6 33.6 9.85 33.65 10.05 33.6 10.35 33.7 20.75 34.15 20.95 34.15 21.25 34.2 21.4 34.15 21.65 34.2 49.7 35.55 49.95 35.5 50.15 35.55 50.35 35.55 50.6 35.6 59.8 36.0 60.05 35.95 60.3 36.05 60.55 36.0 M30.2 20.05 L20.95 33.4 20.8 33.35 13.65 33.05 29.15 15.0 Q29.55 17.5 30.85 19.15 L30.75 19.25 30.4 19.75 30.35 19.9 30.2 20.05" fill="#b9b9b9" fill-rule="evenodd" stroke="none"/>
      <path d="M40.55 21.4 L40.3 21.5 40.2 21.55 40.0 21.6 Q38.4 22.2 36.65 22.2 33.5 22.2 31.05 20.2 L31.1 20.15 31.45 19.65 31.5 19.45 31.55 19.4 31.7 19.15 31.6 18.85 Q30.15 17.05 29.85 14.15 L29.85 14.1 29.85 13.9 29.7 13.65 29.4 13.55 27.45 14.0 27.4 14.0 27.15 11.5 Q27.15 7.1 29.95 3.95 32.75 0.8 36.7 0.8 L36.75 0.8 36.05 1.1 Q34.35 1.85 33.0 3.35 30.3 6.35 30.3 10.5 30.3 14.75 33.0 17.75 35.7 20.7 39.55 20.7 L42.0 20.4 41.55 20.75 40.65 21.25 40.55 21.4 M41.8 21.5 L53.7 34.95 50.65 34.8 50.45 34.85 41.1 21.95 41.8 21.5 M64.85 48.15 L1.9 47.15 4.55 45.6 4.75 45.65 68.55 47.15 64.85 48.15 M36.8 7.8 Q36.45 8.55 36.45 9.4 36.45 11.2 37.6 12.45 38.8 13.65 40.4 13.65 L41.45 13.55 Q40.6 14.15 39.6 14.15 38.2 14.15 37.15 13.0 36.15 11.8 36.15 10.1 36.15 8.65 36.9 7.55 L36.8 7.8 M5.05 34.0 L4.0 45.0 0.9 46.75 2.15 36.35 5.05 34.0" fill="#757683" fill-rule="evenodd" stroke="none"/>
      <path d="M27.25 14.9 L27.4 14.8 27.6 14.8 28.9 14.5 12.95 33.0 10.7 32.9 27.15 15.1 27.25 14.9" fill="#ededed" fill-rule="evenodd" stroke="none"/>
    </g>
    <g id="sprite5" transform="matrix(1.0, 0.0, 0.0, 1.0, -0.2, 0.0)">
      <use ffdec:characterId="181" height="19.25" transform="matrix(1.0, 0.0, 0.0, 1.0, 0.2, 0.0)" width="17.45" xlink:href="#shape8"/>
    </g>
    <g id="shape8" transform="matrix(1.0, 0.0, 0.0, 1.0, -0.2, 0.0)">
      <path d="M15.25 1.05 Q16.8 1.7 17.35 3.05 L17.35 3.1 Q17.7 4.25 17.65 8.35 L17.65 8.75 17.65 8.8 Q17.5 11.8 16.2 14.5 L16.15 14.6 15.4 15.9 Q13.65 18.6 11.3 19.25 L11.15 19.25 4.15 18.6 4.1 18.6 2.8 18.45 2.55 18.35 1.9 17.5 1.55 16.85 Q1.1 15.65 1.3 14.2 1.45 13.15 2.0 12.25 L0.65 11.75 0.55 11.7 Q0.2 11.2 0.2 10.55 0.2 9.55 1.05 7.05 1.95 3.95 2.7 4.05 L2.85 4.15 2.95 4.15 5.05 4.8 5.8 2.3 Q7.0 -0.05 8.6 0.0 L8.85 0.0 9.4 0.1 15.15 1.0 15.25 1.05 M15.0 1.8 L11.0 1.2 11.6 2.5 Q12.0 3.8 12.0 7.1 12.0 10.35 10.4 14.0 9.0 17.05 7.1 18.1 L11.2 18.45 Q13.2 17.85 14.7 15.45 L14.75 15.45 15.45 14.2 15.45 14.25 Q16.7 11.65 16.85 8.75 L16.85 8.35 Q16.9 4.45 16.6 3.35 16.2 2.3 15.0 1.8 M2.8 5.15 L2.75 5.15 Q2.45 5.35 1.8 7.4 1.0 9.7 1.0 10.55 L1.05 10.9 Q2.0 10.6 2.65 9.0 3.2 7.4 3.2 6.2 L3.0 5.45 2.8 5.15 M11.2 7.1 Q11.2 4.0 10.85 2.75 10.35 1.2 9.25 0.9 L9.1 0.85 8.85 0.8 8.6 0.8 Q7.4 0.85 6.5 2.65 L5.85 4.7 5.9 4.7 5.8 5.05 7.15 5.4 7.4 5.6 7.45 5.9 7.5 6.1 7.7 7.55 Q7.7 10.05 6.85 11.85 L6.85 11.9 5.9 13.25 5.75 13.35 5.6 13.35 5.25 13.25 3.75 12.8 2.75 12.5 Q2.2 13.35 2.1 14.3 1.9 15.55 2.3 16.6 L2.5 17.0 2.55 17.0 3.05 17.7 4.1 17.8 4.3 17.75 4.4 17.75 5.0 17.8 Q7.75 17.75 9.65 13.65 11.2 10.15 11.2 7.1 M3.4 9.45 L3.35 9.45 2.3 11.3 3.45 11.75 5.35 12.2 5.55 12.25 5.6 12.2 6.2 11.4 6.15 11.4 Q6.9 9.8 6.9 7.55 L6.75 6.35 6.5 6.3 5.15 5.9 3.95 5.65 4.0 6.2 Q4.0 7.65 3.4 9.45" fill="#000000" fill-rule="evenodd" stroke="none"/>
      <path d="M15.0 1.8 Q16.2 2.3 16.6 3.35 16.9 4.45 16.85 8.35 L16.85 8.75 Q16.7 11.65 15.45 14.25 L15.45 14.2 14.75 15.45 14.7 15.45 Q13.2 17.85 11.2 18.45 L7.1 18.1 Q9.0 17.05 10.4 14.0 12.0 10.35 12.0 7.1 12.0 3.8 11.6 2.5 L11.0 1.2 15.0 1.8 M3.4 9.45 Q4.0 7.65 4.0 6.2 L3.95 5.65 5.15 5.9 6.5 6.3 6.75 6.35 6.9 7.55 Q6.9 9.8 6.15 11.4 L6.2 11.4 5.6 12.2 5.55 12.25 5.35 12.2 3.45 11.75 2.3 11.3 3.35 9.45 3.4 9.45" fill="#8e9297" fill-rule="evenodd" stroke="none"/>
      <path d="M11.2 7.1 Q11.2 10.15 9.65 13.65 7.75 17.75 5.0 17.8 L4.4 17.75 4.3 17.75 4.1 17.8 3.05 17.7 2.55 17.0 2.5 17.0 2.3 16.6 Q1.9 15.55 2.1 14.3 2.2 13.35 2.75 12.5 L3.75 12.8 5.25 13.25 5.6 13.35 5.75 13.35 5.9 13.25 6.85 11.9 6.85 11.85 Q7.7 10.05 7.7 7.55 L7.5 6.1 7.45 5.9 7.4 5.6 7.15 5.4 5.8 5.05 5.9 4.7 5.85 4.7 6.5 2.65 Q7.4 0.85 8.6 0.8 L8.85 0.8 9.1 0.85 9.25 0.9 Q10.35 1.2 10.85 2.75 11.2 4.0 11.2 7.1 M2.8 5.15 L3.0 5.45 3.2 6.2 Q3.2 7.4 2.65 9.0 2.0 10.6 1.05 10.9 L1.0 10.55 Q1.0 9.7 1.8 7.4 2.45 5.35 2.75 5.15 L2.8 5.15" fill="#757683" fill-rule="evenodd" stroke="none"/>
    </g>
  </defs>
</svg>
