<?xml version="1.0" encoding="UTF-8" standalone="no"?>
<svg xmlns:ffdec="https://www.free-decompiler.com/flash" xmlns:xlink="http://www.w3.org/1999/xlink" ffdec:objectType="frame" height="188.1px" width="168.3px" xmlns="http://www.w3.org/2000/svg">
  <g transform="matrix(1.0, 0.0, 0.0, 1.0, -298.75, -90.2)">
    <use ffdec:characterId="111" height="46.05" transform="matrix(1.0, 0.0, 0.0, 1.0, 313.45, 232.25)" width="153.6" xlink:href="#sprite0"/>
    <use ffdec:characterId="183" height="22.25" transform="matrix(-0.7942, -0.3076, -0.3611, 0.9325, 451.1295, 235.788)" width="36.6" xlink:href="#shape3"/>
    <use ffdec:characterId="112" height="30.8" transform="matrix(1.0, 0.0, 0.0, 1.0, 399.0, 194.35)" width="8.0" xlink:href="#shape4"/>
    <use ffdec:characterId="113" height="141.2" transform="matrix(0.4604, 0.0491, -0.0491, 0.4604, 358.4784, 162.6561)" width="123.8" xlink:href="#shape5"/>
    <use ffdec:characterId="114" height="42.85" transform="matrix(0.4076, 0.0435, -0.0491, 0.4604, 383.7469, 174.8853)" width="46.4" xlink:href="#shape6"/>
    <use ffdec:characterId="153" height="42.85" transform="matrix(0.4604, 0.0491, -0.0491, 0.4604, 382.9704, 173.3625)" width="43.65" xlink:href="#shape7"/>
    <use ffdec:characterId="117" height="46.1" transform="matrix(0.4604, 0.0491, -0.0491, 0.4604, 381.7232, 187.0794)" width="59.7" xlink:href="#shape8"/>
    <use ffdec:characterId="122" height="18.45" transform="matrix(1.0, 0.0, 0.0, 1.0, 350.3, 165.85)" width="30.25" xlink:href="#sprite2"/>
    <use ffdec:characterId="124" height="19.55" transform="matrix(1.0, 0.0, 0.0, 1.0, 356.25, 173.0)" width="25.8" xlink:href="#sprite3"/>
    <use ffdec:characterId="126" height="8.0" transform="matrix(1.0, 0.0, 0.0, 1.0, 363.0, 175.55)" width="17.7" xlink:href="#sprite4"/>
    <use ffdec:characterId="128" height="0.85" transform="matrix(1.0, 0.0, 0.0, 1.0, 369.05, 183.7)" width="4.4" xlink:href="#sprite5"/>
    <use ffdec:characterId="129" height="5.95" transform="matrix(0.4604, 0.0491, -0.0491, 0.4604, 369.9651, 177.0661)" width="5.0" xlink:href="#shape13"/>
    <use ffdec:characterId="129" height="5.95" transform="matrix(-0.4055, -0.0238, -0.0238, 0.4055, 377.3346, 177.6652)" width="5.0" xlink:href="#shape13"/>
    <use ffdec:characterId="132" height="26.45" transform="matrix(1.0, 0.0, 0.0, 1.0, 348.05, 186.65)" width="26.25" xlink:href="#shape14"/>
    <use ffdec:characterId="141" height="24.3" transform="matrix(0.8969, 0.1066, -0.2201, 0.6664, 407.9082, 230.2075)" width="20.0" xlink:href="#sprite6"/>
    <use ffdec:characterId="144" height="84.65" transform="matrix(1.0225, 0.0, 0.0, 0.8515, 320.15, 172.5)" width="111.15" xlink:href="#sprite10"/>
    <use ffdec:characterId="141" height="24.3" transform="matrix(1.0225, 0.0, 0.0, 0.8515, 349.8629, 231.4594)" width="20.0" xlink:href="#sprite6"/>
    <use ffdec:characterId="145" height="11.9" transform="matrix(1.0225, 0.0, 0.0, 0.8515, 348.6932, 238.1094)" width="10.15" xlink:href="#shape20"/>
    <use ffdec:characterId="141" height="24.3" transform="matrix(0.7216, 0.0, 0.0, 0.601, 330.3593, 230.2596)" width="20.0" xlink:href="#sprite6"/>
    <use ffdec:characterId="145" height="11.9" transform="matrix(0.7216, 0.0, 0.0, 0.601, 329.5335, 234.9596)" width="10.15" xlink:href="#shape20"/>
    <use ffdec:characterId="146" height="57.4" transform="matrix(1.0225, 0.0, 0.0, 0.8515, 358.7, 190.6)" width="64.7" xlink:href="#shape21"/>
    <use ffdec:characterId="148" height="12.3" transform="matrix(1.0225, 0.0, 0.0, 0.8515, 369.0, 169.0)" width="14.9" xlink:href="#shape22"/>
    <use ffdec:characterId="148" height="12.3" transform="matrix(0.7909, 0.2287, -0.2746, 0.6587, 414.9, 176.0)" width="14.9" xlink:href="#shape22"/>
    <use ffdec:characterId="183" height="22.25" transform="matrix(0.8436, 0.0, 0.0, 0.8436, 305.6314, 224.3836)" width="36.6" xlink:href="#shape3"/>
    <use ffdec:characterId="183" height="22.25" transform="matrix(0.9833, 0.182, -0.182, 0.9833, 329.9401, 225.3024)" width="36.6" xlink:href="#shape3"/>
  </g>
  <defs>
    <g id="sprite0" transform="matrix(1.0, 0.0, 0.0, 1.0, 6.8, -77.45)">
      <use ffdec:characterId="107" height="27.0" transform="matrix(0.4552, -0.0312, -0.0042, 0.2457, 3.75, 84.65)" width="92.85" xlink:href="#shape0"/>
      <use ffdec:characterId="107" height="27.0" transform="matrix(1.0, 0.0, 0.0, 1.0, 39.65, 92.4)" width="92.85" xlink:href="#shape0"/>
      <use ffdec:characterId="107" height="27.0" transform="matrix(0.6977, -0.0049, 0.0826, 0.6195, 20.4, 86.4)" width="92.85" xlink:href="#shape0"/>
      <use ffdec:characterId="107" height="27.0" transform="matrix(0.6088, -0.0439, -0.0013, 0.366, 10.95, 86.0)" width="92.85" xlink:href="#shape0"/>
      <use ffdec:characterId="108" height="21.65" transform="matrix(1.2456, 0.2085, -0.1481, 0.7657, 53.4, 93.45)" width="31.85" xlink:href="#shape1"/>
      <use ffdec:characterId="108" height="21.65" transform="matrix(0.9359, -0.024, -0.0606, 0.6043, 63.65, 93.45)" width="31.85" xlink:href="#shape1"/>
      <use ffdec:characterId="108" height="21.65" transform="matrix(1.1144, 0.0533, -0.0606, 0.6043, 50.3, 90.4)" width="31.85" xlink:href="#shape1"/>
      <use ffdec:characterId="108" height="21.65" transform="matrix(1.4771, 0.1617, -0.0394, 0.6061, 66.6, 92.3)" width="31.85" xlink:href="#shape1"/>
      <use ffdec:characterId="108" height="21.65" transform="matrix(1.0534, -0.0909, 0.0433, 0.5014, 14.95, 84.4)" width="31.85" xlink:href="#shape1"/>
      <use ffdec:characterId="108" height="21.65" transform="matrix(0.8836, -0.1655, 0.1004, 0.5192, 26.4, 84.55)" width="31.85" xlink:href="#shape1"/>
      <use ffdec:characterId="108" height="21.65" transform="matrix(0.6358, -0.0317, -0.2094, 0.5701, 22.55, 95.9)" width="31.85" xlink:href="#shape1"/>
      <use ffdec:characterId="110" height="38.5" transform="matrix(1.0, 0.0, 0.0, 1.0, -6.8, 83.25)" width="94.7" xlink:href="#sprite1"/>
      <use ffdec:characterId="110" height="38.5" transform="matrix(1.1409, -0.0355, 0.2423, 0.8404, 29.45, 80.8)" width="94.7" xlink:href="#sprite1"/>
    </g>
    <g id="shape0" transform="matrix(1.0, 0.0, 0.0, 1.0, 0.0, 0.0)">
      <path d="M92.85 5.65 L92.85 9.3 92.75 9.55 92.55 9.7 10.65 27.0 10.45 27.0 10.3 26.9 0.5 18.7 0.35 18.45 0.0 13.65 0.1 13.35 Q0.15 13.25 0.35 13.2 L76.15 0.0 76.35 0.05 92.6 5.3 92.8 5.45 92.85 5.65 M92.05 9.0 L92.05 6.0 10.9 21.45 10.8 26.15 92.05 9.0 M10.4 21.35 L0.85 14.25 1.15 18.25 10.35 25.9 10.4 21.35 M1.2 13.9 L10.7 20.95 91.15 5.65 76.2 0.85 1.2 13.9" fill="#000000" fill-rule="evenodd" stroke="none"/>
      <path d="M92.05 9.0 L10.8 26.15 10.9 21.45 92.05 6.0 92.05 9.0" fill="#672f00" fill-rule="evenodd" stroke="none"/>
      <path d="M10.4 21.35 L10.35 25.9 1.15 18.25 0.85 14.25 10.4 21.35" fill="#561d00" fill-rule="evenodd" stroke="none"/>
      <path d="M1.2 13.9 L76.2 0.85 91.15 5.65 10.7 20.95 1.2 13.9" fill="#8b5300" fill-rule="evenodd" stroke="none"/>
    </g>
    <g id="shape1" transform="matrix(1.0, 0.0, 0.0, 1.0, 0.0, 0.0)">
      <path d="M0.0 0.35 Q1.65 -1.45 13.7 6.35 26.1 14.4 31.85 21.65 11.55 5.3 0.0 0.35" fill="#895200" fill-rule="evenodd" stroke="none"/>
    </g>
    <g id="sprite1" transform="matrix(1.0, 0.0, 0.0, 1.0, 0.0, 0.0)">
      <use ffdec:characterId="109" height="38.5" transform="matrix(1.0, 0.0, 0.0, 1.0, 0.0, 0.0)" width="94.7" xlink:href="#shape2"/>
    </g>
    <g id="shape2" transform="matrix(1.0, 0.0, 0.0, 1.0, 0.0, 0.0)">
      <path d="M4.65 0.5 L3.0 0.35 3.8 0.1 8.15 0.0 Q53.45 2.15 94.55 34.55 L94.7 34.8 94.7 34.95 94.65 35.1 94.35 35.25 94.05 35.2 93.9 35.05 Q52.25 2.3 4.85 0.5 L4.65 0.5 M79.05 37.25 L79.25 37.45 79.3 37.6 79.25 37.8 79.05 37.85 78.9 37.8 78.4 37.35 76.3 35.5 Q70.75 30.65 64.95 26.45 50.65 16.2 34.65 9.9 21.2 4.55 6.5 2.0 L5.25 1.8 3.7 1.55 2.3 1.35 2.15 1.3 2.7 1.25 4.1 1.15 5.35 1.35 Q21.6 4.0 36.4 10.05 50.55 15.85 63.35 24.75 70.15 29.45 76.6 35.05 L79.05 37.25 M73.7 38.05 L73.7 38.1 73.6 38.4 73.3 38.5 73.05 38.4 72.8 38.2 Q53.85 19.95 27.6 9.85 15.95 5.35 2.9 2.45 L1.1 2.1 0.3 2.0 Q-0.35 1.9 0.45 1.7 L3.5 1.8 6.7 2.55 7.95 2.85 Q19.35 5.65 29.6 9.8 55.05 19.95 73.6 37.8 L73.7 38.05" fill="#000000" fill-rule="evenodd" stroke="none"/>
      <path d="M78.4 37.35 L73.7 38.05 73.6 37.8 Q55.05 19.95 29.6 9.8 19.35 5.65 7.95 2.85 L6.7 2.55 3.5 1.8 3.7 1.55 5.25 1.8 6.5 2.0 Q21.2 4.55 34.65 9.9 50.65 16.2 64.95 26.45 70.75 30.65 76.3 35.5 L78.4 37.35" fill="#757683" fill-rule="evenodd" stroke="none"/>
      <path d="M4.65 0.5 L4.85 0.5 Q52.25 2.3 93.9 35.05 L79.05 37.25 76.6 35.05 Q70.15 29.45 63.35 24.75 50.55 15.85 36.4 10.05 21.6 4.0 5.35 1.35 L4.1 1.15 4.65 0.5" fill="#b9b9b9" fill-rule="evenodd" stroke="none"/>
    </g>
    <g id="shape3" transform="matrix(1.0, 0.0, 0.0, 1.0, 9.15, 4.05)">
      <path d="M9.8 -0.55 L9.7 -0.8 9.55 -1.05 Q9.55 -1.65 10.25 -1.25 L10.95 -0.45 Q10.95 -0.1 10.55 0.0 10.25 0.0 10.0 -0.25 L9.8 -0.55 M22.8 10.35 L27.45 18.2 15.5 15.4 7.9 11.25 15.45 14.55 11.65 10.5 17.15 13.25 9.95 3.8 18.7 12.75 17.45 8.05 22.25 14.05 22.8 10.35 M-1.75 -3.6 Q-1.75 -4.3 -0.75 -3.95 0.2 -3.55 0.2 -3.0 0.2 -2.45 -0.25 -2.45 -1.3 -2.45 -1.75 -3.6 M-8.25 2.4 L-9.15 2.1 Q-8.95 1.65 -7.9 1.4 L-6.25 1.45 Q-6.9 2.4 -8.25 2.4" fill="#ffff33" fill-rule="evenodd" stroke="none"/>
    </g>
    <g id="shape4" transform="matrix(1.0, 0.0, 0.0, 1.0, 0.0, 0.0)">
      <path d="M0.6 1.25 L0.55 1.3 0.25 1.25 0.05 1.05 0.05 0.75 Q0.1 0.6 0.3 0.55 L0.45 0.5 4.65 0.35 Q6.4 1.1 7.2 3.55 7.75 5.3 7.85 7.25 8.15 12.2 7.8 17.15 L6.95 26.4 6.45 30.35 6.4 30.45 6.25 30.75 5.95 30.8 5.7 30.65 5.6 30.35 5.95 27.9 6.15 26.3 7.0 17.1 Q7.35 12.2 7.05 7.3 6.95 5.5 6.45 3.8 5.75 1.7 4.35 1.1 L0.6 1.25" fill="#000000" fill-rule="evenodd" stroke="none"/>
      <path d="M0.6 1.25 L4.35 1.1 Q5.75 1.7 6.45 3.8 6.95 5.5 7.05 7.3 7.35 12.2 7.0 17.1 L6.15 26.3 5.95 27.9 0.6 1.25" fill="#650099" fill-rule="evenodd" stroke="none"/>
    </g>
    <g id="shape5" transform="matrix(1.0, 0.0, 0.0, 1.0, 6.15, 0.2)">
      <path d="M94.4 39.35 L94.4 39.3 Q95.75 46.85 96.75 54.35 L97.95 63.25 98.05 63.65 100.05 72.4 100.05 72.45 100.7 75.5 100.9 76.4 Q102.45 83.15 104.4 89.7 105.9 94.85 107.85 99.95 L112.25 111.7 112.25 111.75 112.6 112.55 112.6 112.6 115.1 119.6 115.5 120.7 115.5 120.75 117.65 127.8 -6.15 141.0 -5.75 137.55 Q-5.45 134.95 -4.15 129.3 -3.55 125.95 -2.6 122.85 L-0.25 115.55 2.35 108.7 Q3.7 105.55 5.2 102.5 L9.05 94.6 12.35 88.2 Q14.35 84.4 15.85 80.5 18.3 74.35 19.25 69.2 L22.3 58.2 23.5 52.7 26.0 41.55 Q27.6 34.5 29.5 27.45 31.45 20.05 35.65 13.65 L35.65 13.7 36.45 12.4 36.5 12.35 38.35 10.0 Q47.0 0.4 58.55 -0.15 70.15 -0.8 80.0 7.85 84.5 11.7 87.55 17.0 L88.15 18.25 88.2 18.3 Q89.8 21.35 90.9 24.65 L90.9 24.7 Q93.3 31.75 94.4 39.35" fill="#000000" fill-rule="evenodd" stroke="none"/>
      <path d="M86.0 17.95 L86.55 19.05 86.55 19.1 Q88.1 22.05 89.2 25.25 91.5 32.15 92.6 39.6 L92.65 39.6 94.95 54.6 96.3 63.85 96.25 63.65 98.3 72.8 98.95 75.9 99.15 76.8 Q100.7 83.65 102.65 90.2 104.2 95.45 106.15 100.6 L110.55 112.3 110.9 113.25 113.4 120.2 113.8 121.3 115.85 128.0 -4.3 140.8 -3.95 137.8 -3.95 137.75 Q-3.65 135.25 -2.35 129.3 L-1.95 127.45 -0.1 120.95 Q1.4 116.25 3.15 111.7 L5.15 107.0 8.75 99.65 10.1 96.85 14.3 88.45 17.65 80.5 Q20.0 74.5 20.95 69.7 L21.0 69.7 24.05 58.55 25.25 53.1 27.75 41.95 31.25 27.9 Q33.15 20.75 37.15 14.65 L37.2 14.65 38.0 13.35 37.95 13.4 39.7 11.2 Q47.8 2.2 58.65 1.65 69.55 1.1 78.8 9.2 83.1 12.9 86.0 17.9 L86.0 17.95" fill="#650099" fill-rule="evenodd" stroke="none"/>
      <path d="M37.3 136.35 L36.4 136.45 38.35 132.85 38.35 132.8 Q44.55 122.6 50.25 112.15 L50.6 111.5 Q57.4 98.25 60.7 83.95 62.5 76.0 62.15 67.9 L62.15 67.85 Q62.15 65.55 62.45 64.25 62.75 61.95 70.25 60.45 77.5 58.95 80.6 60.7 L80.7 60.8 80.8 60.95 Q82.45 69.15 86.6 79.75 90.75 90.25 102.05 110.35 L102.05 110.3 Q106.9 118.3 110.65 126.4 L111.55 128.45 110.8 128.5 109.95 126.7 Q106.2 118.7 101.4 110.7 90.05 90.55 85.9 80.0 81.75 69.45 80.05 61.25 77.1 59.8 70.4 61.2 63.55 62.55 63.2 64.4 62.95 65.65 62.9 67.85 63.3 76.1 61.45 84.1 58.1 98.55 51.25 111.85 L50.9 112.5 Q45.25 123.0 39.0 133.2 L37.3 136.35" fill="#000000" fill-rule="evenodd" stroke="none"/>
      <path d="M37.3 136.35 L39.0 133.2 Q45.25 123.0 50.9 112.5 L51.25 111.85 Q58.1 98.55 61.45 84.1 63.3 76.1 62.9 67.85 62.95 65.65 63.2 64.4 63.55 62.55 70.4 61.2 77.1 59.8 80.05 61.25 81.75 69.45 85.9 80.0 90.05 90.55 101.4 110.7 106.2 118.7 109.95 126.7 L110.8 128.5 37.3 136.35" fill="#ffffff" fill-rule="evenodd" stroke="none"/>
    </g>
    <g id="shape6" transform="matrix(1.0, 0.0, 0.0, 1.0, 22.75, 20.8)">
      <path d="M18.7 -12.8 Q20.55 -8.65 21.9 -4.3 23.2 0.05 23.45 2.75 L23.65 6.85 Q23.65 14.0 17.15 17.25 9.4 21.05 -0.15 21.9 -9.7 22.75 -16.4 18.3 -23.15 13.85 -22.75 2.1 -22.35 -9.65 -15.6 -14.7 -8.9 -19.75 -1.6 -20.55 5.65 -21.35 9.75 -19.55 16.85 -17.0 18.7 -12.8" fill="#ffffff" fill-rule="evenodd" stroke="none"/>
    </g>
    <g id="shape7" transform="matrix(1.0, 0.0, 0.0, 1.0, 2.55, 6.0)">
      <path d="M20.6 22.75 L20.75 23.1 20.7 23.45 20.45 23.7 20.1 23.75 18.2 23.55 14.7 23.4 Q11.9 23.4 8.45 24.65 6.9 25.15 3.75 26.65 L3.3 26.7 3.2 26.6 4.05 26.05 Q6.1 24.7 8.9 23.45 11.7 22.2 14.7 22.2 L18.15 22.35 17.55 22.05 17.5 22.05 Q15.4 21.15 9.75 21.1 L2.2 21.5 2.2 21.45 Q2.3 21.25 2.55 21.2 7.6 19.95 12.05 19.95 15.7 19.95 18.0 20.95 19.45 21.55 20.6 22.75 M41.1 22.85 L40.6 23.05 38.65 22.75 34.3 22.55 29.95 22.65 Q29.9 21.75 33.7 19.95 37.45 18.15 39.5 18.3 L40.1 18.3 40.45 18.4 Q37.2 19.5 35.45 20.35 33.65 21.2 33.5 21.45 L33.9 21.45 Q38.25 21.45 40.65 22.15 L41.05 22.4 41.1 22.85" fill="#000000" fill-rule="evenodd" stroke="none"/>
      <path d="M10.1 -3.0 Q21.75 -10.05 32.15 -0.55 34.85 1.9 36.95 6.4 38.8 10.4 40.25 16.05 L40.5 17.15 Q42.9 28.2 36.05 32.75 28.8 37.55 12.7 36.75 -3.4 35.9 -2.5 20.0 L-2.45 19.8 Q-2.15 14.15 -0.4 9.6 2.65 1.5 10.1 -3.0 M41.1 22.85 L41.05 22.4 40.65 22.15 Q38.25 21.45 33.9 21.45 L33.5 21.45 Q33.65 21.2 35.45 20.35 37.2 19.5 40.45 18.4 L40.1 18.3 39.5 18.3 Q37.45 18.15 33.7 19.95 29.9 21.75 29.95 22.65 L34.3 22.55 38.65 22.75 40.6 23.05 41.1 22.85 M20.6 22.75 Q19.45 21.55 18.0 20.95 15.7 19.95 12.05 19.95 7.6 19.95 2.55 21.2 2.3 21.25 2.2 21.45 L2.2 21.5 9.75 21.1 Q15.4 21.15 17.5 22.05 L17.55 22.05 18.15 22.35 14.7 22.2 Q11.7 22.2 8.9 23.45 6.1 24.7 4.05 26.05 L3.2 26.6 3.3 26.7 3.75 26.65 Q6.9 25.15 8.45 24.65 11.9 23.4 14.7 23.4 L18.2 23.55 20.1 23.75 20.45 23.7 20.7 23.45 20.75 23.1 20.6 22.75" fill="#650099" fill-rule="evenodd" stroke="none"/>
      <path d="M24.4 20.75 Q24.5 20.55 24.75 20.55 L25.35 20.6 Q25.65 20.7 25.8 19.15 L25.9 18.45 26.45 20.5 Q26.45 21.4 25.95 21.6 L24.7 21.55 24.4 21.25 24.4 20.75" fill="#000000" fill-rule="evenodd" stroke="none"/>
    </g>
    <g id="shape8" transform="matrix(1.0, 0.0, 0.0, 1.0, 1.6, 0.2)">
      <path d="M42.25 38.7 Q36.85 44.9 25.0 45.75 14.35 46.5 9.1 43.1 4.85 40.35 2.55 37.6 -0.1 34.5 -1.05 30.45 -3.05 22.0 2.1 15.05 4.7 11.7 8.85 9.6 12.8 7.6 17.7 6.95 27.1 5.7 35.2 10.65 43.45 15.75 45.5 24.2 46.55 28.5 45.8 31.95 45.0 35.5 42.25 38.7" fill="#000000" fill-opacity="0.2" fill-rule="evenodd" stroke="none"/>
      <path d="M58.05 15.45 Q58.75 22.2 51.65 27.45 43.95 33.1 29.0 34.85 15.75 36.35 8.5 33.6 -1.25 29.95 -1.55 18.75 -1.6 17.15 -1.25 15.75 0.25 8.7 10.45 4.1 19.35 0.05 28.4 -0.2 37.65 -0.4 45.6 2.35 55.95 5.95 57.75 13.5 L58.05 15.45 M56.55 16.25 L56.5 15.6 Q55.7 7.45 45.1 3.75 37.4 1.1 28.45 1.3 19.65 1.55 11.05 5.45 -0.15 10.5 -0.05 18.7 L0.05 20.2 Q0.85 29.1 9.1 32.2 16.05 34.85 28.85 33.35 43.25 31.7 50.75 26.25 56.75 21.85 56.55 16.25" fill="#000000" fill-rule="evenodd" stroke="none"/>
      <path d="M0.05 20.2 L-0.05 18.7 Q-0.15 10.5 11.05 5.45 19.65 1.55 28.45 1.3 37.4 1.1 45.1 3.75 55.7 7.45 56.5 15.6 L56.55 16.25 Q55.3 18.3 51.65 21.45 49.15 23.55 41.85 25.85 34.75 28.2 29.0 28.85 15.5 30.3 8.5 27.6 2.45 25.35 0.05 20.2" fill="#ffb409" fill-rule="evenodd" stroke="none"/>
      <path d="M0.05 20.2 Q2.45 25.35 8.5 27.6 15.5 30.3 29.0 28.85 34.75 28.2 41.85 25.85 49.15 23.55 51.65 21.45 55.3 18.3 56.55 16.25 56.75 21.85 50.75 26.25 43.25 31.7 28.85 33.35 16.05 34.85 9.1 32.2 0.85 29.1 0.05 20.2" fill="#f99108" fill-rule="evenodd" stroke="none"/>
      <path d="M52.3 11.6 Q53.3 11.5 53.55 11.9 51.7 12.2 51.4 12.9 52.4 13.15 52.8 14.6 L52.8 14.55 Q53.25 15.95 52.7 17.55 L52.7 17.5 Q52.2 19.05 51.0 19.85 49.65 20.7 48.45 20.3 47.2 19.85 46.75 18.35 L46.8 18.4 Q46.35 17.2 48.1 14.3 50.35 11.8 52.3 11.6 M48.3 16.85 L48.15 18.45 Q48.2 18.85 48.9 19.15 L48.85 19.1 Q49.55 19.3 50.3 18.8 51.1 18.25 51.5 17.1 L51.55 17.1 Q51.95 15.95 51.6 14.95 51.25 13.7 50.75 13.85 50.0 14.1 49.15 15.2 48.45 16.15 48.3 16.85" fill="#000000" fill-rule="evenodd" stroke="none"/>
      <path d="M48.3 16.85 Q48.45 16.15 49.15 15.2 50.0 14.1 50.75 13.85 51.25 13.7 51.6 14.95 51.95 15.95 51.55 17.1 L51.5 17.1 Q51.1 18.25 50.3 18.8 49.55 19.3 48.85 19.1 L48.9 19.15 Q48.2 18.85 48.15 18.45 L48.3 16.85" fill="#990000" fill-rule="evenodd" stroke="none"/>
      <path d="M48.75 24.2 Q47.6 24.2 46.75 23.45 46.1 22.85 45.85 22.05 47.65 22.85 48.5 22.85 50.15 22.85 51.7 21.7 53.15 20.5 53.95 18.9 53.75 21.75 52.7 22.75 51.3 24.2 48.75 24.2" fill="#000000" fill-rule="evenodd" stroke="none"/>
    </g>
    <g id="sprite2" transform="matrix(1.0, 0.0, 0.0, 1.0, 1.2, 0.0)">
      <use ffdec:characterId="119" height="18.45" transform="matrix(1.0, 0.0, 0.0, 1.0, 0.0, 0.0)" width="28.95" xlink:href="#shape9"/>
    </g>
    <g id="shape9" transform="matrix(1.0, 0.0, 0.0, 1.0, 0.0, 0.0)">
      <path d="M28.3 10.05 L28.35 9.65 28.45 8.5 28.45 8.45 Q28.3 6.15 26.35 5.1 L25.95 5.8 25.8 4.6 Q25.5 3.65 24.1 3.1 L22.0 2.55 21.9 3.55 21.65 4.15 21.5 3.05 21.25 2.3 21.1 2.05 20.7 1.45 18.8 0.75 Q17.1 0.25 14.85 0.7 L14.7 0.75 11.45 1.5 10.05 1.9 10.5 2.2 10.9 2.15 11.05 2.15 Q13.25 2.15 14.75 3.95 L14.6 3.8 Q12.8 2.7 10.55 2.7 L10.5 2.7 10.4 2.7 Q8.05 2.9 5.7 4.7 4.15 5.9 2.35 8.1 L2.8 8.15 5.35 8.55 5.9 8.4 8.7 8.35 7.35 8.55 Q6.5 8.65 5.5 9.1 4.5 9.55 3.15 10.75 1.8 11.9 0.65 14.9 L2.7 14.45 4.2 14.1 4.25 14.05 4.75 13.5 Q5.6 12.6 6.55 12.05 L6.2 12.6 4.1 15.05 Q3.2 16.3 2.8 17.7 L2.7 17.95 5.5 17.55 6.45 17.45 6.45 17.55 6.3 17.7 6.15 17.8 5.65 18.0 2.4 18.4 2.25 18.35 2.2 18.25 2.15 18.1 2.35 17.5 2.3 17.55 Q2.75 16.05 3.7 14.75 L2.8 14.95 0.3 15.45 0.15 15.45 0.05 15.3 0.05 15.15 Q1.3 11.55 3.75 9.6 4.15 9.25 4.6 9.05 L4.65 8.95 2.7 8.65 1.85 8.5 1.7 8.45 1.6 8.25 1.65 8.1 Q3.7 5.6 5.4 4.3 7.55 2.6 9.75 2.3 L9.3 2.0 9.2 1.85 9.25 1.7 9.4 1.55 10.4 1.25 14.6 0.25 14.7 0.2 19.65 0.45 Q20.8 0.75 21.35 1.45 L21.6 1.9 21.6 1.95 21.65 1.95 Q22.75 2.05 23.85 2.5 25.75 3.2 26.25 4.5 28.8 5.6 28.95 8.45 L28.9 9.1 28.8 9.35 28.6 9.8 28.55 9.95 28.35 10.3 Q28.25 10.45 28.3 10.05" fill="#000000" fill-rule="evenodd" stroke="none"/>
      <path d="M6.45 17.55 L6.45 17.45 5.5 17.55 2.7 17.95 2.8 17.7 Q3.2 16.3 4.1 15.05 L6.2 12.6 6.55 12.05 Q5.6 12.6 4.75 13.5 L4.25 14.05 4.2 14.1 2.7 14.45 0.65 14.9 Q1.8 11.9 3.15 10.75 4.5 9.55 5.5 9.1 6.5 8.65 7.35 8.55 L8.7 8.35 5.9 8.4 5.35 8.55 2.8 8.15 2.35 8.1 Q4.15 5.9 5.7 4.7 8.05 2.9 10.4 2.7 L10.5 2.7 10.55 2.7 Q12.8 2.7 14.6 3.8 L14.75 3.95 Q13.25 2.15 11.05 2.15 L10.9 2.15 10.5 2.2 10.05 1.9 11.45 1.5 14.7 0.75 14.85 0.7 Q17.1 0.25 18.8 0.75 L20.7 1.45 21.1 2.05 21.25 2.3 21.5 3.05 21.65 4.15 21.9 3.55 22.0 2.55 24.1 3.1 Q25.5 3.65 25.8 4.6 L25.95 5.8 26.35 5.1 Q28.3 6.15 28.45 8.45 L28.45 8.5 28.35 9.65 28.3 10.05 6.45 17.55" fill="#666666" fill-rule="evenodd" stroke="none"/>
    </g>
    <g id="sprite3" transform="matrix(1.0, 0.0, 0.0, 1.0, -0.15, -0.15)">
      <use ffdec:characterId="123" height="19.55" transform="matrix(1.0, 0.0, 0.0, 1.0, 0.15, 0.15)" width="25.8" xlink:href="#shape10"/>
    </g>
    <g id="shape10" transform="matrix(1.0, 0.0, 0.0, 1.0, -0.15, -0.15)">
      <path d="M23.05 0.45 L23.05 0.4 22.9 0.15 23.1 0.4 23.1 0.45 23.2 0.6 24.15 1.8 Q25.85 4.1 25.95 9.05 26.05 14.1 21.85 17.15 17.7 20.05 12.45 19.65 L12.4 19.65 6.45 19.15 6.4 19.15 Q1.1 17.9 0.2 12.5 L0.2 12.45 Q0.0 11.15 0.35 9.25 0.6 7.95 1.2 6.85 L0.95 8.2 Q0.7 10.25 1.0 12.05 1.8 17.2 6.6 18.35 L12.4 18.85 12.45 18.85 Q17.45 19.25 21.4 16.5 25.25 13.7 25.1 8.7 24.95 3.7 23.7 1.6 L23.05 0.45" fill="#000000" fill-rule="evenodd" stroke="none"/>
      <path d="M1.2 6.85 L1.85 5.85 3.6 4.7 Q13.35 0.2 22.8 0.45 L23.05 0.45 23.7 1.6 Q24.95 3.7 25.1 8.7 25.25 13.7 21.4 16.5 17.45 19.25 12.45 18.85 L12.4 18.85 6.6 18.35 Q1.8 17.2 1.0 12.05 0.7 10.25 0.95 8.2 L1.2 6.85" fill="#666666" fill-rule="evenodd" stroke="none"/>
    </g>
    <g id="sprite4" transform="matrix(1.0, 0.0, 0.0, 1.0, 0.0, 0.0)">
      <use ffdec:characterId="125" height="8.0" transform="matrix(1.0, 0.0, 0.0, 1.0, 0.0, 0.0)" width="17.7" xlink:href="#shape11"/>
    </g>
    <g id="shape11" transform="matrix(1.0, 0.0, 0.0, 1.0, 0.0, 0.0)">
      <path d="M17.1 2.05 L17.7 2.95 17.65 3.15 17.5 3.25 17.6 4.55 Q17.6 5.75 16.95 6.65 16.15 7.85 14.6 7.85 L12.15 7.55 Q11.3 7.2 10.55 6.35 L10.5 6.25 8.75 7.2 8.7 7.2 Q7.1 7.9 5.55 8.0 L5.5 8.0 Q3.55 8.05 2.0 7.0 0.6 5.95 0.5 4.1 0.4 2.65 0.95 1.4 L0.25 1.6 Q-0.15 1.7 0.1 1.35 0.3 1.0 1.35 0.8 L1.4 0.8 2.05 0.75 6.35 1.2 10.1 1.6 10.7 1.5 10.75 1.5 Q11.05 0.55 10.95 0.05 L10.95 0.0 11.0 0.05 11.1 0.2 Q11.35 1.3 11.2 1.7 L11.8 1.85 14.1 1.7 16.55 1.75 16.55 1.8 17.1 2.05 M16.8 2.45 L16.4 2.25 14.15 2.2 11.8 2.35 Q11.25 2.35 10.85 2.0 L10.1 2.1 6.3 1.7 2.05 1.25 1.6 1.3 Q0.9 2.55 1.0 4.05 1.1 5.65 2.3 6.6 3.7 7.55 5.5 7.5 7.0 7.4 8.5 6.75 L10.15 5.95 Q10.65 5.6 10.85 5.55 L11.1 5.55 11.05 5.75 10.9 5.95 10.9 6.0 12.35 7.1 14.6 7.35 Q15.85 7.35 16.55 6.35 L17.2 4.7 17.15 3.3 16.85 2.45 16.8 2.45" fill="#000000" fill-rule="evenodd" stroke="none"/>
      <path d="M16.8 2.45 L16.85 2.45 17.15 3.3 17.2 4.7 16.55 6.35 Q15.85 7.35 14.6 7.35 L12.35 7.1 10.9 6.0 10.9 5.95 11.05 5.75 11.1 5.55 10.85 5.55 Q10.65 5.6 10.15 5.95 L8.5 6.75 Q7.0 7.4 5.5 7.5 3.7 7.55 2.3 6.6 1.1 5.65 1.0 4.05 0.9 2.55 1.6 1.3 L2.05 1.25 6.3 1.7 10.1 2.1 10.85 2.0 Q11.25 2.35 11.8 2.35 L14.15 2.2 16.4 2.25 16.8 2.45" fill="#ffffff" fill-rule="evenodd" stroke="none"/>
    </g>
    <g id="sprite5" transform="matrix(1.0, 0.0, 0.0, 1.0, 0.0, 0.0)">
      <use ffdec:characterId="127" height="0.85" transform="matrix(1.0, 0.0, 0.0, 1.0, 0.0, 0.0)" width="4.4" xlink:href="#shape12"/>
    </g>
    <g id="shape12" transform="matrix(1.0, 0.0, 0.0, 1.0, 0.0, 0.0)">
      <path d="M4.3 0.7 L3.35 0.65 1.85 0.5 0.65 0.65 0.0 0.85 0.0 0.8 Q0.35 0.3 1.2 0.15 L2.35 0.0 3.75 0.35 4.4 0.6 4.3 0.7" fill="#000000" fill-rule="evenodd" stroke="none"/>
    </g>
    <g id="shape13" transform="matrix(1.0, 0.0, 0.0, 1.0, 0.0, -2.75)">
      <path d="M0.25 2.8 L4.9 2.75 5.0 4.45 Q4.85 6.3 4.05 7.5 3.3 8.75 2.25 8.7 1.25 8.7 0.6 7.35 -0.05 6.0 0.0 4.15 0.05 3.45 0.25 2.8" fill="#000000" fill-rule="evenodd" stroke="none"/>
    </g>
    <g id="shape14" transform="matrix(1.0, 0.0, 0.0, 1.0, 0.0, 0.0)">
      <path d="M26.05 5.85 Q25.2 2.6 22.45 1.15 L21.65 0.85 20.95 0.8 Q19.25 1.1 18.0 2.0 15.8 3.6 14.05 5.95 L9.25 12.5 Q7.6 14.8 6.1 17.45 L4.15 20.65 3.25 22.05 1.0 25.75 0.75 26.2 0.0 26.2 0.35 25.45 2.55 21.6 8.65 12.1 12.65 6.55 Q14.65 3.8 17.1 1.7 18.0 1.0 18.95 0.5 L21.0 0.0 21.8 0.15 Q25.45 0.95 26.15 4.35 L26.25 5.45 26.2 6.5 26.05 5.85" fill="#000000" fill-rule="evenodd" stroke="none"/>
      <path d="M0.75 26.2 L1.0 25.75 3.25 22.05 4.15 20.65 6.1 17.45 Q7.6 14.8 9.25 12.5 L14.05 5.95 Q15.8 3.6 18.0 2.0 19.25 1.1 20.95 0.8 L21.65 0.85 22.45 1.15 Q25.2 2.6 26.05 5.85 L19.65 26.45 0.75 26.2" fill="#650099" fill-rule="evenodd" stroke="none"/>
    </g>
    <g id="sprite6" transform="matrix(1.0, 0.0, 0.0, 1.0, 1.65, 0.4)">
      <use ffdec:characterId="140" height="24.3" transform="matrix(1.0, 0.0, 0.0, 1.0, -0.4, -0.4)" width="17.5" xlink:href="#sprite7"/>
    </g>
    <g id="sprite7" transform="matrix(1.0, 0.0, 0.0, 1.0, 0.0, 0.0)">
      <use ffdec:characterId="133" height="24.3" transform="matrix(1.0, 0.0, 0.0, 1.0, 0.0, 0.0)" width="17.5" xlink:href="#shape15"/>
      <use ffdec:characterId="136" height="10.25" transform="matrix(1.0, 0.0, 0.0, 1.0, 11.15, 11.85)" width="4.9" xlink:href="#sprite8"/>
      <use ffdec:characterId="139" height="6.0" transform="matrix(1.0, 0.0, 0.0, 1.0, 6.0, 1.55)" width="8.15" xlink:href="#sprite9"/>
    </g>
    <g id="shape15" transform="matrix(1.0, 0.0, 0.0, 1.0, 0.0, 0.0)">
      <path d="M11.15 0.05 Q12.75 0.8 13.55 2.1 L15.1 4.75 15.95 6.6 15.95 6.65 16.6 8.7 17.1 10.9 17.1 10.95 17.45 13.25 17.5 15.4 17.1 18.95 Q16.9 20.6 15.75 21.7 L15.6 21.8 8.45 24.15 8.35 24.2 8.15 24.2 7.85 24.3 7.55 24.3 Q5.45 24.35 3.35 20.85 1.35 17.55 0.45 12.85 -0.4 8.1 0.35 4.8 1.0 1.95 2.55 1.45 L2.9 1.45 2.95 1.45 3.0 1.4 3.25 1.25 10.9 0.0 11.15 0.05 M12.85 2.5 Q12.2 1.45 10.9 0.85 L5.1 1.8 Q6.25 2.55 7.45 4.45 L7.45 4.5 7.6 4.7 Q9.65 8.0 10.5 12.7 11.2 16.4 10.9 19.25 L10.9 19.3 10.6 20.75 9.85 22.85 15.25 21.05 Q16.1 20.15 16.3 18.85 L16.7 15.35 16.65 13.35 16.3 11.1 15.8 8.9 15.85 8.9 15.2 6.9 14.4 5.1 12.9 2.55 12.85 2.5 M6.9 5.1 L6.95 5.15 6.75 4.85 Q5.05 2.1 3.4 2.05 L3.3 2.05 3.1 2.0 2.85 2.2 Q1.7 2.65 1.15 5.0 0.4 8.2 1.25 12.7 2.15 17.25 4.05 20.45 5.85 23.45 7.55 23.5 L7.85 23.5 7.95 23.5 8.1 23.45 Q9.25 22.95 9.8 20.6 L10.1 19.15 Q10.4 16.4 9.7 12.85 8.85 8.3 6.9 5.1" fill="#000000" fill-rule="evenodd" stroke="none"/>
      <path d="M12.85 2.5 L12.9 2.55 14.4 5.1 15.2 6.9 15.85 8.9 15.8 8.9 16.3 11.1 16.65 13.35 16.7 15.35 16.3 18.85 Q16.1 20.15 15.25 21.05 L9.85 22.85 10.6 20.75 10.9 19.3 10.9 19.25 Q11.2 16.4 10.5 12.7 9.65 8.0 7.6 4.7 L7.45 4.5 7.45 4.45 Q6.25 2.55 5.1 1.8 L10.9 0.85 Q12.2 1.45 12.85 2.5" fill="#8e9297" fill-rule="evenodd" stroke="none"/>
      <path d="M6.9 5.1 Q8.85 8.3 9.7 12.85 10.4 16.4 10.1 19.15 L9.8 20.6 Q9.25 22.95 8.1 23.45 L7.95 23.5 7.85 23.5 7.55 23.5 Q5.85 23.45 4.05 20.45 2.15 17.25 1.25 12.7 0.4 8.2 1.15 5.0 1.7 2.65 2.85 2.2 L3.1 2.0 3.3 2.05 3.4 2.05 Q5.05 2.1 6.75 4.85 L6.95 5.15 6.9 5.1" fill="#757683" fill-rule="evenodd" stroke="none"/>
    </g>
    <g id="sprite8" transform="matrix(1.0, 0.0, 0.0, 1.0, 0.15, 0.0)">
      <use ffdec:characterId="134" height="8.85" transform="matrix(1.0, 0.0, 0.0, 1.0, 0.0, 0.0)" width="4.75" xlink:href="#shape16"/>
    </g>
    <g id="shape16" transform="matrix(1.0, 0.0, 0.0, 1.0, 0.0, 0.0)">
      <path d="M4.15 2.7 L4.75 2.05 Q4.75 5.2 3.9 8.2 L3.9 8.15 3.6 7.25 3.4 7.55 3.2 8.1 2.95 8.45 2.7 8.7 2.4 8.55 1.75 7.55 0.85 8.8 0.0 8.85 Q0.65 5.65 0.15 2.2 L0.8 3.45 1.0 3.5 1.65 2.45 1.95 2.9 2.25 3.1 2.4 3.2 3.25 3.15 3.75 0.25 3.8 0.0 4.15 2.7" fill="#4e4e57" fill-rule="evenodd" stroke="none"/>
    </g>
    <g id="sprite9" transform="matrix(1.0, 0.0, 0.0, 1.0, 0.65, -0.05)">
      <use ffdec:characterId="137" height="5.05" transform="matrix(1.0, 0.0, 0.0, 1.0, 0.0, 0.05)" width="7.25" xlink:href="#shape17"/>
    </g>
    <g id="shape17" transform="matrix(1.0, 0.0, 0.0, 1.0, 0.0, -0.05)">
      <path d="M5.4 3.85 Q5.15 3.85 4.35 3.3 L3.15 2.45 4.1 5.05 4.1 5.1 3.35 4.45 2.25 3.4 2.05 3.3 1.65 2.65 0.0 0.6 1.0 1.1 2.4 2.1 2.5 2.1 2.5 1.7 2.1 0.6 2.1 0.45 4.5 2.2 4.55 2.3 4.55 2.0 4.3 1.2 4.35 1.15 5.05 1.6 5.1 1.4 4.7 0.6 4.3 0.05 6.3 2.3 7.25 4.35 5.4 2.7 5.4 3.85" fill="#dfdfdf" fill-rule="evenodd" stroke="none"/>
    </g>
    <g id="sprite10" transform="matrix(1.0, 0.0, 0.0, 1.0, 0.0, 0.0)">
      <use ffdec:characterId="142" height="84.65" transform="matrix(1.0, 0.0, 0.0, 1.0, 0.0, 0.0)" width="111.15" xlink:href="#shape18"/>
      <use ffdec:characterId="143" height="3.3" transform="matrix(0.5397, 0.0, 0.0, 0.5152, 55.454, 19.4015)" width="3.1" xlink:href="#shape19"/>
      <use ffdec:characterId="143" height="3.3" transform="matrix(0.5397, 0.0, 0.0, 0.5152, 55.604, 27.6015)" width="3.1" xlink:href="#shape19"/>
      <use ffdec:characterId="143" height="3.3" transform="matrix(0.5397, 0.0, 0.0, 0.5152, 56.004, 36.4515)" width="3.1" xlink:href="#shape19"/>
      <use ffdec:characterId="143" height="3.3" transform="matrix(0.5397, 0.0, 0.0, 0.5152, 56.954, 57.8015)" width="3.1" xlink:href="#shape19"/>
      <use ffdec:characterId="143" height="3.3" transform="matrix(0.3455, 0.0, 0.0, 0.3298, 87.5345, 24.533)" width="3.1" xlink:href="#shape19"/>
      <use ffdec:characterId="143" height="3.3" transform="matrix(0.3455, 0.0, 0.0, 0.3298, 87.6345, 30.883)" width="3.1" xlink:href="#shape19"/>
      <use ffdec:characterId="143" height="3.3" transform="matrix(0.3455, 0.0, 0.0, 0.3298, 87.5345, 38.033)" width="3.1" xlink:href="#shape19"/>
      <use ffdec:characterId="143" height="3.3" transform="matrix(0.3455, 0.0, 0.0, 0.3298, 86.4845, 59.433)" width="3.1" xlink:href="#shape19"/>
    </g>
    <g id="shape18" transform="matrix(1.0, 0.0, 0.0, 1.0, 0.0, 0.0)">
      <path d="M109.7 25.8 L110.2 23.1 Q110.55 19.45 109.9 18.45 97.2 6.5 65.75 2.3 54.1 0.7 43.75 0.8 35.7 0.9 33.15 1.8 L32.5 2.15 Q26.3 6.3 18.55 15.7 10.85 24.95 0.95 40.1 0.4 42.45 1.55 45.1 L2.4 46.7 4.7 43.4 Q14.45 30.1 33.7 13.2 L33.25 12.1 Q32.65 10.4 32.35 8.5 L32.75 9.8 33.3 11.15 34.15 13.0 Q85.0 12.9 108.65 28.1 L108.7 28.05 Q109.3 27.25 109.7 25.8 M110.5 17.9 L110.55 17.95 Q111.45 19.05 111.0 23.2 110.6 26.4 109.7 28.0 L109.35 28.55 109.05 28.7 109.0 28.7 109.0 28.75 108.85 29.0 Q105.95 30.85 101.6 33.15 L100.55 38.75 Q95.95 60.25 85.45 68.45 80.5 72.25 74.35 73.2 L74.25 73.2 74.05 73.25 73.7 73.3 73.75 73.3 66.2 74.35 Q79.0 74.05 89.5 76.1 L89.7 76.25 89.8 76.45 Q90.45 80.65 88.35 82.2 L88.2 82.25 88.0 82.25 Q74.15 78.05 46.35 84.65 L46.15 84.65 45.95 84.55 45.85 84.35 44.3 76.85 44.35 76.65 44.45 76.45 44.65 76.35 46.6 76.05 46.1 76.05 46.05 76.05 44.6 76.1 42.35 76.15 36.35 76.25 33.15 76.15 33.0 76.2 21.0 79.15 20.7 79.1 20.5 78.85 19.15 72.65 Q19.1 72.5 19.2 72.35 L16.7 70.6 Q12.45 67.3 9.6 62.85 L8.8 61.6 Q5.85 56.2 4.45 48.7 L2.3 47.85 2.1 47.6 2.05 47.5 1.8 47.3 Q-0.7 43.25 0.25 39.8 L0.3 39.7 Q10.25 24.45 17.95 15.2 25.8 5.7 32.05 1.5 32.45 1.15 33.35 0.95 36.2 0.1 43.75 0.0 54.1 -0.1 65.85 1.5 97.7 5.75 110.5 17.9 M86.75 28.05 L86.7 23.0 86.75 22.9 Q74.85 19.2 58.4 17.9 L58.8 23.1 58.95 25.3 58.95 25.45 Q60.4 46.9 60.65 68.8 L60.65 68.85 60.65 70.1 60.65 70.25 Q64.9 72.45 69.9 72.8 L70.05 72.9 70.1 73.05 73.65 72.5 73.95 72.5 74.25 72.4 Q80.2 71.45 84.95 67.8 L85.05 67.7 85.0 67.55 85.1 66.7 85.1 66.55 Q86.55 47.6 86.7 30.5 L86.75 28.05 M100.35 35.65 L100.8 32.9 100.8 32.8 101.25 30.15 101.3 29.7 101.35 29.45 Q95.35 25.65 87.2 23.05 L87.25 28.2 87.2 30.6 Q87.05 47.45 85.65 66.15 L85.6 66.4 85.55 67.35 Q94.9 59.45 99.35 40.4 L99.95 37.6 100.35 35.65 M101.6 29.05 L101.65 29.1 101.85 29.05 102.1 29.25 102.15 29.55 101.75 32.2 108.25 28.4 Q84.75 13.4 34.35 13.5 L34.15 13.5 Q14.65 30.6 4.9 43.95 L2.7 47.1 4.25 47.75 4.05 46.4 4.15 46.1 4.4 45.95 4.5 45.95 4.5 45.9 5.1 45.25 Q7.35 42.55 9.75 40.1 15.85 33.5 22.6 27.75 29.55 21.8 37.1 16.75 L37.3 16.7 37.4 16.75 37.5 16.7 39.2 16.7 58.2 17.35 Q74.95 18.65 87.05 22.45 95.45 25.1 101.6 29.05 M88.0 81.4 Q89.45 80.05 89.05 76.85 76.9 74.5 61.55 75.3 L61.25 75.2 61.1 74.95 51.5 75.8 51.45 76.05 51.15 76.2 45.2 77.1 46.6 83.75 Q74.1 77.3 88.0 81.4 M38.8 26.85 L38.95 27.75 Q40.7 37.9 43.35 45.85 49.35 64.0 60.15 70.0 L60.15 68.55 60.15 68.5 Q59.9 46.7 58.45 25.35 L58.45 25.2 58.3 23.0 57.9 17.9 57.9 17.85 39.25 17.2 37.5 17.2 37.5 17.25 38.8 26.85 M22.35 38.75 Q21.75 33.45 22.45 28.6 16.0 34.15 10.1 40.45 L10.05 40.45 10.1 40.5 10.15 40.65 Q10.7 50.05 14.7 58.3 L15.15 59.2 Q20.6 56.05 26.2 53.25 23.15 45.65 22.35 38.75 M5.2 45.9 L4.9 46.2 4.85 46.25 4.85 46.3 5.2 48.35 Q6.6 55.8 9.5 61.2 L10.15 62.2 11.15 61.6 14.7 59.45 Q10.3 50.85 9.65 40.9 L5.2 45.9 M22.8 38.3 Q23.55 45.3 26.65 53.05 34.6 49.0 42.8 45.8 40.25 38.05 38.55 28.15 L38.5 28.0 Q37.65 22.95 37.05 17.4 29.7 22.35 22.95 28.15 L22.9 28.2 22.95 28.4 Q22.25 33.15 22.8 38.3 M11.4 62.0 L10.4 62.6 Q13.15 66.8 17.2 69.95 L20.7 72.2 Q23.05 73.45 25.8 74.2 L25.8 74.15 29.45 74.95 Q21.25 70.9 15.85 61.6 L14.9 59.9 14.85 59.95 11.4 62.0 M21.25 78.25 L30.7 75.95 25.6 74.95 22.45 73.9 20.05 72.8 21.25 78.25 M26.8 54.65 L26.4 53.7 Q20.8 56.5 15.4 59.65 L15.35 59.65 16.3 61.35 Q21.9 71.0 30.5 74.9 L30.65 75.0 30.65 75.1 31.8 75.25 36.35 75.45 42.35 75.35 44.45 75.3 44.55 75.3 Q33.3 70.0 26.8 54.65 M26.85 53.5 L27.25 54.45 Q33.85 69.95 45.25 75.1 L45.4 75.2 45.4 75.3 46.05 75.25 68.75 73.2 Q64.2 72.7 60.3 70.65 49.15 64.75 43.0 46.25 34.8 49.5 26.85 53.5" fill="#000000" fill-rule="evenodd" stroke="none"/>
      <path d="M109.7 25.8 Q109.65 20.35 109.45 19.85 109.75 19.5 107.7 17.8 105.6 16.05 100.35 13.3 95.05 10.55 90.4 9.3 L81.55 7.1 72.65 5.2 64.2 3.85 55.95 2.8 46.65 2.2 39.05 2.45 Q36.25 2.6 34.9 4.2 33.5 5.8 33.3 11.15 L32.75 9.8 Q32.6 8.6 32.6 6.9 L32.65 4.65 32.7 4.5 33.15 1.8 Q35.7 0.9 43.75 0.8 54.1 0.7 65.75 2.3 97.2 6.5 109.9 18.45 110.55 19.45 110.2 23.1 L109.7 25.8" fill="#dfdfdf" fill-rule="evenodd" stroke="none"/>
      <path d="M33.3 11.15 Q33.5 5.8 34.9 4.2 36.25 2.6 39.05 2.45 L46.65 2.2 55.95 2.8 64.2 3.85 72.65 5.2 81.55 7.1 90.4 9.3 Q95.05 10.55 100.35 13.3 105.6 16.05 107.7 17.8 109.75 19.5 109.45 19.85 109.65 20.35 109.7 25.8 109.3 27.25 108.7 28.05 L108.65 28.1 Q85.0 12.9 34.15 13.0 L33.3 11.15 M33.15 1.8 L32.7 4.5 Q30.35 4.2 26.2 8.7 22.0 13.2 18.25 17.9 L10.8 27.4 Q7.1 32.2 4.9 35.45 L1.9 39.9 Q1.1 41.1 1.15 42.55 1.2 43.95 1.55 45.1 0.4 42.45 0.95 40.1 10.85 24.95 18.55 15.7 26.3 6.3 32.5 2.15 L33.15 1.8 M86.7 30.5 Q86.55 47.6 85.1 66.55 L85.1 66.7 Q84.45 67.15 83.75 67.55 79.8 70.05 75.15 70.8 69.75 71.7 64.5 70.3 62.45 69.8 60.65 68.85 L60.65 68.8 Q60.4 46.9 58.95 25.45 L58.95 25.3 59.45 25.4 68.2 27.2 78.1 28.9 86.6 30.45 86.7 30.5 M99.95 37.6 L99.35 40.4 Q97.95 45.7 95.85 50.85 93.7 56.15 90.35 60.85 88.25 63.8 85.65 66.15 87.05 47.45 87.2 30.6 93.75 32.0 96.55 33.7 98.9 35.1 99.95 37.6 M60.15 68.5 L59.9 68.3 57.1 65.85 Q52.9 61.9 50.05 57.05 47.05 52.0 45.1 46.55 43.15 41.1 41.95 35.5 41.1 31.35 40.4 27.1 41.45 25.8 43.45 25.05 L46.15 24.4 49.5 24.05 56.15 24.8 58.45 25.35 Q59.9 46.7 60.15 68.5" fill="#b9b9b9" fill-rule="evenodd" stroke="none"/>
      <path d="M58.8 23.1 L58.4 17.9 Q74.85 19.2 86.75 22.9 L86.7 23.0 86.75 28.05 83.1 27.3 62.2 23.6 58.8 23.1 M87.25 28.2 L87.2 23.05 Q95.35 25.65 101.35 29.45 L101.3 29.7 101.25 30.15 100.8 32.8 100.8 32.9 100.35 35.65 Q99.55 32.9 97.15 31.45 94.4 29.8 87.25 28.2 M101.6 29.05 Q95.45 25.1 87.05 22.45 74.95 18.65 58.2 17.35 L39.2 16.7 37.5 16.7 37.4 16.75 37.3 16.7 37.1 16.75 Q29.55 21.8 22.6 27.75 15.85 33.5 9.75 40.1 7.35 42.55 5.1 45.25 L4.5 45.9 4.5 45.95 4.4 45.95 4.15 46.1 4.05 46.4 4.25 47.75 2.7 47.1 4.9 43.95 Q14.65 30.6 34.15 13.5 L34.35 13.5 Q84.75 13.4 108.25 28.4 L101.75 32.2 102.15 29.55 102.1 29.25 101.85 29.05 101.65 29.1 101.6 29.05 M58.3 23.0 Q48.5 21.55 44.7 21.55 41.85 21.55 40.1 24.05 L39.95 24.35 Q39.2 25.45 38.8 26.85 L37.5 17.25 37.5 17.2 39.25 17.2 57.9 17.85 57.9 17.9 58.3 23.0 M14.7 58.3 Q10.7 50.05 10.15 40.65 L10.1 40.5 10.05 40.45 10.1 40.45 Q16.0 34.15 22.45 28.6 21.75 33.45 22.35 38.75 L21.05 39.95 Q14.6 46.6 14.6 55.8 L14.7 58.3 M5.2 45.9 L9.65 40.9 Q10.3 50.85 14.7 59.45 L11.15 61.6 9.25 58.4 Q7.8 55.65 6.0 49.9 5.5 48.3 5.2 45.9 M22.8 38.3 Q22.25 33.15 22.95 28.4 L22.9 28.2 22.95 28.15 Q29.7 22.35 37.05 17.4 37.65 22.95 38.5 28.0 28.1 33.65 22.8 38.3 M11.4 62.0 L14.85 59.95 Q15.3 64.2 16.9 67.2 L17.55 68.35 14.4 65.6 11.4 62.0" fill="#757683" fill-rule="evenodd" stroke="none"/>
      <path d="M32.7 4.5 L32.65 4.65 32.6 6.9 Q32.6 8.6 32.75 9.8 L32.35 8.5 Q32.65 10.4 33.25 12.1 L33.7 13.2 Q14.45 30.1 4.7 43.4 L2.4 46.7 1.55 45.1 Q1.2 43.95 1.15 42.55 1.1 41.1 1.9 39.9 L4.9 35.45 Q7.1 32.2 10.8 27.4 L18.25 17.9 Q22.0 13.2 26.2 8.7 30.35 4.2 32.7 4.5 M86.75 28.05 L86.7 30.5 86.6 30.45 78.1 28.9 68.2 27.2 59.45 25.4 58.95 25.3 58.8 23.1 62.2 23.6 83.1 27.3 86.75 28.05 M85.1 66.7 L85.0 67.55 85.05 67.7 84.95 67.8 Q80.2 71.45 74.25 72.4 L73.95 72.5 73.65 72.5 70.1 73.05 70.05 72.9 69.9 72.8 Q64.9 72.45 60.65 70.25 L60.65 70.1 60.65 68.85 Q62.45 69.8 64.5 70.3 69.75 71.7 75.15 70.8 79.8 70.05 83.75 67.55 84.45 67.15 85.1 66.7 M100.35 35.65 L99.95 37.6 Q98.9 35.1 96.55 33.7 93.75 32.0 87.2 30.6 L87.25 28.2 Q94.4 29.8 97.15 31.45 99.55 32.9 100.35 35.65 M99.35 40.4 Q94.9 59.45 85.55 67.35 L85.6 66.4 85.65 66.15 Q88.25 63.8 90.35 60.85 93.7 56.15 95.85 50.85 97.95 45.7 99.35 40.4 M88.0 81.4 Q74.1 77.3 46.6 83.75 L45.2 77.1 51.15 76.2 51.45 76.05 51.5 75.8 61.1 74.95 61.25 75.2 61.55 75.3 Q76.9 74.5 89.05 76.85 89.45 80.05 88.0 81.4 M38.8 26.85 Q39.2 25.45 39.95 24.35 L40.1 24.05 Q41.85 21.55 44.7 21.55 48.5 21.55 58.3 23.0 L58.45 25.2 58.45 25.35 56.15 24.8 49.5 24.05 46.15 24.4 43.45 25.05 Q41.45 25.8 40.4 27.1 41.1 31.35 41.95 35.5 43.15 41.1 45.1 46.55 47.05 52.0 50.05 57.05 52.9 61.9 57.1 65.85 L59.9 68.3 60.15 68.5 60.15 68.55 60.15 70.0 Q49.35 64.0 43.35 45.85 40.7 37.9 38.95 27.75 L38.8 26.85 M22.35 38.75 Q23.15 45.65 26.2 53.25 20.6 56.05 15.15 59.2 L14.7 58.3 14.6 55.8 Q14.6 46.6 21.05 39.95 L22.35 38.75 M11.15 61.6 L10.15 62.2 9.5 61.2 Q6.6 55.8 5.2 48.35 L4.85 46.3 4.85 46.25 4.9 46.2 5.2 45.9 Q5.5 48.3 6.0 49.9 7.8 55.65 9.25 58.4 L11.15 61.6 M38.5 28.0 L38.55 28.15 Q40.25 38.05 42.8 45.8 34.6 49.0 26.65 53.05 23.55 45.3 22.8 38.3 28.1 33.65 38.5 28.0 M14.85 59.95 L14.9 59.9 15.85 61.6 Q21.25 70.9 29.45 74.95 L25.8 74.15 25.8 74.2 Q23.05 73.45 20.7 72.2 L17.2 69.95 Q13.15 66.8 10.4 62.6 L11.4 62.0 14.4 65.6 17.55 68.35 16.9 67.2 Q15.3 64.2 14.85 59.95 M26.85 53.5 Q34.8 49.5 43.0 46.25 49.15 64.75 60.3 70.65 64.2 72.7 68.75 73.2 L46.05 75.25 45.4 75.3 45.4 75.2 45.25 75.1 Q33.85 69.95 27.25 54.45 L26.85 53.5 M26.8 54.65 Q33.3 70.0 44.55 75.3 L44.45 75.3 42.35 75.35 36.35 75.45 31.8 75.25 30.65 75.1 30.65 75.0 30.5 74.9 Q21.9 71.0 16.3 61.35 L15.35 59.65 15.4 59.65 Q20.8 56.5 26.4 53.7 L26.8 54.65 M21.25 78.25 L20.05 72.8 22.45 73.9 25.6 74.95 30.7 75.95 21.25 78.25" fill="#8e9297" fill-rule="evenodd" stroke="none"/>
    </g>
    <g id="shape19" transform="matrix(1.0, 0.0, 0.0, 1.0, -0.1, -0.1)">
      <path d="M0.4 3.25 Q-0.05 2.9 0.2 2.25 0.35 1.6 0.8 1.0 1.45 0.4 2.1 0.2 L3.0 0.25 Q3.3 0.6 3.2 1.1 3.05 1.85 2.55 2.45 L1.35 3.3 0.4 3.25" fill="#000000" fill-rule="evenodd" stroke="none"/>
    </g>
    <g id="shape20" transform="matrix(1.0, 0.0, 0.0, 1.0, 0.3, 0.4)">
      <path d="M9.05 6.15 L8.8 8.0 8.75 8.0 8.45 9.1 8.4 9.1 4.7 10.25 4.75 10.0 Q6.2 4.8 2.9 1.3 L6.3 0.45 Q7.7 1.1 8.4 2.65 9.1 4.4 9.05 6.15" fill="#8e9297" fill-rule="evenodd" stroke="none"/>
      <path d="M1.65 1.5 L1.7 1.5 1.8 1.5 2.1 1.45 2.25 1.7 Q5.35 4.95 4.0 9.8 L3.95 9.85 3.85 10.35 3.85 10.5 3.75 10.55 3.7 10.55 3.55 10.65 3.25 10.7 Q2.55 10.7 1.85 9.65 0.85 7.9 0.6 6.3 0.35 3.95 0.7 2.9 1.0 1.85 1.6 1.55 L1.65 1.5" fill="#757683" fill-rule="evenodd" stroke="none"/>
      <path d="M6.2 -0.4 L6.45 -0.35 Q8.3 0.45 9.15 2.35 9.9 4.2 9.85 6.15 L9.55 8.25 9.55 8.2 9.15 9.45 9.05 9.6 8.85 9.75 8.7 9.85 4.0 11.3 3.85 11.35 3.8 11.4 3.45 11.5 3.35 11.5 Q2.25 11.7 1.2 10.1 L1.15 10.05 Q0.05 8.1 -0.2 6.4 -0.45 3.85 -0.05 2.65 0.4 1.25 1.2 0.9 L1.35 0.8 1.65 0.7 6.2 -0.4 M9.05 6.15 Q9.1 4.4 8.4 2.65 7.7 1.1 6.3 0.45 L2.9 1.3 Q6.2 4.8 4.75 10.0 L4.7 10.25 8.4 9.1 8.45 9.1 8.75 8.0 8.8 8.0 9.05 6.15 M1.65 1.5 L1.6 1.55 Q1.0 1.85 0.7 2.9 0.35 3.95 0.6 6.3 0.85 7.9 1.85 9.65 2.55 10.7 3.25 10.7 L3.55 10.65 3.7 10.55 3.75 10.55 3.85 10.5 3.85 10.35 3.95 9.85 4.0 9.8 Q5.35 4.95 2.25 1.7 L2.1 1.45 1.8 1.5 1.7 1.5 1.65 1.5" fill="#000000" fill-rule="evenodd" stroke="none"/>
    </g>
    <g id="shape21" transform="matrix(1.0, 0.0, 0.0, 1.0, 0.0, 0.0)">
      <path d="M45.25 9.45 L45.0 11.85 Q44.65 13.2 43.95 14.35 52.6 27.45 60.4 42.55 L60.55 42.5 64.35 43.0 64.6 43.15 64.7 43.45 64.35 52.0 64.3 52.15 64.15 52.3 60.0 54.6 59.8 54.65 2.9 57.4 2.65 57.35 2.45 57.1 0.0 46.35 0.05 46.15 0.15 45.95 5.5 41.45 5.7 41.35 6.75 41.25 6.9 41.3 26.85 12.55 Q26.35 11.05 26.35 9.45 26.35 5.55 29.15 2.8 30.45 1.45 31.95 0.85 33.7 0.0 35.8 0.0 39.7 0.0 42.5 2.8 45.25 5.55 45.25 9.45 M40.85 9.55 Q41.7 8.7 41.7 7.45 41.7 6.2 40.85 5.3 39.95 4.45 38.7 4.45 37.45 4.45 36.55 5.3 35.7 6.2 35.7 7.45 35.7 8.7 36.55 9.55 37.45 10.45 38.7 10.45 39.95 10.45 40.85 9.55 M40.8 10.75 L41.75 9.2 41.2 9.9 Q40.15 10.95 38.7 10.95 37.25 10.95 36.2 9.9 35.2 8.9 35.2 7.45 35.2 6.0 36.2 4.95 36.8 4.35 37.6 4.15 36.25 4.25 35.2 5.2 34.1 6.4 34.1 8.0 34.1 9.65 35.2 10.75 36.4 11.95 38.0 11.95 39.65 11.95 40.8 10.75 M43.5 15.15 L42.0 17.2 55.45 41.85 59.4 42.35 Q51.9 27.85 43.5 15.15 M44.2 11.65 L44.25 11.55 Q44.45 11.15 44.45 9.45 44.45 5.85 41.95 3.35 39.4 0.8 35.8 0.8 33.9 0.8 32.3 1.55 L32.25 1.6 31.95 1.7 Q29.25 4.6 28.65 7.6 28.25 9.65 29.0 11.5 L29.25 12.0 Q29.65 12.9 30.4 13.7 L30.45 13.75 Q34.1 16.8 38.2 16.35 41.95 15.85 44.0 12.4 L44.2 11.65 M42.4 8.0 Q42.4 9.85 41.15 11.1 39.85 12.45 38.0 12.45 36.2 12.45 34.85 11.1 33.6 9.85 33.6 8.0 33.6 6.2 34.85 4.85 36.2 3.6 38.0 3.6 39.85 3.6 41.15 4.85 42.4 6.2 42.4 8.0 M41.6 17.5 L40.85 17.85 Q47.25 29.15 53.15 41.65 L54.8 41.8 41.6 17.5 M41.4 16.65 Q42.2 15.95 42.9 14.65 41.0 16.5 38.25 16.85 33.95 17.3 30.1 14.1 29.25 13.2 28.8 12.2 L28.8 12.25 28.55 11.7 Q27.75 9.75 28.15 7.5 28.65 4.95 30.6 2.55 L29.7 3.35 Q27.15 5.85 27.15 9.45 27.15 11.0 27.7 12.45 L27.7 12.55 28.2 12.85 28.25 12.9 28.4 13.1 28.5 13.2 29.45 14.4 Q30.1 15.15 31.5 15.9 L31.6 16.0 31.6 16.15 31.55 16.3 31.15 16.8 Q33.2 18.1 35.8 18.1 38.1 18.1 40.1 17.35 L40.15 17.35 41.4 16.65 M60.25 43.25 L60.05 43.25 55.3 42.65 52.9 42.4 52.7 42.35 52.65 42.3 52.4 42.35 Q32.5 40.25 15.2 41.35 L14.9 41.3 14.85 41.3 14.7 41.35 9.35 41.75 7.2 42.0 7.0 42.0 6.75 42.05 6.1 42.1 6.1 42.15 8.1 53.9 8.1 53.95 63.55 51.75 63.9 43.75 60.45 43.3 60.25 43.25 M27.95 13.35 L27.9 13.3 27.5 13.05 8.0 41.1 9.3 40.95 27.95 13.35 M29.05 14.7 L28.3 13.75 9.95 40.9 14.45 40.55 30.4 16.75 30.55 16.6 30.7 16.55 30.95 16.2 Q29.65 15.45 29.05 14.7 M40.15 18.2 L35.8 18.9 Q33.0 18.9 30.8 17.5 L15.45 40.55 Q32.55 39.45 52.25 41.55 46.4 29.3 40.15 18.2 M8.0 54.45 L4.3 56.5 59.7 53.85 62.6 52.25 8.0 54.45 M5.65 42.35 L0.85 46.4 3.2 56.55 7.65 54.05 7.6 54.0 5.65 42.35" fill="#000000" fill-rule="evenodd" stroke="none"/>
      <path d="M40.8 10.75 Q39.65 11.95 38.0 11.95 36.4 11.95 35.2 10.75 34.1 9.65 34.1 8.0 34.1 6.4 35.2 5.2 36.25 4.25 37.6 4.15 36.8 4.35 36.2 4.95 35.2 6.0 35.2 7.45 35.2 8.9 36.2 9.9 37.25 10.95 38.7 10.95 40.15 10.95 41.2 9.9 L41.75 9.2 40.8 10.75 M41.4 16.65 L40.15 17.35 40.1 17.35 Q38.1 18.1 35.8 18.1 33.2 18.1 31.15 16.8 L31.55 16.3 31.6 16.15 31.6 16.0 31.5 15.9 Q30.1 15.15 29.45 14.4 L28.5 13.2 28.4 13.1 28.25 12.9 28.2 12.85 27.7 12.55 27.7 12.45 Q27.15 11.0 27.15 9.45 27.15 5.85 29.7 3.35 L30.6 2.55 Q28.65 4.95 28.15 7.5 27.75 9.75 28.55 11.7 L28.8 12.25 28.8 12.2 Q29.25 13.2 30.1 14.1 33.95 17.3 38.25 16.85 41.0 16.5 42.9 14.65 42.2 15.95 41.4 16.65 M41.6 17.5 L54.8 41.8 53.15 41.65 Q47.25 29.15 40.85 17.85 L41.6 17.5 M5.65 42.35 L7.6 54.0 7.65 54.05 3.2 56.55 0.85 46.4 5.65 42.35 M8.0 54.45 L62.6 52.25 59.7 53.85 4.3 56.5 8.0 54.45" fill="#757683" fill-rule="evenodd" stroke="none"/>
      <path d="M40.85 9.55 Q39.95 10.45 38.7 10.45 37.45 10.45 36.55 9.55 35.7 8.7 35.7 7.45 35.7 6.2 36.55 5.3 37.45 4.45 38.7 4.45 39.95 4.45 40.85 5.3 41.7 6.2 41.7 7.45 41.7 8.7 40.85 9.55 M42.4 8.0 Q42.4 6.2 41.15 4.85 39.85 3.6 38.0 3.6 36.2 3.6 34.85 4.85 33.6 6.2 33.6 8.0 33.6 9.85 34.85 11.1 36.2 12.45 38.0 12.45 39.85 12.45 41.15 11.1 42.4 9.85 42.4 8.0 M44.2 11.65 L44.0 12.4 Q41.95 15.85 38.2 16.35 34.1 16.8 30.45 13.75 L30.4 13.7 Q29.65 12.9 29.25 12.0 L29.0 11.5 Q28.25 9.65 28.65 7.6 29.25 4.6 31.95 1.7 L32.25 1.6 32.3 1.55 Q33.9 0.8 35.8 0.8 39.4 0.8 41.95 3.35 44.45 5.85 44.45 9.45 44.45 11.15 44.25 11.55 L44.2 11.65 M43.5 15.15 Q51.9 27.85 59.4 42.35 L55.45 41.85 42.0 17.2 43.5 15.15 M60.25 43.25 L60.45 43.3 63.9 43.75 63.55 51.75 8.1 53.95 8.1 53.9 6.1 42.15 6.1 42.1 6.75 42.05 7.0 42.0 7.2 42.0 9.35 41.75 14.7 41.35 14.85 41.3 14.9 41.3 15.2 41.35 Q32.5 40.25 52.4 42.35 L52.65 42.3 52.7 42.35 52.9 42.4 55.3 42.65 60.05 43.25 60.25 43.25 M29.05 14.7 Q29.65 15.45 30.95 16.2 L30.7 16.55 30.55 16.6 30.4 16.75 14.45 40.55 9.95 40.9 28.3 13.75 29.05 14.7" fill="#b9b9b9" fill-rule="evenodd" stroke="none"/>
      <path d="M27.95 13.35 L9.3 40.95 8.0 41.1 27.5 13.05 27.9 13.3 27.95 13.35" fill="#dfdfdf" fill-rule="evenodd" stroke="none"/>
    </g>
    <g id="shape22" transform="matrix(1.0, 0.0, 0.0, 1.0, 0.0, 0.0)">
      <path d="M1.2 4.15 L1.15 4.2 0.0 4.2 0.1 4.05 Q3.5 0.95 8.45 0.1 12.4 -0.55 14.2 3.15 14.95 4.7 14.9 6.5 L14.85 6.95 14.75 7.75 14.45 9.1 13.9 10.6 12.95 11.8 12.75 11.95 11.7 12.3 10.1 12.1 10.05 12.05 8.85 11.2 Q7.7 9.75 7.15 7.75 L6.55 5.5 6.3 4.3 6.35 4.2 6.3 3.65 6.75 4.75 6.8 4.9 7.3 6.2 7.8 7.65 Q8.3 9.15 9.35 10.45 L10.6 11.35 12.0 11.5 12.15 11.45 12.4 11.3 13.45 9.85 13.5 9.7 14.05 6.9 14.05 6.85 Q14.25 5.0 13.5 3.5 12.0 0.35 8.6 0.9 4.1 1.7 1.2 4.15" fill="#000000" fill-rule="evenodd" stroke="none"/>
      <path d="M1.2 4.15 Q4.1 1.7 8.6 0.9 12.0 0.35 13.5 3.5 14.25 5.0 14.05 6.85 L14.05 6.9 13.5 9.7 13.45 9.85 12.4 11.3 12.15 11.45 12.0 11.5 10.6 11.35 9.35 10.45 Q8.3 9.15 7.8 7.65 L7.3 6.2 6.8 4.9 6.75 4.75 6.3 3.65 6.35 4.2 6.3 4.3 1.2 4.15" fill="#650099" fill-rule="evenodd" stroke="none"/>
    </g>
  </defs>
</svg>
